<?xml version="1.0" standalone="no"?>
<!DOCTYPE svg PUBLIC "-//W3C//DTD SVG 1.1//EN" "http://www.w3.org/Graphics/SVG/1.1/DTD/svg11.dtd" >
<svg xmlns="http://www.w3.org/2000/svg" xmlns:xlink="http://www.w3.org/1999/xlink" version="1.1">
<metadata>
Created by FontForge 20170731 at Tue Oct 31 12:59:32 2017
 By Aleksey,,,
</metadata>
<defs>
<font id="AlJazeera-Latin-80ExtraBold" horiz-adv-x="560" >
  <font-face 
    font-family="Al Jazeera-Latin 80 Extra Bold"
    font-weight="400"
    font-stretch="normal"
    units-per-em="1000"
    panose-1="0 0 9 0 0 0 0 0 0 0"
    ascent="781"
    descent="-219"
    x-height="485"
    cap-height="680"
    bbox="-171 -265 1100 932"
    underline-thickness="50"
    underline-position="-150"
    unicode-range="U+000D-FB04"
  />
<missing-glyph horiz-adv-x="518" 
d="M518 0h-518v680h518v-680zM444 610h-370v-540h370v540zM203 280q0 28 20 54l43 55q24 30 24 51q0 17 -10.5 28t-26.5 11q-39 0 -48 -46l-89 13q8 57 44.5 87t96.5 30q57 0 94 -33.5t37 -84.5q0 -48 -35 -86l-42 -55q-13 -16 -13 -36v-22h-95v34zM300 114h-98v91h98v-91z
" />
    <glyph glyph-name=".notdef" horiz-adv-x="518" 
d="M518 0h-518v680h518v-680zM444 610h-370v-540h370v540zM203 280q0 28 20 54l43 55q24 30 24 51q0 17 -10.5 28t-26.5 11q-39 0 -48 -46l-89 13q8 57 44.5 87t96.5 30q57 0 94 -33.5t37 -84.5q0 -48 -35 -86l-42 -55q-13 -16 -13 -36v-22h-95v34zM300 114h-98v91h98v-91z
" />
    <glyph glyph-name=".null" horiz-adv-x="0" 
 />
    <glyph glyph-name="nonmarkingreturn" horiz-adv-x="333" 
 />
    <glyph glyph-name="NULL" horiz-adv-x="500" 
 />
    <glyph glyph-name="NULL" horiz-adv-x="500" 
 />
    <glyph glyph-name="CR.001" unicode="&#xd;" horiz-adv-x="500" 
 />
    <glyph glyph-name="space" unicode=" " horiz-adv-x="236" 
 />
    <glyph glyph-name="exclam" unicode="!" horiz-adv-x="315" 
d="M240 680l-27 -476h-111l-27 476h165zM233 0h-150v140h150v-140z" />
    <glyph glyph-name="quotedbl" unicode="&#x22;" horiz-adv-x="388" 
d="M165 680v-216h-108v216h108zM332 680v-216h-107v216h107z" />
    <glyph glyph-name="numbersign" unicode="#" horiz-adv-x="565" 
d="M352 502l25 178h122l-25 -178h74v-110h-90l-13 -95h77v-109h-91l-25 -188h-122l25 188h-98l-25 -188h-122l25 188h-72v109h86l13 95h-73v110h89l25 178h122l-25 -178h98zM225 297h98l13 95h-98z" />
    <glyph glyph-name="dollar" unicode="$" 
d="M470.5 65.5q-50.5 -56.5 -140.5 -71.5v-76h-70v72q-119 6 -211 81l89 109q32 -27 69.5 -42.5t71.5 -15.5q43 0 68.5 21.5t25.5 59.5q0 27 -19 44.5t-55 21.5q-112 11 -171 64t-59 144q0 84 53 142.5t138 69.5v73h70v-73q51 -5 91.5 -19.5t78.5 -41.5l-77 -109
q-67 42 -119 42q-39 0 -62.5 -20.5t-23.5 -53.5q0 -58 80 -70q103 -15 163 -69.5t60 -137.5q0 -88 -50.5 -144.5z" />
    <glyph glyph-name="percent" unicode="%" horiz-adv-x="830" 
d="M269 -11h-113l407 702h113zM117 352q-35 22 -48 61q-10 21 -10 96q0 76 10 96q13 40 47.5 61.5t84.5 21.5t84.5 -21.5t48.5 -61.5q9 -25 9 -96q0 -70 -12 -103t-45 -54q-34 -22 -85 -22q-49 0 -84 22zM232 433q4 7 4 76t-4 76q-8 21 -31 21t-31 -21q-3 -7 -3 -76
q0 -44 1 -50q0 -21 3 -26q6 -20 30 -20q25 0 31 20zM488 178q0 54 10.5 85.5t39.5 52.5q30 21 75 23q2 1 19 1q38 0 67.5 -16.5t45.5 -47.5q25 -31 25 -113q0 -56 -10.5 -87t-39.5 -52q-31 -22 -75 -23q-2 -1 -19 -1q-38 0 -67.5 17t-45.5 48q-25 25 -25 113zM628 75
q26 0 32 28q4 7 4 55q0 79 -6 89q-3 8 -10.5 12.5t-16.5 4.5q-12 0 -21 -7t-12 -19t-3 -55q0 -81 5 -89q7 -19 28 -19z" />
    <glyph glyph-name="ampersand" unicode="&#x26;" horiz-adv-x="649" 
d="M380.5 670.5q41.5 -20.5 66.5 -57.5q24 -37 24 -84q0 -27 -8.5 -50t-27.5 -47q-21 -28 -76 -72l80 -102l71 80l91 -74l-86 -103l15 -18q17 -20 38 -20h25v-123h-57q-39 0 -63 12t-48 44l-3 3q-79 -70 -173 -70q-92 0 -145.5 50t-53.5 134q0 58 28 105t96 100
q-41 52 -61 96q-10 27 -10 54q0 48 24.5 85t69.5 58q46 20 91 20q51 0 92.5 -20.5zM254.5 567.5q-12.5 -13.5 -12.5 -36.5q0 -10 13 -33t27 -41q55 40 55 73q0 23 -13 37t-35 14t-34.5 -13.5zM251 281q-61 -51 -61 -95q0 -33 18.5 -51.5t51.5 -18.5q40 0 87 41z" />
    <glyph glyph-name="quotesingle" unicode="'" horiz-adv-x="221" 
d="M57 464v216h108v-216h-108z" />
    <glyph glyph-name="parenleft" unicode="(" horiz-adv-x="320" 
d="M189 -84q-73 99 -105.5 196.5t-32.5 215.5q0 224 137 412h101q-92 -205 -92 -412q0 -110 23 -211t71 -201h-102z" />
    <glyph glyph-name="parenright" unicode=")" horiz-adv-x="320" 
d="M35 -84q93 195 93 412q0 112 -22.5 213t-70.5 199h103q70 -96 103 -197t33 -215q0 -235 -136 -412h-103z" />
    <glyph glyph-name="asterisk" unicode="*" horiz-adv-x="383" 
d="M235 455l2 -90h-81l1 90l-77 -46l-40 71l77 43l-77 44l40 71l77 -47l-1 89h81l-2 -89l77 45l40 -69l-77 -44l79 -43l-42 -71z" />
    <glyph glyph-name="plus" unicode="+" 
d="M346 212v-167h-132v167h-165v128h165v167h132v-167h165v-128h-165z" />
    <glyph glyph-name="comma" unicode="," horiz-adv-x="257" 
d="M57 -130v279h143v-148z" />
    <glyph glyph-name="hyphen" unicode="-" horiz-adv-x="396" 
d="M355 332v-134h-314v134h314z" />
    <glyph glyph-name="period" unicode="." horiz-adv-x="263" 
d="M206 149v-149h-149v149h149z" />
    <glyph glyph-name="slash" unicode="/" horiz-adv-x="442" 
d="M407 691l-222 -702h-144l220 702h146z" />
    <glyph glyph-name="zero" unicode="0" 
d="M54 340q0 103 8 169q7 55 25 86t59 59q55 37 134 37q80 0 135 -37.5t76 -104.5q15 -45 15 -209q0 -118 -7 -167q-7 -55 -25 -86.5t-59 -59.5q-56 -38 -135 -38q-78 0 -134 38t-77 104q-15 46 -15 209zM280 116q49 0 62 42q7 21 7 182t-7 182q-13 42 -62 42q-48 0 -62 -42
q-7 -21 -7 -182t7 -182q14 -42 62 -42z" />
    <glyph glyph-name="one" unicode="1" 
d="M394 680v-680h-154v511l-123 -83v158l131 94h146z" />
    <glyph glyph-name="two" unicode="2" 
d="M395 666q49 -25 76 -70q26 -46 26 -101q0 -82 -71 -168l-172 -198h243v-129h-435v121l244 282q38 44 38 89q0 33 -18 52.5t-48 19.5q-70 0 -75 -87l-140 20q1 57 29.5 101.5t79.5 68.5q49 24 112 24q62 0 111 -25z" />
    <glyph glyph-name="three" unicode="3" 
d="M438 639.5q58 -51.5 58 -136.5q0 -92 -78 -140q42 -19 66.5 -63t24.5 -103q0 -60 -28.5 -107.5t-79.5 -73.5q-52 -27 -119 -27q-97 0 -156.5 44.5t-72.5 128.5l141 25q9 -37 29.5 -54t55.5 -17q34 0 55 23t21 59q0 42 -23 65t-64 23h-39v126h37q35 0 56 21t21 57
q0 34 -18.5 54t-51.5 20q-60 0 -72 -68l-141 25q12 81 70 125.5t151 44.5q99 0 157 -51.5z" />
    <glyph glyph-name="four" unicode="4" horiz-adv-x="534" 
d="M319 0v97h-280v133l201 450h166l-205 -452h118v152h148v-152h58v-131h-58v-97h-148z" />
    <glyph glyph-name="five" unicode="5" 
d="M204 178q20 -62 75 -62q41 0 56.5 24.5t15.5 81.5q0 58 -14.5 81.5t-56.5 23.5q-25 0 -40.5 -10t-27.5 -35h-136v398h409v-128h-276v-134q38 36 106 36q70 0 113 -28t62 -87q13 -39 13 -116q0 -234 -221 -234q-94 0 -150.5 43t-63.5 121z" />
    <glyph glyph-name="six" unicode="6" 
d="M99 379l163 301h162l-148 -272q12 6 42 6q83 0 138 -58q57 -55 57 -149q0 -65 -29 -114.5t-83 -76.5q-52 -27 -121 -27q-68 0 -121 27t-83 76q-30 50 -30 113q0 73 53 174zM340 267q-23 25 -60 25q-38 0 -61 -25t-23 -64t23 -63t61 -24q37 0 60 24t23 63t-23 64z" />
    <glyph glyph-name="seven" unicode="7" 
d="M504 548l-217 -548h-161l218 547h-137v-83h-143v216h440v-132z" />
    <glyph glyph-name="eight" unicode="8" 
d="M63.5 288q18.5 38 60.5 68q-29 22 -46.5 58t-17.5 77q0 56 27 101.5t77 72.5q50 26 116 26q65 0 115.5 -26t77.5 -72t27 -102q0 -42 -17.5 -77.5t-48.5 -57.5q81 -54 81 -158q0 -62 -29 -109.5t-83 -73.5q-57 -26 -123 -26q-68 0 -121.5 26t-83.5 74t-30 109
q0 52 18.5 90zM331 439q21 21 21 51q0 32 -20 53t-52 21t-52 -21t-20 -53q0 -30 20.5 -51t51.5 -21q30 0 51 21zM219 141q24 -25 61 -25t61 25t24 63t-24 62.5t-61 24.5t-61 -24.5t-24 -62.5t24 -63z" />
    <glyph glyph-name="nine" unicode="9" 
d="M284 273q-13 -7 -42 -7q-80 0 -139 57q-56 59 -56 150q0 65 29 114.5t83 76.5q53 27 121 27t121 -27t83 -76t30 -113q0 -76 -53 -174l-163 -301h-162zM219.5 413.5q22.5 -24.5 60.5 -24.5t61 24.5t23 63.5t-23 63t-61 24t-60.5 -24t-22.5 -63t22.5 -63.5z" />
    <glyph glyph-name="colon" unicode=":" horiz-adv-x="275" 
d="M213 485v-147h-150v147h150zM213 0h-150v149h150v-149z" />
    <glyph glyph-name="semicolon" unicode=";" horiz-adv-x="275" 
d="M213 485v-147h-150v147h150zM210 -1l-143 -125v275h143v-150z" />
    <glyph glyph-name="less" unicode="&#x3c;" 
d="M511 181v-138l-462 177v113l462 177v-138l-268 -96z" />
    <glyph glyph-name="equal" unicode="=" 
d="M511 448v-128h-462v128h462zM511 233v-128h-462v128h462z" />
    <glyph glyph-name="greater" unicode="&#x3e;" 
d="M511 333v-113l-462 -177v139l268 94l-268 96v138z" />
    <glyph glyph-name="question" unicode="?" horiz-adv-x="477" 
d="M344.5 667q47.5 -24 74.5 -66t27 -93q0 -31 -8 -54.5t-32 -58.5q-37 -53 -80 -101q-20 -26 -20 -59v-31h-147v52q0 48 30 84l66 82q40 46 40 79q0 28 -16.5 45t-43.5 17q-30 0 -47.5 -18t-24.5 -59l-139 20q10 89 66 137t149 48q58 0 105.5 -24zM158 0v140h150v-140h-150
z" />
    <glyph glyph-name="at" unicode="@" horiz-adv-x="915" 
d="M753 561q116 -113 116 -293q0 -98 -49.5 -156.5t-135.5 -58.5q-48 0 -80 16t-54 50q-36 -65 -135 -65q-64 0 -101 27.5t-47 77.5q-9 44 -9 107q0 74 15 117q29 95 132 95q78 0 109 -52v41h123v-250q0 -28 13.5 -44t36.5 -16q61 0 61 110q0 139 -80 219q-77 83 -215 83
q-89 0 -156 -37t-103 -106t-36 -162q0 -136 79 -218q82 -82 216 -82q114 0 212 53l54 -87q-62 -38 -125 -55t-141 -17q-120 0 -214.5 51t-147.5 144q-53 92 -53 211q0 120 52 213.5t146 145.5q95 51 217 51q187 0 300 -113zM397 348q-14 -24 -14 -82q0 -59 14 -83t51 -24
q47 0 60 42q6 14 6 65q0 44 -4 63t-18 31t-44 12q-37 0 -51 -24z" />
    <glyph glyph-name="A" unicode="A" horiz-adv-x="658" 
d="M218 123l-37 -123h-170l241 680h164l237 -680h-167l-39 123h-229zM405 258l-73 230l-71 -230h144z" />
    <glyph glyph-name="B" unicode="B" horiz-adv-x="612" 
d="M60 680h281q107 0 163.5 -47t56.5 -134q0 -104 -82 -147q40 -13 67 -57t27 -98q0 -96 -61 -146.5t-176 -50.5h-276v680zM316 405q41 0 63 19t22 56q0 35 -22.5 54.5t-62.5 19.5h-94v-149h94zM325 127q42 0 64 20.5t22 59.5q0 38 -22 59t-64 21h-103v-160h103z" />
    <glyph glyph-name="C" unicode="C" horiz-adv-x="579" 
d="M153 32q-63 43 -90 124q-20 58 -20 184q0 88 10 145t34 95.5t66 67.5q62 43 155 43q102 0 170 -55.5t86 -154.5h-165q-11 36 -32.5 52t-57.5 16q-44 0 -67 -21t-29 -65q-6 -43 -6 -123q0 -87 6.5 -126.5t28.5 -60.5q22 -22 67 -22q33 0 55 16t31 46h166
q-23 -102 -87 -153t-166 -51q-92 0 -155 43z" />
    <glyph glyph-name="D" unicode="D" horiz-adv-x="633" 
d="M60 680h268q109 0 169 -41.5t76 -118.5q13 -64 13 -180q0 -86 -6.5 -136t-23.5 -88q-18 -40 -54 -70q-55 -46 -174 -46h-268v680zM293 144q57 0 86.5 19t36.5 58q6 41 6 125q0 81 -7 116t-33 55q-29 20 -89 20h-71v-393h71z" />
    <glyph glyph-name="E" unicode="E" horiz-adv-x="563" 
d="M521 138v-138h-461v680h461v-137h-299v-132h250v-136h-250v-137h299z" />
    <glyph glyph-name="F" unicode="F" horiz-adv-x="555" 
d="M222 267v-267h-162v680h461v-137h-299v-140h250v-136h-250z" />
    <glyph glyph-name="G" unicode="G" horiz-adv-x="629" 
d="M154.5 31.5q-65.5 42.5 -91.5 123.5q-20 65 -20 185q0 89 10 146t34 95q29 50 87.5 80t141.5 30q109 0 177 -53.5t86 -156.5h-165q-20 68 -98 68q-79 0 -99 -71q-10 -24 -10 -138q0 -83 6 -124q6 -44 31 -64.5t74 -20.5q37 0 64 17t35 46q7 21 7 62h-97v124h259v-64
q0 -110 -25 -175.5t-85 -106.5q-67 -45 -160 -45q-96 0 -161.5 42.5z" />
    <glyph glyph-name="H" unicode="H" horiz-adv-x="659" 
d="M222 272v-272h-162v680h162v-264h215v264h162v-680h-162v272h-215z" />
    <glyph glyph-name="I" unicode="I" horiz-adv-x="282" 
d="M222 680v-680h-162v680h162z" />
    <glyph glyph-name="J" unicode="J" horiz-adv-x="528" 
d="M99 16q-56 27 -80 72l116 90q35 -47 86 -47q44 0 68.5 29t24.5 81v439h162v-428q0 -128 -66 -195.5t-189 -67.5q-66 0 -122 27z" />
    <glyph glyph-name="K" unicode="K" horiz-adv-x="651" 
d="M222 177v-177h-162v680h162v-291l217 291h185l-213 -273l226 -407h-187l-147 282z" />
    <glyph glyph-name="L" unicode="L" horiz-adv-x="553" 
d="M532 144v-144h-472v680h162v-536h310z" />
    <glyph glyph-name="M" unicode="M" horiz-adv-x="766" 
d="M206 386v-386h-146v680h156l170 -388l168 388h153v-680h-146v386l-127 -293h-101z" />
    <glyph glyph-name="N" unicode="N" horiz-adv-x="654" 
d="M206 427v-427h-146v680h155l233 -427v427h146v-680h-154z" />
    <glyph glyph-name="O" unicode="O" horiz-adv-x="629" 
d="M155 32q-66 43 -92 123q-20 65 -20 185q0 89 10.5 146t34.5 96q30 49 88 79t139 30q94 0 159.5 -42.5t91.5 -122.5q20 -65 20 -186q0 -89 -10 -145.5t-34 -94.5q-30 -49 -88.5 -80t-138.5 -31q-94 0 -160 43zM385.5 151.5q23.5 20.5 30.5 65.5q6 42 6 123q0 87 -7 127.5
t-29 60.5q-24 21 -71 21q-48 0 -72 -20.5t-30 -64.5q-6 -42 -6 -124q0 -89 6.5 -128.5t29.5 -59.5q23 -21 72 -21q47 0 70.5 20.5z" />
    <glyph glyph-name="P" unicode="P" horiz-adv-x="608" 
d="M60 680h279q113 0 178 -60t65 -163q0 -102 -66 -161.5t-177 -59.5h-117v-236h-162v680zM329 373q43 0 67.5 22.5t24.5 61.5q0 40 -24.5 63t-67.5 23h-107v-170h107z" />
    <glyph glyph-name="Q" unicode="Q" horiz-adv-x="629" 
d="M523 -60l-75 77q-55 -28 -133 -28q-94 0 -160 43t-92 123q-20 65 -20 185q0 89 10.5 146t34.5 96q30 49 88 79t139 30q94 0 159.5 -42.5t91.5 -122.5q20 -65 20 -186q0 -120 -20 -185q-7 -22 -16 -38l77 -77zM315 131q47 0 70.5 20.5t30.5 65.5q6 42 6 123q0 83 -6 125
q-6 43 -30 63.5t-71 20.5q-48 0 -72 -20.5t-30 -63.5q-6 -42 -6 -125q0 -111 10 -141q21 -68 98 -68z" />
    <glyph glyph-name="R" unicode="R" horiz-adv-x="626" 
d="M60 680h285q69 0 123 -26t85 -74q30 -50 30 -115t-30.5 -114.5t-86.5 -75.5l135 -275h-180l-115 251h-84v-251h-162v680zM335 386q40 0 63 21t23 58q0 35 -23 56.5t-63 21.5h-113v-157h113z" />
    <glyph glyph-name="S" unicode="S" horiz-adv-x="599" 
d="M151 16q-40 14 -73 34.5t-51 41.5l99 113q89 -77 183 -77q47 0 74.5 20t27.5 53q0 29 -21.5 44t-73.5 23l-36 5q-220 30 -220 209q0 96 67 152.5t179 56.5q75 0 133.5 -18.5t111.5 -59.5l-80 -117q-39 27 -81.5 41.5t-81.5 14.5t-61 -17.5t-22 -47.5q0 -28 21.5 -43.5
t74.5 -23.5l36 -5q220 -28 220 -210q0 -65 -32.5 -114t-93.5 -75q-61 -27 -147 -27q-78 0 -153 27z" />
    <glyph glyph-name="T" unicode="T" horiz-adv-x="561" 
d="M361 537v-537h-161v537h-185v143h531v-143h-185z" />
    <glyph glyph-name="U" unicode="U" horiz-adv-x="646" 
d="M127.5 58q-69.5 69 -69.5 198v424h161v-431q0 -55 28.5 -86.5t76.5 -31.5t75.5 31.5t27.5 86.5v431h162v-424q0 -126 -70.5 -196.5t-194.5 -70.5q-127 0 -196.5 69z" />
    <glyph glyph-name="V" unicode="V" horiz-adv-x="610" 
d="M608 680l-223 -680h-153l-225 680h170l133 -443l132 443h166z" />
    <glyph glyph-name="W" unicode="W" horiz-adv-x="884" 
d="M880 680l-186 -680h-133l-116 415l-117 -415h-132l-187 680h168l96 -425l114 425h115l119 -425l92 425h167z" />
    <glyph glyph-name="X" unicode="X" horiz-adv-x="607" 
d="M391 351l211 -351h-178l-122 209l-121 -209h-177l210 351l-196 329h176l110 -186l107 186h177z" />
    <glyph glyph-name="Y" unicode="Y" horiz-adv-x="584" 
d="M376 268v-268h-161v268l-208 412h166l125 -253l124 253h162z" />
    <glyph glyph-name="Z" unicode="Z" horiz-adv-x="553" 
d="M515 144v-144h-477v138l290 399h-279v143h466v-138l-291 -398h291z" />
    <glyph glyph-name="bracketleft" unicode="[" horiz-adv-x="313" 
d="M287 29v-113h-222v824h222v-113h-87v-598h87z" />
    <glyph glyph-name="backslash" unicode="\" horiz-adv-x="442" 
d="M185 691l222 -702h-146l-220 702h144z" />
    <glyph glyph-name="bracketright" unicode="]" horiz-adv-x="313" 
d="M27 627v113h221v-824h-221v113h87v598h-87z" />
    <glyph glyph-name="asciicircum" unicode="^" 
d="M341 680l178 -432h-144l-93 251l-94 -251h-143l178 432h118z" />
    <glyph glyph-name="underscore" unicode="_" horiz-adv-x="534" 
d="M0 -61h534v-99h-534v99z" />
    <glyph glyph-name="grave" unicode="`" horiz-adv-x="470" 
d="M266 703l89 -154h-127l-114 153z" />
    <glyph glyph-name="a" unicode="a" horiz-adv-x="531" 
d="M331 42q-42 -53 -133 -53q-73 0 -116.5 40t-43.5 109q0 75 54 116t151 41h86v22q0 33 -21 46t-74 13q-70 0 -115 -36l-59 103q33 26 82.5 39.5t110.5 13.5q81 0 129.5 -18t70.5 -56t22 -104v-318h-144v42zM329 161v37h-68q-77 0 -77 -50q0 -47 63 -47q82 0 82 60z" />
    <glyph glyph-name="b" unicode="b" horiz-adv-x="556" 
d="M213 440q36 56 128 56q70 0 112 -34.5t55 -95.5q12 -54 12 -123q0 -76 -17 -138q-38 -116 -162 -116q-92 0 -128 58v-47h-154v680h154v-240zM229 340q-16 -29 -16 -97q0 -69 16 -98t59 -29q44 0 60 28.5t16 98.5q0 69 -16 97.5t-60 28.5q-43 0 -59 -29z" />
    <glyph glyph-name="c" unicode="c" horiz-adv-x="490" 
d="M52 357q21 67 77 103t137 36q64 0 116 -28t81 -79l-117 -70q-29 50 -77 50q-54 0 -67 -46q-9 -24 -9 -80t9 -80q14 -47 67 -47q47 0 77 51l117 -70q-29 -51 -81.5 -79.5t-115.5 -28.5q-81 0 -137 36t-77 103q-15 44 -15 115q0 72 15 114z" />
    <glyph glyph-name="d" unicode="d" horiz-adv-x="555" 
d="M342 47q-37 -58 -127 -58q-125 0 -163 116q-17 62 -17 138q0 81 14 130.5t49 84.5q41 38 117 38q88 0 127 -58v242h154v-680h-154v47zM326 145q16 29 16 98q0 68 -16 97t-58 29q-44 0 -60.5 -28.5t-16.5 -97.5q0 -70 16 -98.5t61 -28.5q42 0 58 29z" />
    <glyph glyph-name="e" unicode="e" horiz-adv-x="532" 
d="M131 25.5q-57 36.5 -78 103.5q-17 57 -17 114q0 82 21.5 133.5t71.5 83.5q56 36 136 36q81 0 137 -36t78 -101q17 -65 16 -161h-310l4 -14l3 -14q17 -60 96 -60q66 0 117 48l85 -81q-44 -45 -97.5 -66.5t-120.5 -21.5q-85 0 -142 36.5zM345 295q0 25 -4 40
q-9 25 -27 36.5t-48 11.5q-58 0 -74 -48q-4 -15 -4 -40h157z" />
    <glyph glyph-name="f" unicode="f" horiz-adv-x="345" 
d="M77 374h-45v111h45v25q0 90 41 130t134 40h70v-121h-41q-31 0 -41.5 -10t-10.5 -38v-26h92v-111h-92v-374h-152v374z" />
    <glyph glyph-name="g" unicode="g" horiz-adv-x="549" 
d="M129 -170q-52 21 -81 59l91 94q50 -47 105 -47q92 0 92 103v42q-35 -59 -125 -59q-63 0 -102.5 29t-58.5 88q-16 48 -16 120q0 118 40.5 177.5t136.5 59.5q92 0 125 -57v46h154v-422q0 -129 -61.5 -191.5t-187.5 -62.5q-60 0 -112 21zM319.5 176.5q16.5 26.5 16.5 82.5
q0 57 -16.5 83.5t-56.5 26.5q-41 0 -57 -28t-16 -81q0 -39 7 -64q16 -46 66 -46q40 0 56.5 26.5z" />
    <glyph glyph-name="h" unicode="h" horiz-adv-x="558" 
d="M348 288q0 39 -17 59.5t-50 20.5q-32 0 -50 -22t-18 -58v-288h-154v680h154v-239q43 55 125 55q78 0 121 -48t43 -132v-316h-154v288z" />
    <glyph glyph-name="i" unicode="i" horiz-adv-x="270" 
d="M213 680v-125h-154v125h154zM213 485v-485h-154v485h154z" />
    <glyph glyph-name="j" unicode="j" horiz-adv-x="277" 
d="M218 680v-125h-154v125h154zM-18 -53h29q30 0 41.5 12t11.5 44v482h154v-482q0 -92 -47.5 -137.5t-143.5 -45.5h-45v127z" />
    <glyph glyph-name="k" unicode="k" horiz-adv-x="537" 
d="M358 307l171 -307h-168l-105 202l-43 -56v-146h-154v680h154v-364l134 169h165z" />
    <glyph glyph-name="l" unicode="l" horiz-adv-x="312" 
d="M217 -6q-85 0 -122 38t-37 124v524h154v-510q0 -47 42 -47h30v-129h-67z" />
    <glyph glyph-name="m" unicode="m" horiz-adv-x="847" 
d="M637 288q0 38 -17.5 59t-50.5 21q-31 0 -49 -22t-18 -58v-288h-154v288q0 39 -17 59.5t-50 20.5q-32 0 -50 -22t-18 -58v-288h-154v485h154v-44q43 55 125 55q45 0 76 -14.5t53 -45.5q57 60 152 60q83 0 127.5 -47t44.5 -133v-316h-154v288z" />
    <glyph glyph-name="n" unicode="n" horiz-adv-x="558" 
d="M59 485h154v-44q21 29 51.5 42t73.5 13q78 0 121 -48t43 -132v-316h-154v288q0 39 -17 59.5t-50 20.5q-32 0 -50 -22t-18 -58v-288h-154v485z" />
    <glyph glyph-name="o" unicode="o" horiz-adv-x="535" 
d="M129.5 25q-56.5 36 -77.5 102q-16 45 -16 116q0 80 22 132.5t72 84.5q57 36 137 36q82 0 138.5 -35.5t77.5 -101.5q16 -47 16 -116q0 -81 -22 -133.5t-71 -84.5q-57 -36 -139 -36q-81 0 -137.5 36zM321.5 133.5q16.5 17.5 19 39.5t2.5 70q0 70 -15.5 98t-60.5 28
q-52 0 -67 -46q-8 -37 -8 -80q0 -69 15.5 -98t59.5 -29q38 0 54.5 17.5z" />
    <glyph glyph-name="p" unicode="p" horiz-adv-x="556" 
d="M59 485h154v-45q35 56 128 56q70 0 112 -34.5t55 -95.5q12 -54 12 -123q0 -76 -17 -138q-38 -116 -162 -116q-92 0 -128 57v-226h-154v665zM348 144.5q16 28.5 16 98.5q0 69 -16 97.5t-60 28.5q-43 0 -59 -29t-16 -97q0 -69 16 -98t59 -29q44 0 60 28.5z" />
    <glyph glyph-name="q" unicode="q" horiz-adv-x="556" 
d="M343 45q-39 -56 -128 -56q-124 0 -162 116q-17 62 -17 138q0 79 14 129.5t50 85.5q41 38 115 38q89 0 128 -56v45h154v-665h-154v225zM327 145q16 29 16 98q0 68 -16 97t-59 29q-44 0 -60 -28.5t-16 -97.5q0 -70 16 -98.5t60 -28.5q43 0 59 29z" />
    <glyph glyph-name="r" unicode="r" horiz-adv-x="429" 
d="M59 485h154v-53q36 64 128 64q47 0 85 -29l-65 -136q-43 28 -74 28q-74 0 -74 -97v-262h-154v485z" />
    <glyph glyph-name="s" unicode="s" horiz-adv-x="514" 
d="M474 429l-73 -90q-71 44 -142 44q-29 0 -42 -8t-13 -27q0 -17 13 -24q10 -6 48 -11l54 -6q84 -9 125.5 -46t41.5 -104q-2 -78 -61.5 -123t-161.5 -45q-70 0 -125.5 19t-108.5 62l81 93q76 -58 161 -58q35 0 51.5 9.5t16.5 31.5q0 18 -13 25q-10 6 -51 11l-55 7
q-79 8 -121 46.5t-42 104.5q0 72 54.5 114t150.5 42q130 0 212 -67z" />
    <glyph glyph-name="t" unicode="t" horiz-adv-x="340" 
d="M234 -6q-88 0 -126 40t-38 131v209h-45v111h45v160h152v-160h77v-111h-77v-202q0 -27 10 -38t34 -11h33v-129h-65z" />
    <glyph glyph-name="u" unicode="u" horiz-adv-x="554" 
d="M341 46q-40 -57 -124 -57q-77 0 -119.5 48t-42.5 133v315h154v-288q0 -36 17.5 -57.5t48.5 -21.5q32 0 49 21t17 59v287h154v-485h-154v46z" />
    <glyph glyph-name="v" unicode="v" horiz-adv-x="520" 
d="M513 485l-180 -485h-141l-180 485h162l92 -287l87 287h160z" />
    <glyph glyph-name="w" unicode="w" horiz-adv-x="771" 
d="M761 485l-162 -485h-127l-82 281l-85 -281h-125l-163 485h158l78 -287l82 287h112l82 -287l74 287h158z" />
    <glyph glyph-name="x" unicode="x" horiz-adv-x="529" 
d="M357 252l170 -252h-169l-85 134l-86 -134h-168l170 252l-158 233h170l72 -115l73 115h169z" />
    <glyph glyph-name="y" unicode="y" horiz-adv-x="520" 
d="M88 -180v127h32q26 0 41 10.5t22 35.5l13 34l-186 458h164l94 -275l87 275h160l-206 -532q-29 -74 -68 -103.5t-108 -29.5h-45z" />
    <glyph glyph-name="z" unicode="z" horiz-adv-x="496" 
d="M226 124h226v-124h-407v116l227 246h-214v123h394v-120z" />
    <glyph glyph-name="braceleft" unicode="{" horiz-adv-x="363" 
d="M254 -84q-63 0 -96 32t-33 93v145q0 43 -18.5 62.5t-61.5 20.5v122q42 0 61 20.5t19 62.5v142q0 61 33.5 92.5t95.5 31.5h82v-113h-37q-41 0 -41 -43v-127q0 -56 -17.5 -84t-59.5 -43q42 -14 59.5 -43.5t17.5 -85.5v-128q0 -44 41 -44h37v-113h-82z" />
    <glyph glyph-name="bar" unicode="|" horiz-adv-x="337" 
d="M235 740v-824h-132v824h132z" />
    <glyph glyph-name="braceright" unicode="}" horiz-adv-x="363" 
d="M109 740q62 0 95.5 -31.5t33.5 -92.5v-142q0 -44 18.5 -63.5t61.5 -19.5v-122q-42 0 -61 -20t-19 -63v-145q0 -61 -33 -93t-96 -32h-82v113h36q42 0 42 44v128q0 55 17.5 84t58.5 45q-43 16 -59.5 43t-16.5 84v127q0 43 -42 43h-36v113h82z" />
    <glyph glyph-name="asciitilde" unicode="~" 
d="M44 247q22 54 63 86t88 32q52 0 105 -35q37 -25 64 -25q19 0 36.5 15.5t29.5 42.5l93 -58q-22 -57 -66.5 -90.5t-93.5 -30.5q-46 6 -95 37q-37 25 -64 25q-20 0 -37.5 -15t-29.5 -43z" />
    <glyph glyph-name="uni00A0" unicode="&#xa0;" horiz-adv-x="236" 
 />
    <glyph glyph-name="exclamdown" unicode="&#xa1;" horiz-adv-x="315" 
d="M82 485h150v-140h-150v140zM76 -195l25 477h112l25 -477h-162z" />
    <glyph glyph-name="cent" unicode="&#xa2;" 
d="M379 167l117 -70q-26 -44 -69 -71.5t-95 -34.5v-89h-71v89q-67 8 -112 43t-64 94q-15 44 -15 115q0 77 18.5 127t60.5 82q45 35 112 42v89h71v-89q54 -7 96.5 -34t67.5 -71l-117 -70q-29 50 -77 50q-54 0 -67 -46q-9 -24 -9 -80t9 -80q14 -47 67 -47q47 0 77 51z" />
    <glyph glyph-name="sterling" unicode="&#xa3;" 
d="M76 0v124q24 21 31.5 39t7.5 49v54h-54v107h54v120q0 94 52 146t145 52q77 0 127.5 -41t61.5 -111l-140 -29q-7 54 -47 54q-23 0 -33.5 -13t-10.5 -43v-135h138v-107h-138v-41q0 -61 -30 -96h259v-129h-423z" />
    <glyph glyph-name="currency" unicode="&#xa4;" 
d="M382 113q-44 -23 -94 -23q-53 0 -97 23l-66 -67l-90 90l67 67q-21 41 -21 93q0 50 22 93l-68 67l90 91l66 -68q44 23 98 23q52 0 93 -23l68 67l89 -90l-67 -67q23 -51 23 -95q0 -48 -22 -91l67 -67l-91 -91zM287 201q40 0 66.5 26.5t26.5 68.5t-27 69t-66 27t-65 -27
t-26 -69q0 -43 25 -68q27 -27 66 -27z" />
    <glyph glyph-name="yen" unicode="&#xa5;" 
d="M361 128v-128h-154v128h-129v84h129v43h-129v84h100l-153 341h166l96 -262l95 262h161l-152 -341h100v-84h-130v-43h130v-84h-130z" />
    <glyph glyph-name="brokenbar" unicode="&#xa6;" horiz-adv-x="337" 
d="M235 740v-352h-132v352h132zM235 272v-356h-132v356h132z" />
    <glyph glyph-name="section" unicode="&#xa7;" horiz-adv-x="548" 
d="M133 -150q-51 41 -56 114l131 21q2 -32 16.5 -47t42.5 -15t44 13.5t16 37.5q0 31 -22.5 49.5t-81.5 33.5q-81 22 -120.5 70t-39.5 124q0 49 23 88.5t64 61.5q-63 44 -63 127q0 45 24.5 82.5t67.5 59.5q43 21 98 21q84 0 136.5 -43.5t54.5 -113.5l-129 -21q-3 34 -17 49
t-41 15q-26 0 -41 -13t-15 -37q0 -29 22.5 -47t77.5 -33q160 -43 160 -193q0 -49 -23.5 -89.5t-63.5 -61.5q34 -20 50 -52.5t16 -81.5q0 -71 -53.5 -115.5t-139.5 -44.5q-87 0 -138 41zM326.5 195.5q19.5 21.5 19.5 56.5q0 34 -19.5 56t-52.5 22t-52.5 -21.5t-19.5 -56.5
q0 -37 18.5 -57.5t53.5 -20.5q33 0 52.5 21.5z" />
    <glyph glyph-name="dieresis" unicode="&#xa8;" horiz-adv-x="470" 
d="M194 680v-125h-120v125h120zM397 680v-125h-121v125h121z" />
    <glyph glyph-name="copyright" unicode="&#xa9;" horiz-adv-x="804" 
d="M401 -11q-99 0 -179 45t-126 126q-46 79 -46 180q0 98 46.5 178.5t127.5 126.5q79 46 177 46t179 -45.5t128 -126.5q46 -79 46 -179q0 -152 -101 -251q-100 -100 -252 -100zM401 71q76 0 137 34.5t96 96.5q34 61 34 138q0 76 -35 137.5t-96 97.5q-61 34 -136 34t-135 -34
t-95 -96t-35 -139q0 -117 76 -192q75 -77 189 -77zM303 173.5q-45 28.5 -64 82.5q-10 24 -10 84q0 64 16.5 102.5t57.5 65.5q47 29 108 29q54 0 91.5 -20t63.5 -64l-91 -52q-29 38 -62 38q-46 0 -56 -40q-6 -16 -6 -59q0 -37 4.5 -55.5t16.5 -29.5q14 -12 41 -12q36 0 62 38
l89 -52q-20 -40 -61 -62t-92 -22q-63 0 -108 28.5z" />
    <glyph glyph-name="ordfeminine" unicode="&#xaa;" horiz-adv-x="360" 
d="M218 416q-23 -29 -82 -29q-46 0 -74 23.5t-28 64.5q0 46 34 70.5t97 24.5h53v12q0 26 -57 26q-42 0 -75 -21l-42 70q52 31 130 31q79 0 113.5 -25t34.5 -81v-190h-104v24zM218 492v14h-46q-19 0 -27.5 -5.5t-8.5 -17.5q0 -23 32 -23q50 0 50 32z" />
    <glyph glyph-name="guillemotleft" unicode="&#xab;" horiz-adv-x="574" 
d="M270 172v-151l-245 243l245 243v-151l-94 -92zM522 172v-151l-245 243l245 243v-151l-93 -92z" />
    <glyph glyph-name="logicalnot" unicode="&#xac;" 
d="M511 340v-260h-133v132h-329v128h462z" />
    <glyph glyph-name="uni00AD" unicode="&#xad;" horiz-adv-x="396" 
d="M355 332v-134h-314v134h314z" />
    <glyph glyph-name="registered" unicode="&#xae;" horiz-adv-x="804" 
d="M580 645.5q81 -45.5 128 -126.5q46 -79 46 -179q0 -99 -45.5 -179.5t-126.5 -125.5q-79 -46 -181 -46q-99 0 -179 45t-126 126q-46 79 -46 180q0 98 46.5 178.5t127.5 126.5q79 46 177 46t179 -45.5zM266 575q-60 -34 -95 -96t-35 -139q0 -117 76 -192q75 -77 189 -77
q76 0 137 34.5t96 96.5q34 61 34 138q0 76 -35 137.5t-96 97.5q-61 34 -136 34t-135 -34zM421 528q61 0 99.5 -34t38.5 -91q0 -37 -18 -66t-50 -44l78 -160h-104l-67 146h-49v-146h-93v395h165zM349 448v-91h66q23 0 36.5 12t13.5 34q0 20 -13.5 32.5t-36.5 12.5h-66z" />
    <glyph glyph-name="overscore" unicode="&#xaf;" horiz-adv-x="470" 
d="M391 671v-102h-313v102h313z" />
    <glyph glyph-name="degree" unicode="&#xb0;" horiz-adv-x="425" 
d="M212 383q-43 0 -78.5 20t-55.5 56q-21 35 -21 80q0 43 20.5 78.5t56.5 55.5q35 20 78 20q42 0 78 -20.5t57 -55.5t21 -78q0 -67 -44 -111q-46 -45 -112 -45zM166 587.5q-16 -17.5 -17 -47.5q0 -30 17 -49.5t46 -19.5q30 0 47 18.5t17 48.5q0 31 -16.5 49t-48.5 18
q-29 0 -45 -17.5z" />
    <glyph glyph-name="plusminus" unicode="&#xb1;" 
d="M346 342v-165h-132v165h-165v128h165v166h132v-166h165v-128h-165zM511 128v-128h-462v128h462z" />
    <glyph glyph-name="uni00B2" unicode="&#xb2;" horiz-adv-x="363" 
d="M287 810q38 -34 38 -88q0 -30 -13 -58t-37 -49l-91 -90h142v-95h-289v91l153 150q24 24 24 47q0 17 -8 25.5t-26 8.5q-37 0 -39 -47l-103 16q0 54 41 88.5t107 34.5q63 0 101 -34z" />
    <glyph glyph-name="uni00B3" unicode="&#xb3;" horiz-adv-x="363" 
d="M80.5 451.5q-41.5 29.5 -46.5 80.5l102 18q12 -36 45 -36q19 0 29.5 10.5t10.5 27.5q0 21 -11.5 30.5t-35.5 9.5h-25v90h23q40 0 40 35t-35 35q-29 0 -40 -32l-100 18q9 51 47 78.5t98 27.5q65 0 103.5 -32t38.5 -84t-43 -82q24 -9 38 -34.5t14 -60.5q0 -57 -40.5 -93
t-106.5 -36q-64 0 -105.5 29.5z" />
    <glyph glyph-name="acute" unicode="&#xb4;" horiz-adv-x="470" 
d="M363 702l-118 -153h-124l90 153h152z" />
    <glyph glyph-name="uni00B5" unicode="&#xb5;" horiz-adv-x="614" 
d="M333.5 9.5q-26.5 -14.5 -77.5 -14.5q-31 0 -45 8v-183h-154v665h154v-286q0 -38 17 -59t49 -21q36 0 56 24.5t20 69.5v272h154v-330q0 -20 7.5 -26t31.5 -6v-129h-24q-43 0 -66 5.5t-39 20.5q-16 13 -36 45q-21 -41 -47.5 -55.5z" />
    <glyph glyph-name="paragraph" unicode="&#xb6;" horiz-adv-x="669" 
d="M470 571h-80v-751h-126v408q-62 4 -109 33t-73 80q-26 50 -26 113q0 66 30 117t85 80q56 29 125 29h299v-860h-125v751z" />
    <glyph glyph-name="middot" unicode="&#xb7;" horiz-adv-x="263" 
d="M206 338v-147h-149v147h149z" />
    <glyph glyph-name="cedilla" unicode="&#xb8;" horiz-adv-x="470" 
d="M301 -21q0 -45 -18.5 -82.5t-51.5 -58.5t-76 -21v93q24 0 37 18t13 51h96z" />
    <glyph glyph-name="uni00B9" unicode="&#xb9;" horiz-adv-x="363" 
d="M264 836v-406h-115v287l-77 -46v111l83 54h109z" />
    <glyph glyph-name="ordmasculine" unicode="&#xba;" horiz-adv-x="380" 
d="M37 537q0 36 9 63q28 88 144 88q117 0 145 -88q8 -34 8 -65q0 -30 -8 -62q-29 -89 -145 -89q-115 0 -144 89q-9 26 -9 64zM234 536q0 36 -9 51t-35 15q-29 0 -38 -26q-6 -12 -6 -40q0 -29 6 -40q9 -25 38 -25q30 0 39 25q5 18 5 40z" />
    <glyph glyph-name="guillemotright" unicode="&#xbb;" horiz-adv-x="574" 
d="M59 506l246 -242l-246 -243v150l93 93l-93 92v150zM311 506l245 -242l-245 -243v150l94 93l-94 92v150z" />
    <glyph glyph-name="onequarter" unicode="&#xbc;" horiz-adv-x="889" 
d="M692 691l-407 -702h-114l407 702h114zM277 680v-406h-115v287l-77 -46v111l83 54h109zM487 146l121 260h120l-120 -257h60v78h106v-78h30v-95h-30v-54h-106v54h-181v92z" />
    <glyph glyph-name="onehalf" unicode="&#xbd;" horiz-adv-x="920" 
d="M171 -11l407 702h114l-407 -702h-114zM85 515v111l83 54h109v-406h-115v287zM794.5 380q38.5 -34 38.5 -88q0 -29 -13 -57t-38 -50l-91 -90h143v-95h-289v91l153 150q24 26 24 47q0 17 -8 25.5t-26 8.5t-28.5 -12t-11.5 -35l-103 16q0 54 41 88.5t107 34.5
q63 0 101.5 -34z" />
    <glyph glyph-name="threequarters" unicode="&#xbe;" horiz-adv-x="954" 
d="M757 691l-407 -702h-114l407 702h114zM134 295.5q-41 29.5 -47 80.5l102 18q14 -36 45 -36q19 0 29.5 10.5t10.5 27.5q0 21 -11.5 30.5t-34.5 9.5h-26v90h24q40 0 40 35t-36 35q-28 0 -40 -32l-100 18q9 51 47 78.5t98 27.5q65 0 104 -32t39 -84t-44 -82q24 -9 38 -34.5
t14 -60.5q0 -57 -40.5 -93t-106.5 -36q-64 0 -105 29.5zM840 54v-54h-106v54h-181v92l121 260h120l-119 -257h59v78h106v-78h30v-95h-30z" />
    <glyph glyph-name="questiondown" unicode="&#xbf;" horiz-adv-x="477" 
d="M175 485h150v-140h-150v140zM324 229q0 -45 -30 -83l-70 -88q-13 -17 -29 -45q-7 -13 -7 -29q0 -28 16.5 -45t43.5 -17q31 0 48.5 18t23.5 59l139 -20q-10 -89 -66 -137t-149 -48q-60 0 -107.5 24t-73.5 66q-26 44 -26 93q0 69 59 137l61 78q20 23 20 58v32h147v-53z" />
    <glyph glyph-name="Agrave" unicode="&#xc0;" horiz-adv-x="658" 
d="M311 890l89 -154h-126l-115 153zM218 123l-37 -123h-170l241 680h164l237 -680h-167l-39 123h-229zM405 258l-73 230l-71 -230h144z" />
    <glyph glyph-name="Aacute" unicode="&#xc1;" horiz-adv-x="658" 
d="M511 890l-117 -153h-125l90 153h152zM218 123l-37 -123h-170l241 680h164l237 -680h-167l-39 123h-229zM405 258l-73 230l-71 -230h144z" />
    <glyph glyph-name="Acircumflex" unicode="&#xc2;" horiz-adv-x="658" 
d="M331 807l-59 -63h-115l122 154h103l124 -154h-113zM218 123l-37 -123h-170l241 680h164l237 -680h-167l-39 123h-229zM405 258l-73 230l-71 -230h144z" />
    <glyph glyph-name="Atilde" unicode="&#xc3;" horiz-adv-x="658" 
d="M177 844q17 21 40.5 33t47.5 12q34 0 79 -21q33 -18 58 -18q19 0 41.5 10.5t42.5 28.5v-100q-15 -21 -39.5 -33t-49.5 -12q-34 0 -79 21q-30 18 -59 18q-16 0 -39 -10.5t-43 -27.5v99zM218 123l-37 -123h-170l241 680h164l237 -680h-167l-39 123h-229zM405 258l-73 230
l-71 -230h144z" />
    <glyph glyph-name="Adieresis" unicode="&#xc4;" horiz-adv-x="658" 
d="M289 879v-123h-119v123h119zM493 879v-123h-118v123h118zM218 123l-37 -123h-170l241 680h164l237 -680h-167l-39 123h-229zM405 258l-73 230l-71 -230h144z" />
    <glyph glyph-name="Aring" unicode="&#xc5;" horiz-adv-x="658" 
d="M448 821q0 -23 -9 -45.5t-25 -38.5q-32 -32 -80 -32q-46 0 -84 32q-32 35 -32 83q0 46 32 81q34 31 84 31q49 0 80 -31q34 -33 34 -80zM334 865q-19 0 -32.5 -13t-13.5 -33q0 -19 12.5 -32t32.5 -13t32 12.5t12 34.5q0 19 -11 30q-12 14 -32 14zM11 0l241 680h164
l237 -680h-167l-39 123h-229l-37 -123h-170zM261 258h144l-73 230z" />
    <glyph glyph-name="AE" unicode="&#xc6;" horiz-adv-x="930" 
d="M244 123l-55 -123h-176l319 680h562v-137h-299v-132h250v-136h-250v-137h299v-138h-461v123h-189zM433 258v292l-130 -292h130z" />
    <glyph glyph-name="Ccedilla" unicode="&#xc7;" horiz-adv-x="579" 
d="M478 635.5q68 -55.5 86 -154.5h-165q-11 36 -32.5 52t-57.5 16q-44 0 -67 -21t-29 -65q-6 -43 -6 -123q0 -87 6.5 -126.5t28.5 -60.5q22 -22 67 -22q33 0 55 16t31 46h166q-23 -102 -87 -153t-166 -51q-92 0 -155 43t-90 124q-20 58 -20 184q0 88 10 145t34 95.5t66 67.5
q62 43 155 43q102 0 170 -55.5zM357 -21q0 -45 -18.5 -82.5t-51.5 -58.5t-76 -21v93q24 0 37 18t13 51h96z" />
    <glyph glyph-name="Egrave" unicode="&#xc8;" horiz-adv-x="563" 
d="M288 890l89 -154h-127l-114 153zM521 138v-138h-461v680h461v-137h-299v-132h250v-136h-250v-137h299z" />
    <glyph glyph-name="Eacute" unicode="&#xc9;" horiz-adv-x="563" 
d="M436 890l-117 -153h-125l90 153h152zM521 138v-138h-461v680h461v-137h-299v-132h250v-136h-250v-137h299z" />
    <glyph glyph-name="Ecircumflex" unicode="&#xca;" horiz-adv-x="563" 
d="M290 807l-59 -63h-114l121 154h104l123 -154h-113zM521 138v-138h-461v680h461v-137h-299v-132h250v-136h-250v-137h299z" />
    <glyph glyph-name="Edieresis" unicode="&#xcb;" horiz-adv-x="563" 
d="M248 879v-123h-119v123h119zM452 879v-123h-118v123h118zM521 138v-138h-461v680h461v-137h-299v-132h250v-136h-250v-137h299z" />
    <glyph glyph-name="Igrave" unicode="&#xcc;" horiz-adv-x="282" 
d="M126 890l89 -154h-126l-115 153zM222 680v-680h-162v680h162z" />
    <glyph glyph-name="Iacute" unicode="&#xcd;" horiz-adv-x="282" 
d="M315 890l-118 -153h-124l90 153h152zM222 680v-680h-162v680h162z" />
    <glyph glyph-name="Icircumflex" unicode="&#xce;" horiz-adv-x="282" 
d="M141 806l-59 -62h-115l122 154h104l123 -154h-113zM222 680v-680h-162v680h162z" />
    <glyph glyph-name="Idieresis" unicode="&#xcf;" horiz-adv-x="282" 
d="M98 879v-123h-119v123h119zM302 879v-123h-119v123h119zM222 680v-680h-162v680h162z" />
    <glyph glyph-name="Eth" unicode="&#xd0;" horiz-adv-x="630" 
d="M60 285h-40v117h40v278h268q109 0 169 -41.5t76 -118.5q13 -64 13 -180q0 -86 -6.5 -136t-23.5 -88q-18 -40 -54 -70q-55 -46 -174 -46h-268v285zM293 144q57 0 86.5 19t36.5 58q6 41 6 125q0 81 -7 116t-33 55q-29 20 -89 20h-71v-135h92v-117h-92v-141h71z" />
    <glyph glyph-name="Ntilde" unicode="&#xd1;" horiz-adv-x="654" 
d="M482 790q-15 -21 -39.5 -33.5t-49.5 -12.5q-34 0 -79 21q-30 18 -59 18q-16 0 -39 -10.5t-43 -27.5v99q17 21 40.5 33t47.5 12q34 0 79 -21q33 -18 58 -18q19 0 41.5 10.5t42.5 28.5v-99zM448 253v427h146v-680h-154l-234 427v-427h-146v680h155z" />
    <glyph glyph-name="Ograve" unicode="&#xd2;" horiz-adv-x="629" 
d="M308 890l89 -154h-127l-114 153zM155 32q-66 43 -92 123q-20 65 -20 185q0 89 10.5 146t34.5 96q30 49 88 79t139 30q94 0 159.5 -42.5t91.5 -122.5q20 -65 20 -186q0 -89 -10 -145.5t-34 -94.5q-30 -49 -88.5 -80t-138.5 -31q-94 0 -160 43zM385.5 151.5
q23.5 20.5 30.5 65.5q6 42 6 123q0 87 -7 127.5t-29 60.5q-24 21 -71 21q-48 0 -72 -20.5t-30 -64.5q-6 -42 -6 -124q0 -89 6.5 -128.5t29.5 -59.5q23 -21 72 -21q47 0 70.5 20.5z" />
    <glyph glyph-name="Oacute" unicode="&#xd3;" horiz-adv-x="629" 
d="M477 890l-118 -153h-124l90 153h152zM155 32q-66 43 -92 123q-20 65 -20 185q0 89 10.5 146t34.5 96q30 49 88 79t139 30q94 0 159.5 -42.5t91.5 -122.5q20 -65 20 -186q0 -89 -10 -145.5t-34 -94.5q-30 -49 -88.5 -80t-138.5 -31q-94 0 -160 43zM385.5 151.5
q23.5 20.5 30.5 65.5q6 42 6 123q0 87 -7 127.5t-29 60.5q-24 21 -71 21q-48 0 -72 -20.5t-30 -64.5q-6 -42 -6 -124q0 -89 6.5 -128.5t29.5 -59.5q23 -21 72 -21q47 0 70.5 20.5z" />
    <glyph glyph-name="Ocircumflex" unicode="&#xd4;" horiz-adv-x="629" 
d="M313 807l-59 -63h-114l121 154h104l123 -154h-113zM155 32q-66 43 -92 123q-20 65 -20 185q0 89 10.5 146t34.5 96q30 49 88 79t139 30q94 0 159.5 -42.5t91.5 -122.5q20 -65 20 -186q0 -89 -10 -145.5t-34 -94.5q-30 -49 -88.5 -80t-138.5 -31q-94 0 -160 43z
M385.5 151.5q23.5 20.5 30.5 65.5q6 42 6 123q0 87 -7 127.5t-29 60.5q-24 21 -71 21q-48 0 -72 -20.5t-30 -64.5q-6 -42 -6 -124q0 -89 6.5 -128.5t29.5 -59.5q23 -21 72 -21q47 0 70.5 20.5z" />
    <glyph glyph-name="Otilde" unicode="&#xd5;" horiz-adv-x="629" 
d="M160 844q17 21 40 33t47 12q36 0 79 -21q33 -18 59 -18q19 0 41.5 10.5t42.5 28.5v-99q-15 -21 -39.5 -33.5t-49.5 -12.5q-35 0 -79 21q-31 18 -59 18q-18 0 -40 -10t-42 -28v99zM155 32q-66 43 -92 123q-20 65 -20 185q0 89 10.5 146t34.5 96q30 49 88 79t139 30
q94 0 159.5 -42.5t91.5 -122.5q20 -65 20 -186q0 -89 -10 -145.5t-34 -94.5q-30 -49 -88.5 -80t-138.5 -31q-94 0 -160 43zM385.5 151.5q23.5 20.5 30.5 65.5q6 42 6 123q0 87 -7 127.5t-29 60.5q-24 21 -71 21q-48 0 -72 -20.5t-30 -64.5q-6 -42 -6 -124q0 -89 6.5 -128.5
t29.5 -59.5q23 -21 72 -21q47 0 70.5 20.5z" />
    <glyph glyph-name="Odieresis" unicode="&#xd6;" horiz-adv-x="629" 
d="M271 879v-123h-118v123h118zM476 879v-123h-119v123h119zM155 32q-66 43 -92 123q-20 65 -20 185q0 89 10.5 146t34.5 96q30 49 88 79t139 30q94 0 159.5 -42.5t91.5 -122.5q20 -65 20 -186q0 -89 -10 -145.5t-34 -94.5q-30 -49 -88.5 -80t-138.5 -31q-94 0 -160 43z
M385.5 151.5q23.5 20.5 30.5 65.5q6 42 6 123q0 87 -7 127.5t-29 60.5q-24 21 -71 21q-48 0 -72 -20.5t-30 -64.5q-6 -42 -6 -124q0 -89 6.5 -128.5t29.5 -59.5q23 -21 72 -21q47 0 70.5 20.5z" />
    <glyph glyph-name="multiply" unicode="&#xd7;" 
d="M375 276l128 -128l-88 -87l-128 127l-129 -127l-88 87l128 128l-128 128l89 89l130 -130l126 130l88 -87z" />
    <glyph glyph-name="Oslash" unicode="&#xd8;" horiz-adv-x="629" 
d="M109 78q-26 33 -40 77q-19 57 -19 185q0 90 10 146t34 95q30 49 88 79.5t139 30.5q89 0 151 -38l37 57h92l-68 -109q20 -24 40 -75q19 -57 19 -186q0 -89 -10 -146t-34 -95q-24 -39 -67 -67q-67 -43 -160 -43q-89 0 -150 37l-38 -56h-93zM389 529q-28 22 -68 22
q-49 0 -73 -21.5t-30 -65.5q-7 -41 -7 -124q0 -66 3 -102zM421 199q10 36 10 141q0 31 -3 100l-175 -289q27 -21 68 -21q78 0 100 69z" />
    <glyph glyph-name="Ugrave" unicode="&#xd9;" horiz-adv-x="646" 
d="M314 890l89 -154h-127l-114 153zM219 249q0 -55 28.5 -86.5t76.5 -31.5t75.5 31.5t27.5 86.5v431h162v-424q0 -126 -70.5 -196.5t-194.5 -70.5q-127 0 -196.5 69t-69.5 198v424h161v-431z" />
    <glyph glyph-name="Uacute" unicode="&#xda;" horiz-adv-x="646" 
d="M491 890l-117 -153h-125l90 153h152zM127.5 58q-69.5 69 -69.5 198v424h161v-431q0 -55 28.5 -86.5t76.5 -31.5t75.5 31.5t27.5 86.5v431h162v-424q0 -126 -70.5 -196.5t-194.5 -70.5q-127 0 -196.5 69z" />
    <glyph glyph-name="Ucircumflex" unicode="&#xdb;" horiz-adv-x="646" 
d="M373 898l123 -154h-113l-62 63l-59 -63h-114l121 154h104zM219 249q0 -55 28.5 -86.5t76.5 -31.5t75.5 31.5t27.5 86.5v431h162v-424q0 -126 -70.5 -196.5t-194.5 -70.5q-127 0 -196.5 69t-69.5 198v424h161v-431z" />
    <glyph glyph-name="Udieresis" unicode="&#xdc;" horiz-adv-x="646" 
d="M162 756v123h118v-123h-118zM366 756v123h119v-123h-119zM589 256q0 -126 -70.5 -196.5t-194.5 -70.5q-127 0 -196.5 69t-69.5 198v424h161v-431q0 -55 28.5 -86.5t76.5 -31.5t75.5 31.5t27.5 86.5v431h162v-424z" />
    <glyph glyph-name="Yacute" unicode="&#xdd;" horiz-adv-x="584" 
d="M470 890l-117 -153h-125l90 153h152zM376 268v-268h-161v268l-208 412h166l125 -253l124 253h162z" />
    <glyph glyph-name="Thorn" unicode="&#xde;" horiz-adv-x="608" 
d="M60 680h162v-105h117q74 0 129 -27t85 -78q29 -53 29 -118q0 -102 -66 -161.5t-177 -59.5h-117v-131h-162v680zM329 268q43 0 67.5 22.5t24.5 61.5t-24.5 62.5t-67.5 23.5h-107v-170h107z" />
    <glyph glyph-name="agrave" unicode="&#xe0;" horiz-adv-x="531" 
d="M271 702l90 -153h-126l-115 153h151zM331 42q-42 -53 -133 -53q-73 0 -116.5 40t-43.5 109q0 75 54 116t151 41h86v22q0 33 -21 46t-74 13q-70 0 -115 -36l-59 103q33 26 82.5 39.5t110.5 13.5q81 0 129.5 -18t70.5 -56t22 -104v-318h-144v42zM329 161v37h-68
q-77 0 -77 -50q0 -47 63 -47q82 0 82 60z" />
    <glyph glyph-name="aacute" unicode="&#xe1;" horiz-adv-x="531" 
d="M434 702l-117 -153h-125l90 153h152zM331 42q-42 -53 -133 -53q-73 0 -116.5 40t-43.5 109q0 75 54 116t151 41h86v22q0 33 -21 46t-74 13q-70 0 -115 -36l-59 103q33 26 82.5 39.5t110.5 13.5q81 0 129.5 -18t70.5 -56t22 -104v-318h-144v42zM329 161v37h-68
q-77 0 -77 -50q0 -47 63 -47q82 0 82 60z" />
    <glyph glyph-name="acircumflex" unicode="&#xe2;" horiz-adv-x="531" 
d="M316 702l123 -154h-113l-62 62l-59 -62h-114l121 154h104zM331 42q-42 -53 -133 -53q-73 0 -116.5 40t-43.5 109q0 75 54 116t151 41h86v22q0 33 -21 46t-74 13q-70 0 -115 -36l-59 103q33 26 82.5 39.5t110.5 13.5q81 0 129.5 -18t70.5 -56t22 -104v-318h-144v42z
M329 161v37h-68q-77 0 -77 -50q0 -47 63 -47q82 0 82 60z" />
    <glyph glyph-name="atilde" unicode="&#xe3;" horiz-adv-x="531" 
d="M252 570q-31 18 -59 18q-17 0 -39.5 -10t-42.5 -27v98q17 21 40 33t47 12q35 0 79 -21q33 -18 59 -18q19 0 41.5 10.5t42.5 28.5v-99q-15 -21 -39.5 -33.5t-49.5 -12.5q-35 0 -79 21zM331 42q-42 -53 -133 -53q-73 0 -116.5 40t-43.5 109q0 75 54 116t151 41h86v22
q0 33 -21 46t-74 13q-70 0 -115 -36l-59 103q33 26 82.5 39.5t110.5 13.5q81 0 129.5 -18t70.5 -56t22 -104v-318h-144v42zM329 161v37h-68q-77 0 -77 -50q0 -47 63 -47q82 0 82 60z" />
    <glyph glyph-name="adieresis" unicode="&#xe4;" horiz-adv-x="531" 
d="M104 555v124h118v-124h-118zM308 555v124h119v-124h-119zM382.5 478q48.5 -18 70.5 -56t22 -104v-318h-144v42q-42 -53 -133 -53q-73 0 -116.5 40t-43.5 109q0 75 54 116t151 41h86v22q0 33 -21 46t-74 13q-70 0 -115 -36l-59 103q33 26 82.5 39.5t110.5 13.5
q81 0 129.5 -18zM261 198q-77 0 -77 -50q0 -47 63 -47q82 0 82 60v37h-68z" />
    <glyph glyph-name="aring" unicode="&#xe5;" horiz-adv-x="531" 
d="M376 631q0 -22 -8.5 -42.5t-24.5 -36.5q-31 -31 -78 -31q-46 0 -80 31q-15 15 -23.5 36t-8.5 43q0 46 32 78t80 32q22 0 43 -8.5t35 -23.5q33 -28 33 -78zM310 632q0 31 -25 43q-7 4 -20 4q-21 0 -33.5 -13.5t-12.5 -34.5t13 -34t32 -13q24 0 37 19q9 12 9 29zM382.5 478
q48.5 -18 70.5 -56t22 -104v-318h-144v42q-42 -53 -133 -53q-73 0 -116.5 40t-43.5 109q0 75 54 116t151 41h86v22q0 33 -21 46t-74 13q-70 0 -115 -36l-59 103q33 26 82.5 39.5t110.5 13.5q81 0 129.5 -18zM261 198q-77 0 -77 -50q0 -47 63 -47q82 0 82 60v37h-68z" />
    <glyph glyph-name="ae" unicode="&#xe6;" horiz-adv-x="817" 
d="M465.5 6q-40.5 17 -71.5 53q-48 -70 -182 -70q-82 0 -128 38.5t-46 110.5q0 75 54 116t151 41h86v23q0 33 -20.5 45.5t-74.5 12.5q-73 0 -115 -36l-59 101q38 29 84 42t109 13q58 0 96.5 -10t67.5 -33q55 43 134 43q81 0 137 -36t78 -101q8 -25 12 -62t4 -99h-308
q0 -11 5 -29q20 -59 98 -59q64 0 115 48l85 -81q-44 -45 -97 -66.5t-120 -21.5q-54 0 -94.5 17zM631 295q0 48 -20.5 68t-58.5 20q-58 0 -74 -49q-4 -8 -4 -39h157zM329 161v37h-68q-77 0 -77 -50q0 -47 63 -47q82 0 82 60z" />
    <glyph glyph-name="ccedilla" unicode="&#xe7;" horiz-adv-x="484" 
d="M380 468q52 -28 81 -79l-117 -70q-29 50 -77 50q-54 0 -67 -46q-9 -24 -9 -80t9 -80q14 -47 67 -47q47 0 77 51l117 -70q-29 -51 -81.5 -79.5t-115.5 -28.5q-81 0 -137 36t-77 103q-15 44 -15 115q0 72 15 114q21 67 77 103t137 36q64 0 116 -28zM318 -21
q0 -46 -18.5 -83t-51.5 -58t-75 -21l-1 93q51 0 51 69h95z" />
    <glyph glyph-name="egrave" unicode="&#xe8;" horiz-adv-x="530" 
d="M257 702l90 -153h-126l-115 153h151zM131.5 25.5q-57.5 36.5 -79.5 103.5q-17 57 -17 114q0 80 22 132.5t72 84.5q56 36 136 36q81 0 137 -36t77 -101q19 -56 16 -161h-309l7 -28q17 -60 96 -60q67 0 116 48l85 -81q-44 -45 -97 -66.5t-120 -21.5q-84 0 -141.5 36.5z
M345 295q0 48 -20.5 68t-58.5 20q-58 0 -74 -48q-5 -25 -5 -40h158z" />
    <glyph glyph-name="eacute" unicode="&#xe9;" horiz-adv-x="530" 
d="M431 702l-117 -153h-125l90 153h152zM131.5 25.5q-57.5 36.5 -79.5 103.5q-17 57 -17 114q0 80 22 132.5t72 84.5q56 36 136 36q81 0 137 -36t77 -101q19 -56 16 -161h-309q3 -22 7 -29q17 -59 96 -59q67 0 116 48l85 -81q-44 -45 -97 -66.5t-120 -21.5
q-84 0 -141.5 36.5zM345 295q0 15 -5 40q-17 48 -74 48q-59 0 -74 -49q-5 -22 -5 -39h158z" />
    <glyph glyph-name="ecircumflex" unicode="&#xea;" horiz-adv-x="530" 
d="M315 702l123 -154h-113l-62 62l-59 -62h-114l121 154h104zM131.5 25.5q-57.5 36.5 -79.5 103.5q-17 57 -17 114q0 80 22 132.5t72 84.5q56 36 136 36q81 0 137 -36t77 -101q19 -56 16 -161h-309l7 -28q17 -60 96 -60q67 0 116 48l85 -81q-44 -45 -97 -66.5t-120 -21.5
q-84 0 -141.5 36.5zM345 295q0 48 -20.5 68t-58.5 20q-58 0 -74 -48q-5 -25 -5 -40h158z" />
    <glyph glyph-name="edieresis" unicode="&#xeb;" horiz-adv-x="530" 
d="M103 555v124h118v-124h-118zM307 555v124h119v-124h-119zM402 460q56 -36 77 -101q19 -56 16 -161h-309l7 -28q17 -60 96 -60q67 0 116 48l85 -81q-44 -45 -97 -66.5t-120 -21.5q-84 0 -141.5 36.5t-79.5 103.5q-17 57 -17 114q0 80 22 132.5t72 84.5q56 36 136 36
q81 0 137 -36zM192 335q-5 -25 -5 -40h158q0 48 -20.5 68t-58.5 20q-58 0 -74 -48z" />
    <glyph glyph-name="igrave" unicode="&#xec;" horiz-adv-x="270" 
d="M116 702l89 -153h-125l-116 153h152zM212 485v-485h-154v485h154z" />
    <glyph glyph-name="iacute" unicode="&#xed;" horiz-adv-x="270" 
d="M310 702l-117 -153h-126l91 153h152zM212 485v-485h-154v485h154z" />
    <glyph glyph-name="icircumflex" unicode="&#xee;" horiz-adv-x="270" 
d="M190 702l123 -154h-113l-62 62l-59 -62h-115l122 154h104zM212 485v-485h-154v485h154z" />
    <glyph glyph-name="idieresis" unicode="&#xef;" horiz-adv-x="270" 
d="M-26 555v124h119v-124h-119zM179 555v124h118v-124h-118zM58 0v485h154v-485h-154z" />
    <glyph glyph-name="eth" unicode="&#xf0;" horiz-adv-x="534" 
d="M304 627l99 29l28 -87l-67 -21l18 -26q48 -67 72 -111.5t34 -85.5q10 -37 10 -92q0 -74 -21.5 -125t-70.5 -82q-55 -37 -138 -37t-139.5 36t-77.5 100q-15 48 -15 99q0 61 20 110.5t59 78.5q45 33 111 33q34 0 63 -18l-59 80l-105 -31l-27 89l74 22l-66 92h160zM195 287
q-10 -27 -10 -61q0 -42 10 -61q13 -52 73 -52q59 0 72 52q10 19 10 61q0 34 -10 61q-14 53 -72 53q-59 0 -73 -53z" />
    <glyph glyph-name="ntilde" unicode="&#xf1;" horiz-adv-x="556" 
d="M264 570q-31 18 -59 18q-17 0 -39.5 -10t-42.5 -27v98q17 21 40 33t47 12q36 0 79 -21q33 -18 59 -18q19 0 41.5 10.5t42.5 28.5v-99q-15 -21 -39.5 -33.5t-49.5 -12.5q-36 0 -79 21zM347 288q0 39 -17 59.5t-50 20.5q-32 0 -50 -22t-18 -58v-288h-154v485h154v-44
q21 29 51.5 42t73.5 13q78 0 121 -48t43 -132v-316h-154v288z" />
    <glyph glyph-name="ograve" unicode="&#xf2;" horiz-adv-x="534" 
d="M254 702l89 -153h-125l-116 153h152zM129.5 25q-56.5 36 -78.5 102q-16 45 -16 116q0 79 22.5 132.5t72.5 85.5q56 35 137 35t137.5 -35.5t78.5 -101.5q16 -47 16 -116q0 -79 -22.5 -132.5t-71.5 -85.5q-57 -36 -138 -36t-137.5 36zM327 145q16 29 16 98q0 48 -5 71.5
t-20 38.5q-16 16 -51 16q-48 0 -62 -29t-14 -79q0 -59 5 -86t21 -43t50 -16q44 0 60 29z" />
    <glyph glyph-name="oacute" unicode="&#xf3;" horiz-adv-x="534" 
d="M436 702l-117 -153h-126l91 153h152zM129.5 25q-56.5 36 -78.5 102q-16 45 -16 116q0 79 22.5 132.5t72.5 85.5q56 35 137 35t137.5 -35.5t78.5 -101.5q16 -47 16 -116q0 -79 -22.5 -132.5t-71.5 -85.5q-57 -36 -138 -36t-137.5 36zM339 174q4 23 4 69q0 48 -5 71.5
t-20 38.5q-16 16 -51 16q-48 0 -62 -29t-14 -79q0 -58 4.5 -85.5t21.5 -43.5q16 -16 50 -16q62 0 72 58z" />
    <glyph glyph-name="ocircumflex" unicode="&#xf4;" horiz-adv-x="534" 
d="M316 702l123 -154h-113l-62 62l-59 -62h-114l121 154h104zM129.5 25q-56.5 36 -78.5 102q-16 45 -16 116q0 79 22.5 132.5t72.5 85.5q56 35 137 35t137.5 -35.5t78.5 -101.5q16 -47 16 -116q0 -79 -22.5 -132.5t-71.5 -85.5q-57 -36 -138 -36t-137.5 36zM327 145
q16 29 16 98q0 68 -16 97t-60 29q-48 0 -62 -29t-14 -79q0 -59 5 -86t21 -43t50 -16q44 0 60 29z" />
    <glyph glyph-name="otilde" unicode="&#xf5;" horiz-adv-x="534" 
d="M253 570q-30 18 -59 18q-16 0 -39 -10t-43 -27v98q17 21 40.5 33t47.5 12q34 0 79 -21q33 -18 58 -18q19 0 41.5 10.5t42.5 28.5v-99q-15 -21 -39.5 -33.5t-49.5 -12.5q-34 0 -79 21zM129.5 25q-56.5 36 -78.5 102q-16 45 -16 116q0 79 22.5 132.5t72.5 85.5
q56 35 137 35t137.5 -35.5t78.5 -101.5q16 -47 16 -116q0 -79 -22.5 -132.5t-71.5 -85.5q-57 -36 -138 -36t-137.5 36zM327 145q16 29 16 98q0 68 -16 97t-60 29q-48 0 -62 -29t-14 -79q0 -59 5 -86t21 -43t50 -16q44 0 60 29z" />
    <glyph glyph-name="odieresis" unicode="&#xf6;" horiz-adv-x="534" 
d="M105 555v124h119v-124h-119zM310 555v124h118v-124h-118zM404.5 460.5q56.5 -35.5 78.5 -101.5q16 -47 16 -116q0 -79 -22.5 -132.5t-71.5 -85.5q-57 -36 -138 -36t-137.5 36t-78.5 102q-16 45 -16 116q0 79 22.5 132.5t72.5 85.5q56 35 137 35t137.5 -35.5zM205 340
q-14 -29 -14 -79q0 -59 5 -86t21 -43t50 -16q44 0 60 29t16 98q0 68 -16 97t-60 29q-48 0 -62 -29z" />
    <glyph glyph-name="divide" unicode="&#xf7;" 
d="M361 468q0 -34 -21 -56.5t-59 -22.5q-21 0 -40 9.5t-30 26.5q-14 23 -14 43q0 26 20 52q26 30 62 30t63 -30q19 -22 19 -52zM49 212v128h462v-128h-462zM361 84q0 -24 -14 -47q-13 -17 -30.5 -26t-36.5 -9t-37.5 10t-30.5 28q-13 19 -13 45q0 23 12.5 42.5t31.5 29.5
q21 8 36 8q18 0 35 -8t30 -23q17 -26 17 -50z" />
    <glyph glyph-name="oslash" unicode="&#xf8;" horiz-adv-x="534" 
d="M90 56q-29 36 -42 79.5t-13 107.5q0 80 22 132.5t72 84.5q57 36 137 36q74 0 124 -29l36 48h80l-65 -86q30 -34 43.5 -77.5t13.5 -108.5q0 -81 -22 -133.5t-71 -84.5q-57 -36 -139 -36q-71 0 -123 28l-35 -47h-80zM310 358q-22 12 -44 12q-33 0 -50 -14.5t-22 -43.5
q-5 -32 -5 -70l2 -52zM323 132.5q17 17.5 19 37.5t2 69v34l-2 21l-117 -168q17 -11 41 -11q40 0 57 17.5z" />
    <glyph glyph-name="ugrave" unicode="&#xf9;" horiz-adv-x="552" 
d="M266 702l89 -153h-125l-116 153h152zM340 46q-42 -57 -125 -57q-77 0 -119 48t-42 133v315h154v-288q0 -37 17 -58t49 -21t49 21t17 59v287h154v-485h-154v46z" />
    <glyph glyph-name="uacute" unicode="&#xfa;" horiz-adv-x="552" 
d="M445 702l-117 -153h-125l90 153h152zM340 46q-42 -57 -125 -57q-77 0 -119 48t-42 133v315h154v-288q0 -37 17 -58t49 -21t49 21t17 59v287h154v-485h-154v46z" />
    <glyph glyph-name="ucircumflex" unicode="&#xfb;" horiz-adv-x="552" 
d="M328 702l123 -154h-113l-62 62l-59 -62h-115l122 154h104zM340 46q-42 -57 -125 -57q-77 0 -119 48t-42 133v315h154v-288q0 -37 17 -58t49 -21t49 21t17 59v287h154v-485h-154v46z" />
    <glyph glyph-name="udieresis" unicode="&#xfc;" horiz-adv-x="552" 
d="M115 555v124h118v-124h-118zM319 555v124h119v-124h-119zM494 0h-154v46q-42 -57 -125 -57q-77 0 -119 48t-42 133v315h154v-288q0 -37 17 -58t49 -21t49 21t17 59v287h154v-485z" />
    <glyph glyph-name="yacute" unicode="&#xfd;" horiz-adv-x="518" 
d="M436 702l-117 -153h-125l90 153h152zM88 -180v127h32q26 0 41 10.5t22 35.5l13 34l-186 458h163l95 -275l87 275h160l-206 -532q-29 -74 -68 -103.5t-108 -29.5h-45z" />
    <glyph glyph-name="thorn" unicode="&#xfe;" horiz-adv-x="554" 
d="M58 680h154v-240q38 56 128 56q70 0 112 -34.5t55 -95.5q12 -54 12 -123q0 -76 -17 -138q-38 -116 -162 -116q-94 0 -128 58v-227h-154v860zM347 144.5q16 28.5 16 98.5q0 69 -16 97.5t-60 28.5q-43 0 -59 -29t-16 -97q0 -69 16 -98t59 -29q44 0 60 28.5z" />
    <glyph glyph-name="ydieresis" unicode="&#xff;" horiz-adv-x="518" 
d="M102 555v124h119v-124h-119zM307 555v124h118v-124h-118zM309 -47q-29 -74 -68 -103.5t-108 -29.5h-45v127h32q26 0 41 10.5t22 35.5l13 34l-186 458h163l95 -275l87 275h160z" />
    <glyph glyph-name="Amacron" unicode="&#x100;" horiz-adv-x="658" 
d="M488 869v-103h-313v103h313zM218 123l-37 -123h-170l241 680h164l237 -680h-167l-39 123h-229zM405 258l-73 230l-71 -230h144z" />
    <glyph glyph-name="amacron" unicode="&#x101;" horiz-adv-x="531" 
d="M107 569v104h313v-104h-313zM382.5 478q48.5 -18 70.5 -56t22 -104v-318h-144v42q-42 -53 -133 -53q-73 0 -116.5 40t-43.5 109q0 75 54 116t151 41h86v22q0 33 -21 46t-74 13q-70 0 -115 -36l-59 103q33 26 82.5 39.5t110.5 13.5q81 0 129.5 -18zM261 198q-77 0 -77 -50
q0 -47 63 -47q82 0 82 60v37h-68z" />
    <glyph glyph-name="Abreve" unicode="&#x102;" horiz-adv-x="658" 
d="M250 758q-37 19 -57 53q-20 35 -17 75h83q14 -51 73 -51q61 0 74 51h84q0 -66 -44 -106.5t-114 -40.5q-45 0 -82 19zM218 123l-37 -123h-170l241 680h164l237 -680h-167l-39 123h-229zM405 258l-73 230l-71 -230h144z" />
    <glyph glyph-name="abreve" unicode="&#x103;" horiz-adv-x="531" 
d="M424 690q-1 -66 -44.5 -106.5t-113.5 -40.5q-46 0 -82.5 18.5t-56.5 52.5q-19 33 -18 76h83q15 -52 74 -52q28 0 47.5 13t26.5 39h84zM382.5 478q48.5 -18 70.5 -56t22 -104v-318h-144v42q-42 -53 -133 -53q-73 0 -116.5 40t-43.5 109q0 75 54 116t151 41h86v22
q0 33 -21 46t-74 13q-70 0 -115 -36l-59 103q33 26 82.5 39.5t110.5 13.5q81 0 129.5 -18zM261 198q-77 0 -77 -50q0 -47 63 -47q82 0 82 60v37h-68z" />
    <glyph glyph-name="Aogonek" unicode="&#x104;" horiz-adv-x="658" 
d="M571 -79q11 -6 41 -5l-1 -96q-88 -1 -130 22t-42 74q0 28 10.5 47t36.5 37l-39 123h-229l-37 -123h-170l241 680h164l237 -680q-41 -14 -74 -32q-20 -12 -20 -27q0 -16 12 -20zM405 258l-73 230l-71 -230h144z" />
    <glyph glyph-name="aogonek" unicode="&#x105;" horiz-adv-x="531" 
d="M475 0q-44 -13 -58 -27t-14 -32q0 -16 12 -20q11 -6 41 -5l-1 -96q-88 -1 -130 22t-42 74q0 28 10.5 47t37.5 37v42q-42 -53 -133 -53q-73 0 -116.5 40t-43.5 109q0 75 54 116t151 41h86v22q0 33 -21 46t-74 13q-70 0 -115 -36l-59 103q33 26 82.5 39.5t110.5 13.5
q81 0 129.5 -18t70.5 -56t22 -104v-318zM329 198h-68q-77 0 -77 -50q0 -47 63 -47q82 0 82 60v37z" />
    <glyph glyph-name="Cacute" unicode="&#x106;" horiz-adv-x="579" 
d="M462 890l-117 -153h-125l90 153h152zM153 32q-63 43 -90 124q-20 58 -20 184q0 88 10 145t34 95.5t66 67.5q62 43 155 43q102 0 170 -55.5t86 -154.5h-165q-11 36 -32.5 52t-57.5 16q-45 0 -67.5 -20t-28.5 -63q-6 -42 -6 -126q0 -87 6.5 -126.5t28.5 -60.5
q22 -22 67 -22q33 0 55 16t31 46h166q-23 -102 -87 -153t-166 -51q-92 0 -155 43z" />
    <glyph glyph-name="cacute" unicode="&#x107;" horiz-adv-x="484" 
d="M419 702l-117 -153h-126l91 153h152zM50 357q21 67 77 103t137 36q64 0 116 -28t81 -79l-117 -70q-29 50 -77 50q-54 0 -67 -46q-9 -24 -9 -80t9 -80q14 -47 67 -47q47 0 77 51l117 -70q-29 -51 -81.5 -79.5t-115.5 -28.5q-81 0 -137 36t-77 103q-15 44 -15 115
q0 72 15 114z" />
    <glyph glyph-name="Ccircumflex" unicode="&#x108;" horiz-adv-x="579" 
d="M305 807l-59 -63h-114l121 154h104l123 -154h-113zM153 32q-63 43 -90 124q-20 58 -20 184q0 88 10 145t34 95.5t66 67.5q62 43 155 43q102 0 170 -55.5t86 -154.5h-165q-11 36 -32.5 52t-57.5 16q-44 0 -67 -21t-29 -65q-6 -43 -6 -123q0 -87 6.5 -126.5t28.5 -60.5
q22 -22 67 -22q33 0 55 16t31 46h166q-23 -102 -87 -153t-166 -51q-92 0 -155 43z" />
    <glyph glyph-name="ccircumflex" unicode="&#x109;" horiz-adv-x="484" 
d="M310 702l123 -154h-113l-62 62l-59 -62h-114l121 154h104zM50 357q21 67 77 103t137 36q64 0 116 -28t81 -79l-117 -70q-29 50 -77 50q-54 0 -67 -46q-9 -24 -9 -80t9 -80q14 -47 67 -47q47 0 77 51l117 -70q-29 -51 -81.5 -79.5t-115.5 -28.5q-81 0 -137 36t-77 103
q-15 44 -15 115q0 72 15 114z" />
    <glyph glyph-name="Cdotaccent" unicode="&#x10a;" horiz-adv-x="579" 
d="M381 879v-123h-156v123h156zM153 32q-63 43 -90 124q-20 58 -20 184q0 88 10 145t34 95.5t66 67.5q62 43 155 43q102 0 170 -55.5t86 -154.5h-165q-11 36 -32.5 52t-57.5 16q-44 0 -67 -21t-29 -65q-6 -43 -6 -123q0 -87 6.5 -126.5t28.5 -60.5q22 -22 67 -22q33 0 55 16
t31 46h166q-23 -102 -87 -153t-166 -51q-92 0 -155 43z" />
    <glyph glyph-name="cdotaccent" unicode="&#x10b;" horiz-adv-x="484" 
d="M339 678v-123h-156v123h156zM50 357q21 67 77 103t137 36q64 0 116 -28t81 -79l-117 -70q-29 50 -77 50q-54 0 -67 -46q-9 -24 -9 -80t9 -80q14 -47 67 -47q47 0 77 51l117 -70q-29 -51 -81.5 -79.5t-115.5 -28.5q-81 0 -137 36t-77 103q-15 44 -15 115q0 72 15 114z" />
    <glyph glyph-name="Ccaron" unicode="&#x10c;" horiz-adv-x="579" 
d="M479 893l-124 -152h-103l-122 152h113l61 -62l61 62h114zM153 32q-63 43 -90 124q-20 58 -20 184q0 88 10 145t34 95.5t66 67.5q62 43 155 43q102 0 170 -55.5t86 -154.5h-165q-11 36 -32.5 52t-57.5 16q-44 0 -67 -21t-29 -65q-6 -43 -6 -123q0 -87 6.5 -126.5
t28.5 -60.5q22 -22 67 -22q33 0 55 16t31 46h166q-23 -102 -87 -153t-166 -51q-92 0 -155 43z" />
    <glyph glyph-name="ccaron" unicode="&#x10d;" horiz-adv-x="484" 
d="M262 634l62 63h113l-123 -153h-104l-122 153h113zM50 357q21 67 77 103t137 36q64 0 116 -28t81 -79l-117 -70q-29 50 -77 50q-54 0 -67 -46q-9 -24 -9 -80t9 -80q14 -47 67 -47q47 0 77 51l117 -70q-29 -51 -81.5 -79.5t-115.5 -28.5q-81 0 -137 36t-77 103
q-15 44 -15 115q0 72 15 114z" />
    <glyph glyph-name="Dcaron" unicode="&#x10e;" horiz-adv-x="630" 
d="M470 893l-123 -152h-104l-122 152h113l61 -62l62 62h113zM60 680h268q109 0 169 -41.5t76 -118.5q13 -64 13 -180q0 -86 -6.5 -136t-23.5 -88q-18 -40 -54 -70q-55 -46 -174 -46h-268v680zM293 144q57 0 86.5 19t36.5 58q6 41 6 125q0 81 -7 116t-33 55q-29 20 -89 20
h-71v-393h71z" />
    <glyph glyph-name="dcaron" unicode="&#x10f;" horiz-adv-x="572" 
d="M342 47q-37 -58 -127 -58q-125 0 -163 116q-17 62 -17 138q0 81 14 130.5t49 84.5q41 38 117 38q88 0 127 -58v242h154v-680h-154v47zM649 680v-113l-122 -101v214h122zM326 145q16 29 16 98q0 68 -16 97t-58 29q-44 0 -60.5 -28.5t-16.5 -97.5q0 -70 16 -98.5t61 -28.5
q42 0 58 29z" />
    <glyph glyph-name="Dcroat" unicode="&#x110;" horiz-adv-x="630" 
d="M60 285h-40v117h40v278h268q109 0 169 -41.5t76 -118.5q13 -64 13 -180q0 -86 -6.5 -136t-23.5 -88q-18 -40 -54 -70q-55 -46 -174 -46h-268v285zM293 144q57 0 86.5 19t36.5 58q6 41 6 125q0 81 -7 116t-33 55q-29 20 -89 20h-71v-135h92v-117h-92v-141h71z" />
    <glyph glyph-name="dslash" unicode="&#x111;" horiz-adv-x="554" 
d="M342 45q-38 -56 -127 -56q-125 0 -163 116q-17 62 -17 138q0 81 14 130.5t49 84.5q41 38 117 38q89 0 127 -56v100h-115v102h115v38h154v-38h32v-102h-32v-540h-154v45zM326 145q16 29 16 98q0 68 -16 97t-58 29q-44 0 -60.5 -28.5t-16.5 -97.5q0 -70 16 -98.5t61 -28.5
q42 0 58 29z" />
    <glyph glyph-name="Emacron" unicode="&#x112;" horiz-adv-x="563" 
d="M445 869v-103h-313v103h313zM521 138v-138h-461v680h461v-137h-299v-132h250v-136h-250v-137h299z" />
    <glyph glyph-name="emacron" unicode="&#x113;" horiz-adv-x="530" 
d="M421 673v-104h-313v104h313zM131.5 25.5q-57.5 36.5 -79.5 103.5q-17 57 -17 114q0 80 22 132.5t72 84.5q56 36 136 36q81 0 137 -36t77 -101q19 -56 16 -161h-309l7 -28q17 -60 96 -60q67 0 116 48l85 -81q-44 -45 -97 -66.5t-120 -21.5q-84 0 -141.5 36.5zM345 295
q0 48 -20.5 68t-58.5 20q-58 0 -74 -48q-5 -25 -5 -40h158z" />
    <glyph glyph-name="Ebreve" unicode="&#x114;" horiz-adv-x="563" 
d="M205 758q-37 19 -57 53q-20 35 -17 75h83q13 -51 73 -51q61 0 74 51h84q0 -66 -44 -106.5t-114 -40.5q-45 0 -82 19zM521 138v-138h-461v680h461v-137h-299v-132h250v-136h-250v-137h299z" />
    <glyph glyph-name="ebreve" unicode="&#x115;" horiz-adv-x="530" 
d="M192 690q15 -52 74 -52q28 0 47.5 13t26.5 39h84q-1 -66 -44.5 -106.5t-113.5 -40.5q-46 0 -82.5 18.5t-56.5 52.5q-19 33 -18 76h83zM131.5 25.5q-57.5 36.5 -79.5 103.5q-17 57 -17 114q0 80 22 132.5t72 84.5q56 36 136 36q81 0 137 -36t77 -101q19 -56 16 -161h-309
l7 -28q17 -60 96 -60q67 0 116 48l85 -81q-44 -45 -97 -66.5t-120 -21.5q-84 0 -141.5 36.5zM345 295q0 48 -20.5 68t-58.5 20q-58 0 -74 -48q-5 -25 -5 -40h158z" />
    <glyph glyph-name="Edotaccent" unicode="&#x116;" horiz-adv-x="563" 
d="M364 879v-123h-156v123h156zM521 138v-138h-461v680h461v-137h-299v-132h250v-136h-250v-137h299z" />
    <glyph glyph-name="edotaccent" unicode="&#x117;" horiz-adv-x="530" 
d="M342 678v-123h-156v123h156zM131.5 25.5q-57.5 36.5 -79.5 103.5q-17 57 -17 114q0 80 22 132.5t72 84.5q56 36 136 36q81 0 137 -36t77 -101q19 -56 16 -161h-309l7 -28q17 -60 96 -60q67 0 116 48l85 -81q-44 -45 -97 -66.5t-120 -21.5q-84 0 -141.5 36.5zM345 295
q0 48 -20.5 68t-58.5 20q-58 0 -74 -48q-5 -25 -5 -40h158z" />
    <glyph glyph-name="Eogonek" unicode="&#x118;" horiz-adv-x="563" 
d="M222 543v-132h250v-136h-250v-137h299v-138h-16q-52 -13 -73 -28q-21 -14 -21 -31q0 -16 12 -20q11 -6 41 -5l-1 -96q-88 -1 -130 22t-42 74q0 28 10 47t36 37h-277v680h461v-137h-299z" />
    <glyph glyph-name="eogonek" unicode="&#x119;" horiz-adv-x="530" 
d="M495 198h-309l7 -28q17 -60 96 -60q67 0 116 48l85 -81q-38 -38 -77 -57q-36 -25 -51 -41q-14 -17 -14 -35q0 -17 11 -23t42 -5l-1 -96q-88 -1 -130 22t-42 74q0 24 7.5 41t26.5 32q-81 2 -135 38.5t-75 101.5q-17 57 -17 114q0 80 22 132.5t72 84.5q56 36 136 36
q81 0 137 -36t77 -101q19 -56 16 -161zM345 295q0 48 -20.5 68t-58.5 20q-58 0 -74 -48q-5 -25 -5 -40h158z" />
    <glyph glyph-name="Ecaron" unicode="&#x11a;" horiz-adv-x="563" 
d="M463 893l-123 -152h-104l-121 152h113l60 -62l62 62h113zM521 138v-138h-461v680h461v-137h-299v-132h250v-136h-250v-137h299z" />
    <glyph glyph-name="ecaron" unicode="&#x11b;" horiz-adv-x="530" 
d="M265 634l62 63h113l-123 -153h-104l-122 153h113zM131.5 25.5q-57.5 36.5 -79.5 103.5q-17 57 -17 114q0 80 22 132.5t72 84.5q56 36 136 36q81 0 137 -36t77 -101q19 -56 16 -161h-309l7 -28q17 -60 96 -60q67 0 116 48l85 -81q-44 -45 -97 -66.5t-120 -21.5
q-84 0 -141.5 36.5zM345 295q0 48 -20.5 68t-58.5 20q-58 0 -74 -48q-5 -25 -5 -40h158z" />
    <glyph glyph-name="Gcircumflex" unicode="&#x11c;" horiz-adv-x="629" 
d="M313 807l-59 -63h-114l121 154h104l123 -154h-113zM154.5 31.5q-65.5 42.5 -91.5 123.5q-20 65 -20 185q0 89 10 146t34 95q29 50 87.5 80t141.5 30q109 0 177 -53.5t86 -156.5h-165q-20 68 -98 68q-79 0 -99 -71q-10 -24 -10 -138q0 -83 6 -124q6 -44 31 -64.5t74 -20.5
q37 0 64 17t35 46q7 21 7 62h-97v124h259v-64q0 -110 -25 -175.5t-85 -106.5q-67 -45 -160 -45q-96 0 -161.5 42.5z" />
    <glyph glyph-name="gcircumflex" unicode="&#x11d;" horiz-adv-x="547" 
d="M92 548l121 154h104l123 -154h-113l-62 62l-59 -62h-114zM335 439v46h154v-422q0 -129 -61.5 -191.5t-187.5 -62.5q-60 0 -112 21t-81 59l91 94q50 -47 105 -47q92 0 92 103v42q-35 -59 -125 -59q-63 0 -102.5 29t-58.5 88q-16 48 -16 120q0 118 40.5 177.5t136.5 59.5
q92 0 125 -57zM196 321q-8 -32 -8 -61q0 -21 8 -64q16 -46 66 -46q40 0 56.5 26.5t16.5 82.5q0 57 -16.5 83.5t-56.5 26.5q-49 0 -66 -48z" />
    <glyph glyph-name="Gbreve" unicode="&#x11e;" horiz-adv-x="629" 
d="M232.5 758q-36.5 19 -56.5 53q-19 33 -18 75h83q13 -51 74 -51q60 0 73 51h85q-1 -66 -45 -106.5t-113 -40.5q-46 0 -82.5 19zM154.5 31.5q-65.5 42.5 -91.5 123.5q-20 65 -20 185q0 89 10 146t34 95q29 50 87.5 80t141.5 30q109 0 177 -53.5t86 -156.5h-165
q-20 68 -98 68q-79 0 -99 -71q-10 -24 -10 -138q0 -83 6 -124q6 -44 31 -64.5t74 -20.5q37 0 64 17t35 46q7 21 7 62h-97v124h259v-64q0 -110 -25 -175.5t-85 -106.5q-67 -45 -160 -45q-96 0 -161.5 42.5z" />
    <glyph glyph-name="gbreve" unicode="&#x11f;" horiz-adv-x="547" 
d="M424 690q0 -66 -44 -106.5t-114 -40.5q-45 0 -82 18.5t-57 52.5q-20 35 -17 76h83q13 -52 73 -52q28 0 47.5 13t26.5 39h84zM335 439v46h154v-422q0 -129 -61.5 -191.5t-187.5 -62.5q-60 0 -112 21t-81 59l91 94q50 -47 105 -47q92 0 92 103v42q-35 -59 -125 -59
q-63 0 -102.5 29t-58.5 88q-16 48 -16 120q0 118 40.5 177.5t136.5 59.5q92 0 125 -57zM196 321q-8 -32 -8 -61q0 -21 8 -64q16 -46 66 -46q40 0 56.5 26.5t16.5 82.5q0 57 -16.5 83.5t-56.5 26.5q-49 0 -66 -48z" />
    <glyph glyph-name="Gdotaccent" unicode="&#x120;" horiz-adv-x="629" 
d="M392 879v-123h-156v123h156zM154.5 31.5q-65.5 42.5 -91.5 123.5q-20 65 -20 185q0 89 10 146t34 95q29 50 87.5 80t141.5 30q109 0 177 -53.5t86 -156.5h-165q-20 68 -98 68q-79 0 -99 -71q-10 -24 -10 -138q0 -83 6 -124q6 -44 31 -64.5t74 -20.5q37 0 64 17t35 46
q7 21 7 62h-97v124h259v-64q0 -110 -25 -175.5t-85 -106.5q-67 -45 -160 -45q-96 0 -161.5 42.5z" />
    <glyph glyph-name="gdotaccent" unicode="&#x121;" horiz-adv-x="547" 
d="M344 679v-124h-156v124h156zM128 -170q-52 21 -81 59l91 94q50 -47 105 -47q92 0 92 103v42q-35 -59 -125 -59q-63 0 -102.5 29t-58.5 88q-16 48 -16 120q0 118 40.5 177.5t136.5 59.5q92 0 125 -57v46h154v-422q0 -129 -61.5 -191.5t-187.5 -62.5q-60 0 -112 21z
M318.5 176.5q16.5 26.5 16.5 82.5q0 57 -16.5 83.5t-56.5 26.5q-49 0 -66 -48q-8 -32 -8 -61q0 -21 8 -64q16 -46 66 -46q40 0 56.5 26.5z" />
    <glyph glyph-name="Gcommaaccent" unicode="&#x122;" horiz-adv-x="629" 
d="M493 637.5q68 -53.5 86 -156.5h-165q-20 68 -98 68q-79 0 -99 -71q-10 -24 -10 -138q0 -83 6 -124q6 -44 31 -64.5t74 -20.5q37 0 64 17t35 46q7 21 7 62h-97v124h259v-64q0 -110 -25 -175.5t-85 -106.5q-67 -45 -160 -45q-96 0 -161.5 42.5t-91.5 123.5q-20 65 -20 185
q0 89 10 146t34 95q29 50 87.5 80t141.5 30q109 0 177 -53.5zM248 -265v217h131v-108z" />
    <glyph glyph-name="gcommaaccent" unicode="&#x123;" horiz-adv-x="547" 
d="M332 775v-219h-131v108zM128 -170q-52 21 -81 59l91 94q50 -47 105 -47q92 0 92 103v42q-35 -59 -125 -59q-63 0 -102.5 29t-58.5 88q-16 48 -16 120q0 118 40.5 177.5t136.5 59.5q92 0 125 -57v46h154v-422q0 -129 -61.5 -191.5t-187.5 -62.5q-60 0 -112 21z
M318.5 176.5q16.5 26.5 16.5 82.5q0 57 -16.5 83.5t-56.5 26.5q-49 0 -66 -48q-8 -32 -8 -61q0 -21 8 -64q16 -46 66 -46q40 0 56.5 26.5z" />
    <glyph glyph-name="Hcircumflex" unicode="&#x124;" horiz-adv-x="659" 
d="M329 807l-59 -63h-115l122 154h103l124 -154h-113zM222 272v-272h-162v680h162v-264h215v264h162v-680h-162v272h-215z" />
    <glyph glyph-name="hcircumflex" unicode="&#x125;" horiz-adv-x="556" 
d="M334 898l124 -154h-113l-62 63l-59 -63h-115l122 154h103zM347 288q0 39 -17 59.5t-50 20.5q-32 0 -50 -22t-18 -58v-288h-154v680h154v-239q43 55 125 55q78 0 121 -48t43 -132v-316h-154v288z" />
    <glyph glyph-name="Hbar" unicode="&#x126;" horiz-adv-x="659" 
d="M222 272v-272h-162v497h-46v99h46v84h162v-84h215v84h162v-84h46v-99h-46v-497h-162v272h-215zM437 497h-215v-81h215v81z" />
    <glyph glyph-name="hbar" unicode="&#x127;" horiz-adv-x="556" 
d="M347 288q0 39 -17 59.5t-50 20.5q-32 0 -50 -22t-18 -58v-288h-154v540h-32v102h32v38h154v-38h116v-102h-116v-99q40 55 125 55q78 0 121 -48t43 -132v-316h-154v288z" />
    <glyph glyph-name="Itilde" unicode="&#x128;" horiz-adv-x="282" 
d="M-14 844q17 21 40.5 33t47.5 12q34 0 79 -21q33 -18 58 -18q19 0 41.5 10.5t42.5 28.5v-99q-15 -21 -39.5 -33.5t-49.5 -12.5q-34 0 -79 21q-30 18 -59 18q-16 0 -39 -10.5t-43 -27.5v99zM222 680v-680h-162v680h162z" />
    <glyph glyph-name="itilde" unicode="&#x129;" horiz-adv-x="270" 
d="M122 571q-30 18 -59 18q-16 0 -39 -10.5t-43 -27.5v98q17 22 40.5 34t47.5 12q36 0 79 -22q33 -18 58 -18q19 0 41.5 10.5t42.5 28.5v-99q-15 -21 -39.5 -33.5t-49.5 -12.5q-36 0 -79 22zM212 485v-485h-154v485h154z" />
    <glyph glyph-name="Imacron" unicode="&#x12a;" horiz-adv-x="282" 
d="M297 869v-103h-313v103h313zM222 680v-680h-162v680h162z" />
    <glyph glyph-name="imacron" unicode="&#x12b;" horiz-adv-x="270" 
d="M292 673v-104h-313v104h313zM212 485v-485h-154v485h154z" />
    <glyph glyph-name="Ibreve" unicode="&#x12c;" horiz-adv-x="282" 
d="M57 758q-37 19 -57 53q-20 35 -17 75h83q13 -51 74 -51q60 0 73 51h85q-1 -66 -45 -106.5t-113 -40.5q-46 0 -83 19zM222 680v-680h-162v680h162z" />
    <glyph glyph-name="ibreve" unicode="&#x12d;" horiz-adv-x="270" 
d="M62 689q13 -51 73 -51q61 0 74 51h84q0 -66 -44 -106.5t-114 -40.5q-45 0 -82 19t-57 53q-19 33 -18 75h84zM212 485v-485h-154v485h154z" />
    <glyph glyph-name="Iogonek" unicode="&#x12e;" horiz-adv-x="282" 
d="M141 -79q11 -6 42 -5l-2 -96q-87 -1 -129 22t-42 74q0 27 11.5 46.5t38.5 37.5v680h162v-680q-93 -24 -93 -59q0 -16 12 -20z" />
    <glyph glyph-name="iogonek" unicode="&#x12f;" horiz-adv-x="270" 
d="M212 555h-154v125h154v-125zM58 485h154v-485q-43 -13 -59 -28q-15 -15 -15 -33q0 -14 10 -18q9 -7 43 -5l-1 -96q-89 0 -130.5 22t-41.5 72q0 34 8 51.5t32 34.5v485z" />
    <glyph glyph-name="Idot" unicode="&#x130;" horiz-adv-x="282" 
d="M218 879v-123h-156v123h156zM222 680v-680h-162v680h162z" />
    <glyph glyph-name="dotlessi" unicode="&#x131;" horiz-adv-x="270" 
d="M212 485v-485h-154v485h154z" />
    <glyph glyph-name="IJ" unicode="&#x132;" horiz-adv-x="810" 
d="M222 680v-680h-162v680h162zM376 16q-56 27 -81 72l116 90q35 -47 86 -47q45 0 69.5 28.5t24.5 81.5v439h161v-428q0 -128 -65.5 -195.5t-188.5 -67.5q-66 0 -122 27z" />
    <glyph glyph-name="ij" unicode="&#x133;" horiz-adv-x="540" 
d="M212 680v-125h-154v125h154zM482 680v-125h-154v125h154zM212 485v-485h-154v485h154zM246 -53h29q30 0 41.5 11.5t11.5 44.5v482h154v-482q0 -183 -190 -183h-46v127z" />
    <glyph glyph-name="Jcircumflex" unicode="&#x134;" horiz-adv-x="528" 
d="M391 807l-59 -63h-115l122 154h103l124 -154h-113zM99 16q-56 27 -80 72l116 90q35 -47 86 -47q44 0 68.5 29t24.5 81v439h162v-428q0 -128 -66 -195.5t-189 -67.5q-66 0 -122 27z" />
    <glyph glyph-name="jcircumflex" unicode="&#x135;" horiz-adv-x="281" 
d="M196 702l123 -154h-113l-62 62l-59 -62h-115l122 154h104zM-24 -53h29q30 0 41.5 11.5t11.5 44.5v482h154v-482q0 -183 -190 -183h-46v127z" />
    <glyph glyph-name="Kcommaaccent" unicode="&#x136;" horiz-adv-x="651" 
d="M222 177v-177h-162v680h162v-291l218 291h184l-213 -273l227 -407h-188l-147 282zM393 -48v-108l-132 -109v217h132z" />
    <glyph glyph-name="kcommaaccent" unicode="&#x137;" horiz-adv-x="536" 
d="M58 0v680h154v-364l134 169h165l-154 -178l171 -307h-168l-105 202l-43 -56v-146h-154zM206 -265v217h131v-108z" />
    <glyph glyph-name="kgreenlandic" unicode="&#x138;" horiz-adv-x="536" 
d="M357 307l171 -307h-166l-107 202l-43 -56v-146h-154v485h154v-169l134 169h164z" />
    <glyph glyph-name="Lacute" unicode="&#x139;" horiz-adv-x="553" 
d="M325 890l-117 -153h-125l90 153h152zM532 144v-144h-472v680h162v-536h310z" />
    <glyph glyph-name="lacute" unicode="&#x13a;" horiz-adv-x="311" 
d="M314 890l-117 -153h-125l90 153h152zM215 -6q-85 0 -122 38t-37 124v524h154v-510q0 -47 42 -47h31v-129h-68z" />
    <glyph glyph-name="Lcommaaccent" unicode="&#x13b;" horiz-adv-x="553" 
d="M532 144v-144h-472v680h162v-536h310zM351 -48v-108l-131 -109v217h131z" />
    <glyph glyph-name="lcommaaccent" unicode="&#x13c;" horiz-adv-x="311" 
d="M215 -6q-85 0 -122 38t-37 124v524h154v-510q0 -47 42 -47h31v-129h-68zM241 -48v-108l-132 -109v217h132z" />
    <glyph glyph-name="Lcaron" unicode="&#x13d;" horiz-adv-x="553" 
d="M532 144v-144h-472v680h162v-536h310zM411 680v-107l-132 -109v216h132z" />
    <glyph glyph-name="lcaron" unicode="&#x13e;" horiz-adv-x="312" 
d="M215 -6q-85 0 -122 38t-37 124v524h154v-510q0 -47 42 -47h31v-129h-68zM374 680v-107l-132 -109v216h132z" />
    <glyph glyph-name="Ldot" unicode="&#x13f;" horiz-adv-x="553" 
d="M532 144v-144h-472v680h162v-536h310zM505 411v-155h-162v155h162z" />
    <glyph glyph-name="ldot" unicode="&#x140;" horiz-adv-x="402" 
d="M215 -6q-85 0 -122 38t-37 124v524h154v-510q0 -47 42 -47h31v-129h-68zM424 423v-155h-162v155h162z" />
    <glyph glyph-name="Lslash" unicode="&#x141;" horiz-adv-x="553" 
d="M532 144v-144h-472v249l-53 -27v120l53 27v311h162v-238l137 70v-121l-137 -69v-178h310z" />
    <glyph glyph-name="lslash" unicode="&#x142;" horiz-adv-x="312" 
d="M210 328v-158q0 -47 42 -47h31v-129h-68q-85 0 -122 38t-37 124v102l-41 -21v118l41 20v305h154v-234l73 36v-117z" />
    <glyph glyph-name="Nacute" unicode="&#x143;" horiz-adv-x="654" 
d="M231 737l90 153h152l-118 -153h-124zM448 253v427h146v-680h-154l-234 427v-427h-146v680h155z" />
    <glyph glyph-name="nacute" unicode="&#x144;" horiz-adv-x="556" 
d="M425 702l-117 -153h-125l90 153h152zM347 288q0 39 -17 59.5t-50 20.5q-32 0 -50 -22t-18 -58v-288h-154v485h154v-44q21 29 51.5 42t73.5 13q78 0 121 -48t43 -132v-316h-154v288z" />
    <glyph glyph-name="Ncommaaccent" unicode="&#x145;" horiz-adv-x="654" 
d="M448 253v427h146v-680h-154l-234 427v-427h-146v680h155zM261 -265v217h131v-108z" />
    <glyph glyph-name="ncommaaccent" unicode="&#x146;" horiz-adv-x="556" 
d="M347 288q0 39 -17 59.5t-50 20.5q-32 0 -50 -22t-18 -58v-288h-154v485h154v-44q21 29 51.5 42t73.5 13q78 0 121 -48t43 -132v-316h-154v288zM344 -48v-108l-131 -109v217h131z" />
    <glyph glyph-name="Ncaron" unicode="&#x147;" horiz-adv-x="654" 
d="M322 831l62 62h113l-123 -152h-104l-121 152h113zM448 253v427h146v-680h-154l-234 427v-427h-146v680h155z" />
    <glyph glyph-name="ncaron" unicode="&#x148;" horiz-adv-x="556" 
d="M279 636l62 62h113l-123 -152h-104l-121 152h113zM347 288q0 39 -17 59.5t-50 20.5q-32 0 -50 -22t-18 -58v-288h-154v485h154v-44q21 29 51.5 42t73.5 13q78 0 121 -48t43 -132v-316h-154v288z" />
    <glyph glyph-name="napostrophe" unicode="&#x149;" horiz-adv-x="556" 
d="M94 680v-107l-132 -109v216h132zM347 288q0 39 -17 59.5t-50 20.5q-32 0 -50 -22t-18 -58v-288h-154v485h154v-44q21 29 51.5 42t73.5 13q78 0 121 -48t43 -132v-316h-154v288z" />
    <glyph glyph-name="Eng" unicode="&#x14a;" horiz-adv-x="654" 
d="M338 -49h27q33 0 52.5 14t20.5 39l-232 423v-427h-146v680h155l233 -427v427h146v-653q0 -213 -211 -213h-45v137z" />
    <glyph glyph-name="eng" unicode="&#x14b;" horiz-adv-x="556" 
d="M268 -180v127h28q30 0 40.5 11t10.5 43v287q0 39 -17 59.5t-50 20.5q-32 0 -50 -22t-18 -58v-288h-154v485h154v-44q42 55 125 55q78 0 121 -48t43 -132v-313q0 -95 -45.5 -139t-141.5 -44h-46z" />
    <glyph glyph-name="Omacron" unicode="&#x14c;" horiz-adv-x="629" 
d="M471 869v-103h-313v103h313zM155 32q-66 43 -92 123q-20 65 -20 185q0 89 10.5 146t34.5 96q30 49 88 79t139 30q94 0 159.5 -42.5t91.5 -122.5q20 -65 20 -186q0 -89 -10 -145.5t-34 -94.5q-30 -49 -88.5 -80t-138.5 -31q-94 0 -160 43zM385.5 151.5
q23.5 20.5 30.5 65.5q6 42 6 123q0 87 -7 127.5t-29 60.5q-24 21 -71 21q-48 0 -72 -20.5t-30 -64.5q-6 -42 -6 -124q0 -89 6.5 -128.5t29.5 -59.5q23 -21 72 -21q47 0 70.5 20.5z" />
    <glyph glyph-name="omacron" unicode="&#x14d;" horiz-adv-x="534" 
d="M423 672v-103h-313v103h313zM129.5 25q-56.5 36 -78.5 102q-16 45 -16 116q0 79 22.5 132.5t72.5 85.5q56 35 137 35t137.5 -35.5t78.5 -101.5q16 -47 16 -116q0 -79 -22.5 -132.5t-71.5 -85.5q-57 -36 -138 -36t-137.5 36zM327 145q16 29 16 98q0 68 -16 97t-60 29
q-48 0 -62 -29t-14 -79q0 -59 5 -86t21 -43t50 -16q44 0 60 29z" />
    <glyph glyph-name="Obreve" unicode="&#x14e;" horiz-adv-x="629" 
d="M233.5 758q-36.5 19 -56.5 53q-20 33 -18 75h83q14 -51 74 -51t73 51h85q-1 -66 -45 -106.5t-113 -40.5q-46 0 -82.5 19zM155 32q-66 43 -92 123q-20 65 -20 185q0 89 10.5 146t34.5 96q30 49 88 79t139 30q94 0 159.5 -42.5t91.5 -122.5q20 -65 20 -186
q0 -89 -10 -145.5t-34 -94.5q-30 -49 -88.5 -80t-138.5 -31q-94 0 -160 43zM385 152q24 21 31 64q6 42 6 124q0 84 -6 126q-7 43 -31 63t-71 20t-71 -20t-30 -63q-7 -36 -7 -126q0 -88 7 -124q6 -44 30 -64.5t71 -20.5t71 21z" />
    <glyph glyph-name="obreve" unicode="&#x14f;" horiz-adv-x="534" 
d="M194 689q13 -52 73 -52q28 0 47.5 13t26.5 39h84q0 -66 -44 -106.5t-114 -40.5q-45 0 -82 18.5t-57 52.5q-20 35 -17 76h83zM129.5 25q-56.5 36 -78.5 102q-16 45 -16 116q0 79 22.5 132.5t72.5 85.5q56 35 137 35t137.5 -35.5t78.5 -101.5q16 -47 16 -116
q0 -79 -22.5 -132.5t-71.5 -85.5q-57 -36 -138 -36t-137.5 36zM339 174q4 23 4 69q0 48 -5 71.5t-20 38.5q-16 16 -51 16q-48 0 -62 -29t-14 -79q0 -59 5 -86t21 -43t50 -16q62 0 72 58z" />
    <glyph glyph-name="Ohungarumlaut" unicode="&#x150;" horiz-adv-x="629" 
d="M364 887l-94 -154h-113l78 154h129zM541 887l-93 -154h-113l78 154h128zM155 32q-66 43 -92 123q-20 65 -20 185q0 89 10.5 146t34.5 96q30 49 88 79t139 30q94 0 159.5 -42.5t91.5 -122.5q20 -65 20 -186q0 -89 -10 -145.5t-34 -94.5q-30 -49 -88.5 -80t-138.5 -31
q-94 0 -160 43zM385.5 151.5q23.5 20.5 30.5 65.5q6 42 6 123q0 87 -7 127.5t-29 60.5q-24 21 -71 21q-48 0 -72 -20.5t-30 -64.5q-6 -42 -6 -124q0 -89 6.5 -128.5t29.5 -59.5q23 -21 72 -21q47 0 70.5 20.5z" />
    <glyph glyph-name="ohungarumlaut" unicode="&#x151;" horiz-adv-x="534" 
d="M324 700l-94 -154h-113l78 154h129zM501 700l-93 -154h-113l78 154h128zM129.5 25q-56.5 36 -78.5 102q-16 45 -16 116q0 79 22.5 132.5t72.5 85.5q56 35 137 35t137.5 -35.5t78.5 -101.5q16 -47 16 -116q0 -79 -22.5 -132.5t-71.5 -85.5q-57 -36 -138 -36t-137.5 36z
M327 145q16 29 16 98q0 48 -5 71.5t-20 38.5q-16 16 -51 16q-48 0 -62 -29t-14 -79q0 -58 4.5 -85.5t21.5 -43.5q16 -16 50 -16q44 0 60 29z" />
    <glyph glyph-name="OE" unicode="&#x152;" horiz-adv-x="925" 
d="M149 31q-60 42 -86 122q-20 68 -20 187q0 130 23.5 199.5t82.5 110.5q62 41 148 41q82 0 125 -43v32h461v-137h-299v-132h250v-136h-250v-137h299v-138h-461v32q-43 -43 -125 -43q-88 0 -148 42zM385.5 151.5q23.5 20.5 30.5 65.5q6 42 6 123q0 87 -7 127.5t-29 60.5
q-24 21 -71 21q-48 0 -72 -20.5t-30 -64.5q-6 -42 -6 -124q0 -89 6.5 -128.5t29.5 -59.5q23 -21 72 -21q47 0 70.5 20.5z" />
    <glyph glyph-name="oe" unicode="&#x153;" horiz-adv-x="836" 
d="M422 45q-65 -56 -155 -56q-81 0 -137.5 36t-78.5 103q-16 44 -16 115q0 79 22.5 132.5t72.5 85.5q56 35 137 35q97 0 153 -53q56 53 151 53q81 0 137 -36t78 -101q14 -54 14 -161h-306q0 -25 4 -29q18 -59 97 -59q66 0 115 48l85 -82q-82 -87 -216 -87q-98 0 -157 56z
M650 295q0 31 -6.5 48.5t-23.5 28.5q-20 11 -48 11q-27 0 -47.5 -13t-26.5 -35q-4 -11 -4 -40h156zM327 145q16 29 16 98q0 68 -16 97t-60 29q-48 0 -62 -29t-14 -79q0 -59 5 -86t21 -43t50 -16q44 0 60 29z" />
    <glyph glyph-name="Racute" unicode="&#x154;" horiz-adv-x="626" 
d="M442 890l-117 -153h-125l90 153h152zM60 680h285q69 0 123 -26t85 -74q30 -50 30 -115t-30.5 -114.5t-86.5 -75.5l135 -275h-180l-115 251h-84v-251h-162v680zM335 386q40 0 63 21t23 58q0 35 -23 56.5t-63 21.5h-113v-157h113z" />
    <glyph glyph-name="racute" unicode="&#x155;" horiz-adv-x="428" 
d="M383 702l-117 -153h-126l91 153h152zM58 485h154v-53q36 64 128 64q47 0 85 -29l-65 -136q-43 28 -75 28q-73 0 -73 -97v-262h-154v485z" />
    <glyph glyph-name="Rcommaaccent" unicode="&#x156;" horiz-adv-x="626" 
d="M60 680h285q69 0 123 -26t85 -74q30 -50 30 -115t-30.5 -114.5t-86.5 -75.5l135 -275h-180l-115 251h-84v-251h-162v680zM335 386q40 0 63 21t23 58q0 35 -23 56.5t-63 21.5h-113v-157h113zM377 -48v-108l-131 -109v217h131z" />
    <glyph glyph-name="rcommaaccent" unicode="&#x157;" horiz-adv-x="428" 
d="M58 485h154v-53q36 64 128 64q47 0 85 -29l-65 -136q-43 28 -75 28q-73 0 -73 -97v-262h-154v485zM202 -48v-108l-131 -109v217h131z" />
    <glyph glyph-name="Rcaron" unicode="&#x158;" horiz-adv-x="626" 
d="M464 893l-123 -152h-104l-121 152h113l60 -62l62 62h113zM60 680h285q69 0 123 -26t85 -74q30 -50 30 -115t-30.5 -114.5t-86.5 -75.5l135 -275h-180l-115 251h-84v-251h-162v680zM335 386q40 0 63 21t23 58q0 35 -23 56.5t-63 21.5h-113v-157h113z" />
    <glyph glyph-name="rcaron" unicode="&#x159;" horiz-adv-x="428" 
d="M235 636l62 62h113l-123 -152h-104l-121 152h113zM58 485h154v-53q36 64 128 64q47 0 85 -29l-65 -136q-43 28 -75 28q-73 0 -73 -97v-262h-154v485z" />
    <glyph glyph-name="Sacute" unicode="&#x15a;" horiz-adv-x="599" 
d="M472 890l-117 -153h-125l90 153h152zM151 16q-40 14 -73 34.5t-51 41.5l99 113q89 -77 183 -77q47 0 74.5 20t27.5 53q0 29 -21.5 44t-73.5 23l-36 5q-220 30 -220 209q0 96 67 152.5t179 56.5q75 0 133.5 -18.5t111.5 -59.5l-80 -117q-39 27 -81.5 41.5t-81.5 14.5
t-61 -17.5t-22 -47.5q0 -28 22.5 -44t73.5 -23l36 -5q220 -28 220 -210q0 -100 -72.5 -158t-200.5 -58q-78 0 -153 27z" />
    <glyph glyph-name="sacute" unicode="&#x15b;" horiz-adv-x="508" 
d="M423 702l-117 -153h-125l90 153h152zM135 8.5q-56 19.5 -107 61.5l80 93q79 -58 161 -58q35 0 51.5 9.5t16.5 30.5q0 18 -13 25t-50 12l-55 7q-79 8 -121 46.5t-42 104.5q0 72 54.5 114t150.5 42q127 0 211 -66l-73 -91q-71 44 -143 44q-28 0 -40.5 -8.5t-12.5 -26.5
q0 -16 13 -23q12 -7 48 -12l53 -6q84 -9 125.5 -46t41.5 -104q-1 -78 -60 -123t-163 -45q-70 0 -126 19.5z" />
    <glyph glyph-name="Scircumflex" unicode="&#x15c;" horiz-adv-x="599" 
d="M310 807l-59 -63h-115l122 154h103l124 -154h-113zM151 16q-40 14 -73 34.5t-51 41.5l99 113q89 -77 183 -77q47 0 74.5 20t27.5 53q0 29 -21.5 44t-73.5 23l-36 5q-220 30 -220 209q0 96 67 152.5t179 56.5q75 0 133.5 -18.5t111.5 -59.5l-80 -117q-39 27 -81.5 41.5
t-81.5 14.5t-61 -17.5t-22 -47.5q0 -28 21.5 -43.5t74.5 -23.5l36 -5q220 -28 220 -210q0 -100 -72.5 -158t-200.5 -58q-78 0 -153 27z" />
    <glyph glyph-name="scircumflex" unicode="&#x15d;" horiz-adv-x="508" 
d="M317 702l123 -154h-113l-62 62l-59 -62h-115l122 154h104zM135 8.5q-56 19.5 -107 61.5l80 93q79 -58 161 -58q35 0 51.5 9.5t16.5 31.5q0 18 -13 25q-9 6 -50 11l-55 7q-79 8 -121 46.5t-42 104.5q0 72 54.5 114t150.5 42q127 0 211 -66l-73 -91q-68 44 -141 44
q-29 0 -42 -8t-13 -27q0 -17 13 -24q10 -6 48 -11l53 -6q84 -9 125.5 -46t41.5 -104q-1 -78 -60 -123t-163 -45q-70 0 -126 19.5z" />
    <glyph glyph-name="Scedilla" unicode="&#x15e;" horiz-adv-x="599" 
d="M151 16q-40 14 -73 34.5t-51 41.5l99 113q89 -77 183 -77q47 0 74.5 20t27.5 53q0 29 -21.5 44t-73.5 23l-36 5q-220 30 -220 209q0 96 67 152.5t179 56.5q75 0 133.5 -18.5t111.5 -59.5l-80 -117q-39 27 -81.5 41.5t-81.5 14.5t-61 -17.5t-22 -47.5q0 -28 21.5 -43.5
t74.5 -23.5l36 -5q220 -28 220 -210q0 -65 -32.5 -114t-93.5 -75q-61 -27 -147 -27q-78 0 -153 27zM361 -21q0 -45 -18.5 -82.5t-51.5 -58.5t-76 -21v93q24 0 37 18t13 51h96z" />
    <glyph glyph-name="scedilla" unicode="&#x15f;" horiz-adv-x="508" 
d="M473 429l-74 -90q-71 44 -141 44q-29 0 -42 -8t-13 -27q0 -17 13 -24q10 -6 48 -11l53 -6q84 -9 125.5 -46t41.5 -104q-1 -78 -60 -123t-163 -45q-70 0 -125.5 19t-108.5 62l82 93q76 -58 160 -58q35 0 51.5 9.5t16.5 31.5q0 18 -13 25q-9 6 -50 11l-55 7
q-79 8 -121 46.5t-42 104.5q0 72 54.5 114t150.5 42q130 0 212 -67zM319 -21q0 -45 -18.5 -82.5t-51.5 -58.5t-76 -21v93q24 0 37 18t13 51h96z" />
    <glyph glyph-name="Scaron" unicode="&#x160;" horiz-adv-x="599" 
d="M483 893l-123 -152h-104l-121 152h113l60 -62l62 62h113zM151 16q-40 14 -73 34.5t-51 41.5l99 113q89 -77 183 -77q47 0 74.5 20t27.5 53q0 29 -21.5 44t-73.5 23l-36 5q-220 30 -220 209q0 96 67 152.5t179 56.5q75 0 133.5 -18.5t111.5 -59.5l-80 -117
q-39 27 -81.5 41.5t-81.5 14.5t-61 -17.5t-22 -47.5q0 -28 21.5 -43.5t74.5 -23.5l36 -5q220 -28 220 -210q0 -100 -72.5 -158t-200.5 -58q-78 0 -153 27z" />
    <glyph glyph-name="scaron" unicode="&#x161;" horiz-adv-x="508" 
d="M260 636l62 62h113l-123 -152h-104l-121 152h113zM135 8.5q-56 19.5 -107 61.5l80 93q79 -58 161 -58q35 0 51.5 9.5t16.5 31.5q0 18 -13 25q-9 6 -50 11l-55 7q-79 8 -121 46.5t-42 104.5q0 72 54.5 114t150.5 42q127 0 211 -66l-73 -91q-68 44 -141 44q-29 0 -42 -8
t-13 -27q0 -17 13 -24q10 -6 48 -11l53 -6q84 -9 125.5 -46t41.5 -104q-1 -78 -60 -123t-163 -45q-70 0 -126 19.5z" />
    <glyph glyph-name="uni0162" unicode="&#x162;" horiz-adv-x="562" 
d="M361 537v-537h-161v537h-185v143h531v-143h-185zM346 -48v-108l-132 -109v217h132z" />
    <glyph glyph-name="uni0163" unicode="&#x163;" horiz-adv-x="336" 
d="M234 -6q-88 0 -126 40t-38 131v209h-45v111h45v160h152v-160h77v-111h-77v-202q0 -27 10 -38t34 -11h33v-129h-65zM256 -48v-108l-131 -109v217h131z" />
    <glyph glyph-name="Tcaron" unicode="&#x164;" horiz-adv-x="562" 
d="M455 893l-123 -152h-104l-121 152h113l60 -62l62 62h113zM361 537v-537h-161v537h-185v143h531v-143h-185z" />
    <glyph glyph-name="tcaron" unicode="&#x165;" horiz-adv-x="352" 
d="M402 601l-131 -109v188h131v-79zM222 645v-160h77v-111h-77v-202q0 -27 10 -38t34 -11h33v-129h-65q-88 0 -126 40t-38 131v209h-45v111h45v160h152z" />
    <glyph glyph-name="Tbar" unicode="&#x166;" horiz-adv-x="562" 
d="M363 306v-306h-162v306h-99v113h99v118h-185v143h532v-143h-185v-118h99v-113h-99z" />
    <glyph glyph-name="tbar" unicode="&#x167;" horiz-adv-x="336" 
d="M234 -6q-88 0 -126 40t-38 131v68h-35v90h35v51h-45v111h45v145h152v-145h77v-111h-77v-51h65v-90h-65v-61q0 -27 10 -38t34 -11h33v-129h-65z" />
    <glyph glyph-name="Utilde" unicode="&#x168;" horiz-adv-x="646" 
d="M310 765q-32 18 -59 18q-18 0 -40 -10t-42 -28v99q17 21 40 33t47 12q35 0 79 -21q33 -18 59 -18q19 0 41.5 10.5t42.5 28.5v-99q-15 -21 -39.5 -33.5t-49.5 -12.5q-35 0 -79 21zM219 249q0 -55 28.5 -86.5t76.5 -31.5t75.5 31.5t27.5 86.5v431h162v-424
q0 -126 -70.5 -196.5t-194.5 -70.5q-127 0 -196.5 69t-69.5 198v424h161v-431z" />
    <glyph glyph-name="utilde" unicode="&#x169;" horiz-adv-x="552" 
d="M262 571q-32 18 -59 18q-17 0 -39.5 -10.5t-42.5 -27.5v98q17 21 41 33.5t46 12.5q36 0 79 -22q33 -18 59 -18q19 0 41.5 10.5t42.5 28.5v-99q-15 -21 -39.5 -33.5t-49.5 -12.5q-36 0 -79 22zM340 46q-42 -57 -125 -57q-77 0 -119 48t-42 133v315h154v-288q0 -37 17 -58
t49 -21t49 21t17 59v287h154v-485h-154v46z" />
    <glyph glyph-name="Umacron" unicode="&#x16a;" horiz-adv-x="646" 
d="M480 869v-103h-313v103h313zM219 249q0 -55 28.5 -86.5t76.5 -31.5t75.5 31.5t27.5 86.5v431h162v-424q0 -126 -70.5 -196.5t-194.5 -70.5q-127 0 -196.5 69t-69.5 198v424h161v-431z" />
    <glyph glyph-name="umacron" unicode="&#x16b;" horiz-adv-x="552" 
d="M432 673v-104h-313v104h313zM340 46q-42 -57 -125 -57q-77 0 -119 48t-42 133v315h154v-288q0 -37 17 -58t49 -21t49 21t17 59v287h154v-485h-154v46z" />
    <glyph glyph-name="Ubreve" unicode="&#x16c;" horiz-adv-x="646" 
d="M240.5 758q-36.5 19 -56.5 53q-19 33 -18 75h83q13 -51 74 -51q60 0 73 51h85q-1 -66 -45 -106.5t-113 -40.5q-46 0 -82.5 19zM127.5 58q-69.5 69 -69.5 198v424h161v-431q0 -55 28.5 -86.5t76.5 -31.5t75.5 31.5t27.5 86.5v431h162v-424q0 -126 -70.5 -196.5
t-194.5 -70.5q-127 0 -196.5 69z" />
    <glyph glyph-name="ubreve" unicode="&#x16d;" horiz-adv-x="552" 
d="M202 689q14 -51 73 -51q61 0 74 51h84q0 -66 -44 -106.5t-114 -40.5q-45 0 -82 19t-57 53q-20 35 -17 75h83zM340 46q-42 -57 -125 -57q-77 0 -119 48t-42 133v315h154v-288q0 -37 17 -58t49 -21t49 21t17 59v287h154v-485h-154v46z" />
    <glyph glyph-name="Uring" unicode="&#x16e;" horiz-adv-x="646" 
d="M434 820q0 -23 -9 -44.5t-24 -36.5q-32 -32 -78 -32q-45 0 -80 32q-32 35 -32 80q0 46 32 78q16 15 37 23t43 8q47 0 78 -31q33 -30 33 -77zM367 818q0 20 -12 33t-33 13q-25 0 -39 -21q-6 -13 -6 -27q0 -12 6.5 -22.5t16.5 -16.5q11 -6 22 -6q25 0 39 23q6 11 6 24z
M219 249q0 -55 28.5 -86.5t76.5 -31.5t75.5 31.5t27.5 86.5v431h162v-424q0 -126 -70.5 -196.5t-194.5 -70.5q-127 0 -196.5 69t-69.5 198v424h161v-431z" />
    <glyph glyph-name="uring" unicode="&#x16f;" horiz-adv-x="552" 
d="M380 631q0 -22 -8.5 -42.5t-24.5 -36.5q-31 -31 -78 -31q-46 0 -80 31q-15 15 -23.5 36t-8.5 43q0 46 32 78t80 32q22 0 43 -8.5t35 -23.5q33 -28 33 -78zM314 632q0 31 -25 43q-7 4 -20 4q-21 0 -33.5 -13.5t-12.5 -34.5t13 -34t32 -13q24 0 37 19q9 12 9 29zM494 0
h-154v46q-42 -57 -125 -57q-77 0 -119 48t-42 133v315h154v-288q0 -37 17 -58t49 -21t49 21t17 59v287h154v-485z" />
    <glyph glyph-name="Uhungarumlaut" unicode="&#x170;" horiz-adv-x="646" 
d="M373 887l-94 -154h-113l78 154h129zM550 887l-93 -154h-113l78 154h128zM219 249q0 -55 28.5 -86.5t76.5 -31.5t75.5 31.5t27.5 86.5v431h162v-424q0 -126 -70.5 -196.5t-194.5 -70.5q-127 0 -196.5 69t-69.5 198v424h161v-431z" />
    <glyph glyph-name="uhungarumlaut" unicode="&#x171;" horiz-adv-x="552" 
d="M334 700l-93 -154h-113l78 154h128zM512 700l-94 -154h-113l78 154h129zM340 46q-42 -57 -125 -57q-77 0 -119 48t-42 133v315h154v-288q0 -37 17 -58t49 -21t49 21t17 59v287h154v-485h-154v46z" />
    <glyph glyph-name="Uogonek" unicode="&#x172;" horiz-adv-x="646" 
d="M589 680v-424q0 -104 -49.5 -171.5t-140.5 -87.5q-32 -12 -46 -25t-14 -31q0 -16 12 -20q11 -6 42 -5l-2 -96q-87 -1 -129 22t-42 74q0 26 9 44t31 34q-97 17 -149.5 84.5t-52.5 177.5v424h161v-431q0 -55 28.5 -86.5t76.5 -31.5t75.5 31.5t27.5 86.5v431h162z" />
    <glyph glyph-name="uogonek" unicode="&#x173;" horiz-adv-x="553" 
d="M494 485v-485h-1q-45 -14 -60 -27q-15 -14 -15 -32q0 -16 12 -20q11 -6 41 -5l-1 -96q-86 -1 -128.5 21.5t-43.5 72.5q0 32 8.5 50.5t32.5 35.5h1v46q-42 -57 -125 -57q-77 0 -119 48t-42 133v315h154v-288q0 -37 17 -58t49 -21t49 21t17 59v287h154z" />
    <glyph glyph-name="Wcircumflex" unicode="&#x174;" horiz-adv-x="884" 
d="M495 898l124 -154h-113l-62 63l-59 -63h-115l122 154h103zM880 680l-186 -680h-133l-116 415l-117 -415h-132l-187 680h168l96 -425l114 425h115l119 -425l92 425h167z" />
    <glyph glyph-name="wcircumflex" unicode="&#x175;" horiz-adv-x="768" 
d="M439 702l123 -154h-113l-62 62l-59 -62h-115l122 154h104zM759 485l-162 -485h-127l-82 281l-85 -281h-125l-163 485h158l78 -287l82 287h112l82 -287l74 287h158z" />
    <glyph glyph-name="Ycircumflex" unicode="&#x176;" horiz-adv-x="584" 
d="M120 744l122 154h103l124 -154h-113l-62 63l-59 -63h-115zM298 427l124 253h162l-208 -412v-268h-161v268l-208 412h166z" />
    <glyph glyph-name="ycircumflex" unicode="&#x177;" horiz-adv-x="518" 
d="M89 548l122 154h104l123 -154h-113l-62 62l-59 -62h-115zM309 -47q-29 -74 -68 -103.5t-108 -29.5h-45v127h32q26 0 41 10.5t22 35.5l13 34l-186 458h163l95 -275l87 275h160z" />
    <glyph glyph-name="Ydieresis" unicode="&#x178;" horiz-adv-x="584" 
d="M134 756v123h119v-123h-119zM339 756v123h118v-123h-118zM298 427l124 253h162l-208 -412v-268h-161v268l-208 412h166z" />
    <glyph glyph-name="Zacute" unicode="&#x179;" horiz-adv-x="553" 
d="M435 890l-118 -153h-124l90 153h152zM515 144v-144h-477v138l290 399h-279v143h466v-138l-291 -398h291z" />
    <glyph glyph-name="zacute" unicode="&#x17a;" horiz-adv-x="492" 
d="M409 702l-117 -153h-125l90 153h152zM224 124h226v-124h-407v116l227 246h-214v123h394v-120z" />
    <glyph glyph-name="Zdotaccent" unicode="&#x17b;" horiz-adv-x="553" 
d="M354 879v-123h-156v123h156zM515 144v-144h-477v138l290 399h-279v143h466v-138l-291 -398h291z" />
    <glyph glyph-name="zdotaccent" unicode="&#x17c;" horiz-adv-x="492" 
d="M328 679v-124h-156v124h156zM224 124h226v-124h-407v116l227 246h-214v123h394v-120z" />
    <glyph glyph-name="Zcaron" unicode="&#x17d;" horiz-adv-x="553" 
d="M277 831l62 62h113l-123 -152h-104l-122 152h113zM515 144v-144h-477v138l290 399h-279v143h466v-138l-291 -398h291z" />
    <glyph glyph-name="zcaron" unicode="&#x17e;" horiz-adv-x="492" 
d="M250 634l62 62h113l-123 -152h-104l-122 152h113zM224 124h226v-124h-407v116l227 246h-214v123h394v-120z" />
    <glyph glyph-name="florin" unicode="&#x192;" 
d="M363 308l-47 -313q-16 -96 -60.5 -135.5t-136.5 -39.5h-44v127h30q31 0 44.5 11.5t17.5 42.5l46 307h-69v113h87l13 86q15 93 60 133t135 40h46v-127h-32q-27 0 -41 -12t-19 -40l-12 -80h83v-113h-101z" />
    <glyph glyph-name="Scommaaccent" unicode="&#x218;" horiz-adv-x="599" 
d="M151 16q-40 14 -73 34.5t-51 41.5l99 113q89 -77 183 -77q47 0 74.5 20t27.5 53q0 29 -21.5 44t-73.5 23l-36 5q-220 30 -220 209q0 96 67 152.5t179 56.5q75 0 133.5 -18.5t111.5 -59.5l-80 -117q-39 27 -81.5 41.5t-81.5 14.5t-61 -17.5t-22 -47.5q0 -28 21.5 -43.5
t74.5 -23.5l36 -5q220 -28 220 -210q0 -66 -32 -114t-94 -75q-61 -27 -147 -27q-78 0 -153 27zM371 -48v-108l-131 -109v217h131z" />
    <glyph glyph-name="scommaaccent" unicode="&#x219;" horiz-adv-x="508" 
d="M135 8.5q-56 19.5 -107 61.5l80 93q79 -58 161 -58q35 0 51.5 9.5t16.5 31.5q0 18 -13 25q-9 6 -50 11l-55 7q-79 8 -121 46.5t-42 104.5q0 72 54.5 114t150.5 42q127 0 211 -66l-73 -91q-68 44 -141 44q-29 0 -42 -8t-13 -27q0 -17 13 -24q10 -6 48 -11l53 -6
q84 -9 125.5 -46t41.5 -104q-1 -78 -60 -123t-163 -45q-70 0 -126 19.5zM331 -48v-108l-131 -109v217h131z" />
    <glyph glyph-name="uni021A" unicode="&#x21a;" horiz-adv-x="562" 
d="M361 537v-537h-161v537h-185v143h531v-143h-185zM347 -48v-108l-131 -109v217h131z" />
    <glyph glyph-name="uni021B" unicode="&#x21b;" horiz-adv-x="336" 
d="M234 -6q-88 0 -126 40t-38 131v209h-45v111h45v160h152v-160h77v-111h-77v-202q0 -27 10 -38t34 -11h33v-129h-65zM256 -48v-108l-131 -109v217h131z" />
    <glyph glyph-name="uni0237" unicode="&#x237;" horiz-adv-x="270" 
d="M-24 -180v127h29q30 0 41.5 11.5t11.5 44.5v482h154v-482q0 -183 -190 -183h-46z" />
    <glyph glyph-name="circumflex" unicode="&#x2c6;" horiz-adv-x="470" 
d="M288 702l123 -154h-113l-62 62l-59 -62h-114l121 154h104z" />
    <glyph glyph-name="caron" unicode="&#x2c7;" horiz-adv-x="470" 
d="M235 634l62 63h113l-123 -153h-104l-122 153h113z" />
    <glyph glyph-name="breve" unicode="&#x2d8;" horiz-adv-x="470" 
d="M162 690q13 -52 73 -52q28 0 47.5 13t26.5 39h84q0 -66 -44 -106.5t-114 -40.5q-45 0 -82 18.5t-57 52.5q-20 35 -17 76h83z" />
    <glyph glyph-name="dotaccent" unicode="&#x2d9;" horiz-adv-x="470" 
d="M313 679v-124h-156v124h156z" />
    <glyph glyph-name="ring" unicode="&#x2da;" horiz-adv-x="470" 
d="M346 631q0 -22 -8.5 -43t-24.5 -36q-31 -31 -78 -31q-46 0 -80 31q-15 15 -23.5 36t-8.5 43q0 46 32 78t80 32q22 0 43 -8.5t35 -23.5q33 -28 33 -78zM280 632q0 31 -25 43q-7 4 -20 4q-21 0 -33.5 -13.5t-12.5 -34.5t13 -34t32 -13q24 0 37 19q9 12 9 29z" />
    <glyph glyph-name="ogonek" unicode="&#x2db;" horiz-adv-x="470" 
d="M304 10q-40 -19 -62 -38q-19 -18 -19 -34t12 -20q11 -6 41 -5l-1 -96q-88 -1 -130 22t-42 74q0 30 14.5 53t46.5 44h140z" />
    <glyph glyph-name="tilde" unicode="&#x2dc;" horiz-adv-x="470" 
d="M221 571q-32 18 -59 18q-17 0 -39.5 -10.5t-42.5 -27.5v98q17 21 41 33.5t46 12.5q36 0 79 -22q33 -18 59 -18q19 0 41.5 10.5t42.5 28.5v-99q-15 -21 -39.5 -33.5t-49.5 -12.5q-36 0 -79 22z" />
    <glyph glyph-name="hungarumlaut" unicode="&#x2dd;" horiz-adv-x="470" 
d="M259 700l-94 -154h-113l78 154h129zM436 700l-93 -154h-113l78 154h128z" />
    <glyph glyph-name="uni0394" unicode="&#x394;" horiz-adv-x="662" 
d="M418 680l236 -680h-641l243 680h162zM335 488l-112 -354h224z" />
    <glyph glyph-name="uni03A9" unicode="&#x3a9;" horiz-adv-x="637" 
d="M46 0v133h64q-33 25 -49 75.5t-16 131.5q0 89 10.5 145.5t34.5 94.5q31 51 88.5 81t140.5 30q95 0 161 -43t93 -124q19 -53 19 -184q0 -87 -16 -135t-52 -72h68v-133h-239v129q31 9 47.5 32.5t22.5 65.5q6 41 6 113q0 86 -6 125q-8 40 -29 61q-26 23 -75 23
q-48 0 -72 -20t-31 -63q-7 -38 -7 -126q0 -74 6 -113.5t22 -62.5q17 -25 47 -35v-129h-238z" />
    <glyph glyph-name="uni03BC" unicode="&#x3bc;" horiz-adv-x="614" 
d="M333.5 9.5q-26.5 -14.5 -77.5 -14.5q-31 0 -45 8v-183h-154v665h154v-286q0 -38 17 -59t49 -21q36 0 56 24.5t20 69.5v272h154v-330q0 -20 7.5 -26t31.5 -6v-129h-24q-43 0 -66 5.5t-39 20.5q-16 13 -36 45q-21 -41 -47.5 -55.5z" />
    <glyph glyph-name="pi" unicode="&#x3c0;" horiz-adv-x="611" 
d="M520 -6q-82 0 -119 38t-37 123v199h-125v-354h-152v354h-57v131h541v-131h-54v-190q0 -23 7 -32t24 -9h11v-129h-39z" />
    <glyph glyph-name="Wgrave" unicode="&#x1e80;" horiz-adv-x="884" 
d="M420 890l89 -154h-127l-114 153zM880 680l-186 -680h-133l-116 415l-117 -415h-132l-187 680h168l96 -425l114 425h115l119 -425l92 425h167z" />
    <glyph glyph-name="wgrave" unicode="&#x1e81;" horiz-adv-x="768" 
d="M360 702l89 -153h-125l-116 153h152zM759 485l-162 -485h-127l-82 281l-85 -281h-125l-163 485h158l78 -287l82 287h112l82 -287l74 287h158z" />
    <glyph glyph-name="Wacute" unicode="&#x1e82;" horiz-adv-x="884" 
d="M628 890l-118 -153h-124l90 153h152zM880 680l-186 -680h-133l-116 415l-117 -415h-132l-187 680h168l96 -425l114 425h115l119 -425l92 425h167z" />
    <glyph glyph-name="wacute" unicode="&#x1e83;" horiz-adv-x="768" 
d="M567 702l-117 -153h-125l90 153h152zM759 485l-162 -485h-127l-82 281l-85 -281h-125l-163 485h158l78 -287l82 287h112l82 -287l74 287h158z" />
    <glyph glyph-name="Wdieresis" unicode="&#x1e84;" horiz-adv-x="884" 
d="M283 756v123h119v-123h-119zM488 756v123h118v-123h-118zM621 255l92 425h167l-186 -680h-133l-116 415l-117 -415h-132l-187 680h168l96 -425l114 425h115z" />
    <glyph glyph-name="wdieresis" unicode="&#x1e85;" horiz-adv-x="768" 
d="M225 555v124h118v-124h-118zM429 555v124h119v-124h-119zM527 198l74 287h158l-162 -485h-127l-82 281l-85 -281h-125l-163 485h158l78 -287l82 287h112z" />
    <glyph glyph-name="Ygrave" unicode="&#x1ef2;" horiz-adv-x="584" 
d="M285 890l89 -154h-126l-115 153zM298 427l124 253h162l-208 -412v-268h-161v268l-208 412h166z" />
    <glyph glyph-name="ygrave" unicode="&#x1ef3;" horiz-adv-x="518" 
d="M213 549l-116 153h152l89 -153h-125zM309 -47q-29 -74 -68 -103.5t-108 -29.5h-45v127h32q26 0 41 10.5t22 35.5l13 34l-187 458h164l95 -275l87 275h160z" />
    <glyph glyph-name="uni2010" unicode="&#x2010;" horiz-adv-x="396" 
d="M355 332v-134h-314v134h314z" />
    <glyph glyph-name="endash" unicode="&#x2013;" horiz-adv-x="543" 
d="M20 330h503v-129h-503v129z" />
    <glyph glyph-name="emdash" unicode="&#x2014;" horiz-adv-x="908" 
d="M20 330h868v-129h-868v129z" />
    <glyph glyph-name="quoteleft" unicode="&#x2018;" horiz-adv-x="235" 
d="M54 487v120l128 97v-217h-128z" />
    <glyph glyph-name="quoteright" unicode="&#x2019;" horiz-adv-x="235" 
d="M182 680v-134l-128 -97v231h128z" />
    <glyph glyph-name="quotesinglbase" unicode="&#x201a;" horiz-adv-x="235" 
d="M182 128v-135l-128 -96v231h128z" />
    <glyph glyph-name="quotedblleft" unicode="&#x201c;" horiz-adv-x="428" 
d="M54 472v135l128 97v-232h-128zM246 472v135l128 97v-232h-128z" />
    <glyph glyph-name="quotedblright" unicode="&#x201d;" horiz-adv-x="428" 
d="M54 449v231h128v-134zM246 449v231h128v-134z" />
    <glyph glyph-name="quotedblbase" unicode="&#x201e;" horiz-adv-x="428" 
d="M54 -104v232h128v-135zM246 -104v232h128v-135z" />
    <glyph glyph-name="dagger" unicode="&#x2020;" horiz-adv-x="555" 
d="M353 331v-511h-151v511h-160v135h160v214h151v-214h160v-135h-160z" />
    <glyph glyph-name="daggerdbl" unicode="&#x2021;" horiz-adv-x="555" 
d="M353 -1v-179h-151v179h-160v136h160v230h-160v136h160v179h151v-179h160v-136h-160v-230h160v-136h-160z" />
    <glyph glyph-name="bullet" unicode="&#x2022;" horiz-adv-x="484" 
d="M129 195.5q-43 42.5 -43 112.5t42.5 113.5t112.5 43.5q68 0 112.5 -44t44.5 -113t-43 -112t-114 -43q-69 0 -112 42.5z" />
    <glyph glyph-name="ellipsis" unicode="&#x2026;" horiz-adv-x="786" 
d="M206 149v-149h-149v149h149zM468 149v-149h-149v149h149zM730 149v-149h-149v149h149z" />
    <glyph glyph-name="perthousand" unicode="&#x2030;" horiz-adv-x="1160" 
d="M269 -11h-113l407 702h113zM117 352q-35 22 -48 61q-10 21 -10 96q0 76 10 96q13 40 47.5 61.5t84.5 21.5t84.5 -21.5t48.5 -61.5q9 -25 9 -96q0 -70 -12 -103t-45 -54q-34 -22 -85 -22q-49 0 -84 22zM232 433q4 7 4 76t-4 76q-6 21 -31 21q-24 0 -30 -21q-4 -7 -4 -76
t4 -76q6 -20 30 -20q25 0 31 20zM488 170q0 72 11.5 104t45.5 54q35 21 84 21q50 0 84.5 -21.5t48.5 -61.5q9 -33 9 -96q0 -61 -9 -94q-14 -41 -48.5 -63t-84.5 -22q-49 0 -83.5 22t-48.5 63q-9 24 -9 94zM816 170q0 76 10 96q12 39 47 61t85 22t84 -21.5t47 -61.5
q11 -36 11 -96q0 -67 -12.5 -101t-45.5 -55q-35 -23 -84 -23q-50 0 -85.5 22t-47.5 62q-9 26 -9 95zM629 74q25 0 31 21q4 7 4 75q0 69 -4 76q-6 21 -31 21t-31 -21q-3 -10 -3 -76t3 -75q6 -21 31 -21zM958 74q25 0 31 21q4 8 4 75t-4 76q-3 10 -11.5 15.5t-19.5 5.5
q-26 0 -32 -21q-3 -12 -3 -76t3 -75q6 -21 32 -21z" />
    <glyph glyph-name="guilsinglleft" unicode="&#x2039;" horiz-adv-x="321" 
d="M270 172v-151l-245 243l245 243v-151l-94 -92z" />
    <glyph glyph-name="guilsinglright" unicode="&#x203a;" horiz-adv-x="321" 
d="M59 506l246 -242l-246 -243v150l93 93l-93 92v150z" />
    <glyph glyph-name="uni203D" unicode="&#x203d;" horiz-adv-x="477" 
d="M345 668q47 -23 72 -65q25 -40 25 -93q0 -73 -58 -149l-78 -103v-54h-146l-27 264h134l-1 -81l21 36q18 38 18 66q0 40 -18 58.5t-55 18.5q-26 0 -42.5 -11t-27.5 -37l-130 29q20 144 204 144q62 0 109 -23zM157 0v140h150v-140h-150z" />
    <glyph glyph-name="fraction" unicode="&#x2044;" horiz-adv-x="170" 
d="M351 691l-407 -702h-115l408 702h114z" />
    <glyph glyph-name="Euro" unicode="&#x20ac;" 
d="M181 27q-57 38 -78 106q-14 48 -14 104h-52v84h52v42h-52v84h52q0 73 22 124t70 83q55 37 138 37q75 0 127.5 -32t84.5 -98l-127 -58q-31 61 -82 61q-45 0 -61 -28.5t-16 -88.5h175l-13 -84h-162v-42h156l-14 -84h-142q0 -45 7.5 -69t25.5 -38q20 -14 44 -14q51 0 83 62
l126 -58q-60 -131 -212 -131q-81 0 -138 38z" />
    <glyph glyph-name="uni2105" unicode="&#x2105;" horiz-adv-x="830" 
d="M159 -11l407 702h114l-407 -702h-114zM344 607l-84 -42q-6 16 -17.5 25.5t-24.5 9.5q-15 0 -26 -8t-15 -23q-5 -20 -5 -56q0 -40 3 -60q2 -21 12 -30.5t31 -9.5q16 0 26 9t16 30l85 -41q-36 -81 -132 -81q-55 0 -92.5 24t-53.5 69q-10 23 -10 91q0 57 14.5 91t49.5 57
q38 24 92 24q97 0 131 -79zM725.5 323.5q39.5 -26.5 50.5 -68.5q9 -36 9 -85q0 -60 -15 -98t-48 -59q-37 -24 -88 -24q-52 0 -89.5 25.5t-50.5 68.5q-12 41 -12 87q0 56 14.5 93.5t47.5 60.5q38 26 90 26t91.5 -26.5zM593 224q0 -16 -1 -20l-2 -34q0 -42 6 -62q3 -15 13 -23
t25 -8q27 0 34 22q6 21 6 71q0 42 -4 54q-5 38 -38 38q-31 0 -39 -38z" />
    <glyph glyph-name="uni2113" unicode="&#x2113;" horiz-adv-x="469" 
d="M29 213l96 71v185q0 109 42 165.5t125 56.5q67 0 107 -41t40 -113q0 -70 -45 -146t-131 -152v-82q0 -48 39 -48q31 0 62 30l59 -86q-64 -64 -151 -64q-74 0 -110.5 39.5t-36.5 120.5v6l-36 -26zM263 389q64 70 64 150q0 49 -29 49q-18 0 -26 -21q-9 -21 -9 -72v-106z" />
    <glyph glyph-name="uni2117" unicode="&#x2117;" horiz-adv-x="804" 
d="M401 -11q-99 0 -179 45t-126 126q-46 79 -46 180q0 98 46.5 178.5t127.5 126.5q79 46 177 46t179 -45.5t128 -126.5q46 -79 46 -179q0 -152 -101 -251q-100 -100 -252 -100zM401 71q76 0 137 34.5t96 96.5q34 61 34 138q0 76 -35 137.5t-96 97.5q-61 34 -136 34t-135 -34
t-95 -96t-35 -139q0 -117 76 -192q75 -77 189 -77zM255 529h171q160 0 160 -134q0 -147 -160 -147h-50v-111h-121v392zM405 341q39 0 56.5 11t17.5 37q0 23 -19 35t-55 12h-29v-95h29z" />
    <glyph glyph-name="trademark" unicode="&#x2122;" horiz-adv-x="845" 
d="M249 591v-305h-104v305h-110v89h322v-89h-108zM794 680v-394h-94v206l-65 -150h-67l-65 150v-206h-95v394h95l100 -221l97 221h94z" />
    <glyph glyph-name="uni2126" unicode="&#x2126;" horiz-adv-x="637" 
d="M480 648q66 -43 93 -124q19 -53 19 -184q0 -87 -16 -135t-52 -72h68v-133h-239v129q31 9 47.5 32.5t22.5 65.5q6 41 6 113q0 86 -6 125q-8 40 -29 61q-26 23 -75 23q-48 0 -72 -20t-31 -63q-7 -38 -7 -126q0 -74 6 -113.5t22 -62.5q17 -25 47 -35v-129h-238v133h64
q-33 25 -49 75.5t-16 131.5q0 89 10.5 145.5t34.5 94.5q31 51 88.5 81t140.5 30q95 0 161 -43z" />
    <glyph glyph-name="estimated" unicode="&#x212e;" horiz-adv-x="580" 
d="M166.5 22.5q-54.5 33.5 -84.5 93.5q-30 59 -30 128q0 70 30 127.5t84 91.5q54 33 123 33q107 0 171 -70q67 -70 68 -182h-371v-168q52 -52 132 -52q110 0 177 111l33 -21q-46 -69 -92.5 -97t-117.5 -28q-68 0 -122.5 33.5zM423 410q-58 57 -134 57q-78 0 -132 -57v-133
h266v133z" />
    <glyph glyph-name="partialdiff" unicode="&#x2202;" horiz-adv-x="551" 
d="M138 15.5q-49 26.5 -75 74.5q-26 47 -26 109q0 63 26.5 113.5t74.5 78.5q46 28 110 28q75 0 121 -43q-2 91 -34 139.5t-91 48.5q-24 0 -53 -12t-53 -32l-68 100q42 37 87 54t98 17q123 0 191 -87t68 -246q0 -108 -30 -190.5t-87 -129.5q-58 -49 -147 -49q-63 0 -112 26.5
zM362 265q-39 33 -93 33q-41 0 -65 -25.5t-24 -71.5q0 -37 22.5 -60.5t57.5 -23.5q86 0 102 148z" />
    <glyph glyph-name="uni2206" unicode="&#x2206;" horiz-adv-x="662" 
d="M418 680l236 -680h-641l243 680h162zM335 488l-112 -354h224z" />
    <glyph glyph-name="product" unicode="&#x220f;" horiz-adv-x="669" 
d="M605 740v-920h-161v777h-219v-777h-161v920h541z" />
    <glyph glyph-name="summation" unicode="&#x2211;" horiz-adv-x="547" 
d="M517 -37v-143h-486v135l172 362l-168 283v140h472v-143h-290l158 -270l-172 -364h314z" />
    <glyph glyph-name="minus" unicode="&#x2212;" 
d="M49 340h462v-128h-462v128z" />
    <glyph glyph-name="uni2215" unicode="&#x2215;" horiz-adv-x="170" 
d="M351 691l-407 -702h-115l408 702h114z" />
    <glyph glyph-name="uni2219" unicode="&#x2219;" horiz-adv-x="263" 
d="M206 340v-149h-149v149h149z" />
    <glyph glyph-name="radical" unicode="&#x221a;" horiz-adv-x="653" 
d="M652 740l-256 -920h-124l-128 259l-72 -35l-48 96l187 90l107 -225l194 735h140z" />
    <glyph glyph-name="infinity" unicode="&#x221e;" horiz-adv-x="748" 
d="M373 168q-87 -90 -176 -90q-74 0 -120 46.5t-46 121.5q0 48 21.5 86.5t60.5 60.5q37 22 86 22q81 0 175 -94q51 51 91 72.5t85 21.5q75 0 121.5 -46t46.5 -123q0 -48 -21.5 -86.5t-59.5 -59.5q-37 -22 -86 -22q-86 0 -178 90zM245 192q21 15 59 54q-36 39 -58 55
q-22 15 -43 15q-30 0 -48 -19t-18 -49q0 -31 18 -50.5t48 -19.5q20 0 42 14zM593 197.5q18 19.5 18 50.5q0 30 -18 49t-48 19q-19 0 -42 -15q-22 -16 -60 -54q37 -40 58 -54.5t44 -14.5q30 0 48 19.5z" />
    <glyph glyph-name="integral" unicode="&#x222b;" horiz-adv-x="423" 
d="M44 -175v127q28 -5 42 -5q25 0 37 16.5t12 54.5v512q0 111 43 160.5t138 49.5q26 0 63 -5v-128q-17 6 -39 6q-28 0 -39.5 -16t-11.5 -54v-512q0 -112 -43 -161.5t-139 -49.5q-28 0 -63 5z" />
    <glyph glyph-name="approxequal" unicode="&#x2248;" 
d="M300 435q37 -25 64 -25q41 0 66 58l94 -59q-22 -53 -63 -85t-87 -32q-50 0 -106 35q-37 25 -64 25q-20 0 -37.5 -15t-29.5 -43l-92 58q23 54 63.5 86t86.5 32q52 0 105 -35zM300 223q37 -25 64 -25q41 0 66 57l94 -58q-22 -53 -63 -85t-87 -32q-51 0 -106 34
q-37 25 -64 25q-20 0 -37.5 -15t-29.5 -43l-92 59q23 54 63.5 86t86.5 32q52 0 105 -35z" />
    <glyph glyph-name="notequal" unicode="&#x2260;" 
d="M310 233h201v-128h-262l-53 -108h-105l53 108h-95v128h157l43 87h-200v128h263l52 107h105l-53 -107h95v-128h-158z" />
    <glyph glyph-name="lessequal" unicode="&#x2264;" 
d="M511 301v-138l-462 177v113l462 177v-138l-268 -96zM49 128h462v-128h-462v128z" />
    <glyph glyph-name="greaterequal" unicode="&#x2265;" 
d="M511 453v-113l-462 -177v139l268 94l-268 96v138zM49 128h462v-128h-462v128z" />
    <glyph glyph-name="lozenge" unicode="&#x25ca;" horiz-adv-x="564" 
d="M531 329l-182 -381h-128l-182 381l182 381h128zM285 569l-105 -240l106 -240l103 240z" />
    <glyph glyph-name="f_i" unicode="&#xf001;" horiz-adv-x="615" 
d="M78 374h-45v111h45v25q0 90 41 130t134 40h70v-121h-41q-30 0 -41 -10.5t-11 -37.5v-26h92v-111h-92v-374h-152v374zM557 680v-125h-154v125h154zM557 485v-485h-154v485h154z" />
    <glyph glyph-name="f_l" unicode="&#xf002;" horiz-adv-x="655" 
d="M78 374h-45v111h45v25q0 90 41 130t134 40h70v-121h-41q-29 0 -40.5 -10t-11.5 -38v-26h92v-111h-92v-374h-152v374zM560 -6q-85 0 -122 38t-37 124v524h154v-510q0 -47 42 -47h30v-129h-67z" />
    <glyph glyph-name="uniF8FF" unicode="&#xf8ff;" horiz-adv-x="518" 
d="M518 0h-518v680h518v-680zM444 610h-370v-540h370v540zM203 280q0 28 20 54l43 55q24 30 24 51q0 17 -10.5 28t-26.5 11q-39 0 -48 -46l-89 13q8 57 44.5 87t96.5 30q57 0 94 -33.5t37 -84.5q0 -48 -35 -86l-42 -55q-13 -16 -13 -36v-22h-95v34zM300 114h-98v91h98v-91z
" />
    <glyph glyph-name="f_f" unicode="&#xfb00;" horiz-adv-x="689" 
d="M78 374h-45v111h45v25q0 90 41 130t134 40h70v-121h-41q-30 0 -41 -9.5t-11 -38.5v-26h92v-111h-92v-374h-152v374zM422 374h-45v111h45v25q0 90 42 130t133 40h71v-121h-41q-30 0 -41 -10.5t-11 -37.5v-26h91v-111h-91v-374h-153v374z" />
    <glyph glyph-name="fi" unicode="&#xfb01;" horiz-adv-x="615" 
d="M78 374h-45v111h45v25q0 90 41 130t134 40h70v-121h-41q-30 0 -41 -8q-11 -14 -11 -40v-26h92v-111h-92v-374h-152v374zM557 680v-125h-154v125h154zM557 485v-485h-154v485h154z" />
    <glyph glyph-name="fl" unicode="&#xfb02;" horiz-adv-x="655" 
d="M78 374h-45v111h45v25q0 90 41 130t134 40h70v-121h-41q-30 0 -41 -10t-11 -38v-26h92v-111h-92v-374h-152v374zM560 -6q-85 0 -122 38t-37 124v524h154v-510q0 -47 42 -47h30v-129h-67z" />
    <glyph glyph-name="f_f_i" unicode="&#xfb03;" horiz-adv-x="959" 
d="M78 374h-45v111h45v25q0 90 41 130t134 40h70v-121h-41q-30 0 -41 -10t-11 -38v-26h92v-111h-92v-374h-152v374zM422 374h-45v111h45v25q0 90 42 130t133 40h71v-121h-41q-26 0 -40 -8q-12 -10 -12 -40v-26h91v-111h-91v-374h-153v374zM901 680v-125h-154v125h154z
M901 485v-485h-154v485h154z" />
    <glyph glyph-name="f_f_l" unicode="&#xfb04;" horiz-adv-x="1000" 
d="M78 374h-45v111h45v25q0 90 41 130t134 40h70v-121h-41q-29 0 -40.5 -10t-11.5 -38v-26h92v-111h-92v-374h-152v374zM422 374h-45v111h45v25q0 90 42 130t133 40h71v-121h-41q-23 0 -33.5 -4.5t-14.5 -14.5q-4 -7 -4 -29v-26h91v-111h-91v-374h-153v374zM904 -6
q-85 0 -122 38t-37 124v524h154v-510q0 -47 42 -47h31v-129h-68z" />
    </font>
</defs>
</svg>
