<?xml version="1.0" standalone="no"?>
<!DOCTYPE svg PUBLIC "-//W3C//DTD SVG 1.1//EN" "http://www.w3.org/Graphics/SVG/1.1/DTD/svg11.dtd" >
<svg xmlns="http://www.w3.org/2000/svg" xmlns:xlink="http://www.w3.org/1999/xlink" version="1.1">
<metadata>
Created by FontForge 20170731 at Tue Oct 31 13:00:26 2017
 By Aleksey,,,
</metadata>
<defs>
<font id="AlJazeera-Latin-60DemiBold" horiz-adv-x="553" >
  <font-face 
    font-family="Al Jazeera-Latin 60 Demi Bold"
    font-weight="400"
    font-stretch="normal"
    units-per-em="1000"
    panose-1="0 0 7 0 0 0 0 0 0 0"
    ascent="781"
    descent="-219"
    x-height="483"
    cap-height="680"
    bbox="-164 -252 1053 923"
    underline-thickness="50"
    underline-position="-150"
    unicode-range="U+000D-FB04"
  />
<missing-glyph horiz-adv-x="495" 
d="M495 0h-495v680h495v-680zM431 620h-367v-560h367v560zM196 274q0 30 18 55l48 65q22 28 22 52q0 20 -12.5 33t-31.5 13q-22 0 -35 -12t-20 -41l-76 13q9 54 44 82.5t90 28.5q54 0 88.5 -32.5t34.5 -82.5q0 -43 -29 -78l-47 -66q-13 -16 -13 -39v-25h-81v34zM279 114h-85
v83h85v-83z" />
    <glyph glyph-name=".notdef" horiz-adv-x="495" 
d="M495 0h-495v680h495v-680zM431 620h-367v-560h367v560zM196 274q0 30 18 55l48 65q22 28 22 52q0 20 -12.5 33t-31.5 13q-22 0 -35 -12t-20 -41l-76 13q9 54 44 82.5t90 28.5q54 0 88.5 -32.5t34.5 -82.5q0 -43 -29 -78l-47 -66q-13 -16 -13 -39v-25h-81v34zM279 114h-85
v83h85v-83z" />
    <glyph glyph-name=".null" horiz-adv-x="0" 
 />
    <glyph glyph-name="nonmarkingreturn" horiz-adv-x="333" 
 />
    <glyph glyph-name="NULL" horiz-adv-x="500" 
 />
    <glyph glyph-name="NULL" horiz-adv-x="500" 
 />
    <glyph glyph-name="CR.001" unicode="&#xd;" horiz-adv-x="167" 
 />
    <glyph glyph-name="space" unicode=" " horiz-adv-x="236" 
 />
    <glyph glyph-name="exclam" unicode="!" horiz-adv-x="310" 
d="M225 680l-25 -485h-89l-25 485h139zM220 0h-130v128h130v-128z" />
    <glyph glyph-name="quotedbl" unicode="&#x22;" horiz-adv-x="360" 
d="M150 680v-200h-90v200h90zM300 680v-200h-90v200h90z" />
    <glyph glyph-name="numbersign" unicode="#" horiz-adv-x="531" 
d="M339 489l26 191h96l-26 -191h77v-89h-89l-15 -109h78v-88h-90l-27 -203h-96l27 203h-110l-27 -203h-96l27 203h-75v88h87l15 109h-76v89h88l26 191h96l-26 -191h110zM202 291h110l15 109h-110z" />
    <glyph glyph-name="dollar" unicode="$" 
d="M460 62q-49 -56 -137 -69v-68h-63v65q-120 6 -205 79l74 92q30 -28 61.5 -42t69.5 -17v187q-87 14 -136 65t-49 129q0 83 50.5 139.5t134.5 66.5v66h63v-66q48 -5 86.5 -19t77.5 -40l-64 -92q-49 31 -100 40v-177q186 -34 186 -197q0 -86 -49 -142zM260 412v163
q-62 -18 -62 -82q0 -61 62 -81zM323 105q63 20 63 94q0 55 -63 77v-171z" />
    <glyph glyph-name="percent" unicode="%" horiz-adv-x="798" 
d="M244 -11h-95l407 702h95zM115.5 352q-33.5 22 -45.5 59q-9 26 -9 98q0 52 4.5 80t16.5 45q10 15 34 32q31 22 79 22q46 0 79.5 -21.5t46.5 -59.5q8 -30 8 -98q0 -50 -4.5 -78.5t-15.5 -46t-34 -32.5q-34 -22 -80 -22t-79.5 22zM224.5 413q8.5 7 11.5 27q2 34 2 69
q0 37 -2 71q-3 19 -11.5 26t-29.5 7t-29.5 -7t-10.5 -27q-3 -19 -3 -70q0 -49 3 -69q2 -20 10.5 -27t29.5 -7t29.5 7zM469 170q0 64 8 98q13 38 46.5 59.5t79.5 21.5t79.5 -21.5t46.5 -59.5q8 -34 8 -98q0 -63 -8 -97q-13 -38 -46.5 -60t-79.5 -22t-79.5 22t-46.5 60
q-8 34 -8 97zM603 67q21 0 29.5 7t11.5 27q2 34 2 69q0 37 -2 71q-3 19 -11.5 26t-29.5 7t-29.5 -7t-10.5 -27q-3 -19 -3 -70q0 -70 4 -77q9 -26 39 -26z" />
    <glyph glyph-name="ampersand" unicode="&#x26;" horiz-adv-x="647" 
d="M373 671q39 -20 62 -55q23 -38 23 -81q0 -27 -8 -49.5t-27 -46.5q-25 -31 -81 -76l97 -125l73 86l78 -65l-86 -104l21 -26q17 -21 40 -21h25v-108h-48q-35 0 -56.5 11.5t-46.5 42.5l-12 15q-83 -80 -176 -80q-89 0 -140.5 49.5t-51.5 133.5q0 57 30 106t97 101
q-47 59 -63 96q-11 35 -11 58q0 44 23.5 81t63.5 58q37 19 87 19q48 0 87 -20zM244.5 577q-16.5 -16 -16.5 -41q0 -29 49 -90q39 31 53.5 50t14.5 40q0 24 -16.5 40.5t-41.5 16.5q-26 0 -42.5 -16zM251 296q-76 -60 -76 -116q0 -38 23 -61t62 -23q27 0 51.5 13t51.5 43z" />
    <glyph glyph-name="quotesingle" unicode="'" horiz-adv-x="209" 
d="M60 480v200h90v-200h-90z" />
    <glyph glyph-name="parenleft" unicode="(" horiz-adv-x="302" 
d="M187 -84q-69 96 -102.5 197t-33.5 215q0 231 135 412h81q-96 -193 -96 -412q0 -222 97 -412h-81z" />
    <glyph glyph-name="parenright" unicode=")" horiz-adv-x="302" 
d="M40 -84q96 189 96 412q0 222 -97 412h82q135 -183 135 -412q0 -232 -135 -412h-81z" />
    <glyph glyph-name="asterisk" unicode="*" horiz-adv-x="351" 
d="M214 474l1 -91h-69l1 91l-78 -47l-34 61l78 44l-78 44l34 61l78 -47l-1 90h69l-1 -90l78 46l34 -60l-78 -44l79 -44l-35 -61z" />
    <glyph glyph-name="plus" unicode="+" 
d="M332 222v-169h-111v169h-168v108h168v169h111v-169h168v-108h-168z" />
    <glyph glyph-name="comma" unicode="," horiz-adv-x="250" 
d="M63 -129v260h124v-138z" />
    <glyph glyph-name="hyphen" unicode="-" horiz-adv-x="389" 
d="M345 321v-111h-301v111h301z" />
    <glyph glyph-name="period" unicode="." horiz-adv-x="256" 
d="M193 131v-131h-130v131h130z" />
    <glyph glyph-name="slash" unicode="/" horiz-adv-x="431" 
d="M387 691l-226 -702h-111l225 702h112z" />
    <glyph glyph-name="zero" unicode="0" 
d="M63 340q0 165 14 215q21 67 71.5 101.5t127.5 34.5t127.5 -34.5t72.5 -101.5q14 -50 14 -215q0 -164 -14 -215q-22 -66 -72.5 -101t-127.5 -35t-127.5 35t-71.5 101q-14 51 -14 215zM276 98q59 0 77 50q8 32 8 192t-8 192q-18 50 -77 50q-58 0 -76 -50q-8 -32 -8 -192
t8 -192q18 -50 76 -50z" />
    <glyph glyph-name="one" unicode="1" 
d="M371 680v-680h-126v535l-119 -82v136l126 91h119z" />
    <glyph glyph-name="two" unicode="2" 
d="M386.5 666.5q46.5 -24.5 71.5 -68.5q25 -43 25 -99q0 -81 -66 -162l-191 -227h257v-110h-413v101l245 298q42 51 42 99q0 38 -22.5 61t-59.5 23q-39 0 -61.5 -23.5t-26.5 -68.5l-118 21q6 83 63 131.5t147 48.5q61 0 107.5 -24.5z" />
    <glyph glyph-name="three" unicode="3" 
d="M425 639.5q55 -51.5 55 -136.5q0 -91 -78 -141q41 -19 66.5 -64t25.5 -102q0 -60 -27.5 -107t-77.5 -73q-49 -27 -113 -27q-85 0 -144 43.5t-74 118.5l118 25q12 -38 37.5 -58t61.5 -20q42 0 67 26.5t25 68.5q0 48 -27.5 75.5t-75.5 27.5h-39v108h37q42 0 67 25t25 67
q0 39 -22.5 62.5t-61.5 23.5q-70 0 -87 -75l-116 24q11 74 67.5 117t140.5 43q95 0 150 -51.5z" />
    <glyph glyph-name="four" unicode="4" horiz-adv-x="578" 
d="M326 0v102h-282v106l218 472h133l-216 -468h147v175h124v-175h63v-110h-63v-102h-124z" />
    <glyph glyph-name="five" unicode="5" 
d="M191 169q23 -71 90 -71q49 0 67.5 28.5t18.5 94.5t-18.5 94t-67.5 28q-58 0 -81 -53h-113v390h391v-109h-278v-152q38 33 104 33q67 0 111.5 -29.5t63.5 -85.5q14 -51 14 -116q0 -74 -20 -121.5t-66 -76.5q-52 -34 -125 -34q-84 0 -140 41.5t-65 112.5z" />
    <glyph glyph-name="six" unicode="6" 
d="M102 363l175 317h132l-155 -281q16 9 51 9q55 0 99.5 -25.5t69.5 -71.5t25 -106q0 -65 -28 -114t-79 -76q-50 -26 -115 -26q-64 0 -115 26t-79 74q-29 50 -29 112q0 75 48 162zM347.5 272.5q-26.5 28.5 -70.5 28.5t-70.5 -28.5t-26.5 -73.5t26.5 -73t70.5 -28t70.5 28
t26.5 73t-26.5 73.5z" />
    <glyph glyph-name="seven" unicode="7" 
d="M489 571l-227 -571h-130l224 569h-163v-90h-118v201h414v-109z" />
    <glyph glyph-name="eight" unicode="8" 
d="M136 357q-31 21 -50 58.5t-19 79.5q0 57 25.5 101.5t73.5 69.5q46 25 110 25q62 0 109.5 -25t74.5 -70q26 -47 26 -101q0 -42 -19 -79.5t-50 -58.5q84 -57 84 -162q0 -60 -28.5 -107t-79.5 -73q-55 -26 -117 -26q-65 0 -115.5 25.5t-79.5 73.5q-29 47 -29 107
q0 104 84 162zM337 435.5q24 24.5 24 60.5q0 37 -23.5 61.5t-61.5 24.5q-37 0 -60.5 -24.5t-23.5 -61.5q0 -36 24 -60.5t60 -24.5q37 0 61 24.5zM204.5 126q26.5 -28 71.5 -28t72 28t27 74q0 45 -27 73.5t-72 28.5t-71.5 -28.5t-26.5 -73.5q0 -46 26.5 -74z" />
    <glyph glyph-name="nine" unicode="9" 
d="M299 282q-19 -10 -51 -10q-53 0 -97.5 26t-70.5 72q-26 47 -26 105q0 65 27.5 114t78 75.5t116.5 26.5q64 0 115.5 -26t79.5 -74q28 -46 28 -112q0 -76 -48 -162l-174 -317h-133zM206 408q26 -28 70 -28q45 0 71 28t26 73t-26 73t-71 28q-44 0 -70 -28t-26 -73t26 -73z
" />
    <glyph glyph-name="colon" unicode=":" horiz-adv-x="265" 
d="M198 483v-130h-130v130h130zM198 0h-130v131h130v-131z" />
    <glyph glyph-name="semicolon" unicode=";" horiz-adv-x="265" 
d="M198 483v-130h-130v130h130zM195 -8l-124 -120v259h124v-139z" />
    <glyph glyph-name="less" unicode="&#x3c;" 
d="M500 168v-118l-447 179v95l447 179v-118l-289 -109z" />
    <glyph glyph-name="equal" unicode="=" 
d="M500 433v-108h-447v108h447zM500 228v-108h-447v108h447z" />
    <glyph glyph-name="greater" unicode="&#x3e;" 
d="M500 324v-95l-447 -179v118l289 108l-289 109v118z" />
    <glyph glyph-name="question" unicode="?" horiz-adv-x="469" 
d="M335.5 668.5q44.5 -22.5 69.5 -62.5t25 -92q0 -35 -6.5 -56t-29.5 -52q-12 -18 -84 -113q-20 -26 -20 -62v-36h-124v51q0 49 27 85l75 99q36 45 36 81q0 32 -20 51.5t-52 19.5q-72 0 -82 -85l-119 18q10 84 64 130t141 46q55 0 99.5 -22.5zM163 0v128h130v-128h-130z" />
    <glyph glyph-name="at" unicode="@" horiz-adv-x="905" 
d="M660 615q92 -50 143 -141t51 -206q0 -99 -46.5 -156.5t-125.5 -57.5q-45 0 -75 15.5t-50 49.5q-33 -64 -134 -64q-64 0 -101 27.5t-47 76.5q-9 44 -9 106q0 68 10.5 109.5t41.5 70.5q33 30 99 30q38 0 66.5 -14t43.5 -40v43h101v-254q0 -32 15 -49.5t40 -17.5
q69 0 69 125q0 140 -82 222q-81 85 -219 85q-90 0 -158.5 -38t-105.5 -107q-37 -70 -37 -163q0 -92 37 -161.5t105 -107.5t159 -38q61 0 114 12t106 39l39 -78q-109 -63 -259 -63q-116 0 -208 50.5t-143 141.5q-51 90 -51 205t51 206t143 142q92 50 208 50q117 0 209 -50z
M386 356.5q-17 -27.5 -17 -91.5q0 -65 17 -92.5t62 -27.5q49 0 64 24t15 69q0 64 -4.5 89.5t-21.5 41.5q-18 15 -53 15q-45 0 -62 -27.5z" />
    <glyph glyph-name="A" unicode="A" horiz-adv-x="631" 
d="M195 136l-45 -136h-135l241 680h129l236 -680h-134l-45 136h-247zM404 251l-86 255l-85 -255h171z" />
    <glyph glyph-name="B" unicode="B" horiz-adv-x="609" 
d="M70 680h269q104 0 159.5 -47t55.5 -134q0 -103 -82 -146q42 -15 68 -57t26 -97q0 -98 -60 -148.5t-175 -50.5h-261v680zM329 400q43 0 68 22.5t25 61.5t-25 62t-68 23h-126v-169h126zM336 112q46 0 71.5 24t25.5 66t-25.5 65.5t-71.5 23.5h-133v-179h133z" />
    <glyph glyph-name="C" unicode="C" horiz-adv-x="575" 
d="M157.5 32q-61.5 43 -87.5 124q-19 50 -19 184q0 136 19 184q26 81 87.5 124t151.5 43q99 0 164 -53t85 -153h-135q-15 47 -42 67.5t-72 20.5q-84 0 -112 -82q-11 -42 -11 -151q0 -108 11 -150q29 -83 112 -83q82 0 109 81h137q-23 -98 -86.5 -148.5t-159.5 -50.5
q-90 0 -151.5 43z" />
    <glyph glyph-name="D" unicode="D" horiz-adv-x="628" 
d="M70 680h258q109 0 163.5 -36.5t70.5 -93t16 -139.5l-1 -71q0 -85 -6 -136t-23 -89q-18 -40 -53 -69q-52 -46 -167 -46h-258v680zM298 119q65 0 97.5 22.5t40.5 68.5q7 38 7 130q0 110 -12 141q-25 81 -133 81h-95v-443h95z" />
    <glyph glyph-name="E" unicode="E" horiz-adv-x="568" 
d="M521 117v-117h-451v680h451v-116h-318v-163h269v-116h-269v-168h318z" />
    <glyph glyph-name="F" unicode="F" horiz-adv-x="559" 
d="M203 278v-278h-133v680h451v-116h-318v-170h269v-116h-269z" />
    <glyph glyph-name="G" unicode="G" horiz-adv-x="628" 
d="M159.5 31.5q-63.5 42.5 -89.5 122.5q-19 51 -19 186q0 94 9.5 149.5t33.5 93.5q30 48 86 78t136 30q103 0 169.5 -53.5t84.5 -152.5h-136q-12 44 -42 66t-76 22q-91 0 -119 -82q-11 -42 -11 -151t11 -151q28 -82 120 -82q43 0 75.5 21t43.5 57q10 29 10 83h-119v108h250
v-67q0 -109 -23.5 -171.5t-82.5 -103.5q-64 -45 -155 -45q-93 0 -156.5 42.5z" />
    <glyph glyph-name="H" unicode="H" horiz-adv-x="658" 
d="M203 284v-284h-133v680h133v-277h252v277h133v-680h-133v284h-252z" />
    <glyph glyph-name="I" unicode="I" horiz-adv-x="273" 
d="M203 680v-680h-133v680h133z" />
    <glyph glyph-name="J" unicode="J" horiz-adv-x="514" 
d="M99 14.5q-52 25.5 -77 67.5l98 75q36 -50 94 -50q51 0 78.5 32.5t27.5 93.5v447h133v-443q0 -118 -64 -183t-178 -65q-60 0 -112 25.5z" />
    <glyph glyph-name="K" unicode="K" horiz-adv-x="639" 
d="M203 190v-190h-133v680h133v-317l247 317h155l-219 -269l236 -411h-152l-171 309z" />
    <glyph glyph-name="L" unicode="L" horiz-adv-x="548" 
d="M525 119v-119h-455v680h133v-561h322z" />
    <glyph glyph-name="M" unicode="M" horiz-adv-x="760" 
d="M190 419v-419h-120v680h127l185 -418l183 418h125v-680h-120v419l-145 -326h-90z" />
    <glyph glyph-name="N" unicode="N" horiz-adv-x="656" 
d="M190 466v-466h-120v680h127l269 -466v466h120v-680h-126z" />
    <glyph glyph-name="O" unicode="O" horiz-adv-x="628" 
d="M159.5 31.5q-63.5 42.5 -89.5 122.5q-19 51 -19 186q0 94 9.5 149.5t33.5 93.5q29 48 85 78t135 30q91 0 154.5 -42t89.5 -122q19 -51 19 -187q0 -92 -9.5 -147.5t-32.5 -93.5q-30 -49 -86 -79.5t-135 -30.5q-91 0 -154.5 42.5zM431 189q11 42 11 151q0 89 -8 139
q-9 47 -37 70.5t-83 23.5q-54 0 -82.5 -24t-37.5 -74q-8 -53 -8 -135q0 -109 11 -151q28 -82 117 -82t117 82z" />
    <glyph glyph-name="P" unicode="P" horiz-adv-x="602" 
d="M70 680h270q66 0 118.5 -27t82.5 -76q29 -50 29 -112q0 -63 -29 -112.5t-81 -76.5q-57 -26 -120 -26h-137v-250h-133v680zM332 367q49 0 77.5 26.5t28.5 71.5t-28.5 72t-77.5 27h-129v-197h129z" />
    <glyph glyph-name="Q" unicode="Q" horiz-adv-x="628" 
d="M534 -55l-79 78q-58 -34 -141 -34q-91 0 -154.5 42.5t-89.5 122.5q-19 51 -19 186q0 94 9.5 149.5t33.5 93.5q29 48 85 78t135 30q91 0 154.5 -42t89.5 -122q19 -51 19 -187q0 -135 -19 -186q-8 -25 -18 -44l79 -77zM361 114l-61 61l86 86l49 -49q7 29 7 128q0 89 -8 139
q-9 47 -37 70.5t-83 23.5q-54 0 -82.5 -24t-37.5 -74q-8 -53 -8 -135q0 -109 11 -151q28 -82 117 -82q32 0 47 7z" />
    <glyph glyph-name="R" unicode="R" horiz-adv-x="622" 
d="M70 680h277q64 0 115 -26t80 -73q29 -50 29 -108q0 -65 -33 -115t-92 -73l145 -285h-150l-128 267h-110v-267h-133v680zM341 383q45 0 71.5 24.5t26.5 65.5t-26.5 66t-71.5 25h-138v-181h138z" />
    <glyph glyph-name="S" unicode="S" horiz-adv-x="591" 
d="M153 15q-34 12 -65 31.5t-54 42.5l82 95q92 -78 190 -78q55 0 87 24.5t32 65.5q0 36 -26 56t-88 29l-36 5q-210 29 -210 199q0 95 64.5 150.5t170.5 55.5q70 0 126.5 -18t106.5 -57l-65 -99q-40 27 -84.5 42t-84.5 15q-47 0 -73 -22.5t-26 -59.5q0 -34 28 -54.5t87 -29.5
l36 -5q209 -29 209 -201q0 -99 -69.5 -156t-192.5 -57q-73 0 -145 26z" />
    <glyph glyph-name="T" unicode="T" horiz-adv-x="554" 
d="M343 562v-562h-132v562h-191v118h514v-118h-191z" />
    <glyph glyph-name="U" unicode="U" horiz-adv-x="644" 
d="M135.5 57q-68.5 68 -68.5 188v435h132v-436q0 -63 33.5 -100t89.5 -37q57 0 90 36.5t33 100.5v436h133v-435q0 -78 -31.5 -136t-88.5 -89q-58 -31 -136 -31q-118 0 -186.5 68z" />
    <glyph glyph-name="V" unicode="V" horiz-adv-x="580" 
d="M572 680l-220 -680h-118l-220 680h135l147 -479l142 479h134z" />
    <glyph glyph-name="W" unicode="W" horiz-adv-x="846" 
d="M837 680l-176 -680h-107l-128 458l-129 -458h-107l-176 680h132l106 -457l125 457h97l129 -457l103 457h131z" />
    <glyph glyph-name="X" unicode="X" horiz-adv-x="584" 
d="M370 352l211 -352h-148l-137 232l-137 -232h-147l211 352l-196 328h147l123 -207l122 207h147z" />
    <glyph glyph-name="Y" unicode="Y" horiz-adv-x="552" 
d="M346 275v-275h-132v275l-204 405h137l135 -269l135 269h133z" />
    <glyph glyph-name="Z" unicode="Z" horiz-adv-x="539" 
d="M497 119v-119h-454v114l304 448h-293v118h443v-113l-304 -448h304z" />
    <glyph glyph-name="bracketleft" unicode="[" horiz-adv-x="291" 
d="M262 11v-95h-199v824h199v-95h-85v-634h85z" />
    <glyph glyph-name="backslash" unicode="\" horiz-adv-x="431" 
d="M161 691l226 -702h-112l-225 702h111z" />
    <glyph glyph-name="bracketright" unicode="]" horiz-adv-x="291" 
d="M30 645v95h198v-824h-198v95h85v634h-85z" />
    <glyph glyph-name="asciicircum" unicode="^" 
d="M327 680l181 -422h-117l-111 272l-111 -272h-116l180 422h94z" />
    <glyph glyph-name="underscore" unicode="_" horiz-adv-x="506" 
d="M0 -67h506v-77h-506v77z" />
    <glyph glyph-name="grave" unicode="`" horiz-adv-x="438" 
d="M239 701l87 -148h-103l-112 148h128z" />
    <glyph glyph-name="a" unicode="a" horiz-adv-x="526" 
d="M344 45q-41 -56 -136 -56q-74 0 -117.5 39.5t-43.5 108.5q0 75 51 114.5t146 39.5h98v27q0 39 -23.5 56t-79.5 17q-71 0 -118 -39l-51 90q64 52 183 52q113 0 160.5 -40t47.5 -131v-323h-117v45zM342 162v41h-80q-96 0 -96 -60q0 -56 77 -56q99 0 99 75z" />
    <glyph glyph-name="b" unicode="b" horiz-adv-x="548" 
d="M194 437q39 57 129 57q72 0 115 -34t56 -94q11 -60 11 -124q0 -79 -14 -129.5t-50 -85.5q-41 -38 -118 -38q-90 0 -129 58v-47h-126v680h126v-243zM224.5 366.5q-20.5 -18.5 -25.5 -45t-5 -65.5q0 -60 6.5 -90t25.5 -49t60 -19q72 0 86 68q5 37 5 76q0 53 -6.5 79.5
t-24.5 44.5q-19 19 -60 19t-61.5 -18.5z" />
    <glyph glyph-name="c" unicode="c" horiz-adv-x="478" 
d="M63.5 377q20.5 50 69.5 82q53 35 129 35q118 0 181 -91l-90 -68q-36 50 -90 50q-41 0 -61 -17.5t-25.5 -43.5t-5.5 -64q0 -64 6.5 -94.5t25.5 -48.5q19 -19 60 -19q52 0 90 50l90 -69q-30 -44 -77 -67t-104 -23q-76 0 -129.5 35t-74.5 100q-15 45 -15 118q0 85 20.5 135z
" />
    <glyph glyph-name="d" unicode="d" horiz-adv-x="548" 
d="M354 47q-39 -58 -128 -58q-72 0 -115.5 35t-55.5 95q-12 53 -12 123q0 82 13.5 131.5t50.5 83.5q40 37 119 37q88 0 128 -58v244h126v-680h-126v47zM349 166q5 37 5 76q0 53 -6.5 79.5t-24.5 44.5q-19 19 -60 19t-61.5 -18.5t-25.5 -45t-5 -65.5q0 -60 6.5 -90t25.5 -49
t60 -19q72 0 86 68z" />
    <glyph glyph-name="e" unicode="e" horiz-adv-x="524" 
d="M135.5 24.5q-54.5 35.5 -75.5 100.5q-17 59 -17 117q0 80 21.5 132t69.5 85q53 35 128 35q76 0 129.5 -35.5t73.5 -98.5q18 -50 16 -157h-312q0 -24 7 -38q23 -69 104 -69q74 0 119 52l77 -70q-77 -89 -208 -89q-78 0 -132.5 35.5zM356 291q0 33 -8.5 53.5t-28.5 34.5
q-23 14 -56 14q-69 0 -88 -57q-6 -18 -6 -45h187z" />
    <glyph glyph-name="f" unicode="f" horiz-adv-x="334" 
d="M85 388h-47v95h47v33q0 84 40.5 124t124.5 40h59v-107h-41q-35 0 -46.5 -11t-11.5 -44v-35h99v-95h-99v-388h-125v388z" />
    <glyph glyph-name="g" unicode="g" horiz-adv-x="540" 
d="M133 -170q-50 21 -79 58l79 80q50 -50 110 -50q103 0 103 111v45q-36 -58 -126 -58q-73 0 -114 34t-53 90q-12 50 -12 115q0 75 14 123t49 80q39 36 116 36q90 0 126 -58v47h126v-442q0 -114 -59 -173t-174 -59q-56 0 -106 21zM325.5 157q20.5 32 20.5 98t-20.5 98
t-68.5 32q-53 0 -71 -37t-18 -96q0 -127 89 -127q48 0 68.5 32z" />
    <glyph glyph-name="h" unicode="h" horiz-adv-x="551" 
d="M361 288q0 46 -21.5 71.5t-61.5 25.5q-39 0 -61.5 -26.5t-22.5 -70.5v-288h-126v680h126v-242q41 56 127 56q75 0 120.5 -49t45.5 -130v-315h-126v288z" />
    <glyph glyph-name="i" unicode="i" horiz-adv-x="262" 
d="M194 680v-113h-126v113h126zM194 483v-483h-126v483h126z" />
    <glyph glyph-name="j" unicode="j" horiz-adv-x="262" 
d="M194 680v-113h-126v113h126zM-18 -71h31q31 0 43 12t12 44v498h126v-496q0 -167 -171 -167h-41v109z" />
    <glyph glyph-name="k" unicode="k" horiz-adv-x="527" 
d="M334 300l178 -300h-140l-120 209l-58 -69v-140h-126v680h126v-389l161 192h138z" />
    <glyph glyph-name="l" unicode="l" horiz-adv-x="298" 
d="M207 -6q-75 0 -108 35t-33 111v540h126v-531q0 -24 10.5 -34.5t31.5 -10.5h32v-110h-59z" />
    <glyph glyph-name="m" unicode="m" horiz-adv-x="844" 
d="M654 288q0 46 -21.5 71.5t-61.5 25.5q-39 0 -61.5 -26.5t-22.5 -70.5v-288h-126v288q0 46 -21.5 71.5t-61.5 25.5q-39 0 -61.5 -26.5t-22.5 -70.5v-288h-126v483h126v-45q41 56 127 56q89 0 132 -63q57 63 153 63q81 0 127.5 -48.5t46.5 -130.5v-315h-126v288z" />
    <glyph glyph-name="n" unicode="n" horiz-adv-x="551" 
d="M68 483h126v-45q21 29 51.5 42.5t75.5 13.5q75 0 120.5 -49t45.5 -130v-315h-126v288q0 46 -21.5 71.5t-61.5 25.5q-39 0 -61.5 -26.5t-22.5 -70.5v-288h-126v483z" />
    <glyph glyph-name="o" unicode="o" horiz-adv-x="527" 
d="M133.5 24.5q-53.5 35.5 -74.5 99.5q-16 44 -16 118q0 80 21.5 132.5t69.5 84.5q53 35 130 35q75 0 129 -35t75 -99q16 -45 16 -118q0 -80 -21.5 -132.5t-69.5 -84.5q-54 -36 -129 -36q-77 0 -130.5 35.5zM336 131q20 33 20 111q0 77 -20 110t-72 33q-53 0 -73 -33
t-20 -110q0 -78 20 -111t73 -33q52 0 72 33z" />
    <glyph glyph-name="p" unicode="p" horiz-adv-x="548" 
d="M68 483h126v-46q39 57 129 57q72 0 115 -34t56 -94q11 -60 11 -124q0 -79 -14 -129.5t-50 -85.5q-41 -38 -118 -38q-89 0 -129 58v-227h-126v663zM372 166q5 37 5 76q0 53 -6.5 79.5t-24.5 44.5q-19 19 -60 19t-61.5 -18.5t-25.5 -45t-5 -65.5q0 -60 6.5 -90t25.5 -49
t60 -19q72 0 86 68z" />
    <glyph glyph-name="q" unicode="q" horiz-adv-x="548" 
d="M354 47q-39 -58 -128 -58q-72 0 -115.5 35t-55.5 95q-12 53 -12 123q0 82 13.5 131.5t50.5 83.5q40 37 119 37q89 0 128 -58v47h126v-663h-126v227zM349 166q5 37 5 76q0 53 -6.5 79.5t-24.5 44.5q-19 19 -60 19t-61.5 -18.5t-25.5 -45t-5 -65.5q0 -60 6.5 -90t25.5 -49
t60 -19q72 0 86 68z" />
    <glyph glyph-name="r" unicode="r" horiz-adv-x="425" 
d="M68 483h126v-53q37 64 127 64q57 0 101 -41l-65 -99q-43 28 -78 28q-85 0 -85 -114v-268h-126v483z" />
    <glyph glyph-name="s" unicode="s" horiz-adv-x="502" 
d="M367.5 478.5q47.5 -15.5 88.5 -50.5l-65 -79q-64 45 -136 45q-33 0 -50 -12t-17 -33t16 -31.5t57 -14.5l52 -5q77 -7 116 -43.5t39 -100.5q0 -76 -55.5 -120.5t-153.5 -44.5q-67 0 -120.5 20t-100.5 62l74 81q35 -30 74.5 -45.5t78.5 -15.5q40 0 61 13.5t21 38.5
q0 22 -16.5 32.5t-57.5 14.5l-53 6q-76 8 -114.5 44.5t-38.5 100.5q0 72 51 112.5t142 40.5q60 0 107.5 -15.5z" />
    <glyph glyph-name="t" unicode="t" horiz-adv-x="326" 
d="M221 -6q-77 0 -110.5 36t-33.5 115v243h-47v95h47v152h125v-152h79v-95h-79v-238q0 -25 10.5 -35.5t34.5 -10.5h34v-110h-60z" />
    <glyph glyph-name="u" unicode="u" horiz-adv-x="547" 
d="M353 46q-43 -57 -126 -57q-75 0 -119.5 49t-44.5 131v314h126v-288q0 -45 21.5 -70.5t60.5 -25.5q38 0 60 26t22 70v288h126v-483h-126v46z" />
    <glyph glyph-name="v" unicode="v" horiz-adv-x="497" 
d="M486 483l-178 -483h-113l-178 483h133l104 -313l101 313h131z" />
    <glyph glyph-name="w" unicode="w" horiz-adv-x="758" 
d="M743 483l-159 -483h-109l-92 308l-94 -308h-108l-160 483h130l91 -317l91 317h99l95 -317l86 317h130z" />
    <glyph glyph-name="x" unicode="x" horiz-adv-x="505" 
d="M328 251l170 -251h-139l-101 150l-100 -150h-138l170 251l-158 232h140l86 -132l89 132h139z" />
    <glyph glyph-name="y" unicode="y" horiz-adv-x="496" 
d="M85 -180v109h29q27 0 43 12.5t26 40.5l14 39l-182 462h134l107 -311l101 311h130l-193 -519q-21 -56 -43 -86.5t-51 -43.5q-33 -14 -73 -14h-42z" />
    <glyph glyph-name="z" unicode="z" horiz-adv-x="488" 
d="M198 107h241v-107h-390v98l243 279h-230v106h377v-103z" />
    <glyph glyph-name="braceleft" unicode="{" horiz-adv-x="352" 
d="M250 -84q-59 0 -90.5 31.5t-31.5 90.5v160q0 42 -18.5 61t-60.5 18v107q42 0 60.5 18.5t18.5 60.5v156q0 58 31.5 89.5t90.5 31.5h73v-95h-40q-42 0 -42 -42v-148q0 -56 -16 -83t-58 -41q41 -14 57.5 -41.5t16.5 -84.5v-151q0 -43 42 -43h40v-95h-73z" />
    <glyph glyph-name="bar" unicode="|" horiz-adv-x="333" 
d="M219 740v-824h-105v824h105z" />
    <glyph glyph-name="braceright" unicode="}" horiz-adv-x="352" 
d="M102 740q59 0 90.5 -31.5t31.5 -89.5v-156q0 -42 18.5 -60.5t60.5 -18.5v-107q-42 0 -60.5 -18.5t-18.5 -60.5v-160q0 -59 -31.5 -90.5t-90.5 -31.5h-72v95h39q42 0 42 43v151q0 57 16 84t58 41q-41 14 -57.5 41.5t-16.5 83.5v148q0 42 -42 42h-39v95h72z" />
    <glyph glyph-name="asciitilde" unicode="~" 
d="M47 246q21 51 61 80.5t86 29.5t105 -35q37 -25 65 -25q44 0 72 58l78 -47q-19 -43 -52 -71t-71 -34q-9 -4 -30 -4q-50 0 -99 33q-37 25 -66 25q-21 0 -40 -15.5t-31 -42.5z" />
    <glyph glyph-name="uni00A0" unicode="&#xa0;" horiz-adv-x="236" 
 />
    <glyph glyph-name="exclamdown" unicode="&#xa1;" horiz-adv-x="310" 
d="M90 483h130v-128h-130v128zM86 -197l24 486h90l24 -486h-138z" />
    <glyph glyph-name="cent" unicode="&#xa2;" 
d="M327 101q34 9 63 47l90 -69q-53 -78 -153 -89v-89h-60v90q-63 7 -108 41.5t-64 91.5q-15 45 -15 118q0 79 18.5 128t60.5 81q42 33 108 41v90h60v-89q97 -10 153 -90l-90 -68q-25 36 -63 47v-281zM267 103v277q-37 -12 -49 -52q-10 -23 -10 -86q0 -64 10 -87
q12 -40 49 -52z" />
    <glyph glyph-name="sterling" unicode="&#xa3;" 
d="M89 0v105q22 22 30 41t8 52v74h-60v92h60v136q0 90 48.5 140.5t134.5 50.5q70 0 116 -37t59 -103l-118 -27q-5 30 -19 44t-38 14q-55 0 -55 -65v-153h136v-92h-136v-57q0 -70 -27 -105h256v-110h-395z" />
    <glyph glyph-name="currency" unicode="&#xa4;" 
d="M387 138q-46 -28 -104 -28t-104 28l-65 -66l-75 75l66 67q-25 43 -25 100q0 54 26 101l-67 67l75 76l66 -67q48 27 104 27q54 0 102 -27l67 66l74 -75l-66 -66q27 -51 27 -103q0 -53 -26 -100l66 -66l-75 -76zM283 206q46 0 76 30.5t30 77.5t-30.5 78t-75.5 31
t-74.5 -30.5t-29.5 -78.5t29 -77q30 -31 75 -31z" />
    <glyph glyph-name="yen" unicode="&#xa5;" 
d="M343 134v-134h-126v134h-135v80h135v50h-135v80h107l-156 336h135l114 -282l113 282h132l-155 -336h106v-80h-135v-50h135v-80h-135z" />
    <glyph glyph-name="brokenbar" unicode="&#xa6;" horiz-adv-x="333" 
d="M219 740v-352h-105v352h105zM219 272v-356h-105v356h105z" />
    <glyph glyph-name="section" unicode="&#xa7;" horiz-adv-x="569" 
d="M151 -152q-48 39 -53 109l109 21q8 -71 72 -71q33 0 52 16.5t19 45.5q0 36 -25.5 57.5t-88.5 36.5q-153 39 -153 189q0 52 24 92.5t68 62.5q-67 40 -67 125q0 44 23 80.5t64 57.5q40 21 92 21q80 0 129.5 -40.5t51.5 -108.5l-108 -21q-7 72 -70 72q-31 0 -49 -16.5
t-18 -44.5q0 -35 25 -55t86 -36q152 -39 152 -188q0 -51 -25.5 -93.5t-66.5 -61.5q39 -22 55 -52.5t16 -81.5q0 -44 -23 -79.5t-65 -55.5q-45 -20 -95 -20q-83 0 -131 39zM347 186q23 24 23 66t-23 66t-62 24q-40 0 -63 -24t-23 -66q0 -43 22.5 -66.5t63.5 -23.5q39 0 62 24
z" />
    <glyph glyph-name="dieresis" unicode="&#xa8;" horiz-adv-x="438" 
d="M173 680v-113h-105v113h105zM371 680v-113h-105v113h105z" />
    <glyph glyph-name="copyright" unicode="&#xa9;" horiz-adv-x="819" 
d="M409 -11q-98 0 -178.5 46t-126.5 127q-46 79 -46 178q0 98 46 178.5t127 126.5q79 46 178 46t179.5 -45.5t126.5 -126.5q46 -79 46 -179q0 -149 -101 -250t-251 -101zM409 67q75 0 137 35.5t98 98.5q35 62 35 139t-34.5 139.5t-96.5 98.5q-62 35 -139 35q-75 0 -137 -35
t-97 -98q-35 -65 -35 -140q0 -115 77 -195q77 -78 192 -78zM315 171.5q-42 27.5 -60 81.5q-10 27 -10 87q0 65 16 105.5t54 64.5q42 27 105 27q46 0 80.5 -17t62.5 -53l-71 -53q-32 39 -71 39q-49 0 -63 -26t-14 -69q0 -54 5 -77.5t21 -37.5q17 -15 51 -15q39 0 71 39
l70 -53q-48 -70 -142 -70q-63 0 -105 27.5z" />
    <glyph glyph-name="ordfeminine" unicode="&#xaa;" horiz-adv-x="352" 
d="M220 417q-24 -30 -84 -30q-46 0 -74 23t-28 64q0 96 128 96h57v13q0 29 -60 29q-40 0 -75 -20l-38 66q48 30 125 30q75 0 107.5 -24.5t32.5 -79.5v-192h-91v25zM219 495v13h-50q-44 0 -44 -26q0 -25 38 -25q56 0 56 38z" />
    <glyph glyph-name="guillemotleft" unicode="&#xab;" 
d="M261 166v-131l-229 229l229 229v-131l-99 -98zM496 166v-131l-229 229l229 229v-131l-98 -98z" />
    <glyph glyph-name="logicalnot" unicode="&#xac;" 
d="M500 330v-242h-112v134h-335v108h447z" />
    <glyph glyph-name="uni00AD" unicode="&#xad;" horiz-adv-x="389" 
d="M345 321v-111h-301v111h301z" />
    <glyph glyph-name="registered" unicode="&#xae;" horiz-adv-x="819" 
d="M588.5 645.5q80.5 -45.5 126.5 -126.5q46 -79 46 -179q0 -98 -45.5 -178.5t-126.5 -126.5q-79 -46 -180 -46q-98 0 -178.5 46t-126.5 127q-46 79 -46 178q0 98 46 178.5t127 126.5q79 46 178 46t179.5 -45.5zM272 578q-62 -35 -97 -98q-35 -65 -35 -140t35.5 -138
t97.5 -99q61 -36 136 -36t137 35.5t98 98.5q35 62 35 139t-34.5 139.5t-96.5 98.5q-62 35 -139 35q-75 0 -137 -35zM434 531q56 0 92 -33t36 -85q0 -37 -19 -65.5t-53 -41.5l83 -163h-85l-74 152h-62v-152h-76v388h158zM352 465v-104h79q25 0 40 14.5t15 37.5t-15 37.5
t-40 14.5h-79z" />
    <glyph glyph-name="overscore" unicode="&#xaf;" horiz-adv-x="438" 
d="M365 669v-88h-293v88h293z" />
    <glyph glyph-name="degree" unicode="&#xb0;" horiz-adv-x="452" 
d="M226 391q-43 0 -77 20t-53.5 54.5t-19.5 76.5t19.5 76.5t54.5 54.5q34 19 76 19q41 0 75 -20t55 -54q20 -35 20 -76q0 -65 -43 -108t-107 -43zM172 597.5q-20 -21.5 -20 -55.5t20.5 -56t53.5 -22q32 0 53 22t21 55q0 35 -20.5 56.5t-54.5 21.5q-33 0 -53 -21.5z" />
    <glyph glyph-name="plusminus" unicode="&#xb1;" 
d="M332 332v-168h-111v168h-168v108h168v169h111v-169h168v-108h-168zM500 109v-109h-447v109h447z" />
    <glyph glyph-name="uni00B2" unicode="&#xb2;" horiz-adv-x="354" 
d="M277 810.5q37 -33.5 37 -85.5q0 -58 -46 -104l-104 -108h150v-83h-273v80l151 160q26 26 26 52q0 40 -40 40q-41 0 -47 -50l-90 17q3 50 42.5 82.5t97.5 32.5q59 0 96 -33.5z" />
    <glyph glyph-name="uni00B3" unicode="&#xb3;" horiz-adv-x="354" 
d="M82 449q-38 27 -47 77l88 20q16 -42 55 -42q22 0 35 13t13 33q0 47 -54 47h-28v81h24q48 0 48 42t-42 42q-17 0 -28.5 -8t-19.5 -27l-86 18q9 47 45.5 73t91.5 26q63 0 99 -31.5t36 -84.5q0 -51 -42 -83q22 -9 37 -35.5t15 -58.5q0 -58 -38.5 -93.5t-102.5 -35.5
q-61 0 -99 27z" />
    <glyph glyph-name="acute" unicode="&#xb4;" horiz-adv-x="438" 
d="M334 701l-113 -148h-103l88 148h128z" />
    <glyph glyph-name="uni00B5" unicode="&#xb5;" horiz-adv-x="591" 
d="M331 7.5q-29 -16.5 -72 -16.5q-47 0 -65 25v-196h-126v663h126v-288q0 -45 21.5 -70.5t60.5 -25.5q40 0 63.5 27.5t23.5 73.5v283h126v-340q0 -26 7 -32.5t32 -6.5v-110h-31q-54 0 -78 14t-39 52q-20 -36 -49 -52.5z" />
    <glyph glyph-name="paragraph" unicode="&#xb6;" horiz-adv-x="646" 
d="M457 581h-82v-761h-107v428q-59 4 -103.5 32t-71.5 77q-26 47 -26 107q0 63 28 112t80 77q53 27 122 27h266v-860h-106v761z" />
    <glyph glyph-name="middot" unicode="&#xb7;" horiz-adv-x="256" 
d="M193 330v-130h-130v130h130z" />
    <glyph glyph-name="cedilla" unicode="&#xb8;" horiz-adv-x="438" 
d="M293 -21q0 -67 -38 -110t-100 -44v81q27 0 41.5 19.5t14.5 53.5h82z" />
    <glyph glyph-name="uni00B9" unicode="&#xb9;" horiz-adv-x="354" 
d="M250 836v-406h-96v299l-76 -48v101l81 54h91z" />
    <glyph glyph-name="ordmasculine" unicode="&#xba;" horiz-adv-x="364" 
d="M33 536q0 44 10 65q29 87 139 87q112 0 140 -87q9 -27 9 -65t-9 -64q-28 -88 -140 -88q-111 0 -139 88q-10 20 -10 64zM232 537q0 37 -11 53.5t-39 16.5t-39.5 -16.5t-11.5 -53.5q0 -35 12 -53t39 -18q35 0 45 30q5 22 5 41z" />
    <glyph glyph-name="guillemotright" unicode="&#xbb;" 
d="M64 493l229 -229l-229 -229v131l98 98l-98 98v131zM299 493l229 -229l-229 -229v131l99 98l-99 98v131z" />
    <glyph glyph-name="onequarter" unicode="&#xbc;" horiz-adv-x="857" 
d="M668 691l-407 -702h-96l407 702h96zM261 680v-406h-96v299l-76 -48v101l81 54h91zM466 137l129 269h101l-125 -266h74v91h91v-91h32v-82h-32v-58h-91v58h-179v79z" />
    <glyph glyph-name="onehalf" unicode="&#xbd;" horiz-adv-x="894" 
d="M165 -11l407 702h96l-407 -702h-96zM89 525v101l81 54h91v-406h-96v299zM767 380.5q37 -33.5 37 -85.5q0 -58 -46 -104l-103 -108h150v-83h-273v80l151 160q26 29 26 52q0 40 -40 40q-41 0 -47 -50l-90 17q3 50 42 82.5t97 32.5q59 0 96 -33.5z" />
    <glyph glyph-name="threequarters" unicode="&#xbe;" horiz-adv-x="928" 
d="M741 691l-407 -702h-96l407 702h96zM136.5 293q-38.5 27 -47.5 77l88 20q17 -42 55 -42q22 0 35 13t13 33q0 23 -14 35t-39 12h-29v81h25q48 0 48 42t-43 42q-17 0 -28 -8t-20 -27l-86 18q9 47 45.5 73t91.5 26q63 0 99.5 -31.5t36.5 -84.5q0 -52 -43 -83q22 -9 37 -35.5
t15 -58.5q0 -59 -38.5 -94t-102.5 -35q-60 0 -98.5 27zM808 58v-58h-91v58h-179v79l129 269h101l-124 -266h73v91h91v-91h32v-82h-32z" />
    <glyph glyph-name="questiondown" unicode="&#xbf;" horiz-adv-x="469" 
d="M179 483h130v-128h-130v128zM306 237q0 -46 -27 -84q-52 -68 -76 -102q-22 -31 -28.5 -46t-6.5 -33q0 -32 20 -51.5t52 -19.5q69 0 82 85l119 -18q-11 -84 -64.5 -130t-140.5 -46q-56 0 -100.5 23t-68.5 64q-25 40 -25 90q0 65 47 124l73 98q20 26 20 61v37h124v-52z" />
    <glyph glyph-name="Agrave" unicode="&#xc0;" horiz-adv-x="631" 
d="M286 888l87 -148h-103l-112 148h128zM195 136l-45 -136h-135l241 680h129l236 -680h-134l-45 136h-247zM404 251l-86 255l-85 -255h171z" />
    <glyph glyph-name="Aacute" unicode="&#xc1;" horiz-adv-x="631" 
d="M483 888l-113 -147h-103l88 147h128zM195 136l-45 -136h-135l241 680h129l236 -680h-134l-45 136h-247zM404 251l-86 255l-85 -255h171z" />
    <glyph glyph-name="Acircumflex" unicode="&#xc2;" horiz-adv-x="631" 
d="M318 818l-65 -68h-96l117 148h87l118 -148h-95zM195 136l-45 -136h-135l241 680h129l236 -680h-134l-45 136h-247zM404 251l-86 255l-85 -255h171z" />
    <glyph glyph-name="Atilde" unicode="&#xc3;" horiz-adv-x="631" 
d="M173 838q15 21 38 33t45 12q25 0 71 -20q33 -18 57 -18q16 0 38.5 10.5t39.5 27.5v-86q-15 -21 -37 -32.5t-46 -11.5q-25 0 -71 20q-31 18 -57 18q-16 0 -38 -10.5t-40 -27.5v85zM195 136l-45 -136h-135l241 680h129l236 -680h-134l-45 136h-247zM404 251l-86 255
l-85 -255h171z" />
    <glyph glyph-name="Adieresis" unicode="&#xc4;" horiz-adv-x="631" 
d="M268 877v-112h-102v112h102zM469 877v-112h-101v112h101zM195 136l-45 -136h-135l241 680h129l236 -680h-134l-45 136h-247zM404 251l-86 255l-85 -255h171z" />
    <glyph glyph-name="Aring" unicode="&#xc5;" horiz-adv-x="631" 
d="M421 820q0 -45 -29.5 -74.5t-73.5 -29.5t-73.5 29.5t-29.5 74.5q0 44 29.5 73.5t73.5 29.5t74 -30q29 -29 29 -73zM318 869q-20 0 -34.5 -15.5t-14.5 -34.5t14.5 -34t34.5 -15t33.5 13.5t13.5 35.5q0 20 -14 37q-13 13 -33 13zM15 0l241 680h129l236 -680h-134l-45 136
h-247l-45 -136h-135zM233 251h171l-86 255z" />
    <glyph glyph-name="AE" unicode="&#xc6;" horiz-adv-x="928" 
d="M229 136l-65 -136h-147l336 680h533v-116h-318v-163h269v-116h-269v-168h318v-117h-451v136h-206zM435 251v318l-152 -318h152z" />
    <glyph glyph-name="Ccedilla" unicode="&#xc7;" horiz-adv-x="575" 
d="M473 638q65 -53 85 -153h-135q-15 47 -42 67.5t-72 20.5q-84 0 -112 -82q-11 -42 -11 -151q0 -108 11 -150q29 -83 112 -83q82 0 109 81h137q-23 -98 -86.5 -148.5t-159.5 -50.5q-90 0 -151.5 43t-87.5 124q-19 50 -19 184q0 136 19 184q26 81 87.5 124t151.5 43
q99 0 164 -53zM351 -21q0 -67 -38 -110t-100 -44v81q27 0 41.5 19.5t14.5 53.5h82z" />
    <glyph glyph-name="Egrave" unicode="&#xc8;" horiz-adv-x="568" 
d="M284 888l87 -148h-103l-112 148h128zM521 117v-117h-451v680h451v-116h-318v-163h269v-116h-269v-168h318z" />
    <glyph glyph-name="Eacute" unicode="&#xc9;" horiz-adv-x="568" 
d="M428 888l-113 -147h-103l88 147h128zM521 117v-117h-451v680h451v-116h-318v-163h269v-116h-269v-168h318z" />
    <glyph glyph-name="Ecircumflex" unicode="&#xca;" horiz-adv-x="568" 
d="M296 818l-65 -68h-95l116 148h88l117 -148h-95zM521 117v-117h-451v680h451v-116h-318v-163h269v-116h-269v-168h318z" />
    <glyph glyph-name="Edieresis" unicode="&#xcb;" horiz-adv-x="568" 
d="M245 877v-112h-102v112h102zM446 877v-112h-101v112h101zM521 117v-117h-451v680h451v-116h-318v-163h269v-116h-269v-168h318z" />
    <glyph glyph-name="Igrave" unicode="&#xcc;" horiz-adv-x="273" 
d="M103 888l87 -148h-103l-112 148h128zM203 680v-680h-133v680h133z" />
    <glyph glyph-name="Iacute" unicode="&#xcd;" horiz-adv-x="273" 
d="M300 888l-113 -147h-103l88 147h128zM203 680v-680h-133v680h133z" />
    <glyph glyph-name="Icircumflex" unicode="&#xce;" horiz-adv-x="273" 
d="M137 818l-65 -68h-95l116 148h88l117 -148h-95zM203 680v-680h-133v680h133z" />
    <glyph glyph-name="Idieresis" unicode="&#xcf;" horiz-adv-x="273" 
d="M86 877v-113h-101v113h101zM288 877v-113h-101v113h101zM203 680v-680h-133v680h133z" />
    <glyph glyph-name="Eth" unicode="&#xd0;" horiz-adv-x="627" 
d="M70 294h-41v99h41v287h258q109 0 163.5 -36.5t70.5 -93t16 -139.5l-1 -71q0 -85 -6 -136t-23 -89q-18 -40 -53 -69q-52 -46 -167 -46h-258v294zM298 119q65 0 97.5 22.5t40.5 68.5q7 38 7 130q0 110 -12 141q-25 81 -133 81h-95v-169h106v-99h-106v-175h95z" />
    <glyph glyph-name="Ntilde" unicode="&#xd1;" horiz-adv-x="656" 
d="M472 797q-15 -21 -37 -32.5t-46 -11.5q-25 0 -71 20q-32 18 -57 18q-16 0 -38 -10.5t-40 -27.5v86q15 21 37 32.5t46 11.5q25 0 71 -20q33 -18 57 -18q15 0 37 11t41 28v-87zM466 214v466h120v-680h-126l-270 466v-466h-120v680h127z" />
    <glyph glyph-name="Ograve" unicode="&#xd2;" horiz-adv-x="628" 
d="M297 888l87 -148h-103l-112 148h128zM159.5 31.5q-63.5 42.5 -89.5 122.5q-19 51 -19 186q0 94 9.5 149.5t33.5 93.5q29 48 85 78t135 30q91 0 154.5 -42t89.5 -122q19 -51 19 -187q0 -92 -9.5 -147.5t-32.5 -93.5q-30 -49 -86 -79.5t-135 -30.5q-91 0 -154.5 42.5z
M431 189q11 42 11 151q0 89 -8 139q-9 47 -37 70.5t-83 23.5q-54 0 -82.5 -24t-37.5 -74q-8 -53 -8 -135q0 -109 11 -151q28 -82 117 -82t117 82z" />
    <glyph glyph-name="Oacute" unicode="&#xd3;" horiz-adv-x="628" 
d="M460 888l-112 -147h-104l88 147h128zM159.5 31.5q-63.5 42.5 -89.5 122.5q-19 51 -19 186q0 94 9.5 149.5t33.5 93.5q29 48 85 78t135 30q91 0 154.5 -42t89.5 -122q19 -51 19 -187q0 -92 -9.5 -147.5t-32.5 -93.5q-30 -49 -86 -79.5t-135 -30.5q-91 0 -154.5 42.5z
M431 189q11 42 11 151q0 89 -8 139q-9 47 -37 70.5t-83 23.5q-54 0 -82.5 -24t-37.5 -74q-8 -53 -8 -135q0 -109 11 -151q28 -82 117 -82t117 82z" />
    <glyph glyph-name="Ocircumflex" unicode="&#xd4;" horiz-adv-x="628" 
d="M313 818l-65 -68h-95l116 148h88l117 -148h-95zM159.5 31.5q-63.5 42.5 -89.5 122.5q-19 51 -19 186q0 94 9.5 149.5t33.5 93.5q29 48 85 78t135 30q91 0 154.5 -42t89.5 -122q19 -51 19 -187q0 -92 -9.5 -147.5t-32.5 -93.5q-30 -49 -86 -79.5t-135 -30.5
q-91 0 -154.5 42.5zM431 189q11 42 11 151q0 89 -8 139q-9 47 -37 70.5t-83 23.5q-54 0 -82.5 -24t-37.5 -74q-8 -53 -8 -135q0 -109 11 -151q28 -82 117 -82t117 82z" />
    <glyph glyph-name="Otilde" unicode="&#xd5;" horiz-adv-x="628" 
d="M169 839q15 21 37 32.5t45 11.5q26 0 71 -20q33 -18 58 -18q15 0 37 11t41 28v-87q-15 -21 -37 -32.5t-46 -11.5q-26 0 -71 20q-33 18 -57 18q-16 0 -37 -10t-41 -28v86zM159.5 31.5q-63.5 42.5 -89.5 122.5q-19 51 -19 186q0 94 9.5 149.5t33.5 93.5q29 48 85 78t135 30
q91 0 154.5 -42t89.5 -122q19 -51 19 -187q0 -92 -9.5 -147.5t-32.5 -93.5q-30 -49 -86 -79.5t-135 -30.5q-91 0 -154.5 42.5zM431 189q11 42 11 151q0 89 -8 139q-9 47 -37 70.5t-83 23.5q-54 0 -82.5 -24t-37.5 -74q-8 -53 -8 -135q0 -109 11 -151q28 -82 117 -82t117 82z
" />
    <glyph glyph-name="Odieresis" unicode="&#xd6;" horiz-adv-x="628" 
d="M263 877v-112h-101v112h101zM465 877v-112h-102v112h102zM159.5 31.5q-63.5 42.5 -89.5 122.5q-19 51 -19 186q0 94 9.5 149.5t33.5 93.5q29 48 85 78t135 30q91 0 154.5 -42t89.5 -122q19 -51 19 -187q0 -92 -9.5 -147.5t-32.5 -93.5q-30 -49 -86 -79.5t-135 -30.5
q-91 0 -154.5 42.5zM431 189q11 42 11 151q0 89 -8 139q-9 47 -37 70.5t-83 23.5q-54 0 -82.5 -24t-37.5 -74q-8 -53 -8 -135q0 -109 11 -151q28 -82 117 -82t117 82z" />
    <glyph glyph-name="multiply" unicode="&#xd7;" 
d="M357 276l129 -128l-74 -74l-129 127l-128 -127l-74 74l127 128l-127 128l74 75l129 -128l128 128l74 -74z" />
    <glyph glyph-name="Oslash" unicode="&#xd8;" horiz-adv-x="628" 
d="M115 77q-26 33 -40 77q-18 57 -18 186q0 92 9.5 148.5t32.5 94.5q29 48 85 78t135 30q86 0 148 -38l35 57h87l-66 -107q24 -30 41 -76q18 -57 18 -187q0 -92 -9.5 -147.5t-32.5 -93.5q-24 -40 -65 -67q-64 -43 -156 -43q-85 0 -147 38l-35 -57h-87zM400 548
q-35 26 -81 26q-89 0 -118 -83q-11 -42 -11 -151q0 -108 7 -135zM438 189q11 44 11 151q0 104 -7 133l-203 -341q31 -25 80 -25q91 0 119 82z" />
    <glyph glyph-name="Ugrave" unicode="&#xd9;" horiz-adv-x="644" 
d="M304 888l87 -148h-103l-112 148h128zM199 244q0 -63 33.5 -100t89.5 -37q57 0 90 36.5t33 100.5v436h133v-435q0 -78 -31.5 -136t-88.5 -89q-58 -31 -136 -31q-118 0 -186.5 68t-68.5 188v435h132v-436z" />
    <glyph glyph-name="Uacute" unicode="&#xda;" horiz-adv-x="644" 
d="M471 888l-112 -147h-104l88 147h128zM135.5 57q-68.5 68 -68.5 188v435h132v-436q0 -63 33.5 -100t89.5 -37q57 0 90 36.5t33 100.5v436h133v-435q0 -78 -31.5 -136t-88.5 -89q-58 -31 -136 -31q-118 0 -186.5 68z" />
    <glyph glyph-name="Ucircumflex" unicode="&#xdb;" horiz-adv-x="644" 
d="M365 898l117 -148h-95l-66 68l-65 -68h-95l116 148h88zM199 244q0 -63 33.5 -100t89.5 -37q57 0 90 36.5t33 100.5v436h133v-435q0 -78 -31.5 -136t-88.5 -89q-58 -31 -136 -31q-118 0 -186.5 68t-68.5 188v435h132v-436z" />
    <glyph glyph-name="Udieresis" unicode="&#xdc;" horiz-adv-x="644" 
d="M171 765v112h101v-112h-101zM372 765v112h102v-112h-102zM578 245q0 -78 -31.5 -136t-88.5 -89q-58 -31 -136 -31q-118 0 -186.5 68t-68.5 188v435h132v-436q0 -63 33.5 -100t89.5 -37q57 0 90 36.5t33 100.5v436h133v-435z" />
    <glyph glyph-name="Yacute" unicode="&#xdd;" horiz-adv-x="552" 
d="M437 888l-112 -147h-104l88 147h128zM346 275v-275h-132v275l-204 405h137l135 -269l135 269h133z" />
    <glyph glyph-name="Thorn" unicode="&#xde;" horiz-adv-x="602" 
d="M70 680h133v-111h137q68 0 120.5 -26.5t81.5 -74.5q28 -49 28 -114q0 -64 -28.5 -112.5t-81.5 -75.5q-52 -27 -120 -27h-137v-139h-133v680zM332 256q49 0 77.5 26.5t28.5 71.5t-28.5 72t-77.5 27h-129v-197h129z" />
    <glyph glyph-name="agrave" unicode="&#xe0;" horiz-adv-x="526" 
d="M259 701l87 -148h-103l-112 148h128zM344 45q-41 -56 -136 -56q-74 0 -117.5 39.5t-43.5 108.5q0 75 51 114.5t146 39.5h98v27q0 39 -23.5 56t-79.5 17q-71 0 -118 -39l-51 90q64 52 183 52q113 0 160.5 -40t47.5 -131v-323h-117v45zM342 162v41h-80q-96 0 -96 -60
q0 -56 77 -56q99 0 99 75z" />
    <glyph glyph-name="aacute" unicode="&#xe1;" horiz-adv-x="526" 
d="M414 701l-113 -148h-103l88 148h128zM344 45q-41 -56 -136 -56q-74 0 -117.5 39.5t-43.5 108.5q0 75 51 114.5t146 39.5h98v27q0 39 -23.5 56t-79.5 17q-71 0 -118 -39l-51 90q64 52 183 52q113 0 160.5 -40t47.5 -131v-323h-117v45zM342 162v41h-80q-96 0 -96 -60
q0 -56 77 -56q99 0 99 75z" />
    <glyph glyph-name="acircumflex" unicode="&#xe2;" horiz-adv-x="526" 
d="M306 701l117 -148h-95l-66 67l-65 -67h-95l116 148h88zM344 45q-41 -56 -136 -56q-74 0 -117.5 39.5t-43.5 108.5q0 75 51 114.5t146 39.5h98v27q0 39 -23.5 56t-79.5 17q-71 0 -118 -39l-51 90q64 52 183 52q113 0 160.5 -40t47.5 -131v-323h-117v45zM342 162v41h-80
q-96 0 -96 -60q0 -56 77 -56q99 0 99 75z" />
    <glyph glyph-name="atilde" unicode="&#xe3;" horiz-adv-x="526" 
d="M253 578q-33 18 -57 18q-16 0 -37 -10t-41 -28v85q15 21 37.5 33t44.5 12q26 0 71 -20q33 -18 58 -18q16 0 38.5 10.5t39.5 27.5v-86q-15 -21 -37 -32.5t-46 -11.5q-26 0 -71 20zM344 45q-41 -56 -136 -56q-74 0 -117.5 39.5t-43.5 108.5q0 75 51 114.5t146 39.5h98v27
q0 39 -23.5 56t-79.5 17q-71 0 -118 -39l-51 90q64 52 183 52q113 0 160.5 -40t47.5 -131v-323h-117v45zM342 162v41h-80q-96 0 -96 -60q0 -56 77 -56q99 0 99 75z" />
    <glyph glyph-name="adieresis" unicode="&#xe4;" horiz-adv-x="526" 
d="M111 567v113h101v-113h-101zM312 567v113h102v-113h-102zM413.5 454q47.5 -40 47.5 -131v-323h-117v45q-41 -56 -136 -56q-74 0 -117.5 39.5t-43.5 108.5q0 75 51 114.5t146 39.5h98v27q0 39 -23.5 56t-79.5 17q-71 0 -118 -39l-51 90q64 52 183 52q113 0 160.5 -40z
M262 203q-96 0 -96 -60q0 -56 77 -56q99 0 99 75v41h-80z" />
    <glyph glyph-name="aring" unicode="&#xe5;" horiz-adv-x="526" 
d="M376 629q0 -44 -30 -73.5t-73 -29.5q-46 0 -74 30q-30 29 -30 73q0 45 30 74.5t73 29.5q46 0 74 -30q30 -30 30 -74zM273 679q-21 0 -34.5 -14.5t-13.5 -36.5q0 -19 13.5 -34t33.5 -15q21 0 34.5 15t13.5 36q0 18 -11 32q-14 17 -36 17zM413.5 454q47.5 -40 47.5 -131
v-323h-117v45q-41 -56 -136 -56q-74 0 -117.5 39.5t-43.5 108.5q0 75 51 114.5t146 39.5h98v27q0 39 -23.5 56t-79.5 17q-71 0 -118 -39l-51 90q64 52 183 52q113 0 160.5 -40zM342 203h-80q-96 0 -96 -60q0 -56 77 -56q99 0 99 75v41z" />
    <glyph glyph-name="ae" unicode="&#xe6;" horiz-adv-x="816" 
d="M462.5 7.5q-40.5 18.5 -69.5 56.5q-45 -75 -180 -75q-77 0 -121.5 39t-44.5 109q0 75 51 114.5t146 39.5h98v27q0 40 -23 56.5t-80 16.5q-73 0 -118 -39l-51 89q71 53 183 53q59 0 98.5 -11.5t64.5 -36.5q53 48 138 48q75 0 128.5 -35.5t74.5 -98.5q16 -42 16 -157h-312
q0 -20 6 -38q24 -69 105 -69q71 0 119 52l77 -70q-77 -89 -208 -89q-57 0 -97.5 18.5zM647 291q0 17 -5 45q-10 28 -32.5 42.5t-55.5 14.5q-69 0 -88 -57q-5 -25 -5 -45h186zM342 162v41h-80q-95 0 -95 -60q0 -56 76 -56q99 0 99 75z" />
    <glyph glyph-name="ccedilla" unicode="&#xe7;" horiz-adv-x="478" 
d="M443 403l-90 -68q-36 50 -90 50q-41 0 -61 -17.5t-25.5 -43.5t-5.5 -64q0 -64 6.5 -94.5t25.5 -48.5q19 -19 60 -19q52 0 90 50l90 -69q-30 -44 -77 -67t-104 -23q-76 0 -129.5 35t-74.5 100q-15 45 -15 118q0 85 20.5 135t69.5 82q53 35 129 35q118 0 181 -91zM306 -21
q0 -67 -38 -110t-100 -44v81q27 0 41 19t14 54h83z" />
    <glyph glyph-name="egrave" unicode="&#xe8;" horiz-adv-x="524" 
d="M245 701l87 -148h-103l-112 148h128zM135.5 24.5q-54.5 35.5 -75.5 100.5q-17 59 -17 117q0 80 21.5 132t69.5 85q53 35 128 35q76 0 129.5 -35.5t73.5 -98.5q18 -50 16 -157h-312q0 -24 7 -38q23 -69 104 -69q74 0 119 52l77 -70q-77 -89 -208 -89q-78 0 -132.5 35.5z
M356 291q0 33 -8.5 53.5t-28.5 34.5q-23 14 -56 14q-69 0 -88 -57q-6 -18 -6 -45h187z" />
    <glyph glyph-name="eacute" unicode="&#xe9;" horiz-adv-x="524" 
d="M411 701l-113 -148h-103l88 148h128zM135.5 24.5q-54.5 35.5 -75.5 100.5q-17 59 -17 117q0 80 21.5 132t69.5 85q53 35 128 35q76 0 129.5 -35.5t73.5 -98.5q18 -50 16 -157h-312q0 -24 7 -38q23 -69 104 -69q74 0 119 52l77 -70q-77 -89 -208 -89q-78 0 -132.5 35.5z
M356 291q0 33 -8.5 53.5t-28.5 34.5q-23 14 -56 14q-69 0 -88 -57q-6 -18 -6 -45h187z" />
    <glyph glyph-name="ecircumflex" unicode="&#xea;" horiz-adv-x="524" 
d="M305 701l117 -148h-95l-66 67l-65 -67h-95l116 148h88zM135.5 24.5q-54.5 35.5 -75.5 100.5q-17 59 -17 117q0 80 21.5 132t69.5 85q53 35 128 35q76 0 129.5 -35.5t73.5 -98.5q18 -50 16 -157h-312q0 -24 7 -38q23 -69 104 -69q74 0 119 52l77 -70q-77 -89 -208 -89
q-78 0 -132.5 35.5zM356 291q0 33 -8.5 53.5t-28.5 34.5q-23 14 -56 14q-69 0 -88 -57q-6 -18 -6 -45h187z" />
    <glyph glyph-name="edieresis" unicode="&#xeb;" horiz-adv-x="524" 
d="M110 567v113h101v-113h-101zM311 567v113h102v-113h-102zM391.5 458.5q53.5 -35.5 73.5 -98.5q18 -50 16 -157h-312q0 -24 7 -38q23 -69 104 -69q74 0 119 52l77 -70q-77 -89 -208 -89q-78 0 -132.5 35.5t-75.5 100.5q-17 59 -17 117q0 80 21.5 132t69.5 85q53 35 128 35
q76 0 129.5 -35.5zM175 336q-6 -18 -6 -45h187q0 33 -8.5 53.5t-28.5 34.5q-23 14 -56 14q-69 0 -88 -57z" />
    <glyph glyph-name="igrave" unicode="&#xec;" horiz-adv-x="262" 
d="M102 701l87 -148h-102l-113 148h128zM194 483v-483h-126v483h126z" />
    <glyph glyph-name="iacute" unicode="&#xed;" horiz-adv-x="262" 
d="M293 701l-113 -148h-104l89 148h128zM194 483v-483h-126v483h126z" />
    <glyph glyph-name="icircumflex" unicode="&#xee;" horiz-adv-x="262" 
d="M177 701l117 -148h-95l-66 67l-65 -67h-96l117 148h88zM194 483v-483h-126v483h126z" />
    <glyph glyph-name="idieresis" unicode="&#xef;" horiz-adv-x="262" 
d="M-20 567v113h102v-113h-102zM182 567v113h101v-113h-101zM68 0v483h126v-483h-126z" />
    <glyph glyph-name="eth" unicode="&#xf0;" horiz-adv-x="527" 
d="M292 628l101 30l25 -80l-71 -22l22 -30q62 -86 88.5 -152.5t26.5 -136.5q0 -77 -21 -128.5t-69 -83.5q-54 -36 -130 -36q-77 0 -130.5 35t-74.5 99q-16 42 -16 104q0 136 79 194q43 34 100 34q26 0 41.5 -4t32.5 -15l-63 86l-103 -31l-24 81l75 22l-62 86h135zM189 326.5
q-21 -31.5 -21 -100.5q0 -49 10 -72q18 -59 86 -59t86 59q10 23 10 72q0 69 -21 100.5t-75 31.5t-75 -31.5z" />
    <glyph glyph-name="ntilde" unicode="&#xf1;" horiz-adv-x="551" 
d="M265 578q-33 18 -57 18q-16 0 -37 -10t-41 -28v85q15 21 37.5 33t44.5 12q26 0 71 -20q33 -18 58 -18q16 0 38.5 10.5t39.5 27.5v-86q-15 -21 -37 -32.5t-46 -11.5q-26 0 -71 20zM361 288q0 46 -21.5 71.5t-61.5 25.5q-39 0 -61.5 -26.5t-22.5 -70.5v-288h-126v483h126
v-45q21 29 51.5 42.5t75.5 13.5q75 0 120.5 -49t45.5 -130v-315h-126v288z" />
    <glyph glyph-name="ograve" unicode="&#xf2;" horiz-adv-x="527" 
d="M240 701l87 -148h-102l-113 148h128zM133.5 24.5q-53.5 35.5 -74.5 99.5q-16 44 -16 118q0 80 21.5 132.5t69.5 84.5q53 35 130 35q75 0 129 -35t75 -99q16 -45 16 -118q0 -80 -21.5 -132.5t-69.5 -84.5q-54 -36 -129 -36q-77 0 -130.5 35.5zM336 131q20 33 20 111
q0 77 -20 110t-72 33q-53 0 -73 -33t-20 -110q0 -78 20 -111t73 -33q52 0 72 33z" />
    <glyph glyph-name="oacute" unicode="&#xf3;" horiz-adv-x="527" 
d="M417 701l-113 -148h-104l89 148h128zM133.5 24.5q-53.5 35.5 -74.5 99.5q-16 44 -16 118q0 80 21.5 132.5t69.5 84.5q53 35 130 35q75 0 129 -35t75 -99q16 -45 16 -118q0 -80 -21.5 -132.5t-69.5 -84.5q-54 -36 -129 -36q-77 0 -130.5 35.5zM336 131q20 33 20 111
q0 77 -20 110t-72 33q-53 0 -73 -33t-20 -110q0 -78 20 -111t73 -33q52 0 72 33z" />
    <glyph glyph-name="ocircumflex" unicode="&#xf4;" horiz-adv-x="527" 
d="M306 701l117 -148h-95l-66 67l-65 -67h-95l116 148h88zM133.5 24.5q-53.5 35.5 -74.5 99.5q-16 44 -16 118q0 80 21.5 132.5t69.5 84.5q53 35 130 35q75 0 129 -35t75 -99q16 -45 16 -118q0 -80 -21.5 -132.5t-69.5 -84.5q-54 -36 -129 -36q-77 0 -130.5 35.5zM336 131
q20 33 20 111q0 77 -20 110t-72 33q-53 0 -73 -33t-20 -110q0 -78 20 -111t73 -33q52 0 72 33z" />
    <glyph glyph-name="otilde" unicode="&#xf5;" horiz-adv-x="527" 
d="M253 578q-32 18 -57 18q-16 0 -38 -10.5t-40 -27.5v85q15 21 38 33t45 12q25 0 71 -20q33 -18 57 -18q16 0 38.5 10.5t39.5 27.5v-86q-15 -21 -37 -32.5t-46 -11.5q-25 0 -71 20zM133.5 24.5q-53.5 35.5 -74.5 99.5q-16 44 -16 118q0 80 21.5 132.5t69.5 84.5
q53 35 130 35q75 0 129 -35t75 -99q16 -45 16 -118q0 -80 -21.5 -132.5t-69.5 -84.5q-54 -36 -129 -36q-77 0 -130.5 35.5zM336 131q20 33 20 111q0 77 -20 110t-72 33q-53 0 -73 -33t-20 -110q0 -78 20 -111t73 -33q52 0 72 33z" />
    <glyph glyph-name="odieresis" unicode="&#xf6;" horiz-adv-x="527" 
d="M111 567v113h102v-113h-102zM313 567v113h101v-113h-101zM393 459q54 -35 75 -99q16 -45 16 -118q0 -80 -21.5 -132.5t-69.5 -84.5q-54 -36 -129 -36q-77 0 -130.5 35.5t-74.5 99.5q-16 44 -16 118q0 80 21.5 132.5t69.5 84.5q53 35 130 35q75 0 129 -35zM191 352
q-20 -33 -20 -110q0 -78 20 -111t73 -33q52 0 72 33t20 111q0 77 -20 110t-72 33q-53 0 -73 -33z" />
    <glyph glyph-name="divide" unicode="&#xf7;" 
d="M348 458q0 -30 -20.5 -51t-50.5 -21q-16 0 -30.5 6.5t-24.5 18.5q-17 20 -17 47q0 30 20.5 51t50.5 21q31 0 52 -24q20 -23 20 -48zM53 222v108h447v-108h-447zM348 95q0 -30 -21 -51t-51 -21q-29 0 -50 22t-21 50t18 47q19 24 53 24q15 0 29 -6t24 -17q19 -22 19 -48z
" />
    <glyph glyph-name="oslash" unicode="&#xf8;" horiz-adv-x="527" 
d="M100 55q-28 33 -41 77.5t-13 109.5q0 82 21 133.5t69 83.5q56 35 130 35q73 0 122 -31l36 50h68l-61 -85q28 -31 41.5 -76t13.5 -110q0 -82 -21 -133.5t-69 -83.5q-54 -36 -130 -36q-73 0 -122 31l-36 -50h-68zM321 370q-22 16 -55 16q-65 0 -85 -57q-9 -31 -9 -87
q0 -58 7 -79zM328 115q21 18 26.5 44t5.5 63q0 76 -7 97l-141 -206q19 -16 54 -16q41 0 62 18z" />
    <glyph glyph-name="ugrave" unicode="&#xf9;" horiz-adv-x="547" 
d="M244 701l87 -148h-102l-113 148h128zM353 46q-43 -57 -126 -57q-75 0 -119.5 49t-44.5 131v314h126v-288q0 -45 21.5 -70.5t60.5 -25.5q38 0 60 26t22 70v288h126v-483h-126v46z" />
    <glyph glyph-name="uacute" unicode="&#xfa;" horiz-adv-x="547" 
d="M425 701l-113 -148h-103l88 148h128zM353 46q-43 -57 -126 -57q-75 0 -119.5 49t-44.5 131v314h126v-288q0 -45 21.5 -70.5t60.5 -25.5q38 0 60 26t22 70v288h126v-483h-126v46z" />
    <glyph glyph-name="ucircumflex" unicode="&#xfb;" horiz-adv-x="547" 
d="M317 701l117 -148h-95l-66 67l-65 -67h-96l117 148h88zM353 46q-43 -57 -126 -57q-75 0 -119.5 49t-44.5 131v314h126v-288q0 -45 21.5 -70.5t60.5 -25.5q38 0 60 26t22 70v288h126v-483h-126v46z" />
    <glyph glyph-name="udieresis" unicode="&#xfc;" horiz-adv-x="547" 
d="M122 567v113h101v-113h-101zM323 567v113h102v-113h-102zM479 0h-126v46q-43 -57 -126 -57q-75 0 -119.5 49t-44.5 131v314h126v-288q0 -45 21.5 -70.5t60.5 -25.5q38 0 60 26t22 70v288h126v-483z" />
    <glyph glyph-name="yacute" unicode="&#xfd;" horiz-adv-x="496" 
d="M410 701l-113 -148h-103l88 148h128zM85 -180v109h29q27 0 43 12.5t26 40.5l14 39l-182 462h134l107 -310l101 310h131l-194 -519q-21 -56 -43 -86.5t-51 -43.5q-33 -14 -73 -14h-42z" />
    <glyph glyph-name="thorn" unicode="&#xfe;" horiz-adv-x="548" 
d="M68 680h126v-244q21 30 52.5 44t76.5 14q72 0 115 -34t56 -94q11 -60 11 -124q0 -79 -14 -129.5t-50 -85.5q-41 -38 -118 -38q-90 0 -129 58v-227h-126v860zM372 166q5 37 5 76q0 53 -6.5 79.5t-24.5 44.5q-19 19 -60 19t-61.5 -18.5t-25.5 -45t-5 -65.5q0 -60 6.5 -90
t25.5 -49t60 -19q72 0 86 68z" />
    <glyph glyph-name="ydieresis" unicode="&#xff;" horiz-adv-x="496" 
d="M102 567v113h102v-113h-102zM304 567v113h101v-113h-101zM294 -36q-21 -56 -43 -86.5t-51 -43.5q-33 -14 -73 -14h-42v109h29q27 0 43 12.5t26 40.5l14 39l-182 462h134l107 -310l101 310h131z" />
    <glyph glyph-name="Amacron" unicode="&#x100;" horiz-adv-x="631" 
d="M464 865v-88h-293v88h293zM195 136l-45 -136h-135l241 680h129l236 -680h-134l-45 136h-247zM404 251l-86 255l-85 -255h171z" />
    <glyph glyph-name="amacron" unicode="&#x101;" horiz-adv-x="526" 
d="M115 581v89h293v-89h-293zM413.5 454q47.5 -40 47.5 -131v-323h-117v45q-41 -56 -136 -56q-74 0 -117.5 39.5t-43.5 108.5q0 75 51 114.5t146 39.5h98v27q0 39 -23.5 56t-79.5 17q-71 0 -118 -39l-51 90q64 52 183 52q113 0 160.5 -40zM262 203q-96 0 -96 -60
q0 -56 77 -56q99 0 99 75v41h-80z" />
    <glyph glyph-name="Abreve" unicode="&#x102;" horiz-adv-x="631" 
d="M210 787.5q-42 38.5 -41 98.5h73q12 -54 76 -54t77 54h73q-2 -63 -43 -100t-107 -37t-108 38.5zM195 136l-45 -136h-135l241 680h129l236 -680h-134l-45 136h-247zM404 251l-86 255l-85 -255h171z" />
    <glyph glyph-name="abreve" unicode="&#x103;" horiz-adv-x="526" 
d="M413 687q-3 -63 -43.5 -100t-106.5 -37q-67 0 -108.5 37.5t-41.5 99.5h73q13 -55 77 -55q63 0 76 55h74zM413.5 454q47.5 -40 47.5 -131v-323h-117v45q-41 -56 -136 -56q-74 0 -117.5 39.5t-43.5 108.5q0 75 51 114.5t146 39.5h98v27q0 39 -23.5 56t-79.5 17
q-71 0 -118 -39l-51 90q64 52 183 52q113 0 160.5 -40zM262 203q-96 0 -96 -60q0 -56 77 -56q99 0 99 75v41h-80z" />
    <glyph glyph-name="Aogonek" unicode="&#x104;" horiz-adv-x="631" 
d="M552.5 -89.5q12.5 -7.5 42.5 -6.5v-82q-69 0 -108.5 25.5t-39.5 75.5q0 53 40 77l-45 136h-247l-45 -136h-135l241 680h129l236 -680q-46 -14 -63 -28q-18 -15 -18 -34q0 -20 12.5 -27.5zM404 251l-86 255l-85 -255h171z" />
    <glyph glyph-name="aogonek" unicode="&#x105;" horiz-adv-x="526" 
d="M461 0q-41 -12 -56 -25.5t-15 -36.5q0 -20 13 -27.5t43 -6.5l-1 -82q-69 0 -108 25.5t-39 75.5q0 49 46 77v45q-41 -56 -136 -56q-74 0 -117.5 39.5t-43.5 108.5q0 75 51 114.5t146 39.5h98v27q0 39 -23.5 56t-79.5 17q-71 0 -118 -39l-51 90q64 52 183 52
q113 0 160.5 -40t47.5 -131v-323zM342 203h-80q-96 0 -96 -60q0 -56 77 -56q99 0 99 75v41z" />
    <glyph glyph-name="Cacute" unicode="&#x106;" horiz-adv-x="575" 
d="M447 888l-112 -147h-104l88 147h128zM157.5 32q-61.5 43 -87.5 124q-19 50 -19 184q0 136 19 184q26 81 87.5 124t151.5 43q99 0 164 -53t85 -153h-135q-15 47 -42 67.5t-72 20.5q-84 0 -112 -82q-11 -42 -11 -151q0 -108 11 -150q29 -83 112 -83q82 0 109 81h137
q-23 -98 -86.5 -148.5t-159.5 -50.5q-90 0 -151.5 43z" />
    <glyph glyph-name="cacute" unicode="&#x107;" horiz-adv-x="478" 
d="M402 701l-113 -148h-104l89 148h128zM63.5 377q20.5 50 69.5 82q53 35 129 35q118 0 181 -91l-90 -68q-36 50 -90 50q-41 0 -61 -17.5t-25.5 -43.5t-5.5 -64q0 -64 6.5 -94.5t25.5 -48.5q19 -19 60 -19q52 0 90 50l90 -69q-30 -44 -77 -67t-104 -23q-76 0 -129.5 35
t-74.5 100q-15 45 -15 118q0 85 20.5 135z" />
    <glyph glyph-name="Ccircumflex" unicode="&#x108;" horiz-adv-x="575" 
d="M307 818l-65 -68h-95l116 148h88l117 -148h-95zM157.5 32q-61.5 43 -87.5 124q-19 50 -19 184q0 136 19 184q26 81 87.5 124t151.5 43q99 0 164 -53t85 -153h-135q-15 47 -42 67.5t-72 20.5q-84 0 -112 -82q-11 -42 -11 -151q0 -108 11 -150q29 -83 112 -83q82 0 109 81
h137q-23 -98 -86.5 -148.5t-159.5 -50.5q-90 0 -151.5 43z" />
    <glyph glyph-name="ccircumflex" unicode="&#x109;" horiz-adv-x="478" 
d="M302 701l117 -148h-95l-66 67l-65 -67h-95l116 148h88zM63.5 377q20.5 50 69.5 82q53 35 129 35q118 0 181 -91l-90 -68q-36 50 -90 50q-41 0 -61 -17.5t-25.5 -43.5t-5.5 -64q0 -64 6.5 -94.5t25.5 -48.5q19 -19 60 -19q52 0 90 50l90 -69q-30 -44 -77 -67t-104 -23
q-76 0 -129.5 35t-74.5 100q-15 45 -15 118q0 85 20.5 135z" />
    <glyph glyph-name="Cdotaccent" unicode="&#x10a;" horiz-adv-x="575" 
d="M363 877v-112h-114v112h114zM157.5 32q-61.5 43 -87.5 124q-19 50 -19 184q0 136 19 184q26 81 87.5 124t151.5 43q99 0 164 -53t85 -153h-135q-15 47 -42 67.5t-72 20.5q-84 0 -112 -82q-11 -42 -11 -151q0 -108 11 -150q29 -83 112 -83q82 0 109 81h137
q-23 -98 -86.5 -148.5t-159.5 -50.5q-90 0 -151.5 43z" />
    <glyph glyph-name="cdotaccent" unicode="&#x10b;" horiz-adv-x="478" 
d="M316 680v-112h-114v112h114zM63.5 377q20.5 50 69.5 82q53 35 129 35q118 0 181 -91l-90 -68q-36 50 -90 50q-41 0 -61 -17.5t-25.5 -43.5t-5.5 -64q0 -64 6.5 -94.5t25.5 -48.5q19 -19 60 -19q52 0 90 50l90 -69q-30 -44 -77 -67t-104 -23q-76 0 -129.5 35t-74.5 100
q-15 45 -15 118q0 85 20.5 135z" />
    <glyph glyph-name="Ccaron" unicode="&#x10c;" horiz-adv-x="575" 
d="M467 895l-116 -147h-89l-116 147h95l65 -68l67 68h94zM157.5 32q-61.5 43 -87.5 124q-19 50 -19 184q0 136 19 184q26 81 87.5 124t151.5 43q99 0 164 -53t85 -153h-135q-15 47 -42 67.5t-72 20.5q-84 0 -112 -82q-11 -42 -11 -151q0 -108 11 -150q29 -83 112 -83
q82 0 109 81h137q-23 -98 -86.5 -148.5t-159.5 -50.5q-90 0 -151.5 43z" />
    <glyph glyph-name="ccaron" unicode="&#x10d;" horiz-adv-x="478" 
d="M259 630l66 68h95l-117 -148h-88l-116 148h95zM63.5 377q20.5 50 69.5 82q53 35 129 35q118 0 181 -91l-90 -68q-36 50 -90 50q-41 0 -61 -17.5t-25.5 -43.5t-5.5 -64q0 -64 6.5 -94.5t25.5 -48.5q19 -19 60 -19q52 0 90 50l90 -69q-30 -44 -77 -67t-104 -23
q-76 0 -129.5 35t-74.5 100q-15 45 -15 118q0 85 20.5 135z" />
    <glyph glyph-name="Dcaron" unicode="&#x10e;" horiz-adv-x="627" 
d="M457 895l-117 -147h-88l-117 147h95l66 -67l66 67h95zM70 680h258q109 0 163.5 -36.5t70.5 -93t16 -139.5l-1 -71q0 -85 -6 -136t-23 -89q-18 -40 -53 -69q-52 -46 -167 -46h-258v680zM298 119q65 0 97.5 22.5t40.5 68.5q7 38 7 130q0 110 -12 141q-25 81 -133 81h-95
v-443h95z" />
    <glyph glyph-name="dcaron" unicode="&#x10f;" horiz-adv-x="554" 
d="M354 47q-39 -58 -128 -58q-72 0 -115.5 35t-55.5 95q-12 53 -12 123q0 82 13.5 131.5t50.5 83.5q40 37 119 37q88 0 128 -58v244h126v-680h-126v47zM625 680v-101l-109 -101v202h109zM349 166q5 37 5 76q0 53 -6.5 79.5t-24.5 44.5q-19 19 -60 19t-61.5 -18.5t-25.5 -45
t-5 -65.5q0 -60 6.5 -90t25.5 -49t60 -19q72 0 86 68z" />
    <glyph glyph-name="Dcroat" unicode="&#x110;" horiz-adv-x="627" 
d="M70 294h-41v99h41v287h258q109 0 163.5 -36.5t70.5 -93t16 -139.5l-1 -71q0 -85 -6 -136t-23 -89q-18 -40 -53 -69q-52 -46 -167 -46h-258v294zM298 119q65 0 97.5 22.5t40.5 68.5q7 38 7 130q0 110 -12 141q-25 81 -133 81h-95v-169h106v-99h-106v-175h95z" />
    <glyph glyph-name="dslash" unicode="&#x111;" horiz-adv-x="548" 
d="M354 47q-39 -58 -128 -58q-72 0 -115.5 35t-55.5 95q-12 53 -12 123q0 82 13.5 131.5t50.5 83.5q40 37 119 37q89 0 128 -58v109h-122v91h122v44h126v-44h38v-91h-38v-545h-126v47zM349 166q5 37 5 76q0 53 -6.5 79.5t-24.5 44.5q-19 19 -60 19t-61.5 -18.5t-25.5 -45
t-5 -65.5q0 -60 6.5 -90t25.5 -49t60 -19q72 0 86 68z" />
    <glyph glyph-name="Emacron" unicode="&#x112;" horiz-adv-x="568" 
d="M440 865v-88h-293v88h293zM521 117v-117h-451v680h451v-116h-318v-163h269v-116h-269v-168h318z" />
    <glyph glyph-name="emacron" unicode="&#x113;" horiz-adv-x="524" 
d="M408 670v-89h-293v89h293zM135.5 24.5q-54.5 35.5 -75.5 100.5q-17 59 -17 117q0 80 21.5 132t69.5 85q53 35 128 35q76 0 129.5 -35.5t73.5 -98.5q18 -50 16 -157h-312q0 -24 7 -38q23 -69 104 -69q74 0 119 52l77 -70q-77 -89 -208 -89q-78 0 -132.5 35.5zM356 291
q0 33 -8.5 53.5t-28.5 34.5q-23 14 -56 14q-69 0 -88 -57q-6 -18 -6 -45h187z" />
    <glyph glyph-name="Ebreve" unicode="&#x114;" horiz-adv-x="568" 
d="M185 787.5q-42 38.5 -41 98.5h73q12 -54 76 -54t77 54h73q-2 -63 -43 -100t-107 -37t-108 38.5zM521 117v-117h-451v680h451v-116h-318v-163h269v-116h-269v-168h318z" />
    <glyph glyph-name="ebreve" unicode="&#x115;" horiz-adv-x="524" 
d="M186 687q13 -55 77 -55q63 0 76 55h74q-3 -63 -43.5 -100t-106.5 -37q-67 0 -108.5 37.5t-41.5 99.5h73zM135.5 24.5q-54.5 35.5 -75.5 100.5q-17 59 -17 117q0 80 21.5 132t69.5 85q53 35 128 35q76 0 129.5 -35.5t73.5 -98.5q18 -50 16 -157h-312q0 -24 7 -38
q23 -69 104 -69q74 0 119 52l77 -70q-77 -89 -208 -89q-78 0 -132.5 35.5zM356 291q0 33 -8.5 53.5t-28.5 34.5q-23 14 -56 14q-69 0 -88 -57q-6 -18 -6 -45h187z" />
    <glyph glyph-name="Edotaccent" unicode="&#x116;" horiz-adv-x="568" 
d="M350 877v-112h-114v112h114zM521 117v-117h-451v680h451v-116h-318v-163h269v-116h-269v-168h318z" />
    <glyph glyph-name="edotaccent" unicode="&#x117;" horiz-adv-x="524" 
d="M318 680v-112h-114v112h114zM135.5 24.5q-54.5 35.5 -75.5 100.5q-17 59 -17 117q0 80 21.5 132t69.5 85q53 35 128 35q76 0 129.5 -35.5t73.5 -98.5q18 -50 16 -157h-312q0 -24 7 -38q23 -69 104 -69q74 0 119 52l77 -70q-77 -89 -208 -89q-78 0 -132.5 35.5zM356 291
q0 33 -8.5 53.5t-28.5 34.5q-23 14 -56 14q-69 0 -88 -57q-6 -18 -6 -45h187z" />
    <glyph glyph-name="Eogonek" unicode="&#x118;" horiz-adv-x="568" 
d="M203 564v-163h269v-116h-269v-168h318v-117h-16q-49 -14 -64 -28q-17 -15 -17 -34q0 -20 12.5 -27.5t42.5 -6.5v-82q-69 0 -108.5 25.5t-39.5 75.5q0 53 40 77h-301v680h451v-116h-318z" />
    <glyph glyph-name="eogonek" unicode="&#x119;" horiz-adv-x="524" 
d="M481 203h-312q0 -24 7 -38q23 -69 104 -69q74 0 119 52l77 -70q-31 -37 -70 -57q-43 -31 -58 -46q-16 -15 -16 -35q0 -21 13 -29t43 -7l-1 -82q-69 0 -108 25.5t-39 75.5q0 41 31 66h-3q-78 0 -132.5 35.5t-75.5 100.5q-17 59 -17 117q0 80 21.5 132t69.5 85
q53 35 128 35q76 0 129.5 -35.5t73.5 -98.5q18 -50 16 -157zM356 291q0 33 -8.5 53.5t-28.5 34.5q-23 14 -56 14q-69 0 -88 -57q-6 -18 -6 -45h187z" />
    <glyph glyph-name="Ecaron" unicode="&#x11a;" horiz-adv-x="568" 
d="M455 895l-117 -147h-88l-116 147h95l65 -67l66 67h95zM521 117v-117h-451v680h451v-116h-318v-163h269v-116h-269v-168h318z" />
    <glyph glyph-name="ecaron" unicode="&#x11b;" horiz-adv-x="524" 
d="M262 630l66 68h95l-117 -148h-88l-116 148h95zM135.5 24.5q-54.5 35.5 -75.5 100.5q-17 59 -17 117q0 80 21.5 132t69.5 85q53 35 128 35q76 0 129.5 -35.5t73.5 -98.5q18 -50 16 -157h-312q0 -24 7 -38q23 -69 104 -69q74 0 119 52l77 -70q-77 -89 -208 -89
q-78 0 -132.5 35.5zM356 291q0 33 -8.5 53.5t-28.5 34.5q-23 14 -56 14q-69 0 -88 -57q-6 -18 -6 -45h187z" />
    <glyph glyph-name="Gcircumflex" unicode="&#x11c;" horiz-adv-x="628" 
d="M313 818l-65 -68h-95l116 148h88l117 -148h-95zM159.5 31.5q-63.5 42.5 -89.5 122.5q-19 51 -19 186q0 94 9.5 149.5t33.5 93.5q30 48 86 78t136 30q103 0 169.5 -53.5t84.5 -152.5h-136q-12 44 -42 66t-76 22q-91 0 -119 -82q-11 -42 -11 -151t11 -151q28 -82 120 -82
q43 0 75.5 21t43.5 57q10 29 10 83h-119v108h250v-67q0 -109 -23.5 -171.5t-82.5 -103.5q-64 -45 -155 -45q-93 0 -156.5 42.5z" />
    <glyph glyph-name="gcircumflex" unicode="&#x11d;" horiz-adv-x="540" 
d="M99 553l116 148h88l117 -148h-95l-66 67l-65 -67h-95zM346 436v47h126v-442q0 -114 -59 -173t-174 -59q-56 0 -106 21t-79 58l79 80q50 -50 110 -50q103 0 103 111v45q-36 -58 -126 -58q-73 0 -114 34t-53 90q-12 50 -12 115q0 75 14 123t49 80q39 36 116 36
q90 0 126 -58zM186 348q-18 -37 -18 -96q0 -127 89 -127q48 0 68.5 32t20.5 98t-20.5 98t-68.5 32q-53 0 -71 -37z" />
    <glyph glyph-name="Gbreve" unicode="&#x11e;" horiz-adv-x="628" 
d="M205.5 786.5q-41.5 37.5 -41.5 99.5h73q12 -54 77 -54q63 0 76 54h74q-3 -63 -43.5 -100t-106.5 -37q-67 0 -108.5 37.5zM159.5 31.5q-63.5 42.5 -89.5 122.5q-19 51 -19 186q0 94 9.5 149.5t33.5 93.5q30 48 86 78t136 30q103 0 169.5 -53.5t84.5 -152.5h-136
q-12 44 -42 66t-76 22q-91 0 -119 -82q-11 -42 -11 -151t11 -151q28 -82 120 -82q43 0 75.5 21t43.5 57q10 29 10 83h-119v108h250v-67q0 -109 -23.5 -171.5t-82.5 -103.5q-64 -45 -155 -45q-93 0 -156.5 42.5z" />
    <glyph glyph-name="gbreve" unicode="&#x11f;" horiz-adv-x="540" 
d="M410 687q-2 -63 -43 -100t-107 -37q-67 0 -108.5 37.5t-40.5 99.5h73q13 -55 76 -55q64 0 77 55h73zM346 436v47h126v-442q0 -114 -59 -173t-174 -59q-56 0 -106 21t-79 58l79 80q50 -50 110 -50q103 0 103 111v45q-36 -58 -126 -58q-73 0 -114 34t-53 90q-12 50 -12 115
q0 75 14 123t49 80q39 36 116 36q90 0 126 -58zM186 348q-18 -37 -18 -96q0 -127 89 -127q48 0 68.5 32t20.5 98t-20.5 98t-68.5 32q-53 0 -71 -37z" />
    <glyph glyph-name="Gdotaccent" unicode="&#x120;" horiz-adv-x="628" 
d="M370 877v-112h-114v112h114zM159.5 31.5q-63.5 42.5 -89.5 122.5q-19 51 -19 186q0 94 9.5 149.5t33.5 93.5q30 48 86 78t136 30q103 0 169.5 -53.5t84.5 -152.5h-136q-12 44 -42 66t-76 22q-91 0 -119 -82q-11 -42 -11 -151t11 -151q28 -82 120 -82q43 0 75.5 21
t43.5 57q10 29 10 83h-119v108h250v-67q0 -109 -23.5 -171.5t-82.5 -103.5q-64 -45 -155 -45q-93 0 -156.5 42.5z" />
    <glyph glyph-name="gdotaccent" unicode="&#x121;" horiz-adv-x="540" 
d="M317 680v-113h-114v113h114zM133 -170q-50 21 -79 58l79 80q50 -50 110 -50q103 0 103 111v45q-36 -58 -126 -58q-73 0 -114 34t-53 90q-12 50 -12 115q0 75 14 123t49 80q39 36 116 36q90 0 126 -58v47h126v-442q0 -114 -59 -173t-174 -59q-56 0 -106 21zM325.5 157
q20.5 32 20.5 98t-20.5 98t-68.5 32q-53 0 -71 -37t-18 -96q0 -127 89 -127q48 0 68.5 32z" />
    <glyph glyph-name="Gcommaaccent" unicode="&#x122;" horiz-adv-x="628" 
d="M485.5 637.5q66.5 -53.5 84.5 -152.5h-136q-12 44 -42 66t-76 22q-91 0 -119 -82q-11 -42 -11 -151t11 -151q28 -82 120 -82q43 0 75.5 21t43.5 57q10 29 10 83h-119v108h250v-67q0 -109 -23.5 -171.5t-82.5 -103.5q-64 -45 -155 -45q-93 0 -156.5 42.5t-89.5 122.5
q-19 51 -19 186q0 94 9.5 149.5t33.5 93.5q30 48 86 78t136 30q103 0 169.5 -53.5zM257 -252v200h112v-97z" />
    <glyph glyph-name="gcommaaccent" unicode="&#x123;" horiz-adv-x="540" 
d="M316 767v-200h-112v97zM133 -170q-50 21 -79 58l79 80q50 -50 110 -50q103 0 103 111v45q-36 -58 -126 -58q-73 0 -114 34t-53 90q-12 50 -12 115q0 75 14 123t49 80q39 36 116 36q90 0 126 -58v47h126v-442q0 -114 -59 -173t-174 -59q-56 0 -106 21zM325.5 157
q20.5 32 20.5 98t-20.5 98t-68.5 32q-53 0 -71 -37t-18 -96q0 -127 89 -127q48 0 68.5 32z" />
    <glyph glyph-name="Hcircumflex" unicode="&#x124;" horiz-adv-x="658" 
d="M328 818l-65 -68h-96l117 148h87l118 -148h-95zM203 284v-284h-133v680h133v-277h252v277h133v-680h-133v284h-252z" />
    <glyph glyph-name="hcircumflex" unicode="&#x125;" horiz-adv-x="551" 
d="M323 898l118 -148h-95l-66 68l-65 -68h-96l117 148h87zM361 288q0 46 -21.5 71.5t-61.5 25.5q-39 0 -61.5 -26.5t-22.5 -70.5v-288h-126v680h126v-242q41 56 127 56q75 0 120.5 -49t45.5 -130v-315h-126v288z" />
    <glyph glyph-name="Hbar" unicode="&#x126;" horiz-adv-x="658" 
d="M203 284v-284h-133v495h-49v89h49v96h133v-96h252v96h133v-96h49v-89h-49v-495h-133v284h-252zM455 495h-252v-92h252v92z" />
    <glyph glyph-name="hbar" unicode="&#x127;" horiz-adv-x="551" 
d="M361 288q0 46 -21.5 71.5t-61.5 25.5q-39 0 -61.5 -26.5t-22.5 -70.5v-288h-126v545h-38v91h38v44h126v-44h123v-91h-123v-108q39 57 127 57q75 0 120.5 -49t45.5 -130v-315h-126v288z" />
    <glyph glyph-name="Itilde" unicode="&#x128;" horiz-adv-x="273" 
d="M-8 839q15 21 37 32.5t46 11.5q25 0 71 -20q33 -18 57 -18q15 0 37 11t41 28v-87q-15 -21 -37 -32.5t-46 -11.5q-25 0 -71 20q-32 18 -57 18q-16 0 -38 -10.5t-40 -27.5v86zM203 680v-680h-133v680h133z" />
    <glyph glyph-name="itilde" unicode="&#x129;" horiz-adv-x="262" 
d="M122 578q-32 18 -57 18q-16 0 -38 -10.5t-40 -27.5v85q15 21 38 33t45 12q30 0 71 -21q33 -18 57 -18q15 0 35.5 10.5t42.5 28.5v-87q-15 -21 -37 -32.5t-46 -11.5q-31 0 -71 21zM194 483v-483h-126v483h126z" />
    <glyph glyph-name="Imacron" unicode="&#x12a;" horiz-adv-x="273" 
d="M283 865v-88h-293v88h293zM203 680v-680h-133v680h133z" />
    <glyph glyph-name="imacron" unicode="&#x12b;" horiz-adv-x="262" 
d="M278 670v-89h-293v89h293zM194 483v-483h-126v483h126z" />
    <glyph glyph-name="Ibreve" unicode="&#x12c;" horiz-adv-x="273" 
d="M28.5 787.5q-42.5 38.5 -41.5 98.5h73q12 -54 77 -54q63 0 76 54h74q-3 -63 -43.5 -100t-106.5 -37t-108.5 38.5zM203 680v-680h-133v680h133z" />
    <glyph glyph-name="ibreve" unicode="&#x12d;" horiz-adv-x="262" 
d="M55 687q12 -54 76 -54t77 54h73q-2 -63 -43 -100t-107 -37t-108 38.5t-42 98.5h74zM194 483v-483h-126v483h126z" />
    <glyph glyph-name="Iogonek" unicode="&#x12e;" horiz-adv-x="273" 
d="M203 680v-680h-1q-46 -12 -63 -27q-17 -17 -17 -35q0 -20 12.5 -27.5t42.5 -6.5v-82q-69 0 -108.5 25.5t-39.5 75.5q0 51 41 77v680h133z" />
    <glyph glyph-name="iogonek" unicode="&#x12f;" horiz-adv-x="262" 
d="M194 567h-126v113h126v-113zM68 483h126v-483q-45 -14 -59 -28q-16 -15 -16 -34q0 -20 13 -27.5t43 -6.5v-82q-70 0 -109 25.5t-39 75.5q0 51 41 77v483z" />
    <glyph glyph-name="Idot" unicode="&#x130;" horiz-adv-x="273" 
d="M194 877v-112h-114v112h114zM203 680v-680h-133v680h133z" />
    <glyph glyph-name="dotlessi" unicode="&#x131;" horiz-adv-x="262" 
d="M194 483v-483h-126v483h126z" />
    <glyph glyph-name="IJ" unicode="&#x132;" horiz-adv-x="787" 
d="M203 680v-680h-133v680h133zM366.5 14.5q-52.5 25.5 -77.5 67.5l98 75q38 -50 94 -50q52 0 79.5 32.5t27.5 93.5v447h132v-443q0 -119 -63.5 -183.5t-177.5 -64.5q-60 0 -112.5 25.5z" />
    <glyph glyph-name="ij" unicode="&#x133;" horiz-adv-x="524" 
d="M194 680v-113h-126v113h126zM456 680v-113h-126v113h126zM194 483v-483h-126v483h126zM244 -71h31q31 0 43 12t12 44v498h126v-496q0 -167 -171 -167h-41v109z" />
    <glyph glyph-name="Jcircumflex" unicode="&#x134;" horiz-adv-x="514" 
d="M384 818l-65 -68h-96l117 148h87l118 -148h-95zM99 14.5q-52 25.5 -77 67.5l98 75q36 -50 94 -50q51 0 78.5 32.5t27.5 93.5v447h133v-443q0 -118 -64 -183t-178 -65q-60 0 -112 25.5z" />
    <glyph glyph-name="jcircumflex" unicode="&#x135;" horiz-adv-x="266" 
d="M179 701l117 -148h-95l-66 67l-65 -67h-96l117 148h88zM-18 -71h31q31 0 43 12t12 44v498h126v-496q0 -167 -171 -167h-41v109z" />
    <glyph glyph-name="Kcommaaccent" unicode="&#x136;" horiz-adv-x="639" 
d="M203 190v-190h-133v680h133v-317l248 317h154l-219 -269l237 -411h-153l-171 309zM378 -52v-97l-113 -103v200h113z" />
    <glyph glyph-name="kcommaaccent" unicode="&#x137;" horiz-adv-x="527" 
d="M68 0v680h126v-389l161 192h138l-159 -183l178 -300h-140l-120 209l-58 -69v-140h-126zM213 -252v200h112v-97z" />
    <glyph glyph-name="kgreenlandic" unicode="&#x138;" horiz-adv-x="527" 
d="M334 300l178 -300h-139l-121 209l-58 -69v-140h-126v483h126v-192l160 192h139z" />
    <glyph glyph-name="Lacute" unicode="&#x139;" horiz-adv-x="548" 
d="M306 888l-113 -147h-103l88 147h128zM525 119v-119h-455v680h133v-561h322z" />
    <glyph glyph-name="lacute" unicode="&#x13a;" horiz-adv-x="298" 
d="M293 888l-112 -147h-104l88 147h128zM207 -6q-75 0 -108 35t-33 111v540h126v-531q0 -24 10.5 -34.5t31.5 -10.5h32v-110h-59z" />
    <glyph glyph-name="Lcommaaccent" unicode="&#x13b;" horiz-adv-x="548" 
d="M525 119v-119h-455v680h133v-561h322zM347 -52v-97l-112 -103v200h112z" />
    <glyph glyph-name="lcommaaccent" unicode="&#x13c;" horiz-adv-x="298" 
d="M207 -6q-75 0 -108 35t-33 111v540h126v-531q0 -24 10.5 -34.5t31.5 -10.5h32v-110h-59zM226 -52v-97l-113 -103v200h113z" />
    <glyph glyph-name="Lcaron" unicode="&#x13d;" horiz-adv-x="548" 
d="M525 119v-119h-455v680h133v-561h322zM372 680v-96l-113 -103v199h113z" />
    <glyph glyph-name="lcaron" unicode="&#x13e;" horiz-adv-x="298" 
d="M207 -6q-75 0 -108 35t-33 111v540h126v-531q0 -24 10.5 -34.5t31.5 -10.5h32v-110h-59zM341 680v-96l-113 -103v199h113z" />
    <glyph glyph-name="Ldot" unicode="&#x13f;" horiz-adv-x="548" 
d="M525 119v-119h-455v680h133v-561h322zM461 395v-123h-116v123h116z" />
    <glyph glyph-name="ldot" unicode="&#x140;" horiz-adv-x="372" 
d="M207 -6q-75 0 -108 35t-33 111v540h126v-531q0 -24 10.5 -34.5t31.5 -10.5h32v-110h-59zM367 399v-123h-116v123h116z" />
    <glyph glyph-name="Lslash" unicode="&#x141;" horiz-adv-x="548" 
d="M525 119v-119h-455v256l-58 -29v107l58 29v317h133v-254l137 71v-108l-137 -70v-200h322z" />
    <glyph glyph-name="lslash" unicode="&#x142;" horiz-adv-x="298" 
d="M192 332v-183q0 -24 10.5 -34.5t31.5 -10.5h32v-110h-59q-75 0 -108 35t-33 111v135l-42 -22v103l42 21v303h126v-245l74 37v-102z" />
    <glyph glyph-name="Nacute" unicode="&#x143;" horiz-adv-x="656" 
d="M247 741l88 147h128l-113 -147h-103zM466 214v466h120v-680h-126l-270 466v-466h-120v680h127z" />
    <glyph glyph-name="nacute" unicode="&#x144;" horiz-adv-x="551" 
d="M411 701l-113 -148h-103l88 148h128zM361 288q0 46 -21.5 71.5t-61.5 25.5q-39 0 -61.5 -26.5t-22.5 -70.5v-288h-126v483h126v-45q21 29 51.5 42.5t75.5 13.5q75 0 120.5 -49t45.5 -130v-315h-126v288z" />
    <glyph glyph-name="Ncommaaccent" unicode="&#x145;" horiz-adv-x="656" 
d="M466 214v466h120v-680h-126l-270 466v-466h-120v680h127zM272 -252v200h112v-97z" />
    <glyph glyph-name="ncommaaccent" unicode="&#x146;" horiz-adv-x="551" 
d="M361 288q0 46 -21.5 71.5t-61.5 25.5q-39 0 -61.5 -26.5t-22.5 -70.5v-288h-126v483h126v-45q21 29 51.5 42.5t75.5 13.5q75 0 120.5 -49t45.5 -130v-315h-126v288zM332 -52v-97l-112 -103v200h112z" />
    <glyph glyph-name="Ncaron" unicode="&#x147;" horiz-adv-x="656" 
d="M324 828l66 67h95l-117 -147h-88l-116 147h95zM466 214v466h120v-680h-126l-270 466v-466h-120v680h127z" />
    <glyph glyph-name="ncaron" unicode="&#x148;" horiz-adv-x="551" 
d="M275 631l66 67h95l-117 -147h-88l-116 147h95zM361 288q0 46 -21.5 71.5t-61.5 25.5q-39 0 -61.5 -26.5t-22.5 -70.5v-288h-126v483h126v-45q21 29 51.5 42.5t75.5 13.5q75 0 120.5 -49t45.5 -130v-315h-126v288z" />
    <glyph glyph-name="napostrophe" unicode="&#x149;" horiz-adv-x="551" 
d="M90 680v-96l-113 -103v199h113zM361 288q0 46 -21.5 71.5t-61.5 25.5q-39 0 -61.5 -26.5t-22.5 -70.5v-288h-126v483h126v-45q21 29 51.5 42.5t75.5 13.5q75 0 120.5 -49t45.5 -130v-315h-126v288z" />
    <glyph glyph-name="Eng" unicode="&#x14a;" horiz-adv-x="656" 
d="M354 -66h31q75 0 75 67l-270 465v-466h-120v680h127l269 -466v466h120v-669q0 -193 -191 -193h-41v116z" />
    <glyph glyph-name="eng" unicode="&#x14b;" horiz-adv-x="551" 
d="M276 -180v109h31q30 0 42 12t12 44v303q0 46 -21.5 71.5t-61.5 25.5q-39 0 -61.5 -26.5t-22.5 -70.5v-288h-126v483h126v-45q41 56 127 56q75 0 120.5 -49t45.5 -130v-328q0 -167 -170 -167h-41z" />
    <glyph glyph-name="Omacron" unicode="&#x14c;" horiz-adv-x="628" 
d="M460 865v-88h-293v88h293zM159.5 31.5q-63.5 42.5 -89.5 122.5q-19 51 -19 186q0 94 9.5 149.5t33.5 93.5q29 48 85 78t135 30q91 0 154.5 -42t89.5 -122q19 -51 19 -187q0 -92 -9.5 -147.5t-32.5 -93.5q-30 -49 -86 -79.5t-135 -30.5q-91 0 -154.5 42.5zM431 189
q11 42 11 151q0 89 -8 139q-9 47 -37 70.5t-83 23.5q-54 0 -82.5 -24t-37.5 -74q-8 -53 -8 -135q0 -109 11 -151q28 -82 117 -82t117 82z" />
    <glyph glyph-name="omacron" unicode="&#x14d;" horiz-adv-x="527" 
d="M409 670v-89h-293v89h293zM133.5 24.5q-53.5 35.5 -74.5 99.5q-16 44 -16 118q0 80 21.5 132.5t69.5 84.5q53 35 130 35q75 0 129 -35t75 -99q16 -45 16 -118q0 -80 -21.5 -132.5t-69.5 -84.5q-54 -36 -129 -36q-77 0 -130.5 35.5zM336 131q20 33 20 111q0 77 -20 110
t-72 33q-53 0 -73 -33t-20 -110q0 -78 20 -111t73 -33q52 0 72 33z" />
    <glyph glyph-name="Obreve" unicode="&#x14e;" horiz-adv-x="628" 
d="M204.5 786.5q-41.5 37.5 -41.5 99.5h73q12 -54 77 -54q63 0 76 54h74q-3 -63 -43.5 -100t-106.5 -37q-67 0 -108.5 37.5zM159.5 31.5q-63.5 42.5 -89.5 122.5q-19 51 -19 186q0 94 9.5 149.5t33.5 93.5q29 48 85 78t135 30q91 0 154.5 -42t89.5 -122q19 -51 19 -187
q0 -92 -9.5 -147.5t-32.5 -93.5q-30 -49 -86 -79.5t-135 -30.5q-91 0 -154.5 42.5zM431 189q11 42 11 151q0 89 -8 139q-9 47 -37 70.5t-83 23.5q-54 0 -82.5 -24t-37.5 -74q-8 -53 -8 -135q0 -109 11 -151q28 -82 117 -82t117 82z" />
    <glyph glyph-name="obreve" unicode="&#x14f;" horiz-adv-x="527" 
d="M186 687q12 -54 77 -54q63 0 76 54h74q-3 -63 -43.5 -100t-106.5 -37q-67 0 -108.5 37.5t-41.5 99.5h73zM133.5 24.5q-53.5 35.5 -74.5 99.5q-16 44 -16 118q0 80 21.5 132.5t69.5 84.5q53 35 130 35q75 0 129 -35t75 -99q16 -45 16 -118q0 -80 -21.5 -132.5t-69.5 -84.5
q-54 -36 -129 -36q-77 0 -130.5 35.5zM336 131q20 33 20 111q0 77 -20 110t-72 33q-53 0 -73 -33t-20 -110q0 -78 20 -111t73 -33q52 0 72 33z" />
    <glyph glyph-name="Ohungarumlaut" unicode="&#x150;" horiz-adv-x="628" 
d="M353 889l-90 -148h-95l76 148h109zM518 889l-91 -148h-95l76 148h110zM159.5 31.5q-63.5 42.5 -89.5 122.5q-19 51 -19 186q0 94 9.5 149.5t33.5 93.5q29 48 85 78t135 30q91 0 154.5 -42t89.5 -122q19 -51 19 -187q0 -92 -9.5 -147.5t-32.5 -93.5q-30 -49 -86 -79.5
t-135 -30.5q-91 0 -154.5 42.5zM431 189q11 42 11 151q0 89 -8 139q-9 47 -37 70.5t-83 23.5q-54 0 -82.5 -24t-37.5 -74q-8 -53 -8 -135q0 -109 11 -151q28 -82 117 -82t117 82z" />
    <glyph glyph-name="ohungarumlaut" unicode="&#x151;" horiz-adv-x="527" 
d="M315 700l-91 -148h-95l76 148h110zM479 700l-90 -148h-95l76 148h109zM133.5 24.5q-53.5 35.5 -74.5 99.5q-16 44 -16 118q0 80 21.5 132.5t69.5 84.5q53 35 130 35q75 0 129 -35t75 -99q16 -45 16 -118q0 -80 -21.5 -132.5t-69.5 -84.5q-54 -36 -129 -36
q-77 0 -130.5 35.5zM336 131q20 33 20 111q0 77 -20 110t-72 33q-53 0 -73 -33t-20 -110q0 -78 20 -111t73 -33q52 0 72 33z" />
    <glyph glyph-name="OE" unicode="&#x152;" horiz-adv-x="940" 
d="M157.5 31q-61.5 42 -87.5 122q-19 53 -19 187q0 91 10 147.5t33 95.5q30 49 83.5 78.5t130.5 29.5q87 0 134 -47v36h451v-116h-318v-163h269v-116h-269v-168h318v-117h-451v36q-47 -47 -134 -47q-89 0 -150.5 42zM431 189q11 42 11 151q0 89 -8 139q-9 47 -37 70.5
t-83 23.5q-54 0 -82.5 -24t-37.5 -74q-8 -53 -8 -135q0 -109 11 -151q28 -82 117 -82t117 82z" />
    <glyph glyph-name="oe" unicode="&#x153;" horiz-adv-x="836" 
d="M420 53q-29 -33 -67 -48.5t-89 -15.5q-77 0 -130.5 35.5t-74.5 99.5q-16 44 -16 118q0 80 21.5 132.5t69.5 84.5q53 35 130 35q51 0 89 -15t67 -46q52 61 154 61q75 0 128.5 -35.5t74.5 -98.5q15 -49 15 -157h-311q0 -24 6 -38q23 -69 104 -69q74 0 119 52l77 -70
q-40 -46 -90.5 -67.5t-116.5 -21.5q-103 0 -160 64zM667 291q0 33 -8.5 53.5t-28.5 34.5q-23 14 -56 14t-56 -14.5t-32 -42.5q-5 -28 -5 -45h186zM336 131.5q20 33.5 20 110.5t-20 110t-72 33q-53 0 -73 -33t-20 -110t20.5 -110.5t72.5 -33.5t72 33.5z" />
    <glyph glyph-name="Racute" unicode="&#x154;" horiz-adv-x="622" 
d="M429 888l-112 -147h-104l88 147h128zM70 680h277q64 0 115 -26t80 -73q29 -50 29 -108q0 -65 -33 -115t-92 -73l145 -285h-150l-128 267h-110v-267h-133v680zM341 383q45 0 71.5 24.5t26.5 65.5t-26.5 66t-71.5 25h-138v-181h138z" />
    <glyph glyph-name="racute" unicode="&#x155;" horiz-adv-x="425" 
d="M366 701l-113 -148h-104l89 148h128zM68 483h126v-53q37 64 127 64q57 0 101 -41l-65 -99q-43 28 -78 28q-85 0 -85 -114v-268h-126v483z" />
    <glyph glyph-name="Rcommaaccent" unicode="&#x156;" horiz-adv-x="622" 
d="M70 680h277q64 0 115 -26t80 -73q29 -50 29 -108q0 -65 -33 -115t-92 -73l145 -285h-150l-128 267h-110v-267h-133v680zM341 383q45 0 71.5 24.5t26.5 65.5t-26.5 66t-71.5 25h-138v-181h138zM367 -52v-97l-112 -103v200h112z" />
    <glyph glyph-name="rcommaaccent" unicode="&#x157;" horiz-adv-x="425" 
d="M68 483h126v-53q37 64 127 64q57 0 101 -41l-65 -99q-43 28 -78 28q-85 0 -85 -114v-268h-126v483zM188 -52v-97l-112 -103v200h112z" />
    <glyph glyph-name="Rcaron" unicode="&#x158;" horiz-adv-x="622" 
d="M450 895l-117 -147h-88l-116 147h95l65 -67l66 67h95zM70 680h277q64 0 115 -26t80 -73q29 -50 29 -108q0 -65 -33 -115t-92 -73l145 -285h-150l-128 267h-110v-267h-133v680zM341 383q45 0 71.5 24.5t26.5 65.5t-26.5 66t-71.5 25h-138v-181h138z" />
    <glyph glyph-name="rcaron" unicode="&#x159;" horiz-adv-x="425" 
d="M233 631l66 67h95l-117 -147h-88l-116 147h95zM68 483h126v-53q37 64 127 64q57 0 101 -41l-65 -99q-43 28 -78 28q-85 0 -85 -114v-268h-126v483z" />
    <glyph glyph-name="Sacute" unicode="&#x15a;" horiz-adv-x="591" 
d="M452 888l-113 -147h-103l88 147h128zM153 15q-34 12 -65 31.5t-54 42.5l82 95q92 -78 190 -78q55 0 87 24.5t32 65.5q0 36 -26 56t-88 29l-36 5q-210 29 -210 199q0 95 64.5 150.5t170.5 55.5q70 0 126.5 -18t106.5 -57l-65 -99q-40 27 -84.5 42t-84.5 15
q-47 0 -73 -22.5t-26 -59.5q0 -34 28 -54.5t87 -29.5l36 -5q209 -29 209 -201q0 -99 -70 -156t-192 -57q-73 0 -145 26z" />
    <glyph glyph-name="sacute" unicode="&#x15b;" horiz-adv-x="502" 
d="M405 701l-113 -148h-103l88 148h128zM138 9q-54 20 -99 62l73 81q36 -30 75.5 -45.5t77.5 -15.5q40 0 61 13.5t21 38.5q0 22 -16.5 32.5t-57.5 14.5l-53 6q-76 8 -114.5 44.5t-38.5 100.5q0 72 51 112.5t142 40.5q113 0 196 -65l-65 -80q-63 45 -136 45q-33 0 -50 -12
t-17 -33t16 -31.5t57 -14.5l52 -5q77 -7 116 -43.5t39 -100.5q0 -76 -55.5 -120.5t-153.5 -44.5q-67 0 -121 20z" />
    <glyph glyph-name="Scircumflex" unicode="&#x15c;" horiz-adv-x="591" 
d="M305 818l-65 -68h-96l117 148h87l118 -148h-95zM153 15q-34 12 -65 31.5t-54 42.5l82 95q92 -78 190 -78q55 0 87 24.5t32 65.5q0 36 -26 56t-88 29l-36 5q-210 29 -210 199q0 95 64.5 150.5t170.5 55.5q70 0 126.5 -18t106.5 -57l-65 -99q-40 27 -84.5 42t-84.5 15
q-47 0 -73 -22.5t-26 -59.5q0 -34 28 -54.5t87 -29.5l36 -5q209 -29 209 -201q0 -99 -70 -156t-192 -57q-73 0 -145 26z" />
    <glyph glyph-name="scircumflex" unicode="&#x15d;" horiz-adv-x="502" 
d="M304 701l117 -148h-95l-66 67l-65 -67h-96l117 148h88zM138 9q-54 20 -99 62l73 81q36 -30 75.5 -45.5t77.5 -15.5q40 0 61 13.5t21 38.5q0 22 -16.5 32.5t-57.5 14.5l-53 6q-76 8 -114.5 44.5t-38.5 100.5q0 72 51 112.5t142 40.5q113 0 196 -65l-65 -80q-63 45 -136 45
q-33 0 -50 -12t-17 -33t16 -31.5t57 -14.5l52 -5q77 -7 116 -43.5t39 -100.5q0 -76 -55.5 -120.5t-153.5 -44.5q-67 0 -121 20z" />
    <glyph glyph-name="Scedilla" unicode="&#x15e;" horiz-adv-x="591" 
d="M153 15q-34 12 -65 31.5t-54 42.5l82 95q92 -78 190 -78q55 0 87 24.5t32 65.5q0 36 -26 56t-88 29l-36 5q-210 29 -210 199q0 95 64.5 150.5t170.5 55.5q70 0 126.5 -18t106.5 -57l-65 -99q-40 27 -84.5 42t-84.5 15q-47 0 -73 -22.5t-26 -59.5q0 -34 28 -54.5t87 -29.5
l36 -5q209 -29 209 -201q0 -99 -69.5 -156t-192.5 -57q-73 0 -145 26zM351 -21q0 -67 -38 -110t-100 -44v81q27 0 41.5 19.5t14.5 53.5h82z" />
    <glyph glyph-name="scedilla" unicode="&#x15f;" horiz-adv-x="502" 
d="M367.5 478.5q47.5 -15.5 88.5 -50.5l-65 -79q-64 45 -136 45q-33 0 -50 -12t-17 -33t16 -31.5t57 -14.5l52 -5q77 -7 116 -43.5t39 -100.5q0 -76 -55.5 -120.5t-153.5 -44.5q-67 0 -120.5 20t-100.5 62l74 81q35 -30 74.5 -45.5t78.5 -15.5q40 0 61 13.5t21 38.5
q0 22 -16.5 32.5t-57.5 14.5l-53 6q-76 8 -114.5 44.5t-38.5 100.5q0 72 51 112.5t142 40.5q60 0 107.5 -15.5zM307 -21q0 -67 -38 -110t-100 -44v81q27 0 41.5 19.5t14.5 53.5h82z" />
    <glyph glyph-name="Scaron" unicode="&#x160;" horiz-adv-x="591" 
d="M465 895l-117 -147h-88l-116 147h95l65 -67l66 67h95zM153 15q-34 12 -65 31.5t-54 42.5l82 95q92 -78 190 -78q55 0 87 24.5t32 65.5q0 36 -26 56t-88 29l-36 5q-210 29 -210 199q0 95 64.5 150.5t170.5 55.5q70 0 126.5 -18t106.5 -57l-65 -99q-40 27 -84.5 42
t-84.5 15q-47 0 -73 -22.5t-26 -59.5q0 -34 28 -54.5t87 -29.5l36 -5q209 -29 209 -201q0 -99 -70 -156t-192 -57q-73 0 -145 26z" />
    <glyph glyph-name="scaron" unicode="&#x161;" horiz-adv-x="502" 
d="M258 631l66 67h95l-117 -147h-88l-116 147h95zM138 9q-54 20 -99 62l73 81q36 -30 75.5 -45.5t77.5 -15.5q40 0 61 13.5t21 38.5q0 22 -16.5 32.5t-57.5 14.5l-53 6q-76 8 -114.5 44.5t-38.5 100.5q0 72 51 112.5t142 40.5q113 0 196 -65l-65 -80q-63 45 -136 45
q-33 0 -50 -12t-17 -33t16 -31.5t57 -14.5l52 -5q77 -7 116 -43.5t39 -100.5q0 -76 -55.5 -120.5t-153.5 -44.5q-67 0 -121 20z" />
    <glyph glyph-name="uni0162" unicode="&#x162;" horiz-adv-x="554" 
d="M343 562v-562h-132v562h-191v118h514v-118h-191zM333 -52v-97l-113 -103v200h113z" />
    <glyph glyph-name="uni0163" unicode="&#x163;" horiz-adv-x="326" 
d="M221 -6q-77 0 -110.5 36t-33.5 115v243h-47v95h47v152h125v-152h79v-95h-79v-238q0 -25 10.5 -35.5t34.5 -10.5h34v-110h-60zM240 -52v-97l-112 -103v200h112z" />
    <glyph glyph-name="Tcaron" unicode="&#x164;" horiz-adv-x="554" 
d="M437 895l-117 -147h-88l-116 147h95l65 -67l66 67h95zM343 562v-562h-132v562h-191v118h514v-118h-191z" />
    <glyph glyph-name="tcaron" unicode="&#x165;" horiz-adv-x="332" 
d="M368 593l-112 -103v190h112v-87zM202 635v-152h79v-95h-79v-238q0 -25 10.5 -35.5t34.5 -10.5h34v-110h-60q-77 0 -110.5 36t-33.5 115v243h-47v95h47v152h125z" />
    <glyph glyph-name="Tbar" unicode="&#x166;" horiz-adv-x="554" 
d="M344 326v-326h-133v326h-110v103h110v133h-191v118h515v-118h-191v-133h110v-103h-110z" />
    <glyph glyph-name="tbar" unicode="&#x167;" horiz-adv-x="326" 
d="M221 -6q-77 0 -110.5 36t-33.5 115v99h-37v84h37v60h-47v95h47v147h125v-147h79v-95h-79v-60h68v-84h-68v-94q0 -25 10.5 -35.5t34.5 -10.5h34v-110h-60z" />
    <glyph glyph-name="Utilde" unicode="&#x168;" horiz-adv-x="644" 
d="M313 773q-33 18 -57 18q-16 0 -37 -10t-41 -28v86q15 21 37 32.5t45 11.5q26 0 71 -20q33 -18 58 -18q15 0 35.5 10.5t42.5 28.5v-87q-15 -21 -37 -32.5t-46 -11.5q-26 0 -71 20zM199 244q0 -63 33.5 -100t89.5 -37q57 0 90 36.5t33 100.5v436h133v-435q0 -78 -31.5 -136
t-88.5 -89q-58 -31 -136 -31q-118 0 -186.5 68t-68.5 188v435h132v-436z" />
    <glyph glyph-name="utilde" unicode="&#x169;" horiz-adv-x="547" 
d="M263 578q-33 18 -57 18q-16 0 -37 -10t-41 -28v85q15 21 37.5 33t44.5 12q32 0 71 -21q33 -18 58 -18q15 0 35.5 10.5t42.5 28.5v-87q-15 -21 -37 -32.5t-46 -11.5q-32 0 -71 21zM353 46q-43 -57 -126 -57q-75 0 -119.5 49t-44.5 131v314h126v-288q0 -45 21.5 -70.5
t60.5 -25.5q38 0 60 26t22 70v288h126v-483h-126v46z" />
    <glyph glyph-name="Umacron" unicode="&#x16a;" horiz-adv-x="644" 
d="M469 865v-88h-293v88h293zM199 244q0 -63 33.5 -100t89.5 -37q57 0 90 36.5t33 100.5v436h133v-435q0 -78 -31.5 -136t-88.5 -89q-58 -31 -136 -31q-118 0 -186.5 68t-68.5 188v435h132v-436z" />
    <glyph glyph-name="umacron" unicode="&#x16b;" horiz-adv-x="547" 
d="M419 670v-89h-293v89h293zM353 46q-43 -57 -126 -57q-75 0 -119.5 49t-44.5 131v314h126v-288q0 -45 21.5 -70.5t60.5 -25.5q38 0 60 26t22 70v288h126v-483h-126v46z" />
    <glyph glyph-name="Ubreve" unicode="&#x16c;" horiz-adv-x="644" 
d="M213.5 786.5q-41.5 37.5 -41.5 99.5h73q12 -54 77 -54q63 0 76 54h74q-3 -63 -43.5 -100t-106.5 -37q-67 0 -108.5 37.5zM135.5 57q-68.5 68 -68.5 188v435h132v-436q0 -63 33.5 -100t89.5 -37q57 0 90 36.5t33 100.5v436h133v-435q0 -78 -31.5 -136t-88.5 -89
q-58 -31 -136 -31q-118 0 -186.5 68z" />
    <glyph glyph-name="ubreve" unicode="&#x16d;" horiz-adv-x="547" 
d="M197 687q12 -54 76 -54t77 54h73q-2 -63 -43 -100t-107 -37t-108 38.5t-41 98.5h73zM353 46q-43 -57 -126 -57q-75 0 -119.5 49t-44.5 131v314h126v-288q0 -45 21.5 -70.5t60.5 -25.5q38 0 60 26t22 70v288h126v-483h-126v46z" />
    <glyph glyph-name="Uring" unicode="&#x16e;" horiz-adv-x="644" 
d="M425 820q0 -45 -30 -74q-28 -30 -74 -30q-43 0 -73 29.5t-30 74.5q0 43 30 73t74 30q43 0 73 -30t30 -73zM369 819q0 21 -13.5 35.5t-34.5 14.5t-34 -14.5t-13 -35.5t13 -35t34 -14q23 0 37 17q11 14 11 32zM199 244q0 -63 33.5 -100t89.5 -37q57 0 90 36.5t33 100.5v436
h133v-435q0 -78 -31.5 -136t-88.5 -89q-58 -31 -136 -31q-118 0 -186.5 68t-68.5 188v435h132v-436z" />
    <glyph glyph-name="uring" unicode="&#x16f;" horiz-adv-x="547" 
d="M376 629q0 -44 -30 -73.5t-73 -29.5q-46 0 -74 30q-30 29 -30 73q0 45 30 74.5t73 29.5q46 0 74 -30q30 -30 30 -74zM273 679q-21 0 -34.5 -14.5t-13.5 -36.5q0 -19 13.5 -34t33.5 -15q21 0 34.5 15t13.5 36q0 18 -11 32q-14 17 -36 17zM479 0h-126v46q-43 -57 -126 -57
q-75 0 -119.5 49t-44.5 131v314h126v-288q0 -45 21.5 -70.5t60.5 -25.5q38 0 60 26t22 70v288h126v-483z" />
    <glyph glyph-name="Uhungarumlaut" unicode="&#x170;" horiz-adv-x="644" 
d="M367 889l-90 -148h-95l76 148h109zM532 889l-91 -148h-95l76 148h110zM199 244q0 -63 33.5 -100t89.5 -37q57 0 90 36.5t33 100.5v436h133v-435q0 -78 -31.5 -136t-88.5 -89q-58 -31 -136 -31q-118 0 -186.5 68t-68.5 188v435h132v-436z" />
    <glyph glyph-name="uhungarumlaut" unicode="&#x171;" horiz-adv-x="547" 
d="M324 700l-90 -148h-95l76 148h109zM489 700l-91 -148h-95l76 148h110zM353 46q-43 -57 -126 -57q-75 0 -119.5 49t-44.5 131v314h126v-288q0 -45 21.5 -70.5t60.5 -25.5q38 0 60 26t22 70v288h126v-483h-126v46z" />
    <glyph glyph-name="Uogonek" unicode="&#x172;" horiz-adv-x="644" 
d="M578 680v-435q0 -101 -51.5 -167t-142.5 -83q-30 -11 -43.5 -24.5t-13.5 -32.5q0 -20 13 -27.5t43 -6.5l-1 -82q-69 0 -108.5 25.5t-39.5 75.5q0 44 32 70q-94 16 -146.5 82t-52.5 170v435h132v-436q0 -63 33.5 -100t89.5 -37q57 0 90 36.5t33 100.5v436h133z" />
    <glyph glyph-name="uogonek" unicode="&#x173;" horiz-adv-x="547" 
d="M479 483v-483h-1q-45 -14 -59 -28q-16 -15 -16 -34q0 -20 13 -27.5t43 -6.5v-82q-70 0 -109 25.5t-39 75.5q0 51 41 77h1v46q-43 -57 -126 -57q-75 0 -119.5 49t-44.5 131v314h126v-288q0 -45 21.5 -70.5t60.5 -25.5q38 0 60 26t22 70v288h126z" />
    <glyph glyph-name="Wcircumflex" unicode="&#x174;" horiz-adv-x="846" 
d="M468 898l118 -148h-95l-66 68l-65 -68h-96l117 148h87zM837 680l-176 -680h-107l-128 458l-129 -458h-107l-176 680h132l106 -457l125 457h97l129 -457l103 457h131z" />
    <glyph glyph-name="wcircumflex" unicode="&#x175;" horiz-adv-x="758" 
d="M426 701l117 -148h-95l-66 67l-65 -67h-96l117 148h88zM743 483l-159 -483h-109l-92 308l-94 -308h-108l-160 483h130l91 -317l91 317h99l95 -317l86 317h130z" />
    <glyph glyph-name="Ycircumflex" unicode="&#x176;" horiz-adv-x="552" 
d="M118 750l117 148h87l118 -148h-95l-66 68l-65 -68h-96zM282 411l135 269h133l-204 -405v-275h-132v275l-204 405h137z" />
    <glyph glyph-name="ycircumflex" unicode="&#x177;" horiz-adv-x="496" 
d="M93 553l117 148h88l117 -148h-95l-66 67l-65 -67h-96zM294 -36q-21 -56 -43 -86.5t-51 -43.5q-33 -14 -73 -14h-42v109h29q27 0 43 12.5t26 40.5l14 39l-182 462h134l107 -310l101 310h131z" />
    <glyph glyph-name="Ydieresis" unicode="&#x178;" horiz-adv-x="552" 
d="M128 765v112h102v-112h-102zM330 765v112h101v-112h-101zM282 411l135 269h133l-204 -405v-275h-132v275l-204 405h137z" />
    <glyph glyph-name="Zacute" unicode="&#x179;" horiz-adv-x="539" 
d="M412 888l-113 -147h-103l88 147h128zM497 119v-119h-454v114l304 448h-293v118h443v-113l-304 -448h304z" />
    <glyph glyph-name="zacute" unicode="&#x17a;" horiz-adv-x="488" 
d="M395 701l-113 -148h-103l88 148h128zM198 107h241v-107h-390v98l243 279h-230v106h377v-103z" />
    <glyph glyph-name="Zdotaccent" unicode="&#x17b;" horiz-adv-x="539" 
d="M326 877v-112h-114v112h114zM497 119v-119h-454v114l304 448h-293v118h443v-113l-304 -448h304z" />
    <glyph glyph-name="zdotaccent" unicode="&#x17c;" horiz-adv-x="488" 
d="M304 680v-113h-114v113h114zM198 107h241v-107h-390v98l243 279h-230v106h377v-103z" />
    <glyph glyph-name="Zcaron" unicode="&#x17d;" horiz-adv-x="539" 
d="M270 828l66 67h95l-117 -147h-88l-117 147h95zM497 119v-119h-454v114l304 448h-293v118h443v-113l-304 -448h304z" />
    <glyph glyph-name="zcaron" unicode="&#x17e;" horiz-adv-x="488" 
d="M247 630l66 68h95l-117 -147h-88l-117 147h95zM198 107h241v-107h-390v98l243 279h-230v106h377v-103z" />
    <glyph glyph-name="florin" unicode="&#x192;" 
d="M347 319l-50 -333q-15 -91 -56 -128.5t-124 -37.5h-40v107h28q35 0 50 12.5t20 47.5l50 332h-73v94h88l16 104q14 87 55.5 125t122.5 38h42v-107h-31q-31 0 -46.5 -13.5t-20.5 -44.5l-16 -102h92v-94h-107z" />
    <glyph glyph-name="Scommaaccent" unicode="&#x218;" horiz-adv-x="591" 
d="M153 15q-34 12 -65 31.5t-54 42.5l82 95q92 -78 190 -78q55 0 87 24.5t32 65.5q0 36 -26 56t-88 29l-36 5q-210 29 -210 199q0 95 64.5 150.5t170.5 55.5q70 0 126.5 -18t106.5 -57l-65 -99q-40 27 -84.5 42t-84.5 15q-47 0 -73 -22.5t-26 -59.5q0 -34 28 -54.5t87 -29.5
l36 -5q209 -29 209 -201q0 -99 -69.5 -156t-192.5 -57q-73 0 -145 26zM357 -52v-97l-112 -103v200h112z" />
    <glyph glyph-name="scommaaccent" unicode="&#x219;" horiz-adv-x="502" 
d="M138 9q-54 20 -99 62l73 81q36 -30 75.5 -45.5t77.5 -15.5q40 0 61 13.5t21 38.5q0 22 -16.5 32.5t-57.5 14.5l-53 6q-76 8 -114.5 44.5t-38.5 100.5q0 72 51 112.5t142 40.5q113 0 196 -65l-65 -80q-63 45 -136 45q-33 0 -50 -12t-17 -33t16 -31.5t57 -14.5l52 -5
q77 -7 116 -43.5t39 -100.5q0 -76 -55.5 -120.5t-153.5 -44.5q-67 0 -121 20zM315 -52v-97l-112 -103v200h112z" />
    <glyph glyph-name="uni021A" unicode="&#x21a;" horiz-adv-x="554" 
d="M343 562v-562h-132v562h-191v118h514v-118h-191zM333 -52v-97l-112 -103v200h112z" />
    <glyph glyph-name="uni021B" unicode="&#x21b;" horiz-adv-x="326" 
d="M221 -6q-77 0 -110.5 36t-33.5 115v243h-47v95h47v152h125v-152h79v-95h-79v-238q0 -25 10.5 -35.5t34.5 -10.5h34v-110h-60zM240 -52v-97l-112 -103v200h112z" />
    <glyph glyph-name="uni0237" unicode="&#x237;" horiz-adv-x="262" 
d="M-18 -180v109h31q31 0 43 12t12 44v498h126v-496q0 -167 -171 -167h-41z" />
    <glyph glyph-name="circumflex" unicode="&#x2c6;" horiz-adv-x="438" 
d="M264 701l117 -148h-95l-66 67l-65 -67h-95l116 148h88z" />
    <glyph glyph-name="caron" unicode="&#x2c7;" horiz-adv-x="438" 
d="M220 630l66 68h95l-117 -148h-88l-117 148h95z" />
    <glyph glyph-name="breve" unicode="&#x2d8;" horiz-adv-x="438" 
d="M143 687q13 -55 76 -55q64 0 77 55h73q-2 -63 -43 -100t-107 -37q-67 0 -108.5 37.5t-40.5 99.5h73z" />
    <glyph glyph-name="dotaccent" unicode="&#x2d9;" horiz-adv-x="438" 
d="M276 680v-113h-114v113h114z" />
    <glyph glyph-name="ring" unicode="&#x2da;" horiz-adv-x="438" 
d="M323 630q0 -21 -8 -40.5t-22 -33.5q-30 -30 -74 -30t-74 29.5t-30 73.5t30 74t73 30q45 0 75 -30q30 -28 30 -73zM267 630q0 21 -13.5 35.5t-34.5 14.5t-34.5 -14.5t-13.5 -35.5t13.5 -35.5t34.5 -14.5q22 0 36 17q12 14 12 33z" />
    <glyph glyph-name="ogonek" unicode="&#x2db;" horiz-adv-x="438" 
d="M294 10q-48 -29 -58 -37q-17 -17 -17 -32q0 -20 13 -27.5t43 -6.5v-82q-70 0 -109 25.5t-39 75.5q0 49 54 84h113z" />
    <glyph glyph-name="tilde" unicode="&#x2dc;" horiz-adv-x="438" 
d="M208 578q-33 18 -57 18q-16 0 -37 -10t-41 -28v85q15 21 37.5 33t44.5 12q32 0 71 -21q33 -18 58 -18q15 0 37 11t41 28v-87q-15 -21 -37 -32.5t-46 -11.5q-32 0 -71 21z" />
    <glyph glyph-name="hungarumlaut" unicode="&#x2dd;" horiz-adv-x="438" 
d="M240 700l-91 -148h-95l76 148h110zM404 700l-90 -148h-95l76 148h109z" />
    <glyph glyph-name="uni0394" unicode="&#x394;" horiz-adv-x="638" 
d="M388 680l236 -680h-605l241 680h128zM322 506l-134 -398h268z" />
    <glyph glyph-name="uni03A9" unicode="&#x3a9;" horiz-adv-x="635" 
d="M51 0v115h73q-41 33 -57 82.5t-16 142.5q0 89 10 145.5t34 94.5q31 51 87 81t136 30q93 0 157 -43t90 -124q19 -53 19 -184q0 -93 -16.5 -144t-57.5 -81h75v-115h-228v114q47 14 70 69t23 157q0 94 -8.5 137.5t-34.5 68.5q-28 27 -89 27q-56 0 -85.5 -24t-38.5 -74
q-8 -54 -8 -135q0 -109 21 -161.5t71 -64.5v-114h-227z" />
    <glyph glyph-name="uni03BC" unicode="&#x3bc;" horiz-adv-x="591" 
d="M331 7.5q-29 -16.5 -72 -16.5q-47 0 -65 25v-196h-126v663h126v-288q0 -45 21.5 -70.5t60.5 -25.5q40 0 63.5 27.5t23.5 73.5v283h126v-340q0 -26 7 -32.5t32 -6.5v-110h-31q-54 0 -78 14t-39 52q-20 -36 -49 -52.5z" />
    <glyph glyph-name="pi" unicode="&#x3c0;" horiz-adv-x="599" 
d="M505 -6q-72 0 -104.5 34.5t-32.5 110.5v234h-149v-373h-125v373h-64v110h529v-110h-65v-229q0 -22 7.5 -31t25.5 -9h20v-110h-42z" />
    <glyph glyph-name="Wgrave" unicode="&#x1e80;" horiz-adv-x="846" 
d="M391 888l87 -148h-103l-112 148h128zM837 680l-176 -680h-107l-128 458l-129 -458h-107l-176 680h132l106 -457l125 457h97l129 -457l103 457h131z" />
    <glyph glyph-name="wgrave" unicode="&#x1e81;" horiz-adv-x="758" 
d="M346 701l87 -148h-102l-113 148h128zM743 483l-159 -483h-109l-92 308l-94 -308h-108l-160 483h130l91 -317l91 317h99l95 -317l86 317h130z" />
    <glyph glyph-name="Wacute" unicode="&#x1e82;" horiz-adv-x="846" 
d="M593 888l-112 -147h-104l88 147h128zM837 680l-176 -680h-107l-128 458l-129 -458h-107l-176 680h132l106 -457l125 457h97l129 -457l103 457h131z" />
    <glyph glyph-name="wacute" unicode="&#x1e83;" horiz-adv-x="758" 
d="M549 701l-113 -148h-103l88 148h128zM743 483l-159 -483h-109l-92 308l-94 -308h-108l-160 483h130l91 -317l91 317h99l95 -317l86 317h130z" />
    <glyph glyph-name="Wdieresis" unicode="&#x1e84;" horiz-adv-x="846" 
d="M273 765v112h102v-112h-102zM475 765v112h101v-112h-101zM603 223l103 457h131l-176 -680h-107l-128 458l-129 -458h-107l-176 680h132l106 -457l125 457h97z" />
    <glyph glyph-name="wdieresis" unicode="&#x1e85;" horiz-adv-x="758" 
d="M230 567v113h101v-113h-101zM431 567v113h102v-113h-102zM527 166l86 317h130l-159 -483h-109l-92 308l-94 -308h-108l-160 483h130l91 -317l91 317h99z" />
    <glyph glyph-name="Ygrave" unicode="&#x1ef2;" horiz-adv-x="552" 
d="M256 888l87 -148h-103l-112 148h128zM282 411l135 269h133l-204 -405v-275h-132v275l-204 405h137z" />
    <glyph glyph-name="ygrave" unicode="&#x1ef3;" horiz-adv-x="496" 
d="M216 553l-113 148h128l87 -148h-102zM294 -36q-21 -56 -43 -86.5t-51 -43.5q-33 -14 -73 -14h-42v109h29q27 0 43 12.5t26 40.5l14 39l-182 462h134l107 -311l101 311h130z" />
    <glyph glyph-name="uni2010" unicode="&#x2010;" horiz-adv-x="389" 
d="M345 321v-111h-301v111h301z" />
    <glyph glyph-name="endash" unicode="&#x2013;" horiz-adv-x="527" 
d="M20 318h487v-105h-487v105z" />
    <glyph glyph-name="emdash" unicode="&#x2014;" horiz-adv-x="881" 
d="M20 318h841v-105h-841v105z" />
    <glyph glyph-name="quoteleft" unicode="&#x2018;" horiz-adv-x="227" 
d="M59 477v118l110 93v-211h-110z" />
    <glyph glyph-name="quoteright" unicode="&#x2019;" horiz-adv-x="227" 
d="M169 680v-123l-110 -94v217h110z" />
    <glyph glyph-name="quotesinglbase" unicode="&#x201a;" horiz-adv-x="227" 
d="M169 112v-123l-110 -94v217h110z" />
    <glyph glyph-name="quotedblleft" unicode="&#x201c;" horiz-adv-x="407" 
d="M59 472v124l110 92v-216h-110zM238 472v124l110 92v-216h-110z" />
    <glyph glyph-name="quotedblright" unicode="&#x201d;" horiz-adv-x="407" 
d="M59 463v217h110v-123zM238 463v217h110v-123z" />
    <glyph glyph-name="quotedblbase" unicode="&#x201e;" horiz-adv-x="407" 
d="M59 -105v218h110v-124zM238 -105v218h110v-124z" />
    <glyph glyph-name="dagger" unicode="&#x2020;" horiz-adv-x="542" 
d="M332 348v-528h-122v528h-160v108h160v224h122v-224h160v-108h-160z" />
    <glyph glyph-name="daggerdbl" unicode="&#x2021;" horiz-adv-x="542" 
d="M332 13v-193h-122v193h-160v108h160v258h-160v109h160v192h122v-192h160v-109h-160v-258h160v-108h-160z" />
    <glyph glyph-name="bullet" unicode="&#x2022;" horiz-adv-x="467" 
d="M129 204.5q-40 40.5 -40 103.5q0 65 40.5 105t103.5 40q64 0 104.5 -41t40.5 -104t-41 -103.5t-104 -40.5q-64 0 -104 40.5z" />
    <glyph glyph-name="ellipsis" unicode="&#x2026;" horiz-adv-x="768" 
d="M193 131v-131h-130v131h130zM449 131v-131h-130v131h130zM705 131v-131h-130v131h130z" />
    <glyph glyph-name="perthousand" unicode="&#x2030;" horiz-adv-x="1113" 
d="M244 -11h-95l407 702h95zM115.5 352q-33.5 22 -45.5 59q-9 26 -9 98q0 52 4.5 80t16.5 45q10 15 34 32q31 22 79 22q46 0 79.5 -21.5t46.5 -59.5q8 -30 8 -98q0 -50 -4.5 -78.5t-15.5 -46t-34 -32.5q-34 -22 -80 -22t-79.5 22zM224.5 413q8.5 7 11.5 27q2 34 2 69
q0 37 -2 71q-3 19 -11.5 26t-29.5 7t-29.5 -7t-10.5 -27q-3 -19 -3 -70q0 -49 3 -69q2 -20 10.5 -27t29.5 -7t29.5 7zM469 170q0 64 8 98q13 38 46.5 59.5t79.5 21.5t79.5 -21.5t46.5 -59.5q8 -34 8 -98q0 -63 -8 -97q-13 -38 -46.5 -60t-79.5 -22t-79.5 22t-46.5 60
q-8 34 -8 97zM784 170q0 73 11 105t44 53q35 21 80 21q46 0 79.5 -22t45.5 -59q9 -25 9 -98q0 -50 -4.5 -78.5t-15.5 -46t-34 -32.5q-34 -22 -80 -22t-80 22t-46 60q-9 27 -9 97zM603 67q21 0 29.5 7t11.5 27q2 34 2 69q0 37 -2 71q-3 19 -11.5 26t-29.5 7t-29.5 -7
t-10.5 -27q-3 -19 -3 -70q0 -70 4 -77q9 -26 39 -26zM919 67q21 0 29.5 7t11.5 27q2 34 2 69q0 36 -2 70q-3 20 -11.5 27t-29.5 7t-30 -7.5t-11 -27.5q-3 -21 -3 -69q0 -70 4 -77q9 -26 40 -26z" />
    <glyph glyph-name="guilsinglleft" unicode="&#x2039;" horiz-adv-x="317" 
d="M261 166v-131l-229 229l229 229v-131l-99 -98z" />
    <glyph glyph-name="guilsinglright" unicode="&#x203a;" horiz-adv-x="317" 
d="M64 493l229 -229l-229 -229v131l98 98l-98 98v131z" />
    <glyph glyph-name="uni203D" unicode="&#x203d;" horiz-adv-x="469" 
d="M381 644q53 -47 53 -125q0 -65 -50 -136l-93 -131v-57h-125l-25 290h124l-2 -105l25 40q15 24 21 44t6 45q0 37 -21 57t-60 20q-65 0 -85 -57l-116 19q32 143 205 143q90 0 143 -47zM163 0v128h130v-128h-130z" />
    <glyph glyph-name="fraction" unicode="&#x2044;" horiz-adv-x="163" 
d="M339 691l-407 -702h-96l408 702h95z" />
    <glyph glyph-name="Euro" unicode="&#x20ac;" 
d="M181 25.5q-53 36.5 -76 107.5q-13 38 -13 105h-53v80h53v49h-53v80h53q0 74 21 125t67 83q53 36 133 36q145 0 203 -129l-103 -48q-36 68 -99 68q-53 0 -74 -32.5t-21 -102.5h192l-14 -80h-178v-49h172l-14 -80h-158q0 -75 20.5 -107.5t74.5 -32.5q62 0 99 69l103 -48
q-58 -130 -203 -130q-79 0 -132 36.5z" />
    <glyph glyph-name="uni2105" unicode="&#x2105;" horiz-adv-x="798" 
d="M145 -11l407 702h96l-407 -702h-96zM324 621l-66 -48q-20 33 -54 33q-32 0 -44.5 -22t-12.5 -74q0 -54 12.5 -77.5t44.5 -23.5q34 0 54 33l67 -47q-44 -65 -124 -65q-52 0 -89 24.5t-50 69.5q-10 24 -10 86q0 61 13.5 95t46.5 57q38 24 89 24q79 0 123 -65zM690.5 323
q36.5 -25 49.5 -69q11 -44 11 -85q0 -114 -62 -155q-34 -25 -86 -25t-89 25t-50 69q-10 31 -10 86q0 59 14 95t46 59q37 25 89 25q51 0 87.5 -25zM558 245q-12 -23 -12 -76q0 -55 12 -77.5t45 -22.5q32 0 43.5 22.5t11.5 77.5q0 56 -11.5 77.5t-44.5 21.5q-32 0 -44 -23z
" />
    <glyph glyph-name="uni2113" unicode="&#x2113;" horiz-adv-x="454" 
d="M29 214l94 70v198q0 102 40 155.5t117 53.5q64 0 102 -40t38 -109q0 -75 -43 -148.5t-133 -151.5v-91q0 -55 42 -55q30 0 65 32l52 -76q-61 -63 -143 -63q-137 0 -137 161v17l-40 -29zM244 372q75 80 75 170q0 56 -35 56q-21 0 -30 -22q-10 -19 -10 -76v-128z" />
    <glyph glyph-name="uni2117" unicode="&#x2117;" horiz-adv-x="819" 
d="M409 -11q-98 0 -178.5 46t-126.5 127q-46 79 -46 178q0 98 46 178.5t127 126.5q79 46 178 46t179.5 -45.5t126.5 -126.5q46 -79 46 -179q0 -149 -101 -250t-251 -101zM409 67q75 0 137 35.5t98 98.5q35 62 35 139t-34.5 139.5t-96.5 98.5q-62 35 -139 35q-75 0 -137 -35
t-97 -98q-35 -65 -35 -140q0 -115 77 -195q77 -78 192 -78zM276 527h146q160 0 160 -125q0 -139 -160 -139h-50v-124h-96v388zM405 340q46 0 66.5 13t20.5 45q0 29 -20.5 41.5t-66.5 12.5h-33v-112h33z" />
    <glyph glyph-name="trademark" unicode="&#x2122;" horiz-adv-x="847" 
d="M244 602v-316h-90v316h-114v78h317v-78h-113zM794 680v-394h-83v215l-72 -158h-63l-72 158v-215h-84v394h80l109 -237l105 237h80z" />
    <glyph glyph-name="uni2126" unicode="&#x2126;" horiz-adv-x="635" 
d="M475 648q64 -43 90 -124q19 -53 19 -184q0 -93 -16.5 -144t-57.5 -81h75v-115h-228v114q47 14 70 69t23 157q0 94 -8.5 137.5t-34.5 68.5q-28 27 -89 27q-56 0 -85.5 -24t-38.5 -74q-8 -54 -8 -135q0 -109 21 -161.5t71 -64.5v-114h-227v115h73q-41 33 -57 82.5
t-16 142.5q0 89 10 145.5t34 94.5q31 51 87 81t136 30q93 0 157 -43z" />
    <glyph glyph-name="estimated" unicode="&#x212e;" horiz-adv-x="593" 
d="M173.5 22q-53.5 33 -83.5 92t-30 129q0 72 29.5 129t83.5 90q53 32 122 32q107 0 171 -70q66 -69 67 -181h-370v-167q52 -52 132 -52q113 0 176 110l33 -21q-45 -67 -92.5 -95.5t-116.5 -28.5q-68 0 -121.5 33zM429 408q-59 56 -134 56q-79 0 -132 -56v-132h266v132z" />
    <glyph glyph-name="partialdiff" unicode="&#x2202;" horiz-adv-x="548" 
d="M143 15.5q-46 26.5 -73 74.5q-26 47 -26 108q0 63 26.5 114.5t74.5 79.5q46 28 108 28q82 0 134 -52q-1 103 -36.5 159.5t-100.5 56.5q-57 0 -112 -45l-57 86q76 66 175 66q118 0 183 -86.5t65 -244.5q0 -114 -30 -197.5t-86.5 -128.5t-136.5 -45q-62 0 -108 26.5z
M343.5 144.5q30.5 45.5 38.5 133.5q-46 40 -110 40q-51 0 -80 -30.5t-29 -86.5q0 -46 27 -74t71 -28q52 0 82.5 45.5z" />
    <glyph glyph-name="uni2206" unicode="&#x2206;" horiz-adv-x="638" 
d="M388 680l236 -680h-605l241 680h128zM322 506l-134 -398h268z" />
    <glyph glyph-name="product" unicode="&#x220f;" horiz-adv-x="668" 
d="M593 740v-920h-132v802h-254v-802h-132v920h518z" />
    <glyph glyph-name="summation" unicode="&#x2211;" horiz-adv-x="541" 
d="M504 -62v-118h-466v109l177 389l-173 308v114h452v-118h-302l163 -295l-176 -389h325z" />
    <glyph glyph-name="minus" unicode="&#x2212;" 
d="M53 330h447v-108h-447v108z" />
    <glyph glyph-name="uni2215" unicode="&#x2215;" horiz-adv-x="163" 
d="M339 691l-407 -702h-96l408 702h95z" />
    <glyph glyph-name="uni2219" unicode="&#x2219;" horiz-adv-x="256" 
d="M193 331v-131h-130v131h130z" />
    <glyph glyph-name="radical" unicode="&#x221a;" horiz-adv-x="645" 
d="M636 740l-254 -920h-103l-135 273l-72 -35l-42 84l169 82l119 -251l206 767h112z" />
    <glyph glyph-name="infinity" unicode="&#x221e;" horiz-adv-x="758" 
d="M379 179q-91 -97 -181 -97q-72 0 -117 45.5t-45 118.5q0 72 46 118.5t118 46.5q83 0 179 -100q52 54 93 77t87 23q47 0 84.5 -21t58.5 -59q21 -37 21 -85q0 -72 -46 -118t-117 -46q-90 0 -181 97zM253.5 185.5q26.5 18.5 66.5 61.5q-39 44 -65 62t-51 18q-35 0 -57 -22.5
t-22 -56.5q0 -35 22 -58t57 -23q23 0 49.5 18.5zM611.5 189.5q21.5 22.5 21.5 58.5t-21 57.5t-57 21.5q-24 0 -51 -18.5t-66 -62.5q41 -45 66.5 -62t50.5 -17q35 0 56.5 22.5z" />
    <glyph glyph-name="integral" unicode="&#x222b;" horiz-adv-x="437" 
d="M55 -176v109q28 -5 42 -5q31 0 45 19t14 64v520q0 111 39.5 160t126.5 49q39 0 60 -4v-108q-17 4 -41 4q-32 0 -46 -19t-14 -63v-520q0 -111 -39.5 -160.5t-126.5 -49.5q-47 0 -60 4z" />
    <glyph glyph-name="approxequal" unicode="&#x2248;" 
d="M299 421q37 -25 65 -25q42 0 72 58l78 -47q-21 -51 -61 -81t-86 -30q-50 0 -105 36q-37 25 -66 25q-42 0 -71 -59l-78 48q21 51 61 80.5t86 29.5t105 -35zM299 220q37 -25 65 -25q44 0 72 58l78 -48q-21 -51 -61 -80.5t-86 -29.5q-49 0 -105 35q-37 25 -66 25
q-43 0 -71 -58l-78 47q21 51 61 81t86 30t105 -35z" />
    <glyph glyph-name="notequal" unicode="&#x2260;" 
d="M300 228h200v-108h-252l-53 -109h-96l53 109h-99v108h152l47 97h-199v108h252l53 109h95l-53 -109h100v-108h-153z" />
    <glyph glyph-name="lessequal" unicode="&#x2264;" 
d="M500 274v-118l-447 179v95l447 179v-118l-289 -109zM53 109h447v-109h-447v109z" />
    <glyph glyph-name="greaterequal" unicode="&#x2265;" 
d="M500 430v-95l-447 -179v118l289 108l-289 109v118zM53 109h447v-109h-447v109z" />
    <glyph glyph-name="lozenge" unicode="&#x25ca;" horiz-adv-x="562" 
d="M521 329l-182 -381h-110l-182 381l182 381h110zM284 595l-119 -266l121 -266l117 266z" />
    <glyph glyph-name="f_i" unicode="&#xf001;" horiz-adv-x="596" 
d="M85 388h-47v95h47v33q0 84 40.5 124t124.5 40h59v-107h-41q-35 0 -46.5 -11t-11.5 -44v-35h99v-95h-99v-388h-125v388zM528 680v-113h-126v113h126zM528 483v-483h-126v483h126z" />
    <glyph glyph-name="f_l" unicode="&#xf002;" horiz-adv-x="631" 
d="M85 388h-47v95h47v33q0 84 40.5 124t124.5 40h59v-107h-41q-35 0 -46.5 -11t-11.5 -44v-35h99v-95h-99v-388h-125v388zM541 -6q-75 0 -108 35t-33 111v540h126v-531q0 -24 10 -34.5t32 -10.5h31v-110h-58z" />
    <glyph glyph-name="uniF8FF" unicode="&#xf8ff;" horiz-adv-x="495" 
d="M495 0h-495v680h495v-680zM431 620h-367v-560h367v560zM196 274q0 30 18 55l48 65q22 28 22 52q0 20 -12.5 33t-31.5 13q-22 0 -35 -12t-20 -41l-76 13q9 54 44 82.5t90 28.5q54 0 88.5 -32.5t34.5 -82.5q0 -43 -29 -78l-47 -66q-13 -16 -13 -39v-25h-81v34zM279 114h-85
v83h85v-83z" />
    <glyph glyph-name="f_f" unicode="&#xfb00;" horiz-adv-x="667" 
d="M85 388h-47v95h47v33q0 84 40.5 124t124.5 40h59v-107h-41q-35 0 -46.5 -11t-11.5 -44v-35h99v-95h-99v-388h-125v388zM418 388h-47v95h47v33q0 84 40.5 124t124.5 40h60v-107h-41q-35 0 -46.5 -11t-11.5 -44v-35h98v-95h-98v-388h-126v388z" />
    <glyph glyph-name="fi" unicode="&#xfb01;" horiz-adv-x="596" 
d="M85 388h-47v95h47v33q0 84 40.5 124t124.5 40h59v-107h-41q-34 0 -46 -11.5t-12 -43.5v-35h99v-95h-99v-388h-125v388zM528 680v-113h-126v113h126zM528 483v-483h-126v483h126z" />
    <glyph glyph-name="fl" unicode="&#xfb02;" horiz-adv-x="631" 
d="M85 388h-47v95h47v33q0 84 40.5 124t124.5 40h59v-107h-41q-35 0 -46.5 -11t-11.5 -44v-35h99v-95h-99v-388h-125v388zM541 -6q-75 0 -108 35t-33 111v540h126v-531q0 -24 10 -34.5t32 -10.5h31v-110h-58z" />
    <glyph glyph-name="f_f_i" unicode="&#xfb03;" horiz-adv-x="929" 
d="M85 388h-47v95h47v33q0 84 40.5 124t124.5 40h59v-107h-41q-35 0 -46.5 -11t-11.5 -44v-35h99v-95h-99v-388h-125v388zM418 388h-47v95h47v33q0 84 40.5 124t124.5 40h60v-107h-41q-35 0 -46.5 -11t-11.5 -44v-35h98v-95h-98v-388h-126v388zM861 680v-113h-126v113h126z
M861 483v-483h-126v483h126z" />
    <glyph glyph-name="f_f_l" unicode="&#xfb04;" horiz-adv-x="965" 
d="M85 388h-47v95h47v33q0 84 40.5 124t124.5 40h59v-107h-41q-35 0 -46.5 -11t-11.5 -44v-35h99v-95h-99v-388h-125v388zM418 388h-47v95h47v33q0 84 40.5 124t124.5 40h60v-107h-41q-33 0 -44 -9q-8 -6 -11 -16.5t-3 -29.5v-35h98v-95h-98v-388h-126v388zM874 -6
q-75 0 -108 35t-33 111v540h126v-531q0 -24 10.5 -34.5t31.5 -10.5h32v-110h-59z" />
    </font>
</defs>
</svg>
