<?xml version="1.0" standalone="no"?>
<!DOCTYPE svg PUBLIC "-//W3C//DTD SVG 1.1//EN" "http://www.w3.org/Graphics/SVG/1.1/DTD/svg11.dtd" >
<svg xmlns="http://www.w3.org/2000/svg" xmlns:xlink="http://www.w3.org/1999/xlink" version="1.1">
<metadata>
Created by FontForge 20170731 at Tue Oct 31 12:58:24 2017
 By Aleksey,,,
</metadata>
<defs>
<font id="AlJazeera-Latin-20UltraThin" horiz-adv-x="524" >
  <font-face 
    font-family="Al Jazeera-Latin 20 Ultra Thin"
    font-weight="400"
    font-stretch="normal"
    units-per-em="1000"
    panose-1="0 0 3 0 0 0 0 0 0 0"
    ascent="800"
    descent="-200"
    x-height="475"
    cap-height="680"
    bbox="-139 -220 960 911"
    underline-thickness="50"
    underline-position="-150"
    unicode-range="U+000D-FB04"
  />
<missing-glyph horiz-adv-x="464" 
d="M0 0v680h464v-680h-464zM29 652v-624h406v624h-406zM212 252q0 46 24 73l30 37q45 48 45 93q0 36 -23 58.5t-61 22.5q-37 0 -60.5 -22.5t-30.5 -65.5l-25 6q4 46 37.5 77t78.5 31q49 0 79 -30t30 -77q0 -51 -44 -104l-31 -36q-23 -32 -23 -62v-35h-26v34zM205 113v49h38
v-49h-38z" />
    <glyph glyph-name=".notdef" horiz-adv-x="464" 
d="M0 0v680h464v-680h-464zM29 652v-624h406v624h-406zM212 252q0 46 24 73l30 37q45 48 45 93q0 36 -23 58.5t-61 22.5q-37 0 -60.5 -22.5t-30.5 -65.5l-25 6q4 46 37.5 77t78.5 31q49 0 79 -30t30 -77q0 -51 -44 -104l-31 -36q-23 -32 -23 -62v-35h-26v34zM205 113v49h38
v-49h-38z" />
    <glyph glyph-name=".null" horiz-adv-x="0" 
 />
    <glyph glyph-name="nonmarkingreturn" horiz-adv-x="333" 
 />
    <glyph glyph-name="NULL" horiz-adv-x="500" 
 />
    <glyph glyph-name="NULL" horiz-adv-x="500" 
 />
    <glyph glyph-name="CR.001" unicode="&#xd;" horiz-adv-x="0" 
 />
    <glyph glyph-name="space" unicode=" " horiz-adv-x="251" 
 />
    <glyph glyph-name="exclam" unicode="!" horiz-adv-x="246" 
d="M136 171h-25l-9 509h41zM102 0v70h43v-70h-43z" />
    <glyph glyph-name="quotedbl" unicode="&#x22;" horiz-adv-x="299" 
d="M109 536h-28v144h28v-144zM218 536h-28v144h28v-144z" />
    <glyph glyph-name="numbersign" unicode="#" horiz-adv-x="520" 
d="M387 680h29l-29 -205h103v-29h-107l-27 -195h111v-27h-114l-30 -224h-30l31 224h-167l-31 -224h-29l31 224h-97v27h100l27 195h-103v29h107l29 205h29l-29 -205h167zM327 251l27 195h-167l-27 -195h167z" />
    <glyph glyph-name="dollar" unicode="$" 
d="M422.5 47.5q-46.5 -49.5 -133.5 -56.5v-62h-29v61q-109 1 -191 59l16 23q93 -53 175 -54v313q-171 29 -171 176q0 79 47 128.5t124 53.5v62h29v-62q43 -2 77.5 -12.5t72.5 -33.5l-13 -24q-71 38 -137 42v-306q180 -19 180 -174q0 -84 -46.5 -133.5zM148.5 408
q34.5 -36 111.5 -49v302q-64 -2 -105 -44t-41 -107q0 -66 34.5 -102zM289 19q75 7 115 48t40 111q0 68 -38 104t-117 45v-308z" />
    <glyph glyph-name="percent" unicode="%" horiz-adv-x="764" 
d="M165 -9l405 699h27l-405 -699h-27zM145.5 347q-24.5 17 -36.5 54q-8 43 -8 108t8 108q12 37 36.5 54t66.5 17q78 0 101 -71q8 -43 8 -108t-8 -108q-11 -34 -37 -52.5t-64 -18.5q-42 0 -66.5 17zM286 406q9 21 9 103t-9 103q-15 51 -74 51q-61 0 -76 -51q-8 -22 -8 -103
t8 -103q8 -26 26.5 -38t49.5 -12q59 0 74 50zM446 172q0 59 4 86q4 29 13 45.5t28 29.5q26 18 63 18q38 0 64.5 -18.5t36.5 -52.5q8 -32 8 -108q0 -56 -3 -86q-4 -29 -13 -45.5t-28 -29.5q-25 -19 -65 -19q-37 0 -63.5 18.5t-36.5 53.5q-8 26 -8 108zM554 18q36 0 55 16.5
t25 49.5q5 35 5 88q0 60 -6 90t-23 46q-19 16 -56 16q-36 0 -54.5 -16t-23.5 -48q-6 -31 -6 -88q0 -75 9 -104q17 -50 75 -50z" />
    <glyph glyph-name="ampersand" unicode="&#x26;" horiz-adv-x="604" 
d="M356.5 653.5q36.5 -36.5 36.5 -91.5q0 -41 -24 -79t-103 -107l175 -227l79 100l19 -15l-83 -107l59 -77q16 -22 38 -22h23v-28h-25q-20 0 -33.5 7.5t-26.5 26.5l-51 69q-51 -61 -94.5 -87t-96.5 -26q-75 0 -120.5 46.5t-45.5 121.5q0 54 35 108t112 115q-51 65 -79 108
q-23 38 -23 73q0 55 37.5 91.5t95.5 36.5q59 0 95.5 -36.5zM185 633.5q-30 -27.5 -30 -71.5q0 -23 9 -41.5t37 -55.5l48 -65q73 57 97 94q21 32 21 68q0 43 -30 71t-76 28t-76 -27.5zM245 359q-76 -64 -106 -108.5t-30 -92.5q0 -64 37.5 -102.5t100.5 -38.5q47 0 87.5 25
t89.5 83z" />
    <glyph glyph-name="quotesingle" unicode="'" horiz-adv-x="190" 
d="M81 680h28v-144h-28v144z" />
    <glyph glyph-name="parenleft" unicode="(" horiz-adv-x="268" 
d="M194 -84q-107 197 -107 412q0 212 107 412h26q-107 -203 -107 -412q0 -102 27.5 -208t79.5 -204h-26z" />
    <glyph glyph-name="parenright" unicode=")" horiz-adv-x="268" 
d="M53 -84q52 95 79.5 201t27.5 211t-27.5 212.5t-79.5 199.5h26q52 -94 79.5 -200t27.5 -212q0 -104 -27 -210t-78 -202h-28z" />
    <glyph glyph-name="asterisk" unicode="*" horiz-adv-x="356" 
d="M198 407h-25l-1 114l-100 -56l-11 21l98 58l-98 57l11 22l100 -58l1 115h24v-115l100 58l12 -22l-100 -57l100 -58l-12 -21l-100 57z" />
    <glyph glyph-name="plus" unicode="+" 
d="M276 84h-28v179h-176v26h176v179h28v-179h176v-26h-176v-179z" />
    <glyph glyph-name="comma" unicode="," horiz-adv-x="197" 
d="M80 70h37v-80l-37 -128v208z" />
    <glyph glyph-name="hyphen" unicode="-" horiz-adv-x="369" 
d="M318 254h-267v27h267v-27z" />
    <glyph glyph-name="period" unicode="." horiz-adv-x="203" 
d="M123 0h-43v71h43v-71z" />
    <glyph glyph-name="slash" unicode="/" horiz-adv-x="398" 
d="M103 -10h-28l227 700h27z" />
    <glyph glyph-name="zero" unicode="0" 
d="M81 340q0 188 15 233q18 55 62 86t104 31q61 0 105 -31t61 -86q15 -45 15 -233q0 -186 -15 -233q-17 -55 -61 -86t-105 -31q-60 0 -104 31t-62 86q-15 47 -15 233zM262 17q70 0 104 31t44 99q10 61 10 193q0 131 -10 194q-10 67 -44 98t-104 31t-104 -31t-44 -98
q-10 -63 -10 -194q0 -169 17 -225q33 -98 141 -98z" />
    <glyph glyph-name="one" unicode="1" 
d="M287 0h-25v639l-145 -103v36l149 108h21v-680z" />
    <glyph glyph-name="two" unicode="2" 
d="M352.5 668q39.5 -22 62.5 -61q22 -40 22 -91q0 -71 -71 -169l-238 -319h309v-28h-346v20l260 349q62 83 62 147q0 65 -42 105.5t-108 40.5q-63 0 -102 -37t-50 -108l-21 8q10 75 56.5 120t116.5 45q50 0 89.5 -22z" />
    <glyph glyph-name="three" unicode="3" 
d="M351 668.5q39 -21.5 62 -60.5q22 -40 22 -91q0 -54 -24 -92t-77 -69q52 -19 83.5 -66t31.5 -110q0 -81 -51 -137q-51 -53 -132 -53q-77 0 -125.5 39t-60.5 109l24 7q16 -65 55.5 -95.5t106.5 -30.5q71 0 114.5 44.5t43.5 116.5q0 46 -20.5 83t-56.5 58t-82 21h-42v28h42
q63 0 103.5 41.5t40.5 105.5q0 66 -39.5 105.5t-107.5 39.5q-63 0 -100.5 -32t-47.5 -92l-26 10q12 66 58.5 104t115.5 38q50 0 89 -21.5z" />
    <glyph glyph-name="four" unicode="4" horiz-adv-x="498" 
d="M336 152h-273v24l226 504h28l-225 -500h245v210h25v-210h103v-28h-103v-152h-25z" />
    <glyph glyph-name="five" unicode="5" 
d="M121 154q6 -64 46 -99.5t105 -35.5q118 0 139 94q8 43 8 104q0 68 -9.5 107t-38.5 65q-31 27 -96 27q-53 0 -92.5 -30t-48.5 -78h-24v372h321l-1 -28h-293v-285q12 33 51 55t86 22q61 0 98.5 -25.5t54.5 -79.5q16 -45 16 -122t-16.5 -124t-55.5 -74q-41 -29 -98 -29
q-77 0 -123.5 41.5t-53.5 115.5z" />
    <glyph glyph-name="six" unicode="6" 
d="M117 345l169 335h27l-163 -320q35 36 112 36q54 0 97.5 -25.5t68.5 -71.5q24 -46 24 -105q0 -89 -53 -148q-54 -56 -136 -56q-55 0 -98.5 25.5t-67.5 71.5q-24 47 -24 106q0 66 44 152zM381 319.5q-46 48.5 -118 48.5q-48 0 -85.5 -22t-58.5 -62q-22 -40 -22 -91
q0 -78 46.5 -126t119.5 -48q47 0 84.5 22t58.5 62q21 41 21 90q0 78 -46 126.5z" />
    <glyph glyph-name="seven" unicode="7" 
d="M188 0h-26l259 652h-292v-116h-28v144h346v-29z" />
    <glyph glyph-name="eight" unicode="8" 
d="M104.5 292q32.5 47 91.5 67q-50 20 -77.5 62t-27.5 97q0 73 48 124q48 48 123 48q50 0 88.5 -22t60.5 -62t22 -88q0 -54 -29.5 -98.5t-76.5 -60.5q57 -17 91 -65.5t34 -113.5q0 -54 -24 -97t-67 -68t-99 -25q-84 0 -137 53q-53 56 -53 137q0 65 32.5 112zM368 413.5
q41 40.5 41 103.5t-41 104t-106 41t-106 -41t-41 -104q0 -64 40.5 -104t106.5 -40q65 0 106 40.5zM142 64.5q46 -45.5 120 -45.5t120 45.5t46 115.5q0 47 -21 84.5t-59 59.5q-38 21 -86 21t-86 -21t-59 -59q-21 -37 -21 -85q0 -70 46 -115.5z" />
    <glyph glyph-name="nine" unicode="9" 
d="M372 321q-21 -20 -47 -28.5t-63 -8.5q-56 0 -99 25t-67 71q-24 47 -24 107t23.5 106t66.5 72q43 25 99 25q55 0 98 -25.5t68 -71.5q24 -46 24 -106q0 -65 -44 -151l-169 -336h-27zM117 396.5q21 -40.5 59 -62.5q37 -22 85 -22q47 0 85 22t60 62q21 41 21 92t-21.5 90.5
t-59.5 61.5q-37 22 -85 22q-47 0 -85 -22.5t-59 -61.5q-21 -40 -21 -90q0 -51 21 -91.5z" />
    <glyph glyph-name="colon" unicode=":" horiz-adv-x="211" 
d="M127 404h-43v71h43v-71zM84 0v71h43v-71h-43z" />
    <glyph glyph-name="semicolon" unicode=";" horiz-adv-x="211" 
d="M127 404h-43v71h43v-71zM82 -144v214h47v-72z" />
    <glyph glyph-name="less" unicode="&#x3c;" 
d="M452 110l-380 155v23l380 154v-28l-344 -138l344 -137v-29z" />
    <glyph glyph-name="equal" unicode="=" 
d="M452 359h-380v26h380v-26zM452 168h-380v26h380v-26z" />
    <glyph glyph-name="greater" unicode="&#x3e;" 
d="M452 265l-381 -155v29l344 137l-344 138v28l381 -155v-22z" />
    <glyph glyph-name="question" unicode="?" horiz-adv-x="437" 
d="M346 646q45 -44 45 -117q0 -46 -24 -90.5t-90 -123.5q-25 -29 -31.5 -47t-6.5 -54v-48h-26v48q0 64 35 105l99 129q8 15 13 38t5 44q0 60 -37.5 96t-100.5 36q-57 0 -95.5 -36.5t-49.5 -102.5l-25 7q9 72 55.5 116t114.5 44q74 0 119 -44zM209 71h34v-71h-34v71z" />
    <glyph glyph-name="at" unicode="@" horiz-adv-x="876" 
d="M640.5 610q89.5 -50 140.5 -140q50 -91 50 -203q0 -102 -39 -156t-109 -54q-41 0 -72.5 23.5t-42.5 62.5q-21 -44 -55 -65t-86 -21q-86 0 -119 53.5t-33 150.5q0 98 32.5 150.5t118.5 52.5q101 0 131 -65v57h27v-254q0 -53 28.5 -85t73.5 -32q56 0 87 46.5t31 135.5
q0 108 -45.5 190.5t-128.5 128.5q-82 46 -192 46q-108 0 -190.5 -45t-127.5 -128q-46 -82 -46 -192q0 -109 45.5 -192.5t128.5 -129.5q82 -46 190 -46q69 0 128.5 14t101.5 41l12 -24q-45 -29 -107 -44t-135 -15q-114 0 -202.5 50t-138.5 140q-50 89 -50 206
q0 115 49.5 204.5t138.5 139.5q88 49 203 49q113 0 202.5 -50zM314 358q-12 -34 -12 -97t12 -96q24 -79 115 -79q54 0 83.5 22.5t37.5 61.5q7 34 7 91q0 60 -8.5 95t-34.5 57q-28 24 -85 24q-91 0 -115 -79z" />
    <glyph glyph-name="A" unicode="A" horiz-adv-x="586" 
d="M67 0h-30l247 680h24l247 -680h-30l-71 195h-316zM297 631l-148 -406h295z" />
    <glyph glyph-name="B" unicode="B" horiz-adv-x="598" 
d="M104 680h225q90 0 140.5 -46t50.5 -127q0 -67 -30 -106t-93 -53q59 -8 96.5 -55.5t37.5 -111.5q0 -84 -52.5 -132.5t-144.5 -48.5h-230v680zM329 361q77 0 121 39t44 106q0 69 -42.5 107t-122.5 38h-199v-290h199zM334 29q81 0 125.5 39.5t44.5 111.5t-44.5 112
t-125.5 40h-204v-303h204z" />
    <glyph glyph-name="C" unicode="C" horiz-adv-x="547" 
d="M164.5 26q-50.5 36 -76.5 109q-18 57 -18 205q0 98 9.5 158.5t29.5 95.5q24 42 68.5 69t115.5 27q89 0 146 -51.5t68 -153.5h-28q-11 87 -61 132t-125 45q-83 0 -126.5 -36t-56.5 -106q-13 -65 -13 -180q0 -143 17 -197q45 -124 179 -124q43 0 83.5 19t69.5 55
q30 39 37 95h27q-14 -98 -71.5 -148t-145.5 -50q-78 0 -128.5 36z" />
    <glyph glyph-name="D" unicode="D" horiz-adv-x="618" 
d="M104 680h208q101 0 153.5 -39t65.5 -111q13 -65 13 -190q0 -90 -5 -143.5t-21 -91t-49 -64.5q-50 -41 -157 -41h-208v680zM314 28q90 0 134.5 33.5t56.5 98.5q11 64 11 180q0 150 -18 201q-19 56 -64.5 83.5t-119.5 27.5h-184v-624h184z" />
    <glyph glyph-name="E" unicode="E" horiz-adv-x="549" 
d="M494 0h-390v680h390v-28h-364v-292h318v-28h-318v-304h364v-28z" />
    <glyph glyph-name="F" unicode="F" horiz-adv-x="546" 
d="M130 0h-26v680h390v-28h-364v-299h318v-28h-318v-325z" />
    <glyph glyph-name="G" unicode="G" horiz-adv-x="600" 
d="M166 26.5q-52 36.5 -76 111.5q-20 62 -20 202q0 96 9.5 156t30.5 97q55 97 191 97q96 0 152 -48.5t71 -156.5h-27q-25 177 -197 177q-144 0 -185 -128q-19 -51 -19 -194q0 -142 19 -193q41 -128 185 -128q73 0 118 31t67 96q18 48 18 155h-191v31h218v-42
q0 -100 -22.5 -163t-73.5 -99q-56 -38 -133 -38q-83 0 -135 36.5z" />
    <glyph glyph-name="H" unicode="H" horiz-adv-x="647" 
d="M130 0h-26v680h26v-320h387v320h26v-680h-26v332h-387v-332z" />
    <glyph glyph-name="I" unicode="I" horiz-adv-x="234" 
d="M130 0h-26v680h26v-680z" />
    <glyph glyph-name="J" unicode="J" horiz-adv-x="458" 
d="M112.5 1.5q-32.5 11.5 -65.5 40.5l17 22q62 -45 124 -45q78 0 116.5 42.5t38.5 130.5v488h26v-488q0 -101 -45.5 -151.5t-135.5 -50.5q-43 0 -75.5 11.5z" />
    <glyph glyph-name="K" unicode="K" horiz-adv-x="579" 
d="M130 0h-26v680h26v-438l367 438h34l-225 -268l236 -412h-32l-223 388l-157 -186v-202z" />
    <glyph glyph-name="L" unicode="L" horiz-adv-x="523" 
d="M494 0h-390v680h26v-652h364v-28z" />
    <glyph glyph-name="M" unicode="M" horiz-adv-x="755" 
d="M136 0h-27v680h26l245 -536l238 536h28v-680h-27v615l-228 -511h-22l-233 511v-615z" />
    <glyph glyph-name="N" unicode="N" horiz-adv-x="648" 
d="M131 0h-27v680h27l387 -632v632h27v-680h-30l-384 629v-629z" />
    <glyph glyph-name="O" unicode="O" horiz-adv-x="600" 
d="M167 26.5q-52 36.5 -76 111.5q-21 68 -21 202q0 132 22.5 204.5t74.5 109.5q53 36 134 36q82 0 133 -36.5t75 -111.5q21 -63 21 -202q0 -136 -22 -206t-74 -107q-49 -37 -133 -37q-82 0 -134 36.5zM491 167q12 65 12 173q0 117 -13 179t-55 102q-44 41 -134 41
q-164 0 -191 -148q-13 -64 -13 -174q0 -107 12.5 -173t57 -107t134.5 -41q163 0 190 148z" />
    <glyph glyph-name="P" unicode="P" horiz-adv-x="579" 
d="M104 680h223q95 0 148 -48t53 -136q0 -86 -53 -134t-148 -48h-197v-314h-26v680zM327 342q85 0 130 39.5t45 114.5q0 76 -45 116t-130 40h-197v-310h197z" />
    <glyph glyph-name="Q" unicode="Q" horiz-adv-x="600" 
d="M524 -34l-68 79q-55 -55 -155 -55q-82 0 -134 36.5t-76 111.5q-21 68 -21 202q0 132 22.5 204.5t74.5 109.5q53 36 134 36q82 0 133 -36.5t75 -111.5q21 -63 21 -202t-21 -202q-13 -44 -36 -73l73 -83zM437 67l-93 108l20 14l90 -103q17 26 30 61q19 57 19 193
q0 117 -13 179t-55 102q-44 41 -134 41q-164 0 -191 -148q-13 -64 -13 -174q0 -107 12.5 -173t57 -107t134.5 -41q88 0 136 48z" />
    <glyph glyph-name="R" unicode="R" horiz-adv-x="613" 
d="M104 680h220q97 0 149.5 -47t52.5 -133q0 -72 -37 -118t-107 -59l156 -323h-28l-155 319h-225v-319h-26v680zM325 347q86 0 130 38.5t44 114.5q0 74 -44.5 113t-129.5 39h-195v-305h195z" />
    <glyph glyph-name="S" unicode="S" horiz-adv-x="601" 
d="M178 13q-31 12 -53.5 24.5t-46.5 31.5l17 25q92 -75 208 -75q91 0 145.5 43.5t54.5 115.5q0 66 -44 102.5t-139 48.5l-28 4q-192 24 -192 173q0 85 55.5 134.5t150.5 49.5q110 0 190 -56l-18 -27q-88 55 -175 55q-81 0 -129 -42t-48 -112q0 -64 42 -99.5t135 -48.5l29 -3
q197 -24 197 -176q0 -87 -62.5 -139t-169.5 -52q-56 0 -119 23z" />
    <glyph glyph-name="T" unicode="T" horiz-adv-x="513" 
d="M270 0h-27v652h-221v28h469v-28h-221v-652z" />
    <glyph glyph-name="U" unicode="U" horiz-adv-x="631" 
d="M151 51.5q-56 61.5 -56 181.5v447h27v-449q0 -212 193 -212q96 0 145.5 53.5t49.5 158.5v449h26v-447q0 -243 -221 -243q-108 0 -164 61.5z" />
    <glyph glyph-name="V" unicode="V" horiz-adv-x="558" 
d="M301 0h-27l-240 680h29l225 -634l220 634h31z" />
    <glyph glyph-name="W" unicode="W" horiz-adv-x="812" 
d="M616 0h-28l-178 616l-178 -616h-28l-164 680h30l150 -624l176 624h28l178 -624l147 624h30z" />
    <glyph glyph-name="X" unicode="X" horiz-adv-x="532" 
d="M500 0h-31l-199 330l-201 -330h-30l215 360l-191 320h30l177 -291l176 291h30l-192 -320z" />
    <glyph glyph-name="Y" unicode="Y" horiz-adv-x="505" 
d="M270 0h-27v280l-214 400h33l196 -368l192 368h33l-213 -400v-280z" />
    <glyph glyph-name="Z" unicode="Z" horiz-adv-x="544" 
d="M485 0h-428v24l395 628h-381v28h414v-25l-394 -627h394v-28z" />
    <glyph glyph-name="bracketleft" unicode="[" horiz-adv-x="285" 
d="M234 -84h-115v824h115v-27h-88v-770h88v-27z" />
    <glyph glyph-name="backslash" unicode="\" horiz-adv-x="398" 
d="M329 -10h-27l-227 700h28z" />
    <glyph glyph-name="bracketright" unicode="]" horiz-adv-x="285" 
d="M51 740h115v-824h-115v27h88v770h-88v27z" />
    <glyph glyph-name="asciicircum" unicode="^" 
d="M459 292h-25l-167 354l-169 -354h-25l182 388h24z" />
    <glyph glyph-name="underscore" unicode="_" horiz-adv-x="443" 
d="M443 -88v-29h-443v29h443z" />
    <glyph glyph-name="grave" unicode="`" horiz-adv-x="421" 
d="M273 560h-26l-98 140h32z" />
    <glyph glyph-name="a" unicode="a" horiz-adv-x="508" 
d="M388 70q-13 -36 -55.5 -58t-99.5 -22q-76 0 -117.5 36t-41.5 103q0 135 175 135h138v68q0 48 -11.5 74.5t-39.5 38.5q-29 12 -81 12q-89 0 -134 -45l-19 20q49 52 151 52q88 0 124.5 -34.5t36.5 -118.5v-331h-26v70zM344.5 53.5q42.5 33.5 42.5 86.5v97h-137
q-78 0 -114 -26t-36 -83q0 -52 35 -80t100 -28q67 0 109.5 33.5z" />
    <glyph glyph-name="b" unicode="b" 
d="M127 393q40 91 154 91q122 0 160 -113q17 -62 17 -134q0 -71 -17 -133q-37 -114 -160 -114q-113 0 -154 92v-82h-25v680h25v-287zM179.5 426.5q-33.5 -29.5 -43 -75t-9.5 -114.5q0 -68 9.5 -113.5t43 -75t99.5 -29.5q54 0 88 23.5t51 71.5q14 42 14 123q0 83 -15 127
t-50 69q-35 23 -88 23q-66 0 -99.5 -29.5z" />
    <glyph glyph-name="c" unicode="c" horiz-adv-x="468" 
d="M84.5 372q17.5 52 58.5 81q43 31 106 31q112 0 163 -105l-26 -9q-18 41 -54.5 63.5t-82.5 22.5q-111 0 -142 -103q-15 -42 -15 -116q0 -73 15 -114q32 -104 142 -104q41 0 78 23.5t59 62.5l26 -8q-27 -51 -69.5 -79t-93.5 -28q-62 0 -106 31.5t-61 88.5q-15 53 -15 127
q0 83 17.5 135z" />
    <glyph glyph-name="d" unicode="d" 
d="M398 82q-41 -92 -155 -92q-73 0 -113 34t-52 91q-11 55 -11 122q0 70 11 122t49.5 88.5t115.5 36.5q58 0 96 -22t59 -69v287h25v-680h-25v82zM383 114q15 41 15 123q0 84 -15 124q-30 95 -138 95q-63 0 -98 -28.5t-45 -77.5q-10 -44 -10 -113q0 -72 11 -116t43 -72
q33 -30 99 -30q108 0 138 95z" />
    <glyph glyph-name="e" unicode="e" horiz-adv-x="493" 
d="M141.5 20q-42.5 30 -62.5 93q-12 41 -12 125q0 86 16.5 136.5t57.5 79.5q43 30 106 30t106.5 -31t61.5 -88q13 -39 13 -128h-335q0 -76 10.5 -119t43.5 -71q34 -31 106 -31q45 0 83 20t66 59l19 -17q-26 -42 -70 -65t-98 -23q-69 0 -111.5 30zM402 264q0 122 -63 168
q-34 25 -93 25q-110 0 -143 -104q-10 -30 -10 -89h309z" />
    <glyph glyph-name="f" unicode="f" horiz-adv-x="298" 
d="M118 446h-76v29h76v67q0 58 10.5 87t35.5 40q28 11 74 11h30v-28h-26q-42 0 -62.5 -9t-28.5 -30q-8 -24 -8 -62v-76h125v-29h-125v-446h-25v446z" />
    <glyph glyph-name="g" unicode="g" horiz-adv-x="515" 
d="M149 -167q-46 23 -65 53l24 15q22 -28 58 -45.5t73 -17.5q150 0 150 160v84q-39 -92 -150 -92q-61 0 -99.5 28t-57.5 85q-16 45 -16 134q0 80 12 129t48 83q38 35 113 35q56 0 93 -22t57 -68v81h25v-477q0 -92 -45 -140t-129 -48q-45 0 -91 23zM336 45.5q34 27.5 44 76.5
q9 47 9 115q0 75 -10.5 118.5t-40.5 71.5q-34 29 -97 29q-85 0 -117 -55t-32 -164q0 -83 16 -124q30 -95 133 -95q61 0 95 27.5z" />
    <glyph glyph-name="h" unicode="h" horiz-adv-x="538" 
d="M418 294q0 83 -35 122.5t-107 39.5q-64 0 -106.5 -41t-42.5 -106v-309h-25v680h25v-286q38 90 149 90q167 0 167 -183v-301h-25v294z" />
    <glyph glyph-name="i" unicode="i" horiz-adv-x="228" 
d="M127 620h-25v60h25v-60zM127 0h-25v475h25v-475z" />
    <glyph glyph-name="j" unicode="j" horiz-adv-x="228" 
d="M127 620h-25v60h25v-60zM11 -152h12q33 0 49 6.5t23 23.5q7 14 7 51v546h25v-546q0 -43 -9.5 -66.5t-31.5 -32.5q-20 -10 -63 -10h-12v28z" />
    <glyph glyph-name="k" unicode="k" horiz-adv-x="489" 
d="M450 0h-30l-173 280l-120 -143v-137h-25v680h25v-501l250 296h31l-143 -173z" />
    <glyph glyph-name="l" unicode="l" horiz-adv-x="248" 
d="M184 -2q-46 0 -64.5 22.5t-18.5 77.5v582h25v-582q0 -41 12.5 -56t43.5 -15h24v-29h-22z" />
    <glyph glyph-name="m" unicode="m" horiz-adv-x="854" 
d="M734 294q0 83 -35.5 122.5t-108.5 39.5q-64 0 -105.5 -41t-41.5 -106v-309h-25v294q0 83 -35 122.5t-107 39.5q-64 0 -106.5 -41t-42.5 -106v-309h-25v475h25v-81q38 90 149 90q61 0 100.5 -26t54.5 -76q21 52 59.5 77t100.5 25q82 0 125 -46.5t43 -136.5v-301h-25v294z
" />
    <glyph glyph-name="n" unicode="n" horiz-adv-x="538" 
d="M102 475h25v-81q38 90 149 90q167 0 167 -183v-301h-25v294q0 83 -35 122.5t-107 39.5q-64 0 -106.5 -41t-42.5 -106v-309h-25v475z" />
    <glyph glyph-name="o" unicode="o" horiz-adv-x="502" 
d="M145 21.5q-44 31.5 -62 88.5q-16 48 -16 128q0 82 18.5 134t59.5 81q43 31 105 31q63 0 107.5 -31t62.5 -88q16 -48 16 -127q0 -83 -18 -135t-60 -81q-47 -32 -108 -32t-105 31.5zM352 48.5q37 29.5 48 78.5q10 44 10 111q0 70 -11.5 114t-44.5 73q-34 31 -104 31
q-65 0 -101 -30t-47 -79q-10 -44 -10 -109q0 -70 11 -114t44 -73q35 -32 103 -32q65 0 102 29.5z" />
    <glyph glyph-name="p" unicode="p" 
d="M102 475h25v-82q21 47 59 69t95 22q122 0 160 -113q17 -62 17 -134q0 -71 -17 -133q-37 -114 -160 -114q-112 0 -154 92v-262h-25v655zM367 42.5q34 23.5 51 71.5q14 42 14 123q0 83 -15 127t-50 69q-35 23 -88 23q-66 0 -99.5 -29.5t-43 -75t-9.5 -114.5
q0 -68 9.5 -113.5t43 -75t99.5 -29.5q54 0 88 23.5z" />
    <glyph glyph-name="q" unicode="q" 
d="M398 81q-40 -91 -155 -91q-121 0 -159 114q-17 62 -17 133q0 72 17 134q38 113 159 113q115 0 155 -91v82h25v-655h-25v261zM383 114q15 41 15 123q0 84 -15 124q-30 95 -138 95q-63 0 -98 -28.5t-45 -77.5q-10 -44 -10 -113q0 -72 11 -116t43 -72q33 -30 99 -30
q108 0 138 95z" />
    <glyph glyph-name="r" unicode="r" horiz-adv-x="383" 
d="M102 475h25v-85q14 48 46 71t84 23q63 0 100 -35l-12 -24q-43 31 -90 31q-62 0 -95 -48t-33 -132v-276h-25v475z" />
    <glyph glyph-name="s" unicode="s" horiz-adv-x="473" 
d="M400 440l-14 -24q-70 40 -143 40q-63 0 -96.5 -26.5t-33.5 -75.5q0 -44 29 -66t96 -29l46 -5q67 -7 100 -36t33 -85q0 -67 -45.5 -105t-128.5 -38q-101 0 -182 69l17 21q41 -32 82 -47t88 -15q68 0 105 29t37 81q0 48 -26.5 69.5t-97.5 29.5l-46 5q-134 14 -134 120
q0 62 42 97t116 35q85 0 156 -44z" />
    <glyph glyph-name="t" unicode="t" horiz-adv-x="306" 
d="M237 -2q-67 0 -93 27.5t-26 96.5v324h-75v29h75v155h25v-155h119v-29h-119v-322q0 -39 8.5 -60t28.5 -29q22 -8 56 -8h26v-29h-25z" />
    <glyph glyph-name="u" unicode="u" horiz-adv-x="531" 
d="M404 79q-35 -89 -147 -89q-80 0 -122 46.5t-42 136.5v302h25v-294q0 -83 34.5 -122.5t104.5 -39.5q64 0 105.5 41t41.5 106v309h25v-475h-25v79z" />
    <glyph glyph-name="v" unicode="v" horiz-adv-x="459" 
d="M244 0h-23l-182 475h27l167 -427l165 427h29z" />
    <glyph glyph-name="w" unicode="w" horiz-adv-x="728" 
d="M534 0h-24l-143 428l-146 -428h-21l-153 475h26l140 -424l143 424h24l144 -424l137 424h26z" />
    <glyph glyph-name="x" unicode="x" horiz-adv-x="447" 
d="M415 0h-33l-151 226l-155 -226h-31l170 250l-152 225h32l136 -201l135 201h31l-154 -225z" />
    <glyph glyph-name="y" unicode="y" horiz-adv-x="458" 
d="M71 -180v28h28q24 0 40 9t29 30q14 23 30 66l22 53l-181 469h28l168 -427l163 427h28l-204 -529q-20 -54 -37 -80t-37 -36q-19 -10 -51 -10h-26z" />
    <glyph glyph-name="z" unicode="z" horiz-adv-x="458" 
d="M400 24v-24h-339v25l310 425h-297v25h326v-27l-309 -424h309z" />
    <glyph glyph-name="braceleft" unicode="{" horiz-adv-x="304" 
d="M221 -84q-43 0 -60.5 22t-17.5 76v214q0 47 -14.5 67.5t-47.5 20.5v27q35 0 48.5 21.5t13.5 67.5v211q0 53 17.5 75t60.5 22h32v-27h-33q-52 0 -52 -63v-208q0 -51 -10 -76t-34 -36q25 -12 34.5 -35t9.5 -77v-211q0 -64 52 -64h33v-27h-32z" />
    <glyph glyph-name="bar" unicode="|" horiz-adv-x="204" 
d="M115 -84h-26v824h26v-824z" />
    <glyph glyph-name="braceright" unicode="}" horiz-adv-x="304" 
d="M83 740q43 0 61 -22t18 -75v-211q0 -45 14.5 -67t46.5 -22v-27q-34 0 -47.5 -20.5t-13.5 -67.5v-214q0 -54 -17.5 -76t-61.5 -22h-32v27h33q53 0 53 64v211q0 53 9.5 76.5t34.5 35.5q-25 11 -34.5 35t-9.5 77v208q0 63 -53 63h-33v27h32z" />
    <glyph glyph-name="asciitilde" unicode="~" 
d="M66 247q21 39 50.5 59t63.5 20q38 0 94 -41q53 -36 78 -36q52 0 92 69l20 -14q-40 -88 -116 -88l-21 2q-28 12 -71 47q-50 35 -77 35q-26 0 -47.5 -15.5t-44.5 -52.5z" />
    <glyph glyph-name="uni00A0" unicode="&#xa0;" horiz-adv-x="251" 
 />
    <glyph glyph-name="exclamdown" unicode="&#xa1;" horiz-adv-x="246" 
d="M143 475v-70h-41v70h41zM110 304h25l9 -510h-42z" />
    <glyph glyph-name="cent" unicode="&#xa2;" 
d="M282 19q38 2 73.5 25.5t56.5 60.5l26 -8q-25 -48 -66.5 -76.5t-89.5 -29.5v-95h-30v96q-54 5 -91 35.5t-53 82.5q-15 53 -15 127q0 79 16 129.5t52 80.5q37 31 91 36v94h30v-93q106 -3 156 -105l-26 -9q-18 39 -52.5 61.5t-77.5 24.5v-437zM252 20v435q-91 -11 -119 -102
q-15 -42 -15 -116q0 -73 15 -114q28 -94 119 -103z" />
    <glyph glyph-name="sterling" unicode="&#xa3;" 
d="M106 0v23q29 27 38 49t9 64v172h-68v29h68v190q0 77 38 120t102 43q53 0 89 -33.5t48 -93.5l-24 -10q-19 109 -114 109q-54 0 -84 -34t-30 -99v-192h161v-29h-161v-173q0 -67 -37 -107h296v-28h-331z" />
    <glyph glyph-name="currency" unicode="&#xa4;" 
d="M391 182q-52 -43 -121 -43t-121 43l-74 -74l-17 20l72 72q-42 50 -42 123q0 71 43 123l-73 73l17 20l75 -75q24 21 55 31.5t65 10.5t65 -10.5t55 -31.5l75 75l17 -20l-73 -73q42 -52 42 -123t-41 -121l73 -74l-17 -21zM271 166q42 0 77 20.5t55 56.5q20 35 20 80
q0 68 -44 112q-42 45 -108 45q-42 0 -78 -21t-56 -57q-21 -36 -21 -79q0 -65 45 -112q47 -45 110 -45z" />
    <glyph glyph-name="yen" unicode="&#xa5;" 
d="M282 0h-25v173h-153v29h153v81h-153v29h140l-172 368h29l169 -362l167 362h30l-172 -368h140v-29h-153v-81h153v-29h-153v-173z" />
    <glyph glyph-name="brokenbar" unicode="&#xa6;" horiz-adv-x="204" 
d="M115 388h-26v352h26v-352zM115 -84h-26v356h26v-356z" />
    <glyph glyph-name="section" unicode="&#xa7;" horiz-adv-x="506" 
d="M138.5 -147.5q-39.5 42.5 -37.5 117.5l27 6q-4 -67 28.5 -102t94.5 -35q57 0 90.5 31t33.5 86q0 53 -33.5 81t-114.5 43q-135 24 -135 174q0 68 30 110.5t88 54.5q-54 24 -76 54.5t-22 81.5q0 60 40 97.5t103 37.5q65 0 103 -40t34 -104l-23 -6q1 56 -30 88.5t-84 32.5
q-54 0 -84.5 -27.5t-30.5 -78.5q0 -54 31.5 -83.5t106.5 -43.5q136 -28 136 -174q0 -65 -29 -108.5t-84 -57.5q49 -18 74.5 -51.5t25.5 -80.5q0 -70 -46 -110q-20 -17 -47.5 -26.5t-57.5 -9.5q-72 0 -111.5 42.5zM351 148q37 40 37 106t-37 105t-98 39q-62 0 -98.5 -38.5
t-36.5 -105.5q0 -69 36 -107.5t99 -38.5q61 0 98 40z" />
    <glyph glyph-name="dieresis" unicode="&#xa8;" horiz-adv-x="421" 
d="M131 620h-42v60h42v-60zM331 620h-41v60h41v-60z" />
    <glyph glyph-name="copyright" unicode="&#xa9;" horiz-adv-x="832" 
d="M416 -10q-99 0 -178.5 45t-124.5 126q-46 79 -46 179q0 99 45 179t126 126q80 45 178 45q96 0 176.5 -46t127.5 -127q46 -79 46 -177q0 -149 -101 -250q-100 -100 -249 -100zM416 16q90 0 165 42t118 117q42 74 42 165q0 92 -42 166.5t-117 116.5t-166 42
q-90 0 -164.5 -42t-117.5 -117q-43 -74 -43 -166q0 -138 94 -231q92 -93 231 -93zM336.5 170.5q-35.5 25.5 -50.5 73.5q-11 36 -11 96q0 67 14 106.5t48 63.5q35 26 84 26q47 0 80 -20t54 -63l-19 -18q-22 40 -49.5 57.5t-65.5 17.5q-50 0 -78 -23.5t-37 -62.5
q-8 -38 -8 -84q0 -83 26 -126t97 -43q33 0 65.5 20.5t51.5 53.5l17 -18q-18 -38 -53.5 -60t-80.5 -22q-49 0 -84.5 25.5z" />
    <glyph glyph-name="ordfeminine" unicode="&#xaa;" horiz-adv-x="337" 
d="M251 429q-14 -23 -37.5 -33t-62.5 -10q-46 0 -73 22.5t-27 63.5q0 88 117 88h83v32q0 40 -17 54.5t-67 14.5q-58 0 -90 -29l-10 22q31 33 101 33q58 0 82.5 -21.5t24.5 -72.5v-201h-24v37zM224 429.5q27 17.5 27 42.5v61h-81q-94 0 -94 -59q0 -30 21.5 -46t59.5 -16
q40 0 67 17.5z" />
    <glyph glyph-name="guillemotleft" unicode="&#xab;" horiz-adv-x="521" 
d="M258 86l-172 178l170 177v-43l-131 -134l133 -134v-44zM447 86l-171 178l171 177v-43l-132 -134l132 -134v-44z" />
    <glyph glyph-name="logicalnot" unicode="&#xac;" 
d="M452 130h-27v133h-353v26h380v-159z" />
    <glyph glyph-name="uni00AD" unicode="&#xad;" horiz-adv-x="367" 
d="M318 254h-267v27h267v-27z" />
    <glyph glyph-name="registered" unicode="&#xae;" horiz-adv-x="832" 
d="M592.5 644q80.5 -46 127.5 -127q46 -79 46 -177t-45.5 -178t-126.5 -126q-79 -46 -178 -46t-178.5 45t-124.5 126q-46 79 -46 179q0 99 45 179t126 126q80 45 178 45q96 0 176.5 -46zM251.5 623q-74.5 -42 -117.5 -117q-43 -74 -43 -166q0 -90 42.5 -164.5t117.5 -116.5
q73 -43 165 -43q90 0 165 42t118 117q42 74 42 165q0 92 -42 166.5t-117 116.5t-166 42q-90 0 -164.5 -42zM433 551q61 0 94 -30t33 -84q0 -45 -23.5 -74t-66.5 -37l97 -202h-20l-96 199h-139v-199h-19v427h140zM312 531v-189h121q108 0 108 95q0 46 -27.5 70t-80.5 24h-121
z" />
    <glyph glyph-name="overscore" unicode="&#xaf;" horiz-adv-x="421" 
d="M334 634h-248v28h248v-28z" />
    <glyph glyph-name="degree" unicode="&#xb0;" horiz-adv-x="440" 
d="M218 404q-59 0 -99 40t-40 101q0 40 18.5 72t50.5 50q31 18 70 18q61 0 101 -40t40 -100q0 -62 -40 -102q-39 -39 -101 -39zM138.5 628q-31.5 -33 -31.5 -83t31.5 -83t79.5 -33q49 0 81.5 33t32.5 83t-32 83t-82 33q-48 0 -79.5 -33z" />
    <glyph glyph-name="plusminus" unicode="&#xb1;" 
d="M276 84h-28v179h-176v26h176v179h28v-179h176v-26h-176v-179zM452 0h-380v26h380v-26z" />
    <glyph glyph-name="uni00B2" unicode="&#xb2;" horiz-adv-x="322" 
d="M243 814q32 -29 32 -74q0 -52 -45 -105l-154 -179h202v-26h-235v23l168 200q38 44 38 83q0 36 -23 58.5t-61 22.5q-75 0 -91 -79l-23 4q6 45 37.5 73t76.5 28q46 0 78 -29z" />
    <glyph glyph-name="uni00B3" unicode="&#xb3;" horiz-adv-x="322" 
d="M92 449q-33 25 -48 62l23 8q12 -30 38.5 -49.5t58.5 -19.5q42 0 67.5 25t25.5 64q0 38 -26.5 64t-66.5 26h-27v26h25q38 0 62 23t24 60q0 35 -23.5 57t-62.5 22q-33 0 -56.5 -17t-33.5 -50l-20 7q8 39 38 62.5t72 23.5q50 0 80.5 -30t30.5 -76q0 -60 -58 -94
q28 -10 47.5 -39t19.5 -65q0 -50 -33.5 -82.5t-83.5 -32.5q-40 0 -73 25z" />
    <glyph glyph-name="acute" unicode="&#xb4;" horiz-adv-x="421" 
d="M179 560h-25l90 140h33z" />
    <glyph glyph-name="uni00B5" unicode="&#xb5;" horiz-adv-x="522" 
d="M359.5 18q-40.5 -28 -96.5 -28q-48 0 -81 16.5t-55 51.5v-238h-25v655h25v-309q0 -73 35 -110t104 -37q65 0 105.5 41.5t40.5 110.5v304h25v-423q0 -17 7 -21t33 -4v-29h-5q-33 0 -45.5 19.5t-14.5 71.5q-12 -43 -52.5 -71z" />
    <glyph glyph-name="paragraph" unicode="&#xb6;" horiz-adv-x="538" 
d="M420 652h-120v-832h-28v450q-88 4 -140 61q-51 59 -51 144q0 94 58.5 149.5t159.5 55.5h149v-860h-28v832z" />
    <glyph glyph-name="middot" unicode="&#xb7;" horiz-adv-x="203" 
d="M123 231h-43v71h43v-71z" />
    <glyph glyph-name="cedilla" unicode="&#xb8;" horiz-adv-x="421" 
d="M257 -21q1 -51 -28.5 -87t-73.5 -35v28q35 0 54.5 26t19.5 68h28z" />
    <glyph glyph-name="uni00B9" unicode="&#xb9;" horiz-adv-x="322" 
d="M188 430h-26v372l-82 -57v31l85 60h23v-406z" />
    <glyph glyph-name="ordmasculine" unicode="&#xba;" horiz-adv-x="341" 
d="M51 537q0 46 10 73q26 77 110 77q83 0 110 -77q9 -31 9 -75q0 -41 -9 -73q-27 -76 -110 -76q-41 0 -69 19.5t-41 56.5q-10 27 -10 75zM266 535q0 45 -10 65q-18 62 -85 62t-85 -62q-10 -20 -10 -65q0 -44 10 -63q18 -61 85 -61t85 61q10 20 10 63z" />
    <glyph glyph-name="guillemotright" unicode="&#xbb;" horiz-adv-x="521" 
d="M242 264l-161 -187v53l127 134l-127 134v43zM432 264l-161 -187v53l126 134l-126 134v43z" />
    <glyph glyph-name="onequarter" unicode="&#xbc;" horiz-adv-x="822" 
d="M206 -10h-27l405 700h27zM210 274h-26v373l-82 -58v31l86 60h22v-406zM605 406h26l-145 -295h149v122h25v-122h62v-27h-62v-84h-25v84h-177v24z" />
    <glyph glyph-name="onehalf" unicode="&#xbd;" horiz-adv-x="848" 
d="M584 690h27l-405 -700h-27zM102 620l86 60h22v-406h-26v373l-82 -58v31zM712.5 384q31.5 -29 31.5 -74q0 -53 -46 -105l-154 -179h203v-26h-235v23l168 200q37 43 37 83q0 36 -22.5 58.5t-60.5 22.5q-73 0 -91 -79l-24 4q8 46 38.5 73.5t75.5 27.5q48 0 79.5 -29z" />
    <glyph glyph-name="threequarters" unicode="&#xbe;" horiz-adv-x="889" 
d="M275 -10h-27l406 700h27zM150 293q-33 25 -48 62l23 8q12 -30 38.5 -49.5t58.5 -19.5q42 0 67.5 25t25.5 64q0 38 -26.5 64t-66.5 26h-27v26h25q38 0 62 23t24 60q0 35 -23.5 57t-62.5 22q-33 0 -56.5 -17t-33.5 -50l-20 7q8 39 38 62.5t72 23.5q50 0 80.5 -30t30.5 -76
q0 -60 -58 -94q28 -10 47.5 -39t19.5 -65q0 -50 -33.5 -82.5t-83.5 -32.5q-40 0 -73 25zM729 0h-25v84h-177v24l147 298h26l-145 -295h149v122h25v-122h62v-27h-62v-84z" />
    <glyph glyph-name="questiondown" unicode="&#xbf;" horiz-adv-x="437" 
d="M235 475v-70h-34v70h34zM231 261q0 -61 -35 -105q-61 -78 -77 -100q-21 -28 -30.5 -53.5t-9.5 -57.5q0 -62 37 -97t101 -35q57 0 94.5 35.5t50.5 102.5l25 -6q-10 -75 -55.5 -117.5t-114.5 -42.5q-74 0 -119 45t-45 115q0 44 15.5 78t55.5 80l43 57q25 29 31.5 47t6.5 54
v48h26v-48z" />
    <glyph glyph-name="Agrave" unicode="&#xc0;" horiz-adv-x="586" 
d="M310 748h-25l-98 140h32zM67 0h-30l248 680h23l248 -680h-30l-72 195h-316zM298 631l-149 -406h295z" />
    <glyph glyph-name="Aacute" unicode="&#xc1;" horiz-adv-x="586" 
d="M311 747h-25l90 141h33zM67 0h-30l248 680h23l248 -680h-30l-72 195h-316zM298 631l-149 -406h295z" />
    <glyph glyph-name="Acircumflex" unicode="&#xc2;" horiz-adv-x="586" 
d="M210 755h-24l99 140h20l100 -140h-24l-86 109zM67 0h-30l248 680h23l248 -680h-30l-72 195h-316zM298 631l-149 -406h295z" />
    <glyph glyph-name="Atilde" unicode="&#xc3;" horiz-adv-x="586" 
d="M180 821q29 38 64 38q21 0 56 -20q23 -18 45 -18q16 0 29.5 9.5t33.5 34.5v-35q-32 -35 -63 -35q-24 0 -57 21q-26 18 -45 18q-12 0 -29 -11t-34 -31v29zM67 0h-30l248 680h23l248 -680h-30l-72 195h-316zM298 631l-149 -406h295z" />
    <glyph glyph-name="Adieresis" unicode="&#xc4;" horiz-adv-x="586" 
d="M218 795h-43v60h43v-60zM417 795h-44v60h44v-60zM67 0h-30l248 680h23l248 -680h-30l-72 195h-316zM298 631l-149 -406h295z" />
    <glyph glyph-name="Aring" unicode="&#xc5;" horiz-adv-x="586" 
d="M377 829q0 -35 -24 -58.5t-58 -23.5q-36 0 -59 22.5t-23 59.5t23 59.5t59 22.5q33 0 59 -23q23 -23 23 -59zM294 887q-25 0 -40 -16t-15 -42t15 -42t40 -16q26 0 40 17q15 15 15 41t-15 42q-13 16 -40 16zM285 680h23l248 -680h-30l-72 195h-316l-71 -195h-30zM444 225
l-146 406l-149 -406h295z" />
    <glyph glyph-name="AE" unicode="&#xc6;" horiz-adv-x="949" 
d="M63 0h-30l456 680h405v-28h-364v-292h318v-28h-318v-304h364v-28h-390v195h-311zM504 653l-286 -428h286v428z" />
    <glyph glyph-name="Ccedilla" unicode="&#xc7;" horiz-adv-x="547" 
d="M439 638.5q57 -51.5 68 -153.5h-28q-11 87 -61 132t-125 45q-83 0 -126.5 -36t-56.5 -106q-13 -65 -13 -180q0 -143 17 -197q45 -124 179 -124q43 0 83.5 19t69.5 55q30 39 37 95h27q-14 -98 -71.5 -148t-145.5 -50q-78 0 -128.5 36t-76.5 109q-18 57 -18 205
q0 98 9.5 158.5t29.5 95.5q24 42 68.5 69t115.5 27q89 0 146 -51.5zM306 -21q0 -51 -29 -87t-73 -35l-1 28q36 0 55.5 25.5t19.5 68.5h28z" />
    <glyph glyph-name="Egrave" unicode="&#xc8;" horiz-adv-x="549" 
d="M326 748h-25l-98 140h32zM494 0h-390v680h390v-28h-364v-292h318v-28h-318v-304h364v-28z" />
    <glyph glyph-name="Eacute" unicode="&#xc9;" horiz-adv-x="549" 
d="M282 747h-26l90 141h34zM494 0h-390v680h390v-28h-364v-292h318v-28h-318v-304h364v-28z" />
    <glyph glyph-name="Ecircumflex" unicode="&#xca;" horiz-adv-x="549" 
d="M213 755h-24l99 140h20l100 -140h-24l-86 109zM494 0h-390v680h390v-28h-364v-292h318v-28h-318v-304h364v-28z" />
    <glyph glyph-name="Edieresis" unicode="&#xcb;" horiz-adv-x="549" 
d="M215 795h-44v60h44v-60zM413 795h-43v60h43v-60zM494 0h-390v680h390v-28h-364v-292h318v-28h-318v-304h364v-28z" />
    <glyph glyph-name="Igrave" unicode="&#xcc;" horiz-adv-x="234" 
d="M141 748h-25l-98 140h32zM133 0h-26v680h26v-680z" />
    <glyph glyph-name="Iacute" unicode="&#xcd;" horiz-adv-x="234" 
d="M130 747h-26l90 141h34zM130 0h-26v680h26v-680z" />
    <glyph glyph-name="Icircumflex" unicode="&#xce;" horiz-adv-x="234" 
d="M34 755h-25l99 140h20l101 -140h-25l-86 108zM132 0h-27v680h27v-680z" />
    <glyph glyph-name="Idieresis" unicode="&#xcf;" horiz-adv-x="234" 
d="M41 795h-44v60h44v-60zM239 795h-44v60h44v-60zM130 0h-26v680h26v-680z" />
    <glyph glyph-name="Eth" unicode="&#xd0;" horiz-adv-x="618" 
d="M104 331h-63v30h63v319h208q101 0 153.5 -39t65.5 -111q13 -65 13 -190q0 -90 -5 -143.5t-21 -91t-49 -64.5q-50 -41 -157 -41h-208v331zM314 28q90 0 134.5 33.5t56.5 98.5q11 64 11 180q0 150 -18 201q-19 56 -64.5 83.5t-119.5 27.5h-184v-291h163v-30h-163v-303h184z
" />
    <glyph glyph-name="Ntilde" unicode="&#xd1;" horiz-adv-x="648" 
d="M437 830q-32 -35 -63 -35q-24 0 -57 21q-26 18 -45 18q-12 0 -29 -11t-34 -31v29q29 38 64 38q21 0 56 -20q23 -18 45 -18q16 0 29.5 9.5t33.5 34.5v-35zM518 680h27v-680h-30l-384 629v-629h-27v680h27l387 -632v632z" />
    <glyph glyph-name="Ograve" unicode="&#xd2;" horiz-adv-x="600" 
d="M330 748h-25l-98 140h32zM167 26.5q-52 36.5 -76 111.5q-21 68 -21 202q0 132 22.5 204.5t74.5 109.5q53 36 134 36q82 0 133 -36.5t75 -111.5q21 -63 21 -202q0 -136 -22 -206t-74 -107q-49 -37 -133 -37q-82 0 -134 36.5zM491 167q12 65 12 173q0 117 -13 179t-55 102
q-44 41 -134 41q-164 0 -191 -148q-13 -64 -13 -174q0 -107 12.5 -173t57 -107t134.5 -41q163 0 190 148z" />
    <glyph glyph-name="Oacute" unicode="&#xd3;" horiz-adv-x="600" 
d="M293 747h-25l90 141h33zM167 26.5q-52 36.5 -76 111.5q-21 68 -21 202q0 132 22.5 204.5t74.5 109.5q53 36 134 36q82 0 133 -36.5t75 -111.5q21 -63 21 -202q0 -136 -22 -206t-74 -107q-49 -37 -133 -37q-82 0 -134 36.5zM491 167q12 65 12 173q0 117 -13 179t-55 102
q-44 41 -134 41q-164 0 -191 -148q-13 -64 -13 -174q0 -107 12.5 -173t57 -107t134.5 -41q163 0 190 148z" />
    <glyph glyph-name="Ocircumflex" unicode="&#xd4;" horiz-adv-x="600" 
d="M215 755h-24l99 140h20l100 -140h-24l-86 109zM167 26.5q-52 36.5 -76 111.5q-21 68 -21 202q0 132 22.5 204.5t74.5 109.5q53 36 134 36q82 0 133 -36.5t75 -111.5q21 -63 21 -202q0 -136 -22 -206t-74 -107q-49 -37 -133 -37q-82 0 -134 36.5zM491 167q12 65 12 173
q0 117 -13 179t-55 102q-44 41 -134 41q-164 0 -191 -148q-13 -64 -13 -174q0 -107 12.5 -173t57 -107t134.5 -41q163 0 190 148z" />
    <glyph glyph-name="Otilde" unicode="&#xd5;" horiz-adv-x="600" 
d="M187 821q29 38 63 38q22 0 57 -20q21 -18 45 -18q16 0 29.5 9.5t33.5 34.5v-35q-35 -35 -64 -35q-23 0 -56 21q-27 18 -46 18q-12 0 -29 -11.5t-33 -30.5v29zM167 26.5q-52 36.5 -76 111.5q-21 68 -21 202q0 132 22.5 204.5t74.5 109.5q53 36 134 36q82 0 133 -36.5
t75 -111.5q21 -63 21 -202q0 -136 -22 -206t-74 -107q-49 -37 -133 -37q-82 0 -134 36.5zM491 167q12 65 12 173q0 117 -13 179t-55 102q-44 41 -134 41q-164 0 -191 -148q-13 -64 -13 -174q0 -107 12.5 -173t57 -107t134.5 -41q163 0 190 148z" />
    <glyph glyph-name="Odieresis" unicode="&#xd6;" horiz-adv-x="600" 
d="M223 795h-43v60h43v-60zM422 795h-44v60h44v-60zM167 26.5q-52 36.5 -76 111.5q-21 68 -21 202q0 132 22.5 204.5t74.5 109.5q53 36 134 36q82 0 133 -36.5t75 -111.5q21 -63 21 -202q0 -136 -22 -206t-74 -107q-49 -37 -133 -37q-82 0 -134 36.5zM491 167q12 65 12 173
q0 117 -13 179t-55 102q-44 41 -134 41q-164 0 -191 -148q-13 -64 -13 -174q0 -107 12.5 -173t57 -107t134.5 -41q163 0 190 148z" />
    <glyph glyph-name="multiply" unicode="&#xd7;" 
d="M430 133l-16 -21l-143 144l-146 -143l-16 20l143 143l-143 142l16 22l146 -144l142 143l17 -20l-142 -143z" />
    <glyph glyph-name="Oslash" unicode="&#xd8;" horiz-adv-x="600" 
d="M129 61q-23 30 -40 77q-21 63 -21 202q0 137 22 207t75 107q52 36 134 36q93 0 152 -53l41 73h25l-51 -92q23 -26 41 -76q21 -68 21 -202q0 -132 -22.5 -204.5t-73.5 -108.5q-52 -37 -133 -37q-97 0 -154 54l-42 -74h-25zM437 610q-52 52 -138 52q-164 0 -191 -148
q-13 -64 -13 -174q0 -102 10 -158t36 -95zM488 167q12 66 12 173q0 102 -11 163t-35 90l-295 -523q47 -51 140 -51q162 0 189 148z" />
    <glyph glyph-name="Ugrave" unicode="&#xd9;" horiz-adv-x="631" 
d="M347 748h-25l-98 140h32zM122 231q0 -212 193 -212q96 0 145.5 53.5t49.5 158.5v449h26v-447q0 -243 -221 -243q-108 0 -164 61.5t-56 181.5v447h27v-449z" />
    <glyph glyph-name="Uacute" unicode="&#xda;" horiz-adv-x="631" 
d="M307 747h-26l90 141h34zM151 51.5q-56 61.5 -56 181.5v447h27v-449q0 -212 193 -212q96 0 145.5 53.5t49.5 158.5v449h26v-447q0 -243 -221 -243q-108 0 -164 61.5z" />
    <glyph glyph-name="Ucircumflex" unicode="&#xdb;" horiz-adv-x="631" 
d="M426 755h-25l-86 109l-84 -109h-25l99 140h20zM122 231q0 -212 193 -212q96 0 145.5 53.5t49.5 158.5v449h26v-447q0 -243 -221 -243q-108 0 -164 61.5t-56 181.5v447h27v-449z" />
    <glyph glyph-name="Udieresis" unicode="&#xdc;" horiz-adv-x="631" 
d="M195 855h43v-60h-43v60zM393 855h44v-60h-44v60zM536 233q0 -243 -221 -243q-108 0 -164 61.5t-56 181.5v447h27v-449q0 -212 193 -212q96 0 145.5 53.5t49.5 158.5v449h26v-447z" />
    <glyph glyph-name="Yacute" unicode="&#xdd;" horiz-adv-x="505" 
d="M256 747h-25l90 141h33zM270 0h-27v280l-214 400h33l196 -368l192 368h33l-213 -400v-280z" />
    <glyph glyph-name="Thorn" unicode="&#xde;" horiz-adv-x="579" 
d="M104 680h26v-154h197q95 0 148 -48.5t53 -134.5t-53 -134.5t-148 -48.5h-197v-160h-26v680zM327 187q85 0 130 40.5t45 115.5t-45 115t-130 40h-197v-311h197z" />
    <glyph glyph-name="agrave" unicode="&#xe0;" horiz-adv-x="508" 
d="M308 560h-25l-98 140h32zM388 70q-13 -36 -55.5 -58t-99.5 -22q-76 0 -117.5 36t-41.5 103q0 135 175 135h138v68q0 48 -11.5 74.5t-39.5 38.5q-29 12 -81 12q-89 0 -134 -45l-19 20q49 52 151 52q88 0 124.5 -34.5t36.5 -118.5v-331h-26v70zM344.5 53.5
q42.5 33.5 42.5 86.5v97h-137q-78 0 -114 -26t-36 -83q0 -52 35 -80t100 -28q67 0 109.5 33.5z" />
    <glyph glyph-name="aacute" unicode="&#xe1;" horiz-adv-x="508" 
d="M261 560h-26l91 140h33zM388 70q-13 -36 -55.5 -58t-99.5 -22q-76 0 -117.5 36t-41.5 103q0 135 175 135h138v68q0 48 -11.5 74.5t-39.5 38.5q-29 12 -81 12q-89 0 -134 -45l-19 20q49 52 151 52q88 0 124.5 -34.5t36.5 -118.5v-331h-26v70zM344.5 53.5
q42.5 33.5 42.5 86.5v97h-137q-78 0 -114 -26t-36 -83q0 -52 35 -80t100 -28q67 0 109.5 33.5z" />
    <glyph glyph-name="acircumflex" unicode="&#xe2;" horiz-adv-x="508" 
d="M364 560h-24l-86 109l-85 -109h-24l99 140h20zM388 70q-13 -36 -55.5 -58t-99.5 -22q-76 0 -117.5 36t-41.5 103q0 135 175 135h138v68q0 48 -11.5 74.5t-39.5 38.5q-29 12 -81 12q-89 0 -134 -45l-19 20q49 52 151 52q88 0 124.5 -34.5t36.5 -118.5v-331h-26v70z
M344.5 53.5q42.5 33.5 42.5 86.5v97h-137q-78 0 -114 -26t-36 -83q0 -52 35 -80t100 -28q67 0 109.5 33.5z" />
    <glyph glyph-name="atilde" unicode="&#xe3;" horiz-adv-x="508" 
d="M249 636q-27 18 -46 18q-12 0 -29 -11.5t-33 -30.5v30q28 37 63 37q22 0 57 -20q21 -18 45 -18q16 0 29.5 9.5t33.5 34.5v-35q-35 -35 -64 -35q-23 0 -56 21zM388 70q-13 -36 -55.5 -58t-99.5 -22q-76 0 -117.5 36t-41.5 103q0 135 175 135h138v68q0 48 -11.5 74.5
t-39.5 38.5q-29 12 -81 12q-89 0 -134 -45l-19 20q49 52 151 52q88 0 124.5 -34.5t36.5 -118.5v-331h-26v70zM344.5 53.5q42.5 33.5 42.5 86.5v97h-137q-78 0 -114 -26t-36 -83q0 -52 35 -80t100 -28q67 0 109.5 33.5z" />
    <glyph glyph-name="adieresis" unicode="&#xe4;" horiz-adv-x="508" 
d="M132 680h44v-60h-44v60zM331 680h43v-60h-43v60zM377.5 449.5q36.5 -34.5 36.5 -118.5v-331h-26v70q-13 -36 -55.5 -58t-99.5 -22q-76 0 -117.5 36t-41.5 103q0 135 175 135h138v68q0 48 -11.5 74.5t-39.5 38.5q-29 12 -81 12q-89 0 -134 -45l-19 20q49 52 151 52
q88 0 124.5 -34.5zM250 237q-78 0 -114 -26t-36 -83q0 -52 35 -80t100 -28q67 0 109.5 33.5t42.5 86.5v97h-137z" />
    <glyph glyph-name="aring" unicode="&#xe5;" horiz-adv-x="508" 
d="M323 629q0 -16 -6 -31.5t-17 -26.5q-24 -24 -60 -24q-16 0 -31.5 6t-26.5 18q-12 11 -18 26.5t-6 31.5q0 35 23.5 58.5t59.5 23.5t59 -23t23 -59zM240 687q-25 0 -40 -16t-15 -42t15 -42t40 -16q26 0 40 17q15 15 15 41t-15 42q-13 16 -40 16zM377.5 449.5
q36.5 -34.5 36.5 -118.5v-331h-26v70q-13 -36 -55.5 -58t-99.5 -22q-76 0 -117.5 36t-41.5 103q0 135 175 135h138v68q0 48 -11.5 74.5t-39.5 38.5q-29 12 -81 12q-89 0 -134 -45l-19 20q49 52 151 52q88 0 124.5 -34.5zM250 237q-78 0 -114 -26t-36 -83q0 -52 35 -80
t100 -28q67 0 109.5 33.5t42.5 86.5v97h-137z" />
    <glyph glyph-name="ae" unicode="&#xe6;" horiz-adv-x="814" 
d="M471.5 16q-42.5 26 -64.5 77q-16 -50 -60 -76.5t-114 -26.5q-76 0 -117.5 36t-41.5 103q0 135 175 135h138v68q0 48 -11.5 74.5t-39.5 38.5q-29 12 -81 12q-83 0 -134 -45l-19 20q52 52 151 52q72 0 110 -24t46 -73q22 48 62.5 72.5t95.5 24.5q63 0 107 -31t62 -88
q6 -22 10 -57t3 -71h-335q0 -75 11 -117.5t43 -70.5q35 -30 106 -30q94 0 149 76l19 -17q-55 -88 -168 -88q-60 0 -102.5 26zM723 264q1 21 -2.5 46t-8.5 43q-17 53 -52.5 78.5t-92.5 25.5q-110 0 -143 -104q-10 -30 -10 -89h309zM344.5 53.5q42.5 33.5 42.5 86.5v98
l-137 -1q-78 0 -114 -26t-36 -83q0 -52 35 -80t100 -28q67 0 109.5 33.5z" />
    <glyph glyph-name="ccedilla" unicode="&#xe7;" horiz-adv-x="468" 
d="M412 379l-26 -9q-18 41 -54.5 63.5t-82.5 22.5q-111 0 -142 -103q-15 -42 -15 -116q0 -73 15 -114q32 -104 142 -104q41 0 78 23.5t59 62.5l26 -8q-27 -51 -69.5 -79t-93.5 -28q-62 0 -106 31.5t-61 88.5q-15 53 -15 127q0 83 17.5 135t58.5 81q43 31 106 31
q112 0 163 -105zM264 -21q1 -51 -28.5 -87t-73.5 -35v28q35 0 54.5 26t19.5 68h28z" />
    <glyph glyph-name="egrave" unicode="&#xe8;" horiz-adv-x="493" 
d="M275 560h-25l-98 140h32zM141.5 20q-42.5 30 -62.5 93q-12 41 -12 125q0 86 16.5 136.5t57.5 79.5q43 30 106 30t106.5 -31t61.5 -88q13 -39 13 -128h-335q0 -76 10.5 -119t43.5 -71q34 -31 106 -31q45 0 83 20t66 59l19 -17q-26 -42 -70 -65t-98 -23q-69 0 -111.5 30z
M402 264q0 122 -63 168q-34 25 -93 25q-110 0 -143 -104q-10 -30 -10 -89h309z" />
    <glyph glyph-name="eacute" unicode="&#xe9;" horiz-adv-x="493" 
d="M247 560h-26l90 140h33zM141.5 20q-42.5 30 -62.5 93q-12 41 -12 125q0 86 16.5 136.5t57.5 79.5q43 30 106 30t106.5 -31t61.5 -88q13 -39 13 -128h-335q0 -76 10.5 -119t43.5 -71q34 -31 106 -31q45 0 83 20t66 59l19 -17q-26 -42 -70 -65t-98 -23q-69 0 -111.5 30z
M402 264q0 122 -63 168q-34 25 -93 25q-110 0 -143 -104q-10 -30 -10 -89h309z" />
    <glyph glyph-name="ecircumflex" unicode="&#xea;" horiz-adv-x="493" 
d="M356 560h-25l-86 109l-84 -109h-25l99 140h20zM141.5 20q-42.5 30 -62.5 93q-12 41 -12 125q0 86 16.5 136.5t57.5 79.5q43 30 106 30t106.5 -31t61.5 -88q13 -39 13 -128h-335q0 -76 10.5 -119t43.5 -71q34 -31 106 -31q45 0 83 20t66 59l19 -17q-26 -42 -70 -65
t-98 -23q-69 0 -111.5 30zM402 264q0 122 -63 168q-34 25 -93 25q-110 0 -143 -104q-10 -30 -10 -89h309z" />
    <glyph glyph-name="edieresis" unicode="&#xeb;" horiz-adv-x="493" 
d="M125 680h44v-60h-44v60zM324 680h43v-60h-43v60zM353.5 453q43.5 -31 61.5 -88q13 -39 13 -128h-335q0 -76 10.5 -119t43.5 -71q34 -31 106 -31q45 0 83 20t66 59l19 -17q-26 -42 -70 -65t-98 -23q-69 0 -111.5 30t-62.5 93q-12 41 -12 125q0 86 16.5 136.5t57.5 79.5
q43 30 106 30t106.5 -31zM103 353q-10 -30 -10 -89h309q0 122 -63 168q-34 25 -93 25q-110 0 -143 -104z" />
    <glyph glyph-name="igrave" unicode="&#xec;" horiz-adv-x="228" 
d="M127 560h-25l-97 140h32zM127 0h-25v475h25v-475z" />
    <glyph glyph-name="iacute" unicode="&#xed;" horiz-adv-x="228" 
d="M128 560h-26l90 140h34zM127 0h-25v475h25v-475z" />
    <glyph glyph-name="icircumflex" unicode="&#xee;" horiz-adv-x="228" 
d="M226 560h-25l-86 109l-84 -109h-25l99 140h20zM127 0h-25v475h25v-475z" />
    <glyph glyph-name="idieresis" unicode="&#xef;" horiz-adv-x="228" 
d="M-7 680h44v-60h-44v60zM192 680h44v-60h-44v60zM102 475h25v-475h-25v475z" />
    <glyph glyph-name="eth" unicode="&#xf0;" horiz-adv-x="502" 
d="M250 607l105 31l8 -26l-92 -28l46 -54q65 -76 91.5 -139t26.5 -144q0 -92 -17 -144t-59 -81q-44 -32 -107 -32q-62 0 -105.5 31t-63.5 89q-17 53 -17 126q0 81 19 133.5t61 82.5q43 31 107 31q22 0 47.5 -8.5t48.5 -23.5l-104 125l-110 -33l-8 28l96 28l-68 81h35z
M151.5 424.5q-36.5 -29.5 -47.5 -79.5q-11 -49 -11 -108q0 -71 10.5 -113t43.5 -72q35 -32 105 -32q50 0 88 27t54 74q15 44 15 116t-15 112q-16 49 -54 77t-88 28q-64 0 -100.5 -29.5z" />
    <glyph glyph-name="ntilde" unicode="&#xf1;" horiz-adv-x="538" 
d="M262 636q-25 18 -45 18q-12 0 -29 -11t-34 -31v30q28 37 64 37q21 0 56 -20q23 -18 45 -18q16 0 29.5 9.5t33.5 34.5v-35q-32 -35 -63 -35q-24 0 -57 21zM418 294q0 83 -35 122.5t-107 39.5q-64 0 -106.5 -41t-42.5 -106v-309h-25v475h25v-81q38 90 149 90
q167 0 167 -183v-301h-25v294z" />
    <glyph glyph-name="ograve" unicode="&#xf2;" horiz-adv-x="502" 
d="M277 560h-25l-97 140h32zM145 21.5q-44 31.5 -62 88.5q-16 48 -16 128q0 82 18.5 134t59.5 81q43 31 105 31q63 0 107.5 -31t62.5 -88q16 -48 16 -127q0 -83 -18 -135t-60 -81q-47 -32 -108 -32t-105 31.5zM352 48.5q37 29.5 48 78.5q10 44 10 111q0 70 -11.5 114
t-44.5 73q-34 31 -104 31q-65 0 -101 -30t-47 -79q-10 -44 -10 -109q0 -70 11 -114t44 -73q35 -32 103 -32q65 0 102 29.5z" />
    <glyph glyph-name="oacute" unicode="&#xf3;" horiz-adv-x="502" 
d="M248 560h-26l90 140h34zM145 21.5q-44 31.5 -62 88.5q-16 48 -16 128q0 82 18.5 134t59.5 81q43 31 105 31q63 0 107.5 -31t62.5 -88q16 -48 16 -127q0 -83 -18 -135t-60 -81q-47 -32 -108 -32t-105 31.5zM352 48.5q37 29.5 48 78.5q10 44 10 111q0 70 -11.5 114
t-44.5 73q-34 31 -104 31q-65 0 -101 -30t-47 -79q-10 -44 -10 -109q0 -70 11 -114t44 -73q35 -32 103 -32q65 0 102 29.5z" />
    <glyph glyph-name="ocircumflex" unicode="&#xf4;" horiz-adv-x="502" 
d="M360 560h-25l-86 109l-84 -109h-25l99 140h20zM145 21.5q-44 31.5 -62 88.5q-16 48 -16 128q0 82 18.5 134t59.5 81q43 31 105 31q63 0 107.5 -31t62.5 -88q16 -48 16 -127q0 -83 -18 -135t-60 -81q-47 -32 -108 -32t-105 31.5zM352 48.5q37 29.5 48 78.5q10 44 10 111
q0 70 -11.5 114t-44.5 73q-34 31 -104 31q-65 0 -101 -30t-47 -79q-10 -44 -10 -109q0 -70 11 -114t44 -73q35 -32 103 -32q65 0 102 29.5z" />
    <glyph glyph-name="otilde" unicode="&#xf5;" horiz-adv-x="502" 
d="M244 636q-25 18 -45 18q-12 0 -29 -11t-34 -31v30q28 37 64 37q21 0 56 -20q22 -18 45 -18q16 0 29.5 9.5t33.5 34.5v-35q-32 -35 -63 -35q-24 0 -57 21zM145 21.5q-44 31.5 -62 88.5q-16 48 -16 128q0 82 18.5 134t59.5 81q43 31 105 31q63 0 107.5 -31t62.5 -88
q16 -48 16 -127q0 -83 -18 -135t-60 -81q-47 -32 -108 -32t-105 31.5zM352 48.5q37 29.5 48 78.5q10 44 10 111q0 70 -11.5 114t-44.5 73q-34 31 -104 31q-65 0 -101 -30t-47 -79q-10 -44 -10 -109q0 -70 11 -114t44 -73q35 -32 103 -32q65 0 102 29.5z" />
    <glyph glyph-name="odieresis" unicode="&#xf6;" horiz-adv-x="502" 
d="M129 680h44v-60h-44v60zM328 680h43v-60h-43v60zM357.5 453q44.5 -31 62.5 -88q16 -48 16 -127q0 -83 -18 -135t-60 -81q-47 -32 -108 -32t-105 31.5t-62 88.5q-16 48 -16 128q0 82 18.5 134t59.5 81q43 31 105 31q63 0 107.5 -31zM149 426q-36 -30 -47 -79
q-10 -44 -10 -109q0 -70 11 -114t44 -73q35 -32 103 -32q65 0 102 29.5t48 78.5q10 44 10 111q0 70 -11.5 114t-44.5 73q-34 31 -104 31q-65 0 -101 -30z" />
    <glyph glyph-name="divide" unicode="&#xf7;" 
d="M293 408q0 -13 -9 -22t-22 -9q-12 0 -22 9.5t-10 21.5q0 13 9.5 22t22.5 9t22 -9t9 -22zM72 289h380v-26h-380v26zM293 143q0 -13 -9 -22t-22 -9t-22.5 9t-9.5 22t9.5 22t22.5 9t22 -9t9 -22z" />
    <glyph glyph-name="oslash" unicode="&#xf8;" horiz-adv-x="502" 
d="M117 51q-21 29 -30 59q-16 48 -16 128q0 82 18.5 134t59.5 81q43 31 105 31q73 0 121 -42l42 63h28l-53 -82q17 -20 32 -58q16 -48 16 -127q0 -83 -18 -135t-60 -81q-47 -32 -108 -32q-70 0 -119 43l-42 -63h-27zM361 417q-42 39 -107 39q-64 0 -100.5 -29.5t-46.5 -79.5
q-10 -44 -10 -109q0 -61 7.5 -95.5t28.5 -67.5zM355.5 49q36.5 30 47.5 80q10 44 10 109q0 95 -18 138l-17 24l-228 -342q41 -39 104 -39q65 0 101.5 30z" />
    <glyph glyph-name="ugrave" unicode="&#xf9;" horiz-adv-x="531" 
d="M301 560h-25l-97 140h32zM404 79q-36 -89 -147 -89q-80 0 -122 46.5t-42 136.5v302h25v-294q0 -83 34.5 -122.5t104.5 -39.5q64 0 105.5 41t41.5 106v309h25v-475h-25v79z" />
    <glyph glyph-name="uacute" unicode="&#xfa;" horiz-adv-x="531" 
d="M261 560h-26l90 140h33zM404 79q-36 -89 -147 -89q-80 0 -122 46.5t-42 136.5v302h25v-294q0 -83 34.5 -122.5t104.5 -39.5q64 0 105.5 41t41.5 106v309h25v-475h-25v79z" />
    <glyph glyph-name="ucircumflex" unicode="&#xfb;" horiz-adv-x="531" 
d="M374 560h-24l-86 109l-85 -109h-24l99 140h20zM404 79q-36 -89 -147 -89q-80 0 -122 46.5t-42 136.5v302h25v-294q0 -83 34.5 -122.5t104.5 -39.5q64 0 105.5 41t41.5 106v309h25v-475h-25v79z" />
    <glyph glyph-name="udieresis" unicode="&#xfc;" horiz-adv-x="531" 
d="M143 680h44v-60h-44v60zM342 680h43v-60h-43v60zM429 0h-25v79q-36 -89 -147 -89q-80 0 -122 46.5t-42 136.5v302h25v-294q0 -83 34.5 -122.5t104.5 -39.5q64 0 105.5 41t41.5 106v309h25v-475z" />
    <glyph glyph-name="yacute" unicode="&#xfd;" horiz-adv-x="458" 
d="M231 560h-26l90 140h33zM71 -180v28h28q24 0 40 9t29 30q14 23 30 66l22 53l-180 469h27l168 -427l164 427h27l-204 -529q-20 -54 -37 -80t-37 -36q-19 -10 -51 -10h-26z" />
    <glyph glyph-name="thorn" unicode="&#xfe;" 
d="M102 680h25v-287q19 45 58 68t96 23q122 0 160 -113q17 -62 17 -134q0 -71 -17 -133q-37 -114 -160 -114q-114 0 -154 91v-261h-25v860zM367 42.5q34 23.5 51 71.5q14 42 14 123q0 83 -15 127t-50 69q-35 23 -88 23q-66 0 -99.5 -29.5t-43 -75t-9.5 -114.5
q0 -68 9.5 -113.5t43 -75t99.5 -29.5q54 0 88 23.5z" />
    <glyph glyph-name="ydieresis" unicode="&#xff;" horiz-adv-x="458" 
d="M111 680h44v-60h-44v60zM310 680h43v-60h-43v60zM222 -54q-20 -54 -37 -80t-37 -36q-19 -10 -51 -10h-26v28h28q24 0 40 9t29 30q14 23 30 66l22 53l-180 469h27l168 -427l164 427h27z" />
    <glyph glyph-name="Amacron" unicode="&#x100;" horiz-adv-x="586" 
d="M421 809h-249v29h249v-29zM67 0h-30l248 680h23l248 -680h-30l-72 195h-316zM298 631l-149 -406h295z" />
    <glyph glyph-name="amacron" unicode="&#x101;" horiz-adv-x="508" 
d="M130 662h248v-28h-248v28zM377.5 449.5q36.5 -34.5 36.5 -118.5v-331h-26v70q-13 -36 -55.5 -58t-99.5 -22q-76 0 -117.5 36t-41.5 103q0 135 175 135h138v68q0 48 -11.5 74.5t-39.5 38.5q-29 12 -81 12q-89 0 -134 -45l-19 20q49 52 151 52q88 0 124.5 -34.5zM250 237
q-78 0 -114 -26t-36 -83q0 -52 35 -80t100 -28q67 0 109.5 33.5t42.5 86.5v97h-137z" />
    <glyph glyph-name="Abreve" unicode="&#x102;" horiz-adv-x="586" 
d="M217 803q-32 28 -37 76h23q16 -76 92 -76q75 0 94 76h23q-6 -47 -38.5 -75.5t-78.5 -28.5t-78 28zM67 0h-30l248 680h23l248 -680h-30l-72 195h-316zM298 631l-149 -406h295z" />
    <glyph glyph-name="abreve" unicode="&#x103;" horiz-adv-x="508" 
d="M371 682q-6 -47 -38.5 -75t-78.5 -28t-78 28t-37 75h25q9 -39 31 -57t59 -18t61.5 19t33.5 56h22zM377.5 449.5q36.5 -34.5 36.5 -118.5v-331h-26v70q-13 -36 -55.5 -58t-99.5 -22q-76 0 -117.5 36t-41.5 103q0 135 175 135h138v68q0 48 -11.5 74.5t-39.5 38.5
q-29 12 -81 12q-89 0 -134 -45l-19 20q49 52 151 52q88 0 124.5 -34.5zM250 237q-78 0 -114 -26t-36 -83q0 -52 35 -80t100 -28q67 0 109.5 33.5t42.5 86.5v97h-137z" />
    <glyph glyph-name="Aogonek" unicode="&#x104;" horiz-adv-x="586" 
d="M552 -122v-26q-55 -1 -77 15t-22 60q0 32 20.5 51.5t51.5 21.5l-71 195h-316l-71 -195h-30l247 680h24l247 -680l-26 -14q-43 -22 -43 -61q0 -46 66 -47zM297 631l-148 -406h295z" />
    <glyph glyph-name="aogonek" unicode="&#x105;" horiz-adv-x="508" 
d="M414 0q-12 -3 -30.5 -13.5t-27.5 -23.5q-12 -17 -12 -38t16.5 -33.5t50.5 -13.5v-26q-55 -1 -77 15t-22 60q0 32 21.5 51t54.5 22v70q-13 -36 -55.5 -58t-99.5 -22q-76 0 -117.5 36t-41.5 103q0 135 175 135h138v68q0 48 -11.5 74.5t-39.5 38.5q-29 12 -81 12
q-89 0 -134 -45l-19 20q49 52 151 52q88 0 124.5 -34.5t36.5 -118.5v-331zM387 237h-137q-78 0 -114 -26t-36 -83q0 -52 35 -80t100 -28q67 0 109.5 33.5t42.5 86.5v97z" />
    <glyph glyph-name="Cacute" unicode="&#x106;" horiz-adv-x="547" 
d="M281 747h-25l90 141h33zM164.5 26q-50.5 36 -76.5 109q-18 57 -18 205q0 98 9.5 158.5t29.5 95.5q24 42 68.5 69t115.5 27q89 0 146 -51.5t68 -153.5h-28q-11 87 -61 132t-125 45q-83 0 -126.5 -36t-56.5 -106q-13 -65 -13 -180q0 -143 17 -197q45 -124 179 -124
q43 0 83.5 19t69.5 55q30 39 37 95h27q-14 -98 -71.5 -148t-145.5 -50q-78 0 -128.5 36z" />
    <glyph glyph-name="cacute" unicode="&#x107;" horiz-adv-x="468" 
d="M248 560h-26l90 140h33zM84.5 372q17.5 52 58.5 81q43 31 106 31q112 0 163 -105l-26 -9q-18 41 -54.5 63.5t-82.5 22.5q-111 0 -142 -103q-15 -42 -15 -116q0 -73 15 -114q32 -104 142 -104q41 0 78 23.5t59 62.5l26 -8q-27 -51 -69.5 -79t-93.5 -28q-62 0 -106 31.5
t-61 88.5q-15 53 -15 127q0 83 17.5 135z" />
    <glyph glyph-name="Ccircumflex" unicode="&#x108;" horiz-adv-x="547" 
d="M204 755h-24l99 140h20l100 -140h-24l-86 109zM164.5 26q-50.5 36 -76.5 109q-18 57 -18 205q0 98 9.5 158.5t29.5 95.5q24 42 68.5 69t115.5 27q89 0 146 -51.5t68 -153.5h-28q-11 87 -61 132t-125 45q-83 0 -126.5 -36t-56.5 -106q-13 -65 -13 -180q0 -143 17 -197
q45 -124 179 -124q43 0 83.5 19t69.5 55q30 39 37 95h27q-14 -98 -71.5 -148t-145.5 -50q-78 0 -128.5 36z" />
    <glyph glyph-name="ccircumflex" unicode="&#x109;" horiz-adv-x="468" 
d="M361 560h-24l-86 109l-85 -109h-24l99 140h20zM84.5 372q17.5 52 58.5 81q43 31 106 31q112 0 163 -105l-26 -9q-18 41 -54.5 63.5t-82.5 22.5q-111 0 -142 -103q-15 -42 -15 -116q0 -73 15 -114q32 -104 142 -104q41 0 78 23.5t59 62.5l26 -8q-27 -51 -69.5 -79
t-93.5 -28q-62 0 -106 31.5t-61 88.5q-15 53 -15 127q0 83 17.5 135z" />
    <glyph glyph-name="Cdotaccent" unicode="&#x10a;" horiz-adv-x="547" 
d="M311 795h-44v60h44v-60zM164.5 26q-50.5 36 -76.5 109q-18 57 -18 205q0 98 9.5 158.5t29.5 95.5q24 42 68.5 69t115.5 27q89 0 146 -51.5t68 -153.5h-28q-11 87 -61 132t-125 45q-83 0 -126.5 -36t-56.5 -106q-13 -65 -13 -180q0 -143 17 -197q45 -124 179 -124
q43 0 83.5 19t69.5 55q30 39 37 95h27q-14 -98 -71.5 -148t-145.5 -50q-78 0 -128.5 36z" />
    <glyph glyph-name="cdotaccent" unicode="&#x10b;" horiz-adv-x="468" 
d="M271 619h-43v61h43v-61zM84.5 372q17.5 52 58.5 81q43 31 106 31q112 0 163 -105l-26 -9q-18 41 -54.5 63.5t-82.5 22.5q-111 0 -142 -103q-15 -42 -15 -116q0 -73 15 -114q32 -104 142 -104q41 0 78 23.5t59 62.5l26 -8q-27 -51 -69.5 -79t-93.5 -28q-62 0 -106 31.5
t-61 88.5q-15 53 -15 127q0 83 17.5 135z" />
    <glyph glyph-name="Ccaron" unicode="&#x10c;" horiz-adv-x="547" 
d="M298 756h-19l-100 140h25l85 -109l85 109h25zM164.5 26q-50.5 36 -76.5 109q-18 57 -18 205q0 98 9.5 158.5t29.5 95.5q24 42 68.5 69t115.5 27q89 0 146 -51.5t68 -153.5h-28q-11 87 -61 132t-125 45q-83 0 -126.5 -36t-56.5 -106q-13 -65 -13 -180q0 -143 17 -197
q45 -124 179 -124q43 0 83.5 19t69.5 55q30 39 37 95h27q-14 -98 -71.5 -148t-145.5 -50q-78 0 -128.5 36z" />
    <glyph glyph-name="ccaron" unicode="&#x10d;" horiz-adv-x="468" 
d="M336 700h24l-100 -141h-20l-100 141h25l85 -109zM84.5 372q17.5 52 58.5 81q43 31 106 31q112 0 163 -105l-26 -9q-18 41 -54.5 63.5t-82.5 22.5q-111 0 -142 -103q-15 -42 -15 -116q0 -73 15 -114q32 -104 142 -104q41 0 78 23.5t59 62.5l26 -8q-27 -51 -69.5 -79
t-93.5 -28q-62 0 -106 31.5t-61 88.5q-15 53 -15 127q0 83 17.5 135z" />
    <glyph glyph-name="Dcaron" unicode="&#x10e;" horiz-adv-x="618" 
d="M308 756h-20l-99 140h24l85 -109l86 109h24zM104 680h208q101 0 153.5 -39t65.5 -111q13 -65 13 -190q0 -90 -5 -143.5t-21 -91t-49 -64.5q-50 -41 -157 -41h-208v680zM314 28q90 0 134.5 33.5t56.5 98.5q11 64 11 180q0 150 -18 201q-19 56 -64.5 83.5t-119.5 27.5h-184
v-624h184z" />
    <glyph glyph-name="dcaron" unicode="&#x10f;" 
d="M398 82q-41 -92 -155 -92q-73 0 -113 34t-52 91q-11 55 -11 122q0 70 11 122t49.5 88.5t115.5 36.5q58 0 96 -22t59 -69v287h25v-680h-25v82zM523 622l-34 -102v160h34v-58zM383 114q15 41 15 123q0 84 -15 124q-30 95 -138 95q-63 0 -98 -28.5t-45 -77.5
q-10 -44 -10 -113q0 -72 11 -116t43 -72q33 -30 99 -30q108 0 138 95z" />
    <glyph glyph-name="Dcroat" unicode="&#x110;" horiz-adv-x="618" 
d="M104 331h-63v30h63v319h208q101 0 153.5 -39t65.5 -111q13 -65 13 -190q0 -90 -5 -143.5t-21 -91t-49 -64.5q-50 -41 -157 -41h-208v331zM314 28q90 0 134.5 33.5t56.5 98.5q11 64 11 180q0 150 -18 201q-19 56 -64.5 83.5t-119.5 27.5h-184v-291h163v-30h-163v-303h184z
" />
    <glyph glyph-name="dslash" unicode="&#x111;" 
d="M398 81q-40 -91 -155 -91q-73 0 -113 34t-52 91q-11 55 -11 122q0 70 11 122t49.5 88.5t115.5 36.5q57 0 95 -22t60 -68v177h-158v26h158v83h25v-83h48v-26h-48v-571h-25v81zM383 114q15 41 15 123q0 84 -15 124q-30 95 -138 95q-63 0 -98 -28.5t-45 -77.5
q-10 -44 -10 -113q0 -72 11 -116t43 -72q33 -30 99 -30q108 0 138 95z" />
    <glyph glyph-name="Emacron" unicode="&#x112;" horiz-adv-x="549" 
d="M412 809h-249v29h249v-29zM494 0h-390v680h390v-28h-364v-292h318v-28h-318v-304h364v-28z" />
    <glyph glyph-name="emacron" unicode="&#x113;" horiz-adv-x="493" 
d="M370 634h-249v28h249v-28zM141.5 20q-42.5 30 -62.5 93q-12 41 -12 125q0 86 16.5 136.5t57.5 79.5q43 30 106 30t106.5 -31t61.5 -88q13 -39 13 -128h-335q0 -76 10.5 -119t43.5 -71q34 -31 106 -31q45 0 83 20t66 59l19 -17q-26 -42 -70 -65t-98 -23q-69 0 -111.5 30z
M402 264q0 122 -63 168q-34 25 -93 25q-110 0 -143 -104q-10 -30 -10 -89h309z" />
    <glyph glyph-name="Ebreve" unicode="&#x114;" horiz-adv-x="549" 
d="M217 803q-32 28 -37 76h25q16 -76 90 -76q75 0 94 76h23q-6 -47 -38.5 -75.5t-78.5 -28.5t-78 28zM494 0h-390v680h390v-28h-364v-292h318v-28h-318v-304h364v-28z" />
    <glyph glyph-name="ebreve" unicode="&#x115;" horiz-adv-x="493" 
d="M156 682q16 -75 90 -75q76 0 95 75h23q-6 -47 -39 -75t-79 -28q-48 0 -79 28t-35 75h24zM141.5 20q-42.5 30 -62.5 93q-12 41 -12 125q0 86 16.5 136.5t57.5 79.5q43 30 106 30t106.5 -31t61.5 -88q13 -39 13 -128h-335q0 -76 10.5 -119t43.5 -71q34 -31 106 -31
q45 0 83 20t66 59l19 -17q-26 -42 -70 -65t-98 -23q-69 0 -111.5 30zM402 264q0 122 -63 168q-34 25 -93 25q-110 0 -143 -104q-10 -30 -10 -89h309z" />
    <glyph glyph-name="Edotaccent" unicode="&#x116;" horiz-adv-x="549" 
d="M321 795h-44v60h44v-60zM494 0h-390v680h390v-28h-364v-292h318v-28h-318v-304h364v-28z" />
    <glyph glyph-name="edotaccent" unicode="&#x117;" horiz-adv-x="493" 
d="M267 619h-43v61h43v-61zM141.5 20q-42.5 30 -62.5 93q-12 41 -12 125q0 86 16.5 136.5t57.5 79.5q43 30 106 30t106.5 -31t61.5 -88q13 -39 13 -128h-335q0 -76 10.5 -119t43.5 -71q34 -31 106 -31q45 0 83 20t66 59l19 -17q-26 -42 -70 -65t-98 -23q-69 0 -111.5 30z
M402 264q0 122 -63 168q-34 25 -93 25q-110 0 -143 -104q-10 -30 -10 -89h309z" />
    <glyph glyph-name="Eogonek" unicode="&#x118;" horiz-adv-x="549" 
d="M130 652v-292h318v-28h-318v-304h364v-28h-17l-24 -11q-21 -10 -33 -26.5t-12 -37.5t16.5 -33.5t50.5 -13.5v-26q-56 -1 -78 14.5t-22 58.5q0 33 21 53t52 22h-344v680h390v-28h-364z" />
    <glyph glyph-name="eogonek" unicode="&#x119;" horiz-adv-x="493" 
d="M336 36q38 20 66 59l19 -17q-21 -34 -53 -55l5 3q-9 -8 -31 -24q-34 -25 -46 -40.5t-12 -36.5t16.5 -33.5t50.5 -13.5v-26q-56 -1 -78 15t-22 60q0 26 14.5 44t39.5 25q-25 -6 -52 -6q-69 0 -111.5 30t-62.5 93q-12 41 -12 125q0 86 16.5 136.5t57.5 79.5q43 30 106 30
t106.5 -31t61.5 -88q13 -39 13 -128h-335q0 -76 10.5 -119t43.5 -71q34 -31 106 -31q45 0 83 20zM93 264h309q0 122 -63 168q-34 25 -93 25q-110 0 -143 -104q-10 -30 -10 -89zM344 9q-25 -9 -30 -11l13 2z" />
    <glyph glyph-name="Ecaron" unicode="&#x11a;" horiz-adv-x="549" 
d="M307 756h-20l-99 140h25l84 -109l86 109h25zM494 0h-390v680h390v-28h-364v-292h318v-28h-318v-304h364v-28z" />
    <glyph glyph-name="ecaron" unicode="&#x11b;" horiz-adv-x="493" 
d="M331 700h25l-101 -141h-20l-99 141h24l85 -109zM141.5 20q-42.5 30 -62.5 93q-12 41 -12 125q0 86 16.5 136.5t57.5 79.5q43 30 106 30t106.5 -31t61.5 -88q13 -39 13 -128h-335q0 -76 10.5 -119t43.5 -71q34 -31 106 -31q45 0 83 20t66 59l19 -17q-26 -42 -70 -65
t-98 -23q-69 0 -111.5 30zM402 264q0 122 -63 168q-34 25 -93 25q-110 0 -143 -104q-10 -30 -10 -89h309z" />
    <glyph glyph-name="Gcircumflex" unicode="&#x11c;" horiz-adv-x="600" 
d="M215 755h-24l99 140h20l100 -140h-24l-86 109zM166 26.5q-52 36.5 -76 111.5q-20 62 -20 202q0 96 9.5 156t30.5 97q55 97 191 97q96 0 152 -48.5t71 -156.5h-27q-25 177 -197 177q-144 0 -185 -128q-19 -51 -19 -194q0 -142 19 -193q41 -128 185 -128q73 0 118 31t67 96
q18 48 18 155h-191v31h218v-42q0 -100 -22.5 -163t-73.5 -99q-56 -38 -133 -38q-83 0 -135 36.5z" />
    <glyph glyph-name="gcircumflex" unicode="&#x11d;" horiz-adv-x="515" 
d="M239 700h20l100 -140h-24l-86 109l-85 -109h-24zM332 462q37 -22 57 -68v81h25v-477q0 -92 -45 -140t-129 -48q-45 0 -91 23t-65 53l24 15q22 -28 58 -45.5t73 -17.5q150 0 150 160v84q-39 -92 -150 -92q-61 0 -99.5 28t-57.5 85q-16 45 -16 134q0 80 12 129t48 83
q38 35 113 35q56 0 93 -22zM124 401q-32 -55 -32 -164q0 -83 16 -124q30 -95 133 -95q61 0 95 27.5t44 76.5q9 47 9 115q0 75 -10.5 118.5t-40.5 71.5q-34 29 -97 29q-85 0 -117 -55z" />
    <glyph glyph-name="Gbreve" unicode="&#x11e;" horiz-adv-x="600" 
d="M222 803q-32 28 -37 76h25q16 -76 90 -76q75 0 94 76h23q-6 -47 -38.5 -75.5t-78.5 -28.5t-78 28zM166 26.5q-52 36.5 -76 111.5q-20 62 -20 202q0 96 9.5 156t30.5 97q55 97 191 97q96 0 152 -48.5t71 -156.5h-27q-25 177 -197 177q-144 0 -185 -128q-19 -51 -19 -194
q0 -142 19 -193q41 -128 185 -128q73 0 118 31t67 96q18 48 18 155h-191v31h218v-42q0 -100 -22.5 -163t-73.5 -99q-56 -38 -133 -38q-83 0 -135 36.5z" />
    <glyph glyph-name="gbreve" unicode="&#x11f;" horiz-adv-x="515" 
d="M369 682q-6 -47 -39 -75t-79 -28q-48 0 -79 28t-35 75h24q17 -75 90 -75q76 0 95 75h23zM332 462q37 -22 57 -68v81h25v-477q0 -92 -45 -140t-129 -48q-45 0 -91 23t-65 53l24 15q22 -28 58 -45.5t73 -17.5q150 0 150 160v84q-39 -92 -150 -92q-61 0 -99.5 28t-57.5 85
q-16 45 -16 134q0 80 12 129t48 83q38 35 113 35q56 0 93 -22zM124 401q-32 -55 -32 -164q0 -83 16 -124q30 -95 133 -95q61 0 95 27.5t44 76.5q9 47 9 115q0 75 -10.5 118.5t-40.5 71.5q-34 29 -97 29q-85 0 -117 -55z" />
    <glyph glyph-name="Gdotaccent" unicode="&#x120;" horiz-adv-x="600" 
d="M322 795h-44v60h44v-60zM166 26.5q-52 36.5 -76 111.5q-20 62 -20 202q0 96 9.5 156t30.5 97q55 97 191 97q96 0 152 -48.5t71 -156.5h-27q-25 177 -197 177q-144 0 -185 -128q-19 -51 -19 -194q0 -142 19 -193q41 -128 185 -128q73 0 118 31t67 96q18 48 18 155h-191v31
h218v-42q0 -100 -22.5 -163t-73.5 -99q-56 -38 -133 -38q-83 0 -135 36.5z" />
    <glyph glyph-name="gdotaccent" unicode="&#x121;" horiz-adv-x="515" 
d="M273 620h-43v60h43v-60zM149 -167q-46 23 -65 53l24 15q22 -28 58 -45.5t73 -17.5q150 0 150 160v84q-39 -92 -150 -92q-61 0 -99.5 28t-57.5 85q-16 45 -16 134q0 80 12 129t48 83q38 35 113 35q56 0 93 -22t57 -68v81h25v-477q0 -92 -45 -140t-129 -48q-45 0 -91 23z
M336 45.5q34 27.5 44 76.5q9 47 9 115q0 75 -10.5 118.5t-40.5 71.5q-34 29 -97 29q-85 0 -117 -55t-32 -164q0 -83 16 -124q30 -95 133 -95q61 0 95 27.5z" />
    <glyph glyph-name="Gcommaaccent" unicode="&#x122;" horiz-adv-x="600" 
d="M453 641.5q56 -48.5 71 -156.5h-27q-25 177 -197 177q-144 0 -185 -128q-19 -51 -19 -194q0 -142 19 -193q41 -128 185 -128q73 0 118 31t67 96q18 48 18 155h-191v31h218v-42q0 -100 -22.5 -163t-73.5 -99q-56 -38 -133 -38q-83 0 -135 36.5t-76 111.5q-20 62 -20 202
q0 96 9.5 156t30.5 97q55 97 191 97q96 0 152 -48.5zM283 -57h34v-60l-34 -103v163z" />
    <glyph glyph-name="gcommaaccent" unicode="&#x123;" horiz-adv-x="515" 
d="M266 572h-34v57l34 104v-161zM149 -167q-46 23 -65 53l24 15q22 -28 58 -45.5t73 -17.5q150 0 150 160v84q-39 -92 -150 -92q-61 0 -99.5 28t-57.5 85q-16 45 -16 134q0 80 12 129t48 83q38 35 113 35q56 0 93 -22t57 -68v81h25v-477q0 -92 -45 -140t-129 -48
q-45 0 -91 23zM336 45.5q34 27.5 44 76.5q9 47 9 115q0 75 -10.5 118.5t-40.5 71.5q-34 29 -97 29q-85 0 -117 -55t-32 -164q0 -83 16 -124q30 -95 133 -95q61 0 95 27.5z" />
    <glyph glyph-name="Hcircumflex" unicode="&#x124;" horiz-adv-x="647" 
d="M238 755h-24l99 140h20l100 -140h-24l-86 109zM130 0h-26v680h26v-320h387v320h26v-680h-26v332h-387v-332z" />
    <glyph glyph-name="hcircumflex" unicode="&#x125;" horiz-adv-x="538" 
d="M384 755h-24l-86 109l-85 -109h-24l99 140h20zM418 294q0 83 -35 122.5t-107 39.5q-64 0 -106.5 -41t-42.5 -106v-309h-25v680h25v-286q38 90 149 90q167 0 167 -183v-301h-25v294z" />
    <glyph glyph-name="Hbar" unicode="&#x126;" horiz-adv-x="647" 
d="M130 0h-26v502h-59v30h59v148h26v-148h387v148h26v-148h59v-30h-59v-502h-26v332h-387v-332zM130 502v-142h387v142h-387z" />
    <glyph glyph-name="hbar" unicode="&#x127;" horiz-adv-x="538" 
d="M418 294q0 83 -35 122.5t-107 39.5q-64 0 -106.5 -41t-42.5 -106v-309h-25v571h-49v26h49v83h25v-83h157v-26h-157v-176q39 89 149 89q167 0 167 -183v-301h-25v294z" />
    <glyph glyph-name="Itilde" unicode="&#x128;" horiz-adv-x="234" 
d="M4 821q29 38 64 38q21 0 56 -20q23 -18 45 -18q16 0 29.5 9.5t33.5 34.5v-35q-32 -35 -63 -35q-24 0 -57 21q-26 18 -45 18q-12 0 -29 -11t-34 -31v29zM130 0h-26v680h26v-680z" />
    <glyph glyph-name="itilde" unicode="&#x129;" horiz-adv-x="228" 
d="M109 637q-27 18 -46 18q-11 0 -28.5 -12t-33.5 -31v30q29 38 63 38q22 0 57 -20q21 -18 45 -18q15 0 29 9.5t34 33.5v-34q-33 -36 -64 -36q-25 0 -56 22zM127 0h-25v475h25v-475z" />
    <glyph glyph-name="Imacron" unicode="&#x12a;" horiz-adv-x="234" 
d="M242 809h-249v29h249v-29zM130 0h-26v680h26v-680z" />
    <glyph glyph-name="imacron" unicode="&#x12b;" horiz-adv-x="228" 
d="M239 634h-248v28h248v-28zM127 0h-25v475h25v-475z" />
    <glyph glyph-name="Ibreve" unicode="&#x12c;" horiz-adv-x="234" 
d="M44 803q-32 28 -37 76h23q16 -76 92 -76q75 0 94 76h23q-6 -47 -38.5 -75.5t-78.5 -28.5t-78 28zM130 0h-26v680h26v-680z" />
    <glyph glyph-name="ibreve" unicode="&#x12d;" horiz-adv-x="228" 
d="M27 682q16 -76 90 -76q75 0 94 76h23q-6 -47 -38.5 -75.5t-78.5 -28.5t-78 28t-37 76h25zM127 0h-25v475h25v-475z" />
    <glyph glyph-name="Iogonek" unicode="&#x12e;" horiz-adv-x="234" 
d="M81.5 -108.5q16.5 -12.5 50.5 -13.5v-26q-55 -1 -77 14.5t-22 58.5q0 33 20 53t51 22v680h26v-680q-38 -19 -51.5 -33.5t-13.5 -41.5q0 -21 16.5 -33.5z" />
    <glyph glyph-name="iogonek" unicode="&#x12f;" horiz-adv-x="228" 
d="M94 620v60h40v-60h-40zM102 475h25v-475l-25 -11q-22 -10 -34 -26.5t-12 -37.5t16.5 -33.5t50.5 -13.5v-26q-56 -1 -78 15t-22 60q0 31 22.5 50.5t55.5 22.5h1v475z" />
    <glyph glyph-name="Idot" unicode="&#x130;" horiz-adv-x="234" 
d="M142 795h-50v60h50v-60zM130 0h-26v680h26v-680z" />
    <glyph glyph-name="dotlessi" unicode="&#x131;" horiz-adv-x="228" 
d="M127 0h-25v475h25v-475z" />
    <glyph glyph-name="IJ" unicode="&#x132;" horiz-adv-x="691" 
d="M130 0h-26v680h26v-680zM336.5 1.5q-32.5 11.5 -65.5 40.5l17 22q62 -45 124 -45q78 0 116.5 42.5t38.5 130.5v488h26v-488q0 -101 -45.5 -151.5t-135.5 -50.5q-43 0 -75.5 11.5z" />
    <glyph glyph-name="ij" unicode="&#x133;" horiz-adv-x="456" 
d="M134 620h-40v60h40v-60zM362 620h-40v60h40v-60zM127 0h-25v475h25v-475zM239 -152h12q33 0 49 6.5t23 23.5q7 14 7 51v546h25v-546q0 -43 -9.5 -66.5t-31.5 -32.5q-20 -10 -63 -10h-12v28z" />
    <glyph glyph-name="Jcircumflex" unicode="&#x134;" horiz-adv-x="458" 
d="M270 755h-24l99 140h20l100 -140h-24l-86 109zM112.5 1.5q-32.5 11.5 -65.5 40.5l17 22q62 -45 124 -45q78 0 116.5 42.5t38.5 130.5v488h26v-488q0 -101 -45.5 -151.5t-135.5 -50.5q-43 0 -75.5 11.5z" />
    <glyph glyph-name="jcircumflex" unicode="&#x135;" horiz-adv-x="228" 
d="M227 560h-24l-86 109l-85 -109h-24l99 140h20zM11 -152h12q33 0 49 6.5t23 23.5q7 14 7 51v546h25v-546q0 -43 -9.5 -66.5t-31.5 -32.5q-20 -10 -63 -10h-12v28z" />
    <glyph glyph-name="Kcommaaccent" unicode="&#x136;" horiz-adv-x="579" 
d="M130 0h-26v680h26v-438l367 438h34l-225 -268l236 -412h-32l-223 388l-157 -186v-202zM307 -117l-34 -103v163h34v-60z" />
    <glyph glyph-name="kcommaaccent" unicode="&#x137;" horiz-adv-x="489" 
d="M102 680h25v-501l250 296h31l-143 -173l185 -302h-30l-173 280l-120 -143v-137h-25v680zM227 -57h34v-60l-34 -103v163z" />
    <glyph glyph-name="kgreenlandic" unicode="&#x138;" horiz-adv-x="489" 
d="M450 0h-30l-173 280l-120 -143v-137h-25v475h25v-296l249 296h32l-143 -173z" />
    <glyph glyph-name="Lacute" unicode="&#x139;" horiz-adv-x="523" 
d="M148 747h-26l90 141h34zM494 0h-390v680h26v-652h364v-28z" />
    <glyph glyph-name="lacute" unicode="&#x13a;" horiz-adv-x="248" 
d="M125 748h-25l90 140h33zM184 -2q-46 0 -64.5 22.5t-18.5 77.5v582h25v-582q0 -41 12.5 -56t43.5 -15h24v-29h-22z" />
    <glyph glyph-name="Lcommaaccent" unicode="&#x13b;" horiz-adv-x="523" 
d="M494 0h-390v680h26v-652h364v-28zM321 -117l-34 -103v163h34v-60z" />
    <glyph glyph-name="lcommaaccent" unicode="&#x13c;" horiz-adv-x="248" 
d="M184 -2q-46 0 -64.5 22.5t-18.5 77.5v582h25v-582q0 -41 12.5 -56t43.5 -15h24v-29h-22zM172 -117l-34 -103v163h34v-60z" />
    <glyph glyph-name="Lcaron" unicode="&#x13d;" horiz-adv-x="523" 
d="M494 0h-390v680h26v-652h364v-28zM276 621l-34 -103v162h34v-59z" />
    <glyph glyph-name="lcaron" unicode="&#x13e;" horiz-adv-x="248" 
d="M184 -2q-46 0 -64.5 22.5t-18.5 77.5v582h25v-582q0 -41 12.5 -56t43.5 -15h24v-29h-22zM227 621l-34 -103v162h34v-59z" />
    <glyph glyph-name="Ldot" unicode="&#x13f;" horiz-adv-x="523" 
d="M494 0h-390v680h26v-652h364v-28zM406 292h-43v61h43v-61z" />
    <glyph glyph-name="ldot" unicode="&#x140;" horiz-adv-x="265" 
d="M184 -2q-46 0 -64.5 22.5t-18.5 77.5v582h25v-582q0 -41 12.5 -56t43.5 -15h24v-29h-22zM274 297h-44v60h44v-60z" />
    <glyph glyph-name="Lslash" unicode="&#x141;" horiz-adv-x="523" 
d="M494 0h-390v307l-70 -36v33l70 37v339h26v-325l184 94v-34l-184 -93v-294h364v-28z" />
    <glyph glyph-name="lslash" unicode="&#x142;" horiz-adv-x="248" 
d="M126 354v-256q0 -41 12.5 -56t43.5 -15h24v-29h-22q-46 0 -64.5 22.5t-18.5 77.5v244l-52 -27v32l52 27v306h25v-294l80 42v-32z" />
    <glyph glyph-name="Nacute" unicode="&#x143;" horiz-adv-x="648" 
d="M371 888h34l-98 -141h-26zM518 680h27v-680h-30l-384 629v-629h-27v680h27l387 -632v632z" />
    <glyph glyph-name="nacute" unicode="&#x144;" horiz-adv-x="538" 
d="M248 561h-26l87 139h37zM418 294q0 83 -35 122.5t-107 39.5q-64 0 -106.5 -41t-42.5 -106v-309h-25v475h25v-81q38 90 149 90q167 0 167 -183v-301h-25v294z" />
    <glyph glyph-name="Ncommaaccent" unicode="&#x145;" horiz-adv-x="648" 
d="M518 680h27v-680h-30l-384 629v-629h-27v680h27l387 -632v632zM315 -57h34v-60l-34 -103v163z" />
    <glyph glyph-name="ncommaaccent" unicode="&#x146;" horiz-adv-x="538" 
d="M418 294q0 83 -35 122.5t-107 39.5q-64 0 -106.5 -41t-42.5 -106v-309h-25v475h25v-81q38 90 149 90q167 0 167 -183v-301h-25v294zM286 -117l-34 -103v163h34v-60z" />
    <glyph glyph-name="Ncaron" unicode="&#x147;" horiz-adv-x="648" 
d="M413 895h24l-100 -141h-20l-99 141h24l85 -109zM518 680h27v-680h-30l-384 629v-629h-27v680h27l387 -632v632z" />
    <glyph glyph-name="ncaron" unicode="&#x148;" horiz-adv-x="538" 
d="M355 700h24l-100 -141h-20l-99 141h24l85 -109zM418 294q0 83 -35 122.5t-107 39.5q-64 0 -106.5 -41t-42.5 -106v-309h-25v475h25v-81q38 90 149 90q167 0 167 -183v-301h-25v294z" />
    <glyph glyph-name="napostrophe" unicode="&#x149;" horiz-adv-x="538" 
d="M88 621l-34 -103v162h34v-59zM418 294q0 83 -35 122.5t-107 39.5q-64 0 -106.5 -41t-42.5 -106v-309h-25v475h25v-81q38 90 149 90q167 0 167 -183v-301h-25v294z" />
    <glyph glyph-name="Eng" unicode="&#x14a;" horiz-adv-x="648" 
d="M400 -151h16q42 0 63.5 12.5t30.5 43.5q8 37 8 92l-387 632v-629h-27v680h27l387 -631v631h27v-724q0 -71 -31 -103.5t-98 -32.5h-16v29z" />
    <glyph glyph-name="eng" unicode="&#x14b;" horiz-adv-x="538" 
d="M325 -180v28h14q47 0 63 16.5t16 64.5v365q0 83 -35 122.5t-107 39.5q-64 0 -106.5 -41t-42.5 -106v-309h-25v475h25v-81q38 90 149 90q167 0 167 -183v-372q0 -43 -10 -66.5t-32 -32.5q-20 -10 -63 -10h-13z" />
    <glyph glyph-name="Omacron" unicode="&#x14c;" horiz-adv-x="600" 
d="M420 809h-249v29h249v-29zM167 26.5q-52 36.5 -76 111.5q-21 68 -21 202q0 132 22.5 204.5t74.5 109.5q53 36 134 36q82 0 133 -36.5t75 -111.5q21 -63 21 -202q0 -136 -22 -206t-74 -107q-49 -37 -133 -37q-82 0 -134 36.5zM491 167q12 65 12 173q0 117 -13 179t-55 102
q-44 41 -134 41q-164 0 -191 -148q-13 -64 -13 -174q0 -107 12.5 -173t57 -107t134.5 -41q163 0 190 148z" />
    <glyph glyph-name="omacron" unicode="&#x14d;" horiz-adv-x="502" 
d="M375 633h-248v29h248v-29zM145 21.5q-44 31.5 -62 88.5q-16 48 -16 128q0 82 18.5 134t59.5 81q43 31 105 31q63 0 107.5 -31t62.5 -88q16 -48 16 -127q0 -83 -18 -135t-60 -81q-47 -32 -108 -32t-105 31.5zM352 48.5q37 29.5 48 78.5q10 44 10 111q0 70 -11.5 114
t-44.5 73q-34 31 -104 31q-65 0 -101 -30t-47 -79q-10 -44 -10 -109q0 -70 11 -114t44 -73q35 -32 103 -32q65 0 102 29.5z" />
    <glyph glyph-name="Obreve" unicode="&#x14e;" horiz-adv-x="600" 
d="M223 803q-32 28 -37 76h23q16 -76 92 -76q75 0 94 76h23q-6 -47 -38.5 -75.5t-78.5 -28.5t-78 28zM167 26.5q-52 36.5 -76 111.5q-21 68 -21 202q0 132 22.5 204.5t74.5 109.5q53 36 134 36q82 0 133 -36.5t75 -111.5q21 -63 21 -202q0 -136 -22 -206t-74 -107
q-49 -37 -133 -37q-82 0 -134 36.5zM491 167q12 65 12 173q0 117 -13 179t-55 102q-44 41 -134 41q-164 0 -191 -148q-13 -64 -13 -174q0 -107 12.5 -173t57 -107t134.5 -41q163 0 190 148z" />
    <glyph glyph-name="obreve" unicode="&#x14f;" horiz-adv-x="502" 
d="M161 681q8 -39 30.5 -57t59.5 -18q75 0 94 75h23q-6 -47 -38.5 -75t-78.5 -28t-78 28t-37 75h25zM145 21.5q-44 31.5 -62 88.5q-16 48 -16 128q0 82 18.5 134t59.5 81q43 31 105 31q63 0 107.5 -31t62.5 -88q16 -48 16 -127q0 -83 -18 -135t-60 -81q-47 -32 -108 -32
t-105 31.5zM352 48.5q37 29.5 48 78.5q10 44 10 111q0 70 -11.5 114t-44.5 73q-34 31 -104 31q-65 0 -101 -30t-47 -79q-10 -44 -10 -109q0 -70 11 -114t44 -73q35 -32 103 -32q65 0 102 29.5z" />
    <glyph glyph-name="Ohungarumlaut" unicode="&#x150;" horiz-adv-x="600" 
d="M257 748h-23l83 140h29zM364 748h-23l83 140h31zM167 26.5q-52 36.5 -76 111.5q-21 68 -21 202q0 132 22.5 204.5t74.5 109.5q53 36 134 36q82 0 133 -36.5t75 -111.5q21 -63 21 -202q0 -136 -22 -206t-74 -107q-49 -37 -133 -37q-82 0 -134 36.5zM491 167q12 65 12 173
q0 117 -13 179t-55 102q-44 41 -134 41q-164 0 -191 -148q-13 -64 -13 -174q0 -107 12.5 -173t57 -107t134.5 -41q163 0 190 148z" />
    <glyph glyph-name="ohungarumlaut" unicode="&#x151;" horiz-adv-x="502" 
d="M208 560h-23l82 140h30zM315 560h-23l82 140h31zM145 21.5q-44 31.5 -62 88.5q-16 48 -16 128q0 82 18.5 134t59.5 81q43 31 105 31q63 0 107.5 -31t62.5 -88q16 -48 16 -127q0 -83 -18 -135t-60 -81q-47 -32 -108 -32t-105 31.5zM352 48.5q37 29.5 48 78.5q10 44 10 111
q0 70 -11.5 114t-44.5 73q-34 31 -104 31q-65 0 -101 -30t-47 -79q-10 -44 -10 -109q0 -70 11 -114t44 -73q35 -32 103 -32q65 0 102 29.5z" />
    <glyph glyph-name="OE" unicode="&#x152;" horiz-adv-x="950" 
d="M169 26.5q-52 36.5 -76 111.5q-21 63 -21 202q0 137 22 207t75 107q53 36 134 36q150 0 202 -126v116h390v-28h-364v-292h318v-28h-318v-304h364v-28h-390v116q-52 -126 -202 -126q-82 0 -134 36.5zM436 60q44 41 56.5 107.5t12.5 172.5q0 117 -13.5 179.5t-55.5 101.5
q-44 41 -133 41q-165 0 -192 -149q-12 -66 -12 -173q0 -118 13.5 -179.5t55.5 -100.5q44 -41 135 -41q89 0 133 41z" />
    <glyph glyph-name="oe" unicode="&#x153;" horiz-adv-x="837" 
d="M485 19.5q-42 29.5 -63 90.5q-18 -59 -62 -89.5t-110 -30.5q-61 0 -105 31.5t-62 88.5q-16 41 -16 127q0 87 16 128q18 57 61.5 88t105.5 31q134 0 170 -119q22 60 63.5 89.5t106.5 29.5q62 0 104.5 -30.5t62.5 -88.5q6 -25 10 -61.5t3 -66.5h-335q3 -84 13.5 -124
t42.5 -66q32 -28 104 -28q51 0 88 19t63 60l17 -22q-27 -42 -70 -64t-98 -22q-68 0 -110 29.5zM744 264q0 60 -15 101.5t-49 66.5t-90 25q-110 0 -143 -104q-12 -39 -12 -89h309zM352 48.5q37 29.5 48 78.5q10 44 10 111q0 70 -11.5 114t-44.5 73q-34 31 -104 31
q-65 0 -101 -30t-47 -79q-10 -44 -10 -109q0 -70 11 -114t44 -73q35 -32 103 -32q65 0 102 29.5z" />
    <glyph glyph-name="Racute" unicode="&#x154;" horiz-adv-x="613" 
d="M278 747h-26l90 141h34zM104 680h220q97 0 149.5 -47t52.5 -133q0 -72 -37 -118t-107 -59l156 -323h-28l-155 319h-225v-319h-26v680zM325 347q86 0 130 38.5t44 114.5q0 74 -44.5 113t-129.5 39h-195v-305h195z" />
    <glyph glyph-name="racute" unicode="&#x155;" horiz-adv-x="383" 
d="M197 561h-26l87 139h36zM102 475h25v-85q14 48 46 71t84 23q63 0 100 -35l-12 -24q-43 31 -90 31q-62 0 -95 -48t-33 -132v-276h-25v475z" />
    <glyph glyph-name="Rcommaaccent" unicode="&#x156;" horiz-adv-x="613" 
d="M104 680h220q97 0 149.5 -47t52.5 -133q0 -72 -37 -118t-107 -59l156 -323h-28l-155 319h-225v-319h-26v680zM325 347q86 0 130 38.5t44 114.5q0 74 -44.5 113t-129.5 39h-195v-305h195zM322 -117l-34 -103v163h34v-60z" />
    <glyph glyph-name="rcommaaccent" unicode="&#x157;" horiz-adv-x="383" 
d="M102 475h25v-85q14 48 46 71t84 23q63 0 100 -35l-12 -24q-43 31 -90 31q-62 0 -95 -48t-33 -132v-276h-25v475zM130 -117l-34 -103v163h34v-60z" />
    <glyph glyph-name="Rcaron" unicode="&#x158;" horiz-adv-x="613" 
d="M295 754h-20l-99 141h24l85 -109l86 109h24zM104 680h220q97 0 149.5 -47t52.5 -133q0 -72 -37 -118t-107 -59l156 -323h-28l-155 319h-225v-319h-26v680zM325 347q86 0 130 38.5t44 114.5q0 74 -44.5 113t-129.5 39h-195v-305h195z" />
    <glyph glyph-name="rcaron" unicode="&#x159;" horiz-adv-x="383" 
d="M305 700h24l-100 -141h-20l-99 141h24l85 -109zM102 475h25v-85q14 48 46 71t84 23q63 0 100 -35l-12 -24q-43 31 -90 31q-62 0 -95 -48t-33 -132v-276h-25v475z" />
    <glyph glyph-name="Sacute" unicode="&#x15a;" horiz-adv-x="601" 
d="M294 747h-26l90 141h34zM178 13q-31 12 -53.5 24.5t-46.5 31.5l17 25q92 -75 208 -75q91 0 145.5 43.5t54.5 115.5q0 66 -44 102.5t-139 48.5l-28 4q-192 24 -192 173q0 85 55.5 134.5t150.5 49.5q110 0 190 -56l-18 -27q-88 55 -175 55q-81 0 -129 -42t-48 -112
q0 -64 42 -99.5t135 -48.5l29 -3q197 -24 197 -176q0 -88 -62 -139.5t-170 -51.5q-56 0 -119 23z" />
    <glyph glyph-name="sacute" unicode="&#x15b;" horiz-adv-x="473" 
d="M242 561h-26l87 139h36zM61 59l17 21q41 -32 82 -47t88 -15q68 0 105 29t37 81q0 48 -26.5 69.5t-97.5 29.5l-46 5q-134 14 -134 120q0 62 42 97t116 35q85 0 156 -44l-14 -24q-70 40 -143 40q-63 0 -96.5 -26.5t-33.5 -75.5q0 -44 29 -66t96 -29l46 -5q67 -7 100 -36
t33 -85q0 -67 -45.5 -105t-128.5 -38q-101 0 -182 69z" />
    <glyph glyph-name="Scircumflex" unicode="&#x15c;" horiz-adv-x="601" 
d="M219 755h-24l99 140h20l100 -140h-24l-86 109zM178 13q-31 12 -53.5 24.5t-46.5 31.5l17 25q92 -75 208 -75q91 0 145.5 43.5t54.5 115.5q0 66 -44 102.5t-139 48.5l-28 4q-192 24 -192 173q0 85 55.5 134.5t150.5 49.5q110 0 190 -56l-18 -27q-88 55 -175 55
q-81 0 -129 -42t-48 -112q0 -64 42 -99.5t135 -48.5l29 -3q197 -24 197 -176q0 -88 -62 -139.5t-170 -51.5q-56 0 -119 23z" />
    <glyph glyph-name="scircumflex" unicode="&#x15d;" horiz-adv-x="473" 
d="M353 560h-25l-86 109l-84 -109h-25l99 140h20zM61 59l17 21q41 -32 82 -47t88 -15q68 0 105 29t37 81q0 48 -26.5 69.5t-97.5 29.5l-46 5q-134 14 -134 120q0 62 42 97t116 35q85 0 156 -44l-14 -24q-70 40 -143 40q-63 0 -96.5 -26.5t-33.5 -75.5q0 -44 29 -66t96 -29
l46 -5q67 -7 100 -36t33 -85q0 -67 -45.5 -105t-128.5 -38q-101 0 -182 69z" />
    <glyph glyph-name="Scedilla" unicode="&#x15e;" horiz-adv-x="601" 
d="M178 13q-31 12 -53.5 24.5t-46.5 31.5l17 25q92 -75 208 -75q91 0 145.5 43.5t54.5 115.5q0 66 -44 102.5t-139 48.5l-28 4q-192 24 -192 173q0 85 55.5 134.5t150.5 49.5q110 0 190 -56l-18 -27q-88 55 -175 55q-81 0 -129 -42t-48 -112q0 -64 42 -99.5t135 -48.5l29 -3
q197 -24 197 -176q0 -87 -62.5 -139t-169.5 -52q-56 0 -119 23zM314 -21q1 -51 -28.5 -87t-73.5 -35v28q35 0 54.5 26t19.5 68h28z" />
    <glyph glyph-name="scedilla" unicode="&#x15f;" horiz-adv-x="473" 
d="M400 440l-14 -24q-70 40 -143 40q-63 0 -96.5 -26.5t-33.5 -75.5q0 -44 29 -66t96 -29l46 -5q67 -7 100 -36t33 -85q0 -67 -45.5 -105t-128.5 -38q-101 0 -182 69l17 21q41 -32 82 -47t88 -15q68 0 105 29t37 81q0 48 -26.5 69.5t-97.5 29.5l-46 5q-134 14 -134 120
q0 62 42 97t116 35q85 0 156 -44zM263 -21q1 -51 -28.5 -87t-73.5 -35v28q35 0 54.5 26t19.5 68h28z" />
    <glyph glyph-name="Scaron" unicode="&#x160;" horiz-adv-x="601" 
d="M314 754h-20l-99 141h24l85 -109l86 109h24zM178 13q-31 12 -53.5 24.5t-46.5 31.5l17 25q92 -75 208 -75q91 0 145.5 43.5t54.5 115.5q0 66 -44 102.5t-139 48.5l-28 4q-192 24 -192 173q0 85 55.5 134.5t150.5 49.5q110 0 190 -56l-18 -27q-88 55 -175 55
q-81 0 -129 -42t-48 -112q0 -64 42 -99.5t135 -48.5l29 -3q197 -24 197 -176q0 -88 -62 -139.5t-170 -51.5q-56 0 -119 23z" />
    <glyph glyph-name="scaron" unicode="&#x161;" horiz-adv-x="473" 
d="M330 700h24l-100 -141h-20l-99 141h24l85 -109zM61 59l17 21q41 -32 82 -47t88 -15q68 0 105 29t37 81q0 48 -26.5 69.5t-97.5 29.5l-46 5q-134 14 -134 120q0 62 42 97t116 35q85 0 156 -44l-14 -24q-70 40 -143 40q-63 0 -96.5 -26.5t-33.5 -75.5q0 -44 29 -66t96 -29
l46 -5q67 -7 100 -36t33 -85q0 -67 -45.5 -105t-128.5 -38q-101 0 -182 69z" />
    <glyph glyph-name="uni0162" unicode="&#x162;" horiz-adv-x="513" 
d="M270 0h-27v652h-221v28h469v-28h-221v-652zM274 -117l-34 -103v163h34v-60z" />
    <glyph glyph-name="uni0163" unicode="&#x163;" horiz-adv-x="306" 
d="M237 -2q-67 0 -93 27.5t-26 96.5v324h-75v29h75v155h25v-155h119v-29h-119v-322q0 -39 8.5 -60t28.5 -29q22 -8 56 -8h26v-29h-25zM198 -117l-34 -103v163h34v-60z" />
    <glyph glyph-name="Tcaron" unicode="&#x164;" horiz-adv-x="513" 
d="M266 754h-20l-99 141h25l84 -109l86 109h25zM270 0h-27v652h-221v28h469v-28h-221v-652z" />
    <glyph glyph-name="tcaron" unicode="&#x165;" horiz-adv-x="306" 
d="M245 518v162h34v-59zM143 630v-155h119v-29h-119v-322q0 -39 8.5 -60t28.5 -29q22 -8 56 -8h26v-29h-25q-67 0 -93 27.5t-26 96.5v324h-75v29h75v155h25z" />
    <glyph glyph-name="Tbar" unicode="&#x166;" horiz-adv-x="513" 
d="M270 0h-27v432h-123v26h123v194h-221v28h469v-28h-221v-194h123v-26h-123v-432z" />
    <glyph glyph-name="tbar" unicode="&#x167;" horiz-adv-x="306" 
d="M237 -2q-67 0 -93 27.5t-26 96.5v205h-65v29h65v90h-75v29h75v155h25v-155h119v-29h-119v-90h105v-29h-105v-203q0 -39 8.5 -60t28.5 -29q22 -8 56 -8h26v-29h-25z" />
    <glyph glyph-name="Utilde" unicode="&#x168;" horiz-adv-x="631" 
d="M310 816q-27 18 -46 18q-12 0 -29 -11.5t-33 -30.5v29q29 38 63 38q22 0 57 -20q21 -18 45 -18q16 0 29.5 9.5t33.5 34.5v-35q-35 -35 -64 -35q-23 0 -56 21zM122 231q0 -212 193 -212q96 0 145.5 53.5t49.5 158.5v449h26v-447q0 -243 -221 -243q-108 0 -164 61.5
t-56 181.5v447h27v-449z" />
    <glyph glyph-name="utilde" unicode="&#x169;" horiz-adv-x="531" 
d="M259 635q-27 18 -46 18q-11 0 -28.5 -11.5t-33.5 -30.5v29q29 38 63 38q22 0 57 -20q21 -18 45 -18q16 0 29.5 9.5t33.5 34.5v-35q-35 -35 -64 -35q-23 0 -56 21zM404 79q-36 -89 -147 -89q-80 0 -122 46.5t-42 136.5v302h25v-294q0 -83 34.5 -122.5t104.5 -39.5
q64 0 105.5 41t41.5 106v309h25v-475h-25v79z" />
    <glyph glyph-name="Umacron" unicode="&#x16a;" horiz-adv-x="631" 
d="M439 809h-248v29h248v-29zM122 231q0 -212 193 -212q96 0 145.5 53.5t49.5 158.5v449h26v-447q0 -243 -221 -243q-108 0 -164 61.5t-56 181.5v447h27v-449z" />
    <glyph glyph-name="umacron" unicode="&#x16b;" horiz-adv-x="531" 
d="M388 634h-248v28h248v-28zM404 79q-36 -89 -147 -89q-80 0 -122 46.5t-42 136.5v302h25v-294q0 -83 34.5 -122.5t104.5 -39.5q64 0 105.5 41t41.5 106v309h25v-475h-25v79z" />
    <glyph glyph-name="Ubreve" unicode="&#x16c;" horiz-adv-x="631" 
d="M237 803.5q-32 28.5 -36 75.5h23q15 -76 91 -76t95 76h23q-6 -47 -39 -75.5t-79 -28.5t-78 28.5zM151 51.5q-56 61.5 -56 181.5v447h27v-449q0 -212 193 -212q96 0 145.5 53.5t49.5 158.5v449h26v-447q0 -243 -221 -243q-108 0 -164 61.5z" />
    <glyph glyph-name="ubreve" unicode="&#x16d;" horiz-adv-x="531" 
d="M172 682q15 -76 91 -76t95 76h23q-6 -47 -39 -75.5t-79 -28.5t-78 28.5t-36 75.5h23zM404 79q-36 -89 -147 -89q-80 0 -122 46.5t-42 136.5v302h25v-294q0 -83 34.5 -122.5t104.5 -39.5q64 0 105.5 41t41.5 106v309h25v-475h-25v79z" />
    <glyph glyph-name="Uring" unicode="&#x16e;" horiz-adv-x="631" 
d="M397 829q0 -36 -23 -59t-59 -23t-59 23t-23 59t23 59t59 23t59 -23t23 -59zM370 829q0 26 -15 42t-40 16q-26 0 -40.5 -16.5t-14.5 -41.5q0 -24 14 -41q7 -8 18 -12.5t23 -4.5q25 0 40 17q15 15 15 41zM122 231q0 -212 193 -212q96 0 145.5 53.5t49.5 158.5v449h26v-447
q0 -243 -221 -243q-108 0 -164 61.5t-56 181.5v447h27v-449z" />
    <glyph glyph-name="uring" unicode="&#x16f;" horiz-adv-x="531" 
d="M346 629q0 -16 -6 -31.5t-17 -26.5q-24 -24 -60 -24q-16 0 -31.5 6t-26.5 18q-12 11 -18 26.5t-6 31.5q0 35 23.5 58.5t59.5 23.5t59 -23t23 -59zM263 687q-25 0 -40 -16t-15 -42t15 -42t40 -16q26 0 40 17q15 15 15 41t-15 42q-13 16 -40 16zM429 0h-25v79
q-36 -89 -147 -89q-80 0 -122 46.5t-42 136.5v302h25v-294q0 -83 34.5 -122.5t104.5 -39.5q64 0 105.5 41t41.5 106v309h25v-475z" />
    <glyph glyph-name="Uhungarumlaut" unicode="&#x170;" horiz-adv-x="631" 
d="M263 748h-23l82 140h30zM370 748h-23l82 140h31zM122 231q0 -212 193 -212q96 0 145.5 53.5t49.5 158.5v449h26v-447q0 -243 -221 -243q-108 0 -164 61.5t-56 181.5v447h27v-449z" />
    <glyph glyph-name="uhungarumlaut" unicode="&#x171;" horiz-adv-x="531" 
d="M208 560h-23l82 140h30zM315 560h-23l82 140h31zM404 79q-36 -89 -147 -89q-80 0 -122 46.5t-42 136.5v302h25v-294q0 -83 34.5 -122.5t104.5 -39.5q64 0 105.5 41t41.5 106v309h25v-475h-25v79z" />
    <glyph glyph-name="Uogonek" unicode="&#x172;" horiz-adv-x="631" 
d="M536 680v-447q0 -218 -178 -240q-30 -15 -42.5 -29.5t-12.5 -38.5q0 -21 16.5 -33.5t50.5 -13.5v-26q-55 -1 -77 14.5t-22 58.5q0 46 39 66q-106 2 -160.5 63t-54.5 179v447h27v-449q0 -212 193 -212q96 0 145.5 53.5t49.5 158.5v449h26z" />
    <glyph glyph-name="uogonek" unicode="&#x173;" horiz-adv-x="531" 
d="M377.5 -108.5q16.5 -12.5 50.5 -13.5v-26q-56 -1 -78 14.5t-22 58.5q0 32 22 52.5t54 22.5v79q-35 -89 -147 -89q-80 0 -122 46.5t-42 136.5v302h25v-294q0 -83 34.5 -122.5t104.5 -39.5q64 0 105.5 41t41.5 106v309h25v-475h1l-24 -11q-21 -10 -33 -26.5t-12 -37.5
t16.5 -33.5z" />
    <glyph glyph-name="Wcircumflex" unicode="&#x174;" horiz-adv-x="812" 
d="M520 755h-25l-86 109l-84 -109h-25l99 140h20zM616 0h-28l-178 616l-178 -616h-28l-164 680h30l150 -624l176 624h28l178 -624l147 624h30z" />
    <glyph glyph-name="wcircumflex" unicode="&#x175;" horiz-adv-x="728" 
d="M475 560h-25l-86 109l-84 -109h-25l99 140h20zM534 0h-24l-143 428l-146 -428h-21l-153 475h26l140 -424l143 424h24l144 -424l137 424h26z" />
    <glyph glyph-name="Ycircumflex" unicode="&#x176;" horiz-adv-x="505" 
d="M246 895h20l101 -140h-25l-86 109l-84 -109h-25zM450 680h34l-214 -400v-280h-27v280l-214 400h33l197 -368z" />
    <glyph glyph-name="ycircumflex" unicode="&#x177;" horiz-adv-x="458" 
d="M221 700h20l101 -140h-25l-86 109l-84 -109h-25zM222 -54q-20 -54 -37 -80t-37 -36q-19 -10 -51 -10h-26v28h28q24 0 40 9t29 30q14 23 30 66l22 53l-180 469h27l168 -427l164 427h27z" />
    <glyph glyph-name="Ydieresis" unicode="&#x178;" horiz-adv-x="505" 
d="M136 855h43v-60h-43v60zM334 855h44v-60h-44v60zM450 680h34l-214 -400v-280h-27v280l-214 400h33l197 -368z" />
    <glyph glyph-name="Zacute" unicode="&#x179;" horiz-adv-x="544" 
d="M256 747h-26l90 141h34zM485 0h-428v24l395 628h-381v28h414v-24l-395 -628h395v-28z" />
    <glyph glyph-name="zacute" unicode="&#x17a;" horiz-adv-x="458" 
d="M225 561h-26l87 139h36zM400 24v-24h-339v25l310 425h-297v25h326v-27l-309 -424h309z" />
    <glyph glyph-name="Zdotaccent" unicode="&#x17b;" horiz-adv-x="544" 
d="M294 795h-43v60h43v-60zM485 0h-428v24l395 628h-381v28h414v-24l-395 -628h395v-28z" />
    <glyph glyph-name="zdotaccent" unicode="&#x17c;" horiz-adv-x="458" 
d="M253 620h-43v60h43v-60zM400 24v-24h-339v25l310 425h-297v25h326v-27l-309 -424h309z" />
    <glyph glyph-name="Zcaron" unicode="&#x17d;" horiz-adv-x="544" 
d="M358 895h25l-101 -141h-20l-99 141h25l84 -109zM485 0h-428v24l395 628h-381v28h414v-24l-395 -628h395v-28z" />
    <glyph glyph-name="zcaron" unicode="&#x17e;" horiz-adv-x="458" 
d="M316 699h25l-101 -140h-20l-99 140h25l84 -108zM400 24v-24h-339v25l310 425h-297v25h326v-27l-309 -424h309z" />
    <glyph glyph-name="florin" unicode="&#x192;" 
d="M293 360l-63 -407q-8 -52 -23 -80.5t-41 -40.5q-25 -12 -69 -12h-28v28h36q45 0 67 22.5t31 79.5l63 410h-107v28h112l24 158q8 52 23 80.5t41 41.5q26 12 69 12h27v-28h-36q-46 0 -68 -23t-29 -80l-25 -161h116v-28h-120z" />
    <glyph glyph-name="Scommaaccent" unicode="&#x218;" horiz-adv-x="601" 
d="M178 13q-31 12 -53.5 24.5t-46.5 31.5l17 25q92 -75 208 -75q91 0 145.5 43.5t54.5 115.5q0 66 -44 102.5t-139 48.5l-28 4q-192 24 -192 173q0 85 55.5 134.5t150.5 49.5q110 0 190 -56l-18 -27q-88 55 -175 55q-81 0 -129 -42t-48 -112q0 -64 42 -99.5t135 -48.5l29 -3
q197 -24 197 -176q0 -87 -62.5 -139t-169.5 -52q-56 0 -119 23zM325 -117l-34 -103v163h34v-60z" />
    <glyph glyph-name="scommaaccent" unicode="&#x219;" horiz-adv-x="473" 
d="M61 59l17 21q41 -32 82 -47t88 -15q68 0 105 29t37 81q0 48 -26.5 69.5t-97.5 29.5l-46 5q-134 14 -134 120q0 62 42 97t116 35q85 0 156 -44l-14 -24q-70 40 -143 40q-63 0 -96.5 -26.5t-33.5 -75.5q0 -44 29 -66t96 -29l46 -5q67 -7 100 -36t33 -85q0 -67 -45.5 -105
t-128.5 -38q-101 0 -182 69zM259 -117l-34 -103v163h34v-60z" />
    <glyph glyph-name="uni021A" unicode="&#x21a;" horiz-adv-x="513" 
d="M270 0h-27v652h-221v28h469v-28h-221v-652zM274 -117l-34 -103v163h34v-60z" />
    <glyph glyph-name="uni021B" unicode="&#x21b;" horiz-adv-x="306" 
d="M237 -2q-67 0 -93 27.5t-26 96.5v324h-75v29h75v155h25v-155h119v-29h-119v-322q0 -39 8.5 -60t28.5 -29q22 -8 56 -8h26v-29h-25zM198 -117l-34 -103v163h34v-60z" />
    <glyph glyph-name="uni0237" unicode="&#x237;" horiz-adv-x="228" 
d="M11 -180v28h12q33 0 49 6.5t23 23.5q7 14 7 51v546h25v-546q0 -43 -9.5 -66.5t-31.5 -32.5q-20 -10 -63 -10h-12z" />
    <glyph glyph-name="circumflex" unicode="&#x2c6;" horiz-adv-x="421" 
d="M321 560h-24l-86 109l-85 -109h-24l99 140h20z" />
    <glyph glyph-name="caron" unicode="&#x2c7;" horiz-adv-x="421" 
d="M297 700h24l-100 -141h-20l-99 141h24l85 -109z" />
    <glyph glyph-name="breve" unicode="&#x2d8;" horiz-adv-x="421" 
d="M123 682q15 -75 91 -75t95 75h23q-6 -47 -39 -75t-79 -28q-48 0 -79 28t-35 75h23z" />
    <glyph glyph-name="dotaccent" unicode="&#x2d9;" horiz-adv-x="421" 
d="M232 620h-44v60h44v-60z" />
    <glyph glyph-name="ring" unicode="&#x2da;" horiz-adv-x="421" 
d="M291 629q0 -36 -23 -59t-59 -23q-16 0 -31.5 6t-26.5 18q-23 23 -23 59t23 58.5t59 22.5t59 -23q22 -22 22 -59zM264 629q0 27 -14.5 42.5t-40.5 15.5q-25 0 -40 -16t-15 -42t15 -42t40 -16q26 0 40 17q15 15 15 41z" />
    <glyph glyph-name="ogonek" unicode="&#x2db;" horiz-adv-x="421" 
d="M279 10l-23 -11q-23 -10 -38.5 -29t-15.5 -39q0 -19 19 -32.5t53 -14.5v-26q-55 -1 -79.5 16t-24.5 60q0 48 46 68l17 8h46z" />
    <glyph glyph-name="tilde" unicode="&#x2dc;" horiz-adv-x="421" 
d="M204 635q-25 18 -45 18q-23 0 -63 -42v29q29 38 64 38q21 0 56 -20q22 -18 45 -18q16 0 29.5 9.5t33.5 34.5v-35q-32 -35 -63 -35q-24 0 -57 21z" />
    <glyph glyph-name="hungarumlaut" unicode="&#x2dd;" horiz-adv-x="421" 
d="M128 560h-23l82 140h30zM235 560h-23l82 140h31z" />
    <glyph glyph-name="uni0394" unicode="&#x394;" horiz-adv-x="588" 
d="M557 0h-518l247 680h21zM77 29h439l-217 602z" />
    <glyph glyph-name="uni03A9" unicode="&#x3a9;" horiz-adv-x="601" 
d="M83 0v28h113q-98 41 -117 166q-8 66 -8 146q0 135 22 206.5t73 107.5t135 36q88 0 136.5 -35t69.5 -109q24 -78 24 -206q0 -139 -27.5 -210.5t-96.5 -101.5h111v-28h-180v28q74 24 111.5 62.5t46.5 96.5q8 59 8 153q0 114 -14 177.5t-56 103.5q-44 41 -133 41
q-85 0 -131 -38t-59 -109q-13 -65 -13 -175q0 -77 4 -120t15 -71.5t34 -54.5q35 -41 112 -66v-28h-180z" />
    <glyph glyph-name="uni03BC" unicode="&#x3bc;" horiz-adv-x="522" 
d="M359.5 18q-40.5 -28 -96.5 -28q-48 0 -81 16.5t-55 51.5v-238h-25v655h25v-309q0 -73 35 -110t104 -37q65 0 105.5 41.5t40.5 110.5v304h25v-423q0 -17 7 -21t33 -4v-29h-5q-33 0 -45.5 19.5t-14.5 71.5q-12 -43 -52.5 -71z" />
    <glyph glyph-name="pi" unicode="&#x3c0;" horiz-adv-x="596" 
d="M505 -2q-34 0 -56.5 23.5t-22.5 57.5v368h-271v-447h-25v447h-85v28h489v-28h-83v-352q0 -33 15.5 -50.5t44.5 -17.5h12v-29h-18z" />
    <glyph glyph-name="Wgrave" unicode="&#x1e80;" horiz-adv-x="812" 
d="M428 748h-25l-98 140h32zM616 0h-28l-178 616l-178 -616h-28l-164 680h30l150 -624l176 624h28l178 -624l147 624h30z" />
    <glyph glyph-name="wgrave" unicode="&#x1e81;" horiz-adv-x="728" 
d="M376 560h-25l-98 140h32zM534 0h-24l-143 428l-146 -428h-21l-153 475h26l140 -424l143 424h24l144 -424l137 424h26z" />
    <glyph glyph-name="Wacute" unicode="&#x1e82;" horiz-adv-x="812" 
d="M417 747h-25l90 141h33zM616 0h-28l-178 616l-178 -616h-28l-164 680h30l150 -624l176 624h28l178 -624l147 624h30z" />
    <glyph glyph-name="wacute" unicode="&#x1e83;" horiz-adv-x="728" 
d="M378 560h-26l90 140h34zM534 0h-24l-143 428l-146 -428h-21l-153 475h26l140 -424l143 424h24l144 -424l137 424h26z" />
    <glyph glyph-name="Wdieresis" unicode="&#x1e84;" horiz-adv-x="812" 
d="M288 855h43v-60h-43v60zM486 855h44v-60h-44v60zM749 680h30l-163 -680h-28l-178 616l-178 -616h-28l-164 680h30l150 -624l176 624h28l178 -624z" />
    <glyph glyph-name="wdieresis" unicode="&#x1e85;" horiz-adv-x="728" 
d="M246 680h43v-60h-43v60zM444 680h44v-60h-44v60zM661 475h26l-153 -475h-24l-143 428l-146 -428h-21l-153 475h26l140 -424l143 424h24l144 -424z" />
    <glyph glyph-name="Ygrave" unicode="&#x1ef2;" horiz-adv-x="505" 
d="M285 748h-25l-98 140h32zM450 680h34l-214 -400v-280h-27v280l-214 400h33l197 -368z" />
    <glyph glyph-name="ygrave" unicode="&#x1ef3;" horiz-adv-x="458" 
d="M150 700h32l90 -140h-25zM222 -54q-20 -54 -37 -80t-37 -36q-19 -10 -51 -10h-26v28h28q24 0 40 9t29 30q14 23 30 66l22 53l-181 469h28l168 -427l163 427h28z" />
    <glyph glyph-name="uni2010" unicode="&#x2010;" horiz-adv-x="369" 
d="M318 254h-267v27h267v-27z" />
    <glyph glyph-name="endash" unicode="&#x2013;" horiz-adv-x="497" 
d="M466 281v-27h-435v27h435z" />
    <glyph glyph-name="emdash" unicode="&#x2014;" horiz-adv-x="812" 
d="M781 281v-27h-750v27h750z" />
    <glyph glyph-name="quoteleft" unicode="&#x2018;" horiz-adv-x="199" 
d="M81 589l38 90v-170h-38v80z" />
    <glyph glyph-name="quoteright" unicode="&#x2019;" horiz-adv-x="199" 
d="M119 600l-38 -91v171h38v-80z" />
    <glyph glyph-name="quotesinglbase" unicode="&#x201a;" horiz-adv-x="199" 
d="M119 -18l-38 -90v172h38v-82z" />
    <glyph glyph-name="quotedblleft" unicode="&#x201c;" horiz-adv-x="321" 
d="M81 590l38 90v-171h-38v81zM203 590l38 90v-171h-38v81z" />
    <glyph glyph-name="quotedblright" unicode="&#x201d;" horiz-adv-x="321" 
d="M81 680h38v-80l-38 -91v171zM203 680h38v-80l-38 -91v171z" />
    <glyph glyph-name="quotedblbase" unicode="&#x201e;" horiz-adv-x="321" 
d="M81 104h38v-81l-38 -91v172zM203 104h38v-81l-38 -91v172z" />
    <glyph glyph-name="dagger" unicode="&#x2020;" horiz-adv-x="403" 
d="M215 -180h-26v572h-150v26h150v262h26v-262h149v-26h-149v-572z" />
    <glyph glyph-name="daggerdbl" unicode="&#x2021;" horiz-adv-x="403" 
d="M215 -180h-26v237h-150v26h150v338h-150v26h150v233h26v-233h149v-26h-149v-338h149v-26h-149v-237z" />
    <glyph glyph-name="bullet" unicode="&#x2022;" horiz-adv-x="406" 
d="M130.5 233.5q-29.5 29.5 -29.5 74.5q0 44 29 74.5t72 30.5q45 0 74 -29.5t29 -75.5q0 -45 -29 -74.5t-74 -29.5q-42 0 -71.5 29.5z" />
    <glyph glyph-name="ellipsis" unicode="&#x2026;" horiz-adv-x="606" 
d="M123 0h-43v71h43v-71zM325 0h-43v71h43v-71zM527 0h-43v71h43v-71z" />
    <glyph glyph-name="perthousand" unicode="&#x2030;" horiz-adv-x="1065" 
d="M165 -9l405 699h27l-405 -699h-27zM145.5 347q-24.5 17 -36.5 54q-8 43 -8 108t8 108q12 37 36.5 54t66.5 17q78 0 101 -71q8 -43 8 -108t-8 -108q-11 -34 -37 -52.5t-64 -18.5q-42 0 -66.5 17zM286 406q9 21 9 103t-9 103q-15 51 -74 51q-61 0 -76 -51q-8 -22 -8 -103
t8 -103q8 -26 26.5 -38t49.5 -12q59 0 74 50zM446 172q0 59 4 86q4 29 13 45.5t28 29.5q26 18 63 18q38 0 64.5 -18.5t36.5 -52.5q8 -32 8 -108q0 -56 -3 -86q-4 -29 -13 -45.5t-28 -29.5q-25 -19 -65 -19q-37 0 -63.5 18.5t-36.5 53.5q-8 26 -8 108zM743 172q0 59 4 86
q4 29 13 45.5t28 29.5q26 18 63 18q38 0 64.5 -18.5t36.5 -52.5q8 -32 8 -108q0 -56 -3 -86q-4 -29 -13 -45.5t-28 -29.5q-25 -19 -65 -19q-37 0 -63.5 18.5t-36.5 53.5q-8 26 -8 108zM554 18q36 0 55 16.5t25 49.5q5 35 5 88q0 60 -6 90t-23 46q-19 16 -56 16
q-36 0 -54.5 -16t-23.5 -48q-6 -31 -6 -88q0 -75 9 -104q17 -50 75 -50zM851 18q36 0 55 16.5t25 49.5q5 35 5 88q0 60 -6 90t-23 46q-19 16 -56 16q-36 0 -54.5 -16t-23.5 -48q-6 -31 -6 -88q0 -75 9 -104q17 -50 75 -50z" />
    <glyph glyph-name="guilsinglleft" unicode="&#x2039;" horiz-adv-x="332" 
d="M258 86l-172 178l172 177v-43l-133 -134l133 -134v-44z" />
    <glyph glyph-name="guilsinglright" unicode="&#x203a;" horiz-adv-x="332" 
d="M242 264l-161 -187v53l127 134l-127 134v43z" />
    <glyph glyph-name="uni203D" unicode="&#x203d;" horiz-adv-x="437" 
d="M341.5 645q45.5 -45 45.5 -119q0 -39 -13.5 -69t-55.5 -82l-78 -97l-2 -112h-25l-6 318h37l-3 -177l44 60q35 46 54.5 88t19.5 73q0 60 -37 95.5t-97 35.5q-58 0 -95 -39t-48 -113l-25 8q8 79 53.5 127t113.5 48q72 0 117.5 -45zM209 70h32v-70h-32v70z" />
    <glyph glyph-name="fraction" unicode="&#x2044;" horiz-adv-x="147" 
d="M-112 -10h-27l406 700h27z" />
    <glyph glyph-name="Euro" unicode="&#x20ac;" 
d="M178.5 24.5q-39.5 34.5 -50.5 92t-11 153.5h-68v28h68v91h-68v28h68q0 98 12 151.5t49 86.5q40 35 120 35q61 0 105.5 -32t65.5 -90l-20 -14q-48 108 -151 108q-110 0 -141 -97q-14 -40 -14 -148h247l-16 -28h-231v-91h212l-16 -28h-196q0 -115 14 -154q31 -97 141 -97
q51 0 89.5 27.5t61.5 80.5l20 -15q-18 -56 -64 -89t-107 -33q-80 0 -119.5 34.5z" />
    <glyph glyph-name="uni2105" unicode="&#x2105;" horiz-adv-x="764" 
d="M574 690h27l-406 -700h-27zM325 613l-25 -11q-22 66 -85 66q-70 0 -82 -76q-5 -37 -5 -82q0 -54 6 -85t24 -51q19 -22 59 -22q65 0 84 64l23 -8q-14 -38 -41.5 -58t-63.5 -20q-42 0 -68 21t-41 66q-10 36 -10 93q0 60 12 98.5t38 59.5q25 21 69 21q75 0 106 -76z
M641.5 329q29.5 -23 43.5 -67q10 -31 10 -90q0 -54 -10 -93q-14 -44 -42 -65t-74 -21q-43 0 -70 21t-42 65q-12 38 -12 93q0 56 13 94.5t42 61.5q29 24 69 24q43 0 72.5 -23zM493.5 289q-20.5 -42 -20.5 -118q0 -75 20.5 -116t75.5 -41q71 0 89 75q9 27 9 82q0 57 -9 84
q-18 76 -89 76q-55 0 -75.5 -42z" />
    <glyph glyph-name="uni2113" unicode="&#x2113;" horiz-adv-x="334" 
d="M65 259l57 54v214q0 83 20 123t62 40q34 0 53.5 -30t19.5 -84q0 -70 -29.5 -133.5t-100.5 -143.5v-218q0 -62 50 -62q21 0 37.5 8.5t33.5 28.5l14 -20q-39 -46 -85 -46q-75 0 -75 93v189l-40 -37zM147 342q57 68 80.5 121t23.5 113q0 39 -14 62.5t-35 23.5q-27 0 -41 -36
q-14 -39 -14 -101v-183z" />
    <glyph glyph-name="uni2117" unicode="&#x2117;" horiz-adv-x="832" 
d="M416 -10q-99 0 -178.5 45t-124.5 126q-46 79 -46 179q0 99 45 179t126 126q80 45 178 45q96 0 176.5 -46t127.5 -127q46 -79 46 -177q0 -149 -101 -250q-100 -100 -249 -100zM416 16q90 0 165 42t118 117q42 74 42 165q0 92 -42 166.5t-117 116.5t-166 42
q-90 0 -164.5 -42t-117.5 -117q-43 -74 -43 -166q0 -138 94 -231q92 -93 231 -93zM310 526h94q160 0 160 -116q0 -67 -39 -96.5t-121 -29.5h-67l-1 -144h-26v386zM401 308q70 0 100 22t30 75q0 50 -30.5 71.5t-99.5 21.5h-65v-190h65z" />
    <glyph glyph-name="trademark" unicode="&#x2122;" horiz-adv-x="802" 
d="M196 286h-24v369h-131v25h286v-25h-131v-369zM752 286h-24v336l-139 -280h-22l-139 280v-336h-24v394h27l148 -306l147 306h26v-394z" />
    <glyph glyph-name="uni2126" unicode="&#x2126;" horiz-adv-x="601" 
d="M437.5 655q48.5 -35 69.5 -109q24 -78 24 -206q0 -139 -27.5 -210.5t-96.5 -101.5h111v-28h-180v28q74 24 111.5 62.5t46.5 96.5q8 59 8 153q0 114 -14 177.5t-56 103.5q-44 41 -133 41q-85 0 -131 -38t-59 -109q-13 -65 -13 -175q0 -77 4 -120t15 -71.5t34 -54.5
q35 -41 112 -66v-28h-180v28h113q-98 41 -117 166q-8 66 -8 146q0 135 22 206.5t73 107.5t135 36q88 0 136.5 -35z" />
    <glyph glyph-name="estimated" unicode="&#x212e;" horiz-adv-x="665" 
d="M213.5 22.5q-52.5 32.5 -81.5 89.5q-30 56 -30 126q0 69 29.5 125t81.5 89q53 32 118 32q67 0 119.5 -31t82.5 -87q29 -55 31 -128h-360v-163q51 -51 127 -51q109 0 172 108l33 -21q-43 -66 -89.5 -93.5t-115.5 -27.5q-65 0 -117.5 32.5zM462 400q-55 55 -131 55
q-75 0 -127 -55v-129h258v129z" />
    <glyph glyph-name="partialdiff" unicode="&#x2202;" horiz-adv-x="533" 
d="M115 50q-48 59 -48 155q0 59 24.5 106t67.5 74q43 26 96 26q116 0 185 -102v35q0 144 -51.5 231.5t-144.5 87.5q-66 0 -128 -53l-15 23q30 27 68.5 42t74.5 15q109 0 165.5 -93t56.5 -252q0 -175 -55.5 -265t-160.5 -90q-82 0 -135 60zM381 81.5q47 63.5 55 186.5
q-66 116 -176 116q-77 0 -121.5 -49.5t-44.5 -131.5q0 -83 43 -134t114 -51q83 0 130 63.5z" />
    <glyph glyph-name="uni2206" unicode="&#x2206;" horiz-adv-x="588" 
d="M557 0h-518l247 680h21zM77 29h439l-217 602z" />
    <glyph glyph-name="product" unicode="&#x220f;" horiz-adv-x="622" 
d="M529 -180h-27v891h-382v-891h-26v920h435v-920z" />
    <glyph glyph-name="summation" unicode="&#x2211;" horiz-adv-x="528" 
d="M478 -180h-407v19l206 485l-202 392v24h393v-29h-361l201 -384l-204 -478h374v-29z" />
    <glyph glyph-name="minus" unicode="&#x2212;" 
d="M452 289v-26h-380v26h380z" />
    <glyph glyph-name="uni2215" unicode="&#x2215;" horiz-adv-x="147" 
d="M-112 -10h-27l406 700h27z" />
    <glyph glyph-name="uni2219" unicode="&#x2219;" horiz-adv-x="203" 
d="M123 230h-43v71h43v-71z" />
    <glyph glyph-name="radical" unicode="&#x221a;" horiz-adv-x="604" 
d="M333 -180h-21l-163 333l-95 -45l-10 26l119 60l156 -324l247 870h26z" />
    <glyph glyph-name="infinity" unicode="&#x221e;" horiz-adv-x="772" 
d="M482.5 122q-42.5 30 -97.5 101q-55 -73 -96 -102t-91 -29q-63 0 -104.5 43.5t-41.5 112.5t40.5 111.5t106.5 42.5q47 0 86.5 -27.5t100.5 -102.5q54 69 97.5 99.5t88.5 30.5q69 0 109 -41t40 -113q0 -67 -41.5 -111.5t-106.5 -44.5q-48 0 -90.5 30zM277.5 148
q36.5 27 91.5 99q-55 70 -93 98.5t-78 28.5q-54 0 -86.5 -34.5t-32.5 -91.5q0 -55 34 -91t85 -36q43 0 79.5 27zM635 138q28 17 44 47q15 29 15 63q0 56 -33.5 91t-88.5 35q-39 0 -76 -27.5t-94 -99.5q53 -71 89 -98.5t81 -27.5q35 0 63 17z" />
    <glyph glyph-name="integral" unicode="&#x222b;" horiz-adv-x="351" 
d="M50 -176v25q4 -1 18 -1h13q42 0 62 30t20 96v604q0 84 25.5 122t82.5 42l31 -3v-30q-9 4 -31 4q-42 0 -62 -29.5t-20 -95.5v-604q0 -85 -25 -123t-82 -41q-21 0 -32 4z" />
    <glyph glyph-name="approxequal" unicode="&#x2248;" 
d="M274 380q53 -36 78 -36q53 0 92 68l20 -13q-21 -42 -48.5 -61t-64.5 -19q-39 0 -95 41q-50 35 -77 35q-25 0 -47.5 -16t-45.5 -52l-20 15q42 79 114 79q38 0 94 -41zM274 193q53 -36 78 -36q53 0 92 68l20 -13q-21 -42 -48.5 -61t-64.5 -19q-39 0 -95 41q-50 35 -77 35
q-25 0 -47.5 -16t-45.5 -52l-20 15q42 79 114 79q38 0 94 -41z" />
    <glyph glyph-name="notequal" unicode="&#x2260;" 
d="M452 194v-26h-242l-68 -113h-28l66 113h-108v26h126l97 165h-223v26h241l69 113h29l-68 -113h109v-26h-127l-97 -165h224z" />
    <glyph glyph-name="lessequal" unicode="&#x2264;" 
d="M452 110l-380 155v23l380 154v-28l-344 -138l344 -137v-29zM452 26v-26h-380v26h380z" />
    <glyph glyph-name="greaterequal" unicode="&#x2265;" 
d="M452 265l-380 -155v29l342 137l-342 138v28l380 -154v-23zM452 26v-26h-380v26h380z" />
    <glyph glyph-name="lozenge" unicode="&#x25ca;" horiz-adv-x="554" 
d="M289 -52h-18l-190 381l190 381h18l190 -381zM114 329l166 -333l168 333l-168 333z" />
    <glyph glyph-name="f_i" unicode="&#xf001;" horiz-adv-x="526" 
d="M118 446h-76v29h76v67q0 58 10.5 87t35.5 40q28 11 74 11h30v-28h-26q-43 0 -63 -7.5t-28 -28.5q-8 -22 -8 -65v-76h125v-29h-125v-446h-25v446zM432 620h-40v60h40v-60zM425 0h-25v475h25v-475z" />
    <glyph glyph-name="f_l" unicode="&#xf002;" horiz-adv-x="546" 
d="M118 446h-76v29h76v67q0 58 10.5 87t35.5 40q28 11 74 11h30v-28h-26q-43 0 -63 -7.5t-28 -28.5q-8 -22 -8 -65v-76h125v-29h-125v-446h-25v446zM482 -2q-46 0 -64.5 22.5t-18.5 77.5v582h25v-582q0 -41 12.5 -56t43.5 -15h24v-29h-22z" />
    <glyph glyph-name="uniF8FF" unicode="&#xf8ff;" horiz-adv-x="464" 
d="M0 0v680h464v-680h-464zM29 652v-624h406v624h-406zM212 252q0 46 24 73l30 37q45 48 45 93q0 36 -23 58.5t-61 22.5q-37 0 -60.5 -22.5t-30.5 -65.5l-25 6q4 46 37.5 77t78.5 31q49 0 79 -30t30 -77q0 -51 -44 -104l-31 -36q-23 -32 -23 -62v-35h-26v34zM205 113v49h38
v-49h-38z" />
    <glyph glyph-name="f_f" unicode="&#xfb00;" horiz-adv-x="596" 
d="M118 446h-76v29h76v67q0 58 10.5 87t35.5 40q28 11 74 11h30v-28h-26q-43 0 -62.5 -7.5t-27.5 -28.5q-9 -21 -9 -65v-76h125v-29h-125v-446h-25v446zM416 446h-76v29h76v67q0 58 10.5 87t35.5 40q28 11 74 11h30v-28h-26q-43 0 -63 -7.5t-28 -28.5q-8 -22 -8 -65v-76h125
v-29h-125v-446h-25v446z" />
    <glyph glyph-name="fi" unicode="&#xfb01;" horiz-adv-x="526" 
d="M118 446h-76v29h76v67q0 58 10.5 87t35.5 40q28 11 74 11h30v-28h-26q-43 0 -62.5 -7t-27.5 -28q-9 -21 -9 -66v-76h125v-29h-125v-446h-25v446zM432 620h-40v60h40v-60zM425 0h-25v475h25v-475z" />
    <glyph glyph-name="fl" unicode="&#xfb02;" horiz-adv-x="546" 
d="M118 446h-76v29h76v67q0 58 10.5 87t35.5 40q28 11 74 11h30v-28h-26q-43 0 -63 -7.5t-28 -28.5q-8 -22 -8 -65v-76h125v-29h-125v-446h-25v446zM482 -2q-46 0 -64.5 22.5t-18.5 77.5v582h25v-582q0 -41 12.5 -56t43.5 -15h24v-29h-22z" />
    <glyph glyph-name="f_f_i" unicode="&#xfb03;" horiz-adv-x="824" 
d="M118 446h-76v29h76v67q0 58 10.5 87t35.5 40q28 11 74 11h30v-28h-26q-43 0 -62.5 -7.5t-27.5 -28.5q-9 -21 -9 -65v-76h125v-29h-125v-446h-25v446zM416 446h-76v29h76v67q0 58 10.5 87t35.5 40q28 11 74 11h30v-28h-26q-43 0 -63 -7.5t-28 -28.5q-8 -22 -8 -65v-76h125
v-29h-125v-446h-25v446zM732 620h-40v60h40v-60zM724 0h-25v475h25v-475z" />
    <glyph glyph-name="f_f_l" unicode="&#xfb04;" horiz-adv-x="844" 
d="M118 446h-76v29h76v67q0 58 10.5 87t35.5 40q28 11 74 11h30v-28h-26q-43 0 -63 -7.5t-28 -28.5q-8 -22 -8 -65v-76h125v-29h-125v-446h-25v446zM416 446h-76v29h76v67q0 58 10.5 87t35.5 40q28 11 74 11h30v-28h-26q-43 0 -63.5 -8t-27.5 -28q-8 -22 -8 -65v-76h125v-29
h-125v-446h-25v446zM780 -2q-46 0 -64.5 22.5t-18.5 77.5v582h25v-582q0 -41 12.5 -56t43.5 -15h24v-29h-22z" />
    </font>
</defs>
</svg>
