<?xml version="1.0" standalone="no"?>
<!DOCTYPE svg PUBLIC "-//W3C//DTD SVG 1.1//EN" "http://www.w3.org/Graphics/SVG/1.1/DTD/svg11.dtd" >
<svg xmlns="http://www.w3.org/2000/svg" xmlns:xlink="http://www.w3.org/1999/xlink" version="1.1">
<metadata>
Created by FontForge 20170731 at Tue Oct 31 13:01:31 2017
 By Aleksey,,,
</metadata>
<defs>
<font id="AlJazeera-Latin-22Thin" horiz-adv-x="526" >
  <font-face 
    font-family="Al Jazeera-Latin 22 Thin"
    font-weight="400"
    font-stretch="normal"
    units-per-em="1000"
    panose-1="0 0 3 0 0 0 0 0 0 0"
    ascent="800"
    descent="-200"
    x-height="475"
    cap-height="680"
    bbox="-141 -222 966 911"
    underline-thickness="50"
    underline-position="-150"
    unicode-range="U+000D-FB04"
  />
<missing-glyph horiz-adv-x="465" 
d="M465 0h-465v680h465v-680zM434 650h-402v-620h402v620zM210 253q0 45 24 72l32 39q43 49 43 91q0 34 -22.5 55.5t-58.5 21.5t-59 -21.5t-30 -62.5l-28 6q4 47 37.5 77.5t79.5 30.5q49 0 79 -30t30 -77q0 -52 -42 -102l-32 -39q-23 -29 -23 -61v-34h-30v34zM245 113h-41
v51h41v-51z" />
    <glyph glyph-name=".notdef" horiz-adv-x="465" 
d="M465 0h-465v680h465v-680zM434 650h-402v-620h402v620zM210 253q0 45 24 72l32 39q43 49 43 91q0 34 -22.5 55.5t-58.5 21.5t-59 -21.5t-30 -62.5l-28 6q4 47 37.5 77.5t79.5 30.5q49 0 79 -30t30 -77q0 -52 -42 -102l-32 -39q-23 -29 -23 -61v-34h-30v34zM245 113h-41
v51h41v-51z" />
    <glyph glyph-name=".null" horiz-adv-x="0" 
 />
    <glyph glyph-name="nonmarkingreturn" horiz-adv-x="333" 
 />
    <glyph glyph-name="NULL" horiz-adv-x="500" 
 />
    <glyph glyph-name="NULL" horiz-adv-x="500" 
 />
    <glyph glyph-name="CR.001" unicode="&#xd;" horiz-adv-x="0" 
 />
    <glyph glyph-name="space" unicode=" " horiz-adv-x="250" 
 />
    <glyph glyph-name="exclam" unicode="!" horiz-adv-x="251" 
d="M150 680l-9 -508h-30l-10 508h49zM150 0h-49v74h49v-74z" />
    <glyph glyph-name="quotedbl" unicode="&#x22;" horiz-adv-x="302" 
d="M112 680v-148h-33v148h33zM224 680v-148h-33v148h33z" />
    <glyph glyph-name="numbersign" unicode="#" horiz-adv-x="520" 
d="M355 475l29 205h34l-29 -205h101v-32h-106l-25 -189h108v-32h-112l-30 -222h-34l30 222h-163l-30 -222h-33l30 222h-95v32h99l26 189h-101v32h105l29 205h34l-29 -205h162zM163 254h162l26 189h-163z" />
    <glyph glyph-name="dollar" unicode="$" 
d="M424 48.5q-47 -50.5 -132 -57.5v-62h-32v61q-108 1 -192 61l20 28q88 -52 172 -55v304q-172 28 -172 177q0 78 47 128.5t125 55.5v62h32v-62q42 -2 77 -13t74 -34l-17 -29q-69 37 -134 42v-296q91 -11 135 -55t44 -122q0 -83 -47 -133.5zM153 411q33 -35 107 -48v292
q-62 -3 -101 -43.5t-39 -102.5q0 -63 33 -98zM292 25q71 7 109 47t38 108q0 64 -36 99t-111 45v-299z" />
    <glyph glyph-name="percent" unicode="%" horiz-adv-x="766" 
d="M196 -10h-33l405 700h32zM143 347.5q-25 17.5 -37 54.5q-8 46 -8 107t8 107q12 37 37 54.5t67 17.5q38 0 65 -18.5t38 -53.5q8 -46 8 -107t-8 -107q-11 -35 -38 -53.5t-65 -18.5q-42 0 -67 17.5zM264 374q17 15 21.5 45t4.5 90q0 80 -8 101q-15 49 -72 49q-58 0 -73 -49
q-8 -21 -8 -101q0 -60 4.5 -90t21.5 -45t55 -15q37 0 54 15zM447 171q0 61 4 85q4 30 13 46.5t28 29.5q27 18 65 18t65 -18.5t38 -52.5q8 -34 8 -108q0 -61 -4 -85q-4 -29 -13.5 -45.5t-28.5 -29.5q-25 -19 -65 -19q-38 0 -65 19t-37 53q-8 29 -8 107zM557 22q35 0 53 14.5
t23 45.5q5 37 5 89q0 53 -5 90q-5 31 -23 45t-53 14t-53 -14t-23 -45q-5 -37 -5 -90q0 -72 8 -101q17 -48 73 -48z" />
    <glyph glyph-name="ampersand" unicode="&#x26;" horiz-adv-x="608" 
d="M360 653.5q37 -36.5 37 -93.5q0 -33 -9.5 -56.5t-35.5 -52.5q-24 -28 -81 -76l169 -220l79 100l24 -19l-83 -107l55 -73q16 -22 38 -22h24v-34h-26q-22 0 -35.5 7.5t-28.5 27.5l-48 65q-51 -60 -94 -85t-96 -25q-76 0 -122 46.5t-46 122.5q0 54 34 106.5t111 114.5
l-17 24l-14 20q-31 42 -42 59t-18 34q-8 21 -8 43q0 57 38 93.5t98 36.5t97 -36.5zM189.5 628.5q-28.5 -26.5 -28.5 -68.5q0 -25 15 -54l75 -103q73 59 94 91q21 35 21 66q0 41 -29.5 68t-73.5 27q-45 0 -73.5 -26.5zM246 354q-73 -61 -103 -104.5t-30 -90.5q0 -62 36.5 -99
t98.5 -37q45 0 85 24.5t86 79.5z" />
    <glyph glyph-name="quotesingle" unicode="'" horiz-adv-x="191" 
d="M79 532v148h33v-148h-33z" />
    <glyph glyph-name="parenleft" unicode="(" horiz-adv-x="270" 
d="M193 -84q-109 196 -109 412t109 412h30q-106 -199 -106 -412q0 -103 27.5 -210t78.5 -202h-30z" />
    <glyph glyph-name="parenright" unicode=")" horiz-adv-x="270" 
d="M52 -84q51 92 78.5 199t27.5 213q0 105 -27.5 212t-78.5 200h30q53 -92 81 -198.5t28 -213.5q0 -106 -27.5 -211.5t-80.5 -200.5h-31z" />
    <glyph glyph-name="asterisk" unicode="*" horiz-adv-x="354" 
d="M198 519l1 -113h-29v111l-99 -55l-13 25l97 56l-97 56l13 25l99 -57v113h27l1 -113l98 57l13 -25l-98 -56l98 -56l-13 -25z" />
    <glyph glyph-name="plus" unicode="+" 
d="M280 260v-178h-34v178h-176v32h176v178h34v-178h176v-32h-176z" />
    <glyph glyph-name="comma" unicode="," horiz-adv-x="201" 
d="M78 -137v211h44v-84z" />
    <glyph glyph-name="hyphen" unicode="-" horiz-adv-x="370" 
d="M319 283v-33h-268v33h268z" />
    <glyph glyph-name="period" unicode="." horiz-adv-x="207" 
d="M128 75v-75h-50v75h50z" />
    <glyph glyph-name="slash" unicode="/" horiz-adv-x="400" 
d="M333 690l-227 -700h-33l227 700h33z" />
    <glyph glyph-name="zero" unicode="0" 
d="M79 340q0 191 16 232q18 56 62 87t106 31t106 -31t62 -87q15 -46 15 -232q0 -185 -15 -232q-18 -56 -62 -87t-106 -31t-106 31t-62 87q-16 41 -16 232zM263 23q68 0 100.5 30t42.5 95q9 65 9 192q0 128 -9 192q-10 65 -42.5 95t-100.5 30q-104 0 -137 -94
q-15 -49 -15 -223q0 -173 15 -223q33 -94 137 -94z" />
    <glyph glyph-name="one" unicode="1" 
d="M293 680v-680h-32v631l-143 -101v44l147 106h28z" />
    <glyph glyph-name="two" unicode="2" 
d="M390 641q50 -47 50 -126q0 -74 -71 -169l-234 -312h305v-34h-351v26l259 345q60 78 60 144q0 62 -40.5 101.5t-104.5 39.5q-60 0 -98 -36t-48 -105l-29 10q10 76 57 120.5t119 44.5q77 0 126 -49z" />
    <glyph glyph-name="three" unicode="3" 
d="M389 641.5q49 -48.5 49 -126.5q0 -54 -23.5 -91t-75.5 -67q51 -19 82 -66.5t31 -109.5q0 -83 -52 -138q-53 -53 -134 -53q-77 0 -126.5 39.5t-61.5 109.5l31 8q15 -63 54 -93t103 -30q69 0 111.5 43.5t42.5 112.5t-43.5 113.5t-111.5 44.5h-42v35h41q63 0 101.5 40
t38.5 103t-38 101.5t-103 38.5q-60 0 -97 -31t-47 -89l-33 11q12 66 58.5 104.5t117.5 38.5q78 0 127 -48.5z" />
    <glyph glyph-name="four" unicode="4" horiz-adv-x="507" 
d="M336 0v148h-275v29l227 503h35l-224 -498h237v208h32v-208h101v-34h-101v-148h-32z" />
    <glyph glyph-name="five" unicode="5" 
d="M126 154q7 -61 46 -95.5t100 -34.5q114 0 135 92q8 46 8 101q0 68 -10 105.5t-37 61.5q-32 26 -92 26q-52 0 -90 -29t-47 -75h-30v374h325v-34h-293v-275q12 31 50.5 52t84.5 21q74 0 112 -34.5t48.5 -82.5t10.5 -110q0 -77 -17 -124t-56 -74q-44 -29 -100 -29
q-78 0 -125 41t-54 115z" />
    <glyph glyph-name="six" unicode="6" 
d="M115 345l170 335h35l-162 -318q32 35 107 35q54 0 97.5 -26t68.5 -72q24 -46 24 -105t-24 -105.5t-68 -72.5t-99 -26q-87 0 -139.5 55.5t-52.5 148.5q0 69 43 151zM378.5 315.5q-44.5 47.5 -114.5 47.5q-46 0 -82.5 -21.5t-57.5 -59.5q-21 -39 -21 -89q0 -48 21 -87
t58 -60q34 -22 82 -22q45 0 81.5 22t57.5 61q20 38 20 86q0 75 -44.5 122.5z" />
    <glyph glyph-name="seven" unicode="7" 
d="M449 645l-256 -645h-33l256 646h-282v-115h-35v149h350v-35z" />
    <glyph glyph-name="eight" unicode="8" 
d="M102 291.5q32 46.5 90 66.5q-49 21 -76 62.5t-27 95.5q0 74 48 125q49 49 126 49q48 0 88 -22.5t63 -61.5q22 -40 22 -90q0 -54 -28.5 -98t-73.5 -60q55 -17 88.5 -65.5t33.5 -111.5q0 -54 -24.5 -97.5t-68.5 -68.5q-43 -25 -100 -25q-83 0 -139 53q-54 57 -54 138
q0 64 32 110.5zM365.5 414.5q39.5 39.5 39.5 101.5q0 61 -39.5 100.5t-102.5 39.5t-102.5 -39.5t-39.5 -100.5q0 -62 39.5 -101.5t102.5 -39.5t102.5 39.5zM147 68.5q45 -44.5 116 -44.5t116 44.5t45 113.5q0 70 -44.5 114.5t-116.5 44.5q-71 0 -116 -44.5t-45 -114.5
q0 -69 45 -113.5z" />
    <glyph glyph-name="nine" unicode="9" 
d="M367 318q-21 -19 -46 -27t-60 -8q-56 0 -99 25t-67 71t-24 107q0 60 24 106.5t67 72t100 25.5q55 0 99 -25.5t69 -71.5q24 -46 24 -106q0 -69 -44 -152l-170 -335h-34zM146.5 364q44.5 -47 115.5 -47q46 0 82.5 21.5t57.5 60.5q20 42 20 88q0 75 -45 122t-115 47
q-46 0 -82.5 -21.5t-56.5 -59.5q-21 -39 -21 -88q0 -76 44.5 -123z" />
    <glyph glyph-name="colon" unicode=":" horiz-adv-x="215" 
d="M132 475v-75h-50v75h50zM132 0h-50v75h50v-75z" />
    <glyph glyph-name="semicolon" unicode=";" horiz-adv-x="215" 
d="M132 475v-75h-50v75h50zM133 -3l-52 -140v217h52v-77z" />
    <glyph glyph-name="less" unicode="&#x3c;" 
d="M456 140v-35l-386 157v28l386 157v-35l-341 -136z" />
    <glyph glyph-name="equal" unicode="=" 
d="M456 388v-32h-386v32h386zM456 196v-32h-386v32h386z" />
    <glyph glyph-name="greater" unicode="&#x3e;" 
d="M456 290v-28l-386 -157v35l340 136l-340 136v35z" />
    <glyph glyph-name="question" unicode="?" horiz-adv-x="439" 
d="M347.5 646q45.5 -44 45.5 -118q0 -45 -23 -88.5t-91 -126.5q-24 -28 -30.5 -45.5t-6.5 -52.5v-47h-33v48q0 66 34 103l98 128q9 15 14 37t5 44q0 59 -36 93.5t-97 34.5q-55 0 -92 -35t-48 -100l-32 8q9 73 56 117t116 44q75 0 120.5 -44zM204 0v75h43v-75h-43z" />
    <glyph glyph-name="at" unicode="@" horiz-adv-x="878" 
d="M641.5 610q89.5 -50 140.5 -140q50 -92 50 -203q0 -102 -39 -156t-111 -54q-40 0 -71.5 23t-43.5 61q-39 -85 -140 -85q-83 0 -118 51t-35 154q0 133 65 180q35 24 87 24q100 0 129 -65v57h32v-255q0 -50 27.5 -81.5t70.5 -31.5q54 0 84 46t30 132q0 105 -45 187.5
t-127 128.5q-82 45 -188 45q-161 0 -260 -101q-99 -97 -99 -260q0 -107 45 -189.5t127 -127.5q79 -46 187 -46q142 0 230 54l13 -27q-95 -59 -243 -59q-114 0 -203 49.5t-139 139.5q-50 92 -50 206t49 203.5t139 139.5q89 50 204 50q113 0 202.5 -50zM315 351q-8 -38 -8 -90
q0 -58 8.5 -91.5t33.5 -55.5q26 -24 81 -24q53 0 82 22t36 60q7 32 7 89q0 60 -8 93.5t-33 55.5q-29 23 -84 23q-98 0 -115 -82z" />
    <glyph glyph-name="A" unicode="A" horiz-adv-x="588" 
d="M142 190l-69 -190h-38l247 680h31l246 -680h-37l-69 190h-311zM440 226l-142 395l-144 -395h286z" />
    <glyph glyph-name="B" unicode="B" horiz-adv-x="599" 
d="M101 680h229q91 0 142 -46.5t51 -127.5q0 -66 -29 -104.5t-91 -52.5q57 -9 93.5 -56t36.5 -111q0 -84 -53 -133t-146 -49h-233v680zM330 364q74 0 116 38t42 102q0 67 -41 104t-117 37h-195v-281h195zM334 35q78 0 121.5 38.5t43.5 107.5t-43.5 108.5t-121.5 39.5h-199
v-294h199z" />
    <glyph glyph-name="C" unicode="C" horiz-adv-x="549" 
d="M145 32.5q-49 42.5 -62.5 105t-13.5 153.5v49q0 130 16 197.5t61 108.5q50 44 148 44q92 0 149 -52t69 -153h-36q-12 81 -60.5 125.5t-121.5 44.5q-79 0 -121.5 -34t-55.5 -104q-13 -59 -13 -177q0 -123 14 -184.5t52 -94.5q41 -36 124 -36q42 0 81 18.5t68 53.5
q29 36 36 91h34q-14 -96 -71.5 -147t-147.5 -51q-100 0 -149 42.5z" />
    <glyph glyph-name="D" unicode="D" horiz-adv-x="618" 
d="M101 680h212q100 0 153 -38t68 -112q12 -67 12 -190q0 -92 -6 -144t-21 -89q-17 -39 -49 -65q-49 -42 -157 -42h-212v680zM312 35q87 0 132 32.5t57 97.5q10 54 10 175q0 87 -4.5 135t-17.5 80q-14 34 -42 56q-44 35 -135 35h-177v-611h177z" />
    <glyph glyph-name="E" unicode="E" horiz-adv-x="551" 
d="M496 35v-35h-395v680h395v-34h-361v-283h315v-34h-315v-294h361z" />
    <glyph glyph-name="F" unicode="F" horiz-adv-x="547" 
d="M135 322v-322h-34v680h395v-34h-361v-290h315v-34h-315z" />
    <glyph glyph-name="G" unicode="G" horiz-adv-x="602" 
d="M165 27q-53 37 -77 112q-19 54 -19 201q0 98 9 157t30 95q57 98 194 98q97 0 153.5 -50.5t71.5 -154.5h-34q-26 170 -192 170q-139 0 -180 -125q-19 -48 -19 -190t19 -190q41 -125 180 -125q70 0 114.5 30.5t65.5 92.5q18 48 18 151h-186v37h221v-45q0 -98 -23.5 -162.5
t-73.5 -100.5q-56 -38 -135 -38q-84 0 -137 37z" />
    <glyph glyph-name="H" unicode="H" horiz-adv-x="647" 
d="M135 329v-329h-34v680h34v-317h377v317h34v-680h-34v329h-377z" />
    <glyph glyph-name="I" unicode="I" horiz-adv-x="236" 
d="M135 680v-680h-34v680h34z" />
    <glyph glyph-name="J" unicode="J" horiz-adv-x="462" 
d="M111.5 3q-34.5 13 -66.5 42l23 25q33 -24 62 -34.5t59 -10.5q152 0 152 170v485h34v-485q0 -102 -47 -153.5t-138 -51.5q-44 0 -78.5 13z" />
    <glyph glyph-name="K" unicode="K" horiz-adv-x="584" 
d="M135 202v-202h-34v680h34v-429l358 429h43l-225 -268l237 -412h-40l-221 383z" />
    <glyph glyph-name="L" unicode="L" horiz-adv-x="524" 
d="M496 35v-35h-395v680h34v-645h361z" />
    <glyph glyph-name="M" unicode="M" horiz-adv-x="755" 
d="M139 598v-598h-34v680h34l241 -528l234 528h36v-680h-35v598l-222 -495h-28z" />
    <glyph glyph-name="N" unicode="N" horiz-adv-x="649" 
d="M136 616v-616h-35v680h35l377 -617v617h35v-680h-37z" />
    <glyph glyph-name="O" unicode="O" horiz-adv-x="602" 
d="M166.5 27q-52.5 37 -76.5 112q-21 63 -21 201q0 135 22 205.5t76 107.5q52 37 135 37q184 0 218 -167q14 -76 14 -183q0 -133 -22 -204.5t-75 -108.5q-52 -37 -135 -37t-135.5 37zM432 62q43 37 55 92t12 136v50q0 117 -14 177.5t-53 97.5q-43 40 -130 40q-83 0 -128 -36
t-58 -106q-12 -64 -12 -173q0 -119 14 -179.5t53 -96.5q42 -39 131 -39q87 0 130 37z" />
    <glyph glyph-name="P" unicode="P" horiz-adv-x="580" 
d="M101 680h227q96 0 149.5 -49t53.5 -137q0 -87 -53.5 -136t-149.5 -49h-193v-309h-34v680zM328 343q82 0 125.5 39t43.5 112t-43.5 112.5t-125.5 39.5h-193v-303h193z" />
    <glyph glyph-name="Q" unicode="Q" horiz-adv-x="602" 
d="M525 -36l-69 79q-56 -53 -154 -53q-83 0 -135.5 37t-76.5 112q-21 63 -21 201q0 135 22 205.5t76 107.5q52 37 135 37q184 0 218 -167q14 -76 14 -183q0 -133 -21 -201q-14 -41 -35 -71l74 -82zM433 70l-93 105l25 19l89 -99q16 24 26 55q19 54 19 190q0 117 -14 177.5
t-53 97.5q-43 40 -130 40q-83 0 -128 -36t-58 -106q-12 -64 -12 -173q0 -119 14 -179.5t53 -96.5q42 -39 131 -39q83 0 131 45z" />
    <glyph glyph-name="R" unicode="R" horiz-adv-x="614" 
d="M101 680h225q97 0 150 -48t53 -134q0 -72 -37 -118.5t-105 -59.5l155 -320h-37l-153 315h-217v-315h-34v680zM326 349q83 0 126 37.5t43 111.5q0 71 -43.5 109.5t-125.5 38.5h-191v-297h191z" />
    <glyph glyph-name="S" unicode="S" horiz-adv-x="599" 
d="M176 13q-33 12 -55.5 25t-46.5 33l22 29q95 -75 207 -75q88 0 141 42t53 112q0 64 -42.5 99.5t-135.5 47.5l-29 3q-193 24 -193 175q0 85 56.5 135.5t151.5 50.5q114 0 193 -58l-21 -32q-88 55 -175 55q-79 0 -125 -40.5t-46 -108.5q0 -61 41.5 -95.5t131.5 -46.5l29 -4
q197 -24 197 -178q0 -88 -63 -140t-171 -52q-54 0 -120 23z" />
    <glyph glyph-name="T" unicode="T" horiz-adv-x="516" 
d="M275 646v-646h-34v646h-219v34h472v-34h-219z" />
    <glyph glyph-name="U" unicode="U" horiz-adv-x="632" 
d="M150 52q-57 62 -57 182v446h34v-449q0 -102 48 -154t141 -52t141 52t48 154v449h34v-446q0 -244 -223 -244q-109 0 -166 62z" />
    <glyph glyph-name="V" unicode="V" horiz-adv-x="558" 
d="M540 680l-237 -680h-32l-239 680h37l219 -622l214 622h38z" />
    <glyph glyph-name="W" unicode="W" horiz-adv-x="813" 
d="M782 680l-164 -680h-34l-173 604l-175 -604h-34l-164 680h37l147 -612l172 612h33l174 -612l144 612h37z" />
    <glyph glyph-name="X" unicode="X" horiz-adv-x="535" 
d="M290 359l216 -359h-40l-194 323l-196 -323h-39l215 359l-192 321h39l173 -285l172 285h39z" />
    <glyph glyph-name="Y" unicode="Y" horiz-adv-x="507" 
d="M275 279v-279h-34v279l-213 401h40l192 -361l187 361h40z" />
    <glyph glyph-name="Z" unicode="Z" horiz-adv-x="543" 
d="M485 35v-35h-429v31l388 615h-374v34h415v-31l-387 -614h387z" />
    <glyph glyph-name="bracketleft" unicode="[" horiz-adv-x="284" 
d="M235 -52v-32h-121v824h121v-32h-88v-760h88z" />
    <glyph glyph-name="backslash" unicode="\" horiz-adv-x="400" 
d="M106 690l227 -700h-33l-227 700h33z" />
    <glyph glyph-name="bracketright" unicode="]" horiz-adv-x="284" 
d="M49 708v32h121v-824h-121v32h88v760h-88z" />
    <glyph glyph-name="asciicircum" unicode="^" 
d="M282 680l181 -391h-32l-163 348l-165 -348h-32l183 391h28z" />
    <glyph glyph-name="underscore" unicode="_" horiz-adv-x="447" 
d="M0 -87h447v-31h-447v31z" />
    <glyph glyph-name="grave" unicode="`" horiz-adv-x="421" 
d="M185 700l91 -141h-31l-99 141h39z" />
    <glyph glyph-name="a" unicode="a" horiz-adv-x="509" 
d="M384 68q-13 -35 -54.5 -56.5t-98.5 -21.5q-76 0 -117.5 36t-41.5 103q0 69 43.5 103t132.5 34h136v64q0 46 -12 72t-40 38t-79 12q-88 0 -132 -44l-21 25q51 52 153 52q90 0 127 -34.5t37 -119.5v-331h-33v68zM342.5 57.5q41.5 32.5 41.5 83.5v93h-133q-76 0 -111 -25.5
t-35 -79.5q0 -50 34 -77t97 -27q65 0 106.5 32.5z" />
    <glyph glyph-name="b" unicode="b" 
d="M131 397q40 88 153 88q122 0 160 -113q17 -63 17 -135q0 -125 -40 -186t-137 -61q-56 0 -93.5 22t-59.5 67v-79h-32v680h32v-283zM146 359q-15 -40 -15 -122q0 -81 15 -120q29 -93 134 -93q59 0 94 27t45 76q9 44 9 110q0 75 -11 117.5t-40 68.5q-31 28 -97 28
q-105 0 -134 -92z" />
    <glyph glyph-name="c" unicode="c" horiz-adv-x="468" 
d="M83 372.5q18 52.5 59 81.5q43 31 108 31q112 0 163 -104l-30 -13q-19 40 -54 61.5t-79 21.5q-107 0 -138 -100q-14 -42 -14 -114q0 -61 10 -106t43 -76t99 -31q39 0 75 23t58 61l30 -13q-27 -49 -70 -77t-93 -28q-64 0 -108 31.5t-62 89.5q-15 51 -15 126q0 83 18 135.5z
" />
    <glyph glyph-name="d" unicode="d" 
d="M394 79q-41 -89 -152 -89q-70 0 -111.5 33t-53.5 92q-12 53 -12 122q0 81 13.5 130t48.5 82q37 36 115 36q56 0 93.5 -21.5t58.5 -66.5v283h33v-680h-33v79zM343.5 53q32.5 29 41.5 73t9 111q0 75 -10 117t-40 69q-32 28 -98 28q-59 0 -93.5 -26.5t-44.5 -75.5
q-10 -41 -10 -112q0 -75 11 -116.5t41 -67.5q32 -29 96 -29q65 0 97.5 29z" />
    <glyph glyph-name="e" unicode="e" horiz-adv-x="495" 
d="M141 20q-43 30 -63 93q-13 42 -13 125q0 87 17 137t58 79q43 31 108 31q62 0 107 -31.5t63 -89.5q13 -38 13 -130h-333q0 -67 11 -109q34 -103 145 -103q92 0 148 77l23 -21q-27 -43 -71.5 -65.5t-99.5 -22.5q-70 0 -113 30zM398 266q0 59 -10 85q-32 101 -141 101
q-107 0 -139 -101q-10 -30 -10 -85h300z" />
    <glyph glyph-name="f" unicode="f" horiz-adv-x="301" 
d="M116 442h-75v33h75v65q0 57 11 87t36 42q30 11 75 11h32v-34h-27q-41 0 -61 -9t-27 -29q-7 -15 -7 -59v-74h122v-33h-122v-442h-32v442z" />
    <glyph glyph-name="g" unicode="g" horiz-adv-x="517" 
d="M149 -167q-46 23 -67 54l27 19q25 -28 60 -45t70 -17q146 0 146 157v80q-38 -89 -148 -89q-61 0 -99.5 28t-57.5 85q-16 44 -16 133q0 82 13 130.5t48 81.5q38 35 112 35q111 0 148 -88v78h33v-474q0 -93 -46.5 -142t-132.5 -49q-44 0 -90 23zM336.5 51.5
q31.5 26.5 40 64.5t8.5 93q0 96 -9 141t-40 73t-94 28q-57 0 -90.5 -27t-43.5 -76q-10 -41 -10 -110q0 -79 15 -120q30 -93 129 -93q63 0 94.5 26.5z" />
    <glyph glyph-name="h" unicode="h" horiz-adv-x="538" 
d="M413 294q0 157 -137 157q-64 0 -104.5 -39.5t-40.5 -104.5v-307h-32v680h32v-282q39 87 148 87q82 0 124.5 -46.5t42.5 -136.5v-302h-33v294z" />
    <glyph glyph-name="i" unicode="i" horiz-adv-x="231" 
d="M133 680v-64h-35v64h35zM131 475v-475h-32v475h32z" />
    <glyph glyph-name="j" unicode="j" horiz-adv-x="231" 
d="M133 680v-64h-35v64h35zM8 -146h15q31 0 47 7t23 23q6 16 6 49v542h32v-541q0 -45 -10 -69t-33 -34q-25 -11 -65 -11h-15v34z" />
    <glyph glyph-name="k" unicode="k" horiz-adv-x="492" 
d="M270 302l185 -302h-38l-170 274l-116 -137v-137h-32v680h32v-493l245 288h38z" />
    <glyph glyph-name="l" unicode="l" horiz-adv-x="251" 
d="M185 -2q-48 0 -67 23t-19 79v580h32v-579q0 -39 12 -54t42 -15h25v-34h-25z" />
    <glyph glyph-name="m" unicode="m" horiz-adv-x="853" 
d="M728 294q0 157 -139 157q-63 0 -103 -39.5t-40 -104.5v-307h-33v294q0 157 -137 157q-64 0 -104.5 -39.5t-40.5 -104.5v-307h-32v475h32v-77q39 87 148 87q60 0 99 -25.5t54 -74.5q21 51 60.5 75.5t99.5 24.5q81 0 124.5 -47t43.5 -136v-302h-32v294z" />
    <glyph glyph-name="n" unicode="n" horiz-adv-x="538" 
d="M99 475h32v-77q39 87 148 87q82 0 124.5 -46.5t42.5 -136.5v-302h-33v294q0 157 -137 157q-64 0 -104.5 -39.5t-40.5 -104.5v-307h-32v475z" />
    <glyph glyph-name="o" unicode="o" horiz-adv-x="504" 
d="M144 22q-45 32 -63 89q-16 45 -16 127t18.5 133.5t60.5 81.5q47 32 107 32q64 0 109 -31.5t63 -89.5q16 -45 16 -126q0 -84 -18.5 -135t-60.5 -81q-47 -32 -109 -32t-107 32zM349 52q37 28 47 78q10 41 10 108q0 72 -11.5 113.5t-42.5 69.5q-34 30 -101 30q-61 0 -97 -28
t-46 -78q-10 -41 -10 -107q0 -72 11.5 -114t42.5 -69q34 -31 99 -31q61 0 98 28z" />
    <glyph glyph-name="p" unicode="p" 
d="M99 475h32v-78q22 45 59.5 66.5t93.5 21.5q122 0 160 -113q17 -63 17 -135q0 -125 -40 -186t-137 -61q-109 0 -153 89v-259h-32v655zM374 51q35 27 45 76q9 44 9 110q0 75 -11 117.5t-40 68.5q-31 28 -97 28q-105 0 -134 -92q-15 -40 -15 -122q0 -81 15 -120
q29 -93 134 -93q59 0 94 27z" />
    <glyph glyph-name="q" unicode="q" 
d="M394 78q-40 -88 -152 -88q-97 0 -137 61t-40 186q0 72 17 135q38 113 160 113q112 0 152 -88v78h33v-655h-33v258zM343.5 53q32.5 29 41.5 73t9 111q0 75 -10 117t-40 69q-32 28 -98 28q-59 0 -93.5 -26.5t-44.5 -75.5q-10 -41 -10 -112q0 -75 11 -116.5t41 -67.5
q32 -29 96 -29q65 0 97.5 29z" />
    <glyph glyph-name="r" unicode="r" horiz-adv-x="386" 
d="M99 475h32v-82q15 47 47.5 69.5t83.5 22.5q64 0 100 -36l-17 -29q-43 31 -88 31q-60 0 -93 -46.5t-33 -129.5v-275h-32v475z" />
    <glyph glyph-name="s" unicode="s" horiz-adv-x="475" 
d="M404 439l-18 -29q-71 41 -143 41q-60 0 -92.5 -25.5t-32.5 -72.5q0 -42 28 -63t94 -28l46 -5q69 -7 101.5 -36.5t32.5 -86.5q0 -67 -46.5 -105.5t-129.5 -38.5q-103 0 -185 70l22 26q38 -32 79 -47t89 -15q65 0 101 28t36 77q0 46 -26.5 67t-92.5 28l-47 5
q-136 13 -136 122q0 63 43 98.5t118 35.5q86 0 159 -46z" />
    <glyph glyph-name="t" unicode="t" horiz-adv-x="307" 
d="M235 -2q-67 0 -94 28t-27 97v319h-72v33h72v155h33v-155h115v-33h-115v-317q0 -54 19 -73.5t70 -19.5h26v-34h-27z" />
    <glyph glyph-name="u" unicode="u" horiz-adv-x="532" 
d="M400 76q-38 -86 -145 -86q-80 0 -122.5 46.5t-42.5 135.5v303h33v-293q0 -80 33.5 -119t101.5 -39q61 0 101.5 40.5t40.5 103.5v307h33v-475h-33v76z" />
    <glyph glyph-name="v" unicode="v" horiz-adv-x="461" 
d="M430 475l-182 -475h-29l-182 475h35l162 -418l161 418h35z" />
    <glyph glyph-name="w" unicode="w" horiz-adv-x="730" 
d="M691 475l-154 -475h-30l-139 419l-142 -419h-27l-154 475h33l137 -416l139 416h30l140 -416l134 416h33z" />
    <glyph glyph-name="x" unicode="x" horiz-adv-x="451" 
d="M249 250l171 -250h-40l-148 220l-151 -220h-38l170 250l-153 225h40l132 -196l132 196h39z" />
    <glyph glyph-name="y" unicode="y" horiz-adv-x="460" 
d="M72 -180v34h28q24 0 39.5 8.5t28.5 29.5q13 22 29 63l21 52l-180 468h35l163 -419l159 419h35l-203 -527q-21 -53 -38 -79.5t-38 -37.5q-24 -11 -52 -11h-27z" />
    <glyph glyph-name="z" unicode="z" horiz-adv-x="460" 
d="M98 31h305v-31h-343v30l305 413h-292v32h330v-32z" />
    <glyph glyph-name="braceleft" unicode="{" horiz-adv-x="308" 
d="M223 -84q-44 0 -63 23t-19 76v211q0 46 -15 66.5t-47 20.5v33q34 0 48 20.5t14 67.5v207q0 53 19 76t63 23h35v-32h-34q-51 0 -51 -62v-203q0 -51 -10.5 -76.5t-35.5 -36.5q27 -13 36.5 -36t9.5 -77v-207q0 -62 51 -62h34v-32h-35z" />
    <glyph glyph-name="bar" unicode="|" horiz-adv-x="215" 
d="M123 740v-824h-31v824h31z" />
    <glyph glyph-name="braceright" unicode="}" horiz-adv-x="308" 
d="M84 740q45 0 63.5 -22.5t18.5 -76.5v-207q0 -45 15 -66.5t48 -21.5v-33q-33 0 -48 -21t-15 -66v-211q0 -54 -18.5 -76.5t-63.5 -22.5h-35v32h34q52 0 52 62v207q0 54 10 77.5t37 35.5q-27 11 -37 35.5t-10 77.5v203q0 62 -52 62h-34v32h35z" />
    <glyph glyph-name="asciitilde" unicode="~" 
d="M65 246q42 82 116 82q39 0 95 -41q49 -34 77 -34q53 0 90 67l25 -16q-40 -87 -118 -87q-14 0 -16 1q-16 3 -29 12q-11 5 -49 32q-50 35 -76 35q-25 0 -46 -15.5t-45 -52.5z" />
    <glyph glyph-name="uni00A0" unicode="&#xa0;" horiz-adv-x="250" 
 />
    <glyph glyph-name="exclamdown" unicode="&#xa1;" horiz-adv-x="251" 
d="M101 475h48v-74h-48v74zM101 -205l9 508h29l11 -508h-49z" />
    <glyph glyph-name="cent" unicode="&#xa2;" 
d="M286 25q38 2 70.5 24t53.5 59l30 -13q-25 -46 -65.5 -74t-88.5 -30v-94h-32v95q-55 5 -93 36t-54 83q-15 51 -15 126q0 79 16.5 129.5t52.5 80.5q37 31 93 37v93h32v-92q104 -4 154 -104l-30 -13q-18 38 -50 59.5t-74 23.5v-426zM254 26v423q-88 -9 -115 -98
q-14 -42 -14 -114q0 -70 14 -112q25 -88 115 -99z" />
    <glyph glyph-name="sterling" unicode="&#xa3;" 
d="M105 0v29q29 29 37.5 49.5t8.5 61.5v165h-67v33h67v187q0 77 38.5 121t104.5 44q53 0 90.5 -33.5t49.5 -93.5l-31 -11q-21 104 -110 104q-52 0 -80.5 -33t-28.5 -95v-190h158v-33h-158v-164q0 -68 -36 -107h292v-34h-335z" />
    <glyph glyph-name="currency" unicode="&#xa4;" 
d="M390 179q-53 -41 -119 -41q-67 0 -120 41l-73 -73l-22 24l72 71q-41 50 -41 122q0 67 42 122l-73 72l22 24l74 -74q50 41 121 41q66 0 116 -41l75 74l21 -24l-73 -73q42 -51 42 -121t-41 -120l73 -73l-21 -25zM271 170q65 0 107 44q43 42 43 109q0 42 -20 77.5t-54 56.5
q-35 20 -76 20t-75.5 -20t-54.5 -56q-20 -35 -20 -78q0 -66 43 -109q44 -44 107 -44z" />
    <glyph glyph-name="yen" unicode="&#xa5;" 
d="M286 170v-170h-32v170h-152v33h152v79h-152v32h137l-170 366h36l166 -357l163 357h37l-171 -366h138v-32h-152v-79h152v-33h-152z" />
    <glyph glyph-name="brokenbar" unicode="&#xa6;" horiz-adv-x="215" 
d="M123 740v-352h-31v352h31zM123 272v-356h-31v356h31z" />
    <glyph glyph-name="section" unicode="&#xa7;" horiz-adv-x="512" 
d="M140.5 -148q-40.5 42 -39.5 117l34 7q-4 -65 26.5 -98.5t91.5 -33.5q55 0 87.5 30t32.5 83q0 51 -33 78.5t-112 42.5q-136 27 -136 175q0 67 29.5 109.5t86.5 55.5q-51 23 -73 54t-22 81q0 60 40 99q44 38 105 38q66 0 104.5 -40t35.5 -104l-29 -7q1 54 -29 85.5
t-82 31.5q-53 0 -82.5 -27t-29.5 -76q0 -52 31.5 -81t105.5 -44q137 -29 137 -175q0 -64 -29 -107t-83 -58q98 -38 98 -132q0 -34 -12 -62.5t-34 -47.5q-43 -36 -107 -36q-72 0 -112.5 42zM352 150q36 38 36 103t-35.5 102.5t-96.5 37.5t-96.5 -37.5t-35.5 -102.5
q0 -66 35.5 -103.5t96.5 -37.5q60 0 96 38z" />
    <glyph glyph-name="dieresis" unicode="&#xa8;" horiz-adv-x="421" 
d="M133 680v-64h-46v64h46zM333 680v-64h-46v64h46z" />
    <glyph glyph-name="copyright" unicode="&#xa9;" horiz-adv-x="832" 
d="M416 -10q-99 0 -179 45t-125 126q-46 79 -46 179q0 98 45.5 178t126.5 126q79 46 178 46q96 0 176 -46t127 -127q46 -79 46 -177q0 -149 -101 -250q-100 -100 -248 -100zM416 20q89 0 162.5 42t115.5 115q42 74 42 163t-42 162.5t-115 115.5t-163 42q-89 0 -163 -42
t-116 -115t-42 -163q0 -137 92 -229q91 -91 229 -91zM335 170q-36 26 -51 74q-11 39 -11 96q0 67 14.5 106.5t47.5 63.5q38 26 86 26t80.5 -19.5t54.5 -61.5l-23 -21q-21 38 -47 54.5t-65 16.5q-53 0 -79 -22.5t-33 -53.5t-7 -72q0 -66 8.5 -101t32.5 -57q25 -24 78 -24
q32 0 63 20t50 51l22 -21q-21 -39 -56 -60t-79 -21q-50 0 -86 26z" />
    <glyph glyph-name="ordfeminine" unicode="&#xaa;" horiz-adv-x="337" 
d="M249 428q-15 -23 -37.5 -32.5t-61.5 -9.5q-46 0 -73.5 22.5t-27.5 63.5q0 88 118 88h81v31q0 38 -17 52t-65 14q-56 0 -88 -29l-13 26q33 33 103 33q60 0 85 -21t25 -74v-200h-29v36zM222 432.5q26 17.5 26 41.5v57h-78q-91 0 -91 -57q0 -28 20.5 -43.5t57.5 -15.5
q39 0 65 17.5z" />
    <glyph glyph-name="guillemotleft" unicode="&#xab;" horiz-adv-x="523" 
d="M257 133v-51l-175 182l174 181v-50l-128 -131zM450 133v-51l-176 182l176 181v-50l-130 -131z" />
    <glyph glyph-name="logicalnot" unicode="&#xac;" 
d="M456 292v-166h-34v134h-352v32h386z" />
    <glyph glyph-name="uni00AD" unicode="&#xad;" horiz-adv-x="369" 
d="M319 283v-33h-268v33h268z" />
    <glyph glyph-name="registered" unicode="&#xae;" horiz-adv-x="832" 
d="M592 644q80 -46 127 -127q46 -79 46 -177t-45.5 -178t-126.5 -126q-79 -46 -177 -46q-99 0 -179 45t-125 126q-46 79 -46 179q0 98 45.5 178t126.5 126q79 46 178 46q96 0 176 -46zM253 618q-74 -42 -116 -115t-42 -163q0 -89 42 -162.5t116 -115.5t163 -42t162.5 42
t115.5 115q42 74 42 163t-42 162.5t-115 115.5t-163 42q-89 0 -163 -42zM433 549q61 0 94 -30t33 -84q0 -44 -23 -73t-66 -37l97 -199h-25l-95 195h-133v-195h-22v423h140zM315 527v-183h118q51 0 77.5 23t26.5 68q0 44 -26.5 68t-77.5 24h-118z" />
    <glyph glyph-name="overscore" unicode="&#xaf;" horiz-adv-x="421" 
d="M336 663v-33h-252v33h252z" />
    <glyph glyph-name="degree" unicode="&#xb0;" horiz-adv-x="442" 
d="M219 403q-61 0 -100 41q-39 38 -39 100q0 64 39 101q39 41 100 41t101.5 -40.5t40.5 -101.5t-40 -101t-102 -40zM141 625.5q-31 -32.5 -31 -81.5q0 -48 31 -80.5t78 -32.5q48 0 79.5 32.5t31.5 80.5q0 49 -31.5 81.5t-79.5 32.5q-47 0 -78 -32.5z" />
    <glyph glyph-name="plusminus" unicode="&#xb1;" 
d="M280 268v-178h-34v178h-176v32h176v178h34v-178h176v-32h-176zM456 32v-32h-386v32h386z" />
    <glyph glyph-name="uni00B2" unicode="&#xb2;" horiz-adv-x="324" 
d="M246 813.5q32 -29.5 32 -74.5q0 -53 -46 -105l-149 -174h198v-30h-238v27l167 197q36 44 36 81q0 34 -22 55.5t-58 21.5q-72 0 -88 -76l-28 5q6 45 38.5 73.5t77.5 28.5q48 0 80 -29.5z" />
    <glyph glyph-name="uni00B3" unicode="&#xb3;" horiz-adv-x="324" 
d="M90 448q-34 25 -47 64l28 9q12 -30 37.5 -48.5t56.5 -18.5q39 0 64 24t25 61t-25.5 62.5t-64.5 25.5h-27v30h25q37 0 60.5 21.5t23.5 57.5q0 34 -23 55t-61 21q-32 0 -54.5 -16.5t-31.5 -47.5l-25 8q8 40 38 63.5t74 23.5q51 0 82 -30t31 -77q0 -58 -57 -93
q29 -10 47 -38t18 -65q0 -51 -33 -84t-85 -33q-42 0 -76 25z" />
    <glyph glyph-name="acute" unicode="&#xb4;" horiz-adv-x="421" 
d="M281 700l-99 -141h-32l90 141h41z" />
    <glyph glyph-name="uni00B5" unicode="&#xb5;" horiz-adv-x="527" 
d="M356.5 16.5q-39.5 -26.5 -93.5 -26.5q-88 0 -132 65v-235h-32v655h32v-307q0 -71 34.5 -107.5t101.5 -36.5q63 0 102 41t39 107v303h32v-416q0 -18 7 -22.5t34 -4.5v-34h-8q-34 0 -48 19.5t-16 68.5q-13 -43 -52.5 -69.5z" />
    <glyph glyph-name="paragraph" unicode="&#xb6;" horiz-adv-x="546" 
d="M423 647h-118v-827h-34v449q-57 2 -100.5 29t-66.5 73q-24 47 -24 104q0 60 26.5 106.5t75.5 72.5q50 26 116 26h158v-860h-33v827z" />
    <glyph glyph-name="middot" unicode="&#xb7;" horiz-adv-x="207" 
d="M128 304v-75h-50v75h50z" />
    <glyph glyph-name="cedilla" unicode="&#xb8;" horiz-adv-x="421" 
d="M260 -21q0 -54 -30 -89.5t-75 -34.5v31q35 0 54 25t19 68h32z" />
    <glyph glyph-name="uni00B9" unicode="&#xb9;" horiz-adv-x="324" 
d="M192 836v-406h-30v366l-82 -56v37l85 59h27z" />
    <glyph glyph-name="ordmasculine" unicode="&#xba;" horiz-adv-x="342" 
d="M49 536q0 49 10 73q29 78 112 78q87 0 112 -78q10 -26 10 -73q0 -49 -10 -73q-25 -78 -112 -78q-83 0 -112 78q-10 26 -10 73zM263 536q0 61 -21 91t-71 30q-64 0 -82 -59q-9 -22 -9 -63q0 -38 9 -61q18 -59 82 -59q63 0 83 59q9 24 9 62z" />
    <glyph glyph-name="guillemotright" unicode="&#xbb;" horiz-adv-x="523" 
d="M80 445l166 -181l-166 -190v59l124 131l-124 131v50zM272 445l166 -181l-166 -190v59l125 131l-125 131v50z" />
    <glyph glyph-name="onequarter" unicode="&#xbc;" horiz-adv-x="823" 
d="M615 690l-406 -700h-32l406 700h32zM213 680v-406h-30v367l-82 -57v37l85 59h27zM458 110l145 296h32l-144 -293h143v120h31v-120h59v-31h-59v-82h-31v82h-176v28z" />
    <glyph glyph-name="onehalf" unicode="&#xbd;" horiz-adv-x="851" 
d="M177 -10l406 700h32l-406 -700h-32zM101 584v37l85 59h27v-406h-30v367zM715 383.5q32 -29.5 32 -74.5q0 -52 -45 -105l-150 -174h198v-30h-237v27l166 197q37 43 37 81q0 34 -22 55.5t-58 21.5t-57.5 -18.5t-29.5 -57.5l-29 5q8 46 39 74t76 28q48 0 80 -29.5z" />
    <glyph glyph-name="threequarters" unicode="&#xbe;" horiz-adv-x="891" 
d="M685 690l-406 -700h-32l406 700h32zM147.5 292q-33.5 25 -46.5 64l27 9q13 -30 39 -48.5t56 -18.5q39 0 64 24t25 61t-25.5 62.5t-64.5 25.5h-27v30h25q36 0 59.5 21.5t23.5 57.5q0 34 -23 55t-60 21q-68 0 -86 -64l-26 8q9 40 39 63.5t74 23.5q51 0 82 -30t31 -77
q0 -59 -58 -93q28 -10 47 -39t19 -64q0 -51 -33.5 -84t-85.5 -33q-42 0 -75.5 25zM734 82v-82h-30v82h-177v28l146 296h31l-143 -293h143v120h30v-120h59v-31h-59z" />
    <glyph glyph-name="questiondown" unicode="&#xbf;" horiz-adv-x="439" 
d="M199 475h43v-74h-43v74zM237 259q0 -59 -35 -103l-78 -101q-21 -31 -30 -54.5t-9 -53.5q0 -59 36.5 -93.5t96.5 -34.5q55 0 91.5 34.5t49.5 100.5l32 -8q-11 -76 -57 -118.5t-116 -42.5q-74 0 -121 45q-45 48 -45 117q0 43 15 76.5t54 77.5l46 62q23 27 29.5 45t6.5 52
v47h34v-48z" />
    <glyph glyph-name="Agrave" unicode="&#xc0;" horiz-adv-x="588" 
d="M223 888l91 -141h-30l-100 141h39zM142 190l-70 -190h-37l248 680h30l247 -680h-37l-70 190h-311zM440 226l-141 395l-145 -395h286z" />
    <glyph glyph-name="Aacute" unicode="&#xc1;" horiz-adv-x="588" 
d="M414 888l-99 -141h-31l90 141h40zM142 190l-70 -190h-37l248 680h30l247 -680h-37l-70 190h-311zM440 226l-141 395l-145 -395h286z" />
    <glyph glyph-name="Acircumflex" unicode="&#xc2;" horiz-adv-x="588" 
d="M296 860l-83 -106h-30l100 141h25l102 -141h-30zM142 190l-70 -190h-37l248 680h30l247 -680h-37l-70 190h-311zM440 226l-141 395l-145 -395h286z" />
    <glyph glyph-name="Atilde" unicode="&#xc3;" horiz-adv-x="588" 
d="M179 822q29 39 65 39q23 0 58 -20q22 -18 46 -18q15 0 29.5 9.5t34.5 33.5v-39q-34 -36 -65 -36q-24 0 -58 22q-27 18 -46 18q-24 0 -64 -42v33zM142 190l-70 -190h-37l248 680h30l247 -680h-37l-70 190h-311zM440 226l-141 395l-145 -395h286z" />
    <glyph glyph-name="Adieresis" unicode="&#xc4;" horiz-adv-x="588" 
d="M221 857v-65h-47v65h47zM420 857v-65h-48v65h48zM142 190l-70 -190h-37l248 680h30l247 -680h-37l-70 190h-311zM440 226l-141 395l-145 -395h286z" />
    <glyph glyph-name="Aring" unicode="&#xc5;" horiz-adv-x="588" 
d="M379 828q0 -34 -23 -60q-26 -23 -60 -23q-37 0 -60.5 23.5t-23.5 59.5q0 38 23.5 60.5t60.5 22.5t60 -23t23 -60zM296 886q-25 0 -41 -16q-14 -17 -14 -42q0 -24 14 -41q16 -16 41 -16q24 0 39 16t15 41q0 26 -15 42q-13 16 -39 16zM35 0l248 680h30l247 -680h-37
l-70 190h-311l-70 -190h-37zM154 226h286l-141 395z" />
    <glyph glyph-name="AE" unicode="&#xc6;" horiz-adv-x="947" 
d="M195 190l-125 -190h-39l448 680h414v-34h-361v-283h315v-34h-315v-294h361v-35h-395v190h-303zM498 226v421l-276 -421h276z" />
    <glyph glyph-name="Ccedilla" unicode="&#xc7;" horiz-adv-x="549" 
d="M443 638q57 -52 69 -153h-36q-12 81 -60.5 125.5t-121.5 44.5q-79 0 -121.5 -34t-55.5 -104q-13 -59 -13 -177q0 -123 14 -184.5t52 -94.5q41 -36 124 -36q42 0 81 18.5t68 53.5q29 36 36 91h34q-14 -96 -71.5 -147t-147.5 -51q-100 0 -149 42.5t-62.5 105t-13.5 153.5
v49q0 130 16 197.5t61 108.5q50 44 148 44q92 0 149 -52zM309 -21q1 -53 -29 -89t-76 -35v31q35 0 54 25t19 68h32z" />
    <glyph glyph-name="Egrave" unicode="&#xc8;" horiz-adv-x="551" 
d="M239 888l91 -141h-31l-99 141h39zM496 35v-35h-395v680h395v-34h-361v-283h315v-34h-315v-294h361z" />
    <glyph glyph-name="Eacute" unicode="&#xc9;" horiz-adv-x="551" 
d="M383 888l-99 -141h-31l90 141h40zM496 35v-35h-395v680h395v-34h-361v-283h315v-34h-315v-294h361z" />
    <glyph glyph-name="Ecircumflex" unicode="&#xca;" horiz-adv-x="551" 
d="M298 860l-83 -106h-30l100 141h25l102 -141h-30zM496 35v-35h-395v680h395v-34h-361v-283h315v-34h-315v-294h361z" />
    <glyph glyph-name="Edieresis" unicode="&#xcb;" horiz-adv-x="551" 
d="M217 857v-65h-48v65h48zM416 857v-65h-48v65h48zM496 35v-35h-395v680h395v-34h-361v-283h315v-34h-315v-294h361z" />
    <glyph glyph-name="Igrave" unicode="&#xcc;" horiz-adv-x="236" 
d="M54 888l91 -141h-31l-99 141h39zM138 680v-680h-34v680h34z" />
    <glyph glyph-name="Iacute" unicode="&#xcd;" horiz-adv-x="236" 
d="M233 888l-99 -141h-31l90 141h40zM135 680v-680h-34v680h34z" />
    <glyph glyph-name="Icircumflex" unicode="&#xce;" horiz-adv-x="236" 
d="M120 860l-84 -106h-29l100 141h25l102 -141h-30zM137 680v-680h-34v680h34z" />
    <glyph glyph-name="Idieresis" unicode="&#xcf;" horiz-adv-x="236" 
d="M44 857v-65h-48v65h48zM242 857v-65h-47v65h47zM135 680v-680h-34v680h34z" />
    <glyph glyph-name="Eth" unicode="&#xd0;" horiz-adv-x="618" 
d="M101 328h-61v35h61v317h212q100 0 153 -38t68 -112q12 -67 12 -190q0 -92 -6 -144t-21 -89q-17 -39 -49 -65q-49 -42 -157 -42h-212v328zM312 35q87 0 132 32.5t57 97.5q10 54 10 175q0 87 -4.5 135t-17.5 80q-14 34 -42 56q-44 35 -135 35h-177v-283h159v-35h-159v-293
h177z" />
    <glyph glyph-name="Ntilde" unicode="&#xd1;" horiz-adv-x="649" 
d="M440 828q-34 -37 -65 -37q-24 0 -58 22q-27 18 -46 18q-24 0 -64 -42v33q29 39 65 39q23 0 58 -20q23 -18 46 -18q15 0 29.5 9.5t34.5 33.5v-38zM513 63v617h35v-680h-37l-375 616v-616h-35v680h35z" />
    <glyph glyph-name="Ograve" unicode="&#xd2;" horiz-adv-x="602" 
d="M243 888l91 -141h-30l-100 141h39zM166.5 27q-52.5 37 -76.5 112q-21 63 -21 201q0 135 22 205.5t76 107.5q52 37 135 37q184 0 218 -167q14 -76 14 -183q0 -133 -22 -204.5t-75 -108.5q-52 -37 -135 -37t-135.5 37zM432 62q43 37 55 92t12 136v50q0 117 -14 177.5
t-53 97.5q-43 40 -130 40q-83 0 -128 -36t-58 -106q-12 -64 -12 -173q0 -119 14 -179.5t53 -96.5q42 -39 131 -39q87 0 130 37z" />
    <glyph glyph-name="Oacute" unicode="&#xd3;" horiz-adv-x="602" 
d="M396 888l-99 -141h-31l90 141h40zM166.5 27q-52.5 37 -76.5 112q-21 63 -21 201q0 135 22 205.5t76 107.5q52 37 135 37q184 0 218 -167q14 -76 14 -183q0 -133 -22 -204.5t-75 -108.5q-52 -37 -135 -37t-135.5 37zM432 62q43 37 55 92t12 136v50q0 117 -14 177.5
t-53 97.5q-43 40 -130 40q-83 0 -128 -36t-58 -106q-12 -64 -12 -173q0 -119 14 -179.5t53 -96.5q42 -39 131 -39q87 0 130 37z" />
    <glyph glyph-name="Ocircumflex" unicode="&#xd4;" horiz-adv-x="602" 
d="M301 860l-83 -106h-30l100 141h25l102 -141h-30zM166.5 27q-52.5 37 -76.5 112q-21 63 -21 201q0 135 22 205.5t76 107.5q52 37 135 37q184 0 218 -167q14 -76 14 -183q0 -133 -22 -204.5t-75 -108.5q-52 -37 -135 -37t-135.5 37zM432 62q43 37 55 92t12 136v50
q0 117 -14 177.5t-53 97.5q-43 40 -130 40q-83 0 -128 -36t-58 -106q-12 -64 -12 -173q0 -119 14 -179.5t53 -96.5q42 -39 131 -39q87 0 130 37z" />
    <glyph glyph-name="Otilde" unicode="&#xd5;" horiz-adv-x="602" 
d="M185 822q28 39 65 39q23 0 58 -20q23 -18 46 -18q15 0 29.5 9.5t34.5 33.5v-38q-34 -37 -65 -37q-24 0 -58 22q-25 18 -46 18q-23 0 -64 -42v33zM166.5 27q-52.5 37 -76.5 112q-21 63 -21 201q0 135 22 205.5t76 107.5q52 37 135 37q184 0 218 -167q14 -76 14 -183
q0 -133 -22 -204.5t-75 -108.5q-52 -37 -135 -37t-135.5 37zM432 62q43 37 55 92t12 136v50q0 117 -14 177.5t-53 97.5q-43 40 -130 40q-83 0 -128 -36t-58 -106q-12 -64 -12 -173q0 -119 14 -179.5t53 -96.5q42 -39 131 -39q87 0 130 37z" />
    <glyph glyph-name="Odieresis" unicode="&#xd6;" horiz-adv-x="602" 
d="M226 857v-65h-48v65h48zM425 857v-65h-48v65h48zM166.5 27q-52.5 37 -76.5 112q-21 63 -21 201q0 135 22 205.5t76 107.5q52 37 135 37q184 0 218 -167q14 -76 14 -183q0 -133 -22 -204.5t-75 -108.5q-52 -37 -135 -37t-135.5 37zM432 62q43 37 55 92t12 136v50
q0 117 -14 177.5t-53 97.5q-43 40 -130 40q-83 0 -128 -36t-58 -106q-12 -64 -12 -173q0 -119 14 -179.5t53 -96.5q42 -39 131 -39q87 0 130 37z" />
    <glyph glyph-name="multiply" unicode="&#xd7;" 
d="M293 276l141 -141l-21 -25l-141 142l-144 -142l-21 25l142 141l-142 141l21 25l143 -142l142 142l21 -25z" />
    <glyph glyph-name="Oslash" unicode="&#xd8;" horiz-adv-x="602" 
d="M128 62q-24 31 -40 77q-21 63 -21 201q0 135 22 205.5t76 107.5q52 37 135 37q94 0 152 -52l41 72h30l-53 -94q24 -28 41 -75q21 -67 21 -201q0 -132 -22.5 -204t-74.5 -109t-135 -37q-95 0 -153 52l-41 -72h-30zM434 605q-53 50 -134 50q-87 0 -130.5 -36.5t-55.5 -91
t-12 -136.5v-51q0 -97 9.5 -151.5t33.5 -92.5zM430 62q43 37 55 92t12 136v50q0 103 -10 159q-10 58 -33 85l-289 -510q46 -49 135 -49q87 0 130 37z" />
    <glyph glyph-name="Ugrave" unicode="&#xd9;" horiz-adv-x="632" 
d="M259 888l91 -141h-30l-100 141h39zM127 231q0 -102 48 -154t141 -52t141 52t48 154v449h34v-446q0 -244 -223 -244q-109 0 -166 62t-57 182v446h34v-449z" />
    <glyph glyph-name="Uacute" unicode="&#xda;" horiz-adv-x="632" 
d="M409 888l-99 -141h-31l90 141h40zM150 52q-57 62 -57 182v446h34v-449q0 -102 48 -154t141 -52t141 52t48 154v449h34v-446q0 -244 -223 -244q-109 0 -166 62z" />
    <glyph glyph-name="Ucircumflex" unicode="&#xdb;" horiz-adv-x="632" 
d="M328 895l102 -141h-30l-84 106l-84 -106h-29l100 141h25zM127 231q0 -102 48 -154t141 -52t141 52t48 154v449h34v-446q0 -244 -223 -244q-109 0 -166 62t-57 182v446h34v-449z" />
    <glyph glyph-name="Udieresis" unicode="&#xdc;" horiz-adv-x="632" 
d="M193 792v65h48v-65h-48zM392 792v65h47v-65h-47zM539 234q0 -244 -223 -244q-109 0 -166 62t-57 182v446h34v-449q0 -102 48 -154t141 -52t141 52t48 154v449h34v-446z" />
    <glyph glyph-name="Yacute" unicode="&#xdd;" horiz-adv-x="507" 
d="M360 888l-99 -141h-31l89 141h41zM275 279v-279h-34v279l-213 401h40l192 -361l187 361h40z" />
    <glyph glyph-name="Thorn" unicode="&#xde;" horiz-adv-x="580" 
d="M101 680h34v-151h193q96 0 149.5 -49t53.5 -136t-53.5 -136.5t-149.5 -49.5h-193v-158h-34v680zM328 192q82 0 125.5 39.5t43.5 112.5t-43.5 111.5t-125.5 38.5h-193v-302h193z" />
    <glyph glyph-name="agrave" unicode="&#xe0;" horiz-adv-x="509" 
d="M220 700l91 -141h-31l-99 141h39zM384 68q-13 -35 -54.5 -56.5t-98.5 -21.5q-76 0 -117.5 36t-41.5 103q0 69 43.5 103t132.5 34h136v64q0 46 -12 72t-40 38t-79 12q-88 0 -132 -44l-21 25q51 52 153 52q90 0 127 -34.5t37 -119.5v-331h-33v68zM342.5 57.5
q41.5 32.5 41.5 83.5v93h-133q-76 0 -111 -25.5t-35 -79.5q0 -50 34 -77t97 -27q65 0 106.5 32.5z" />
    <glyph glyph-name="aacute" unicode="&#xe1;" horiz-adv-x="509" 
d="M363 700l-99 -141h-32l91 141h40zM384 68q-13 -35 -54.5 -56.5t-98.5 -21.5q-76 0 -117.5 36t-41.5 103q0 69 43.5 103t132.5 34h136v64q0 46 -12 72t-40 38t-79 12q-88 0 -132 -44l-21 25q51 52 153 52q90 0 127 -34.5t37 -119.5v-331h-33v68zM342.5 57.5
q41.5 32.5 41.5 83.5v93h-133q-76 0 -111 -25.5t-35 -79.5q0 -50 34 -77t97 -27q65 0 106.5 32.5z" />
    <glyph glyph-name="acircumflex" unicode="&#xe2;" horiz-adv-x="509" 
d="M267 700l101 -141h-29l-85 106l-83 -106h-30l101 141h25zM384 68q-13 -35 -54.5 -56.5t-98.5 -21.5q-76 0 -117.5 36t-41.5 103q0 69 43.5 103t132.5 34h136v64q0 46 -12 72t-40 38t-79 12q-88 0 -132 -44l-21 25q51 52 153 52q90 0 127 -34.5t37 -119.5v-331h-33v68z
M342.5 57.5q41.5 32.5 41.5 83.5v93h-133q-76 0 -111 -25.5t-35 -79.5q0 -50 34 -77t97 -27q65 0 106.5 32.5z" />
    <glyph glyph-name="atilde" unicode="&#xe3;" horiz-adv-x="509" 
d="M249 632q-27 18 -46 18q-23 0 -64 -42v33q29 39 65 39q22 0 57 -20q22 -18 46 -18q15 0 29.5 9.5t34.5 33.5v-39q-33 -36 -65 -36q-26 0 -57 22zM384 68q-13 -35 -54.5 -56.5t-98.5 -21.5q-76 0 -117.5 36t-41.5 103q0 69 43.5 103t132.5 34h136v64q0 46 -12 72t-40 38
t-79 12q-88 0 -132 -44l-21 25q51 52 153 52q90 0 127 -34.5t37 -119.5v-331h-33v68zM342.5 57.5q41.5 32.5 41.5 83.5v93h-133q-76 0 -111 -25.5t-35 -79.5q0 -50 34 -77t97 -27q65 0 106.5 32.5z" />
    <glyph glyph-name="adieresis" unicode="&#xe4;" horiz-adv-x="509" 
d="M131 616v64h47v-64h-47zM329 616v64h48v-64h-48zM380 450.5q37 -34.5 37 -119.5v-331h-33v68q-13 -35 -54.5 -56.5t-98.5 -21.5q-76 0 -117.5 36t-41.5 103q0 69 43.5 103t132.5 34h136v64q0 46 -12 72t-40 38t-79 12q-88 0 -132 -44l-21 25q51 52 153 52q90 0 127 -34.5
zM251 234q-76 0 -111 -25.5t-35 -79.5q0 -50 34 -77t97 -27q65 0 106.5 32.5t41.5 83.5v93h-133z" />
    <glyph glyph-name="aring" unicode="&#xe5;" horiz-adv-x="509" 
d="M328 629q0 -36 -23.5 -59.5t-59.5 -23.5t-60 23.5t-24 59.5t23.5 59.5t60.5 23.5t60 -23q23 -26 23 -60zM245 687q-25 0 -41 -16q-14 -17 -14 -42q0 -24 14 -41q16 -16 41 -16q24 0 39 16t15 41q0 26 -15 42q-13 16 -39 16zM380 450.5q37 -34.5 37 -119.5v-331h-33v68
q-13 -35 -54.5 -56.5t-98.5 -21.5q-76 0 -117.5 36t-41.5 103q0 69 43.5 103t132.5 34h136v64q0 46 -12 72t-40 38t-79 12q-88 0 -132 -44l-21 25q51 52 153 52q90 0 127 -34.5zM251 234q-76 0 -111 -25.5t-35 -79.5q0 -50 34 -77t97 -27q65 0 106.5 32.5t41.5 83.5v93h-133
z" />
    <glyph glyph-name="ae" unicode="&#xe6;" horiz-adv-x="814" 
d="M470 15.5q-42 25.5 -64 75.5q-36 -101 -175 -101q-76 0 -117.5 36t-41.5 103q0 69 43.5 103t132.5 34h136v64q0 46 -12 72t-40 38t-79 12q-82 0 -132 -44l-21 25q52 52 153 52q138 0 157 -94q21 47 61 70.5t95 23.5q63 0 108 -31.5t63 -89.5q7 -21 10.5 -56.5t2.5 -73.5
h-333q0 -73 11 -113.5t42 -66.5q34 -30 103 -30q93 0 147 75l24 -21q-58 -88 -172 -88q-60 0 -102 25.5zM717 266q1 21 -2 45.5t-8 39.5q-32 101 -141 101q-107 0 -139 -101q-10 -26 -10 -85h300zM342.5 57.5q41.5 32.5 41.5 83.5v94l-133 -1q-76 0 -111.5 -25.5
t-35.5 -79.5q0 -50 34.5 -77t97.5 -27q65 0 106.5 32.5z" />
    <glyph glyph-name="ccedilla" unicode="&#xe7;" horiz-adv-x="468" 
d="M413 381l-30 -13q-19 40 -54 61.5t-79 21.5q-107 0 -138 -100q-14 -42 -14 -114q0 -61 10 -106t43 -76t99 -31q39 0 75 23t58 61l30 -13q-27 -49 -70 -77t-93 -28q-64 0 -108 31.5t-62 89.5q-15 51 -15 126q0 83 18 135.5t59 81.5q43 31 108 31q112 0 163 -104zM267 -21
q0 -54 -30 -89.5t-75 -34.5v31q35 0 54 25t19 68h32z" />
    <glyph glyph-name="egrave" unicode="&#xe8;" horiz-adv-x="495" 
d="M189 700l90 -141h-31l-98 141h39zM141 20q-43 30 -63 93q-13 42 -13 125q0 87 17 137t58 79q43 31 108 31q62 0 107 -31.5t63 -89.5q13 -38 13 -130h-333q0 -67 11 -109q34 -103 145 -103q92 0 148 77l23 -21q-27 -43 -71.5 -65.5t-99.5 -22.5q-70 0 -113 30zM398 266
q0 59 -10 85q-32 101 -141 101q-107 0 -139 -101q-10 -30 -10 -85h300z" />
    <glyph glyph-name="eacute" unicode="&#xe9;" horiz-adv-x="495" 
d="M349 700l-99 -141h-31l89 141h41zM141 20q-43 30 -63 93q-13 42 -13 125q0 87 17 137t58 79q43 31 108 31q62 0 107 -31.5t63 -89.5q13 -38 13 -130h-333q0 -67 11 -109q34 -103 145 -103q92 0 148 77l23 -21q-27 -43 -71.5 -65.5t-99.5 -22.5q-70 0 -113 30zM398 266
q0 59 -10 85q-32 101 -141 101q-107 0 -139 -101q-10 -30 -10 -85h300z" />
    <glyph glyph-name="ecircumflex" unicode="&#xea;" horiz-adv-x="495" 
d="M259 700l101 -141h-29l-85 106l-83 -106h-29l100 141h25zM141 20q-43 30 -63 93q-13 42 -13 125q0 87 17 137t58 79q43 31 108 31q62 0 107 -31.5t63 -89.5q13 -38 13 -130h-333q0 -67 11 -109q34 -103 145 -103q92 0 148 77l23 -21q-27 -43 -71.5 -65.5t-99.5 -22.5
q-70 0 -113 30zM398 266q0 59 -10 85q-32 101 -141 101q-107 0 -139 -101q-10 -30 -10 -85h300z" />
    <glyph glyph-name="edieresis" unicode="&#xeb;" horiz-adv-x="495" 
d="M124 616v64h48v-64h-48zM323 616v64h47v-64h-47zM355 453.5q45 -31.5 63 -89.5q13 -38 13 -130h-333q0 -67 11 -109q34 -103 145 -103q92 0 148 77l23 -21q-27 -43 -71.5 -65.5t-99.5 -22.5q-70 0 -113 30t-63 93q-13 42 -13 125q0 87 17 137t58 79q43 31 108 31
q62 0 107 -31.5zM108 351q-10 -30 -10 -85h300q0 59 -10 85q-32 101 -141 101q-107 0 -139 -101z" />
    <glyph glyph-name="igrave" unicode="&#xec;" horiz-adv-x="231" 
d="M41 700l91 -141h-31l-99 141h39zM131 475v-475h-32v475h32z" />
    <glyph glyph-name="iacute" unicode="&#xed;" horiz-adv-x="231" 
d="M230 700l-98 -141h-32l90 141h40zM131 475v-475h-32v475h32z" />
    <glyph glyph-name="icircumflex" unicode="&#xee;" horiz-adv-x="231" 
d="M129 700l101 -141h-29l-85 106l-83 -106h-29l100 141h25zM131 475v-475h-32v475h32z" />
    <glyph glyph-name="idieresis" unicode="&#xef;" horiz-adv-x="231" 
d="M-7 616v64h47v-64h-47zM191 616v64h48v-64h-48zM99 0v475h32v-475h-32z" />
    <glyph glyph-name="eth" unicode="&#xf0;" horiz-adv-x="504" 
d="M253 609l105 31l9 -30l-91 -28l45 -53q65 -78 91.5 -141t26.5 -142q0 -91 -18 -143t-60 -81q-47 -32 -109 -32q-63 0 -107 31.5t-64 89.5q-17 54 -17 125q0 80 19 132t61 82q43 31 106 31q23 0 48.5 -8t45.5 -23l-100 122l-110 -33l-9 32l94 27l-66 82h41zM155 419
q-36 -28 -46 -77q-10 -41 -10 -106q0 -69 10.5 -110.5t42.5 -69.5q33 -30 100 -30q50 0 86.5 25.5t52.5 71.5q14 44 14 113q0 72 -15.5 114t-51.5 70q-37 27 -86 27q-61 0 -97 -28z" />
    <glyph glyph-name="ntilde" unicode="&#xf1;" horiz-adv-x="538" 
d="M262 632q-27 18 -46 18q-23 0 -64 -42v33q29 39 65 39q23 0 58 -20q23 -18 46 -18q15 0 29.5 9.5t34.5 33.5v-39q-34 -36 -65 -36q-24 0 -58 22zM413 294q0 157 -137 157q-64 0 -104.5 -39.5t-40.5 -104.5v-307h-32v475h32v-77q39 87 148 87q82 0 124.5 -46.5
t42.5 -136.5v-302h-33v294z" />
    <glyph glyph-name="ograve" unicode="&#xf2;" horiz-adv-x="504" 
d="M190 700l91 -141h-31l-99 141h39zM144 22q-45 32 -63 89q-16 45 -16 127t18.5 133.5t60.5 81.5q47 32 107 32q64 0 109 -31.5t63 -89.5q16 -45 16 -126q0 -84 -18.5 -135t-60.5 -81q-47 -32 -109 -32t-107 32zM349 52q37 28 47 78q10 41 10 108q0 72 -11.5 113.5
t-42.5 69.5q-34 30 -101 30q-61 0 -97 -28t-46 -78q-10 -41 -10 -107q0 -72 11.5 -114t42.5 -69q34 -31 99 -31q61 0 98 28z" />
    <glyph glyph-name="oacute" unicode="&#xf3;" horiz-adv-x="504" 
d="M351 700l-99 -141h-31l89 141h41zM144 22q-45 32 -63 89q-16 45 -16 127t18.5 133.5t60.5 81.5q47 32 107 32q64 0 109 -31.5t63 -89.5q16 -45 16 -126q0 -84 -18.5 -135t-60.5 -81q-47 -32 -109 -32t-107 32zM349 52q37 28 47 78q10 41 10 108q0 72 -11.5 113.5
t-42.5 69.5q-34 30 -101 30q-61 0 -97 -28t-46 -78q-10 -41 -10 -107q0 -72 11.5 -114t42.5 -69q34 -31 99 -31q61 0 98 28z" />
    <glyph glyph-name="ocircumflex" unicode="&#xf4;" horiz-adv-x="504" 
d="M263 700l101 -141h-29l-85 106l-83 -106h-30l101 141h25zM144 22q-45 32 -63 89q-16 45 -16 127t18.5 133.5t60.5 81.5q47 32 107 32q64 0 109 -31.5t63 -89.5q16 -45 16 -126q0 -84 -18.5 -135t-60.5 -81q-47 -32 -109 -32t-107 32zM349 52q37 28 47 78q10 41 10 108
q0 72 -11.5 113.5t-42.5 69.5q-34 30 -101 30q-61 0 -97 -28t-46 -78q-10 -41 -10 -107q0 -72 11.5 -114t42.5 -69q34 -31 99 -31q61 0 98 28z" />
    <glyph glyph-name="otilde" unicode="&#xf5;" horiz-adv-x="504" 
d="M245 632q-27 18 -47 18q-11 0 -28.5 -11.5t-34.5 -30.5v33q28 39 65 39q22 0 57 -20q23 -18 46 -18q15 0 29.5 9.5t34.5 33.5v-39q-33 -36 -65 -36q-26 0 -57 22zM144 22q-45 32 -63 89q-16 45 -16 127t18.5 133.5t60.5 81.5q47 32 107 32q64 0 109 -31.5t63 -89.5
q16 -45 16 -126q0 -84 -18.5 -135t-60.5 -81q-47 -32 -109 -32t-107 32zM349 52q37 28 47 78q10 41 10 108q0 72 -11.5 113.5t-42.5 69.5q-34 30 -101 30q-61 0 -97 -28t-46 -78q-10 -41 -10 -107q0 -72 11.5 -114t42.5 -69q34 -31 99 -31q61 0 98 28z" />
    <glyph glyph-name="odieresis" unicode="&#xf6;" horiz-adv-x="504" 
d="M128 616v64h47v-64h-47zM326 616v64h48v-64h-48zM360 453.5q45 -31.5 63 -89.5q16 -45 16 -126q0 -84 -18.5 -135t-60.5 -81q-47 -32 -109 -32t-107 32t-63 89q-16 45 -16 127t18.5 133.5t60.5 81.5q47 32 107 32q64 0 109 -31.5zM154 423q-36 -28 -46 -78
q-10 -41 -10 -107q0 -72 11.5 -114t42.5 -69q34 -31 99 -31q61 0 98 28t47 78q10 41 10 108q0 72 -11.5 113.5t-42.5 69.5q-34 30 -101 30q-61 0 -97 -28z" />
    <glyph glyph-name="divide" unicode="&#xf7;" 
d="M297 412q0 -14 -10 -24t-24 -10q-15 0 -24.5 9.5t-9.5 24.5q0 14 10 24t24 10t24 -10t10 -24zM70 260v32h386v-32h-386zM297 140q0 -14 -10 -24t-24 -10t-25 9q-9 11 -9 25t9 24q11 9 25 9t24 -9q10 -10 10 -24z" />
    <glyph glyph-name="oslash" unicode="&#xf8;" horiz-adv-x="504" 
d="M116 51q-20 27 -31 60q-16 45 -16 127t18.5 133.5t60.5 81.5q47 32 107 32q73 0 121 -42l42 62h30l-54 -82q20 -23 33 -59q16 -45 16 -126q0 -84 -18.5 -135t-60.5 -81q-47 -32 -109 -32q-73 0 -119 42l-42 -62h-30zM358 413q-37 37 -103 37q-61 0 -96.5 -27.5
t-45.5 -77.5q-10 -41 -10 -107q0 -57 7 -91t26 -66zM352.5 52.5q36.5 27.5 46.5 77.5q10 41 10 108q0 84 -17 130q-11 20 -16 26l-222 -332q40 -37 101 -37t97.5 27.5z" />
    <glyph glyph-name="ugrave" unicode="&#xf9;" horiz-adv-x="532" 
d="M212 700l91 -141h-31l-99 141h39zM400 76q-38 -86 -145 -86q-80 0 -122.5 46.5t-42.5 135.5v303h33v-293q0 -80 33.5 -119t101.5 -39q61 0 101.5 40.5t40.5 103.5v307h33v-475h-33v76z" />
    <glyph glyph-name="uacute" unicode="&#xfa;" horiz-adv-x="532" 
d="M363 700l-99 -141h-31l89 141h41zM400 76q-38 -86 -145 -86q-80 0 -122.5 46.5t-42.5 135.5v303h33v-293q0 -80 33.5 -119t101.5 -39q61 0 101.5 40.5t40.5 103.5v307h33v-475h-33v76z" />
    <glyph glyph-name="ucircumflex" unicode="&#xfb;" horiz-adv-x="532" 
d="M277 700l101 -141h-29l-85 106l-83 -106h-30l101 141h25zM400 76q-38 -86 -145 -86q-80 0 -122.5 46.5t-42.5 135.5v303h33v-293q0 -80 33.5 -119t101.5 -39q61 0 101.5 40.5t40.5 103.5v307h33v-475h-33v76z" />
    <glyph glyph-name="udieresis" unicode="&#xfc;" horiz-adv-x="532" 
d="M142 616v64h47v-64h-47zM340 616v64h48v-64h-48zM433 0h-33v76q-38 -86 -145 -86q-80 0 -122.5 46.5t-42.5 135.5v303h33v-293q0 -80 33.5 -119t101.5 -39q61 0 101.5 40.5t40.5 103.5v307h33v-475z" />
    <glyph glyph-name="yacute" unicode="&#xfd;" horiz-adv-x="460" 
d="M334 700l-99 -141h-31l89 141h41zM72 -180v34h28q24 0 39.5 8.5t28.5 29.5q13 22 29 63l21 52l-180 468h34l164 -419l159 419h35l-203 -527q-21 -53 -38 -79.5t-38 -37.5q-24 -11 -52 -11h-27z" />
    <glyph glyph-name="thorn" unicode="&#xfe;" 
d="M99 680h32v-283q40 88 153 88q122 0 160 -113q17 -63 17 -135q0 -125 -40 -186t-137 -61q-113 0 -153 88v-258h-32v860zM374 51q35 27 45 76q9 44 9 110q0 75 -11 117.5t-40 68.5q-31 28 -97 28q-105 0 -134 -92q-15 -40 -15 -122q0 -81 15 -120q29 -93 134 -93
q59 0 94 27z" />
    <glyph glyph-name="ydieresis" unicode="&#xff;" horiz-adv-x="460" 
d="M110 616v64h48v-64h-48zM309 616v64h48v-64h-48zM227 -52q-21 -53 -38 -79.5t-38 -37.5q-24 -11 -52 -11h-27v34h28q24 0 39.5 8.5t28.5 29.5q13 22 29 63l21 52l-180 468h34l164 -419l159 419h35z" />
    <glyph glyph-name="Amacron" unicode="&#x100;" horiz-adv-x="588" 
d="M423 840v-33h-251v33h251zM142 190l-70 -190h-37l248 680h30l247 -680h-37l-70 190h-311zM440 226l-141 395l-145 -395h286z" />
    <glyph glyph-name="amacron" unicode="&#x101;" horiz-adv-x="509" 
d="M129 630v33h251v-33h-251zM380 450.5q37 -34.5 37 -119.5v-331h-33v68q-13 -35 -54.5 -56.5t-98.5 -21.5q-76 0 -117.5 36t-41.5 103q0 69 43.5 103t132.5 34h136v64q0 46 -12 72t-40 38t-79 12q-88 0 -132 -44l-21 25q51 52 153 52q90 0 127 -34.5zM251 234
q-76 0 -111 -25.5t-35 -79.5q0 -50 34 -77t97 -27q65 0 106.5 32.5t41.5 83.5v93h-133z" />
    <glyph glyph-name="Abreve" unicode="&#x102;" horiz-adv-x="588" 
d="M215.5 802q-32.5 29 -36.5 77h27q15 -74 90 -74q73 0 93 74h27q-6 -48 -39 -77t-81 -29t-80.5 29zM142 190l-70 -190h-37l248 680h30l247 -680h-37l-70 190h-311zM440 226l-141 395l-145 -395h286z" />
    <glyph glyph-name="abreve" unicode="&#x103;" horiz-adv-x="509" 
d="M374 682q-6 -48 -39 -77t-81 -29t-80.5 29t-36.5 77h28q9 -39 31 -56.5t58 -17.5q74 0 94 74h26zM380 450.5q37 -34.5 37 -119.5v-331h-33v68q-13 -35 -54.5 -56.5t-98.5 -21.5q-76 0 -117.5 36t-41.5 103q0 69 43.5 103t132.5 34h136v64q0 46 -12 72t-40 38t-79 12
q-88 0 -132 -44l-21 25q51 52 153 52q90 0 127 -34.5zM251 234q-76 0 -111 -25.5t-35 -79.5q0 -50 34 -77t97 -27q65 0 106.5 32.5t41.5 83.5v93h-133z" />
    <glyph glyph-name="Aogonek" unicode="&#x104;" horiz-adv-x="588" 
d="M506 -108q17 -12 49 -12v-31q-57 0 -79.5 17t-22.5 61q0 30 19 50t50 23l-69 190h-311l-69 -190h-38l247 680h31l246 -680l-26 -13q-44 -20 -44 -61q0 -22 17 -34zM440 226l-142 395l-144 -395h286z" />
    <glyph glyph-name="aogonek" unicode="&#x105;" horiz-adv-x="509" 
d="M417 0q-40 -19 -54.5 -33.5t-14.5 -40.5q0 -21 17 -33.5t49 -12.5v-31q-57 0 -80 17t-23 61q0 30 20.5 50t52.5 23v68q-13 -35 -54.5 -56.5t-98.5 -21.5q-76 0 -117.5 36t-41.5 103q0 69 43.5 103t132.5 34h136v64q0 46 -12 72t-40 38t-79 12q-88 0 -132 -44l-21 25
q51 52 153 52q90 0 127 -34.5t37 -119.5v-331zM384 234h-133q-76 0 -111 -25.5t-35 -79.5q0 -50 34 -77t97 -27q65 0 106.5 32.5t41.5 83.5v93z" />
    <glyph glyph-name="Cacute" unicode="&#x106;" horiz-adv-x="549" 
d="M384 888l-99 -141h-31l90 141h40zM145 32.5q-49 42.5 -62.5 105t-13.5 153.5v49q0 130 16 197.5t61 108.5q50 44 148 44q92 0 149 -52t69 -153h-36q-12 82 -60.5 126t-121.5 44q-79 0 -121.5 -34t-55.5 -104q-13 -59 -13 -177q0 -123 14 -184.5t52 -94.5q41 -36 124 -36
q42 0 81 18.5t68 53.5q29 36 36 91h34q-14 -96 -71.5 -147t-147.5 -51q-100 0 -149 42.5z" />
    <glyph glyph-name="cacute" unicode="&#x107;" horiz-adv-x="468" 
d="M349 700l-99 -141h-31l90 141h40zM83 372.5q18 52.5 59 81.5q43 31 108 31q112 0 163 -104l-30 -13q-19 40 -54 61.5t-79 21.5q-107 0 -138 -100q-14 -42 -14 -114q0 -61 10 -106t43 -76t99 -31q39 0 75 23t58 61l30 -13q-27 -49 -70 -77t-93 -28q-64 0 -108 31.5
t-62 89.5q-15 51 -15 126q0 83 18 135.5z" />
    <glyph glyph-name="Ccircumflex" unicode="&#x108;" horiz-adv-x="549" 
d="M290 860l-83 -106h-30l101 141h25l101 -141h-29zM145 32.5q-49 42.5 -62.5 105t-13.5 153.5v49q0 130 16 197.5t61 108.5q50 44 148 44q92 0 149 -52t69 -153h-36q-12 82 -60.5 126t-121.5 44q-79 0 -121.5 -34t-55.5 -104q-13 -59 -13 -177q0 -123 14 -184.5t52 -94.5
q41 -36 124 -36q42 0 81 18.5t68 53.5q29 36 36 91h34q-14 -96 -71.5 -147t-147.5 -51q-100 0 -149 42.5z" />
    <glyph glyph-name="ccircumflex" unicode="&#x109;" horiz-adv-x="468" 
d="M264 700l101 -141h-29l-85 106l-83 -106h-30l101 141h25zM83 372.5q18 52.5 59 81.5q43 31 108 31q112 0 163 -104l-30 -13q-19 40 -54 61.5t-79 21.5q-107 0 -138 -100q-14 -42 -14 -114q0 -61 10 -106t43 -76t99 -31q39 0 75 23t58 61l30 -13q-27 -49 -70 -77t-93 -28
q-64 0 -108 31.5t-62 89.5q-15 51 -15 126q0 83 18 135.5z" />
    <glyph glyph-name="Cdotaccent" unicode="&#x10a;" horiz-adv-x="549" 
d="M314 857v-65h-47v65h47zM145 32.5q-49 42.5 -62.5 105t-13.5 153.5v49q0 130 16 197.5t61 108.5q50 44 148 44q92 0 149 -52t69 -153h-36q-12 82 -60.5 126t-121.5 44q-79 0 -121.5 -34t-55.5 -104q-13 -59 -13 -177q0 -123 14 -184.5t52 -94.5q41 -36 124 -36
q42 0 81 18.5t68 53.5q29 36 36 91h34q-14 -96 -71.5 -147t-147.5 -51q-100 0 -149 42.5z" />
    <glyph glyph-name="cdotaccent" unicode="&#x10b;" horiz-adv-x="468" 
d="M274 680v-65h-48v65h48zM83 372.5q18 52.5 59 81.5q43 31 108 31q112 0 163 -104l-30 -13q-19 40 -54 61.5t-79 21.5q-107 0 -138 -100q-14 -42 -14 -114q0 -61 10 -106t43 -76t99 -31q39 0 75 23t58 61l30 -13q-27 -49 -70 -77t-93 -28q-64 0 -108 31.5t-62 89.5
q-15 51 -15 126q0 83 18 135.5z" />
    <glyph glyph-name="Ccaron" unicode="&#x10c;" horiz-adv-x="549" 
d="M404 896l-101 -141h-25l-101 141h30l83 -106l85 106h29zM145 32.5q-49 42.5 -62.5 105t-13.5 153.5v49q0 130 16 197.5t61 108.5q50 44 148 44q92 0 149 -52t69 -153h-36q-12 82 -60.5 126t-121.5 44q-79 0 -121.5 -34t-55.5 -104q-13 -59 -13 -177q0 -123 14 -184.5
t52 -94.5q41 -36 124 -36q42 0 81 18.5t68 53.5q29 36 36 91h34q-14 -96 -71.5 -147t-147.5 -51q-100 0 -149 42.5z" />
    <glyph glyph-name="ccaron" unicode="&#x10d;" horiz-adv-x="468" 
d="M250 594l85 105h29l-101 -140h-25l-101 140h30zM83 372.5q18 52.5 59 81.5q43 31 108 31q112 0 163 -104l-30 -13q-19 40 -54 61.5t-79 21.5q-107 0 -138 -100q-14 -42 -14 -114q0 -61 10 -106t43 -76t99 -31q39 0 75 23t58 61l30 -13q-27 -49 -70 -77t-93 -28
q-64 0 -108 31.5t-62 89.5q-15 51 -15 126q0 83 18 135.5z" />
    <glyph glyph-name="Dcaron" unicode="&#x10e;" horiz-adv-x="618" 
d="M412 896l-102 -141h-25l-100 141h29l83 -106l85 106h30zM101 680h212q100 0 153 -38t68 -112q12 -67 12 -190q0 -92 -6 -144t-21 -89q-17 -39 -49 -65q-49 -42 -157 -42h-212v680zM312 35q87 0 132 32.5t57 97.5q10 54 10 175q0 87 -4.5 135t-17.5 80q-14 34 -42 56
q-44 35 -135 35h-177v-611h177z" />
    <glyph glyph-name="dcaron" unicode="&#x10f;" 
d="M394 79q-41 -89 -152 -89q-70 0 -111.5 33t-53.5 92q-12 53 -12 122q0 81 13.5 130t48.5 82q37 36 115 36q56 0 93.5 -21.5t58.5 -66.5v283h33v-680h-33v79zM531 680v-61l-40 -102v163h40zM343.5 53q32.5 29 41.5 73t9 111q0 75 -10 117t-40 69q-32 28 -98 28
q-59 0 -93.5 -26.5t-44.5 -75.5q-10 -41 -10 -112q0 -75 11 -116.5t41 -67.5q32 -29 96 -29q65 0 97.5 29z" />
    <glyph glyph-name="Dcroat" unicode="&#x110;" horiz-adv-x="618" 
d="M101 328h-61v35h61v317h212q100 0 153 -38t68 -112q12 -67 12 -190q0 -92 -6 -144t-21 -89q-17 -39 -49 -65q-49 -42 -157 -42h-212v328zM312 35q87 0 132 32.5t57 97.5q10 54 10 175q0 87 -4.5 135t-17.5 80q-14 34 -42 56q-44 35 -135 35h-177v-283h159v-35h-159v-293
h177z" />
    <glyph glyph-name="dslash" unicode="&#x111;" 
d="M394 78q-40 -88 -152 -88q-70 0 -111.5 33t-53.5 92q-12 53 -12 122q0 81 13.5 130t48.5 82q37 36 115 36q56 0 93.5 -21.5t58.5 -66.5v172h-154v31h154v80h33v-80h48v-31h-48v-569h-33v78zM343.5 53q32.5 29 41.5 73t9 111q0 75 -10 117t-40 69q-32 28 -98 28
q-59 0 -93.5 -26.5t-44.5 -75.5q-10 -41 -10 -112q0 -75 11 -116.5t41 -67.5q32 -29 96 -29q65 0 97.5 29z" />
    <glyph glyph-name="Emacron" unicode="&#x112;" horiz-adv-x="551" 
d="M414 840v-33h-252v33h252zM496 35v-35h-395v680h395v-34h-361v-283h315v-34h-315v-294h361z" />
    <glyph glyph-name="emacron" unicode="&#x113;" horiz-adv-x="495" 
d="M372 663v-33h-251v33h251zM141 20q-43 30 -63 93q-13 42 -13 125q0 87 17 137t58 79q43 31 108 31q62 0 107 -31.5t63 -89.5q13 -38 13 -130h-333q0 -67 11 -109q34 -103 145 -103q92 0 148 77l23 -21q-27 -43 -71.5 -65.5t-99.5 -22.5q-70 0 -113 30zM398 266
q0 59 -10 85q-32 101 -141 101q-107 0 -139 -101q-10 -30 -10 -85h300z" />
    <glyph glyph-name="Ebreve" unicode="&#x114;" horiz-adv-x="551" 
d="M214.5 802q-32.5 29 -36.5 77h28q8 -38 30 -56t59 -18q73 0 93 74h27q-6 -48 -39 -77t-81 -29t-80.5 29zM496 35v-35h-395v680h395v-34h-361v-283h315v-34h-315v-294h361z" />
    <glyph glyph-name="ebreve" unicode="&#x115;" horiz-adv-x="495" 
d="M158 682q9 -39 31 -56.5t58 -17.5q74 0 94 74h26q-6 -48 -39 -77t-81 -29t-80.5 29t-36.5 77h28zM141 20q-43 30 -63 93q-13 42 -13 125q0 87 17 137t58 79q43 31 108 31q62 0 107 -31.5t63 -89.5q13 -38 13 -130h-333q0 -67 11 -109q34 -103 145 -103q92 0 148 77
l23 -21q-27 -43 -71.5 -65.5t-99.5 -22.5q-70 0 -113 30zM398 266q0 59 -10 85q-32 101 -141 101q-107 0 -139 -101q-10 -30 -10 -85h300z" />
    <glyph glyph-name="Edotaccent" unicode="&#x116;" horiz-adv-x="551" 
d="M322 857v-65h-47v65h47zM496 35v-35h-395v680h395v-34h-361v-283h315v-34h-315v-294h361z" />
    <glyph glyph-name="edotaccent" unicode="&#x117;" horiz-adv-x="495" 
d="M270 680v-65h-47v65h47zM141 20q-43 30 -63 93q-13 42 -13 125q0 87 17 137t58 79q43 31 108 31q62 0 107 -31.5t63 -89.5q13 -38 13 -130h-333q0 -67 11 -109q34 -103 145 -103q92 0 148 77l23 -21q-27 -43 -71.5 -65.5t-99.5 -22.5q-70 0 -113 30zM398 266q0 59 -10 85
q-32 101 -141 101q-107 0 -139 -101q-10 -30 -10 -85h300z" />
    <glyph glyph-name="Eogonek" unicode="&#x118;" horiz-adv-x="551" 
d="M135 646v-283h315v-34h-315v-294h361v-35h-16q-41 -18 -55.5 -33t-14.5 -41q0 -22 17 -34t49 -12v-31q-57 0 -80 16t-23 60q0 30 20 51t50 24h-342v680h395v-34h-361z" />
    <glyph glyph-name="eogonek" unicode="&#x119;" horiz-adv-x="495" 
d="M402 99l23 -21q-20 -32 -49 -52l2 1q-13 -12 -31 -23q-37 -27 -48.5 -42t-11.5 -36q0 -22 17 -34t49 -12v-31q-57 0 -79.5 17t-22.5 61q0 24 13.5 41.5t37.5 26.5q-37 -5 -48 -5q-70 0 -113 30t-63 93q-13 42 -13 125q0 87 17 137t58 79q43 31 108 31q62 0 107 -31.5
t63 -89.5q13 -38 13 -130h-333q0 -67 11 -109q34 -103 145 -103q92 0 148 77zM98 266h300q0 59 -10 85q-32 101 -141 101q-107 0 -139 -101q-10 -30 -10 -85zM328 2l-8 -2h4z" />
    <glyph glyph-name="Ecaron" unicode="&#x11a;" horiz-adv-x="551" 
d="M411 896l-101 -141h-25l-101 141h30l83 -106l85 106h29zM496 35v-35h-395v680h395v-34h-361v-283h315v-34h-315v-294h361z" />
    <glyph glyph-name="ecaron" unicode="&#x11b;" horiz-adv-x="495" 
d="M246 594l85 105h29l-101 -140h-25l-101 140h30zM141 20q-43 30 -63 93q-13 42 -13 125q0 87 17 137t58 79q43 31 108 31q62 0 107 -31.5t63 -89.5q13 -38 13 -130h-333q0 -67 11 -109q34 -103 145 -103q92 0 148 77l23 -21q-27 -43 -71.5 -65.5t-99.5 -22.5
q-70 0 -113 30zM398 266q0 59 -10 85q-32 101 -141 101q-107 0 -139 -101q-10 -30 -10 -85h300z" />
    <glyph glyph-name="Gcircumflex" unicode="&#x11c;" horiz-adv-x="602" 
d="M301 860l-83 -106h-30l100 141h25l102 -141h-30zM165 27q-53 37 -77 112q-19 54 -19 201q0 98 9 157t30 95q57 98 194 98q97 0 153.5 -50.5t71.5 -154.5h-34q-26 170 -192 170q-139 0 -180 -125q-19 -48 -19 -190t19 -190q41 -125 180 -125q70 0 114.5 30.5t65.5 92.5
q18 48 18 151h-186v37h221v-45q0 -98 -23.5 -162.5t-73.5 -100.5q-56 -38 -135 -38q-84 0 -137 37z" />
    <glyph glyph-name="gcircumflex" unicode="&#x11d;" horiz-adv-x="517" 
d="M136 559l101 141h25l101 -141h-29l-85 106l-83 -106h-30zM385 397v78h33v-474q0 -93 -46.5 -142t-132.5 -49q-44 0 -90 23t-67 54l27 19q25 -28 60 -45t70 -17q146 0 146 157v80q-38 -89 -148 -89q-61 0 -99.5 28t-57.5 85q-16 44 -16 133q0 82 13 130.5t48 81.5
q38 35 112 35q111 0 148 -88zM151.5 424q-33.5 -27 -43.5 -76q-10 -41 -10 -110q0 -79 15 -120q30 -93 129 -93q63 0 94.5 26.5t40 64.5t8.5 93q0 96 -9 141t-40 73t-94 28q-57 0 -90.5 -27z" />
    <glyph glyph-name="Gbreve" unicode="&#x11e;" horiz-adv-x="602" 
d="M220.5 802q-32.5 29 -36.5 77h28q8 -38 30 -56t59 -18q73 0 93 74h27q-6 -48 -39 -77t-81 -29t-80.5 29zM165 27q-53 37 -77 112q-19 54 -19 201q0 98 9 157t30 95q57 98 194 98q97 0 153.5 -50.5t71.5 -154.5h-34q-26 170 -192 170q-139 0 -180 -125q-19 -48 -19 -190
t19 -190q41 -125 180 -125q70 0 114.5 30.5t65.5 92.5q18 48 18 151h-186v37h221v-45q0 -98 -23.5 -162.5t-73.5 -100.5q-56 -38 -135 -38q-84 0 -137 37z" />
    <glyph glyph-name="gbreve" unicode="&#x11f;" horiz-adv-x="517" 
d="M371 682q-5 -48 -38 -77t-81 -29t-80.5 28.5t-37.5 77.5h29q8 -38 30 -56t59 -18q36 0 59.5 19t33.5 55h26zM385 397v78h33v-474q0 -93 -46.5 -142t-132.5 -49q-44 0 -90 23t-67 54l27 19q25 -28 60 -45t70 -17q146 0 146 157v80q-38 -89 -148 -89q-61 0 -99.5 28
t-57.5 85q-16 44 -16 133q0 82 13 130.5t48 81.5q38 35 112 35q111 0 148 -88zM151.5 424q-33.5 -27 -43.5 -76q-10 -41 -10 -110q0 -79 15 -120q30 -93 129 -93q63 0 94.5 26.5t40 64.5t8.5 93q0 96 -9 141t-40 73t-94 28q-57 0 -90.5 -27z" />
    <glyph glyph-name="Gdotaccent" unicode="&#x120;" horiz-adv-x="602" 
d="M325 857v-65h-48v65h48zM165 27q-53 37 -77 112q-19 54 -19 201q0 98 9 157t30 95q57 98 194 98q97 0 153.5 -50.5t71.5 -154.5h-34q-26 170 -192 170q-139 0 -180 -125q-19 -48 -19 -190t19 -190q41 -125 180 -125q70 0 114.5 30.5t65.5 92.5q18 48 18 151h-186v37h221
v-45q0 -98 -23.5 -162.5t-73.5 -100.5q-56 -38 -135 -38q-84 0 -137 37z" />
    <glyph glyph-name="gdotaccent" unicode="&#x121;" horiz-adv-x="517" 
d="M276 680v-64h-48v64h48zM149 -167q-46 23 -67 54l27 19q25 -28 60 -45t70 -17q146 0 146 157v80q-38 -89 -148 -89q-61 0 -99.5 28t-57.5 85q-16 44 -16 133q0 82 13 130.5t48 81.5q38 35 112 35q111 0 148 -88v78h33v-474q0 -93 -46.5 -142t-132.5 -49q-44 0 -90 23z
M336.5 51.5q31.5 26.5 40 64.5t8.5 93q0 96 -9 141t-40 73t-94 28q-57 0 -90.5 -27t-43.5 -76q-10 -41 -10 -110q0 -79 15 -120q30 -93 129 -93q63 0 94.5 26.5z" />
    <glyph glyph-name="Gcommaaccent" unicode="&#x122;" horiz-adv-x="602" 
d="M455.5 639.5q56.5 -50.5 71.5 -154.5h-34q-26 170 -192 170q-139 0 -180 -125q-19 -48 -19 -190t19 -190q41 -125 180 -125q70 0 114.5 30.5t65.5 92.5q18 48 18 151h-186v37h221v-45q0 -98 -23.5 -162.5t-73.5 -100.5q-56 -38 -135 -38q-84 0 -137 37t-77 112
q-19 54 -19 201q0 98 9 157t30 95q57 98 194 98q97 0 153.5 -50.5zM282 -222v165h39v-62z" />
    <glyph glyph-name="gcommaaccent" unicode="&#x123;" horiz-adv-x="517" 
d="M270 735v-163h-40v60zM149 -167q-46 23 -67 54l27 19q25 -28 60 -45t70 -17q146 0 146 157v80q-38 -89 -148 -89q-61 0 -99.5 28t-57.5 85q-16 44 -16 133q0 82 13 130.5t48 81.5q38 35 112 35q111 0 148 -88v78h33v-474q0 -93 -46.5 -142t-132.5 -49q-44 0 -90 23z
M336.5 51.5q31.5 26.5 40 64.5t8.5 93q0 96 -9 141t-40 73t-94 28q-57 0 -90.5 -27t-43.5 -76q-10 -41 -10 -110q0 -79 15 -120q30 -93 129 -93q63 0 94.5 26.5z" />
    <glyph glyph-name="Hcircumflex" unicode="&#x124;" horiz-adv-x="647" 
d="M323 860l-83 -106h-30l100 141h25l102 -141h-30zM135 329v-329h-34v680h34v-317h377v317h34v-680h-34v329h-377z" />
    <glyph glyph-name="hcircumflex" unicode="&#x125;" horiz-adv-x="538" 
d="M286 895l102 -141h-30l-84 106l-83 -106h-30l100 141h25zM413 294q0 157 -137 157q-64 0 -104.5 -39.5t-40.5 -104.5v-307h-32v680h32v-282q39 87 148 87q82 0 124.5 -46.5t42.5 -136.5v-302h-33v294z" />
    <glyph glyph-name="Hbar" unicode="&#x126;" horiz-adv-x="647" 
d="M135 329v-329h-34v501h-58v34h58v145h34v-145h377v145h34v-145h58v-34h-58v-501h-34v329h-377zM512 501h-377v-138h377v138z" />
    <glyph glyph-name="hbar" unicode="&#x127;" horiz-adv-x="538" 
d="M413 294q0 157 -137 157q-64 0 -104.5 -39.5t-40.5 -104.5v-307h-32v569h-48v31h48v80h32v-80h155v-31h-155v-171q39 87 148 87q82 0 124.5 -46.5t42.5 -136.5v-302h-33v294z" />
    <glyph glyph-name="Itilde" unicode="&#x128;" horiz-adv-x="236" 
d="M3 822q28 39 65 39q23 0 58 -20q22 -18 46 -18q15 0 29.5 9.5t34.5 33.5v-38q-34 -37 -65 -37q-24 0 -58 22q-27 18 -46 18q-24 0 -64 -42v33zM135 680v-680h-34v680h34z" />
    <glyph glyph-name="itilde" unicode="&#x129;" horiz-adv-x="231" 
d="M110 632q-27 18 -47 18q-12 0 -29 -11t-34 -31v33q29 39 65 39q22 0 57 -20q23 -18 46 -18q15 0 29.5 9.5t34.5 33.5v-38q-32 -36 -65 -36q-24 0 -57 21zM131 475v-475h-32v475h32z" />
    <glyph glyph-name="Imacron" unicode="&#x12a;" horiz-adv-x="236" 
d="M245 840v-33h-252v33h252zM135 680v-680h-34v680h34z" />
    <glyph glyph-name="imacron" unicode="&#x12b;" horiz-adv-x="231" 
d="M242 663v-33h-251v33h251zM131 475v-475h-32v475h32z" />
    <glyph glyph-name="Ibreve" unicode="&#x12c;" horiz-adv-x="236" 
d="M42.5 802q-32.5 29 -36.5 77h26q17 -74 91 -74q73 0 93 74h27q-6 -48 -39 -77t-81 -29t-80.5 29zM135 680v-680h-34v680h34z" />
    <glyph glyph-name="ibreve" unicode="&#x12d;" horiz-adv-x="231" 
d="M29 682q8 -38 30 -56t59 -18q75 0 93 74h27q-6 -48 -39 -77t-81 -29t-80.5 29t-36.5 77h28zM131 475v-475h-32v475h32z" />
    <glyph glyph-name="Iogonek" unicode="&#x12e;" horiz-adv-x="236" 
d="M87 -108q17 -12 49 -12v-31q-57 0 -80 16t-23 60q0 32 18.5 52t49.5 23v680h34v-680q-36 -16 -50.5 -32t-14.5 -42q0 -22 17 -34z" />
    <glyph glyph-name="iogonek" unicode="&#x12f;" horiz-adv-x="231" 
d="M138 616h-46v64h46v-64zM99 475h32v-475q-41 -19 -56 -34t-15 -40q0 -21 17.5 -33.5t49.5 -12.5v-31q-57 0 -80 17t-23 61q0 29 21.5 49.5t53.5 23.5v475z" />
    <glyph glyph-name="Idot" unicode="&#x130;" horiz-adv-x="236" 
d="M145 857v-65h-53v65h53zM135 680v-680h-34v680h34z" />
    <glyph glyph-name="dotlessi" unicode="&#x131;" horiz-adv-x="231" 
d="M131 475v-475h-32v475h32z" />
    <glyph glyph-name="IJ" unicode="&#x132;" horiz-adv-x="698" 
d="M135 680v-680h-34v680h34zM338.5 3q-34.5 13 -66.5 42l23 25q33 -24 62 -34.5t60 -10.5q76 0 113.5 42t37.5 128v485h34v-485q0 -102 -47 -153.5t-138 -51.5q-44 0 -78.5 13z" />
    <glyph glyph-name="ij" unicode="&#x133;" horiz-adv-x="461" 
d="M138 680v-64h-46v64h46zM369 680v-64h-46v64h46zM131 475v-475h-32v475h32zM239 -146h14q31 0 47 7t23 23q7 13 7 49v542h32v-541q0 -65 -23.5 -89.5t-84.5 -24.5h-15v34z" />
    <glyph glyph-name="Jcircumflex" unicode="&#x134;" horiz-adv-x="462" 
d="M357 860l-83 -106h-30l100 141h25l102 -141h-30zM111.5 3q-34.5 13 -66.5 42l23 25q33 -24 62 -34.5t59 -10.5q152 0 152 170v485h34v-485q0 -102 -47 -153.5t-138 -51.5q-44 0 -78.5 13z" />
    <glyph glyph-name="jcircumflex" unicode="&#x135;" horiz-adv-x="231" 
d="M130 700l102 -141h-30l-84 106l-83 -106h-30l100 141h25zM8 -146h15q31 0 47 7t23 23q6 16 6 49v542h32v-541q0 -45 -10 -69t-33 -34q-25 -11 -65 -11h-15v34z" />
    <glyph glyph-name="Kcommaaccent" unicode="&#x136;" horiz-adv-x="584" 
d="M135 202v-202h-34v680h34v-429l358 429h43l-225 -268l237 -412h-40l-221 383zM312 -57v-62l-39 -103v165h39z" />
    <glyph glyph-name="kcommaaccent" unicode="&#x137;" horiz-adv-x="492" 
d="M99 0v680h32v-493l245 288h38l-144 -173l185 -302h-38l-170 274l-116 -137v-137h-32zM226 -222v165h39v-62z" />
    <glyph glyph-name="kgreenlandic" unicode="&#x138;" horiz-adv-x="492" 
d="M270 302l185 -302h-38l-170 274l-116 -137v-137h-32v475h32v-288l244 288h39z" />
    <glyph glyph-name="Lacute" unicode="&#x139;" horiz-adv-x="524" 
d="M250 888l-99 -141h-31l89 141h41zM496 35v-35h-395v680h34v-645h361z" />
    <glyph glyph-name="lacute" unicode="&#x13a;" horiz-adv-x="251" 
d="M228 888l-99 -141h-31l90 141h40zM185 -2q-48 0 -67 23t-19 79v580h32v-579q0 -39 12 -54t42 -15h25v-34h-25z" />
    <glyph glyph-name="Lcommaaccent" unicode="&#x13b;" horiz-adv-x="524" 
d="M496 35v-35h-395v680h34v-645h361zM323 -57v-62l-40 -103v165h40z" />
    <glyph glyph-name="lcommaaccent" unicode="&#x13c;" horiz-adv-x="251" 
d="M185 -2q-48 0 -67 23t-19 79v580h32v-579q0 -39 12 -54t42 -15h25v-34h-25zM175 -57v-62l-39 -103v165h39z" />
    <glyph glyph-name="Lcaron" unicode="&#x13d;" horiz-adv-x="524" 
d="M496 35v-35h-395v680h34v-645h361zM282 680v-62l-40 -103v165h40z" />
    <glyph glyph-name="lcaron" unicode="&#x13e;" horiz-adv-x="251" 
d="M185 -2q-48 0 -67 23t-19 79v580h32v-579q0 -39 12 -54t42 -15h25v-34h-25zM235 680v-62l-40 -103v165h40z" />
    <glyph glyph-name="Ldot" unicode="&#x13f;" horiz-adv-x="524" 
d="M496 35v-35h-395v680h34v-645h361zM409 355v-64h-48v64h48z" />
    <glyph glyph-name="ldot" unicode="&#x140;" horiz-adv-x="272" 
d="M185 -2q-48 0 -67 23t-19 79v580h32v-579q0 -39 12 -54t42 -15h25v-34h-25zM279 360v-65h-48v65h48z" />
    <glyph glyph-name="Lslash" unicode="&#x141;" horiz-adv-x="524" 
d="M496 35v-35h-395v303l-69 -36v40l69 35v338h34v-320l180 92v-39l-180 -92v-286h361z" />
    <glyph glyph-name="lslash" unicode="&#x142;" horiz-adv-x="251" 
d="M131 352v-251q0 -39 12 -54t42 -15h25v-34h-25q-48 0 -67 23t-19 79v237l-52 -26v37l52 26v306h32v-291l79 42v-37z" />
    <glyph glyph-name="Nacute" unicode="&#x143;" horiz-adv-x="649" 
d="M279 747l90 141h40l-99 -141h-31zM513 63v617h35v-680h-37l-375 616v-616h-35v680h35z" />
    <glyph glyph-name="nacute" unicode="&#x144;" horiz-adv-x="538" 
d="M350 700l-98 -139h-32l87 139h43zM413 294q0 157 -137 157q-64 0 -104.5 -39.5t-40.5 -104.5v-307h-32v475h32v-77q39 87 148 87q82 0 124.5 -46.5t42.5 -136.5v-302h-33v294z" />
    <glyph glyph-name="Ncommaaccent" unicode="&#x145;" horiz-adv-x="649" 
d="M513 63v617h35v-680h-37l-375 616v-616h-35v680h35zM311 -222v165h40v-62z" />
    <glyph glyph-name="ncommaaccent" unicode="&#x146;" horiz-adv-x="538" 
d="M413 294q0 157 -137 157q-64 0 -104.5 -39.5t-40.5 -104.5v-307h-32v475h32v-77q39 87 148 87q82 0 124.5 -46.5t42.5 -136.5v-302h-33v294zM289 -57v-62l-40 -103v165h40z" />
    <glyph glyph-name="Ncaron" unicode="&#x147;" horiz-adv-x="649" 
d="M326 789l85 106h30l-102 -141h-25l-100 141h29zM513 63v617h35v-680h-37l-375 616v-616h-35v680h35z" />
    <glyph glyph-name="ncaron" unicode="&#x148;" horiz-adv-x="538" 
d="M269 594l84 105h30l-102 -140h-25l-100 140h30zM413 294q0 157 -137 157q-64 0 -104.5 -39.5t-40.5 -104.5v-307h-32v475h32v-77q39 87 148 87q82 0 124.5 -46.5t42.5 -136.5v-302h-33v294z" />
    <glyph glyph-name="napostrophe" unicode="&#x149;" horiz-adv-x="538" 
d="M88 680v-62l-40 -103v165h40zM413 294q0 157 -137 157q-64 0 -104.5 -39.5t-40.5 -104.5v-307h-32v475h32v-77q39 87 148 87q82 0 124.5 -46.5t42.5 -136.5v-302h-33v294z" />
    <glyph glyph-name="Eng" unicode="&#x14a;" horiz-adv-x="649" 
d="M397 -145h17q41 0 62 12t30 42q8 37 8 87l-378 620v-616h-34v680h34l378 -616v616h34v-720q0 -73 -32 -106.5t-101 -33.5h-18v35z" />
    <glyph glyph-name="eng" unicode="&#x14b;" horiz-adv-x="538" 
d="M321 -180v34h16q45 0 60.5 16t15.5 63v361q0 157 -137 157q-64 0 -104.5 -39.5t-40.5 -104.5v-307h-32v475h32v-77q39 87 148 87q82 0 124.5 -46.5t42.5 -136.5v-368q0 -65 -24 -89.5t-86 -24.5h-15z" />
    <glyph glyph-name="Omacron" unicode="&#x14c;" horiz-adv-x="602" 
d="M422 840v-33h-251v33h251zM166.5 27q-52.5 37 -76.5 112q-21 63 -21 201q0 135 22 205.5t76 107.5q52 37 135 37q184 0 218 -167q14 -76 14 -183q0 -133 -22 -204.5t-75 -108.5q-52 -37 -135 -37t-135.5 37zM432 62q43 37 55 92t12 136v50q0 117 -14 177.5t-53 97.5
q-43 40 -130 40q-83 0 -128 -36t-58 -106q-12 -64 -12 -173q0 -119 14 -179.5t53 -96.5q42 -39 131 -39q87 0 130 37z" />
    <glyph glyph-name="omacron" unicode="&#x14d;" horiz-adv-x="504" 
d="M377 662v-33h-251v33h251zM144 22q-45 32 -63 89q-16 45 -16 127t18.5 133.5t60.5 81.5q47 32 107 32q64 0 109 -31.5t63 -89.5q16 -45 16 -126q0 -84 -18.5 -135t-60.5 -81q-47 -32 -109 -32t-107 32zM349 52q37 28 47 78q10 41 10 108q0 72 -11.5 113.5t-42.5 69.5
q-34 30 -101 30q-61 0 -97 -28t-46 -78q-10 -41 -10 -107q0 -72 11.5 -114t42.5 -69q34 -31 99 -31q61 0 98 28z" />
    <glyph glyph-name="Obreve" unicode="&#x14e;" horiz-adv-x="602" 
d="M220.5 802q-32.5 29 -36.5 77h27q15 -74 90 -74q74 0 94 74h26q-5 -48 -38.5 -77t-81.5 -29t-80.5 29zM166.5 27q-52.5 37 -76.5 112q-21 63 -21 201q0 135 22 205.5t76 107.5q52 37 135 37q184 0 218 -167q14 -76 14 -183q0 -133 -22 -204.5t-75 -108.5
q-52 -37 -135 -37t-135.5 37zM432 62q43 37 55 92t12 136v50q0 117 -14 177.5t-53 97.5q-43 40 -130 40q-83 0 -128 -36t-58 -106q-12 -64 -12 -173q0 -119 14 -179.5t53 -96.5q42 -39 131 -39q87 0 130 37z" />
    <glyph glyph-name="obreve" unicode="&#x14f;" horiz-adv-x="504" 
d="M162 682q17 -74 89 -74q76 0 94 74h26q-5 -48 -38.5 -77t-81.5 -29t-80.5 29t-36.5 77h28zM144 22q-45 32 -63 89q-16 45 -16 127t18.5 133.5t60.5 81.5q47 32 107 32q64 0 109 -31.5t63 -89.5q16 -45 16 -126q0 -84 -18.5 -135t-60.5 -81q-47 -32 -109 -32t-107 32z
M349 52q37 28 47 78q10 41 10 108q0 72 -11.5 113.5t-42.5 69.5q-34 30 -101 30q-61 0 -97 -28t-46 -78q-10 -41 -10 -107q0 -72 11.5 -114t42.5 -69q34 -31 99 -31q61 0 98 28z" />
    <glyph glyph-name="Ohungarumlaut" unicode="&#x150;" horiz-adv-x="602" 
d="M346 888l-89 -140h-28l82 140h35zM459 888l-90 -140h-29l82 140h37zM166.5 27q-52.5 37 -76.5 112q-21 63 -21 201q0 135 22 205.5t76 107.5q52 37 135 37q184 0 218 -167q14 -76 14 -183q0 -133 -22 -204.5t-75 -108.5q-52 -37 -135 -37t-135.5 37zM432 62q43 37 55 92
t12 136v50q0 117 -14 177.5t-53 97.5q-43 40 -130 40q-83 0 -128 -36t-58 -106q-12 -64 -12 -173q0 -119 14 -179.5t53 -96.5q42 -39 131 -39q87 0 130 37z" />
    <glyph glyph-name="ohungarumlaut" unicode="&#x151;" horiz-adv-x="504" 
d="M298 700l-89 -141h-29l82 141h36zM410 700l-90 -141h-28l82 141h36zM144 22q-45 32 -63 89q-16 45 -16 127t18.5 133.5t60.5 81.5q47 32 107 32q64 0 109 -31.5t63 -89.5q16 -45 16 -126q0 -84 -18.5 -135t-60.5 -81q-47 -32 -109 -32t-107 32zM349 52q37 28 47 78
q10 41 10 108q0 72 -11.5 113.5t-42.5 69.5q-34 30 -101 30q-61 0 -97 -28t-46 -78q-10 -41 -10 -107q0 -72 11.5 -114t42.5 -69q34 -31 99 -31q61 0 98 28z" />
    <glyph glyph-name="OE" unicode="&#x152;" horiz-adv-x="950" 
d="M154.5 34q-54.5 44 -69.5 124q-15 72 -15 182q0 125 17 192t63 111q50 47 153 47q144 0 197 -119v109h395v-34h-361v-283h315v-34h-315v-294h361v-35h-395v110q-51 -120 -197 -120q-94 0 -148.5 44zM433 62q43 37 55 92t12 136v50q0 117 -14 177.5t-53 97.5
q-43 40 -130 40t-130.5 -36.5t-55.5 -91t-12 -136.5v-51q0 -117 14 -177.5t53 -97.5q43 -40 131 -40q87 0 130 37z" />
    <glyph glyph-name="oe" unicode="&#x153;" horiz-adv-x="836" 
d="M485.5 18.5q-42.5 28.5 -64.5 86.5q-18 -57 -61 -86t-109 -29q-63 0 -107.5 31.5t-62.5 89.5q-16 39 -16 126q0 88 16 127q18 58 62.5 89.5t107.5 31.5q130 0 169 -115q23 58 64.5 86.5t104.5 28.5q62 0 105.5 -31t63.5 -90q7 -25 11 -60.5t3 -69.5h-334
q3 -85 13.5 -121.5t41.5 -60.5q31 -28 102 -28q51 0 86.5 18.5t61.5 59.5l22 -25q-28 -42 -72 -64.5t-99 -22.5q-66 0 -108.5 28.5zM738 266q0 58 -15 97.5t-47 63.5q-34 25 -87 25q-107 0 -139 -101q-12 -36 -12 -85h300zM349 52q37 28 47 78q10 41 10 108
q0 72 -11.5 113.5t-42.5 69.5q-34 30 -101 30q-61 0 -97 -28t-46 -78q-10 -41 -10 -107q0 -72 11.5 -114t42.5 -69q34 -31 99 -31q61 0 98 28z" />
    <glyph glyph-name="Racute" unicode="&#x154;" horiz-adv-x="614" 
d="M380 888l-99 -141h-32l90 141h41zM101 680h225q97 0 150 -48t53 -134q0 -72 -37 -118.5t-105 -59.5l155 -320h-37l-153 315h-217v-315h-34v680zM326 349q83 0 126 37.5t43 111.5q0 71 -43.5 109.5t-125.5 38.5h-191v-297h191z" />
    <glyph glyph-name="racute" unicode="&#x155;" horiz-adv-x="386" 
d="M299 700l-98 -139h-32l87 139h43zM99 475h32v-82q15 47 47.5 69.5t83.5 22.5q64 0 100 -36l-17 -29q-43 31 -88 31q-60 0 -93 -46.5t-33 -129.5v-275h-32v475z" />
    <glyph glyph-name="Rcommaaccent" unicode="&#x156;" horiz-adv-x="614" 
d="M101 680h225q97 0 150 -48t53 -134q0 -72 -37 -118.5t-105 -59.5l155 -320h-37l-153 315h-217v-315h-34v680zM326 349q83 0 126 37.5t43 111.5q0 71 -43.5 109.5t-125.5 38.5h-191v-297h191zM325 -57v-62l-40 -103v165h40z" />
    <glyph glyph-name="rcommaaccent" unicode="&#x157;" horiz-adv-x="386" 
d="M99 475h32v-82q15 47 47.5 69.5t83.5 22.5q64 0 100 -36l-17 -29q-43 31 -88 31q-60 0 -93 -46.5t-33 -129.5v-275h-32v475zM134 -57v-62l-39 -103v165h39z" />
    <glyph glyph-name="Rcaron" unicode="&#x158;" horiz-adv-x="614" 
d="M399 895l-102 -141h-25l-100 141h30l83 -106l84 106h30zM101 680h225q97 0 150 -48t53 -134q0 -72 -37 -118.5t-105 -59.5l155 -320h-37l-153 315h-217v-315h-34v680zM326 349q83 0 126 37.5t43 111.5q0 71 -43.5 109.5t-125.5 38.5h-191v-297h191z" />
    <glyph glyph-name="rcaron" unicode="&#x159;" horiz-adv-x="386" 
d="M220 594l84 105h30l-102 -140h-25l-100 140h30zM99 475h32v-82q15 47 47.5 69.5t83.5 22.5q64 0 100 -36l-17 -29q-43 31 -88 31q-60 0 -93 -46.5t-33 -129.5v-275h-32v475z" />
    <glyph glyph-name="Sacute" unicode="&#x15a;" horiz-adv-x="599" 
d="M396 888l-99 -141h-31l89 141h41zM176 13q-33 12 -55.5 25t-46.5 33l22 29q95 -75 207 -75q88 0 141 42t53 112q0 64 -42.5 99.5t-135.5 47.5l-29 3q-193 24 -193 175q0 85 56.5 135.5t151.5 50.5q114 0 193 -58l-21 -32q-88 55 -175 55q-79 0 -125 -40.5t-46 -108.5
q0 -61 41.5 -95.5t131.5 -46.5l29 -4q197 -24 197 -178q0 -90 -62 -141t-172 -51q-54 0 -120 23z" />
    <glyph glyph-name="sacute" unicode="&#x15b;" horiz-adv-x="475" 
d="M344 700l-99 -139h-31l87 139h43zM59 60l22 26q38 -32 79 -47t89 -15q65 0 101 28t36 77q0 46 -26.5 67t-92.5 28l-47 5q-136 13 -136 122q0 63 43 98.5t118 35.5q86 0 159 -46l-18 -29q-71 41 -143 41q-60 0 -92.5 -25.5t-32.5 -72.5q0 -42 28 -63t94 -28l46 -5
q69 -7 101.5 -36.5t32.5 -86.5q0 -67 -46.5 -105.5t-129.5 -38.5q-103 0 -185 70z" />
    <glyph glyph-name="Scircumflex" unicode="&#x15c;" horiz-adv-x="599" 
d="M303 860l-83 -106h-29l100 141h25l102 -141h-30zM176 13q-33 12 -55.5 25t-46.5 33l22 29q95 -75 207 -75q88 0 141 42t53 112q0 64 -42.5 99.5t-135.5 47.5l-29 3q-193 24 -193 175q0 85 56.5 135.5t151.5 50.5q114 0 193 -58l-21 -32q-88 55 -175 55q-79 0 -125 -40.5
t-46 -108.5q0 -61 41.5 -95.5t131.5 -46.5l29 -4q197 -24 197 -178q0 -90 -62 -141t-172 -51q-54 0 -120 23z" />
    <glyph glyph-name="scircumflex" unicode="&#x15d;" horiz-adv-x="475" 
d="M256 700l101 -141h-29l-85 106l-83 -106h-29l100 141h25zM59 60l22 26q38 -32 79 -47t89 -15q65 0 101 28t36 77q0 46 -26.5 67t-92.5 28l-47 5q-136 13 -136 122q0 63 43 98.5t118 35.5q86 0 159 -46l-18 -29q-71 41 -143 41q-60 0 -92.5 -25.5t-32.5 -72.5
q0 -42 28 -63t94 -28l46 -5q69 -7 101.5 -36.5t32.5 -86.5q0 -67 -46.5 -105.5t-129.5 -38.5q-103 0 -185 70z" />
    <glyph glyph-name="Scedilla" unicode="&#x15e;" horiz-adv-x="599" 
d="M176 13q-33 12 -55.5 25t-46.5 33l22 29q95 -75 207 -75q88 0 141 42t53 112q0 64 -42.5 99.5t-135.5 47.5l-29 3q-193 24 -193 175q0 85 56.5 135.5t151.5 50.5q114 0 193 -58l-21 -32q-88 55 -175 55q-79 0 -125 -40.5t-46 -108.5q0 -61 41.5 -95.5t131.5 -46.5l29 -4
q197 -24 197 -178q0 -88 -63 -140t-171 -52q-54 0 -120 23zM317 -21q0 -54 -30 -89.5t-75 -34.5v31q35 0 54 25t19 68h32z" />
    <glyph glyph-name="scedilla" unicode="&#x15f;" horiz-adv-x="475" 
d="M404 439l-18 -29q-71 41 -143 41q-60 0 -92.5 -25.5t-32.5 -72.5q0 -42 28 -63t94 -28l46 -5q69 -7 101.5 -36.5t32.5 -86.5q0 -67 -46.5 -105.5t-129.5 -38.5q-103 0 -185 70l22 26q38 -32 79 -47t89 -15q65 0 101 28t36 77q0 46 -26.5 67t-92.5 28l-47 5
q-136 13 -136 122q0 63 43 98.5t118 35.5q86 0 159 -46zM266 -21q1 -52 -29 -88.5t-75 -35.5l-1 31q35 0 54.5 25.5t18.5 67.5h32z" />
    <glyph glyph-name="Scaron" unicode="&#x160;" horiz-adv-x="599" 
d="M418 895l-102 -141h-25l-100 141h29l83 -106l85 106h30zM176 13q-33 12 -55.5 25t-46.5 33l22 29q95 -75 207 -75q88 0 141 42t53 112q0 64 -42.5 99.5t-135.5 47.5l-29 3q-193 24 -193 175q0 85 56.5 135.5t151.5 50.5q114 0 193 -58l-21 -32q-88 55 -175 55
q-79 0 -125 -40.5t-46 -108.5q0 -61 41.5 -95.5t131.5 -46.5l29 -4q197 -24 197 -178q0 -90 -62 -141t-172 -51q-54 0 -120 23z" />
    <glyph glyph-name="scaron" unicode="&#x161;" horiz-adv-x="475" 
d="M245 594l84 105h30l-102 -140h-25l-100 140h30zM59 60l22 26q38 -32 79 -47t89 -15q65 0 101 28t36 77q0 46 -26.5 67t-92.5 28l-47 5q-136 13 -136 122q0 63 43 98.5t118 35.5q86 0 159 -46l-18 -29q-71 41 -143 41q-60 0 -92.5 -25.5t-32.5 -72.5q0 -42 28 -63t94 -28
l46 -5q69 -7 101.5 -36.5t32.5 -86.5q0 -67 -46.5 -105.5t-129.5 -38.5q-103 0 -185 70z" />
    <glyph glyph-name="uni0162" unicode="&#x162;" horiz-adv-x="516" 
d="M275 646v-646h-34v646h-219v34h472v-34h-219zM278 -57v-62l-40 -103v165h40z" />
    <glyph glyph-name="uni0163" unicode="&#x163;" horiz-adv-x="307" 
d="M235 -2q-67 0 -94 28t-27 97v319h-72v33h72v155h33v-155h115v-33h-115v-317q0 -54 19 -73.5t70 -19.5h26v-34h-27zM200 -57v-62l-39 -103v165h39z" />
    <glyph glyph-name="Tcaron" unicode="&#x164;" horiz-adv-x="516" 
d="M372 895l-102 -141h-25l-100 141h29l84 -106l84 106h30zM275 646v-646h-34v646h-219v34h472v-34h-219z" />
    <glyph glyph-name="tcaron" unicode="&#x165;" horiz-adv-x="307" 
d="M285 618l-40 -103v165h40v-62zM147 630v-155h115v-33h-115v-317q0 -54 19 -73.5t70 -19.5h26v-34h-27q-67 0 -94 28t-27 97v319h-72v33h72v155h33z" />
    <glyph glyph-name="Tbar" unicode="&#x166;" horiz-adv-x="516" 
d="M275 424v-424h-34v424h-123v32h123v190h-219v34h472v-34h-219v-190h123v-32h-123z" />
    <glyph glyph-name="tbar" unicode="&#x167;" horiz-adv-x="307" 
d="M235 -2q-67 0 -94 28t-27 97v198h-62v32h62v89h-72v33h72v155h33v-155h115v-33h-115v-89h102v-32h-102v-196q0 -54 19 -73.5t70 -19.5h26v-34h-27z" />
    <glyph glyph-name="Utilde" unicode="&#x168;" horiz-adv-x="632" 
d="M310 813q-27 18 -46 18q-23 0 -64 -42v33q29 39 65 39q22 0 57 -20q22 -18 46 -18q15 0 29.5 9.5t34.5 33.5v-38q-33 -37 -65 -37q-26 0 -57 22zM127 231q0 -102 48 -154t141 -52t141 52t48 154v449h34v-446q0 -244 -223 -244q-109 0 -166 62t-57 182v446h34v-449z" />
    <glyph glyph-name="utilde" unicode="&#x169;" horiz-adv-x="532" 
d="M259 631q-27 18 -46 18q-12 0 -29.5 -11.5t-34.5 -31.5v34q29 39 65 39q22 0 57 -20q22 -18 46 -18q15 0 29.5 9.5t34.5 33.5v-39q-31 -36 -65 -36q-26 0 -57 22zM400 76q-38 -86 -145 -86q-80 0 -122.5 46.5t-42.5 135.5v303h33v-293q0 -80 33.5 -119t101.5 -39
q61 0 101.5 40.5t40.5 103.5v307h33v-475h-33v76z" />
    <glyph glyph-name="Umacron" unicode="&#x16a;" horiz-adv-x="632" 
d="M441 840v-33h-251v33h251zM127 231q0 -102 48 -154t141 -52t141 52t48 154v449h34v-446q0 -244 -223 -244q-109 0 -166 62t-57 182v446h34v-449z" />
    <glyph glyph-name="umacron" unicode="&#x16b;" horiz-adv-x="532" 
d="M390 663v-33h-251v33h251zM400 76q-38 -86 -145 -86q-80 0 -122.5 46.5t-42.5 135.5v303h33v-293q0 -80 33.5 -119t101.5 -39q61 0 101.5 40.5t40.5 103.5v307h33v-475h-33v76z" />
    <glyph glyph-name="Ubreve" unicode="&#x16c;" horiz-adv-x="632" 
d="M235.5 801.5q-32.5 28.5 -37.5 77.5h27q17 -74 91 -74q36 0 59.5 19t33.5 55h26q-5 -48 -38 -77t-81 -29t-80.5 28.5zM150 52q-57 62 -57 182v446h34v-449q0 -102 48 -154t141 -52t141 52t48 154v449h34v-446q0 -244 -223 -244q-109 0 -166 62z" />
    <glyph glyph-name="ubreve" unicode="&#x16d;" horiz-adv-x="532" 
d="M173 682q17 -74 91 -74q75 0 93 74h27q-6 -48 -39 -77t-81 -29t-80.5 29t-36.5 77h26zM400 76q-38 -86 -145 -86q-80 0 -122.5 46.5t-42.5 135.5v303h33v-293q0 -80 33.5 -119t101.5 -39q61 0 101.5 40.5t40.5 103.5v307h33v-475h-33v76z" />
    <glyph glyph-name="Uring" unicode="&#x16e;" horiz-adv-x="632" 
d="M399 828q0 -36 -23.5 -59.5t-59.5 -23.5q-37 0 -60.5 23.5t-23.5 59.5q0 38 23.5 60.5t60.5 22.5t60 -23t23 -60zM370 828q0 26 -15.5 42t-39.5 16t-40 -16q-14 -17 -14 -42t15 -41t39 -16q25 0 40 16q15 17 15 41zM127 231q0 -102 48 -154t141 -52t141 52t48 154v449h34
v-446q0 -244 -223 -244q-109 0 -166 62t-57 182v446h34v-449z" />
    <glyph glyph-name="uring" unicode="&#x16f;" horiz-adv-x="532" 
d="M348 629q0 -36 -23.5 -59.5t-60.5 -23.5q-34 0 -60 23q-23 26 -23 60q0 36 23.5 59.5t59.5 23.5q37 0 60 -23q24 -24 24 -60zM264 687q-24 0 -39.5 -16t-15.5 -42q0 -24 15.5 -40.5t39.5 -16.5t39.5 16.5t15.5 40.5q0 26 -16 42q-13 16 -39 16zM433 0h-33v76
q-38 -86 -145 -86q-80 0 -122.5 46.5t-42.5 135.5v303h33v-293q0 -80 33.5 -119t101.5 -39q61 0 101.5 40.5t40.5 103.5v307h33v-475z" />
    <glyph glyph-name="Uhungarumlaut" unicode="&#x170;" horiz-adv-x="632" 
d="M353 888l-89 -140h-28l81 140h36zM465 888l-90 -140h-28l82 140h36zM127 231q0 -102 48 -154t141 -52t141 52t48 154v449h34v-446q0 -244 -223 -244q-109 0 -166 62t-57 182v446h34v-449z" />
    <glyph glyph-name="uhungarumlaut" unicode="&#x171;" horiz-adv-x="532" 
d="M298 700l-89 -141h-28l82 141h35zM411 700l-90 -141h-29l82 141h37zM400 76q-38 -86 -145 -86q-80 0 -122.5 46.5t-42.5 135.5v303h33v-293q0 -80 33.5 -119t101.5 -39q61 0 101.5 40.5t40.5 103.5v307h33v-475h-33v76z" />
    <glyph glyph-name="Uogonek" unicode="&#x172;" horiz-adv-x="632" 
d="M539 680v-446q0 -109 -45.5 -169.5t-134.5 -71.5q-28 -13 -41 -28.5t-13 -38.5q0 -22 17 -34t49 -12v-31q-57 0 -80 16t-23 60q0 45 38 65q-105 3 -159 65t-54 179v446h34v-449q0 -102 48 -154t141 -52t141 52t48 154v449h34z" />
    <glyph glyph-name="uogonek" unicode="&#x173;" horiz-adv-x="532" 
d="M381 -108q17 -12 49 -12v-31q-57 0 -80 16t-23 60q0 30 21 51t52 24v76q-38 -86 -145 -86q-80 0 -122.5 46.5t-42.5 135.5v303h33v-293q0 -80 33.5 -119t101.5 -39q61 0 101.5 40.5t40.5 103.5v307h33v-475q-40 -19 -54.5 -33.5t-14.5 -40.5q0 -22 17 -34z" />
    <glyph glyph-name="Wcircumflex" unicode="&#x174;" horiz-adv-x="813" 
d="M422 895l102 -141h-30l-84 106l-84 -106h-29l100 141h25zM782 680l-164 -680h-34l-173 604l-175 -604h-34l-164 680h37l147 -612l172 612h33l174 -612l144 612h37z" />
    <glyph glyph-name="wcircumflex" unicode="&#x175;" horiz-adv-x="730" 
d="M378 700l101 -141h-29l-85 106l-83 -106h-29l100 141h25zM691 475l-154 -475h-30l-139 419l-142 -419h-27l-154 475h33l137 -416l139 416h30l140 -416l134 416h33z" />
    <glyph glyph-name="Ycircumflex" unicode="&#x176;" horiz-adv-x="507" 
d="M145 754l100 141h25l101 -141h-29l-85 106l-83 -106h-29zM260 319l187 361h41l-213 -401v-279h-34v279l-213 401h40z" />
    <glyph glyph-name="ycircumflex" unicode="&#x177;" horiz-adv-x="460" 
d="M120 559l100 141h25l102 -141h-30l-84 106l-84 -106h-29zM227 -52q-21 -53 -38 -79.5t-38 -37.5q-24 -11 -52 -11h-27v34h28q24 0 39.5 8.5t28.5 29.5q13 22 29 63l21 52l-180 468h34l164 -419l159 419h35z" />
    <glyph glyph-name="Ydieresis" unicode="&#x178;" horiz-adv-x="507" 
d="M135 792v65h47v-65h-47zM333 792v65h48v-65h-48zM260 319l187 361h41l-213 -401v-279h-34v279l-213 401h40z" />
    <glyph glyph-name="Zacute" unicode="&#x179;" horiz-adv-x="543" 
d="M358 888l-99 -141h-32l90 141h41zM485 35v-35h-429v31l388 615h-374v34h415v-31l-388 -614h388z" />
    <glyph glyph-name="zacute" unicode="&#x17a;" horiz-adv-x="460" 
d="M362 700l-99 -141h-31l89 141h41zM98 31h305v-31h-343v30l305 413h-292v32h330v-32z" />
    <glyph glyph-name="Zdotaccent" unicode="&#x17b;" horiz-adv-x="543" 
d="M296 857v-65h-48v65h48zM485 35v-35h-429v31l388 615h-374v34h415v-31l-388 -614h388z" />
    <glyph glyph-name="zdotaccent" unicode="&#x17c;" horiz-adv-x="460" 
d="M266 680v-64h-48v64h48zM98 31h305v-31h-343v30l305 413h-292v32h330v-32z" />
    <glyph glyph-name="Zcaron" unicode="&#x17d;" horiz-adv-x="543" 
d="M272 789l84 106h30l-102 -141h-25l-100 141h29zM485 35v-35h-429v31l388 615h-374v34h415v-31l-388 -614h388z" />
    <glyph glyph-name="zcaron" unicode="&#x17e;" horiz-adv-x="460" 
d="M242 594l84 105h30l-102 -140h-25l-100 140h30zM98 31h305v-31h-343v30l305 413h-292v32h330v-32z" />
    <glyph glyph-name="florin" unicode="&#x192;" 
d="M296 357l-61 -401q-8 -52 -23.5 -81.5t-42.5 -41.5q-25 -13 -71 -13h-28v34h35q45 0 66 21.5t30 76.5l62 405h-104v33h110l23 154q12 77 42 106.5t94 29.5h28v-34h-36q-45 0 -66 -21.5t-28 -77.5l-25 -157h115v-33h-120z" />
    <glyph glyph-name="Scommaaccent" unicode="&#x218;" horiz-adv-x="599" 
d="M176 13q-33 12 -55.5 25t-46.5 33l22 29q95 -75 207 -75q88 0 141 42t53 112q0 64 -42.5 99.5t-135.5 47.5l-29 3q-193 24 -193 175q0 85 56.5 135.5t151.5 50.5q114 0 193 -58l-21 -32q-88 55 -175 55q-79 0 -125 -40.5t-46 -108.5q0 -61 41.5 -95.5t131.5 -46.5l29 -4
q197 -24 197 -178q0 -88 -63 -140t-171 -52q-54 0 -120 23zM327 -57v-62l-40 -103v165h40z" />
    <glyph glyph-name="scommaaccent" unicode="&#x219;" horiz-adv-x="475" 
d="M59 60l22 26q38 -32 79 -47t89 -15q65 0 101 28t36 77q0 46 -26.5 67t-92.5 28l-47 5q-136 13 -136 122q0 63 43 98.5t118 35.5q86 0 159 -46l-18 -29q-71 41 -143 41q-60 0 -92.5 -25.5t-32.5 -72.5q0 -42 28 -63t94 -28l46 -5q69 -7 101.5 -36.5t32.5 -86.5
q0 -67 -46.5 -105.5t-129.5 -38.5q-103 0 -185 70zM263 -57v-62l-40 -103v165h40z" />
    <glyph glyph-name="uni021A" unicode="&#x21a;" horiz-adv-x="516" 
d="M275 646v-646h-34v646h-219v34h472v-34h-219zM278 -57v-62l-40 -103v165h40z" />
    <glyph glyph-name="uni021B" unicode="&#x21b;" horiz-adv-x="307" 
d="M235 -2q-67 0 -94 28t-27 97v319h-72v33h72v155h33v-155h115v-33h-115v-317q0 -54 19 -73.5t70 -19.5h26v-34h-27zM200 -57v-62l-39 -103v165h39z" />
    <glyph glyph-name="uni0237" unicode="&#x237;" horiz-adv-x="231" 
d="M8 -180v34h15q31 0 47 7t23 23q6 16 6 49v542h32v-541q0 -45 -10 -69t-33 -34q-25 -11 -65 -11h-15z" />
    <glyph glyph-name="circumflex" unicode="&#x2c6;" horiz-adv-x="421" 
d="M223 700l102 -141h-30l-84 106l-83 -106h-30l100 141h25z" />
    <glyph glyph-name="caron" unicode="&#x2c7;" horiz-adv-x="421" 
d="M211 594l84 105h30l-102 -140h-25l-100 140h30z" />
    <glyph glyph-name="breve" unicode="&#x2d8;" horiz-adv-x="421" 
d="M123 682q17 -74 91 -74q73 0 93 74h27q-6 -48 -39 -77t-81 -29t-80.5 29t-36.5 77h26z" />
    <glyph glyph-name="dotaccent" unicode="&#x2d9;" horiz-adv-x="421" 
d="M234 680v-64h-48v64h48z" />
    <glyph glyph-name="ring" unicode="&#x2da;" horiz-adv-x="421" 
d="M293 629q0 -34 -23 -60q-26 -23 -61 -23q-36 0 -59.5 23.5t-23.5 60.5t23.5 59.5t60.5 22.5q34 0 60 -23q23 -26 23 -60zM264 629q0 26 -15.5 42t-39.5 16t-40 -16q-14 -17 -14 -42t15 -41t39 -16q25 0 40 16q15 17 15 41z" />
    <glyph glyph-name="ogonek" unicode="&#x2db;" horiz-adv-x="421" 
d="M280 10q-41 -19 -59 -37t-18 -41q0 -21 19 -33.5t52 -12.5v-31q-57 0 -82 17.5t-25 61.5q0 45 47 69l16 7h50z" />
    <glyph glyph-name="tilde" unicode="&#x2dc;" horiz-adv-x="421" 
d="M204 631q-27 18 -47 18q-12 0 -29 -11.5t-34 -31.5v34q29 39 65 39q22 0 57 -20q22 -18 46 -18q15 0 29.5 9.5t34.5 33.5v-39q-31 -36 -65 -36q-26 0 -57 22z" />
    <glyph glyph-name="hungarumlaut" unicode="&#x2dd;" horiz-adv-x="421" 
d="M218 700l-89 -141h-29l82 141h36zM330 700l-90 -141h-28l82 141h36z" />
    <glyph glyph-name="uni0394" unicode="&#x394;" horiz-adv-x="591" 
d="M313 680l248 -680h-524l247 680h29zM300 621l-215 -586h426z" />
    <glyph glyph-name="uni03A9" unicode="&#x3a9;" horiz-adv-x="604" 
d="M81 0v35h109q-55 24 -82.5 70.5t-33.5 101.5q-5 55 -5 133q0 132 22.5 204.5t74.5 109.5q51 36 136 36q87 0 137.5 -35.5t72.5 -110.5q23 -80 23 -204q0 -94 -11 -152t-37 -95q-26 -39 -72 -58h108v-35h-183v35q70 23 106 60.5t45 95.5q9 53 9 149q0 105 -12.5 170.5
t-55.5 105t-130 39.5q-159 0 -185 -144q-13 -59 -13 -171q0 -75 4 -117.5t15 -71t33 -52.5q35 -38 108 -64v-35h-183z" />
    <glyph glyph-name="uni03BC" unicode="&#x3bc;" horiz-adv-x="527" 
d="M356.5 16.5q-39.5 -26.5 -93.5 -26.5q-88 0 -132 65v-235h-32v655h32v-307q0 -71 34.5 -107.5t101.5 -36.5q63 0 102 41t39 107v303h32v-416q0 -18 7 -22.5t34 -4.5v-34h-8q-34 0 -48 19.5t-16 68.5q-13 -43 -52.5 -69.5z" />
    <glyph glyph-name="pi" unicode="&#x3c0;" horiz-adv-x="596" 
d="M504 -2q-37 0 -60 24t-23 61v358h-261v-441h-33v441h-83v34h491v-34h-82v-343q0 -32 15 -49t43 -17h14v-34h-21z" />
    <glyph glyph-name="Wgrave" unicode="&#x1e80;" horiz-adv-x="813" 
d="M340 888l91 -141h-31l-99 141h39zM782 680l-164 -680h-34l-173 604l-175 -604h-34l-164 680h37l147 -612l172 612h33l174 -612l144 612h37z" />
    <glyph glyph-name="wgrave" unicode="&#x1e81;" horiz-adv-x="730" 
d="M290 700l90 -141h-31l-98 141h39zM691 475l-154 -475h-30l-139 419l-142 -419h-27l-154 475h33l137 -416l139 416h30l140 -416l134 416h33z" />
    <glyph glyph-name="Wacute" unicode="&#x1e82;" horiz-adv-x="813" 
d="M520 888l-99 -141h-31l90 141h40zM782 680l-164 -680h-34l-173 604l-175 -604h-34l-164 680h37l147 -612l172 612h33l174 -612l144 612h37z" />
    <glyph glyph-name="wacute" unicode="&#x1e83;" horiz-adv-x="730" 
d="M481 700l-99 -141h-31l90 141h40zM691 475l-154 -475h-30l-139 419l-142 -419h-27l-154 475h33l137 -416l139 416h30l140 -416l134 416h33z" />
    <glyph glyph-name="Wdieresis" unicode="&#x1e84;" horiz-adv-x="813" 
d="M286 792v65h48v-65h-48zM485 792v65h47v-65h-47zM601 68l144 612h37l-164 -680h-34l-173 604l-175 -604h-34l-164 680h37l147 -612l172 612h33z" />
    <glyph glyph-name="wdieresis" unicode="&#x1e85;" horiz-adv-x="730" 
d="M244 616v64h48v-64h-48zM443 616v64h48v-64h-48zM524 59l134 416h33l-154 -475h-30l-139 419l-142 -419h-27l-154 475h33l137 -416l139 416h30z" />
    <glyph glyph-name="Ygrave" unicode="&#x1ef2;" horiz-adv-x="507" 
d="M198 888l91 -141h-31l-99 141h39zM260 319l187 361h41l-213 -401v-279h-34v279l-213 401h40z" />
    <glyph glyph-name="ygrave" unicode="&#x1ef3;" horiz-adv-x="460" 
d="M245 559l-99 141h39l90 -141h-30zM227 -52q-21 -53 -38 -79.5t-38 -37.5q-24 -11 -52 -11h-27v34h28q24 0 39.5 8.5t28.5 29.5q13 22 29 63l21 52l-180 468h35l163 -419l159 419h35z" />
    <glyph glyph-name="uni2010" unicode="&#x2010;" horiz-adv-x="370" 
d="M319 283v-33h-268v33h268z" />
    <glyph glyph-name="endash" unicode="&#x2013;" horiz-adv-x="498" 
d="M30 283h439v-32h-439v32z" />
    <glyph glyph-name="emdash" unicode="&#x2014;" horiz-adv-x="816" 
d="M30 283h757v-32h-757v32z" />
    <glyph glyph-name="quoteleft" unicode="&#x2018;" horiz-adv-x="201" 
d="M79 506v83l43 90v-173h-43z" />
    <glyph glyph-name="quoteright" unicode="&#x2019;" horiz-adv-x="201" 
d="M122 680v-84l-43 -90v174h43z" />
    <glyph glyph-name="quotesinglbase" unicode="&#x201a;" horiz-adv-x="201" 
d="M122 67v-84l-43 -91v175h43z" />
    <glyph glyph-name="quotedblleft" unicode="&#x201c;" horiz-adv-x="327" 
d="M79 506v84l43 90v-174h-43zM205 506v84l43 90v-174h-43z" />
    <glyph glyph-name="quotedblright" unicode="&#x201d;" horiz-adv-x="327" 
d="M79 506v174h43v-84zM205 506v174h43v-84z" />
    <glyph glyph-name="quotedblbase" unicode="&#x201e;" horiz-adv-x="327" 
d="M79 -71v175h43v-84zM205 -71v175h43v-84z" />
    <glyph glyph-name="dagger" unicode="&#x2020;" horiz-adv-x="414" 
d="M223 389v-569h-32v569h-151v32h151v259h32v-259h151v-32h-151z" />
    <glyph glyph-name="daggerdbl" unicode="&#x2021;" horiz-adv-x="414" 
d="M223 53v-233h-32v233h-151v32h151v333h-151v31h151v231h32v-231h151v-31h-151v-333h151v-32h-151z" />
    <glyph glyph-name="bullet" unicode="&#x2022;" horiz-adv-x="410" 
d="M129.5 231q-29.5 30 -29.5 77q0 46 29.5 76.5t74.5 30.5q46 0 76 -30t30 -77q0 -46 -29.5 -76.5t-76.5 -30.5q-45 0 -74.5 30z" />
    <glyph glyph-name="ellipsis" unicode="&#x2026;" horiz-adv-x="619" 
d="M128 75v-75h-50v75h50zM335 75v-75h-50v75h50zM541 75v-75h-50v75h50z" />
    <glyph glyph-name="perthousand" unicode="&#x2030;" horiz-adv-x="1067" 
d="M196 -10h-33l405 700h32zM143 347.5q-25 17.5 -37 54.5q-8 46 -8 107t8 107q12 37 37 54.5t67 17.5q38 0 65 -18.5t38 -53.5q8 -46 8 -107t-8 -107q-11 -35 -38 -53.5t-65 -18.5q-42 0 -67 17.5zM264 374q17 15 21.5 45t4.5 90q0 80 -8 101q-15 49 -72 49q-58 0 -73 -49
q-8 -21 -8 -101q0 -60 4.5 -90t21.5 -45t55 -15q37 0 54 15zM447 171q0 61 4 85q4 30 13 46.5t28 29.5q27 18 65 18t65 -18.5t38 -52.5q8 -34 8 -108q0 -61 -4 -85q-4 -29 -13.5 -45.5t-28.5 -29.5q-25 -19 -65 -19q-38 0 -65 19t-37 53q-8 29 -8 107zM745 171q0 61 4 85
q4 30 13 46.5t28 29.5q27 18 65 18t65 -18.5t38 -52.5q8 -34 8 -108q0 -61 -4 -85q-4 -29 -13.5 -45.5t-28.5 -29.5q-25 -19 -65 -19q-38 0 -65 19t-37 53q-8 29 -8 107zM557 22q35 0 53 14.5t23 45.5q5 37 5 89q0 53 -5 90q-5 31 -23 45t-53 14t-53 -14t-23 -45
q-5 -37 -5 -90q0 -72 8 -101q17 -48 73 -48zM855 22q35 0 53 14.5t23 45.5q5 37 5 89q0 53 -5 90q-5 31 -23 45t-53 14t-53 -14t-23 -45q-5 -37 -5 -90q0 -72 8 -101q17 -48 73 -48z" />
    <glyph glyph-name="guilsinglleft" unicode="&#x2039;" horiz-adv-x="330" 
d="M257 133v-51l-175 182l175 181v-50l-129 -131z" />
    <glyph glyph-name="guilsinglright" unicode="&#x203a;" horiz-adv-x="330" 
d="M80 445l166 -181l-166 -190v59l124 131l-124 131v50z" />
    <glyph glyph-name="uni203D" unicode="&#x203d;" horiz-adv-x="439" 
d="M344 645q46 -45 46 -119q0 -41 -13.5 -71t-52.5 -79l-81 -101l-1 -107h-33l-6 317h43l-4 -172l43 58q34 45 52.5 85.5t18.5 70.5q0 57 -36.5 92t-94.5 35q-55 0 -91 -37t-47 -108l-32 9q8 78 54.5 125t115.5 47q73 0 119 -45zM204 0v74h42v-74h-42z" />
    <glyph glyph-name="fraction" unicode="&#x2044;" horiz-adv-x="148" 
d="M297 690l-405 -700h-33l406 700h32z" />
    <glyph glyph-name="Euro" unicode="&#x20ac;" 
d="M180 22.5q-42 32.5 -54 95.5q-11 61 -11 149h-67v33h67v87h-67v33h67q0 99 13 150.5t49 84.5q41 35 122 35q62 0 107 -32t66 -90l-26 -17q-48 105 -147 105q-67 0 -100 -27t-42 -68t-9 -104v-37h243l-15 -33h-228v-87h209l-15 -33h-194q0 -96 10.5 -142t40.5 -72
q35 -29 100 -29q49 0 87 27t60 78l26 -16q-19 -57 -65 -90t-108 -33q-77 0 -119 32.5z" />
    <glyph glyph-name="uni2105" unicode="&#x2105;" horiz-adv-x="766" 
d="M166 -10l405 700h32l-405 -700h-32zM324 614l-27 -14q-24 63 -83 63q-53 0 -69 -36t-16 -96q0 -69 5.5 -101t23.5 -53t57 -21q30 0 51 15.5t31 46.5l26 -12q-30 -76 -106 -76q-42 0 -69 21.5t-42 65.5q-10 34 -10 92q0 61 12 99t38 59q25 22 71 22q76 0 107 -75zM644 328
q30 -23 44 -67q10 -30 10 -90t-12.5 -98.5t-39.5 -58.5q-28 -21 -75 -21q-45 0 -72.5 21t-42.5 65q-12 38 -12 92q0 58 13 95.5t42 60.5q30 24 72 24q43 0 73 -23zM498 288q-21 -38 -21 -117q0 -76 21.5 -114.5t72.5 -38.5q69 0 85 72q9 24 9 81q0 58 -9 82q-16 73 -85 73
q-52 0 -73 -38z" />
    <glyph glyph-name="uni2113" unicode="&#x2113;" horiz-adv-x="343" 
d="M62 255l60 55v214q0 84 21.5 125t65.5 41q37 0 58 -30.5t21 -86.5q0 -70 -31 -134.5t-103 -144.5v-208q0 -62 50 -62q35 0 70 38l17 -25q-41 -47 -89 -47q-80 0 -80 98v176l-41 -37zM154 344q56 65 79 117t23 112q0 38 -13.5 61t-34.5 23q-27 0 -40 -34q-14 -39 -14 -100
v-179z" />
    <glyph glyph-name="uni2117" unicode="&#x2117;" horiz-adv-x="832" 
d="M416 -10q-99 0 -179 45t-125 126q-46 79 -46 179q0 98 45.5 178t126.5 126q79 46 178 46q96 0 176 -46t127 -127q46 -79 46 -177q0 -149 -101 -250q-100 -100 -248 -100zM416 20q89 0 162.5 42t115.5 115q42 74 42 163t-42 162.5t-115 115.5t-163 42q-89 0 -163 -42
t-116 -115t-42 -163q0 -137 92 -229q91 -91 229 -91zM308 526h97q160 0 160 -117q0 -66 -39 -96.5t-121 -30.5h-65l-2 -142h-30v386zM401 310q70 0 98.5 21t28.5 74q0 48 -30 68.5t-97 20.5h-63v-184h63z" />
    <glyph glyph-name="trademark" unicode="&#x2122;" horiz-adv-x="805" 
d="M200 651v-365h-30v365h-129v29h289v-29h-130zM756 680v-394h-29v326l-134 -270h-25l-134 270v-326h-29v394h31l146 -301l143 301h31z" />
    <glyph glyph-name="uni2126" unicode="&#x2126;" horiz-adv-x="604" 
d="M439.5 654.5q50.5 -35.5 72.5 -110.5q23 -80 23 -204q0 -94 -11 -152t-37 -95q-26 -39 -72 -58h108v-35h-183v35q70 23 106 60.5t45 95.5q9 53 9 149q0 105 -12.5 170.5t-55.5 105t-130 39.5q-159 0 -185 -144q-13 -59 -13 -171q0 -75 4 -117.5t15 -71t33 -52.5
q35 -38 108 -64v-35h-183v35h109q-55 24 -82.5 70.5t-33.5 101.5q-5 55 -5 133q0 132 22.5 204.5t74.5 109.5q51 36 136 36q87 0 137.5 -35.5z" />
    <glyph glyph-name="estimated" unicode="&#x212e;" horiz-adv-x="660" 
d="M209.5 22.5q-52.5 32.5 -81.5 89.5q-30 56 -30 126q0 69 29.5 126t82.5 89t118 32q68 0 120 -31t82 -88q30 -58 31 -128h-361v-163q53 -51 128 -51q109 0 173 108l33 -21q-43 -66 -90 -93.5t-116 -27.5q-66 0 -118.5 32.5zM460 400q-58 55 -132 55q-76 0 -128 -55v-129
h260v129z" />
    <glyph glyph-name="partialdiff" unicode="&#x2202;" horiz-adv-x="534" 
d="M153 16.5q-42 26.5 -65 75.5q-23 52 -23 112q0 59 24.5 106.5t68.5 74.5t97 27q113 0 181 -99l1 32q0 94 -23 164.5t-66 109t-103 38.5q-66 0 -128 -53l-17 29q30 27 69 42t76 15q107 0 165.5 -92t58.5 -252q0 -173 -56.5 -264.5t-162.5 -91.5q-55 0 -97 26.5zM378 86.5
q46 62.5 54 182.5q-65 110 -171 110q-75 0 -118.5 -48t-43.5 -129q0 -80 41.5 -129t110.5 -49q81 0 127 62.5z" />
    <glyph glyph-name="uni2206" unicode="&#x2206;" horiz-adv-x="591" 
d="M313 680l248 -680h-524l247 680h29zM300 621l-215 -586h426z" />
    <glyph glyph-name="product" unicode="&#x220f;" horiz-adv-x="626" 
d="M533 740v-920h-34v884h-372v-884h-35v920h441z" />
    <glyph glyph-name="summation" unicode="&#x2211;" horiz-adv-x="528" 
d="M479 -144v-36h-410v26l203 478l-199 385v31h396v-36h-356l198 -377l-202 -471h370z" />
    <glyph glyph-name="minus" unicode="&#x2212;" 
d="M70 292h386v-32h-386v32z" />
    <glyph glyph-name="uni2215" unicode="&#x2215;" horiz-adv-x="148" 
d="M297 690l-405 -700h-33l406 700h32z" />
    <glyph glyph-name="uni2219" unicode="&#x2219;" horiz-adv-x="207" 
d="M128 303v-76h-50v76h50z" />
    <glyph glyph-name="radical" unicode="&#x221a;" horiz-adv-x="607" 
d="M595 740l-258 -920h-27l-162 328l-92 -43l-13 29l123 62l153 -319l244 863h32z" />
    <glyph glyph-name="infinity" unicode="&#x221e;" horiz-adv-x="771" 
d="M482.5 120.5q-42.5 29.5 -97.5 99.5q-54 -70 -96.5 -99.5t-90.5 -29.5q-64 0 -106 43.5t-42 112.5t41 112t108 43q46 0 87 -28.5t99 -99.5q54 68 97.5 98t88.5 30q69 0 109.5 -41.5t40.5 -113.5q0 -67 -42 -111.5t-107 -44.5q-47 0 -89.5 29.5zM275.5 150.5
q35.5 26.5 89.5 96.5q-54 69 -90.5 96.5t-75.5 27.5q-53 0 -85 -34t-32 -89q0 -53 33 -88.5t84 -35.5q41 0 76.5 26.5zM655 160q34 36 34 88q0 55 -32.5 89t-85.5 34q-39 0 -75 -27.5t-91 -97.5q54 -70 89 -96t77 -26q50 0 84 36z" />
    <glyph glyph-name="integral" unicode="&#x222b;" horiz-adv-x="359" 
d="M50 -176v31q3 -1 33 -1q41 0 60.5 29.5t19.5 93.5v597q0 86 26.5 125t86.5 42q11 0 14 -1t18 -1v-36q-11 4 -32 4q-42 0 -61 -29t-19 -93v-597q0 -87 -26 -126t-85 -42q-24 0 -35 4z" />
    <glyph glyph-name="approxequal" unicode="&#x2248;" 
d="M276 382q49 -34 77 -34q25 0 48.5 17t41.5 50l25 -16q-21 -42 -49 -62t-67 -20q-41 0 -96 40q-50 35 -76 35q-25 0 -46.5 -16t-44.5 -52l-25 18q44 81 117 81q42 0 95 -41zM276 195q50 -35 77 -35q52 0 90 68l25 -16q-21 -42 -49 -62t-67 -20q-41 0 -96 40q-49 34 -76 34
q-25 0 -46.5 -15.5t-44.5 -51.5l-25 17q44 81 117 81q43 0 95 -40z" />
    <glyph glyph-name="notequal" unicode="&#x2260;" 
d="M233 196h223v-32h-243l-67 -113h-33l65 113h-108v32h129l93 160h-222v32h242l68 113h33l-66 -113h109v-32h-130z" />
    <glyph glyph-name="lessequal" unicode="&#x2264;" 
d="M456 149v-35l-386 156v28l386 157v-35l-341 -136zM70 32h386v-32h-386v32z" />
    <glyph glyph-name="greaterequal" unicode="&#x2265;" 
d="M456 298v-28l-386 -156v35l339 135l-339 136v35zM70 32h386v-32h-386v32z" />
    <glyph glyph-name="lozenge" unicode="&#x25ca;" horiz-adv-x="554" 
d="M482 329l-189 -381h-26l-188 381l188 381h26zM280 658l-163 -329l164 -328l163 328z" />
    <glyph glyph-name="f_i" unicode="&#xf001;" horiz-adv-x="531" 
d="M116 442h-75v33h75v65q0 57 11 87t36 42q30 11 75 11h32v-34h-27q-43 0 -62 -7.5t-26 -27.5q-7 -17 -7 -62v-74h122v-33h-122v-442h-32v442zM439 680v-64h-46v64h46zM432 475v-475h-32v475h32z" />
    <glyph glyph-name="f_l" unicode="&#xf002;" horiz-adv-x="552" 
d="M116 442h-75v33h75v65q0 57 11 87t36 42q30 11 75 11h32v-34h-27q-42 0 -61 -7.5t-26 -27.5q-8 -22 -8 -62v-74h122v-33h-122v-442h-32v442zM486 -2q-48 0 -67.5 23t-19.5 79v580h32v-579q0 -39 12.5 -54t42.5 -15h25v-34h-25z" />
    <glyph glyph-name="uniF8FF" unicode="&#xf8ff;" horiz-adv-x="465" 
d="M465 0h-465v680h465v-680zM434 650h-402v-620h402v620zM210 253q0 45 24 72l32 39q43 49 43 91q0 34 -22.5 55.5t-58.5 21.5t-59 -21.5t-30 -62.5l-28 6q4 47 37.5 77.5t79.5 30.5q49 0 79 -30t30 -77q0 -52 -42 -102l-32 -39q-23 -29 -23 -61v-34h-30v34zM245 113h-41
v51h41v-51z" />
    <glyph glyph-name="f_f" unicode="&#xfb00;" horiz-adv-x="601" 
d="M116 442h-75v33h75v65q0 57 11 87t36 42q30 11 75 11h32v-34h-27q-42 0 -60.5 -7t-26.5 -27q-8 -22 -8 -63v-74h122v-33h-122v-442h-32v442zM416 442h-74v33h74v65q0 57 11 87t37 42q30 11 75 11h32v-34h-27q-43 0 -62 -7.5t-26 -27.5q-8 -24 -8 -62v-74h123v-33h-123
v-442h-32v442z" />
    <glyph glyph-name="fi" unicode="&#xfb01;" horiz-adv-x="531" 
d="M116 442h-75v33h75v65q0 57 11 87t36 42q30 11 75 11h32v-34h-27q-54 0 -77 -17q-18 -18 -18 -80v-74h122v-33h-122v-442h-32v442zM439 680v-64h-46v64h46zM432 475v-475h-32v475h32z" />
    <glyph glyph-name="fl" unicode="&#xfb02;" horiz-adv-x="552" 
d="M116 442h-75v33h75v65q0 57 11 87t36 42q30 11 75 11h32v-34h-27q-42 0 -61 -7.5t-26 -27.5q-8 -22 -8 -62v-74h122v-33h-122v-442h-32v442zM486 -2q-48 0 -67.5 23t-19.5 79v580h32v-579q0 -39 12.5 -54t42.5 -15h25v-34h-25z" />
    <glyph glyph-name="f_f_i" unicode="&#xfb03;" horiz-adv-x="832" 
d="M116 442h-75v33h75v65q0 57 11 87t36 42q30 11 75 11h32v-34h-27q-42 0 -60.5 -7t-26.5 -27q-8 -22 -8 -63v-74h122v-33h-122v-442h-32v442zM416 442h-74v33h74v65q0 57 11 87t37 42q30 11 75 11h32v-34h-27q-42 0 -61 -7.5t-27 -27.5q-8 -24 -8 -62v-74h123v-33h-123
v-442h-32v442zM741 680v-64h-46v64h46zM734 475v-475h-32v475h32z" />
    <glyph glyph-name="f_f_l" unicode="&#xfb04;" horiz-adv-x="852" 
d="M116 442h-75v33h75v65q0 57 11 87t36 42q30 11 75 11h32v-34h-27q-40 0 -59.5 -7.5t-27.5 -27.5q-8 -24 -8 -62v-74h122v-33h-122v-442h-32v442zM416 442h-74v33h74v65q0 57 11 87t37 42q30 11 75 11h32v-34h-27q-43 0 -62 -7.5t-26 -27.5q-8 -24 -8 -62v-74h123v-33
h-123v-442h-32v442zM786 -2q-48 0 -67 23t-19 79v580h32v-579q0 -39 12 -54t42 -15h25v-34h-25z" />
    </font>
</defs>
</svg>
