<?xml version="1.0" standalone="no"?>
<!DOCTYPE svg PUBLIC "-//W3C//DTD SVG 1.1//EN" "http://www.w3.org/Graphics/SVG/1.1/DTD/svg11.dtd" >
<svg xmlns="http://www.w3.org/2000/svg" xmlns:xlink="http://www.w3.org/1999/xlink" version="1.1">
<metadata>
Created by FontForge 20170731 at Tue Oct 31 13:00:00 2017
 By Aleksey,,,
</metadata>
<defs>
<font id="AlJazeera-Latin-70Bold" horiz-adv-x="556" >
  <font-face 
    font-family="70 Bold"
    font-weight="400"
    font-stretch="normal"
    units-per-em="1000"
    panose-1="0 0 8 0 0 0 0 0 0 0"
    ascent="781"
    descent="-219"
    x-height="484"
    cap-height="680"
    bbox="-167 -258 1076 925"
    underline-thickness="50"
    underline-position="-150"
    unicode-range="U+000D-FB04"
  />
<missing-glyph horiz-adv-x="506" 
d="M0 0v680h506v-680h-506zM69 615v-550h368v550h-368zM199 277q0 29 19 54l46 60q23 32 23 52q0 18 -11.5 30t-29.5 12q-21 0 -33 -11.5t-18 -37.5l-83 13q9 56 44.5 85t93.5 29q56 0 91.5 -33t35.5 -84q0 -44 -32 -82l-45 -60q-13 -16 -13 -38v-23h-88v34zM198 114v87h91
v-87h-91z" />
    <glyph glyph-name=".notdef" horiz-adv-x="506" 
d="M0 0v680h506v-680h-506zM69 615v-550h368v550h-368zM199 277q0 29 19 54l46 60q23 32 23 52q0 18 -11.5 30t-29.5 12q-21 0 -33 -11.5t-18 -37.5l-83 13q9 56 44.5 85t93.5 29q56 0 91.5 -33t35.5 -84q0 -44 -32 -82l-45 -60q-13 -16 -13 -38v-23h-88v34zM198 114v87h91
v-87h-91z" />
    <glyph glyph-name=".null" horiz-adv-x="0" 
 />
    <glyph glyph-name="nonmarkingreturn" horiz-adv-x="333" 
 />
    <glyph glyph-name="NULL" horiz-adv-x="500" 
 />
    <glyph glyph-name="NULL" horiz-adv-x="500" 
 />
    <glyph glyph-name="CR.001" unicode="&#xd;" horiz-adv-x="333" 
 />
    <glyph glyph-name="space" unicode=" " horiz-adv-x="236" 
 />
    <glyph glyph-name="exclam" unicode="!" horiz-adv-x="312" 
d="M206 199h-100l-26 481h152zM86 0v134h140v-134h-140z" />
    <glyph glyph-name="quotedbl" unicode="&#x22;" horiz-adv-x="374" 
d="M157 472h-99v208h99v-208zM316 472h-99v208h99v-208z" />
    <glyph glyph-name="numbersign" unicode="#" horiz-adv-x="548" 
d="M371 680h109l-26 -185h76v-99h-90l-14 -102h78v-99h-91l-26 -195h-109l26 195h-104l-26 -195h-109l26 195h-73v99h86l14 102h-74v99h88l26 185h109l-26 -185h104zM317 294l14 102h-104l-14 -102h104z" />
    <glyph glyph-name="dollar" unicode="$" 
d="M466 64.5q-49 -55.5 -140 -70.5v-72h-66v68q-119 6 -208 80l81 100q29 -27 59 -40.5t68 -17.5v170q-88 14 -138 65.5t-50 131.5q0 84 52 141.5t136 68.5v69h66v-69q51 -5 90 -19t77 -41l-70 -101q-26 17 -48.5 26t-48.5 13v-159q189 -34 189 -200q0 -88 -49 -143.5z
M260 420v143q-50 -20 -50 -73q0 -52 50 -70zM326 118q51 20 51 83q0 49 -51 67v-150z" />
    <glyph glyph-name="percent" unicode="%" horiz-adv-x="814" 
d="M152 -11l407 702h104l-407 -702h-104zM116 352q-34 22 -47 60q-9 26 -9 97q0 72 11 103.5t45 53.5t82 22t82 -22t47 -60q9 -25 9 -97t-11 -103.5t-45 -53.5t-82 -22t-82 22zM233 432q4 7 4 77t-4 77q-8 23 -35 23t-35 -23q-4 -7 -4 -77t4 -77q8 -23 35 -23t35 23z
M478 170q0 72 11 103.5t45 53.5t82 22t82 -22t47 -60q9 -30 9 -97q0 -69 -11.5 -102.5t-44.5 -54.5q-34 -22 -82 -22t-82 22t-47 61q-9 26 -9 96zM616 70q28 0 35 24q4 7 4 76q0 70 -4 77q-8 23 -35 23t-35 -23q-4 -7 -4 -77q0 -69 4 -76q8 -24 35 -24z" />
    <glyph glyph-name="ampersand" unicode="&#x26;" horiz-adv-x="648" 
d="M376.5 671q40.5 -20 64.5 -56q23 -38 23 -83q0 -47 -27 -85.5t-87 -85.5l89 -113l72 83l84 -70l-86 -103l18 -22q17 -21 39 -21h25v-115h-52q-37 0 -59.5 11.5t-47.5 43.5l-8 9q-79 -75 -174 -75q-90 0 -143 49.5t-53 133.5q0 57 29 105t97 101q-44 57 -62 96
q-11 33 -11 56q0 47 24 83.5t67 57.5q43 20 89 20q49 0 89.5 -20zM249.5 572q-14.5 -15 -14.5 -39q0 -13 12.5 -35.5t31.5 -46.5q32 25 47 44t15 38q0 23 -15 38.5t-38 15.5q-24 0 -38.5 -15zM251 288q-69 -55 -69 -105q0 -35 21 -56t57 -21q46 0 95 48z" />
    <glyph glyph-name="quotesingle" unicode="'" horiz-adv-x="215" 
d="M58 680h99v-208h-99v208z" />
    <glyph glyph-name="parenleft" unicode="(" horiz-adv-x="311" 
d="M188 -84q-71 96 -104 195.5t-33 216.5q0 228 136 412h91q-94 -192 -94 -412q0 -219 95 -412h-91z" />
    <glyph glyph-name="parenright" unicode=")" horiz-adv-x="311" 
d="M37 -84q95 193 95 412t-95 412h92q69 -95 102.5 -196.5t33.5 -215.5q0 -231 -136 -412h-92z" />
    <glyph glyph-name="asterisk" unicode="*" horiz-adv-x="367" 
d="M226 374h-75l1 90l-78 -46l-37 66l78 43l-78 44l37 66l78 -47l-1 90h75l-2 -90l78 46l37 -65l-78 -44l79 -43l-38 -66l-78 46z" />
    <glyph glyph-name="plus" unicode="+" 
d="M339 49h-122v168h-166v118h166v168h122v-168h166v-118h-166v-168z" />
    <glyph glyph-name="comma" unicode="," horiz-adv-x="253" 
d="M60 140h133v-143l-133 -126v269z" />
    <glyph glyph-name="hyphen" unicode="-" horiz-adv-x="392" 
d="M350 204h-308v122h308v-122z" />
    <glyph glyph-name="period" unicode="." horiz-adv-x="259" 
d="M199 0h-139v140h139v-140z" />
    <glyph glyph-name="slash" unicode="/" horiz-adv-x="436" 
d="M173 -11h-128l223 702h129z" />
    <glyph glyph-name="zero" unicode="0" 
d="M58 340q0 109 8 171q7 57 24.5 87t56.5 57q52 36 131 36q78 0 131 -36t74 -103q15 -45 15 -212q0 -116 -7 -171q-7 -57 -25 -87t-57 -57q-52 -36 -131 -36q-78 0 -131 36t-74 103q-15 45 -15 212zM278 107q54 0 69 46q8 29 8 187t-8 187q-15 46 -69 46t-69 -46
q-8 -29 -8 -187t8 -187q15 -46 69 -46z" />
    <glyph glyph-name="one" unicode="1" 
d="M382 0h-140v523l-121 -83v147l129 93h132v-680z" />
    <glyph glyph-name="two" unicode="2" 
d="M391.5 666.5q47.5 -24.5 73.5 -69.5q25 -43 25 -100q0 -83 -69 -165l-181 -213h250v-119h-424v111l244 290q40 46 40 94q0 35 -20 56.5t-54 21.5q-36 0 -57 -22.5t-24 -67.5l-129 21q2 56 30 98t77 66q51 23 108 23q63 0 110.5 -24.5z" />
    <glyph glyph-name="three" unicode="3" 
d="M431 639.5q57 -51.5 57 -136.5q0 -91 -78 -141q40 -19 65.5 -64t25.5 -102q0 -60 -28 -107t-78 -73q-51 -27 -116 -27q-91 0 -150.5 43.5t-73.5 123.5l130 25q11 -38 33.5 -56t58.5 -18q38 0 61 24.5t23 63.5q0 45 -25.5 70.5t-69.5 25.5h-39v117h37q38 0 61 23t23 62
q0 36 -20.5 58t-56.5 22q-31 0 -51.5 -18.5t-27.5 -53.5l-129 25q12 77 69.5 121t145.5 44q96 0 153 -51.5z" />
    <glyph glyph-name="four" unicode="4" 
d="M322 99h-281v120l210 461h149l-210 -460h132v163h136v-163h61v-121h-61v-99h-136v99z" />
    <glyph glyph-name="five" unicode="5" 
d="M197 173q21 -66 83 -66q65 0 75 54q4 20 4 60q0 41 -5 63t-21 36q-18 15 -53 15q-27 0 -45 -11.5t-29 -37.5h-125v394h400v-119h-277v-143q38 35 105 35q138 0 175 -115q14 -48 14 -116q0 -70 -20.5 -119.5t-67.5 -79.5q-52 -34 -128 -34q-89 0 -145.5 42t-64.5 117z" />
    <glyph glyph-name="six" unicode="6" 
d="M100 371l169 309h147l-151 -277q18 8 46 8q83 0 138 -57q57 -55 57 -148q0 -64 -29 -113.5t-81 -76.5t-118 -27t-118 26.5t-81 75.5t-29 112q0 76 50 168zM343.5 269.5q-24.5 26.5 -65.5 26.5t-65.5 -26.5t-24.5 -68.5t24.5 -68t65.5 -26t65.5 26t24.5 68t-24.5 68.5z
" />
    <glyph glyph-name="seven" unicode="7" 
d="M274 0h-145l221 558h-150v-87h-131v209h427v-121z" />
    <glyph glyph-name="eight" unicode="8" 
d="M130 356q-30 21 -48.5 58t-18.5 79q0 56 26.5 101t75.5 71q50 26 113 26t112.5 -25.5t76.5 -71.5q26 -46 26 -101q0 -43 -18 -79t-50 -58q83 -56 83 -160q0 -61 -28.5 -108t-81.5 -73q-54 -26 -120 -26t-118.5 26t-81.5 73q-30 47 -30 108q0 103 82 160zM333.5 437
q22.5 23 22.5 56q0 34 -21.5 57t-56.5 23t-56.5 -23t-21.5 -57q0 -33 22.5 -56t55.5 -23t55.5 23zM211.5 133.5q25.5 -26.5 66.5 -26.5t66.5 26.5t25.5 68.5q0 41 -25.5 67.5t-66.5 26.5t-66.5 -26.5t-25.5 -67.5q0 -42 25.5 -68.5z" />
    <glyph glyph-name="nine" unicode="9" 
d="M291 277q-19 -8 -46 -8q-80 0 -139 56q-56 59 -56 149q0 64 29.5 114t81.5 77q52 26 117 26q66 0 118 -26.5t81 -74.5q29 -50 29 -113q0 -76 -50 -168l-169 -309h-147zM212.5 410.5q24.5 -26.5 65.5 -26.5t65.5 26.5t24.5 68.5t-24.5 68t-65.5 26t-65.5 -26t-24.5 -68
t24.5 -68.5z" />
    <glyph glyph-name="colon" unicode=":" horiz-adv-x="270" 
d="M205 345h-140v139h140v-139zM65 0v140h140v-140h-140z" />
    <glyph glyph-name="semicolon" unicode=";" horiz-adv-x="270" 
d="M205 345h-140v139h140v-139zM69 -127v267h133v-144z" />
    <glyph glyph-name="less" unicode="&#x3c;" 
d="M505 46l-454 178v104l454 178v-128l-278 -102l278 -102v-128z" />
    <glyph glyph-name="equal" unicode="=" 
d="M505 322h-454v118h454v-118zM505 112h-454v118h454v-118z" />
    <glyph glyph-name="greater" unicode="&#x3e;" 
d="M505 224l-454 -178v129l278 101l-278 102v128l454 -178v-104z" />
    <glyph glyph-name="question" unicode="?" horiz-adv-x="473" 
d="M340 667.5q46 -23.5 72 -64.5t26 -92q0 -31 -7.5 -53.5t-31.5 -57.5q-30 -43 -81 -107q-20 -26 -20 -60v-34h-136v52q0 46 29 84l70 91q38 47 38 80q0 29 -18 47.5t-48 18.5q-33 0 -51.5 -19.5t-25.5 -61.5l-129 19q10 86 66 133.5t144 47.5q57 0 103 -23.5zM160 134h140
v-134h-140v134z" />
    <glyph glyph-name="at" unicode="@" horiz-adv-x="910" 
d="M747 557q114 -111 114 -289q0 -99 -47.5 -157t-130.5 -58q-47 0 -78 16t-52 50q-35 -65 -134 -65q-66 0 -102 28.5t-46 75.5q-9 44 -9 107q0 62 9 106t42 74.5t98 30.5q77 0 109 -53v42h112v-252q0 -30 14.5 -46.5t38.5 -16.5q65 0 65 117q0 139 -81 221q-79 84 -217 84
q-90 0 -157.5 -37.5t-103.5 -106.5q-37 -70 -37 -163q0 -90 36.5 -158.5t104.5 -106.5t157 -38q116 0 216 52l46 -82q-59 -36 -122 -52t-140 -16q-120 0 -213 50.5t-144 142.5q-52 91 -52 208t51.5 209.5t144.5 143.5q92 51 213 51q183 0 295 -112zM391 351.5
q-15 -26.5 -15 -86.5t14.5 -86.5t57.5 -26.5q58 0 68 50q4 20 4 63q0 42 -5 64.5t-19 35.5q-16 13 -48 13q-42 0 -57 -26.5z" />
    <glyph glyph-name="A" unicode="A" horiz-adv-x="644" 
d="M165 0h-152l241 680h146l237 -680h-151l-42 129h-238zM325 497l-78 -243h157z" />
    <glyph glyph-name="B" unicode="B" horiz-adv-x="610" 
d="M65 680h275q105 0 161 -47t56 -134q0 -102 -81 -146q40 -15 66.5 -58t26.5 -97q0 -98 -60.5 -148t-175.5 -50h-268v680zM322 402q42 0 65.5 21t23.5 59q0 37 -23.5 58t-65.5 21h-110v-159h110zM330 119q45 0 68.5 22.5t23.5 62.5t-24 62.5t-68 22.5h-118v-170h118z" />
    <glyph glyph-name="C" unicode="C" horiz-adv-x="575" 
d="M155.5 32q-62.5 43 -89.5 124q-19 51 -19 184q0 90 10 146.5t34 94.5q28 46 81.5 78t135.5 32q99 0 166 -53t87 -153h-151q-13 40 -37 58t-64 18q-49 0 -74 -23t-32 -69q-7 -42 -7 -129q0 -89 7.5 -132t31.5 -65q24 -24 74 -24q72 0 96 69h153q-24 -100 -88 -149.5
t-162 -49.5q-90 0 -152.5 43z" />
    <glyph glyph-name="D" unicode="D" horiz-adv-x="630" 
d="M65 680h263q110 0 167.5 -42.5t72.5 -116.5q13 -66 13 -181q0 -83 -5.5 -134.5t-23.5 -91t-53 -68.5q-55 -46 -171 -46h-263v680zM295 131q63 0 93 20.5t37 61.5q7 35 7 116v32q0 78 -8 113t-36 55q-31 20 -93 20h-83v-418h83z" />
    <glyph glyph-name="E" unicode="E" horiz-adv-x="565" 
d="M521 0h-456v680h456v-127h-309v-147h260v-126h-260v-153h309v-127z" />
    <glyph glyph-name="F" unicode="F" horiz-adv-x="557" 
d="M212 0h-147v680h456v-127h-309v-155h260v-126h-260v-272z" />
    <glyph glyph-name="G" unicode="G" horiz-adv-x="628" 
d="M157 31.5q-65 42.5 -91 122.5q-19 56 -19 186q0 91 9.5 147.5t33.5 94.5q24 39 67 67q64 42 159 42q105 0 172.5 -52t85.5 -154h-150q-24 76 -108 76q-53 0 -79.5 -22.5t-33.5 -68.5q-7 -42 -7 -130q0 -89 7 -130q7 -46 33.5 -68.5t81.5 -22.5q40 0 69.5 18.5t39.5 51.5
q8 32 8 73h-108v116h254v-66q0 -109 -23.5 -172.5t-84.5 -105.5q-66 -45 -157 -45q-94 0 -159 42.5z" />
    <glyph glyph-name="H" unicode="H" horiz-adv-x="658" 
d="M212 0h-147v680h147v-271h234v271h147v-680h-147v278h-234v-278z" />
    <glyph glyph-name="I" unicode="I" horiz-adv-x="277" 
d="M212 0h-147v680h147v-680z" />
    <glyph glyph-name="J" unicode="J" horiz-adv-x="521" 
d="M98 15q-54 26 -78 70l107 82q36 -48 90 -48q48 0 74 30.5t26 87.5v443h147v-436q0 -123 -65 -189t-183 -66q-64 0 -118 26z" />
    <glyph glyph-name="K" unicode="K" horiz-adv-x="645" 
d="M212 0h-147v680h147v-304l233 304h169l-216 -271l232 -409h-170l-159 295l-89 -112v-183z" />
    <glyph glyph-name="L" unicode="L" horiz-adv-x="550" 
d="M528 0h-463v680h147v-549h316v-131z" />
    <glyph glyph-name="M" unicode="M" horiz-adv-x="763" 
d="M198 0h-133v680h141l178 -403l175 403h139v-680h-133v402l-136 -309h-95l-136 309v-402z" />
    <glyph glyph-name="N" unicode="N" horiz-adv-x="655" 
d="M198 0h-133v680h141l251 -447v447h133v-680h-140l-252 446v-446z" />
    <glyph glyph-name="O" unicode="O" horiz-adv-x="628" 
d="M156.5 31.5q-64.5 42.5 -90.5 122.5q-19 56 -19 186q0 91 9.5 147.5t33.5 94.5q28 46 83.5 77.5t140.5 31.5q93 0 157.5 -42.5t90.5 -122.5q19 -56 19 -186q0 -91 -9.5 -147t-33.5 -94q-28 -46 -83.5 -78t-140.5 -32q-93 0 -157.5 42.5zM392 141.5q26 22.5 33 69.5
q7 41 7 129q0 90 -7.5 132.5t-31.5 65.5q-26 23 -79 23q-52 0 -78 -22.5t-33 -68.5q-7 -42 -7 -130q0 -90 7.5 -132.5t31.5 -64.5q26 -24 79 -24q52 0 78 22.5z" />
    <glyph glyph-name="P" unicode="P" horiz-adv-x="605" 
d="M65 680h274q71 0 125 -26.5t83 -76.5t29 -116q0 -101 -64 -159.5t-173 -58.5h-127v-243h-147v680zM330 370q46 0 72.5 24.5t26.5 66.5t-26.5 67t-72.5 25h-118v-183h118z" />
    <glyph glyph-name="Q" unicode="Q" horiz-adv-x="628" 
d="M528 -57l-77 77q-58 -31 -137 -31q-93 0 -157.5 42.5t-90.5 122.5q-19 56 -19 186q0 91 9.5 147.5t33.5 94.5q28 46 83.5 77.5t140.5 31.5q93 0 157.5 -42.5t90.5 -122.5q19 -56 19 -186t-19 -186q-9 -27 -17 -41l78 -77zM349 123l-49 49l95 90l33 -32q4 41 4 110
q0 90 -7.5 132.5t-31.5 65.5q-26 23 -79 23q-52 0 -78 -22.5t-33 -68.5q-7 -42 -7 -130q0 -90 7.5 -132.5t31.5 -64.5q26 -24 79 -24q23 0 35 4z" />
    <glyph glyph-name="R" unicode="R" horiz-adv-x="624" 
d="M65 680h281q66 0 118.5 -26t82.5 -74t30 -111q0 -65 -32 -114.5t-89 -74.5l140 -280h-165l-122 259h-97v-259h-147v680zM338 384q42 0 67 23t25 62q0 38 -25 61t-67 23h-126v-169h126z" />
    <glyph glyph-name="S" unicode="S" horiz-adv-x="595" 
d="M152 15q-80 31 -122 75l91 104q92 -77 186 -77q51 0 81 22t30 59q0 33 -24 50.5t-81 25.5l-36 5q-215 30 -215 204q0 96 65.5 152t175.5 56q74 0 131.5 -18t107.5 -59l-73 -108q-39 27 -82.5 42t-83.5 15q-42 0 -66.5 -20t-24.5 -54q0 -31 25 -49t81 -26l36 -5
q214 -28 214 -206q0 -99 -71 -156.5t-196 -57.5q-73 0 -149 26z" />
    <glyph glyph-name="T" unicode="T" horiz-adv-x="557" 
d="M352 0h-147v549h-188v131h523v-131h-188v-549z" />
    <glyph glyph-name="U" unicode="U" horiz-adv-x="645" 
d="M131 57.5q-69 68.5 -69 192.5v430h147v-434q0 -59 31 -93t83 -34t82.5 33.5t30.5 93.5v434h147v-430q0 -122 -69.5 -191.5t-190.5 -69.5q-123 0 -192 68.5z" />
    <glyph glyph-name="V" unicode="V" horiz-adv-x="595" 
d="M368 0h-135l-223 680h153l140 -461l137 461h150z" />
    <glyph glyph-name="W" unicode="W" horiz-adv-x="865" 
d="M677 0h-120l-122 436l-123 -436h-119l-182 680h150l101 -441l120 441h106l124 -441l97 441h149z" />
    <glyph glyph-name="X" unicode="X" horiz-adv-x="595" 
d="M591 0h-163l-129 220l-129 -220h-162l210 351l-196 329h162l116 -197l115 197h162l-197 -329z" />
    <glyph glyph-name="Y" unicode="Y" horiz-adv-x="568" 
d="M361 0h-147v271l-206 409h152l130 -261l129 261h148l-206 -409v-271z" />
    <glyph glyph-name="Z" unicode="Z" horiz-adv-x="546" 
d="M506 0h-466v126l297 423h-286v131h455v-126l-298 -423h298v-131z" />
    <glyph glyph-name="bracketleft" unicode="[" horiz-adv-x="302" 
d="M274 -84h-210v824h210v-104h-86v-616h86v-104z" />
    <glyph glyph-name="backslash" unicode="\" horiz-adv-x="436" 
d="M397 -11h-129l-223 702h128z" />
    <glyph glyph-name="bracketright" unicode="]" horiz-adv-x="302" 
d="M28 740h210v-824h-210v104h86v616h-86v104z" />
    <glyph glyph-name="asciicircum" unicode="^" 
d="M513 253h-130l-102 261l-103 -261h-129l179 427h106z" />
    <glyph glyph-name="underscore" unicode="_" horiz-adv-x="520" 
d="M520 -64v-88h-520v88h520z" />
    <glyph glyph-name="grave" unicode="`" horiz-adv-x="454" 
d="M340 551h-115l-113 150l140 1z" />
    <glyph glyph-name="a" unicode="a" horiz-adv-x="528" 
d="M337 43q-40 -54 -134 -54q-74 0 -117.5 39.5t-43.5 108.5q0 75 52.5 115.5t148.5 40.5h92v24q0 36 -22 51t-77 15q-73 0 -116 -37l-55 96q34 26 82 39.5t106 13.5q116 0 165.5 -41t49.5 -134v-320h-131v43zM335 161v39h-74q-86 0 -86 -55q0 -51 70 -51q90 0 90 67z" />
    <glyph glyph-name="b" unicode="b" horiz-adv-x="551" 
d="M203 438q38 57 128 57q74 0 115.5 -35.5t54.5 -94.5q11 -57 11 -123q0 -77 -13 -128t-50 -87q-41 -38 -118 -38q-91 0 -128 58v-47h-140v680h140v-242zM208 314q-5 -32 -5 -72q0 -71 17 -103t66 -32q67 0 79 63q5 32 5 72q0 48 -5.5 74.5t-22.5 43.5q-20 17 -56 17
q-66 0 -78 -63z" />
    <glyph glyph-name="c" unicode="c" horiz-adv-x="481" 
d="M59.5 375.5q20.5 51.5 70.5 84.5q56 35 133 35q61 0 110 -25.5t79 -73.5l-104 -69q-32 50 -83 50q-67 0 -79 -61q-5 -32 -5 -74q0 -50 5.5 -76t23.5 -42q19 -17 55 -17q50 0 83 50l104 -69q-30 -47 -79.5 -73t-109.5 -26q-79 0 -133.5 35.5t-75.5 101.5q-15 44 -15 116
q0 82 20.5 133.5z" />
    <glyph glyph-name="d" unicode="d" horiz-adv-x="551" 
d="M348 47q-39 -58 -128 -58q-74 0 -115.5 35.5t-53.5 94.5q-12 54 -12 123q0 77 13 128t50 87q41 38 118 38q88 0 128 -58v243h140v-680h-140v47zM331 139q17 32 17 103q0 48 -5.5 74.5t-22.5 43.5q-20 17 -55 17q-67 0 -79 -63q-5 -32 -5 -72q0 -48 5.5 -74.5t23.5 -42.5
q18 -18 55 -18q49 0 66 32z" />
    <glyph glyph-name="e" unicode="e" horiz-adv-x="527" 
d="M132.5 25q-55.5 36 -76.5 102q-17 56 -17 115q0 79 21.5 131.5t70.5 85.5q55 36 132 36q78 0 133 -36t76 -100q17 -60 16 -159h-311q2 -18 7 -33q19 -64 100 -64q71 0 118 50l81 -76q-81 -88 -213 -88q-82 0 -137.5 36zM350 293q0 20 -5 42q-18 53 -81 53t-81 -53
q-5 -22 -5 -42h172z" />
    <glyph glyph-name="f" unicode="f" horiz-adv-x="339" 
d="M81 381h-46v103h46v29q0 87 41 127t129 40h65v-114h-41q-33 0 -44 -10.5t-11 -41.5v-30h95v-103h-95v-381h-139v381z" />
    <glyph glyph-name="g" unicode="g" horiz-adv-x="543" 
d="M130 -170q-51 21 -80 59l85 87q49 -49 108 -49q97 0 97 107v43q-34 -58 -125 -58q-101 0 -139.5 63t-38.5 175q0 114 38.5 176t139.5 62q91 0 125 -58v47h140v-432q0 -243 -241 -243q-58 0 -109 21zM323 167q17 30 17 90t-17 90t-64 30q-48 0 -64.5 -34.5t-16.5 -86.5
q0 -35 9 -67q18 -52 72 -52q47 0 64 30z" />
    <glyph glyph-name="h" unicode="h" horiz-adv-x="553" 
d="M354 288q0 42 -19.5 65t-55.5 23t-56 -24t-20 -64v-288h-140v680h140v-241q41 56 126 56q77 0 121 -48.5t44 -131.5v-315h-140v288z" />
    <glyph glyph-name="i" unicode="i" horiz-adv-x="266" 
d="M203 561h-140v119h140v-119zM203 0h-140v484h140v-484z" />
    <glyph glyph-name="j" unicode="j" horiz-adv-x="266" 
d="M203 561h-140v119h140v-119zM-21 -62h30q30 0 42 12t12 44v490h140v-489q0 -175 -181 -175h-43v118z" />
    <glyph glyph-name="k" unicode="k" horiz-adv-x="531" 
d="M520 0h-154l-113 205l-50 -62v-143h-140v680h140v-377l147 181h152l-157 -181z" />
    <glyph glyph-name="l" unicode="l" horiz-adv-x="304" 
d="M211 -6q-80 0 -115 36.5t-35 117.5v532h140v-521q0 -46 42 -46h31v-119h-63z" />
    <glyph glyph-name="m" unicode="m" horiz-adv-x="844" 
d="M645 288q0 42 -20 65t-56 23q-35 0 -55 -24t-20 -64v-288h-140v288q0 42 -19.5 65t-55.5 23t-56 -24t-20 -64v-288h-140v484h140v-45q41 56 126 56q45 0 76.5 -15t53.5 -47q59 62 153 62q82 0 127.5 -48t45.5 -132v-315h-140v288z" />
    <glyph glyph-name="n" unicode="n" horiz-adv-x="553" 
d="M63 484h140v-45q41 56 126 56q77 0 121 -48.5t44 -131.5v-315h-140v288q0 42 -19.5 65t-55.5 23t-56 -24t-20 -64v-288h-140v484z" />
    <glyph glyph-name="o" unicode="o" horiz-adv-x="530" 
d="M131.5 24.5q-55.5 35.5 -76.5 100.5q-16 47 -16 117q0 78 21.5 131.5t71.5 86.5q56 35 133 35q78 0 133.5 -35.5t76.5 -100.5q16 -47 16 -117q0 -79 -21 -132t-71 -85q-55 -36 -134 -36q-78 0 -133.5 35.5zM344 170q5 32 5 72q0 48 -5.5 74.5t-22.5 43.5q-20 17 -56 17
q-67 0 -79 -63q-5 -32 -5 -72q0 -48 5.5 -74.5t23.5 -42.5q18 -18 55 -18q67 0 79 63z" />
    <glyph glyph-name="p" unicode="p" horiz-adv-x="551" 
d="M63 484h140v-46q38 57 128 57q74 0 115.5 -35.5t54.5 -94.5q11 -57 11 -123q0 -77 -13 -128t-50 -87q-41 -38 -118 -38q-90 0 -128 57v-226h-140v664zM365 170q5 32 5 72q0 48 -5.5 74.5t-22.5 43.5q-20 17 -56 17q-66 0 -78 -63q-5 -32 -5 -72q0 -71 17 -103t66 -32
q67 0 79 63z" />
    <glyph glyph-name="q" unicode="q" horiz-adv-x="551" 
d="M348 46q-39 -57 -128 -57q-74 0 -115.5 35.5t-53.5 94.5q-12 54 -12 123q0 77 13 128t50 87q41 38 118 38q89 0 128 -57v46h140v-664h-140v226zM331 139q17 32 17 103q0 48 -5.5 74.5t-22.5 43.5q-20 17 -55 17q-67 0 -79 -63q-5 -32 -5 -72q0 -48 5.5 -74.5t23.5 -42.5
q18 -18 55 -18q49 0 66 32z" />
    <glyph glyph-name="r" unicode="r" horiz-adv-x="426" 
d="M63 484h140v-53q37 64 127 64q52 0 93 -35l-65 -118q-40 28 -76 28q-79 0 -79 -105v-265h-140v484z" />
    <glyph glyph-name="s" unicode="s" horiz-adv-x="505" 
d="M464 429l-69 -85q-68 44 -139 44q-61 0 -61 -40q0 -18 15 -27q14 -9 52 -13l53 -6q81 -9 121.5 -47t40.5 -94q0 -37 -16.5 -72t-42.5 -55q-57 -45 -158 -45q-69 0 -124 19.5t-103 61.5l77 87q77 -59 157 -59q75 0 75 46q0 19 -15.5 28.5t-53.5 13.5l-54 6
q-78 8 -118 45.5t-40 102.5q0 72 53 113.5t146 41.5q122 0 204 -66z" />
    <glyph glyph-name="t" unicode="t" horiz-adv-x="331" 
d="M227 -6q-83 0 -118.5 38t-35.5 123v226h-46v103h46v156h139v-156h78v-103h-78v-220q0 -27 10 -37.5t34 -10.5h34v-119h-63z" />
    <glyph glyph-name="u" unicode="u" horiz-adv-x="549" 
d="M346 46q-42 -57 -125 -57q-76 0 -119.5 48.5t-43.5 131.5v315h140v-288q0 -41 19.5 -64.5t54.5 -23.5t54.5 23.5t19.5 64.5v288h140v-484h-140v46z" />
    <glyph glyph-name="v" unicode="v" horiz-adv-x="508" 
d="M320 0h-126l-180 484h148l98 -300l94 300h146z" />
    <glyph glyph-name="w" unicode="w" horiz-adv-x="763" 
d="M590 0h-118l-87 294l-89 -294h-117l-161 484h144l84 -302l87 302h105l89 -302l80 302h144z" />
    <glyph glyph-name="x" unicode="x" horiz-adv-x="515" 
d="M510 0h-154l-93 142l-93 -142h-153l170 251l-158 233h155l79 -124l81 124h154l-158 -233z" />
    <glyph glyph-name="y" unicode="y" horiz-adv-x="507" 
d="M86 -180v118h31q26 0 41.5 11.5t24.5 38.5l13 36l-184 460h149l101 -293l94 293h145l-200 -525q-30 -78 -68 -108.5t-103 -30.5h-44z" />
    <glyph glyph-name="z" unicode="z" horiz-adv-x="490" 
d="M444 115v-115h-398v107l235 262h-222v115h385v-112l-233 -257h233z" />
    <glyph glyph-name="braceleft" unicode="{" horiz-adv-x="357" 
d="M252 -84q-61 0 -93.5 31.5t-32.5 91.5v153q0 42 -18.5 61.5t-60.5 19.5v114q42 0 60.5 19.5t18.5 61.5v149q0 60 32.5 91.5t93.5 31.5h77v-104h-38q-42 0 -42 -43v-137q0 -56 -17 -84t-58 -42q42 -14 58.5 -42t16.5 -85v-140q0 -43 42 -43h38v-104h-77z" />
    <glyph glyph-name="bar" unicode="|" horiz-adv-x="335" 
d="M227 -84h-119v824h119v-824z" />
    <glyph glyph-name="braceright" unicode="}" horiz-adv-x="357" 
d="M105 740q61 0 93.5 -31.5t32.5 -91.5v-149q0 -42 18.5 -61.5t60.5 -19.5v-114q-42 0 -60.5 -19.5t-18.5 -61.5v-153q0 -60 -32.5 -91.5t-93.5 -31.5h-77v104h38q42 0 42 43v140q0 56 16.5 84t58.5 43q-42 15 -58.5 42t-16.5 84v137q0 43 -42 43h-38v104h77z" />
    <glyph glyph-name="asciitilde" unicode="~" 
d="M45 246q22 53 62.5 83.5t86.5 30.5q49 0 105 -35q37 -25 65 -25q21 0 39 14.5t30 43.5l85 -52q-21 -53 -61.5 -84t-86.5 -31q-49 0 -105 35q-37 25 -65 25q-21 0 -39 -14.5t-30 -43.5z" />
    <glyph glyph-name="uni00A0" unicode="&#xa0;" horiz-adv-x="236" 
 />
    <glyph glyph-name="exclamdown" unicode="&#xa1;" horiz-adv-x="312" 
d="M226 484v-134h-140v134h140zM105 285h101l25 -481h-150z" />
    <glyph glyph-name="cent" unicode="&#xa2;" 
d="M329 111q30 10 55 46l104 -69q-26 -41 -67 -66t-92 -31v-89h-65v89q-66 8 -110.5 42.5t-63.5 92.5q-15 44 -15 116q0 77 18.5 126.5t60.5 82.5q45 34 110 42v89h65v-89q51 -5 91.5 -30t67.5 -67l-104 -69q-22 34 -55 46v-262zM264 114v256q-27 -12 -37 -40t-10 -88
q0 -57 9 -83q10 -33 38 -45z" />
    <glyph glyph-name="sterling" unicode="&#xa3;" 
d="M82 0v114q23 21 31 39.5t8 51.5v64h-57v99h57v128q0 93 50 144t140 51q74 0 122 -38.5t60 -107.5l-129 -28q-8 56 -52 56q-50 0 -50 -61v-144h137v-99h-137v-49q0 -67 -28 -101h257v-119h-409z" />
    <glyph glyph-name="currency" unicode="&#xa4;" 
d="M384 125q-43 -25 -99 -25q-57 0 -100 25l-66 -66l-82 83l66 66q-23 44 -23 97q0 51 24 97l-67 67l82 83l66 -67q46 25 100 25q56 0 99 -25l67 67l82 -83l-67 -67q25 -46 25 -99q0 -51 -24 -95l67 -67l-83 -83zM285 203q42 0 70.5 28.5t28.5 73.5t-28.5 73.5t-70.5 28.5
t-70 -28.5t-28 -73.5q0 -44 27 -73q29 -29 71 -29z" />
    <glyph glyph-name="yen" unicode="&#xa5;" 
d="M352 0h-140v131h-132v82h132v46h-132v82h103l-154 339h150l105 -272l104 272h147l-154 -339h103v-82h-132v-46h132v-82h-132v-131z" />
    <glyph glyph-name="brokenbar" unicode="&#xa6;" horiz-adv-x="335" 
d="M227 388h-119v352h119v-352zM227 -84h-119v356h119v-356z" />
    <glyph glyph-name="section" unicode="&#xa7;" horiz-adv-x="558" 
d="M142 -151q-50 40 -55 112l120 21q3 -35 19.5 -51t46.5 -16q31 0 48 15.5t17 41.5q0 34 -24 53.5t-85 34.5q-156 41 -156 191q0 51 23.5 91t65.5 62q-65 42 -65 126q0 45 24 82t66 58t95 21q83 0 133.5 -42t52.5 -111l-119 -21q-5 68 -64 68q-28 0 -44.5 -15t-16.5 -41
q0 -32 23.5 -51t81.5 -34q156 -42 156 -191q0 -50 -24.5 -91t-64.5 -62q36 -21 52 -52.5t16 -80.5q0 -45 -23.5 -81t-66.5 -56q-43 -21 -98 -21q-84 0 -134 40zM337 191q21 23 21 61t-21.5 61t-57.5 23q-37 0 -58 -23t-21 -61q0 -40 20.5 -62t58.5 -22q37 0 58 23z" />
    <glyph glyph-name="dieresis" unicode="&#xa8;" horiz-adv-x="454" 
d="M183 561h-112v119h112v-119zM384 561h-113v119h113v-119z" />
    <glyph glyph-name="copyright" unicode="&#xa9;" horiz-adv-x="811" 
d="M405 -11q-98 0 -178.5 45.5t-126.5 126.5q-46 79 -46 179q0 98 46 178.5t127 126.5q79 46 178 46t179.5 -45.5t126.5 -126.5q46 -80 46 -179q0 -150 -101 -251q-100 -100 -251 -100zM405 69q75 0 136.5 35t96.5 97t35 139t-35 138.5t-96 97.5q-62 35 -137 35t-136 -35
t-96 -97t-35 -139q0 -118 76 -194q77 -77 191 -77zM308.5 172q-43.5 28 -61.5 82q-10 27 -10 86q0 63 16 103t56 66q43 28 106 28q50 0 86.5 -18.5t62.5 -58.5l-81 -53q-29 39 -66 39q-58 0 -66 -47q-4 -20 -4 -59t4.5 -59.5t18.5 -32.5q14 -13 47 -13q37 0 66 39l80 -53
q-21 -38 -59.5 -57.5t-88.5 -19.5q-63 0 -106.5 28z" />
    <glyph glyph-name="ordfeminine" unicode="&#xaa;" horiz-adv-x="356" 
d="M219 416q-26 -29 -83 -29q-46 0 -74 23t-28 64q0 47 33 71.5t96 24.5h55v12q0 28 -58 28q-42 0 -75 -21l-40 68q49 31 127 31q77 0 110.5 -25t33.5 -80v-191h-97v24zM218 493v14h-48q-40 0 -40 -25q0 -24 35 -24q53 0 53 35z" />
    <glyph glyph-name="guillemotleft" unicode="&#xab;" horiz-adv-x="563" 
d="M265 28l-237 236l237 236v-141l-96 -95l96 -95v-141zM509 28l-237 236l237 236v-141l-96 -95l96 -95v-141z" />
    <glyph glyph-name="logicalnot" unicode="&#xac;" 
d="M505 84h-122v133h-332v118h454v-251z" />
    <glyph glyph-name="uni00AD" unicode="&#xad;" horiz-adv-x="392" 
d="M350 204h-308v122h308v-122z" />
    <glyph glyph-name="registered" unicode="&#xae;" horiz-adv-x="811" 
d="M584.5 645.5q80.5 -45.5 126.5 -126.5q46 -80 46 -179q0 -98 -45.5 -178.5t-126.5 -126.5q-80 -46 -180 -46q-98 0 -178.5 45.5t-126.5 126.5q-46 79 -46 179q0 98 46 178.5t127 126.5q79 46 178 46t179.5 -45.5zM269 576q-61 -35 -96 -97t-35 -139t35 -138.5t96 -97.5
q62 -35 136 -35q75 0 136.5 35t96.5 97t35 139t-35 138.5t-96 97.5q-62 35 -137 35t-136 -35zM427 529q59 0 96 -33t37 -88q0 -37 -18.5 -66t-50.5 -43l80 -161h-95l-70 149h-56v-149h-84v391h161zM350 456v-97h73q24 0 38.5 13.5t14.5 35.5t-14.5 35t-38.5 13h-73z" />
    <glyph glyph-name="overscore" unicode="&#xaf;" horiz-adv-x="454" 
d="M378 575h-303v95h303v-95z" />
    <glyph glyph-name="degree" unicode="&#xb0;" horiz-adv-x="438" 
d="M219 387q-43 0 -78 20t-55 55t-20 78t20 77.5t55 54.5t78 20t78 -20t55 -55t20 -77q0 -65 -44 -109t-109 -44zM169.5 592q-18.5 -20 -19.5 -51q0 -33 19 -53.5t50 -20.5t50 20.5t19 52.5q0 33 -18.5 52.5t-51.5 19.5q-30 0 -48.5 -20z" />
    <glyph glyph-name="plusminus" unicode="&#xb1;" 
d="M339 170h-122v167h-166v118h166v167h122v-167h166v-118h-166v-167zM505 0h-454v118h454v-118z" />
    <glyph glyph-name="uni00B2" unicode="&#xb2;" horiz-adv-x="358" 
d="M281.5 810.5q37.5 -33.5 37.5 -86.5q0 -61 -48 -106l-97 -99h146v-89h-281v85l152 155q25 25 25 50q0 37 -37 37q-39 0 -43 -49l-97 17q2 52 42 85.5t102 33.5q61 0 98.5 -33.5z" />
    <glyph glyph-name="uni00B3" unicode="&#xb3;" horiz-adv-x="358" 
d="M80.5 450q-39.5 28 -46.5 79l95 19q14 -39 50 -39q20 0 32 11.5t12 30.5q0 43 -50 43h-27v86h24q44 0 44 38q0 39 -39 39q-31 0 -44 -34l-93 18q9 49 46.5 76t94.5 27q63 0 101 -32t38 -84t-43 -83q23 -9 37.5 -34.5t14.5 -59.5q0 -58 -39.5 -93.5t-104.5 -35.5
q-63 0 -102.5 28z" />
    <glyph glyph-name="acute" unicode="&#xb4;" horiz-adv-x="454" 
d="M233 551h-114l89 150h140z" />
    <glyph glyph-name="uni00B5" unicode="&#xb5;" horiz-adv-x="602" 
d="M331 8.5q-28 -15.5 -74 -15.5q-39 0 -55 16v-189h-140v664h140v-287q0 -42 19 -65t55 -23q38 0 60 25.5t22 71.5v278h140v-337q0 -23 7 -28.5t32 -5.5v-119h-28q-40 0 -62 5.5t-37 19.5q-14 14 -30 43q-21 -38 -49 -53.5z" />
    <glyph glyph-name="paragraph" unicode="&#xb6;" horiz-adv-x="657" 
d="M463 576h-81v-756h-116v418q-60 4 -106.5 33t-72.5 78q-26 50 -26 110q0 64 29 114.5t82 78.5q52 28 124 28h283v-860h-116v756z" />
    <glyph glyph-name="middot" unicode="&#xb7;" horiz-adv-x="259" 
d="M199 195h-139v139h139v-139z" />
    <glyph glyph-name="cedilla" unicode="&#xb8;" horiz-adv-x="454" 
d="M297 -21q0 -69 -39.5 -113.5t-102.5 -44.5v87q26 0 39.5 19t13.5 52h89z" />
    <glyph glyph-name="uni00B9" unicode="&#xb9;" horiz-adv-x="358" 
d="M257 430h-106v293l-76 -47v106l82 54h100v-406z" />
    <glyph glyph-name="ordmasculine" unicode="&#xba;" horiz-adv-x="372" 
d="M35 536q0 39 9 64q28 88 142 88t142 -88q9 -25 9 -64q0 -37 -9 -64q-28 -88 -142 -88t-142 88q-9 27 -9 64zM233 536q0 38 -9 53t-38 15q-28 0 -37.5 -16t-9.5 -52q0 -34 10 -51t37 -17q32 0 42 28q5 13 5 40z" />
    <glyph glyph-name="guillemotright" unicode="&#xbb;" horiz-adv-x="563" 
d="M299 264l-238 -236v140l96 96l-96 95v140zM542 264l-237 -236v140l96 96l-96 95v140z" />
    <glyph glyph-name="onequarter" unicode="&#xbc;" horiz-adv-x="873" 
d="M273 -11h-105l407 702h105zM269 274h-106v293l-76 -47v106l82 54h100v-406zM601 406h111l-122 -262h66v85h99v-85h31v-88h-31v-56h-99v56h-180v85z" />
    <glyph glyph-name="onehalf" unicode="&#xbd;" horiz-adv-x="907" 
d="M575 691h105l-407 -702h-105zM87 626l82 54h100v-406h-106v293l-76 -47v106zM780.5 380.5q37.5 -33.5 37.5 -86.5q0 -61 -48 -106l-97 -99h146v-89h-281v85l152 155q25 25 25 50q0 37 -37 37q-39 0 -43 -49l-97 17q2 52 42 85.5t102 33.5q61 0 98.5 -33.5z" />
    <glyph glyph-name="threequarters" unicode="&#xbe;" horiz-adv-x="941" 
d="M342 -11h-105l407 702h105zM134.5 294q-39.5 28 -46.5 79l95 19q14 -39 50 -39q20 0 32 11.5t12 30.5q0 43 -50 43h-27v86h24q44 0 44 38q0 39 -39 39q-31 0 -44 -34l-93 18q9 49 46.5 76t94.5 27q63 0 101 -32t38 -84t-43 -83q23 -9 37.5 -34.5t14.5 -59.5
q0 -58 -39.5 -93.5t-104.5 -35.5q-63 0 -102.5 28zM824 0h-99v56h-180v85l125 265h111l-122 -262h66v85h99v-85h31v-88h-31v-56z" />
    <glyph glyph-name="questiondown" unicode="&#xbf;" horiz-adv-x="473" 
d="M317 484v-134h-140v134h140zM315 233q0 -46 -29 -84q-48 -60 -73 -95q-21 -29 -28 -44.5t-7 -31.5q0 -29 18 -47.5t48 -18.5q33 0 51.5 19.5t25.5 61.5l129 -19q-11 -87 -66.5 -134t-143.5 -47q-57 0 -103 23.5t-72 64.5t-26 92q0 68 53 130l67 88q20 26 20 60v34h136
v-52z" />
    <glyph glyph-name="Agrave" unicode="&#xc0;" horiz-adv-x="644" 
d="M387 738h-115l-113 150l140 1zM165 0h-152l241 680h146l237 -680h-151l-42 129h-238zM325 497l-78 -243h157z" />
    <glyph glyph-name="Aacute" unicode="&#xc1;" horiz-adv-x="644" 
d="M381 739h-114l89 150h140zM165 0h-152l241 680h146l237 -680h-151l-42 129h-238zM325 497l-78 -243h157z" />
    <glyph glyph-name="Acircumflex" unicode="&#xc2;" horiz-adv-x="644" 
d="M262 747h-105l119 151h96l120 -151h-104l-64 65zM165 0h-152l241 680h146l237 -680h-151l-42 129h-238zM325 497l-78 -243h157z" />
    <glyph glyph-name="Atilde" unicode="&#xc3;" horiz-adv-x="644" 
d="M175 841q15 21 38 33t47 12q33 0 75 -21q33 -18 58 -18q16 0 38.5 10.5t42.5 28.5v-93q-15 -21 -38.5 -33t-47.5 -12q-33 0 -75 21q-31 18 -58 18q-16 0 -38 -10t-42 -28v92zM165 0h-152l241 680h146l237 -680h-151l-42 129h-238zM325 497l-78 -243h157z" />
    <glyph glyph-name="Adieresis" unicode="&#xc4;" horiz-adv-x="644" 
d="M278 760h-110v118h110v-118zM481 760h-110v118h110v-118zM165 0h-152l241 680h146l237 -680h-151l-42 129h-238zM325 497l-78 -243h157z" />
    <glyph glyph-name="Aring" unicode="&#xc5;" horiz-adv-x="644" 
d="M432 820q0 -22 -8 -42.5t-23 -35.5t-35 -22.5t-41 -7.5q-46 0 -77 30q-30 32 -30 77q0 46 30.5 76t76.5 30q21 0 41 -7.5t35 -22.5q31 -31 31 -75zM324 867q-19 0 -33 -14.5t-14 -33.5t13.5 -33.5t34.5 -14.5q19 0 32.5 13.5t13.5 33.5q0 24 -16 37q-13 12 -31 12z
M254 680h146l237 -680h-151l-42 129h-238l-41 -129h-152zM404 254l-79 243l-78 -243h157z" />
    <glyph glyph-name="AE" unicode="&#xc6;" horiz-adv-x="929" 
d="M176 0h-161l327 680h548v-127h-309v-147h260v-126h-260v-153h309v-127h-456v129h-198zM434 559l-141 -305h141v305z" />
    <glyph glyph-name="Ccedilla" unicode="&#xc7;" horiz-adv-x="575" 
d="M474 638q67 -53 87 -153h-151q-13 40 -37 58t-64 18q-49 0 -74 -23t-32 -69q-7 -42 -7 -129q0 -89 7.5 -132t31.5 -65q24 -24 74 -24q72 0 96 69h153q-24 -100 -88 -149.5t-162 -49.5q-90 0 -152.5 43t-89.5 124q-19 51 -19 184q0 90 10 146.5t34 94.5q28 46 81.5 78
t135.5 32q99 0 166 -53zM354 -21q0 -69 -39.5 -113.5t-102.5 -44.5v87q26 0 39.5 19t13.5 52h89z" />
    <glyph glyph-name="Egrave" unicode="&#xc8;" horiz-adv-x="565" 
d="M374 738h-115l-113 150l140 1zM521 0h-456v680h456v-127h-309v-147h260v-126h-260v-153h309v-127z" />
    <glyph glyph-name="Eacute" unicode="&#xc9;" horiz-adv-x="565" 
d="M317 739h-114l89 150h140zM521 0h-456v680h456v-127h-309v-147h260v-126h-260v-153h309v-127z" />
    <glyph glyph-name="Ecircumflex" unicode="&#xca;" horiz-adv-x="565" 
d="M231 747h-105l119 151h96l120 -151h-104l-64 65zM521 0h-456v680h456v-127h-309v-147h260v-126h-260v-153h309v-127z" />
    <glyph glyph-name="Edieresis" unicode="&#xcb;" horiz-adv-x="565" 
d="M246 760h-110v118h110v-118zM449 760h-110v118h110v-118zM521 0h-456v680h456v-127h-309v-147h260v-126h-260v-153h309v-127z" />
    <glyph glyph-name="Igrave" unicode="&#xcc;" horiz-adv-x="277" 
d="M197 738h-115l-113 150l140 1zM212 0h-147v680h147v-680z" />
    <glyph glyph-name="Iacute" unicode="&#xcd;" horiz-adv-x="277" 
d="M192 739h-114l89 150h140zM212 0h-147v680h147v-680z" />
    <glyph glyph-name="Icircumflex" unicode="&#xce;" horiz-adv-x="277" 
d="M77 747h-105l119 151h96l120 -151h-104l-64 65zM212 0h-147v680h147v-680z" />
    <glyph glyph-name="Idieresis" unicode="&#xcf;" horiz-adv-x="277" 
d="M92 760h-110v118h110v-118zM295 760h-110v118h110v-118zM212 0h-147v680h147v-680z" />
    <glyph glyph-name="Eth" unicode="&#xd0;" horiz-adv-x="628" 
d="M65 289h-41v108h41v283h263q110 0 167.5 -42.5t72.5 -116.5q13 -66 13 -181q0 -83 -5.5 -134.5t-23.5 -91t-53 -68.5q-55 -46 -171 -46h-263v289zM295 131q63 0 93 20.5t37 61.5q7 35 7 116v32q0 78 -8 113t-36 55q-31 20 -93 20h-83v-152h99v-108h-99v-158h83z" />
    <glyph glyph-name="Ntilde" unicode="&#xd1;" horiz-adv-x="655" 
d="M477 793q-15 -21 -38.5 -33t-47.5 -12q-33 0 -75 21q-31 18 -58 18q-16 0 -38 -10t-42 -28v92q15 21 38 33t47 12q33 0 75 -21q33 -18 58 -18q16 0 38.5 10.5t42.5 28.5v-93zM457 680h133v-680h-140l-252 446v-446h-133v680h141l251 -447v447z" />
    <glyph glyph-name="Ograve" unicode="&#xd2;" horiz-adv-x="628" 
d="M390 738h-115l-113 150l140 1zM156.5 31.5q-64.5 42.5 -90.5 122.5q-19 56 -19 186q0 91 9.5 147.5t33.5 94.5q28 46 83.5 77.5t140.5 31.5q93 0 157.5 -42.5t90.5 -122.5q19 -56 19 -186q0 -91 -9.5 -147t-33.5 -94q-28 -46 -83.5 -78t-140.5 -32q-93 0 -157.5 42.5z
M392 141.5q26 22.5 33 69.5q7 41 7 129q0 90 -7.5 132.5t-31.5 65.5q-26 23 -79 23q-52 0 -78 -22.5t-33 -68.5q-7 -42 -7 -130q0 -90 7.5 -132.5t31.5 -64.5q26 -24 79 -24q52 0 78 22.5z" />
    <glyph glyph-name="Oacute" unicode="&#xd3;" horiz-adv-x="628" 
d="M354 739h-114l89 150h140zM156.5 31.5q-64.5 42.5 -90.5 122.5q-19 56 -19 186q0 91 9.5 147.5t33.5 94.5q28 46 83.5 77.5t140.5 31.5q93 0 157.5 -42.5t90.5 -122.5q19 -56 19 -186q0 -91 -9.5 -147t-33.5 -94q-28 -46 -83.5 -78t-140.5 -32q-93 0 -157.5 42.5z
M392 141.5q26 22.5 33 69.5q7 41 7 129q0 90 -7.5 132.5t-31.5 65.5q-26 23 -79 23q-52 0 -78 -22.5t-33 -68.5q-7 -42 -7 -130q0 -90 7.5 -132.5t31.5 -64.5q26 -24 79 -24q52 0 78 22.5z" />
    <glyph glyph-name="Ocircumflex" unicode="&#xd4;" horiz-adv-x="628" 
d="M251 747h-105l119 151h96l120 -151h-104l-64 65zM156.5 31.5q-64.5 42.5 -90.5 122.5q-19 56 -19 186q0 91 9.5 147.5t33.5 94.5q28 46 83.5 77.5t140.5 31.5q93 0 157.5 -42.5t90.5 -122.5q19 -56 19 -186q0 -91 -9.5 -147t-33.5 -94q-28 -46 -83.5 -78t-140.5 -32
q-93 0 -157.5 42.5zM392 141.5q26 22.5 33 69.5q7 41 7 129q0 90 -7.5 132.5t-31.5 65.5q-26 23 -79 23q-52 0 -78 -22.5t-33 -68.5q-7 -42 -7 -130q0 -90 7.5 -132.5t31.5 -64.5q26 -24 79 -24q52 0 78 22.5z" />
    <glyph glyph-name="Otilde" unicode="&#xd5;" horiz-adv-x="628" 
d="M164 841q15 21 38 33t47 12q33 0 75 -21q33 -18 58 -18q16 0 38.5 10.5t42.5 28.5v-93q-15 -21 -38.5 -33t-47.5 -12q-33 0 -75 21q-31 18 -58 18q-16 0 -38 -10t-42 -28v92zM156.5 31.5q-64.5 42.5 -90.5 122.5q-19 56 -19 186q0 91 9.5 147.5t33.5 94.5
q28 46 83.5 77.5t140.5 31.5q93 0 157.5 -42.5t90.5 -122.5q19 -56 19 -186q0 -91 -9.5 -147t-33.5 -94q-28 -46 -83.5 -78t-140.5 -32q-93 0 -157.5 42.5zM392 141.5q26 22.5 33 69.5q7 41 7 129q0 90 -7.5 132.5t-31.5 65.5q-26 23 -79 23q-52 0 -78 -22.5t-33 -68.5
q-7 -42 -7 -130q0 -90 7.5 -132.5t31.5 -64.5q26 -24 79 -24q52 0 78 22.5z" />
    <glyph glyph-name="Odieresis" unicode="&#xd6;" horiz-adv-x="628" 
d="M267 760h-110v118h110v-118zM470 760h-110v118h110v-118zM156.5 31.5q-64.5 42.5 -90.5 122.5q-19 56 -19 186q0 91 9.5 147.5t33.5 94.5q28 46 83.5 77.5t140.5 31.5q93 0 157.5 -42.5t90.5 -122.5q19 -56 19 -186q0 -91 -9.5 -147t-33.5 -94q-28 -46 -83.5 -78
t-140.5 -32q-93 0 -157.5 42.5zM392 141.5q26 22.5 33 69.5q7 41 7 129q0 90 -7.5 132.5t-31.5 65.5q-26 23 -79 23q-52 0 -78 -22.5t-33 -68.5q-7 -42 -7 -130q0 -90 7.5 -132.5t31.5 -64.5q26 -24 79 -24q52 0 78 22.5z" />
    <glyph glyph-name="multiply" unicode="&#xd7;" 
d="M494 148l-81 -81l-128 127l-129 -127l-81 81l128 128l-128 128l82 82l129 -129l127 129l81 -81l-128 -129z" />
    <glyph glyph-name="Oslash" unicode="&#xd8;" horiz-adv-x="628" 
d="M112 77q-27 35 -40 77q-19 56 -19 186q0 91 9.5 147.5t33.5 94.5q28 46 83.5 77.5t140.5 31.5q87 0 149 -38l36 57h90l-67 -108q23 -29 40 -76q19 -56 19 -186q0 -91 -9.5 -147t-33.5 -94q-28 -46 -83.5 -78t-140.5 -32q-88 0 -149 37l-36 -56h-90zM394 538
q-30 24 -74 24q-52 0 -78 -23.5t-34 -70.5q-8 -48 -8 -128q0 -67 5 -119zM398.5 141.5q26.5 23.5 34.5 70.5q7 42 7 128q0 65 -5 117l-189 -316q29 -23 74 -23q52 0 78.5 23.5z" />
    <glyph glyph-name="Ugrave" unicode="&#xd9;" horiz-adv-x="645" 
d="M398 738h-115l-113 150l140 1zM209 246q0 -59 31 -93t83 -34t82.5 33.5t30.5 93.5v434h147v-430q0 -122 -69.5 -191.5t-190.5 -69.5q-123 0 -192 68.5t-69 192.5v430h147v-434z" />
    <glyph glyph-name="Uacute" unicode="&#xda;" horiz-adv-x="645" 
d="M367 739h-114l89 150h140zM131 57.5q-69 68.5 -69 192.5v430h147v-434q0 -59 31 -93t83 -34t82.5 33.5t30.5 93.5v434h147v-430q0 -122 -69.5 -191.5t-190.5 -69.5q-123 0 -192 68.5z" />
    <glyph glyph-name="Ucircumflex" unicode="&#xdb;" horiz-adv-x="645" 
d="M489 747h-104l-64 65l-62 -65h-105l119 151h96zM209 246q0 -59 31 -93t83 -34t82.5 33.5t30.5 93.5v434h147v-430q0 -122 -69.5 -191.5t-190.5 -69.5q-123 0 -192 68.5t-69 192.5v430h147v-434z" />
    <glyph glyph-name="Udieresis" unicode="&#xdc;" horiz-adv-x="645" 
d="M166 878h110v-118h-110v118zM369 878h110v-118h-110v118zM583 250q0 -122 -69.5 -191.5t-190.5 -69.5q-123 0 -192 68.5t-69 192.5v430h147v-434q0 -59 31 -93t83 -34t82.5 33.5t30.5 93.5v434h147v-430z" />
    <glyph glyph-name="Yacute" unicode="&#xdd;" horiz-adv-x="568" 
d="M339 739h-114l89 150h140zM361 0h-147v271l-206 409h152l130 -261l129 261h148l-206 -409v-271z" />
    <glyph glyph-name="Thorn" unicode="&#xde;" horiz-adv-x="605" 
d="M65 680h147v-108h127q71 0 125 -26.5t83 -76.5t29 -116q0 -101 -64 -159.5t-173 -58.5h-127v-135h-147v680zM330 262q46 0 72.5 24.5t26.5 66.5t-26.5 67t-72.5 25h-118v-183h118z" />
    <glyph glyph-name="agrave" unicode="&#xe0;" horiz-adv-x="528" 
d="M353 551h-114l-114 150h140zM337 43q-40 -54 -134 -54q-74 0 -117.5 39.5t-43.5 108.5q0 75 52.5 115.5t148.5 40.5h92v24q0 36 -22 51t-77 15q-73 0 -116 -37l-55 96q34 26 82 39.5t106 13.5q116 0 165.5 -41t49.5 -134v-320h-131v43zM335 161v39h-74q-86 0 -86 -55
q0 -51 70 -51q90 0 90 67z" />
    <glyph glyph-name="aacute" unicode="&#xe1;" horiz-adv-x="528" 
d="M309 551h-114l89 150h140zM337 43q-40 -54 -134 -54q-74 0 -117.5 39.5t-43.5 108.5q0 75 52.5 115.5t148.5 40.5h92v24q0 36 -22 51t-77 15q-73 0 -116 -37l-55 96q34 26 82 39.5t106 13.5q116 0 165.5 -41t49.5 -134v-320h-131v43zM335 161v39h-74q-86 0 -86 -55
q0 -51 70 -51q90 0 90 67z" />
    <glyph glyph-name="acircumflex" unicode="&#xe2;" horiz-adv-x="528" 
d="M431 550h-104l-64 65l-62 -65h-105l119 151h96zM337 43q-40 -54 -134 -54q-74 0 -117.5 39.5t-43.5 108.5q0 75 52.5 115.5t148.5 40.5h92v24q0 36 -22 51t-77 15q-73 0 -116 -37l-55 96q34 26 82 39.5t106 13.5q116 0 165.5 -41t49.5 -134v-320h-131v43zM335 161v39h-74
q-86 0 -86 -55q0 -51 70 -51q90 0 90 67z" />
    <glyph glyph-name="atilde" unicode="&#xe3;" horiz-adv-x="528" 
d="M252 574q-31 18 -58 18q-16 0 -38 -10t-42 -28v92q15 21 38 33t47 12q33 0 75 -21q33 -18 58 -18q16 0 38.5 10.5t42.5 28.5v-93q-15 -21 -38.5 -33t-47.5 -12q-33 0 -75 21zM337 43q-40 -54 -134 -54q-74 0 -117.5 39.5t-43.5 108.5q0 75 52.5 115.5t148.5 40.5h92v24
q0 36 -22 51t-77 15q-73 0 -116 -37l-55 96q34 26 82 39.5t106 13.5q116 0 165.5 -41t49.5 -134v-320h-131v43zM335 161v39h-74q-86 0 -86 -55q0 -51 70 -51q90 0 90 67z" />
    <glyph glyph-name="adieresis" unicode="&#xe4;" horiz-adv-x="528" 
d="M107 679h110v-118h-110v118zM310 679h110v-118h-110v118zM418.5 454q49.5 -41 49.5 -134v-320h-131v43q-40 -54 -134 -54q-74 0 -117.5 39.5t-43.5 108.5q0 75 52.5 115.5t148.5 40.5h92v24q0 36 -22 51t-77 15q-73 0 -116 -37l-55 96q34 26 82 39.5t106 13.5
q116 0 165.5 -41zM261 200q-86 0 -86 -55q0 -51 70 -51q90 0 90 67v39h-74z" />
    <glyph glyph-name="aring" unicode="&#xe5;" horiz-adv-x="528" 
d="M366 671q8 -20 8 -41t-8 -41t-24 -35q-30 -30 -76 -30q-45 0 -77 30q-31 31 -31 76q0 21 8 41t23 35q31 31 76 31q22 0 42.5 -8t34.5 -23q16 -15 24 -35zM266 679q-21 0 -34 -14t-13 -35q0 -19 13.5 -33.5t33.5 -14.5q12 0 23 6.5t17 18.5q6 11 6 24q0 21 -15 36
q-12 12 -31 12zM418.5 454q49.5 -41 49.5 -134v-320h-131v43q-40 -54 -134 -54q-74 0 -117.5 39.5t-43.5 108.5q0 75 52.5 115.5t148.5 40.5h92v24q0 36 -22 51t-77 15q-73 0 -116 -37l-55 96q34 26 82 39.5t106 13.5q116 0 165.5 -41zM261 200q-86 0 -86 -55q0 -51 70 -51
q90 0 90 67v39h-74z" />
    <glyph glyph-name="ae" unicode="&#xe6;" horiz-adv-x="816" 
d="M463.5 6.5q-40.5 17.5 -70.5 54.5q-46 -72 -181 -72q-81 0 -125.5 38.5t-44.5 109.5q0 75 52.5 115.5t148.5 40.5h92v25q0 36 -21.5 50.5t-77.5 14.5q-76 0 -116 -37l-55 95q71 54 188 54q58 0 97 -11t66 -35q52 46 136 46q78 0 133 -36t76 -100q16 -42 16 -159h-310
q0 -16 6 -33q21 -64 101 -64q67 0 117 50l81 -76q-41 -45 -93 -66.5t-119 -21.5q-56 0 -96.5 17.5zM639 293q0 20 -5 42q-18 53 -81 53t-81 -53q-5 -20 -5 -42h172zM335 161v39h-74q-86 0 -86 -55q0 -51 70 -51q90 0 90 67z" />
    <glyph glyph-name="ccedilla" unicode="&#xe7;" horiz-adv-x="481" 
d="M373 469.5q49 -25.5 79 -73.5l-104 -69q-32 50 -83 50q-67 0 -79 -61q-5 -32 -5 -74q0 -50 5.5 -76t23.5 -42q19 -17 55 -17q50 0 83 50l104 -69q-30 -47 -79.5 -73t-109.5 -26q-79 0 -133.5 35.5t-75.5 101.5q-15 44 -15 116q0 82 20.5 133.5t70.5 84.5q56 35 133 35
q61 0 110 -25.5zM312 -21q0 -69 -39.5 -113.5t-102.5 -44.5v87q26 0 39.5 19t13.5 52h89z" />
    <glyph glyph-name="egrave" unicode="&#xe8;" horiz-adv-x="527" 
d="M339 551h-114l-114 150h140zM132.5 25q-55.5 36 -76.5 102q-17 56 -17 115q0 79 21.5 131.5t70.5 85.5q55 36 132 36q78 0 133 -36t76 -100q17 -60 16 -159h-311q2 -18 7 -33q19 -64 100 -64q71 0 118 50l81 -76q-81 -88 -213 -88q-82 0 -137.5 36zM350 293q0 20 -5 42
q-18 53 -81 53t-81 -53q-5 -22 -5 -42h172z" />
    <glyph glyph-name="eacute" unicode="&#xe9;" horiz-adv-x="527" 
d="M306 551h-114l89 150h140zM132.5 25q-55.5 36 -76.5 102q-17 56 -17 115q0 79 21.5 131.5t70.5 85.5q55 36 132 36q78 0 133 -36t76 -100q17 -60 16 -159h-311q2 -18 7 -33q19 -64 100 -64q71 0 118 50l81 -76q-81 -88 -213 -88q-82 0 -137.5 36zM350 293q0 20 -5 42
q-18 53 -81 53t-81 -53q-5 -22 -5 -42h172z" />
    <glyph glyph-name="ecircumflex" unicode="&#xea;" horiz-adv-x="527" 
d="M430 550h-104l-64 65l-62 -65h-105l119 151h96zM132.5 25q-55.5 36 -76.5 102q-17 56 -17 115q0 79 21.5 131.5t70.5 85.5q55 36 132 36q78 0 133 -36t76 -100q17 -60 16 -159h-311q2 -18 7 -33q19 -64 100 -64q71 0 118 50l81 -76q-81 -88 -213 -88q-82 0 -137.5 36z
M350 293q0 20 -5 42q-18 53 -81 53t-81 -53q-5 -22 -5 -42h172z" />
    <glyph glyph-name="edieresis" unicode="&#xeb;" horiz-adv-x="527" 
d="M106 679h110v-118h-110v118zM309 679h110v-118h-110v118zM396 459q55 -36 76 -100q17 -60 16 -159h-311q2 -18 7 -33q19 -64 100 -64q71 0 118 50l81 -76q-81 -88 -213 -88q-82 0 -137.5 36t-76.5 102q-17 56 -17 115q0 79 21.5 131.5t70.5 85.5q55 36 132 36
q78 0 133 -36zM183 335q-5 -22 -5 -42h172q0 20 -5 42q-18 53 -81 53t-81 -53z" />
    <glyph glyph-name="igrave" unicode="&#xec;" horiz-adv-x="266" 
d="M197 551h-114l-114 150h140zM203 0h-140v484h140v-484z" />
    <glyph glyph-name="iacute" unicode="&#xed;" horiz-adv-x="266" 
d="M186 551h-114l89 150h140zM203 0h-140v484h140v-484z" />
    <glyph glyph-name="icircumflex" unicode="&#xee;" horiz-adv-x="266" 
d="M303 550h-104l-64 65l-62 -65h-105l119 151h96zM203 0h-140v484h140v-484z" />
    <glyph glyph-name="idieresis" unicode="&#xef;" horiz-adv-x="266" 
d="M-23 679h110v-118h-110v118zM180 679h110v-118h-110v118zM63 484h140v-484h-140v484z" />
    <glyph glyph-name="eth" unicode="&#xf0;" horiz-adv-x="530" 
d="M298 627l100 30l26 -84l-69 -21l20 -28q64 -88 90 -152.5t26 -136.5q0 -75 -20.5 -126t-70.5 -83q-55 -37 -134 -37q-80 0 -135 35.5t-76 99.5q-15 48 -15 101q0 62 19 112.5t59 79.5q45 33 106 33q40 0 68 -18l-61 83l-103 -31l-26 85l74 22l-64 89h148zM195.5 316.5
q-19.5 -32.5 -19.5 -90.5q0 -44 10 -67q16 -55 80 -55q63 0 79 55q10 23 10 67q0 59 -19 91t-70 32t-70.5 -32.5z" />
    <glyph glyph-name="ntilde" unicode="&#xf1;" horiz-adv-x="553" 
d="M264 574q-31 18 -58 18q-16 0 -38 -10t-42 -28v92q15 21 38 33t47 12q33 0 75 -21q33 -18 58 -18q16 0 38.5 10.5t42.5 28.5v-93q-15 -21 -38.5 -33t-47.5 -12q-33 0 -75 21zM354 288q0 42 -19.5 65t-55.5 23t-56 -24t-20 -64v-288h-140v484h140v-45q41 56 126 56
q77 0 121 -48.5t44 -131.5v-315h-140v288z" />
    <glyph glyph-name="ograve" unicode="&#xf2;" horiz-adv-x="530" 
d="M335 551h-114l-114 150h140zM131.5 24.5q-55.5 35.5 -76.5 100.5q-16 47 -16 117q0 78 21.5 131.5t71.5 86.5q56 35 133 35q78 0 133.5 -35.5t76.5 -100.5q16 -47 16 -117q0 -79 -21 -132t-71 -85q-55 -36 -134 -36q-78 0 -133.5 35.5zM344 170q5 32 5 72q0 48 -5.5 74.5
t-22.5 43.5q-20 17 -56 17q-67 0 -79 -63q-5 -32 -5 -72q0 -48 5.5 -74.5t23.5 -42.5q18 -18 55 -18q67 0 79 63z" />
    <glyph glyph-name="oacute" unicode="&#xf3;" horiz-adv-x="530" 
d="M311 551h-114l89 150h140zM131.5 24.5q-55.5 35.5 -76.5 100.5q-16 47 -16 117q0 78 21.5 131.5t71.5 86.5q56 35 133 35q78 0 133.5 -35.5t76.5 -100.5q16 -47 16 -117q0 -79 -21 -132t-71 -85q-55 -36 -134 -36q-78 0 -133.5 35.5zM344 170q5 32 5 72q0 48 -5.5 74.5
t-22.5 43.5q-20 17 -56 17q-67 0 -79 -63q-5 -32 -5 -72q0 -48 5.5 -74.5t23.5 -42.5q18 -18 55 -18q67 0 79 63z" />
    <glyph glyph-name="ocircumflex" unicode="&#xf4;" horiz-adv-x="530" 
d="M431 550h-104l-64 65l-62 -65h-105l119 151h96zM131.5 24.5q-55.5 35.5 -76.5 100.5q-16 47 -16 117q0 78 21.5 131.5t71.5 86.5q56 35 133 35q78 0 133.5 -35.5t76.5 -100.5q16 -47 16 -117q0 -79 -21 -132t-71 -85q-55 -36 -134 -36q-78 0 -133.5 35.5zM344 170
q5 32 5 72q0 48 -5.5 74.5t-22.5 43.5q-20 17 -56 17q-67 0 -79 -63q-5 -32 -5 -72q0 -48 5.5 -74.5t23.5 -42.5q18 -18 55 -18q67 0 79 63z" />
    <glyph glyph-name="otilde" unicode="&#xf5;" horiz-adv-x="530" 
d="M253 574q-32 18 -58 18q-16 0 -38 -10t-42 -28v92q15 21 38 33t47 12q33 0 75 -21q33 -18 58 -18q16 0 38.5 10.5t42.5 28.5v-93q-15 -21 -38.5 -33t-47.5 -12q-33 0 -75 21zM131.5 24.5q-55.5 35.5 -76.5 100.5q-16 47 -16 117q0 78 21.5 131.5t71.5 86.5q56 35 133 35
q78 0 133.5 -35.5t76.5 -100.5q16 -47 16 -117q0 -79 -21 -132t-71 -85q-55 -36 -134 -36q-78 0 -133.5 35.5zM344 170q5 32 5 72q0 48 -5.5 74.5t-22.5 43.5q-20 17 -56 17q-67 0 -79 -63q-5 -32 -5 -72q0 -48 5.5 -74.5t23.5 -42.5q18 -18 55 -18q67 0 79 63z" />
    <glyph glyph-name="odieresis" unicode="&#xf6;" horiz-adv-x="530" 
d="M108 679h110v-118h-110v118zM311 679h110v-118h-110v118zM398.5 459.5q55.5 -35.5 76.5 -100.5q16 -47 16 -117q0 -79 -21 -132t-71 -85q-55 -36 -134 -36q-78 0 -133.5 35.5t-76.5 100.5q-16 47 -16 117q0 78 21.5 131.5t71.5 86.5q56 35 133 35q78 0 133.5 -35.5z
M186 314q-5 -32 -5 -72q0 -48 5.5 -74.5t23.5 -42.5q18 -18 55 -18q67 0 79 63q5 32 5 72q0 48 -5.5 74.5t-22.5 43.5q-20 17 -56 17q-67 0 -79 -63z" />
    <glyph glyph-name="divide" unicode="&#xf7;" 
d="M355 463q0 -30 -21 -53t-55 -23q-18 0 -35 8t-28 23q-15 21 -15 45q0 30 22.5 53.5t53.5 23.5q34 0 58 -27q20 -23 20 -50zM51 335h454v-118h-454v118zM354 89q0 -31 -20.5 -53.5t-55.5 -22.5t-55.5 24.5t-20.5 52.5q0 24 12 41.5t31 27.5q13 7 32 7q34 0 59 -28
q18 -21 18 -49z" />
    <glyph glyph-name="oslash" unicode="&#xf8;" horiz-adv-x="530" 
d="M95 55q-28 35 -41.5 78.5t-13.5 108.5q0 78 21.5 131.5t71.5 86.5q56 35 133 35q72 0 123 -30l36 49h74l-63 -86q28 -31 42 -76t14 -110q0 -79 -21 -132t-71 -85q-55 -36 -134 -36q-70 0 -123 29l-35 -48h-74zM315 364q-23 14 -49 14q-69 0 -81 -63q-5 -32 -5 -73
q0 -52 4 -67zM347 169q5 32 5 73q0 33 -1 38l-3 27l-130 -188q19 -13 48 -13q69 0 81 63z" />
    <glyph glyph-name="ugrave" unicode="&#xf9;" horiz-adv-x="549" 
d="M343 551h-114l-114 150h140zM346 46q-42 -57 -125 -57q-76 0 -119.5 48.5t-43.5 131.5v315h140v-288q0 -41 19.5 -64.5t54.5 -23.5t54.5 23.5t19.5 64.5v288h140v-484h-140v46z" />
    <glyph glyph-name="uacute" unicode="&#xfa;" horiz-adv-x="549" 
d="M320 551h-114l89 150h140zM346 46q-42 -57 -125 -57q-76 0 -119.5 48.5t-43.5 131.5v315h140v-288q0 -41 19.5 -64.5t54.5 -23.5t54.5 23.5t19.5 64.5v288h140v-484h-140v46z" />
    <glyph glyph-name="ucircumflex" unicode="&#xfb;" horiz-adv-x="549" 
d="M442 550h-104l-64 65l-62 -65h-105l119 151h96zM346 46q-42 -57 -125 -57q-76 0 -119.5 48.5t-43.5 131.5v315h140v-288q0 -41 19.5 -64.5t54.5 -23.5t54.5 23.5t19.5 64.5v288h140v-484h-140v46z" />
    <glyph glyph-name="udieresis" unicode="&#xfc;" horiz-adv-x="549" 
d="M118 679h110v-118h-110v118zM321 679h110v-118h-110v118zM486 0h-140v46q-42 -57 -125 -57q-76 0 -119.5 48.5t-43.5 131.5v315h140v-288q0 -41 19.5 -64.5t54.5 -23.5t54.5 23.5t19.5 64.5v288h140v-484z" />
    <glyph glyph-name="yacute" unicode="&#xfd;" horiz-adv-x="507" 
d="M308 551h-114l89 150h140zM86 -180v118h31q26 0 41.5 11.5t24.5 38.5l13 36l-184 460h149l101 -293l94 293h145l-200 -525q-30 -78 -68 -108.5t-103 -30.5h-44z" />
    <glyph glyph-name="thorn" unicode="&#xfe;" horiz-adv-x="551" 
d="M63 680h140v-242q39 57 128 57q74 0 115.5 -35.5t54.5 -94.5q11 -57 11 -123q0 -77 -13 -128t-50 -87q-41 -38 -118 -38q-92 0 -128 58v-227h-140v860zM365 170q5 32 5 72q0 48 -5.5 74.5t-22.5 43.5q-20 17 -56 17q-66 0 -78 -63q-5 -32 -5 -72q0 -71 17 -103t66 -32
q67 0 79 63z" />
    <glyph glyph-name="ydieresis" unicode="&#xff;" horiz-adv-x="507" 
d="M102 679h110v-118h-110v118zM305 679h110v-118h-110v118zM301 -41q-30 -78 -68 -108.5t-103 -30.5h-44v118h31q26 0 41.5 11.5t24.5 38.5l13 36l-184 460h149l101 -293l94 293h145z" />
    <glyph glyph-name="Amacron" unicode="&#x100;" horiz-adv-x="644" 
d="M476 771h-303v96h303v-96zM165 0h-152l241 680h146l237 -680h-151l-42 129h-238zM325 497l-78 -243h157z" />
    <glyph glyph-name="amacron" unicode="&#x101;" horiz-adv-x="528" 
d="M111 671h303v-96h-303v96zM418.5 454q49.5 -41 49.5 -134v-320h-131v43q-40 -54 -134 -54q-74 0 -117.5 39.5t-43.5 108.5q0 75 52.5 115.5t148.5 40.5h92v24q0 36 -22 51t-77 15q-73 0 -116 -37l-55 96q34 26 82 39.5t106 13.5q116 0 165.5 -41zM261 200q-86 0 -86 -55
q0 -51 70 -51q90 0 90 67v39h-74z" />
    <glyph glyph-name="Abreve" unicode="&#x102;" horiz-adv-x="644" 
d="M213 783.5q-43 39.5 -41 102.5h78q14 -53 75 -53t75 53h79q-1 -65 -43 -103.5t-111 -38.5t-112 39.5zM165 0h-152l241 680h146l237 -680h-151l-42 129h-238zM325 497l-78 -243h157z" />
    <glyph glyph-name="abreve" unicode="&#x103;" horiz-adv-x="528" 
d="M418 688q-1 -65 -43 -103.5t-111 -38.5t-112 39.5t-41 102.5h78q14 -53 75 -53t75 53h79zM418.5 454q49.5 -41 49.5 -134v-320h-131v43q-40 -54 -134 -54q-74 0 -117.5 39.5t-43.5 108.5q0 75 52.5 115.5t148.5 40.5h92v24q0 36 -22 51t-77 15q-73 0 -116 -37l-55 96
q34 26 82 39.5t106 13.5q116 0 165.5 -41zM261 200q-86 0 -86 -55q0 -51 70 -51q90 0 90 67v39h-74z" />
    <glyph glyph-name="Aogonek" unicode="&#x104;" horiz-adv-x="644" 
d="M561 -85q12 -6 43 -5l-1 -89q-160 0 -160 98q0 28 10 46.5t33 34.5l-42 129h-238l-41 -129h-152l241 680h146l237 -680q-46 -16 -68 -31q-20 -14 -20 -30q0 -18 12 -24zM325 497l-78 -243h157z" />
    <glyph glyph-name="aogonek" unicode="&#x105;" horiz-adv-x="528" 
d="M468 0q-40 -12 -55.5 -26.5t-15.5 -34.5q0 -18 12 -24t43 -5l-1 -89q-160 0 -160 98q0 27 11 46t35 35v43q-40 -54 -134 -54q-74 0 -117.5 39.5t-43.5 108.5q0 75 52.5 115.5t148.5 40.5h92v24q0 36 -22 51t-77 15q-73 0 -116 -37l-55 96q34 26 82 39.5t106 13.5
q116 0 165.5 -41t49.5 -134v-320zM335 200h-74q-86 0 -86 -55q0 -51 70 -51q90 0 90 67v39z" />
    <glyph glyph-name="Cacute" unicode="&#x106;" horiz-adv-x="575" 
d="M340 739h-114l89 150h140zM155.5 32q-62.5 43 -89.5 124q-19 51 -19 184q0 90 10 146.5t34 94.5q28 46 81.5 78t135.5 32q99 0 166 -53t87 -153h-151q-13 40 -37 58t-64 18q-49 0 -74 -23t-32 -69q-7 -42 -7 -129q0 -89 7.5 -132t31.5 -65q24 -24 74 -24q72 0 96 69h153
q-24 -100 -88 -149.5t-162 -49.5q-90 0 -152.5 43z" />
    <glyph glyph-name="cacute" unicode="&#x107;" horiz-adv-x="481" 
d="M295 551h-114l89 150h140zM59.5 375.5q20.5 51.5 70.5 84.5q56 35 133 35q61 0 110 -25.5t79 -73.5l-104 -69q-32 50 -83 50q-67 0 -79 -61q-5 -32 -5 -74q0 -50 5.5 -76t23.5 -42q19 -17 55 -17q50 0 83 50l104 -69q-30 -47 -79.5 -73t-109.5 -26q-79 0 -133.5 35.5
t-75.5 101.5q-15 44 -15 116q0 82 20.5 133.5z" />
    <glyph glyph-name="Ccircumflex" unicode="&#x108;" horiz-adv-x="575" 
d="M244 747h-105l119 151h96l120 -151h-104l-64 65zM155.5 32q-62.5 43 -89.5 124q-19 51 -19 184q0 90 10 146.5t34 94.5q28 46 81.5 78t135.5 32q99 0 166 -53t87 -153h-151q-13 40 -37 58t-64 18q-49 0 -74 -23t-32 -69q-7 -42 -7 -129q0 -89 7.5 -132t31.5 -65
q24 -24 74 -24q72 0 96 69h153q-24 -100 -88 -149.5t-162 -49.5q-90 0 -152.5 43z" />
    <glyph glyph-name="ccircumflex" unicode="&#x109;" horiz-adv-x="481" 
d="M426 550h-104l-64 65l-62 -65h-105l119 151h96zM59.5 375.5q20.5 51.5 70.5 84.5q56 35 133 35q61 0 110 -25.5t79 -73.5l-104 -69q-32 50 -83 50q-67 0 -79 -61q-5 -32 -5 -74q0 -50 5.5 -76t23.5 -42q19 -17 55 -17q50 0 83 50l104 -69q-30 -47 -79.5 -73t-109.5 -26
q-79 0 -133.5 35.5t-75.5 101.5q-15 44 -15 116q0 82 20.5 133.5z" />
    <glyph glyph-name="Cdotaccent" unicode="&#x10a;" horiz-adv-x="575" 
d="M372 760h-135v118h135v-118zM155.5 32q-62.5 43 -89.5 124q-19 51 -19 184q0 90 10 146.5t34 94.5q28 46 81.5 78t135.5 32q99 0 166 -53t87 -153h-151q-13 40 -37 58t-64 18q-49 0 -74 -23t-32 -69q-7 -42 -7 -129q0 -89 7.5 -132t31.5 -65q24 -24 74 -24q72 0 96 69
h153q-24 -100 -88 -149.5t-162 -49.5q-90 0 -152.5 43z" />
    <glyph glyph-name="cdotaccent" unicode="&#x10b;" horiz-adv-x="481" 
d="M327 561h-135v118h135v-118zM59.5 375.5q20.5 51.5 70.5 84.5q56 35 133 35q61 0 110 -25.5t79 -73.5l-104 -69q-32 50 -83 50q-67 0 -79 -61q-5 -32 -5 -74q0 -50 5.5 -76t23.5 -42q19 -17 55 -17q50 0 83 50l104 -69q-30 -47 -79.5 -73t-109.5 -26q-79 0 -133.5 35.5
t-75.5 101.5q-15 44 -15 116q0 82 20.5 133.5z" />
    <glyph glyph-name="Ccaron" unicode="&#x10c;" horiz-adv-x="575" 
d="M353 744h-96l-119 150h104l63 -65l64 65h104zM155.5 32q-62.5 43 -89.5 124q-19 51 -19 184q0 90 10 146.5t34 94.5q28 46 81.5 78t135.5 32q99 0 166 -53t87 -153h-151q-13 40 -37 58t-64 18q-49 0 -74 -23t-32 -69q-7 -42 -7 -129q0 -89 7.5 -132t31.5 -65
q24 -24 74 -24q72 0 96 69h153q-24 -100 -88 -149.5t-162 -49.5q-90 0 -152.5 43z" />
    <glyph glyph-name="ccaron" unicode="&#x10d;" horiz-adv-x="481" 
d="M324 697h104l-120 -150h-96l-119 150h104l63 -65zM59.5 375.5q20.5 51.5 70.5 84.5q56 35 133 35q61 0 110 -25.5t79 -73.5l-104 -69q-32 50 -83 50q-67 0 -79 -61q-5 -32 -5 -74q0 -50 5.5 -76t23.5 -42q19 -17 55 -17q50 0 83 50l104 -69q-30 -47 -79.5 -73t-109.5 -26
q-79 0 -133.5 35.5t-75.5 101.5q-15 44 -15 116q0 82 20.5 133.5z" />
    <glyph glyph-name="Dcaron" unicode="&#x10e;" horiz-adv-x="628" 
d="M343 744h-96l-119 150h104l63 -65l64 65h104zM65 680h263q110 0 167.5 -42.5t72.5 -116.5q13 -66 13 -181q0 -83 -5.5 -134.5t-23.5 -91t-53 -68.5q-55 -46 -171 -46h-263v680zM295 131q63 0 93 20.5t37 61.5q7 35 7 116v32q0 78 -8 113t-36 55q-31 20 -93 20h-83v-418
h83z" />
    <glyph glyph-name="dcaron" unicode="&#x10f;" horiz-adv-x="563" 
d="M348 47q-39 -58 -128 -58q-74 0 -115.5 35.5t-53.5 94.5q-12 54 -12 123q0 77 13 128t50 87q41 38 118 38q88 0 128 -58v243h140v-680h-140v47zM637 573l-116 -101v208h116v-107zM331 139q17 32 17 103q0 48 -5.5 74.5t-22.5 43.5q-20 17 -55 17q-67 0 -79 -63
q-5 -32 -5 -72q0 -48 5.5 -74.5t23.5 -42.5q18 -18 55 -18q49 0 66 32z" />
    <glyph glyph-name="Dcroat" unicode="&#x110;" horiz-adv-x="628" 
d="M65 289h-41v108h41v283h263q110 0 167.5 -42.5t72.5 -116.5q13 -66 13 -181q0 -83 -5.5 -134.5t-23.5 -91t-53 -68.5q-55 -46 -171 -46h-263v289zM295 131q63 0 93 20.5t37 61.5q7 35 7 116v32q0 78 -8 113t-36 55q-31 20 -93 20h-83v-152h99v-108h-99v-158h83z" />
    <glyph glyph-name="dslash" unicode="&#x111;" horiz-adv-x="551" 
d="M348 46q-39 -57 -128 -57q-74 0 -115.5 35.5t-53.5 94.5q-12 54 -12 123q0 77 13 128t50 87q41 38 118 38q89 0 128 -57v104h-119v97h119v41h140v-41h35v-97h-35v-542h-140v46zM331 139q17 32 17 103q0 48 -5.5 74.5t-22.5 43.5q-20 17 -55 17q-67 0 -79 -63
q-5 -32 -5 -72q0 -48 5.5 -74.5t23.5 -42.5q18 -18 55 -18q49 0 66 32z" />
    <glyph glyph-name="Emacron" unicode="&#x112;" horiz-adv-x="565" 
d="M442 771h-303v96h303v-96zM521 0h-456v680h456v-127h-309v-147h260v-126h-260v-153h309v-127z" />
    <glyph glyph-name="emacron" unicode="&#x113;" horiz-adv-x="527" 
d="M414 575h-303v96h303v-96zM132.5 25q-55.5 36 -76.5 102q-17 56 -17 115q0 79 21.5 131.5t70.5 85.5q55 36 132 36q78 0 133 -36t76 -100q17 -60 16 -159h-311q2 -18 7 -33q19 -64 100 -64q71 0 118 50l81 -76q-81 -88 -213 -88q-82 0 -137.5 36zM350 293q0 20 -5 42
q-18 53 -81 53t-81 -53q-5 -22 -5 -42h172z" />
    <glyph glyph-name="Ebreve" unicode="&#x114;" horiz-adv-x="565" 
d="M178 783.5q-43 39.5 -41 102.5h78q14 -53 75 -53t75 53h79q-1 -65 -43 -103.5t-111 -38.5t-112 39.5zM521 0h-456v680h456v-127h-309v-147h260v-126h-260v-153h309v-127z" />
    <glyph glyph-name="ebreve" unicode="&#x115;" horiz-adv-x="527" 
d="M189 688q14 -53 75 -53t75 53h79q-1 -65 -43 -103.5t-111 -38.5t-112 39.5t-41 102.5h78zM132.5 25q-55.5 36 -76.5 102q-17 56 -17 115q0 79 21.5 131.5t70.5 85.5q55 36 132 36q78 0 133 -36t76 -100q17 -60 16 -159h-311q2 -18 7 -33q19 -64 100 -64q71 0 118 50
l81 -76q-81 -88 -213 -88q-82 0 -137.5 36zM350 293q0 20 -5 42q-18 53 -81 53t-81 -53q-5 -22 -5 -42h172z" />
    <glyph glyph-name="Edotaccent" unicode="&#x116;" horiz-adv-x="565" 
d="M357 760h-135v118h135v-118zM521 0h-456v680h456v-127h-309v-147h260v-126h-260v-153h309v-127z" />
    <glyph glyph-name="edotaccent" unicode="&#x117;" horiz-adv-x="527" 
d="M330 561h-135v118h135v-118zM132.5 25q-55.5 36 -76.5 102q-17 56 -17 115q0 79 21.5 131.5t70.5 85.5q55 36 132 36q78 0 133 -36t76 -100q17 -60 16 -159h-311q2 -18 7 -33q19 -64 100 -64q71 0 118 50l81 -76q-81 -88 -213 -88q-82 0 -137.5 36zM350 293q0 20 -5 42
q-18 53 -81 53t-81 -53q-5 -22 -5 -42h172z" />
    <glyph glyph-name="Eogonek" unicode="&#x118;" horiz-adv-x="565" 
d="M212 553v-147h260v-126h-260v-153h309v-127h-16q-49 -13 -69 -28q-19 -15 -19 -33t12 -24t43 -5l-1 -89q-160 0 -160 98q0 28 10 46.5t33 34.5h-289v680h456v-127h-309z" />
    <glyph glyph-name="eogonek" unicode="&#x119;" horiz-adv-x="527" 
d="M488 200h-311q2 -18 7 -33q19 -64 100 -64q71 0 118 50l81 -76q-30 -31 -64 -52q-51 -29 -66 -50q-13 -16 -13 -33q0 -20 12 -26.5t43 -5.5l-1 -89q-160 0 -160 98q0 43 31 70q-79 1 -133.5 37t-75.5 101q-17 56 -17 115q0 79 21.5 131.5t70.5 85.5q55 36 132 36
q78 0 133 -36t76 -100q17 -60 16 -159zM350 293q0 20 -5 42q-18 53 -81 53t-81 -53q-5 -22 -5 -42h172z" />
    <glyph glyph-name="Ecaron" unicode="&#x11a;" horiz-adv-x="565" 
d="M339 744h-96l-119 150h104l63 -65l64 65h104zM521 0h-456v680h456v-127h-309v-147h260v-126h-260v-153h309v-127z" />
    <glyph glyph-name="ecaron" unicode="&#x11b;" horiz-adv-x="527" 
d="M327 697h104l-120 -150h-96l-119 150h104l63 -65zM132.5 25q-55.5 36 -76.5 102q-17 56 -17 115q0 79 21.5 131.5t70.5 85.5q55 36 132 36q78 0 133 -36t76 -100q17 -60 16 -159h-311q2 -18 7 -33q19 -64 100 -64q71 0 118 50l81 -76q-81 -88 -213 -88q-82 0 -137.5 36z
M350 293q0 20 -5 42q-18 53 -81 53t-81 -53q-5 -22 -5 -42h172z" />
    <glyph glyph-name="Gcircumflex" unicode="&#x11c;" horiz-adv-x="628" 
d="M251 747h-105l119 151h96l120 -151h-104l-64 65zM157 31.5q-65 42.5 -91 122.5q-19 56 -19 186q0 91 9.5 147.5t33.5 94.5q24 39 67 67q64 42 159 42q105 0 172.5 -52t85.5 -154h-150q-24 76 -108 76q-53 0 -79.5 -22.5t-33.5 -68.5q-7 -42 -7 -130q0 -89 7 -130
q7 -46 33.5 -68.5t81.5 -22.5q40 0 69.5 18.5t39.5 51.5q8 32 8 73h-108v116h254v-66q0 -109 -23.5 -172.5t-84.5 -105.5q-66 -45 -157 -45q-94 0 -159 42.5z" />
    <glyph glyph-name="gcircumflex" unicode="&#x11d;" horiz-adv-x="543" 
d="M214 701h96l120 -151h-104l-64 65l-62 -65h-105zM340 437v47h140v-432q0 -243 -241 -243q-58 0 -109 21t-80 59l85 87q49 -49 108 -49q97 0 97 107v43q-34 -58 -125 -58q-101 0 -139.5 63t-38.5 175q0 114 38.5 176t139.5 62q91 0 125 -58zM194.5 342.5
q-16.5 -34.5 -16.5 -86.5q0 -35 9 -67q18 -52 72 -52q47 0 64 30t17 90t-17 90t-64 30q-48 0 -64.5 -34.5z" />
    <glyph glyph-name="Gbreve" unicode="&#x11e;" horiz-adv-x="628" 
d="M202 783.5q-43 39.5 -41 102.5h78q14 -53 75 -53t75 53h79q-1 -65 -43 -103.5t-111 -38.5t-112 39.5zM157 31.5q-65 42.5 -91 122.5q-19 56 -19 186q0 91 9.5 147.5t33.5 94.5q24 39 67 67q64 42 159 42q105 0 172.5 -52t85.5 -154h-150q-24 76 -108 76
q-53 0 -79.5 -22.5t-33.5 -68.5q-7 -42 -7 -130q0 -89 7 -130q7 -46 33.5 -68.5t81.5 -22.5q40 0 69.5 18.5t39.5 51.5q8 32 8 73h-108v116h254v-66q0 -109 -23.5 -172.5t-84.5 -105.5q-66 -45 -157 -45q-94 0 -159 42.5z" />
    <glyph glyph-name="gbreve" unicode="&#x11f;" horiz-adv-x="543" 
d="M417 688q-1 -65 -43 -103.5t-111 -38.5t-112 39.5t-41 102.5h78q14 -53 75 -53t75 53h79zM340 437v47h140v-432q0 -243 -241 -243q-58 0 -109 21t-80 59l85 87q49 -49 108 -49q97 0 97 107v43q-34 -58 -125 -58q-101 0 -139.5 63t-38.5 175q0 114 38.5 176t139.5 62
q91 0 125 -58zM194.5 342.5q-16.5 -34.5 -16.5 -86.5q0 -35 9 -67q18 -52 72 -52q47 0 64 30t17 90t-17 90t-64 30q-48 0 -64.5 -34.5z" />
    <glyph glyph-name="Gdotaccent" unicode="&#x120;" horiz-adv-x="628" 
d="M381 760h-135v118h135v-118zM157 31.5q-65 42.5 -91 122.5q-19 56 -19 186q0 91 9.5 147.5t33.5 94.5q24 39 67 67q64 42 159 42q105 0 172.5 -52t85.5 -154h-150q-24 76 -108 76q-53 0 -79.5 -22.5t-33.5 -68.5q-7 -42 -7 -130q0 -89 7 -130q7 -46 33.5 -68.5
t81.5 -22.5q40 0 69.5 18.5t39.5 51.5q8 32 8 73h-108v116h254v-66q0 -109 -23.5 -172.5t-84.5 -105.5q-66 -45 -157 -45q-94 0 -159 42.5z" />
    <glyph glyph-name="gdotaccent" unicode="&#x121;" horiz-adv-x="543" 
d="M330 561h-135v118h135v-118zM130 -170q-51 21 -80 59l85 87q49 -49 108 -49q97 0 97 107v43q-34 -58 -125 -58q-101 0 -139.5 63t-38.5 175q0 114 38.5 176t139.5 62q91 0 125 -58v47h140v-432q0 -243 -241 -243q-58 0 -109 21zM323 167q17 30 17 90t-17 90t-64 30
q-48 0 -64.5 -34.5t-16.5 -86.5q0 -35 9 -67q18 -52 72 -52q47 0 64 30z" />
    <glyph glyph-name="Gcommaaccent" unicode="&#x122;" horiz-adv-x="628" 
d="M488.5 639q67.5 -52 85.5 -154h-150q-24 76 -108 76q-53 0 -79.5 -22.5t-33.5 -68.5q-7 -42 -7 -130q0 -89 7 -130q7 -46 33.5 -68.5t81.5 -22.5q40 0 69.5 18.5t39.5 51.5q8 32 8 73h-108v116h254v-66q0 -109 -23.5 -172.5t-84.5 -105.5q-66 -45 -157 -45
q-94 0 -159 42.5t-91 122.5q-19 56 -19 186q0 91 9.5 147.5t33.5 94.5q24 39 67 67q64 42 159 42q105 0 172.5 -52zM252 -50h122v-102l-122 -106v208z" />
    <glyph glyph-name="gcommaaccent" unicode="&#x123;" horiz-adv-x="543" 
d="M324 561h-122v103l122 107v-210zM130 -170q-51 21 -80 59l85 87q49 -49 108 -49q97 0 97 107v43q-34 -58 -125 -58q-101 0 -139.5 63t-38.5 175q0 114 38.5 176t139.5 62q91 0 125 -58v47h140v-432q0 -243 -241 -243q-58 0 -109 21zM323 167q17 30 17 90t-17 90t-64 30
q-48 0 -64.5 -34.5t-16.5 -86.5q0 -35 9 -67q18 -52 72 -52q47 0 64 30z" />
    <glyph glyph-name="Hcircumflex" unicode="&#x124;" horiz-adv-x="658" 
d="M266 747h-105l119 151h96l120 -151h-104l-64 65zM212 0h-147v680h147v-271h234v271h147v-680h-147v278h-234v-278z" />
    <glyph glyph-name="hcircumflex" unicode="&#x125;" horiz-adv-x="553" 
d="M449 747h-104l-64 65l-62 -65h-105l119 151h96zM354 288q0 42 -19.5 65t-55.5 23t-56 -24t-20 -64v-288h-140v680h140v-241q41 56 126 56q77 0 121 -48.5t44 -131.5v-315h-140v288z" />
    <glyph glyph-name="Hbar" unicode="&#x126;" horiz-adv-x="658" 
d="M212 0h-147v496h-48v94h48v90h147v-90h234v90h147v-90h48v-94h-48v-496h-147v278h-234v-278zM212 496v-87h234v87h-234z" />
    <glyph glyph-name="hbar" unicode="&#x127;" horiz-adv-x="553" 
d="M354 288q0 42 -19.5 65t-55.5 23t-56 -24t-20 -64v-288h-140v542h-35v97h35v41h140v-41h119v-97h-119v-103q41 56 126 56q77 0 121 -48.5t44 -131.5v-315h-140v288z" />
    <glyph glyph-name="Itilde" unicode="&#x128;" horiz-adv-x="277" 
d="M-11 841q15 21 38 33t47 12q33 0 75 -21q33 -18 58 -18q16 0 38.5 10.5t42.5 28.5v-93q-15 -21 -38.5 -33t-47.5 -12q-33 0 -75 21q-32 18 -58 18q-16 0 -38 -10t-42 -28v92zM212 0h-147v680h147v-680z" />
    <glyph glyph-name="itilde" unicode="&#x129;" horiz-adv-x="266" 
d="M122 574q-32 18 -58 18q-16 0 -38 -10t-42 -28v92q15 21 38 33t47 12q33 0 75 -21q33 -18 58 -18q16 0 38.5 10.5t42.5 28.5v-93q-15 -21 -38.5 -33t-47.5 -12q-33 0 -75 21zM203 0h-140v484h140v-484z" />
    <glyph glyph-name="Imacron" unicode="&#x12a;" horiz-adv-x="277" 
d="M290 771h-303v96h303v-96zM212 0h-147v680h147v-680z" />
    <glyph glyph-name="imacron" unicode="&#x12b;" horiz-adv-x="266" 
d="M285 575h-303v96h303v-96zM203 0h-140v484h140v-484z" />
    <glyph glyph-name="Ibreve" unicode="&#x12c;" horiz-adv-x="277" 
d="M26 783.5q-43 39.5 -41 102.5h78q14 -53 75 -53t75 53h79q-1 -65 -43 -103.5t-111 -38.5t-112 39.5zM212 0h-147v680h147v-680z" />
    <glyph glyph-name="ibreve" unicode="&#x12d;" horiz-adv-x="266" 
d="M58 688q14 -53 75 -53t75 53h79q-1 -65 -43 -103.5t-111 -38.5t-112 39.5t-41 102.5h78zM203 0h-140v484h140v-484z" />
    <glyph glyph-name="Iogonek" unicode="&#x12e;" horiz-adv-x="277" 
d="M212 0q-86 -23 -86 -61q0 -17 12 -23.5t42 -5.5l-1 -89q-159 0 -159 98q0 27 10.5 46t34.5 35v680h147v-680z" />
    <glyph glyph-name="iogonek" unicode="&#x12f;" horiz-adv-x="266" 
d="M63 561v119h140v-119h-140zM63 484h140v-484q-44 -14 -59 -27q-15 -15 -15 -34q0 -18 11.5 -24t42.5 -5l-1 -89q-159 0 -159 98q0 31 8.5 48.5t31.5 32.5v484z" />
    <glyph glyph-name="Idot" unicode="&#x130;" horiz-adv-x="277" 
d="M206 760h-135v118h135v-118zM212 0h-147v680h147v-680z" />
    <glyph glyph-name="dotlessi" unicode="&#x131;" horiz-adv-x="266" 
d="M203 0h-140v484h140v-484z" />
    <glyph glyph-name="IJ" unicode="&#x132;" horiz-adv-x="798" 
d="M212 0h-147v680h147v-680zM370 15q-54 26 -78 70l107 82q36 -48 90 -48q48 0 74 30.5t26 87.5v443h147v-436q0 -123 -65 -189t-183 -66q-64 0 -118 26z" />
    <glyph glyph-name="ij" unicode="&#x133;" horiz-adv-x="532" 
d="M203 561h-140v119h140v-119zM469 561h-140v119h140v-119zM203 0h-140v484h140v-484zM245 -62h30q30 0 42 12t12 44v490h140v-489q0 -175 -181 -175h-43v118z" />
    <glyph glyph-name="Jcircumflex" unicode="&#x134;" horiz-adv-x="521" 
d="M325 747h-105l119 151h96l120 -151h-104l-64 65zM98 15q-54 26 -78 70l107 82q36 -48 90 -48q48 0 74 30.5t26 87.5v443h147v-436q0 -123 -65 -189t-183 -66q-64 0 -118 26z" />
    <glyph glyph-name="jcircumflex" unicode="&#x135;" horiz-adv-x="273" 
d="M307 550h-104l-64 65l-62 -65h-105l119 151h96zM-21 -62h30q30 0 42 12t12 44v490h140v-489q0 -175 -181 -175h-43v118z" />
    <glyph glyph-name="Kcommaaccent" unicode="&#x136;" horiz-adv-x="645" 
d="M212 0h-147v680h147v-304l233 304h169l-216 -271l232 -409h-170l-159 295l-89 -112v-183zM385 -152l-122 -106v208h122v-102z" />
    <glyph glyph-name="kcommaaccent" unicode="&#x137;" horiz-adv-x="531" 
d="M63 680h140v-377l147 181h152l-157 -181l175 -303h-154l-113 205l-50 -62v-143h-140v680zM209 -50h122v-102l-122 -106v208z" />
    <glyph glyph-name="kgreenlandic" unicode="&#x138;" horiz-adv-x="531" 
d="M520 0h-153l-114 205l-50 -62v-143h-140v484h140v-181l147 181h151l-156 -181z" />
    <glyph glyph-name="Lacute" unicode="&#x139;" horiz-adv-x="550" 
d="M201 739h-114l89 150h140zM528 0h-463v680h147v-549h316v-131z" />
    <glyph glyph-name="lacute" unicode="&#x13a;" horiz-adv-x="304" 
d="M190 739h-114l89 150h140zM211 -6q-80 0 -115 36.5t-35 117.5v532h140v-521q0 -46 42 -46h31v-119h-63z" />
    <glyph glyph-name="Lcommaaccent" unicode="&#x13b;" horiz-adv-x="550" 
d="M528 0h-463v680h147v-549h316v-131zM349 -152l-122 -106v208h122v-102z" />
    <glyph glyph-name="lcommaaccent" unicode="&#x13c;" horiz-adv-x="304" 
d="M211 -6q-80 0 -115 36.5t-35 117.5v532h140v-521q0 -46 42 -46h31v-119h-63zM233 -152l-122 -106v208h122v-102z" />
    <glyph glyph-name="Lcaron" unicode="&#x13d;" horiz-adv-x="550" 
d="M528 0h-463v680h147v-549h316v-131zM391 578l-122 -106v208h122v-102z" />
    <glyph glyph-name="lcaron" unicode="&#x13e;" horiz-adv-x="305" 
d="M211 -6q-80 0 -115 36.5t-35 117.5v532h140v-521q0 -46 42 -46h31v-119h-63zM357 578l-122 -106v208h122v-102z" />
    <glyph glyph-name="Ldot" unicode="&#x13f;" horiz-adv-x="550" 
d="M528 0h-463v680h147v-549h316v-131zM483 264h-139v139h139v-139z" />
    <glyph glyph-name="ldot" unicode="&#x140;" horiz-adv-x="387" 
d="M211 -6q-80 0 -115 36.5t-35 117.5v532h140v-521q0 -46 42 -46h31v-119h-63zM395 272h-139v139h139v-139z" />
    <glyph glyph-name="Lslash" unicode="&#x141;" horiz-adv-x="550" 
d="M528 0h-463v252l-56 -28v114l56 28v314h147v-246l137 70v-114l-137 -70v-189h316v-131z" />
    <glyph glyph-name="lslash" unicode="&#x142;" horiz-adv-x="305" 
d="M201 330v-171q0 -46 42 -46h31v-119h-63q-80 0 -115 36.5t-35 117.5v118l-42 -21v110l42 21v304h140v-240l73 37v-110z" />
    <glyph glyph-name="Nacute" unicode="&#x143;" horiz-adv-x="655" 
d="M328 889h140l-115 -150h-114zM457 680h133v-680h-140l-252 446v-446h-133v680h141l251 -447v447z" />
    <glyph glyph-name="nacute" unicode="&#x144;" horiz-adv-x="553" 
d="M303 551h-114l89 150h140zM354 288q0 42 -19.5 65t-55.5 23t-56 -24t-20 -64v-288h-140v484h140v-45q41 56 126 56q77 0 121 -48.5t44 -131.5v-315h-140v288z" />
    <glyph glyph-name="Ncommaaccent" unicode="&#x145;" horiz-adv-x="655" 
d="M457 680h133v-680h-140l-252 446v-446h-133v680h141l251 -447v447zM266 -50h122v-102l-122 -106v208z" />
    <glyph glyph-name="ncommaaccent" unicode="&#x146;" horiz-adv-x="553" 
d="M354 288q0 42 -19.5 65t-55.5 23t-56 -24t-20 -64v-288h-140v484h140v-45q41 56 126 56q77 0 121 -48.5t44 -131.5v-315h-140v288zM338 -152l-122 -106v208h122v-102z" />
    <glyph glyph-name="Ncaron" unicode="&#x147;" horiz-adv-x="655" 
d="M387 894h104l-120 -150h-96l-119 150h104l63 -65zM457 680h133v-680h-140l-252 446v-446h-133v680h141l251 -447v447z" />
    <glyph glyph-name="ncaron" unicode="&#x148;" horiz-adv-x="553" 
d="M341 698h104l-120 -150h-96l-119 150h104l63 -65zM354 288q0 42 -19.5 65t-55.5 23t-56 -24t-20 -64v-288h-140v484h140v-45q41 56 126 56q77 0 121 -48.5t44 -131.5v-315h-140v288z" />
    <glyph glyph-name="napostrophe" unicode="&#x149;" horiz-adv-x="553" 
d="M92 578l-122 -106v208h122v-102zM354 288q0 42 -19.5 65t-55.5 23t-56 -24t-20 -64v-288h-140v484h140v-45q41 56 126 56q77 0 121 -48.5t44 -131.5v-315h-140v288z" />
    <glyph glyph-name="Eng" unicode="&#x14a;" horiz-adv-x="655" 
d="M346 -57h29q35 0 54 15t20 44l-251 444v-446h-133v680h141l251 -447v447h133v-661q0 -203 -201 -203h-43v127z" />
    <glyph glyph-name="eng" unicode="&#x14b;" horiz-adv-x="553" 
d="M272 -180v118h29q30 0 41.5 11.5t11.5 43.5v295q0 42 -19.5 65t-55.5 23t-56 -24t-20 -64v-288h-140v484h140v-45q41 56 126 56q77 0 121 -48.5t44 -131.5v-320q0 -89 -44 -132t-135 -43h-43z" />
    <glyph glyph-name="Omacron" unicode="&#x14c;" horiz-adv-x="628" 
d="M465 771h-303v96h303v-96zM156.5 31.5q-64.5 42.5 -90.5 122.5q-19 56 -19 186q0 91 9.5 147.5t33.5 94.5q28 46 83.5 77.5t140.5 31.5q93 0 157.5 -42.5t90.5 -122.5q19 -56 19 -186q0 -91 -9.5 -147t-33.5 -94q-28 -46 -83.5 -78t-140.5 -32q-93 0 -157.5 42.5z
M392 141.5q26 22.5 33 69.5q7 41 7 129q0 90 -7.5 132.5t-31.5 65.5q-26 23 -79 23q-52 0 -78 -22.5t-33 -68.5q-7 -42 -7 -130q0 -90 7.5 -132.5t31.5 -64.5q26 -24 79 -24q52 0 78 22.5z" />
    <glyph glyph-name="omacron" unicode="&#x14d;" horiz-adv-x="530" 
d="M416 575h-303v96h303v-96zM131.5 24.5q-55.5 35.5 -76.5 100.5q-16 47 -16 117q0 78 21.5 131.5t71.5 86.5q56 35 133 35q78 0 133.5 -35.5t76.5 -100.5q16 -47 16 -117q0 -79 -21 -132t-71 -85q-55 -36 -134 -36q-78 0 -133.5 35.5zM344 170q5 32 5 72q0 48 -5.5 74.5
t-22.5 43.5q-20 17 -56 17q-67 0 -79 -63q-5 -32 -5 -72q0 -48 5.5 -74.5t23.5 -42.5q18 -18 55 -18q67 0 79 63z" />
    <glyph glyph-name="Obreve" unicode="&#x14e;" horiz-adv-x="628" 
d="M202 783.5q-43 39.5 -41 102.5h78q14 -53 75 -53t75 53h79q-1 -65 -43 -103.5t-111 -38.5t-112 39.5zM156.5 31.5q-64.5 42.5 -90.5 122.5q-19 56 -19 186q0 91 9.5 147.5t33.5 94.5q28 46 83.5 77.5t140.5 31.5q93 0 157.5 -42.5t90.5 -122.5q19 -56 19 -186
q0 -91 -9.5 -147t-33.5 -94q-28 -46 -83.5 -78t-140.5 -32q-93 0 -157.5 42.5zM392 141.5q26 22.5 33 69.5q7 41 7 129q0 90 -7.5 132.5t-31.5 65.5q-26 23 -79 23q-52 0 -78 -22.5t-33 -68.5q-7 -42 -7 -130q0 -90 7.5 -132.5t31.5 -64.5q26 -24 79 -24q52 0 78 22.5z" />
    <glyph glyph-name="obreve" unicode="&#x14f;" horiz-adv-x="530" 
d="M190 688q14 -53 75 -53t75 53h79q-1 -65 -43 -103.5t-111 -38.5t-112 39.5t-41 102.5h78zM131.5 24.5q-55.5 35.5 -76.5 100.5q-16 47 -16 117q0 78 21.5 131.5t71.5 86.5q56 35 133 35q78 0 133.5 -35.5t76.5 -100.5q16 -47 16 -117q0 -79 -21 -132t-71 -85
q-55 -36 -134 -36q-78 0 -133.5 35.5zM344 170q5 32 5 72q0 48 -5.5 74.5t-22.5 43.5q-20 17 -56 17q-67 0 -79 -63q-5 -32 -5 -72q0 -48 5.5 -74.5t23.5 -42.5q18 -18 55 -18q67 0 79 63z" />
    <glyph glyph-name="Ohungarumlaut" unicode="&#x150;" horiz-adv-x="628" 
d="M266 737h-104l77 151h119zM437 737h-104l77 151h119zM156.5 31.5q-64.5 42.5 -90.5 122.5q-19 56 -19 186q0 91 9.5 147.5t33.5 94.5q28 46 83.5 77.5t140.5 31.5q93 0 157.5 -42.5t90.5 -122.5q19 -56 19 -186q0 -91 -9.5 -147t-33.5 -94q-28 -46 -83.5 -78t-140.5 -32
q-93 0 -157.5 42.5zM392 141.5q26 22.5 33 69.5q7 41 7 129q0 90 -7.5 132.5t-31.5 65.5q-26 23 -79 23q-52 0 -78 -22.5t-33 -68.5q-7 -42 -7 -130q0 -90 7.5 -132.5t31.5 -64.5q26 -24 79 -24q52 0 78 22.5z" />
    <glyph glyph-name="ohungarumlaut" unicode="&#x151;" horiz-adv-x="530" 
d="M227 549h-104l77 151h119zM398 549h-104l77 151h119zM131.5 24.5q-55.5 35.5 -76.5 100.5q-16 47 -16 117q0 78 21.5 131.5t71.5 86.5q56 35 133 35q78 0 133.5 -35.5t76.5 -100.5q16 -47 16 -117q0 -79 -21 -132t-71 -85q-55 -36 -134 -36q-78 0 -133.5 35.5zM344 170
q5 32 5 72q0 48 -5.5 74.5t-22.5 43.5q-20 17 -56 17q-67 0 -79 -63q-5 -32 -5 -72q0 -48 5.5 -74.5t23.5 -42.5q18 -18 55 -18q67 0 79 63z" />
    <glyph glyph-name="OE" unicode="&#x152;" horiz-adv-x="932" 
d="M153 31q-61 42 -87 122q-19 57 -19 187t23.5 199t82.5 110q62 42 149 42q83 0 130 -45v34h456v-127h-309v-147h260v-126h-260v-153h309v-127h-456v34q-46 -45 -130 -45q-88 0 -149 42zM392 141.5q26 22.5 33 69.5q7 41 7 129q0 90 -7.5 132.5t-31.5 65.5q-26 23 -79 23
q-52 0 -78 -22.5t-33 -68.5q-7 -42 -7 -130q0 -90 7.5 -132.5t31.5 -64.5q26 -24 79 -24q52 0 78 22.5z" />
    <glyph glyph-name="oe" unicode="&#x153;" horiz-adv-x="836" 
d="M421 49q-60 -60 -156 -60q-79 0 -134 35.5t-76 101.5q-16 45 -16 116q0 78 21.5 131.5t71.5 86.5q56 35 133 35q98 0 155 -57q54 57 152 57q78 0 133 -36t76 -100q15 -48 15 -159h-309q0 -16 5 -33q21 -64 101 -64q70 0 117 50l81 -76q-79 -88 -212 -88q-101 0 -158 60z
M658 293q0 24 -5 42q-17 53 -80 53q-30 0 -52 -14t-29 -39q-5 -22 -5 -42h171zM331.5 139q17.5 32 17.5 103q0 48 -5.5 74.5t-22.5 43.5q-20 17 -56 17q-67 0 -79 -63q-5 -32 -5 -72q0 -71 17.5 -103t66.5 -32t66.5 32z" />
    <glyph glyph-name="Racute" unicode="&#x154;" horiz-adv-x="624" 
d="M321 739h-114l89 150h140zM65 680h281q66 0 118.5 -26t82.5 -74t30 -111q0 -65 -32 -114.5t-89 -74.5l140 -280h-165l-122 259h-97v-259h-147v680zM338 384q42 0 67 23t25 62q0 38 -25 61t-67 23h-126v-169h126z" />
    <glyph glyph-name="racute" unicode="&#x155;" horiz-adv-x="426" 
d="M259 551h-114l89 150h140zM63 484h140v-53q37 64 127 64q52 0 93 -35l-65 -118q-40 28 -76 28q-79 0 -79 -105v-265h-140v484z" />
    <glyph glyph-name="Rcommaaccent" unicode="&#x156;" horiz-adv-x="624" 
d="M65 680h281q66 0 118.5 -26t82.5 -74t30 -111q0 -65 -32 -114.5t-89 -74.5l140 -280h-165l-122 259h-97v-259h-147v680zM338 384q42 0 67 23t25 62q0 38 -25 61t-67 23h-126v-169h126zM372 -152l-122 -106v208h122v-102z" />
    <glyph glyph-name="rcommaaccent" unicode="&#x157;" horiz-adv-x="426" 
d="M63 484h140v-53q37 64 127 64q52 0 93 -35l-65 -118q-40 28 -76 28q-79 0 -79 -105v-265h-140v484zM195 -152l-122 -106v208h122v-102z" />
    <glyph glyph-name="Rcaron" unicode="&#x158;" horiz-adv-x="624" 
d="M337 744h-96l-119 150h104l63 -65l64 65h104zM65 680h281q66 0 118.5 -26t82.5 -74t30 -111q0 -65 -32 -114.5t-89 -74.5l140 -280h-165l-122 259h-97v-259h-147v680zM338 384q42 0 67 23t25 62q0 38 -25 61t-67 23h-126v-169h126z" />
    <glyph glyph-name="rcaron" unicode="&#x159;" horiz-adv-x="426" 
d="M298 698h104l-120 -150h-96l-119 150h104l63 -65zM63 484h140v-53q37 64 127 64q52 0 93 -35l-65 -118q-40 28 -76 28q-79 0 -79 -105v-265h-140v484z" />
    <glyph glyph-name="Sacute" unicode="&#x15a;" horiz-adv-x="595" 
d="M347 739h-114l89 150h140zM152 15q-80 31 -122 75l91 104q92 -77 186 -77q51 0 81 22t30 59q0 33 -24 50.5t-81 25.5l-36 5q-215 30 -215 204q0 96 65.5 152t175.5 56q74 0 131.5 -18t107.5 -59l-73 -108q-39 27 -82.5 42t-83.5 15q-42 0 -66.5 -20t-24.5 -54
q0 -31 25 -49t81 -26l36 -5q214 -28 214 -206q0 -99 -71 -156.5t-196 -57.5q-73 0 -149 26z" />
    <glyph glyph-name="sacute" unicode="&#x15b;" horiz-adv-x="505" 
d="M299 551h-114l89 150h140zM136 8.5q-55 19.5 -103 61.5l77 87q77 -59 157 -59q75 0 75 46q0 19 -15.5 28.5t-53.5 13.5l-54 6q-78 8 -118 45.5t-40 102.5q0 72 53 113.5t146 41.5q122 0 204 -66l-69 -85q-68 44 -139 44q-61 0 -61 -40q0 -18 15 -27q14 -9 52 -13l53 -6
q81 -9 121.5 -47t40.5 -94q0 -37 -16.5 -72t-42.5 -55q-57 -45 -158 -45q-69 0 -124 19.5z" />
    <glyph glyph-name="Scircumflex" unicode="&#x15c;" horiz-adv-x="595" 
d="M245 747h-105l119 151h96l120 -151h-104l-64 65zM152 15q-80 31 -122 75l91 104q92 -77 186 -77q51 0 81 22t30 59q0 33 -24 50.5t-81 25.5l-36 5q-215 30 -215 204q0 96 65.5 152t175.5 56q74 0 131.5 -18t107.5 -59l-73 -108q-39 27 -82.5 42t-83.5 15q-42 0 -66.5 -20
t-24.5 -54q0 -31 25 -49t81 -26l36 -5q214 -28 214 -206q0 -99 -71 -156.5t-196 -57.5q-73 0 -149 26z" />
    <glyph glyph-name="scircumflex" unicode="&#x15d;" horiz-adv-x="505" 
d="M430 550h-104l-64 65l-62 -65h-105l119 151h96zM136 8.5q-55 19.5 -103 61.5l77 87q77 -59 157 -59q75 0 75 46q0 19 -15.5 28.5t-53.5 13.5l-54 6q-78 8 -118 45.5t-40 102.5q0 72 53 113.5t146 41.5q122 0 204 -66l-69 -85q-68 44 -139 44q-61 0 -61 -40q0 -18 15 -27
q14 -9 52 -13l53 -6q81 -9 121.5 -47t40.5 -94q0 -37 -16.5 -72t-42.5 -55q-57 -45 -158 -45q-69 0 -124 19.5z" />
    <glyph glyph-name="Scedilla" unicode="&#x15e;" horiz-adv-x="595" 
d="M152 15q-80 31 -122 75l91 104q92 -77 186 -77q51 0 81 22t30 59q0 33 -24 50.5t-81 25.5l-36 5q-215 30 -215 204q0 96 65.5 152t175.5 56q74 0 131.5 -18t107.5 -59l-73 -108q-39 27 -82.5 42t-83.5 15q-42 0 -66.5 -20t-24.5 -54q0 -31 25 -49t81 -26l36 -5
q214 -28 214 -206q0 -99 -71 -156.5t-196 -57.5q-73 0 -149 26zM356 -21q0 -69 -39.5 -113.5t-102.5 -44.5v87q26 0 39.5 19t13.5 52h89z" />
    <glyph glyph-name="scedilla" unicode="&#x15f;" horiz-adv-x="505" 
d="M464 429l-69 -85q-68 44 -139 44q-61 0 -61 -40q0 -18 15 -27q14 -9 52 -13l53 -6q81 -9 121.5 -47t40.5 -94q0 -37 -16.5 -72t-42.5 -55q-57 -45 -158 -45q-69 0 -124 19.5t-103 61.5l77 87q77 -59 157 -59q75 0 75 46q0 19 -15.5 28.5t-53.5 13.5l-54 6
q-78 8 -118 45.5t-40 102.5q0 72 53 113.5t146 41.5q122 0 204 -66zM313 -21q0 -69 -39.5 -113.5t-102.5 -44.5v87q26 0 39.5 19t13.5 52h89z" />
    <glyph glyph-name="Scaron" unicode="&#x160;" horiz-adv-x="595" 
d="M354 744h-96l-119 150h104l63 -65l64 65h104zM152 15q-80 31 -122 75l91 104q92 -77 186 -77q51 0 81 22t30 59q0 33 -24 50.5t-81 25.5l-36 5q-215 30 -215 204q0 96 65.5 152t175.5 56q74 0 131.5 -18t107.5 -59l-73 -108q-39 27 -82.5 42t-83.5 15q-42 0 -66.5 -20
t-24.5 -54q0 -31 25 -49t81 -26l36 -5q214 -28 214 -206q0 -99 -71 -156.5t-196 -57.5q-73 0 -149 26z" />
    <glyph glyph-name="scaron" unicode="&#x161;" horiz-adv-x="505" 
d="M323 698h104l-120 -150h-96l-119 150h104l63 -65zM136 8.5q-55 19.5 -103 61.5l77 87q77 -59 157 -59q75 0 75 46q0 19 -15.5 28.5t-53.5 13.5l-54 6q-78 8 -118 45.5t-40 102.5q0 72 53 113.5t146 41.5q122 0 204 -66l-69 -85q-68 44 -139 44q-61 0 -61 -40
q0 -18 15 -27q14 -9 52 -13l53 -6q81 -9 121.5 -47t40.5 -94q0 -37 -16.5 -72t-42.5 -55q-57 -45 -158 -45q-69 0 -124 19.5z" />
    <glyph glyph-name="uni0162" unicode="&#x162;" horiz-adv-x="558" 
d="M352 0h-147v549h-188v131h523v-131h-188v-549zM339 -152l-122 -106v208h122v-102z" />
    <glyph glyph-name="uni0163" unicode="&#x163;" horiz-adv-x="331" 
d="M227 -6q-83 0 -118.5 38t-35.5 123v226h-46v103h46v156h139v-156h78v-103h-78v-220q0 -27 10 -37.5t34 -10.5h34v-119h-63zM248 -152l-122 -106v208h122v-102z" />
    <glyph glyph-name="Tcaron" unicode="&#x164;" horiz-adv-x="558" 
d="M326 744h-96l-119 150h104l63 -65l64 65h104zM352 0h-147v549h-188v131h523v-131h-188v-549z" />
    <glyph glyph-name="tcaron" unicode="&#x165;" horiz-adv-x="342" 
d="M263 491v189h122v-83zM212 640v-156h78v-103h-78v-220q0 -27 10 -37.5t34 -10.5h34v-119h-63q-83 0 -118.5 38t-35.5 123v226h-46v103h46v156h139z" />
    <glyph glyph-name="Tbar" unicode="&#x166;" horiz-adv-x="558" 
d="M353 0h-147v316h-105v108h105v125h-188v131h523v-131h-188v-125h105v-108h-105v-316z" />
    <glyph glyph-name="tbar" unicode="&#x167;" horiz-adv-x="331" 
d="M227 -6q-83 0 -118.5 38t-35.5 123v83h-36v87h36v56h-46v103h46v146h139v-146h78v-103h-78v-56h66v-87h-66v-77q0 -27 10 -37.5t34 -10.5h34v-119h-63z" />
    <glyph glyph-name="Utilde" unicode="&#x168;" horiz-adv-x="645" 
d="M311 769q-32 18 -58 18q-16 0 -38 -10t-42 -28v92q15 21 38 33t47 12q33 0 75 -21q33 -18 58 -18q16 0 38.5 10.5t42.5 28.5v-93q-15 -21 -38.5 -33t-47.5 -12q-33 0 -75 21zM209 246q0 -59 31 -93t83 -34t82.5 33.5t30.5 93.5v434h147v-430q0 -122 -69.5 -191.5
t-190.5 -69.5q-123 0 -192 68.5t-69 192.5v430h147v-434z" />
    <glyph glyph-name="utilde" unicode="&#x169;" horiz-adv-x="549" 
d="M262 574q-32 18 -58 18q-16 0 -38 -10t-42 -28v92q15 21 38 33t47 12q33 0 75 -21q33 -18 58 -18q16 0 38.5 10.5t42.5 28.5v-93q-15 -21 -38.5 -33t-47.5 -12q-33 0 -75 21zM346 46q-42 -57 -125 -57q-76 0 -119.5 48.5t-43.5 131.5v315h140v-288q0 -41 19.5 -64.5
t54.5 -23.5t54.5 23.5t19.5 64.5v288h140v-484h-140v46z" />
    <glyph glyph-name="Umacron" unicode="&#x16a;" horiz-adv-x="645" 
d="M474 771h-303v96h303v-96zM209 246q0 -59 31 -93t83 -34t82.5 33.5t30.5 93.5v434h147v-430q0 -122 -69.5 -191.5t-190.5 -69.5q-123 0 -192 68.5t-69 192.5v430h147v-434z" />
    <glyph glyph-name="umacron" unicode="&#x16b;" horiz-adv-x="549" 
d="M425 575h-303v96h303v-96zM346 46q-42 -57 -125 -57q-76 0 -119.5 48.5t-43.5 131.5v315h140v-288q0 -41 19.5 -64.5t54.5 -23.5t54.5 23.5t19.5 64.5v288h140v-484h-140v46z" />
    <glyph glyph-name="Ubreve" unicode="&#x16c;" horiz-adv-x="645" 
d="M210 783.5q-43 39.5 -41 102.5h78q14 -53 75 -53t75 53h79q-1 -65 -43 -103.5t-111 -38.5t-112 39.5zM131 57.5q-69 68.5 -69 192.5v430h147v-434q0 -59 31 -93t83 -34t82.5 33.5t30.5 93.5v434h147v-430q0 -122 -69.5 -191.5t-190.5 -69.5q-123 0 -192 68.5z" />
    <glyph glyph-name="ubreve" unicode="&#x16d;" horiz-adv-x="549" 
d="M199 688q14 -53 75 -53t75 53h79q-1 -65 -43 -103.5t-111 -38.5t-112 39.5t-41 102.5h78zM346 46q-42 -57 -125 -57q-76 0 -119.5 48.5t-43.5 131.5v315h140v-288q0 -41 19.5 -64.5t54.5 -23.5t54.5 23.5t19.5 64.5v288h140v-484h-140v46z" />
    <glyph glyph-name="Uring" unicode="&#x16e;" horiz-adv-x="645" 
d="M429 820q0 -22 -8 -42.5t-23 -35.5q-30 -30 -76 -30t-77 30q-30 32 -30 77q0 46 30.5 76t76.5 30q21 0 41 -7.5t35 -22.5q31 -31 31 -75zM368 819q0 19 -12.5 33.5t-33.5 14.5t-34 -15t-13 -35q0 -19 12.5 -32.5t34.5 -13.5q24 0 37 19q9 12 9 29zM209 246q0 -59 31 -93
t83 -34t82.5 33.5t30.5 93.5v434h147v-430q0 -122 -69.5 -191.5t-190.5 -69.5q-123 0 -192 68.5t-69 192.5v430h147v-434z" />
    <glyph glyph-name="uring" unicode="&#x16f;" horiz-adv-x="549" 
d="M374 671q8 -20 8 -41t-8 -41t-24 -35q-30 -30 -76 -30t-77 31t-31 75q0 21 8 41t23 35q31 31 76 31q22 0 42.5 -8t34.5 -23q16 -15 24 -35zM296 673.5q-10 5.5 -21 5.5q-22 0 -34.5 -15.5t-12.5 -35.5q0 -18 13 -32.5t32 -14.5q21 0 34 14.5t13 35.5q0 14 -8 28
q-6 9 -16 14.5zM486 0h-140v46q-42 -57 -125 -57q-76 0 -119.5 48.5t-43.5 131.5v315h140v-288q0 -41 19.5 -64.5t54.5 -23.5t54.5 23.5t19.5 64.5v288h140v-484z" />
    <glyph glyph-name="Uhungarumlaut" unicode="&#x170;" horiz-adv-x="645" 
d="M278 737h-104l77 151h119zM449 737h-104l77 151h119zM209 246q0 -59 31 -93t83 -34t82.5 33.5t30.5 93.5v434h147v-430q0 -122 -69.5 -191.5t-190.5 -69.5q-123 0 -192 68.5t-69 192.5v430h147v-434z" />
    <glyph glyph-name="uhungarumlaut" unicode="&#x171;" horiz-adv-x="549" 
d="M237 549h-104l77 151h119zM408 549h-104l77 151h119zM346 46q-42 -57 -125 -57q-76 0 -119.5 48.5t-43.5 131.5v315h140v-288q0 -41 19.5 -64.5t54.5 -23.5t54.5 23.5t19.5 64.5v288h140v-484h-140v46z" />
    <glyph glyph-name="Uogonek" unicode="&#x172;" horiz-adv-x="645" 
d="M583 680v-430q0 -102 -49.5 -168.5t-139.5 -85.5q-34 -11 -47.5 -24t-13.5 -33q0 -18 11.5 -24t42.5 -5l-1 -89q-159 0 -159 98q0 25 8.5 42.5t27.5 32.5q-96 16 -148.5 82.5t-52.5 173.5v430h147v-434q0 -59 31 -93t83 -34t82.5 33.5t30.5 93.5v434h147z" />
    <glyph glyph-name="uogonek" unicode="&#x173;" horiz-adv-x="550" 
d="M486 484v-484q-45 -13 -60 -27q-15 -15 -15 -34q0 -18 12 -24t43 -5l-1 -89q-160 0 -160 98q0 30 9 48t32 33v46q-42 -57 -125 -57q-76 0 -119.5 48.5t-43.5 131.5v315h140v-288q0 -41 19.5 -64.5t54.5 -23.5t54.5 23.5t19.5 64.5v288h140z" />
    <glyph glyph-name="Wcircumflex" unicode="&#x174;" horiz-adv-x="865" 
d="M602 747h-104l-64 65l-62 -65h-105l119 151h96zM677 0h-120l-122 436l-123 -436h-119l-182 680h150l101 -441l120 441h106l124 -441l97 441h149z" />
    <glyph glyph-name="wcircumflex" unicode="&#x175;" horiz-adv-x="763" 
d="M552 550h-104l-64 65l-62 -65h-105l119 151h96zM590 0h-118l-87 294l-89 -294h-117l-161 484h144l84 -302l87 302h105l89 -302l80 302h144z" />
    <glyph glyph-name="Ycircumflex" unicode="&#x176;" horiz-adv-x="568" 
d="M238 898h96l120 -151h-104l-64 65l-62 -65h-105zM419 680h148l-206 -409v-271h-147v271l-206 409h152l130 -261z" />
    <glyph glyph-name="ycircumflex" unicode="&#x177;" horiz-adv-x="507" 
d="M210 701h96l120 -151h-104l-64 65l-62 -65h-105zM301 -41q-30 -78 -68 -108.5t-103 -30.5h-44v118h31q26 0 41.5 11.5t24.5 38.5l13 36l-184 460h149l101 -293l94 293h145z" />
    <glyph glyph-name="Ydieresis" unicode="&#x178;" horiz-adv-x="568" 
d="M131 878h110v-118h-110v118zM334 878h110v-118h-110v118zM419 680h148l-206 -409v-271h-147v271l-206 409h152l130 -261z" />
    <glyph glyph-name="Zacute" unicode="&#x179;" horiz-adv-x="546" 
d="M308 739h-114l89 150h140zM506 0h-466v126l297 423h-286v131h455v-126l-298 -423h298v-131z" />
    <glyph glyph-name="zacute" unicode="&#x17a;" horiz-adv-x="490" 
d="M287 551h-114l89 150h140zM444 115v-115h-398v107l235 262h-222v115h385v-112l-233 -257h233z" />
    <glyph glyph-name="Zdotaccent" unicode="&#x17b;" horiz-adv-x="546" 
d="M340 760h-135v118h135v-118zM506 0h-466v126l297 423h-286v131h455v-126l-298 -423h298v-131z" />
    <glyph glyph-name="zdotaccent" unicode="&#x17c;" horiz-adv-x="490" 
d="M316 561h-135v118h135v-118zM444 115v-115h-398v107l235 262h-222v115h385v-112l-233 -257h233z" />
    <glyph glyph-name="Zcaron" unicode="&#x17d;" horiz-adv-x="546" 
d="M337 894h104l-120 -150h-96l-119 150h104l63 -65zM506 0h-466v126l297 423h-286v131h455v-126l-298 -423h298v-131z" />
    <glyph glyph-name="zcaron" unicode="&#x17e;" horiz-adv-x="490" 
d="M312 697h104l-120 -150h-96l-119 150h104l63 -65zM444 115v-115h-398v107l235 262h-222v115h385v-112l-233 -257h233z" />
    <glyph glyph-name="florin" unicode="&#x192;" 
d="M355 313l-49 -322q-15 -93 -58 -132t-130 -39h-42v117h29q32 0 46.5 12t19.5 45l48 319h-71v104h87l15 95q14 90 57.5 129t128.5 39h44v-117h-31q-29 0 -44 -13t-20 -42l-14 -91h88v-104h-104z" />
    <glyph glyph-name="Scommaaccent" unicode="&#x218;" horiz-adv-x="595" 
d="M152 15q-80 31 -122 75l91 104q92 -77 186 -77q51 0 81 22t30 59q0 33 -24 50.5t-81 25.5l-36 5q-215 30 -215 204q0 96 65.5 152t175.5 56q74 0 131.5 -18t107.5 -59l-73 -108q-39 27 -82.5 42t-83.5 15q-42 0 -66.5 -20t-24.5 -54q0 -31 25 -49t81 -26l36 -5
q214 -28 214 -206q0 -99 -71 -156.5t-196 -57.5q-73 0 -149 26zM364 -152l-122 -106v208h122v-102z" />
    <glyph glyph-name="scommaaccent" unicode="&#x219;" horiz-adv-x="505" 
d="M136 8.5q-55 19.5 -103 61.5l77 87q77 -59 157 -59q75 0 75 46q0 19 -15.5 28.5t-53.5 13.5l-54 6q-78 8 -118 45.5t-40 102.5q0 72 53 113.5t146 41.5q122 0 204 -66l-69 -85q-68 44 -139 44q-61 0 -61 -40q0 -18 15 -27q14 -9 52 -13l53 -6q81 -9 121.5 -47t40.5 -94
q0 -37 -16.5 -72t-42.5 -55q-57 -45 -158 -45q-69 0 -124 19.5zM323 -152l-122 -106v208h122v-102z" />
    <glyph glyph-name="uni021A" unicode="&#x21a;" horiz-adv-x="558" 
d="M352 0h-147v549h-188v131h523v-131h-188v-549zM340 -152l-122 -106v208h122v-102z" />
    <glyph glyph-name="uni021B" unicode="&#x21b;" horiz-adv-x="331" 
d="M227 -6q-83 0 -118.5 38t-35.5 123v226h-46v103h46v156h139v-156h78v-103h-78v-220q0 -27 10 -37.5t34 -10.5h34v-119h-63zM248 -152l-122 -106v208h122v-102z" />
    <glyph glyph-name="uni0237" unicode="&#x237;" horiz-adv-x="266" 
d="M-21 -180v118h30q30 0 42 12t12 44v490h140v-489q0 -175 -181 -175h-43z" />
    <glyph glyph-name="circumflex" unicode="&#x2c6;" horiz-adv-x="454" 
d="M396 550h-104l-64 65l-62 -65h-105l119 151h96z" />
    <glyph glyph-name="caron" unicode="&#x2c7;" horiz-adv-x="454" 
d="M291 697h104l-120 -150h-96l-119 150h104l63 -65z" />
    <glyph glyph-name="breve" unicode="&#x2d8;" horiz-adv-x="454" 
d="M152 688q14 -53 75 -53t75 53h79q-1 -65 -43 -103.5t-111 -38.5t-112 39.5t-41 102.5h78z" />
    <glyph glyph-name="dotaccent" unicode="&#x2d9;" horiz-adv-x="454" 
d="M294 561h-135v118h135v-118z" />
    <glyph glyph-name="ring" unicode="&#x2da;" horiz-adv-x="454" 
d="M327 671q8 -20 8 -41t-8 -41t-24 -35q-30 -30 -76 -30q-45 0 -77 30q-31 31 -31 76q0 21 8 41t23 35q31 31 76 31q22 0 42.5 -8t34.5 -23q16 -15 24 -35zM273 631q0 20 -10 30q-13 19 -36 19q-21 0 -34 -14.5t-13 -35.5q0 -20 12.5 -34t33.5 -14q24 0 37 19q10 10 10 30z
" />
    <glyph glyph-name="ogonek" unicode="&#x2db;" horiz-adv-x="454" 
d="M299 10q-44 -23 -60 -38q-18 -17 -18 -33q0 -18 12 -24t43 -5l-1 -89q-160 0 -160 98q0 27 14 49t44 42h126z" />
    <glyph glyph-name="tilde" unicode="&#x2dc;" horiz-adv-x="454" 
d="M214 574q-32 18 -58 18q-16 0 -38 -10t-42 -28v92q15 21 38 33t47 12q33 0 75 -21q33 -18 58 -18q16 0 38.5 10.5t42.5 28.5v-93q-15 -21 -38.5 -33t-47.5 -12q-33 0 -75 21z" />
    <glyph glyph-name="hungarumlaut" unicode="&#x2dd;" horiz-adv-x="454" 
d="M157 549h-104l77 151h119zM328 549h-104l77 151h119z" />
    <glyph glyph-name="uni0394" unicode="&#x394;" horiz-adv-x="650" 
d="M639 0h-623l242 680h145zM205 121h246l-123 376z" />
    <glyph glyph-name="uni03A9" unicode="&#x3a9;" horiz-adv-x="636" 
d="M48 0v124h69q-37 29 -53 79t-16 137q0 89 10 145.5t34 95.5q28 46 84 78t142 32q93 0 158.5 -43t92.5 -124q19 -54 19 -184q0 -89 -16.5 -139t-54.5 -77h71v-124h-233v121q47 14 65.5 63.5t18.5 155.5q0 90 -7.5 131.5t-31.5 65.5q-25 24 -82 24q-52 0 -78.5 -22.5
t-34.5 -69.5q-8 -50 -8 -129q0 -106 18.5 -155t65.5 -64v-121h-233z" />
    <glyph glyph-name="uni03BC" unicode="&#x3bc;" horiz-adv-x="602" 
d="M331 8.5q-28 -15.5 -74 -15.5q-39 0 -55 16v-189h-140v664h140v-287q0 -42 19 -65t55 -23q38 0 60 25.5t22 71.5v278h140v-337q0 -23 7 -28.5t32 -5.5v-119h-28q-40 0 -62 5.5t-37 19.5q-14 14 -30 43q-21 -38 -49 -53.5z" />
    <glyph glyph-name="pi" unicode="&#x3c0;" horiz-adv-x="605" 
d="M512 -6q-77 0 -111.5 36.5t-34.5 116.5v216h-137v-363h-139v363h-60v121h535v-121h-60v-209q0 -23 7.5 -32t25.5 -9h15v-119h-41z" />
    <glyph glyph-name="Wgrave" unicode="&#x1e80;" horiz-adv-x="865" 
d="M495 738h-115l-113 150l140 1zM677 0h-120l-122 436l-123 -436h-119l-182 680h150l101 -441l120 441h106l124 -441l97 441h149z" />
    <glyph glyph-name="wgrave" unicode="&#x1e81;" horiz-adv-x="763" 
d="M441 551h-114l-114 150h140zM590 0h-118l-87 294l-89 -294h-117l-161 484h144l84 -302l87 302h105l89 -302l80 302h144z" />
    <glyph glyph-name="Wacute" unicode="&#x1e82;" horiz-adv-x="865" 
d="M496 739h-114l89 150h140zM677 0h-120l-122 436l-123 -436h-119l-182 680h150l101 -441l120 441h106l124 -441l97 441h149z" />
    <glyph glyph-name="wacute" unicode="&#x1e83;" horiz-adv-x="763" 
d="M443 551h-114l89 150h140zM590 0h-118l-87 294l-89 -294h-117l-161 484h144l84 -302l87 302h105l89 -302l80 302h144z" />
    <glyph glyph-name="Wdieresis" unicode="&#x1e84;" horiz-adv-x="865" 
d="M278 878h110v-118h-110v118zM481 878h110v-118h-110v118zM709 680h149l-181 -680h-120l-122 436l-123 -436h-119l-182 680h150l101 -441l120 441h106l124 -441z" />
    <glyph glyph-name="wdieresis" unicode="&#x1e85;" horiz-adv-x="763" 
d="M227 679h110v-118h-110v118zM430 679h110v-118h-110v118zM607 484h144l-161 -484h-118l-87 294l-89 -294h-117l-161 484h144l84 -302l87 302h105l89 -302z" />
    <glyph glyph-name="Ygrave" unicode="&#x1ef2;" horiz-adv-x="568" 
d="M358 738h-115l-113 150l140 1zM419 680h148l-206 -409v-271h-147v271l-206 409h152l130 -261z" />
    <glyph glyph-name="ygrave" unicode="&#x1ef3;" horiz-adv-x="507" 
d="M100 701h140l88 -150h-114zM301 -41q-30 -78 -68 -108.5t-103 -30.5h-44v118h31q26 0 41.5 11.5t24.5 38.5l13 36l-184 460h149l101 -293l94 293h145z" />
    <glyph glyph-name="uni2010" unicode="&#x2010;" horiz-adv-x="392" 
d="M350 204h-308v122h308v-122z" />
    <glyph glyph-name="endash" unicode="&#x2013;" horiz-adv-x="535" 
d="M515 324v-117h-495v117h495z" />
    <glyph glyph-name="emdash" unicode="&#x2014;" horiz-adv-x="894" 
d="M874 324v-117h-854v117h854z" />
    <glyph glyph-name="quoteleft" unicode="&#x2018;" horiz-adv-x="231" 
d="M56 601l119 95v-214h-119v119z" />
    <glyph glyph-name="quoteright" unicode="&#x2019;" horiz-adv-x="231" 
d="M175 551l-119 -95v224h119v-129z" />
    <glyph glyph-name="quotesinglbase" unicode="&#x201a;" horiz-adv-x="231" 
d="M175 -9l-119 -95v224h119v-129z" />
    <glyph glyph-name="quotedblleft" unicode="&#x201c;" horiz-adv-x="417" 
d="M56 601l119 95v-224h-119v129zM242 601l119 95v-224h-119v129z" />
    <glyph glyph-name="quotedblright" unicode="&#x201d;" horiz-adv-x="417" 
d="M56 680h119v-129l-119 -95v224zM242 680h119v-129l-119 -95v224z" />
    <glyph glyph-name="quotedblbase" unicode="&#x201e;" horiz-adv-x="417" 
d="M56 120h119v-129l-119 -95v224zM242 120h119v-129l-119 -95v224z" />
    <glyph glyph-name="dagger" unicode="&#x2020;" horiz-adv-x="548" 
d="M342 -180h-136v519h-160v122h160v219h136v-219h160v-122h-160v-519z" />
    <glyph glyph-name="daggerdbl" unicode="&#x2021;" horiz-adv-x="548" 
d="M342 -180h-136v186h-160v122h160v244h-160v122h160v186h136v-186h160v-122h-160v-244h160v-122h-160v-186z" />
    <glyph glyph-name="bullet" unicode="&#x2022;" horiz-adv-x="475" 
d="M128.5 199.5q-41.5 41.5 -41.5 108.5t41.5 109t108.5 42q66 0 108.5 -42.5t42.5 -108.5q0 -67 -42 -108.5t-109 -41.5t-108.5 41.5z" />
    <glyph glyph-name="ellipsis" unicode="&#x2026;" horiz-adv-x="777" 
d="M199 0h-139v140h139v-140zM458 0h-139v140h139v-140zM717 0h-139v140h139v-140z" />
    <glyph glyph-name="perthousand" unicode="&#x2030;" horiz-adv-x="1136" 
d="M152 -11l407 702h104l-407 -702h-104zM116 352q-34 22 -47 60q-9 26 -9 97q0 72 11 103.5t45 53.5t82 22t82 -22t47 -60q9 -25 9 -97t-11 -103.5t-45 -53.5t-82 -22t-82 22zM233 432q4 7 4 77t-4 77q-8 23 -35 23t-35 -23q-4 -7 -4 -77t4 -77q8 -23 35 -23t35 23z
M478 170q0 72 11 103.5t45 53.5t82 22t82 -22t47 -60q9 -30 9 -97q0 -69 -11.5 -102.5t-44.5 -54.5q-34 -22 -82 -22t-82 22t-47 61q-9 26 -9 96zM800 170q0 51 4.5 78.5t16.5 45.5q12 17 35 33q34 22 82 22t82 -22t46 -60q10 -24 10 -97q0 -70 -11.5 -102t-44.5 -54
q-35 -23 -82 -23q-48 0 -82.5 22t-46.5 61q-9 26 -9 96zM616 70q28 0 35 24q4 7 4 76q0 70 -4 77q-8 23 -35 23t-35 -23q-4 -7 -4 -77q0 -69 4 -76q8 -24 35 -24zM938 70q28 0 35 24q4 7 4 76q0 70 -4 77q-8 23 -35 23q-28 0 -36 -23q-3 -12 -3 -77t3 -76q8 -24 36 -24z" />
    <glyph glyph-name="guilsinglleft" unicode="&#x2039;" horiz-adv-x="319" 
d="M265 28l-237 236l237 236v-141l-96 -95l96 -95v-141z" />
    <glyph glyph-name="guilsinglright" unicode="&#x203a;" horiz-adv-x="319" 
d="M299 264l-238 -236v140l96 96l-96 95v140z" />
    <glyph glyph-name="uni203D" unicode="&#x203d;" horiz-adv-x="473" 
d="M383.5 642q54.5 -49 54.5 -128q0 -68 -54 -142l-86 -117v-56h-135l-26 277h129l-2 -93l23 38q23 38 23 78q0 77 -77 77q-58 0 -78 -53l-123 24q26 144 205 144q92 0 146.5 -49zM160 134h140v-134h-140v134z" />
    <glyph glyph-name="fraction" unicode="&#x2044;" horiz-adv-x="166" 
d="M-62 -11h-105l407 702h105z" />
    <glyph glyph-name="Euro" unicode="&#x20ac;" 
d="M181 26q-55 37 -77 107q-14 47 -14 104h-52v82h52v46h-52v82h52q0 133 65 188.5t161 55.5q147 0 207 -130l-115 -53q-35 65 -90 65q-50 0 -68 -31t-18 -95h183l-13 -82h-170v-46h164l-14 -82h-150q0 -67 18 -98.5t68 -31.5q56 0 91 65l114 -53q-58 -130 -207 -130
q-80 0 -135 37z" />
    <glyph glyph-name="uni2105" unicode="&#x2105;" horiz-adv-x="814" 
d="M559 691h105l-407 -702h-105zM334 614l-75 -45q-8 16 -21 25t-27 9q-31 0 -41.5 -20.5t-10.5 -71.5q0 -57 10 -78.5t42 -21.5q33 0 48 36l76 -44q-40 -73 -128 -73q-53 0 -90.5 24t-52.5 69q-10 26 -10 89q0 58 13.5 92.5t48.5 57.5q38 24 91 24q88 0 127 -72zM708 323
q38 -26 50 -69q10 -37 10 -85q0 -57 -14.5 -95t-47.5 -61q-37 -24 -88 -24q-52 0 -89 25t-50 69q-11 44 -11 87q0 114 61 154q37 25 89 25t90 -26zM577.5 241.5q-9.5 -23.5 -9.5 -72.5q0 -41 6 -61q7 -35 44 -35q28 0 38 22.5t10 73.5q0 53 -9 74.5t-40 21.5
q-30 0 -39.5 -23.5z" />
    <glyph glyph-name="uni2113" unicode="&#x2113;" horiz-adv-x="461" 
d="M29 213l95 71v191q0 105 41 160.5t121 55.5q66 0 104.5 -40.5t38.5 -111.5q0 -146 -176 -299v-86q0 -52 41 -52q29 0 63 31l56 -81q-63 -63 -147 -63q-142 0 -142 163v9l-38 -28zM253 380q70 76 70 160q0 53 -32 53q-20 0 -29 -21q-9 -22 -9 -75v-117z" />
    <glyph glyph-name="uni2117" unicode="&#x2117;" horiz-adv-x="811" 
d="M405 -11q-98 0 -178.5 45.5t-126.5 126.5q-46 79 -46 179q0 98 46 178.5t127 126.5q79 46 178 46t179.5 -45.5t126.5 -126.5q46 -80 46 -179q0 -150 -101 -251q-100 -100 -251 -100zM405 69q75 0 136.5 35t96.5 97t35 139t-35 138.5t-96 97.5q-62 35 -137 35t-136 -35
t-96 -97t-35 -139q0 -118 76 -194q77 -77 191 -77zM264 528h160q160 0 160 -130q0 -143 -160 -143h-50v-117h-110v390zM405 341q43 0 61.5 12t18.5 41q0 49 -80 49h-31v-102h31z" />
    <glyph glyph-name="trademark" unicode="&#x2122;" horiz-adv-x="846" 
d="M246 286h-97v310h-112v84h320v-84h-111v-310zM794 286h-89v210l-68 -154h-65l-69 154v-210h-89v394h87l105 -229l101 229h87v-394z" />
    <glyph glyph-name="uni2126" unicode="&#x2126;" horiz-adv-x="636" 
d="M476.5 648q65.5 -43 92.5 -124q19 -54 19 -184q0 -89 -16.5 -139t-54.5 -77h71v-124h-233v121q47 14 65.5 63.5t18.5 155.5q0 90 -7.5 131.5t-31.5 65.5q-25 24 -82 24q-52 0 -78.5 -22.5t-34.5 -69.5q-8 -50 -8 -129q0 -106 18.5 -155t65.5 -64v-121h-233v124h69
q-37 29 -53 79t-16 137q0 89 10 145.5t34 95.5q28 46 84 78t142 32q93 0 158.5 -43z" />
    <glyph glyph-name="estimated" unicode="&#x212e;" horiz-adv-x="586" 
d="M170 22q-54 33 -84 92t-30 129q0 71 30 128.5t84 90.5q53 33 122 33q70 0 124 -31.5t84 -89.5q30 -57 30 -131h-370v-167q52 -52 132 -52q111 0 176 110l33 -21q-45 -67 -92.5 -95.5t-116.5 -28.5q-68 0 -122 33zM426 409q-59 56 -134 56q-79 0 -132 -56v-133h266v133z
" />
    <glyph glyph-name="partialdiff" unicode="&#x2202;" horiz-adv-x="549" 
d="M139.5 15.5q-47.5 26.5 -73.5 74.5q-26 47 -26 108q0 63 26.5 114t74.5 79q47 28 109 28q78 0 128 -47q-2 96 -36.5 149t-94.5 53q-25 0 -54 -12t-55 -33l-63 93q42 36 85.5 52.5t94.5 16.5q120 0 187 -87t67 -245q0 -109 -29 -191.5t-85 -129.5q-58 -49 -145 -49
q-63 0 -110.5 26.5zM372 271q-43 37 -102 37q-46 0 -72.5 -28.5t-26.5 -78.5q0 -42 24.5 -67.5t64.5 -25.5q96 0 112 163z" />
    <glyph glyph-name="uni2206" unicode="&#x2206;" horiz-adv-x="650" 
d="M639 0h-623l242 680h145zM205 121h246l-123 376z" />
    <glyph glyph-name="product" unicode="&#x220f;" horiz-adv-x="668" 
d="M599 -180h-147v789h-236v-789h-147v920h530v-920z" />
    <glyph glyph-name="summation" unicode="&#x2211;" horiz-adv-x="544" 
d="M510 -180h-476v122l175 375l-171 296v127h462v-131h-296l161 -282l-174 -376h319v-131z" />
    <glyph glyph-name="minus" unicode="&#x2212;" 
d="M505 335v-118h-454v118h454z" />
    <glyph glyph-name="uni2215" unicode="&#x2215;" horiz-adv-x="166" 
d="M-62 -11h-105l407 702h105z" />
    <glyph glyph-name="uni2219" unicode="&#x2219;" horiz-adv-x="259" 
d="M199 195h-139v140h139v-140z" />
    <glyph glyph-name="radical" unicode="&#x221a;" horiz-adv-x="649" 
d="M389 -180h-114l-131 266l-72 -35l-45 90l178 86l113 -238l200 751h126z" />
    <glyph glyph-name="infinity" unicode="&#x221e;" horiz-adv-x="753" 
d="M376 173q-90 -93 -179 -93q-73 0 -118.5 46t-45.5 120q0 48 21.5 86t59.5 60q38 21 85 21q83 0 177 -97q52 52 92.5 74.5t85.5 22.5q74 0 120 -46.5t46 -120.5q0 -48 -21 -86t-59 -59q-37 -21 -85 -21q-87 0 -179 93zM249 189q24 16 63 57q-37 41 -61.5 58t-47.5 17
q-33 0 -52.5 -20t-19.5 -53t19.5 -54.5t52.5 -21.5q20 0 46 17zM602.5 193.5q19.5 21.5 19.5 54.5t-19.5 53t-52.5 20q-24 0 -46 -16q-24 -16 -64 -59q38 -42 62 -58t48 -16q33 0 52.5 21.5z" />
    <glyph glyph-name="integral" unicode="&#x222b;" horiz-adv-x="430" 
d="M49 -175v118q25 -5 42 -5q28 0 41 17.5t13 58.5v516q0 111 41.5 160.5t132.5 49.5q29 0 62 -5v-118q-25 5 -41 5q-29 0 -42 -17.5t-13 -58.5v-516q0 -111 -41.5 -160.5t-132.5 -49.5q-30 0 -62 5z" />
    <glyph glyph-name="approxequal" unicode="&#x2248;" 
d="M299 428q37 -25 65 -25q41 0 69 58l86 -53q-22 -52 -62.5 -83t-86.5 -31q-49 0 -105 35q-37 25 -65 25q-21 0 -39 -14.5t-30 -43.5l-85 53q22 52 62 83t86 31q49 0 105 -35zM299 221q37 -25 65 -25q41 0 69 58l86 -53q-22 -52 -62.5 -83t-86.5 -31q-49 0 -105 35
q-37 25 -65 25q-21 0 -39 -14.5t-30 -43.5l-85 53q22 52 62 83t86 31q49 0 105 -35z" />
    <glyph glyph-name="notequal" unicode="&#x2260;" 
d="M505 230v-118h-257l-53 -108h-100l53 108h-97v118h154l45 92h-199v118h257l53 108h100l-53 -108h97v-118h-155l-45 -92h200z" />
    <glyph glyph-name="lessequal" unicode="&#x2264;" 
d="M505 159l-454 178v104l454 178v-128l-278 -102l278 -102v-128zM505 118v-118h-454v118h454z" />
    <glyph glyph-name="greaterequal" unicode="&#x2265;" 
d="M505 337l-454 -178v129l278 101l-278 102v128l454 -178v-104zM505 118v-118h-454v118h454z" />
    <glyph glyph-name="lozenge" unicode="&#x25ca;" horiz-adv-x="563" 
d="M344 -52h-119l-182 381l182 381h119l182 -381zM172 329l114 -253l110 253l-112 253z" />
    <glyph glyph-name="f_i" unicode="&#xf001;" horiz-adv-x="605" 
d="M81 381h-46v103h46v29q0 87 41 127t129 40h65v-114h-41q-33 0 -44 -11t-11 -41v-30h95v-103h-95v-381h-139v381zM542 561h-140v119h140v-119zM542 0h-140v484h140v-484z" />
    <glyph glyph-name="f_l" unicode="&#xf002;" horiz-adv-x="643" 
d="M81 381h-46v103h46v29q0 87 41 127t129 40h65v-114h-41q-33 0 -44 -11t-11 -41v-30h95v-103h-95v-381h-139v381zM550 -6q-80 0 -115 36.5t-35 117.5v532h140v-521q0 -46 42 -46h31v-119h-63z" />
    <glyph glyph-name="uniF8FF" unicode="&#xf8ff;" horiz-adv-x="506" 
d="M0 0v680h506v-680h-506zM69 615v-550h368v550h-368zM199 277q0 29 19 54l46 60q23 32 23 52q0 18 -11.5 30t-29.5 12q-21 0 -33 -11.5t-18 -37.5l-83 13q9 56 44.5 85t93.5 29q56 0 91.5 -33t35.5 -84q0 -44 -32 -82l-45 -60q-13 -16 -13 -38v-23h-88v34zM198 114v87h91
v-87h-91z" />
    <glyph glyph-name="f_f" unicode="&#xfb00;" horiz-adv-x="678" 
d="M81 381h-46v103h46v29q0 87 41 127t129 40h65v-114h-41q-32 0 -43.5 -10.5t-11.5 -41.5v-30h95v-103h-95v-381h-139v381zM420 381h-46v103h46v29q0 87 41 127t129 40h65v-114h-41q-33 0 -44 -11t-11 -41v-30h95v-103h-95v-381h-139v381z" />
    <glyph glyph-name="fi" unicode="&#xfb01;" horiz-adv-x="605" 
d="M81 381h-46v103h46v29q0 87 41 127t129 40h65v-114h-41q-33 0 -44 -10.5t-11 -41.5v-30h95v-103h-95v-381h-139v381zM542 561h-140v119h140v-119zM542 0h-140v484h140v-484z" />
    <glyph glyph-name="fl" unicode="&#xfb02;" horiz-adv-x="643" 
d="M81 381h-46v103h46v29q0 87 41 127t129 40h65v-114h-41q-33 0 -44 -11t-11 -41v-30h95v-103h-95v-381h-139v381zM550 -6q-80 0 -115 36.5t-35 117.5v532h140v-521q0 -46 42 -46h31v-119h-63z" />
    <glyph glyph-name="f_f_i" unicode="&#xfb03;" horiz-adv-x="944" 
d="M81 381h-46v103h46v29q0 87 41 127t129 40h65v-114h-41q-33 0 -44 -10.5t-11 -41.5v-30h95v-103h-95v-381h-139v381zM420 381h-46v103h46v29q0 87 41 127t129 40h65v-114h-41q-32 0 -43.5 -10.5t-11.5 -41.5v-30h95v-103h-95v-381h-139v381zM881 561h-140v119h140v-119z
M881 0h-140v484h140v-484z" />
    <glyph glyph-name="f_f_l" unicode="&#xfb04;" horiz-adv-x="982" 
d="M81 381h-46v103h46v29q0 87 41 127t129 40h65v-114h-41q-33 0 -44 -11t-11 -41v-30h95v-103h-95v-381h-139v381zM420 381h-46v103h46v29q0 87 41 127t129 40h65v-114h-41q-29 0 -39 -7q-9 -5 -12.5 -15.5t-3.5 -29.5v-30h95v-103h-95v-381h-139v381zM889 -6
q-80 0 -115 36.5t-35 117.5v532h140v-521q0 -46 42 -46h31v-119h-63z" />
    </font>
</defs>
</svg>
