<?xml version="1.0" standalone="no"?>
<!DOCTYPE svg PUBLIC "-//W3C//DTD SVG 1.1//EN" "http://www.w3.org/Graphics/SVG/1.1/DTD/svg11.dtd" >
<svg xmlns="http://www.w3.org/2000/svg" xmlns:xlink="http://www.w3.org/1999/xlink" version="1.1">
<metadata>
Created by FontForge 20170731 at Tue Oct 31 12:58:55 2017
 By Aleksey,,,
</metadata>
<defs>
<font id="AlJazeera-Latin-110UltraHeavy" horiz-adv-x="570" >
  <font-face 
    font-family="Al Jazeera-Latin 110 Ultra Heavy"
    font-weight="400"
    font-stretch="normal"
    units-per-em="1000"
    panose-1="0 0 10 0 0 0 0 0 0 0"
    ascent="781"
    descent="-219"
    x-height="488"
    cap-height="680"
    bbox="-181 -284 1170 944"
    underline-thickness="50"
    underline-position="-150"
    unicode-range="U+000D-FB04"
  />
<missing-glyph horiz-adv-x="552" 
d="M552 0h-552v680h552v-680zM463 595h-374v-510h374v510zM213 289q0 29 23 52l36 40q14 16 20.5 27.5t6.5 22.5q0 12 -7.5 20t-19.5 8q-13 0 -23.5 -9t-13.5 -26l-109 13q8 60 47.5 93t104.5 33q64 0 103.5 -34.5t39.5 -88.5q0 -51 -44 -98l-35 -38q-13 -16 -13 -32v-17
h-116v34zM331 114h-117v103h117v-103z" />
    <glyph glyph-name=".notdef" horiz-adv-x="552" 
d="M552 0h-552v680h552v-680zM463 595h-374v-510h374v510zM213 289q0 29 23 52l36 40q14 16 20.5 27.5t6.5 22.5q0 12 -7.5 20t-19.5 8q-13 0 -23.5 -9t-13.5 -26l-109 13q8 60 47.5 93t104.5 33q64 0 103.5 -34.5t39.5 -88.5q0 -51 -44 -98l-35 -38q-13 -16 -13 -32v-17
h-116v34zM331 114h-117v103h117v-103z" />
    <glyph glyph-name=".null" horiz-adv-x="0" 
 />
    <glyph glyph-name="nonmarkingreturn" horiz-adv-x="333" 
 />
    <glyph glyph-name="NULL" horiz-adv-x="500" 
 />
    <glyph glyph-name="NULL" horiz-adv-x="500" 
 />
    <glyph glyph-name="CR.001" unicode="&#xd;" horiz-adv-x="999" 
 />
    <glyph glyph-name="space" unicode=" " horiz-adv-x="236" 
 />
    <glyph glyph-name="exclam" unicode="!" horiz-adv-x="322" 
d="M262 680l-30 -463h-144l-30 463h204zM252 0h-180v158h180v-158z" />
    <glyph glyph-name="quotedbl" unicode="&#x22;" horiz-adv-x="432" 
d="M187 680v-240h-135v240h135zM380 680v-240h-133v240h133z" />
    <glyph glyph-name="numbersign" unicode="#" horiz-adv-x="616" 
d="M371 521l24 159h161l-24 -159h70v-141h-92l-10 -74h76v-141h-93l-22 -165h-161l22 165h-80l-22 -165h-161l22 165h-67v141h84l10 74h-68v141h90l24 159h161l-24 -159h80zM259 306h80l10 74h-80z" />
    <glyph glyph-name="dollar" unicode="$" 
d="M511.5 110q-26.5 -47 -72.5 -77q-45 -29 -99 -40v-85h-80v82q-125 7 -220 84l111 134q77 -50 146 -50q78 0 78 49q0 20 -16 29q-16 7 -57 12q-124 14 -182.5 69t-58.5 159q0 53 27 99t76 76q47 27 96 36v85h80v-83q105 -11 179 -64l-96 -135q-27 17 -58.5 25.5t-59.5 8.5
q-75 0 -75 -45q0 -18 18 -27q15 -8 55 -13q119 -10 177 -66t58 -163q0 -53 -26.5 -100z" />
    <glyph glyph-name="percent" unicode="%" horiz-adv-x="878" 
d="M306 -11h-140l407 702h140zM67 416q-11 30 -11 93t11 93q29 86 143 86t143 -86q11 -30 11 -93t-11 -93q-29 -86 -143 -86t-143 86zM224 425.5q4 2.5 6 9.5q3 8 3 37v37q0 65 -4 72q-6 14 -19 14q-12 0 -17 -9.5t-5 -31.5l1 -45v-29q0 -27 1 -33q1 -11 5.5 -17.5
t16.5 -6.5q8 0 12 2.5zM543 50q-28 36 -28 109l1 32q6 66 38 90q35 53 105 53q21 0 38 -4q68 -6 96 -42t28 -108l-1 -32q-6 -67 -38 -90q-35 -53 -104 -53q-26 0 -39 4q-68 5 -96 41zM672 86q5 0 9 4q8 14 8 41q0 16 1 21l1 32q0 25 -3 40q-3 14 -7 21t-13 7q-14 0 -17 -24
l-3 -42l-1 -38q0 -21 3 -36q2 -20 13 -24z" />
    <glyph glyph-name="ampersand" unicode="&#x26;" horiz-adv-x="652" 
d="M537 164q16 -19 35 -19h25v-145h-70q-45 0 -72 13t-51 46l10 -15q-73 -55 -168 -55q-62 0 -109.5 23.5t-74.5 65.5q-26 44 -26 96l-1 28q0 40 26.5 79.5t94.5 94.5q-20 24 -31 42.5t-27 53.5q-9 35 -9 48q0 50 28 89.5t77 61.5q51 20 97 20q56 0 101 -21t72 -59
q26 -41 26 -91q0 -47 -22.5 -81.5t-83.5 -83.5l55 -67l68 71l110 -88l-86 -101zM304 485q21 21 21 36q0 20 -8.5 31t-24.5 11q-15 0 -22 -9.5t-7 -30.5q0 -5 11 -25l15 -25q3 1 8 6zM296 463l4 -5q1 0 -8 11zM294 154q24 10 29 10l-72 94q-39 -37 -39 -63q0 -49 48 -49
q7 0 34 8z" />
    <glyph glyph-name="quotesingle" unicode="'" horiz-adv-x="239" 
d="M52 440v240h135v-240h-135z" />
    <glyph glyph-name="parenleft" unicode="(" horiz-adv-x="347" 
d="M192 -84q-78 102 -109.5 195t-31.5 217q0 111 34 212t104 200h133q-44 -106 -65 -206t-21 -206q0 -112 21 -210t68 -202h-133z" />
    <glyph glyph-name="parenright" unicode=")" horiz-adv-x="347" 
d="M27 -84q47 103 68 202t21 210q0 113 -21 212t-68 200h136q73 -102 105.5 -199.5t32.5 -212.5q0 -120 -33 -218.5t-105 -193.5h-136z" />
    <glyph glyph-name="asterisk" unicode="*" horiz-adv-x="431" 
d="M266 426l4 -88h-99l1 88l-76 -44l-49 86l76 41l-76 44l49 86l76 -47l-1 88h99l-4 -88l76 44l49 -83l-76 -44l79 -41l-52 -86z" />
    <glyph glyph-name="plus" unicode="+" 
d="M367 197v-164h-164v164h-160v158h160v164h164v-164h160v-158h-160z" />
    <glyph glyph-name="comma" unicode="," horiz-adv-x="267" 
d="M48 -130v306h171v-163z" />
    <glyph glyph-name="hyphen" unicode="-" horiz-adv-x="406" 
d="M370 348v-168h-334v168h334z" />
    <glyph glyph-name="period" unicode="." horiz-adv-x="273" 
d="M225 176v-176h-177v176h177z" />
    <glyph glyph-name="slash" unicode="/" horiz-adv-x="458" 
d="M437 691l-216 -702h-194l213 702h197z" />
    <glyph glyph-name="zero" unicode="0" 
d="M40 340q0 105 8 160t29 87.5t65 61.5q63 42 144 42q82 0 144 -41.5t83 -109.5q17 -49 17 -200t-17 -200q-21 -68 -83 -109.5t-144 -41.5q-81 0 -144 42t-85 109q-17 49 -17 200zM286 143q33 0 39 30q6 24 6 167t-6 167q-6 30 -39 30q-35 0 -41 -30q-6 -24 -6 -167t6 -167
q6 -30 41 -30z" />
    <glyph glyph-name="one" unicode="1" 
d="M428 680v-680h-196v475l-129 -85v191l139 99h186z" />
    <glyph glyph-name="two" unicode="2" 
d="M408 665.5q52 -25.5 81 -72.5t29 -104q0 -86 -79 -177l-144 -155h223v-157h-468v150l242 259q17 15 24.5 32.5t7.5 41.5q0 26 -11.5 40t-30.5 14q-56 0 -56 -80l-173 19q-2 60 29.5 110t87.5 78q56 27 121 27t117 -25.5z" />
    <glyph glyph-name="three" unicode="3" 
d="M411.5 667.5q52.5 -23.5 80.5 -65.5q28 -43 28 -99q0 -92 -78 -139q42 -19 65.5 -62.5t23.5 -103.5t-30.5 -107.5t-84.5 -74.5q-55 -27 -125 -27q-116 0 -175.5 45t-70.5 144l176 25q8 -35 22 -47.5t42 -12.5q23 0 37.5 17.5t14.5 44.5q0 66 -63 66h-39v153h37
q25 0 39.5 15t14.5 42t-12.5 41.5t-36.5 14.5q-21 0 -34 -14.5t-15 -43.5l-179 27q13 90 75.5 137.5t165.5 47.5q69 0 121.5 -23.5z" />
    <glyph glyph-name="four" unicode="4" horiz-adv-x="468" 
d="M308 0v89h-277v174l176 417h215l-188 -428h74v117h184v-117h51v-163h-51v-89h-184z" />
    <glyph glyph-name="five" unicode="5" 
d="M223 191q17 -48 53 -48q30 0 40.5 18t10.5 62q0 35 -6 51q-4 14 -15.5 21.5t-27.5 7.5t-26.5 -6.5t-21.5 -26.5h-171v410h436v-157h-273v-107q21 22 46.5 31.5t62.5 9.5q75 0 115 -26t60 -89q12 -39 12 -116q0 -47 -17 -104q-46 -133 -219 -133q-217 0 -228 179z" />
    <glyph glyph-name="six" unicode="6" 
d="M94 403l145 277h207l-137 -259q10 2 28 2q83 0 138 -61q59 -54 59 -152q0 -65 -31.5 -115.5t-88.5 -77.5q-55 -28 -130 -28q-57 0 -101 15t-79 47q-70 64 -70 160q0 74 60 192zM329 258.5q-17 19.5 -45 19.5q-29 0 -46.5 -19.5t-17.5 -49.5t17.5 -48t46.5 -18q28 0 45 18
t17 48t-17 49.5z" />
    <glyph glyph-name="seven" unicode="7" 
d="M526 513l-202 -513h-207l209 514h-98v-73h-181v239h479v-167z" />
    <glyph glyph-name="eight" unicode="8" 
d="M49.5 289q15.5 33 56.5 65q-57 54 -57 131q0 58 29 105t83 74q52 27 125 27q69 0 122.5 -26.5t83.5 -74.5q29 -47 29 -105q0 -84 -62 -131q42 -27 59.5 -62.5t17.5 -89.5q0 -63 -32.5 -111.5t-89 -75t-128.5 -26.5t-129.5 26.5t-89.5 75.5q-33 48 -33 111q0 54 15.5 87z
M322.5 444q15.5 16 15.5 37q0 24 -14.5 40t-37.5 16q-24 0 -39 -16t-15 -40q0 -22 16 -37.5t38 -15.5q21 0 36.5 16zM240.5 163q20.5 -20 45.5 -20t44.5 20t19.5 47t-18.5 45.5t-45.5 18.5t-46.5 -18.5t-19.5 -45.5t20.5 -47z" />
    <glyph glyph-name="nine" unicode="9" 
d="M261 259l-28 -2q-83 0 -141 58q-56 62 -56 155q0 50 17 88.5t53 69.5q72 63 180 63q57 0 101 -15t79 -47q70 -64 70 -160q0 -73 -60 -192l-147 -277h-205zM239.5 421.5q17.5 -19.5 46.5 -19.5q28 0 46 19.5t18 49.5t-18 48t-46 18q-29 0 -46.5 -18t-17.5 -48t17.5 -49.5z
" />
    <glyph glyph-name="colon" unicode=":" horiz-adv-x="290" 
d="M235 488v-173h-180v173h180zM235 0h-180v176h180v-176z" />
    <glyph glyph-name="semicolon" unicode=";" horiz-adv-x="290" 
d="M235 488v-173h-180v173h180zM232 10l-171 -133v299h171v-166z" />
    <glyph glyph-name="less" unicode="&#x3c;" 
d="M527 200v-168l-484 174v140l484 174v-168l-236 -76z" />
    <glyph glyph-name="equal" unicode="=" 
d="M527 470v-158h-484v158h484zM527 240v-158h-484v158h484z" />
    <glyph glyph-name="greater" unicode="&#x3e;" 
d="M527 346v-140l-484 -174v171l236 73l-236 76v168z" />
    <glyph glyph-name="question" unicode="?" horiz-adv-x="491" 
d="M357 664.5q52 -26.5 83 -71.5q30 -43 30 -94q0 -46 -26.5 -91.5t-93.5 -112.5q-20 -23 -20 -54v-24h-182v54q0 44 35 82l52 57q46 46 46 76q0 22 -11.5 35t-30.5 13q-24 0 -36.5 -14t-20.5 -51l-169 23q10 95 70.5 147t159.5 52q62 0 114 -26.5zM150 0v158h180v-158h-180
z" />
    <glyph glyph-name="at" unicode="@" horiz-adv-x="930" 
d="M771 571q120 -114 120 -303q0 -60 -22.5 -107.5t-64.5 -77.5q-47 -32 -117 -32q-100 0 -148 68q-42 -67 -136 -67q-64 0 -101 28t-47 78q-9 44 -9 109q0 81 16 123q27 92 125 92q41 0 65 -11t42 -38v38h156v-244q0 -22 11.5 -35.5t31.5 -13.5q24 0 36.5 22t12.5 65
q0 138 -77 215q-36 39 -89.5 59.5t-119.5 20.5q-131 0 -210 -82q-37 -39 -56.5 -95t-19.5 -124q0 -131 76 -210q79 -79 210 -79q52 0 105 14.5t95 41.5l76 -100q-71 -47 -134 -66.5t-142 -19.5q-194 0 -313 116q-122 113 -122 303q0 128 53.5 224.5t152.5 150.5
q98 53 229 53q199 0 315 -116zM408 325q-4 -15 -4 -58q0 -42 4 -59q10 -28 40 -28q33 0 42 28q4 4 4 59q0 24 -2 54q-3 18 -13 25.5t-31 7.5q-29 0 -40 -29z" />
    <glyph glyph-name="A" unicode="A" horiz-adv-x="698" 
d="M252 103l-25 -103h-222l241 680h216l239 -680h-217l-30 103h-202zM406 268l-53 193l-50 -193h103z" />
    <glyph glyph-name="B" unicode="B" horiz-adv-x="616" 
d="M45 680h299q111 0 169 -47t58 -134q0 -105 -82 -148q24 -7 45.5 -30t35.5 -56q13 -30 13 -71q0 -95 -61.5 -144.5t-178.5 -49.5h-298v680zM296 412q38 0 55.5 14.5t17.5 47.5q0 28 -18.5 42.5t-54.5 14.5h-46v-119h46zM308 149q37 0 53.5 15.5t16.5 49.5q0 67 -70 67h-58
v-132h58z" />
    <glyph glyph-name="C" unicode="C" horiz-adv-x="602" 
d="M145.5 32q-65.5 43 -93.5 124q-21 56 -21 184q0 129 21 184q28 81 93.5 124t160.5 43q70 0 127 -26.5t95 -77.5q38 -56 47 -133h-207q-4 31 -18 45t-44 14q-24 0 -39.5 -11.5t-19.5 -33.5q-9 -34 -9 -128q0 -93 9 -128q9 -45 59 -45q52 0 62 57l207 1q-20 -118 -88 -177
t-181 -59q-95 0 -160.5 43z" />
    <glyph glyph-name="D" unicode="D" horiz-adv-x="640" 
d="M45 680h283q114 0 177.5 -43t79.5 -121q14 -75 14 -176q0 -86 -6 -135t-24 -86q-19 -39 -57 -71q-58 -48 -184 -48h-283v680zM285 181q85 0 96 53q9 35 9 106q0 72 -9 106q-11 53 -96 53h-35v-318h35z" />
    <glyph glyph-name="E" unicode="E" horiz-adv-x="555" 
d="M521 169v-169h-476v680h476v-169h-271v-85h222v-166h-222v-91h271z" />
    <glyph glyph-name="F" unicode="F" horiz-adv-x="549" 
d="M250 250v-250h-205v680h476v-169h-271v-95h222v-166h-222z" />
    <glyph glyph-name="G" unicode="G" horiz-adv-x="630" 
d="M147 32.5q-69 43.5 -95 123.5q-21 68 -21 184q0 128 26 198.5t91 109.5q67 43 168 43q122 0 194 -60t84 -177h-207q-11 59 -71 59q-30 0 -48.5 -15.5t-23.5 -44.5q-6 -31 -6 -113q0 -78 9 -126q5 -24 21.5 -35.5t47.5 -11.5q26 0 44 10.5t24 29.5q4 13 4 31h-61v148h272
v-60q0 -114 -26 -183t-88 -108q-70 -46 -169 -46q-100 0 -169 43.5z" />
    <glyph glyph-name="H" unicode="H" horiz-adv-x="660" 
d="M250 254v-254h-205v680h205v-245h160v245h205v-680h-205v254h-160z" />
    <glyph glyph-name="I" unicode="I" horiz-adv-x="295" 
d="M250 680v-680h-205v680h205z" />
    <glyph glyph-name="J" unicode="J" horiz-adv-x="549" 
d="M98.5 18q-60.5 29 -84.5 79l143 112q32 -42 74 -42q34 0 54 23.5t20 62.5v427h205v-406q0 -285 -274 -285q-77 0 -137.5 29z" />
    <glyph glyph-name="K" unicode="K" horiz-adv-x="669" 
d="M250 157v-157h-205v680h205v-252l173 252h229l-204 -279l211 -401h-240l-110 241z" />
    <glyph glyph-name="L" unicode="L" horiz-adv-x="560" 
d="M542 181v-181h-497v680h205v-499h292z" />
    <glyph glyph-name="M" unicode="M" horiz-adv-x="777" 
d="M230 336v-336h-185v680h199l148 -343l145 343h195v-680h-185v336l-100 -243h-117z" />
    <glyph glyph-name="N" unicode="N" horiz-adv-x="651" 
d="M230 368v-368h-185v680h197l179 -369v369h185v-680h-196z" />
    <glyph glyph-name="O" unicode="O" horiz-adv-x="630" 
d="M147.5 32.5q-69.5 43.5 -95.5 123.5q-21 68 -21 184q0 129 26 199t92 109q70 43 167 43q96 0 166 -44.5t96 -122.5q21 -67 21 -184q0 -128 -26 -197t-91 -110q-71 -44 -166 -44q-99 0 -168.5 43.5zM367 184q17 17 21 52q4 28 4 104t-4 104q-4 35 -21 52t-51 17
q-35 0 -52.5 -16.5t-21.5 -51.5q-4 -28 -4 -105q0 -79 4 -104q4 -36 21 -52.5t53 -16.5q34 0 51 17z" />
    <glyph glyph-name="P" unicode="P" horiz-adv-x="619" 
d="M45 680h292q127 0 195 -60.5t68 -174.5q0 -110 -69 -170t-194 -60h-87v-215h-205v680zM324 382q34 0 52.5 16.5t18.5 46.5q0 31 -18.5 48.5t-52.5 17.5h-74v-129h74z" />
    <glyph glyph-name="Q" unicode="Q" horiz-adv-x="630" 
d="M506 -67l-69 77q-54 -21 -121 -21q-99 0 -168.5 43.5t-95.5 123.5q-21 68 -21 184q0 129 26 199t92 109q70 43 167 43q96 0 166 -44.5t96 -122.5q21 -67 21 -184q0 -116 -21 -184q-4 -13 -11 -29l72 -77zM316 167q58 0 67 47q9 29 9 126q0 98 -9 126q-9 47 -67 47
q-60 0 -69 -47q-9 -28 -9 -126q0 -97 9 -126q9 -47 69 -47z" />
    <glyph glyph-name="R" unicode="R" horiz-adv-x="634" 
d="M45 680h297q121 0 190 -60t69 -167q0 -64 -26.5 -113t-78.5 -80l120 -260h-225l-96 227h-45v-227h-205v680zM326 390q32 0 50 16t18 47q0 26 -18.5 42t-49.5 16h-76v-121h76z" />
    <glyph glyph-name="S" unicode="S" horiz-adv-x="611" 
d="M148 17q-93 34 -132 79l125 140q38 -36 83.5 -55.5t88.5 -19.5q35 0 56 12.5t21 34.5q0 18 -14 26q-10 6 -53 14l-36 5q-116 17 -175.5 73.5t-59.5 150.5q0 101 71 157.5t192 56.5q79 0 141.5 -19.5t121.5 -63.5l-103 -144q-35 26 -75.5 40.5t-78.5 14.5q-29 0 -44 -11
t-15 -29q0 -13 5 -19.5t19 -11.5q15 -5 44 -10l36 -5q236 -29 236 -224q0 -66 -35.5 -116t-101.5 -77t-152 -27q-81 0 -165 28z" />
    <glyph glyph-name="T" unicode="T" horiz-adv-x="571" 
d="M388 499v-499h-205v499h-176v181h557v-181h-176z" />
    <glyph glyph-name="U" unicode="U" horiz-adv-x="649" 
d="M115.5 60q-71.5 71 -71.5 212v408h205v-424q0 -42 20.5 -65.5t57.5 -23.5q35 0 54 23.5t19 65.5v424h205v-408q0 -137 -72.5 -210t-205.5 -73q-140 0 -211.5 71z" />
    <glyph glyph-name="V" unicode="V" horiz-adv-x="655" 
d="M662 680l-228 -680h-205l-233 680h223l113 -389l116 389h214z" />
    <glyph glyph-name="W" unicode="W" horiz-adv-x="941" 
d="M944 680l-201 -680h-172l-98 350l-99 -350h-169l-204 680h222l81 -377l98 377h142l104 -377l75 377h221z" />
    <glyph glyph-name="X" unicode="X" horiz-adv-x="641" 
d="M422 349l211 -349h-223l-99 174l-97 -174h-222l208 349l-196 331h220l90 -155l85 155h222z" />
    <glyph glyph-name="Y" unicode="Y" horiz-adv-x="632" 
d="M421 257v-257h-205v257l-214 423h210l110 -229l107 229h206z" />
    <glyph glyph-name="Z" unicode="Z" horiz-adv-x="574" 
d="M542 181v-181h-512v174l269 325h-258v181h501v-176l-272 -323h272z" />
    <glyph glyph-name="bracketleft" unicode="[" horiz-adv-x="346" 
d="M324 56v-140h-256v824h256v-140h-90v-544h90z" />
    <glyph glyph-name="backslash" unicode="\" horiz-adv-x="458" 
d="M221 691l216 -702h-197l-213 702h194z" />
    <glyph glyph-name="bracketright" unicode="]" horiz-adv-x="346" 
d="M22 600v140h256v-824h-256v140h90v544h-90z" />
    <glyph glyph-name="asciicircum" unicode="^" 
d="M362 680l173 -447h-184l-66 219l-69 -219h-183l175 447h154z" />
    <glyph glyph-name="underscore" unicode="_" horiz-adv-x="576" 
d="M0 -52h576v-132h-576v132z" />
    <glyph glyph-name="grave" unicode="`" horiz-adv-x="518" 
d="M306 706l92 -163h-163l-117 160z" />
    <glyph glyph-name="a" unicode="a" horiz-adv-x="538" 
d="M311 37q-42 -48 -128 -48q-72 0 -115.5 40.5t-43.5 109.5q0 75 59 118.5t158 43.5h68v14q0 23 -16 30q-21 8 -67 8q-32 0 -61.5 -8.5t-48.5 -22.5l-71 122q34 26 89 40.5t119 14.5q88 0 141 -19t78 -60q24 -42 24 -110v-310h-185v37zM309 159v31h-50q-25 0 -36.5 -8
t-11.5 -27q0 -18 9.5 -25.5t32.5 -7.5q56 0 56 37z" />
    <glyph glyph-name="b" unicode="b" horiz-adv-x="579" 
d="M249 444q31 55 126 55q120 0 158 -116q17 -63 17 -139t-17 -139q-38 -116 -158 -116q-95 0 -126 58v-47h-196v680h196v-236zM271 337.5q-10 -7.5 -15 -24.5q-7 -21 -7 -69q0 -56 10.5 -78.5t38.5 -22.5q19 0 30.5 7.5t16.5 24.5q7 21 7 69t-7 69q-5 17 -16.5 24.5
t-30.5 7.5q-17 0 -27 -7.5z" />
    <glyph glyph-name="c" unicode="c" horiz-adv-x="533" 
d="M53 354q21 71 79.5 108t149.5 37q74 0 135 -36.5t86 -94.5l-158 -73q-17 50 -57 50q-37 0 -45 -30q-7 -15 -7 -71q0 -54 7 -69q8 -32 45 -32q38 0 57 52l158 -71q-27 -61 -87 -98t-134 -37q-91 0 -149.5 37t-79.5 108q-15 41 -15 110q0 70 15 110z" />
    <glyph glyph-name="d" unicode="d" 
d="M324 47q-36 -58 -126 -58q-120 0 -158 116q-17 63 -17 139t17 139q38 116 158 116q89 0 126 -58v239h196v-680h-196v47zM313.5 165.5q10.5 22.5 10.5 78.5q0 48 -7 69q-5 17 -15 24.5t-27 7.5q-19 0 -30.5 -7.5t-16.5 -24.5q-7 -21 -7 -69t7 -69q5 -17 16.5 -24.5
t30.5 -7.5q28 0 38.5 22.5z" />
    <glyph glyph-name="e" unicode="e" horiz-adv-x="552" 
d="M131 26.5q-61 37.5 -85 108.5q-17 54 -17 109q0 71 16 110q22 70 82 107.5t148 37.5q87 0 147.5 -37.5t83.5 -104.5q20 -72 17 -134l-1 -33h-305q4 -14 7 -19q10 -20 30 -30t54 -10q57 0 112 42l97 -98q-51 -44 -107 -65t-124 -21q-94 0 -155 37.5zM334 301
q0 24 -4.5 37.5t-15.5 21.5q-14 8 -38 8q-42 0 -53 -35q-3 -13 -3 -32h114z" />
    <glyph glyph-name="f" unicode="f" horiz-adv-x="366" 
d="M62 353h-42v135h42v13q0 68 19.5 107t60.5 56q36 16 110 16h87v-142h-41q-24 0 -33.5 -8.5t-9.5 -29.5v-12h81v-135h-81v-353h-193v353z" />
    <glyph glyph-name="g" unicode="g" horiz-adv-x="572" 
d="M132 -170q-53 21 -88 61l109 115q49 -43 98 -43q75 0 75 91v37q-31 -60 -123 -60q-65 0 -102 27.5t-56 89.5q-16 52 -16 117q0 115 40 174.5t134 59.5q45 0 77 -14.5t46 -41.5v45h196v-392q0 -152 -64.5 -219.5t-208.5 -67.5q-64 0 -117 21zM305.5 194.5
q10.5 7.5 15.5 24.5q5 25 5 46q0 42 -11 61t-38 19q-36 0 -46 -34q-3 -10 -3 -31q-2 -38 3 -61q5 -16 15.5 -24t30.5 -8q18 0 28.5 7.5z" />
    <glyph glyph-name="h" unicode="h" horiz-adv-x="581" 
d="M336 288q0 54 -43 54q-21 0 -32.5 -14.5t-11.5 -39.5v-288h-196v680h196v-235q24 28 53.5 41t68.5 13q161 0 161 -182v-317h-196v288z" />
    <glyph glyph-name="i" unicode="i" horiz-adv-x="285" 
d="M249 680v-143h-196v143h196zM249 488v-488h-196v488h196z" />
    <glyph glyph-name="j" unicode="j" horiz-adv-x="329" 
d="M279 680v-143h-196v143h196zM7 -26h26q29 0 39.5 11t10.5 43v460h196v-461q0 -104 -54.5 -155.5t-164.5 -51.5h-53v154z" />
    <glyph glyph-name="k" unicode="k" horiz-adv-x="560" 
d="M401 317l161 -317h-210l-83 191l-20 -36v-155h-196v680h196v-327l93 135h206z" />
    <glyph glyph-name="l" unicode="l" horiz-adv-x="341" 
d="M238 -6q-101 0 -143.5 42.5t-42.5 143.5v500h196v-479q0 -22 11.5 -36t30.5 -14h29v-157h-81z" />
    <glyph glyph-name="m" unicode="m" horiz-adv-x="864" 
d="M619 288q0 54 -46 54q-20 0 -30.5 -14.5t-10.5 -39.5v-288h-196v288q0 54 -43 54q-21 0 -32.5 -14.5t-11.5 -39.5v-288h-196v488h196v-43q24 28 53.5 41t68.5 13q46 0 74.5 -12.5t49.5 -43.5q59 56 151 56q86 0 127.5 -45.5t41.5 -136.5v-317h-196v288z" />
    <glyph glyph-name="n" unicode="n" horiz-adv-x="581" 
d="M53 488h196v-43q21 29 50 41.5t72 12.5q161 0 161 -182v-317h-196v288q0 54 -43 54q-21 0 -32.5 -14.5t-11.5 -39.5v-288h-196v488z" />
    <glyph glyph-name="o" unicode="o" horiz-adv-x="556" 
d="M128 26q-61 37 -83 105q-16 48 -16 113q0 255 248 255q90 0 151 -36.5t83 -105.5q16 -48 16 -113q0 -80 -23.5 -134t-75.5 -84q-61 -37 -151 -37q-88 0 -149 37zM307.5 150.5q10.5 7.5 14.5 22.5q7 21 7 71q0 54 -7 71q-5 16 -15 23t-30 7q-19 0 -29 -7t-14 -23
q-7 -27 -7 -71q0 -50 7 -71q5 -16 15 -23t28 -7q20 0 30.5 7.5z" />
    <glyph glyph-name="p" unicode="p" horiz-adv-x="579" 
d="M53 488h196v-44q30 55 126 55q120 0 158 -116q17 -63 17 -139t-17 -139q-38 -116 -158 -116q-96 0 -126 55v-224h-196v668zM328.5 150.5q11.5 7.5 16.5 24.5q7 21 7 69t-7 69q-5 17 -16.5 24.5t-30.5 7.5q-17 0 -27 -7.5t-15 -24.5q-7 -21 -7 -69q0 -56 10.5 -78.5
t38.5 -22.5q19 0 30.5 7.5z" />
    <glyph glyph-name="q" unicode="q" horiz-adv-x="576" 
d="M330 43q-37 -54 -126 -54q-120 0 -158 116q-17 63 -17 139t17 139q38 116 158 116q89 0 126 -54v43h196v-668h-196v223zM319.5 165.5q10.5 22.5 10.5 78.5q0 48 -7 69q-5 17 -15 24.5t-27 7.5q-19 0 -30.5 -7.5t-16.5 -24.5q-7 -21 -7 -69t7 -69q5 -17 16.5 -24.5
t30.5 -7.5q28 0 38.5 22.5z" />
    <glyph glyph-name="r" unicode="r" horiz-adv-x="442" 
d="M53 488h196v-53q19 33 50 48.5t79 15.5q15 0 61 -11l-65 -192q-22 17 -38 23t-32 6q-11 0 -12 -1q-43 -9 -43 -71v-253h-196v488z" />
    <glyph glyph-name="s" unicode="s" horiz-adv-x="560" 
d="M404.5 481q62.5 -18 103.5 -50l-85 -107q-78 42 -150 42h-15q-13 0 -17.5 -4t-4.5 -16q0 -8 5 -10q3 -3 19 -5l19 -3l55 -8q97 -12 141 -49.5t44 -109.5q-2 -79 -67.5 -125.5t-176.5 -46.5q-79 0 -136.5 18t-116.5 62l93 111q45 -30 83.5 -42t87.5 -12q31 0 38 4
q9 5 9 20q0 8 -8 13q-12 4 -39 7l-58 8q-84 10 -131 51.5t-47 108.5q0 74 60 117.5t163 43.5q69 0 131.5 -18z" />
    <glyph glyph-name="t" unicode="t" horiz-adv-x="376" 
d="M254 -6q-72 0 -114 20t-61 64q-19 39 -19 117v158h-42v135h42v172h193v-172h74v-135h-74v-148q0 -31 9 -42.5t33 -11.5h32v-157h-73z" />
    <glyph glyph-name="u" unicode="u" horiz-adv-x="577" 
d="M332 45q-38 -56 -123 -56q-157 0 -157 182v317h196v-288q0 -24 11.5 -39t30.5 -15q22 0 32 13.5t10 42.5v286h196v-488h-196v45z" />
    <glyph glyph-name="v" unicode="v" horiz-adv-x="561" 
d="M554 488l-183 -488h-183l-183 488h205l75 -248l66 248h203z" />
    <glyph glyph-name="w" unicode="w" horiz-adv-x="806" 
d="M799 488l-167 -488h-154l-67 240l-71 -240h-151l-167 488h200l58 -242l69 242h131l63 -242l56 242h200z" />
    <glyph glyph-name="x" unicode="x" horiz-adv-x="583" 
d="M425 253l170 -253h-214l-63 110l-65 -110h-211l170 253l-158 235h215l49 -90l51 90h214z" />
    <glyph glyph-name="y" unicode="y" horiz-adv-x="565" 
d="M95 -180v154h37q24 0 37 8.5t17 27.5l11 26l-192 452h208l76 -223l65 223h205l-225 -551q-26 -62 -70 -93q-43 -24 -119 -24h-50z" />
    <glyph glyph-name="z" unicode="z" horiz-adv-x="527" 
d="M278 149h203v-149h-432v143l203 196h-190v149h419v-146z" />
    <glyph glyph-name="braceleft" unicode="{" horiz-adv-x="379" 
d="M260 -84q-69 0 -104.5 32.5t-35.5 96.5v123q0 45 -18 65.5t-63 23.5v144q81 0 81 89v121q0 64 35.5 96.5t104.5 32.5h95v-140h-32q-40 0 -40 -45v-95q0 -55 -18.5 -84.5t-62.5 -47.5q42 -15 61.5 -47t19.5 -86v-94q0 -45 40 -45h32v-140h-95z" />
    <glyph glyph-name="bar" unicode="|" horiz-adv-x="345" 
d="M259 740v-824h-173v824h173z" />
    <glyph glyph-name="braceright" unicode="}" horiz-adv-x="379" 
d="M119 740q69 0 104.5 -32.5t35.5 -96.5v-121q0 -46 18.5 -67.5t62.5 -21.5v-144q-33 0 -54 -13t-24 -33q-3 -16 -3 -43v-123q0 -64 -35.5 -96.5t-104.5 -32.5h-97v140h32q42 0 42 45v94q0 53 18.5 84.5t61.5 49.5q-33 15 -48.5 29.5t-23.5 37.5q-8 29 -8 64v95
q0 45 -42 45h-32v140h97z" />
    <glyph glyph-name="asciitilde" unicode="~" 
d="M41 249q25 58 67.5 93.5t87.5 35.5q58 0 105 -35q34 -25 63 -25q34 0 58 58l117 -75q-21 -55 -65 -91.5t-91 -36.5q-52 0 -106 33q-34 25 -61 25q-18 0 -34.5 -15.5t-24.5 -41.5z" />
    <glyph glyph-name="uni00A0" unicode="&#xa0;" horiz-adv-x="236" 
 />
    <glyph glyph-name="exclamdown" unicode="&#xa1;" horiz-adv-x="322" 
d="M70 488h180v-158h-180v158zM61 -192l26 463h145l27 -463h-198z" />
    <glyph glyph-name="cent" unicode="&#xa2;" 
d="M362 195l158 -71q-23 -51 -71.5 -86.5t-109.5 -45.5v-88h-87v88q-146 17 -182 142q-15 41 -15 110q0 70 15 110q36 125 182 142v88h87v-88q62 -9 110.5 -43.5t70.5 -84.5l-158 -73q-17 50 -57 50q-37 0 -45 -30q-7 -15 -7 -71q0 -54 7 -69q8 -32 45 -32q38 0 57 52z" />
    <glyph glyph-name="sterling" unicode="&#xa3;" 
d="M56 0v152q26 26 33.5 41.5t7.5 39.5v24h-45v129h45v96q0 100 57 154.5t161 54.5q88 0 144 -46t65 -124l-171 -32q-4 48 -33 48q-16 0 -22 -8.5t-6 -34.5v-108h141v-129h-141v-17q0 -26 -8.5 -45.5t-26.5 -37.5h264v-157h-465z" />
    <glyph glyph-name="currency" unicode="&#xa4;" 
d="M374 75q-33 -15 -74 -15q-31 0 -51 3.5t-40 11.5l-68 -68l-112 113l68 66q-15 38 -15 83q0 36 16 81l-69 67l112 113l66 -69q42 17 92 17q47 -3 77 -17l69 69l112 -113l-69 -69q11 -27 17 -67q1 -1 1 -15q0 -36 -17 -78l69 -69l-115 -113zM293 193q33 0 53 20.5t20 55.5
t-20 55.5t-53 20.5q-29 0 -53 -21q-9 -10 -14 -24.5t-5 -30.5t5 -30.5t14 -24.5q24 -21 53 -21z" />
    <glyph glyph-name="yen" unicode="&#xa5;" 
d="M388 119v-119h-196v119h-120v90h120v32h-120v90h89l-148 349h212l69 -232l68 232h205l-148 -349h91v-90h-122v-32h122v-90h-122z" />
    <glyph glyph-name="brokenbar" unicode="&#xa6;" horiz-adv-x="345" 
d="M259 740v-352h-173v352h173zM259 272v-356h-173v356h173z" />
    <glyph glyph-name="section" unicode="&#xa7;" horiz-adv-x="516" 
d="M105.5 -147q-55.5 44 -60.5 122l164 21q0 -49 40 -49q19 0 31 9t12 26q0 24 -18 37q-22 16 -71 29q-86 25 -128 74.5t-42 126.5q0 45 21 83.5t58 59.5q-29 24 -43 55.5t-14 74.5q0 49 26.5 87.5t73.5 60.5q47 21 107 21q65 0 112 -22.5t71 -63.5q21 -37 23 -83l-161 -21
q-1 30 -9.5 41t-30.5 11q-18 0 -28.5 -8.5t-10.5 -25.5q0 -21 19 -35.5t64 -27.5q172 -51 172 -201q0 -46 -20.5 -83t-58.5 -62q27 -18 42.5 -53.5t15.5 -79.5q0 -76 -56 -123q-58 -45 -152 -45q-93 0 -148.5 44zM295.5 209q14.5 17 14.5 43q0 25 -15 42.5t-38 17.5
t-37 -16.5t-14 -43.5q0 -31 12 -45.5t39 -14.5q24 0 38.5 17z" />
    <glyph glyph-name="dieresis" unicode="&#xa8;" horiz-adv-x="518" 
d="M225 680v-143h-142v143h142zM436 680v-143h-145v143h145z" />
    <glyph glyph-name="copyright" unicode="&#xa9;" horiz-adv-x="781" 
d="M389 -11q-152 0 -250 98q-101 98 -101 253q0 151 101 252q102 99 250 99q151 0 253 -99q101 -101 101 -252q0 -155 -101 -253q-98 -98 -253 -98zM389 77q74 0 134 33t94 93q34 58 34 137q0 118 -72 190q-79 73 -190 73q-72 0 -131.5 -33t-93.5 -92q-34 -58 -34 -138
q0 -120 74 -188q75 -75 185 -75zM283.5 176.5q-49.5 30.5 -68.5 83.5q-12 29 -12 80q0 59 19 99t63 67q49 31 112 31q65 0 107 -25t66 -80l-121 -51q-21 37 -48 37q-26 0 -34 -24q-6 -13 -6 -54q0 -44 8 -59.5t32 -15.5q16 0 28.5 9.5t19.5 27.5l118 -51
q-15 -48 -61.5 -76.5t-108.5 -28.5q-64 0 -113.5 30.5z" />
    <glyph glyph-name="ordfeminine" unicode="&#xaa;" horiz-adv-x="374" 
d="M215 414q-22 -27 -79 -27q-45 0 -73.5 25t-28.5 64q0 44 37 69t98 25h47v10q0 22 -52 22q-43 0 -75 -23l-48 76q63 33 137 33q84 0 122 -26t38 -83v-187h-123v22zM216 487v16h-40q-24 0 -24 -19q0 -20 23 -20q41 0 41 23z" />
    <glyph glyph-name="guillemotleft" unicode="&#xab;" horiz-adv-x="605" 
d="M283 181v-181l-269 264l269 264v-181l-86 -83zM561 181v-181l-269 264l269 264v-181l-86 -83z" />
    <glyph glyph-name="logicalnot" unicode="&#xac;" 
d="M527 355v-287h-164v129h-320v158h484z" />
    <glyph glyph-name="uni00AD" unicode="&#xad;" horiz-adv-x="406" 
d="M370 348v-168h-334v168h334z" />
    <glyph glyph-name="registered" unicode="&#xae;" horiz-adv-x="781" 
d="M743 340q0 -155 -101 -253q-98 -98 -253 -98q-152 0 -250 98q-101 98 -101 253q0 151 101 252q102 99 250 99q151 0 253 -99q101 -101 101 -252zM651 340q0 118 -72 190q-79 73 -190 73q-72 0 -131.5 -33t-93.5 -92q-34 -58 -34 -138q0 -120 74 -188l21 -19v390h177
q71 0 112 -35.5t41 -99.5q0 -78 -63 -114l65 -141q12 9 22 19q72 69 72 188zM392 350q41 0 41 38q0 17 -11 26.5t-30 9.5h-46v-74h46zM245 118q62 -41 144 -41q83 0 148 41h-105l-58 136h-28v-136h-101z" />
    <glyph glyph-name="overscore" unicode="&#xaf;" horiz-adv-x="518" 
d="M430 674v-123h-343v123h343z" />
    <glyph glyph-name="degree" unicode="&#xb0;" horiz-adv-x="384" 
d="M191 371q-70 0 -118 48q-45 42 -45 115q0 69 45 114q49 46 118 46q70 0 119 -46q46 -49 46 -114q0 -33 -12 -63t-34 -52q-48 -48 -119 -48zM158 573q-12 -11 -14 -36q0 -27 12 -41.5t35 -14.5q26 0 37.5 12.5t11.5 40.5q0 27 -10 38.5t-34 11.5q-26 0 -38 -11z" />
    <glyph glyph-name="plusminus" unicode="&#xb1;" 
d="M367 357v-161h-164v161h-160v158h160v161h164v-161h160v-158h-160zM527 156v-156h-484v156h484z" />
    <glyph glyph-name="uni00B2" unicode="&#xb2;" horiz-adv-x="376" 
d="M302 808.5q41 -35.5 41 -90.5q0 -31 -15.5 -61t-42.5 -51l-71 -63h130v-113h-313v107l156 135q21 23 21 40q0 13 -5.5 19t-19.5 6q-12 0 -20 -12t-7 -31l-123 15q-3 37 15 67.5t54 48.5q37 19 91 19q68 0 109 -35.5z" />
    <glyph glyph-name="uni00B3" unicode="&#xb3;" horiz-adv-x="376" 
d="M77.5 455q-45.5 33 -45.5 86l123 15q6 -27 30 -27q28 0 28 26q0 18 -7.5 23.5t-28.5 5.5h-21v104h22q13 0 20.5 6.5t7.5 17.5q0 25 -25 25q-10 0 -17.5 -7t-10.5 -21l-121 18q9 56 49.5 86.5t107.5 30.5q69 0 111 -32.5t42 -83.5q0 -52 -45 -81q27 -10 39.5 -33t12.5 -63
q0 -36 -20 -65.5t-55 -46.5q-37 -17 -81 -17q-70 0 -115.5 33z" />
    <glyph glyph-name="acute" unicode="&#xb4;" horiz-adv-x="518" 
d="M406 703l-125 -160h-156l93 160h188z" />
    <glyph glyph-name="uni00B5" unicode="&#xb5;" horiz-adv-x="648" 
d="M350 24.5q-17 -15.5 -40 -18.5q-22 -4 -63 -3q-8 -5 -11 -20v-163h-196v668h196v-283q0 -56 47 -56q30 0 42.5 18.5t12.5 64.5v256h196v-298q0 -21 9.5 -30t29.5 -9v-157h-14q-54 0 -78.5 5t-44.5 20q-21 16 -54 53q-15 -32 -32 -47.5z" />
    <glyph glyph-name="paragraph" unicode="&#xb6;" horiz-adv-x="703" 
d="M489 556h-77v-736h-154v378q-99 9 -156 73q-63 65 -63 168q0 71 32.5 125.5t90.5 85.5q59 30 132 30h349v-860h-154v736z" />
    <glyph glyph-name="middot" unicode="&#xb7;" horiz-adv-x="273" 
d="M225 350v-173h-177v173h177z" />
    <glyph glyph-name="cedilla" unicode="&#xb8;" horiz-adv-x="518" 
d="M312 -21q0 -49 -20 -89.5t-56 -63.5t-81 -21v113q21 0 31.5 16.5t10.5 44.5h115z" />
    <glyph glyph-name="uni00B9" unicode="&#xb9;" horiz-adv-x="376" 
d="M285 836v-406h-144v269l-78 -43v126l86 54h136z" />
    <glyph glyph-name="ordmasculine" unicode="&#xba;" horiz-adv-x="404" 
d="M42 538q0 49 14 78.5t47 49.5q37 22 99 22q60 0 99 -22.5t53 -67.5q8 -32 8 -64q0 -49 -13.5 -78t-47.5 -49q-41 -23 -99 -23q-60 0 -99 22.5t-53 67.5q-8 32 -8 64zM236 536q0 36 -6.5 47t-27.5 11q-20 0 -26 -11.5t-6 -46.5t6 -46.5t26 -11.5q23 0 30 18q4 7 4 40z" />
    <glyph glyph-name="guillemotright" unicode="&#xbb;" horiz-adv-x="605" 
d="M51 525l272 -261l-272 -264v178l86 86l-86 83v178zM329 525l269 -261l-269 -264v178l86 86l-86 83v178z" />
    <glyph glyph-name="onequarter" unicode="&#xbc;" horiz-adv-x="937" 
d="M728 691l-407 -702h-141l407 702h141zM301 680v-406h-144v269l-78 -43v126l86 54h136zM518 159l109 247h149l-113 -244h39v59h129v-59h27v-114h-27v-48h-129v48h-184v111z" />
    <glyph glyph-name="onehalf" unicode="&#xbd;" horiz-adv-x="959" 
d="M180 -11l407 702h141l-407 -702h-141zM79 500v126l86 54h136v-406h-144v269zM835 378.5q41 -35.5 41 -90.5q0 -31 -15.5 -61t-42.5 -51l-73 -63h132v-113h-313v107l156 135q21 23 21 40q0 13 -5.5 19t-19.5 6q-12 0 -21 -12.5t-8 -30.5l-123 15q-3 36 15.5 67t54.5 49
q37 19 92 19q68 0 109 -35.5z" />
    <glyph glyph-name="threequarters" unicode="&#xbe;" horiz-adv-x="995" 
d="M781 691l-407 -702h-141l407 702h141zM129.5 299q-45.5 33 -45.5 86l123 15q6 -27 30 -27q28 0 28 26q0 18 -7.5 23.5t-28.5 5.5h-21v104h22q13 0 20.5 6.5t7.5 17.5q0 25 -25 25q-10 0 -17.5 -7t-10.5 -21l-121 18q9 56 49.5 86.5t107.5 30.5q69 0 111 -32.5t42 -83.5
q0 -52 -45 -81q27 -10 39.5 -33t12.5 -63q0 -36 -20 -65.5t-55 -46.5q-37 -17 -81 -17q-70 0 -115.5 33zM888 48v-48h-129v48h-184v111l109 247h149l-112 -244h38v59h129v-59h27v-114h-27z" />
    <glyph glyph-name="questiondown" unicode="&#xbf;" horiz-adv-x="491" 
d="M169 488h180v-158h-180v158zM351 217q0 -41 -35 -82q-98 -104 -98 -133q0 -22 11.5 -35t30.5 -13q26 0 38.5 14t18.5 51l169 -23q-10 -95 -70.5 -147t-159.5 -52t-163 58q-31 27 -47.5 61.5t-16.5 72.5q0 79 77 156l43 48q20 23 20 54v24h182v-54z" />
    <glyph glyph-name="Agrave" unicode="&#xc0;" horiz-adv-x="698" 
d="M344 891l92 -160h-160l-120 160h188zM252 103l-25 -103h-222l241 680h216l239 -680h-217l-30 103h-202zM406 268l-53 193l-50 -193h103z" />
    <glyph glyph-name="Aacute" unicode="&#xc1;" horiz-adv-x="698" 
d="M553 891l-125 -160h-156l93 160h188zM252 103l-25 -103h-222l241 680h216l239 -680h-217l-30 103h-202zM406 268l-53 193l-50 -193h103z" />
    <glyph glyph-name="Acircumflex" unicode="&#xc2;" horiz-adv-x="698" 
d="M350 790l-50 -55h-143l129 163h128l132 -163h-140zM252 103l-25 -103h-222l241 680h216l239 -680h-217l-30 103h-202zM406 268l-53 193l-50 -193h103z" />
    <glyph glyph-name="Atilde" unicode="&#xc3;" horiz-adv-x="698" 
d="M183 851q18 22 44 34.5t51 12.5q37 0 91 -23q33 -18 60 -18q56 0 93 40v-119q-15 -21 -43 -34.5t-55 -13.5q-37 0 -91 23q-29 18 -62 18q-17 0 -41.5 -10.5t-46.5 -26.5v117zM252 103l-25 -103h-222l241 680h216l239 -680h-217l-30 103h-202zM406 268l-53 193l-50 -193
h103z" />
    <glyph glyph-name="Adieresis" unicode="&#xc4;" horiz-adv-x="698" 
d="M320 882v-140h-144v140h144zM529 882v-140h-144v140h144zM252 103l-25 -103h-222l241 680h216l239 -680h-217l-30 103h-202zM406 268l-53 193l-50 -193h103z" />
    <glyph glyph-name="Aring" unicode="&#xc5;" horiz-adv-x="698" 
d="M477 828q0 -27 -10 -51.5t-27 -41.5q-35 -35 -85 -35q-25 0 -48.5 9t-42.5 26q-35 38 -35 90q0 51 35 86q18 16 42 24.5t49 8.5q58 0 85 -33q37 -33 37 -83zM356 867q-20 0 -33 -13t-13 -31t12.5 -31t30.5 -13t31 13t13 33q0 19 -13 31q-11 11 -28 11zM5 0l241 680h216
l239 -680h-217l-30 103h-202l-25 -103h-222zM303 268h103l-53 193z" />
    <glyph glyph-name="AE" unicode="&#xc6;" horiz-adv-x="935" 
d="M266 103l-40 -103h-219l293 680h606v-169h-271v-85h222v-166h-222v-91h271v-169h-476v103h-164zM430 268v253l-97 -253h97z" />
    <glyph glyph-name="Ccedilla" unicode="&#xc7;" horiz-adv-x="602" 
d="M433 664.5q57 -26.5 95 -77.5q38 -56 47 -133h-207q-4 31 -18 45t-44 14q-24 0 -39.5 -11.5t-19.5 -33.5q-9 -34 -9 -128q0 -93 9 -128q9 -45 59 -45q52 0 62 57l207 1q-20 -118 -88 -177t-181 -59q-95 0 -160.5 43t-93.5 124q-21 56 -21 184q0 129 21 184
q28 81 93.5 124t160.5 43q70 0 127 -26.5zM365 -21q0 -49 -20 -89.5t-56 -63.5q-36 -22 -81 -21v113q21 0 31.5 16.5t10.5 44.5h115z" />
    <glyph glyph-name="Egrave" unicode="&#xc8;" horiz-adv-x="555" 
d="M293 891l92 -160h-160l-120 160h188zM521 169v-169h-476v680h476v-169h-271v-85h222v-166h-222v-91h271z" />
    <glyph glyph-name="Eacute" unicode="&#xc9;" horiz-adv-x="555" 
d="M449 891l-125 -160h-156l93 160h188zM521 169v-169h-476v680h476v-169h-271v-85h222v-166h-222v-91h271z" />
    <glyph glyph-name="Ecircumflex" unicode="&#xca;" horiz-adv-x="555" 
d="M281 790l-50 -55h-143l129 163h128l132 -163h-140zM521 169v-169h-476v680h476v-169h-271v-85h222v-166h-222v-91h271z" />
    <glyph glyph-name="Edieresis" unicode="&#xcb;" horiz-adv-x="555" 
d="M252 882v-140h-144v140h144zM461 882v-140h-144v140h144zM521 169v-169h-476v680h476v-169h-271v-85h222v-166h-222v-91h271z" />
    <glyph glyph-name="Igrave" unicode="&#xcc;" horiz-adv-x="295" 
d="M140 891l92 -160h-160l-120 160h188zM250 680v-680h-205v680h205z" />
    <glyph glyph-name="Iacute" unicode="&#xcd;" horiz-adv-x="295" 
d="M342 891l-125 -160h-156l93 160h188zM250 680v-680h-205v680h205z" />
    <glyph glyph-name="Icircumflex" unicode="&#xce;" horiz-adv-x="295" 
d="M146 790l-51 -55h-142l129 163h128l132 -163h-139zM250 680v-680h-205v680h205z" />
    <glyph glyph-name="Idieresis" unicode="&#xcf;" horiz-adv-x="295" 
d="M114 882v-140h-144v140h144zM323 882v-140h-144v140h144zM250 680v-680h-205v680h205z" />
    <glyph glyph-name="Eth" unicode="&#xd0;" horiz-adv-x="634" 
d="M45 271h-39v144h39v265h283q114 0 177.5 -43t79.5 -121q14 -75 14 -176q0 -86 -6 -135t-24 -86q-19 -39 -57 -71q-58 -48 -184 -48h-283v271zM285 181q85 0 96 53q9 35 9 106q0 72 -9 106q-11 53 -96 53h-35v-84h71v-144h-71v-90h35z" />
    <glyph glyph-name="Ntilde" unicode="&#xd1;" horiz-adv-x="651" 
d="M497 779q-16 -21 -43.5 -35t-54.5 -14q-37 0 -91 23q-29 18 -62 18q-17 0 -41 -11t-47 -27v118q20 22 45.5 34.5t49.5 12.5q37 0 91 -23q33 -18 60 -18q56 0 93 39v-117zM421 311v369h185v-680h-196l-180 368v-368h-185v680h197z" />
    <glyph glyph-name="Ograve" unicode="&#xd2;" horiz-adv-x="630" 
d="M320 891l92 -160h-160l-120 160h188zM147.5 32.5q-69.5 43.5 -95.5 123.5q-21 68 -21 184q0 129 26 199t92 109q70 43 167 43q96 0 166 -44.5t96 -122.5q21 -67 21 -184q0 -128 -26 -197t-91 -110q-71 -44 -166 -44q-99 0 -168.5 43.5zM367.5 184q16.5 17 20.5 54
q4 28 4 110q0 69 -4 97q-5 34 -21.5 51t-50.5 17q-29 0 -45.5 -11.5t-23.5 -35.5q-9 -39 -9 -141q0 -61 5 -93t21.5 -48.5t51.5 -16.5t51.5 17z" />
    <glyph glyph-name="Oacute" unicode="&#xd3;" horiz-adv-x="630" 
d="M502 891l-125 -160h-156l93 160h188zM147.5 32.5q-69.5 43.5 -95.5 123.5q-21 68 -21 184q0 129 26 199t92 109q70 43 167 43q96 0 166 -44.5t96 -122.5q21 -67 21 -184q0 -128 -26 -197t-91 -110q-71 -44 -166 -44q-99 0 -168.5 43.5zM360 178.5q16 11.5 23 35.5
q9 36 9 126t-9 126q-7 24 -23 35.5t-44 11.5q-29 0 -45.5 -11.5t-23.5 -35.5q-9 -36 -9 -126t9 -126q7 -24 23.5 -35.5t45.5 -11.5q28 0 44 11.5z" />
    <glyph glyph-name="Ocircumflex" unicode="&#xd4;" horiz-adv-x="630" 
d="M313 790l-50 -55h-143l129 163h128l132 -163h-140zM147.5 32.5q-69.5 43.5 -95.5 123.5q-21 68 -21 184q0 129 26 199t92 109q70 43 167 43q96 0 166 -44.5t96 -122.5q21 -67 21 -184q0 -128 -26 -197t-91 -110q-71 -44 -166 -44q-99 0 -168.5 43.5zM360 178.5
q16 11.5 23 35.5q9 36 9 126q0 78 -9 126q-4 23 -21.5 35t-45.5 12q-29 0 -45.5 -11.5t-23.5 -35.5q-9 -36 -9 -126q0 -79 4 -104q4 -36 21 -52.5t53 -16.5q28 0 44 11.5z" />
    <glyph glyph-name="Otilde" unicode="&#xd5;" horiz-adv-x="630" 
d="M146 851q20 22 45.5 34.5t49.5 12.5q37 0 91 -23q33 -18 60 -18q56 0 93 39v-117q-16 -21 -43.5 -35t-54.5 -14q-37 0 -91 23q-29 18 -62 18q-17 0 -41 -11t-47 -27v118zM147.5 32.5q-69.5 43.5 -95.5 123.5q-21 68 -21 184q0 129 26 199t92 109q70 43 167 43
q96 0 166 -44.5t96 -122.5q21 -67 21 -184q0 -128 -26 -197t-91 -110q-71 -44 -166 -44q-99 0 -168.5 43.5zM389 245q3 35 3 110q0 57 -5 92q-6 32 -22.5 49t-48.5 17q-36 0 -53.5 -18t-20.5 -55q-4 -28 -4 -115q0 -61 5 -93t21.5 -48.5t51.5 -16.5q67 0 73 78z" />
    <glyph glyph-name="Odieresis" unicode="&#xd6;" horiz-adv-x="630" 
d="M283 882v-140h-144v140h144zM492 882v-140h-144v140h144zM147.5 32.5q-69.5 43.5 -95.5 123.5q-21 68 -21 184q0 129 26 199t92 109q70 43 167 43q96 0 166 -44.5t96 -122.5q21 -67 21 -184q0 -128 -26 -197t-91 -110q-71 -44 -166 -44q-99 0 -168.5 43.5zM360 178.5
q16 11.5 23 35.5q9 38 9 134q0 69 -4 97q-5 34 -21.5 51t-50.5 17q-29 0 -45.5 -11.5t-23.5 -35.5q-9 -36 -9 -126t9 -126q7 -24 23.5 -35.5t45.5 -11.5q28 0 44 11.5z" />
    <glyph glyph-name="multiply" unicode="&#xd7;" 
d="M402 276l126 -128l-109 -107l-126 127l-131 -127l-109 107l130 128l-130 128l112 110l131 -133l123 133l109 -107z" />
    <glyph glyph-name="Oslash" unicode="&#xd8;" horiz-adv-x="630" 
d="M100 79q-26 33 -40 77q-21 68 -21 184q0 129 26 199t92 109q70 43 167 43q93 0 155 -38l40 57h102l-73 -112q17 -17 38 -74q21 -68 21 -184q0 -128 -26 -197t-91 -110q-71 -44 -166 -44q-96 0 -155 35l-42 -54h-102zM372 500q-22 16 -48 16q-36 0 -54 -17.5t-23 -54.5
q-5 -42 -5 -104l1 -46zM369.5 177q18.5 13 25.5 37q9 41 9 126q0 40 -1 44l-129 -205q22 -15 50 -15q27 0 45.5 13z" />
    <glyph glyph-name="Ugrave" unicode="&#xd9;" horiz-adv-x="649" 
d="M330 891l92 -160h-160l-120 160h188zM249 256q0 -42 20.5 -65.5t57.5 -23.5q35 0 54 23.5t19 65.5v424h205v-408q0 -137 -72.5 -210t-205.5 -73q-283 0 -283 283v408h205v-424z" />
    <glyph glyph-name="Uacute" unicode="&#xda;" horiz-adv-x="649" 
d="M521 891l-125 -160h-156l93 160h188zM44 272v408h205v-424q0 -42 20.5 -65.5t57.5 -23.5q35 0 54 23.5t19 65.5v424h205v-408q0 -137 -72.5 -210t-205.5 -73q-283 0 -283 283z" />
    <glyph glyph-name="Ucircumflex" unicode="&#xdb;" horiz-adv-x="649" 
d="M385 898l132 -163h-140l-56 55l-50 -55h-143l129 163h128zM249 256q0 -42 20.5 -65.5t57.5 -23.5q35 0 54 23.5t19 65.5v424h205v-408q0 -137 -72.5 -210t-205.5 -73q-283 0 -283 283v408h205v-424z" />
    <glyph glyph-name="Udieresis" unicode="&#xdc;" horiz-adv-x="649" 
d="M148 742v140h144v-140h-144zM357 742v140h144v-140h-144zM605 272q0 -137 -72.5 -210t-205.5 -73q-283 0 -283 283v408h205v-424q0 -42 20.5 -65.5t57.5 -23.5q35 0 54 23.5t19 65.5v424h205v-408z" />
    <glyph glyph-name="Yacute" unicode="&#xdd;" horiz-adv-x="632" 
d="M519 891l-125 -160h-156l93 160h188zM421 257v-257h-205v257l-214 423h210l110 -229l107 229h206z" />
    <glyph glyph-name="Thorn" unicode="&#xde;" horiz-adv-x="619" 
d="M45 680h205v-96h87q81 0 140 -28.5t91 -81.5t32 -125q0 -110 -69 -170t-194 -60h-87v-119h-205v680zM324 286q34 0 52.5 16.5t18.5 46.5t-19 48t-52 18h-74v-129h74z" />
    <glyph glyph-name="agrave" unicode="&#xe0;" horiz-adv-x="538" 
d="M291 703l92 -160h-160l-120 160h188zM311 37q-42 -48 -128 -48q-72 0 -115.5 40.5t-43.5 109.5q0 75 59 118.5t158 43.5h68v14q0 23 -16 30q-21 8 -67 8q-32 0 -61.5 -8.5t-48.5 -22.5l-71 122q34 26 89 40.5t119 14.5q88 0 141 -19t78 -60q24 -42 24 -110v-310h-185v37z
M309 159v31h-50q-25 0 -36.5 -8t-11.5 -27q0 -18 9.5 -25.5t32.5 -7.5q56 0 56 37z" />
    <glyph glyph-name="aacute" unicode="&#xe1;" horiz-adv-x="538" 
d="M464 703l-123 -160h-158l93 160h188zM311 37q-42 -48 -128 -48q-72 0 -115.5 40.5t-43.5 109.5q0 75 59 118.5t158 43.5h68v14q0 23 -16 30q-21 8 -67 8q-32 0 -61.5 -8.5t-48.5 -22.5l-71 122q34 26 89 40.5t119 14.5q88 0 141 -19t78 -60q24 -42 24 -110v-310h-185v37z
M309 159v31h-50q-25 0 -36.5 -8t-11.5 -27q0 -18 9.5 -25.5t32.5 -7.5q56 0 56 37z" />
    <glyph glyph-name="acircumflex" unicode="&#xe2;" horiz-adv-x="538" 
d="M331 703l132 -163h-140l-56 55l-50 -55h-143l129 163h128zM311 37q-42 -48 -128 -48q-72 0 -115.5 40.5t-43.5 109.5q0 75 59 118.5t158 43.5h68v14q0 23 -16 30q-21 8 -67 8q-32 0 -61.5 -8.5t-48.5 -22.5l-71 122q34 26 89 40.5t119 14.5q88 0 141 -19t78 -60
q24 -42 24 -110v-310h-185v37zM309 159v31h-50q-25 0 -36.5 -8t-11.5 -27q0 -18 9.5 -25.5t32.5 -7.5q56 0 56 37z" />
    <glyph glyph-name="atilde" unicode="&#xe3;" horiz-adv-x="538" 
d="M250 558q-29 18 -62 18q-17 0 -42.5 -10.5t-45.5 -25.5v118q18 21 44 33t51 12q37 0 91 -23q33 -18 60 -18q52 0 93 41v-119q-16 -21 -44.5 -35t-53.5 -14q-37 0 -91 23zM311 37q-42 -48 -128 -48q-72 0 -115.5 40.5t-43.5 109.5q0 75 59 118.5t158 43.5h68v14
q0 23 -16 30q-21 8 -67 8q-32 0 -61.5 -8.5t-48.5 -22.5l-71 122q34 26 89 40.5t119 14.5q88 0 141 -19t78 -60q24 -42 24 -110v-310h-185v37zM309 159v31h-50q-25 0 -36.5 -8t-11.5 -27q0 -18 9.5 -25.5t32.5 -7.5q56 0 56 37z" />
    <glyph glyph-name="adieresis" unicode="&#xe4;" horiz-adv-x="538" 
d="M93 537v140h144v-140h-144zM302 537v140h144v-140h-144zM394 480q53 -19 78 -60q24 -42 24 -110v-310h-185v37q-42 -48 -128 -48q-72 0 -115.5 40.5t-43.5 109.5q0 75 59 118.5t158 43.5h68v14q0 23 -16 30q-21 8 -67 8q-32 0 -61.5 -8.5t-48.5 -22.5l-71 122
q34 26 89 40.5t119 14.5q88 0 141 -19zM259 190q-25 0 -36.5 -8t-11.5 -27q0 -18 9.5 -25.5t32.5 -7.5q56 0 56 37v31h-50z" />
    <glyph glyph-name="aring" unicode="&#xe5;" horiz-adv-x="538" 
d="M377 638q0 -26 -10 -50t-28 -42q-34 -34 -84 -34q-24 0 -48 9t-43 25q-34 37 -34 90q0 51 34 85q18 16 41.5 24.5t48.5 8.5q52 0 85 -33q38 -35 38 -83zM297 635q0 19 -12 31t-30 12q-20 0 -32.5 -13t-12.5 -32q0 -18 12.5 -31t30.5 -13q20 0 32 15q12 12 12 31zM394 480
q53 -19 78 -60q24 -42 24 -110v-310h-185v37q-42 -48 -128 -48q-72 0 -115.5 40.5t-43.5 109.5q0 75 59 118.5t158 43.5h68v14q0 23 -16 30q-21 8 -67 8q-32 0 -61.5 -8.5t-48.5 -22.5l-71 122q34 26 89 40.5t119 14.5q88 0 141 -19zM259 190q-25 0 -36.5 -8t-11.5 -27
q0 -18 9.5 -25.5t32.5 -7.5q56 0 56 37v31h-50z" />
    <glyph glyph-name="ae" unicode="&#xe6;" horiz-adv-x="818" 
d="M395 51q-53 -62 -185 -62q-92 0 -139 38t-47 112q0 75 59 118.5t158 43.5h68v17q0 15 -7 22t-24 10q-16 3 -52 3q-76 0 -110 -31l-71 119q44 32 91 45t117 13q55 0 92 -8t73 -28q58 36 128 36q89 0 149.5 -37.5t83.5 -104.5q8 -22 13 -55q3 -33 3 -112h-302q0 -8 3 -16
q8 -23 29.5 -33t58.5 -10q54 0 109 42l97 -98q-50 -45 -105.5 -65.5t-124.5 -20.5q-97 0 -165 62zM607 301q0 24 -4.5 37.5t-16.5 21.5q-14 8 -37 8q-41 0 -53 -35q-3 -13 -3 -32h114zM309 159v31h-50q-50 0 -50 -35q0 -33 44 -33q56 0 56 37z" />
    <glyph glyph-name="ccedilla" unicode="&#xe7;" horiz-adv-x="493" 
d="M402 462.5q61 -36.5 86 -94.5l-158 -73q-17 50 -57 50q-37 0 -45 -30q-7 -15 -7 -71q0 -54 7 -69q8 -32 45 -32q38 0 57 52l158 -71q-27 -61 -87 -98t-134 -37q-91 0 -149.5 37t-79.5 108q-15 41 -15 110q0 70 15 110q21 71 79.5 108t149.5 37q74 0 135 -36.5zM337 -21
q0 -49 -20 -89.5t-56 -63.5t-81 -21v113q21 0 31.5 16.5t10.5 44.5h115z" />
    <glyph glyph-name="egrave" unicode="&#xe8;" horiz-adv-x="539" 
d="M89 703h188l92 -160h-160zM131 26.5q-61 37.5 -85 108.5q-17 54 -17 109q0 71 16 110q22 70 82 107.5t148 37.5q87 0 147.5 -37.5t83.5 -104.5q20 -72 17 -134l-1 -33h-305q4 -14 7 -19q10 -20 30 -30t54 -10q57 0 112 42l97 -98q-51 -44 -107 -65t-124 -21
q-94 0 -155 37.5zM334 301q0 24 -4.5 37.5t-15.5 21.5q-14 8 -38 8q-42 0 -53 -35q-3 -13 -3 -32h114z" />
    <glyph glyph-name="eacute" unicode="&#xe9;" horiz-adv-x="539" 
d="M461 703l-123 -160h-158l93 160h188zM124 26.5q-62 37.5 -84 108.5q-17 54 -17 109q0 71 16 110q22 70 82 107.5t148 37.5q87 0 147.5 -37.5t83.5 -104.5q17 -63 17 -134l-1 -33h-305q4 -14 7 -19q10 -20 30 -30t54 -10q57 0 112 42l97 -98q-51 -44 -107 -65t-124 -21
q-94 0 -156 37.5zM328 301q0 24 -4.5 37.5t-15.5 21.5q-14 8 -38 8q-42 0 -53 -35q-3 -13 -3 -32h114z" />
    <glyph glyph-name="ecircumflex" unicode="&#xea;" horiz-adv-x="539" 
d="M462 540h-140l-56 55l-50 -55h-143l129 163h128zM131 26.5q-61 37.5 -85 108.5q-17 54 -17 109q0 71 16 110q22 70 82 107.5t148 37.5q87 0 147.5 -37.5t83.5 -104.5q20 -72 17 -134l-1 -33h-305q4 -14 7 -19q10 -20 30 -30t54 -10q57 0 112 42l97 -98q-51 -44 -107 -65
t-124 -21q-94 0 -155 37.5zM334 301q0 24 -4.5 37.5t-15.5 21.5q-14 8 -38 8q-42 0 -53 -35q-3 -13 -3 -32h114z" />
    <glyph glyph-name="edieresis" unicode="&#xeb;" horiz-adv-x="539" 
d="M92 537v140h144v-140h-144zM301 537v140h144v-140h-144zM131 26.5q-61 37.5 -85 108.5q-17 54 -17 109q0 71 16 110q22 70 82 107.5t148 37.5q87 0 147.5 -37.5t83.5 -104.5q20 -72 17 -134l-1 -33h-305q4 -14 7 -19q10 -20 30 -30t54 -10q57 0 112 42l97 -98
q-51 -44 -107 -65t-124 -21q-94 0 -155 37.5zM334 301q0 24 -4.5 37.5t-15.5 21.5q-14 8 -38 8q-42 0 -53 -35q-3 -13 -3 -32h114z" />
    <glyph glyph-name="igrave" unicode="&#xec;" horiz-adv-x="282" 
d="M137 703l92 -160h-160l-120 160h188zM239 488v-488h-196v488h196z" />
    <glyph glyph-name="iacute" unicode="&#xed;" horiz-adv-x="282" 
d="M335 703l-123 -160h-158l93 160h188zM239 488v-488h-196v488h196z" />
    <glyph glyph-name="icircumflex" unicode="&#xee;" horiz-adv-x="282" 
d="M209 703l132 -163h-140l-56 55l-50 -55h-143l129 163h128zM239 488v-488h-196v488h196z" />
    <glyph glyph-name="idieresis" unicode="&#xef;" horiz-adv-x="282" 
d="M-35 537v140h144v-140h-144zM174 537v140h144v-140h-144zM43 0v488h196v-488h-196z" />
    <glyph glyph-name="eth" unicode="&#xf0;" horiz-adv-x="544" 
d="M519 227q0 -138 -95 -199q-61 -39 -150 -39q-90 0 -152 36.5t-83 102.5q-13 45 -13 93q0 42 12 87q21 63 67.5 93t124.5 31l15 -2q14 -1 33 -14l-53 71l-107 -31l-32 101l72 22l-72 101h198l38 -55l96 28l32 -98l-61 -19l12 -20q76 -110 103 -173q15 -40 15 -116z
M335 226q0 13 -10 43q-4 21 -17 32.5t-34 11.5q-46 0 -54 -44q-10 -30 -10 -43q0 -29 10 -45q8 -41 54 -41q43 0 51 41q10 16 10 45z" />
    <glyph glyph-name="ntilde" unicode="&#xf1;" horiz-adv-x="563" 
d="M262 558q-29 18 -62 18q-17 0 -42.5 -10.5t-45.5 -25.5v118q18 21 44 33t51 12q37 0 91 -23q33 -18 60 -18q52 0 93 41v-119q-16 -21 -44.5 -35t-53.5 -14q-37 0 -91 23zM326 288q0 54 -43 54q-21 0 -32.5 -14.5t-11.5 -39.5v-288h-196v488h196v-43q21 29 50 41.5
t72 12.5q161 0 161 -182v-317h-196v288z" />
    <glyph glyph-name="ograve" unicode="&#xf2;" horiz-adv-x="544" 
d="M275 703l92 -160h-160l-120 160h188zM122 26q-61 37 -83 105q-16 48 -16 113q0 255 248 255q90 0 151 -36.5t83 -105.5q16 -48 16 -113q0 -80 -23.5 -134t-75.5 -84q-61 -37 -151 -37q-88 0 -149 37zM301.5 150q10.5 7 14.5 23q7 21 7 71t-7 71q-5 16 -15 23t-30 7
q-19 0 -29 -7t-14 -23q-7 -27 -7 -71q0 -50 7 -71q4 -16 14 -23t29 -7q20 0 30.5 7z" />
    <glyph glyph-name="oacute" unicode="&#xf3;" horiz-adv-x="544" 
d="M464 703l-123 -160h-158l93 160h188zM122 26q-61 37 -83 105q-16 48 -16 113q0 255 248 255q90 0 151 -36.5t83 -105.5q16 -48 16 -113q0 -80 -23.5 -134t-75.5 -84q-61 -37 -151 -37q-88 0 -149 37zM301 150q10 7 15 23q7 21 7 71t-7 71q-5 16 -15 23t-30 7
q-18 0 -28 -7t-15 -23q-7 -21 -7 -71t7 -71q5 -16 15 -23t28 -7q20 0 30 7z" />
    <glyph glyph-name="ocircumflex" unicode="&#xf4;" horiz-adv-x="544" 
d="M331 703l132 -163h-140l-56 55l-50 -55h-143l129 163h128zM122 26q-61 37 -83 105q-16 48 -16 113q0 255 248 255q90 0 151 -36.5t83 -105.5q16 -48 16 -113q0 -80 -23.5 -134t-75.5 -84q-61 -37 -151 -37q-88 0 -149 37zM301.5 150q10.5 7 14.5 23q7 21 7 71t-7 71
q-4 16 -14.5 23t-30.5 7q-19 0 -29 -7t-14 -23q-7 -27 -7 -71q0 -50 7 -71q5 -16 15 -23t28 -7q20 0 30.5 7z" />
    <glyph glyph-name="otilde" unicode="&#xf5;" horiz-adv-x="544" 
d="M253 558q-28 18 -62 18q-17 0 -42.5 -10.5t-45.5 -25.5v118q18 21 44 33t51 12q37 0 91 -23q33 -18 60 -18q52 0 93 41v-119q-16 -21 -44.5 -35t-53.5 -14q-37 0 -91 23zM122 26q-61 37 -83 105q-16 48 -16 113q0 255 248 255q90 0 151 -36.5t83 -105.5q16 -48 16 -113
q0 -80 -23.5 -134t-75.5 -84q-61 -37 -151 -37q-88 0 -149 37zM301.5 150q10.5 7 14.5 23q7 21 7 71t-7 71q-4 16 -14.5 23t-30.5 7q-19 0 -29 -7t-14 -23q-7 -27 -7 -71q0 -50 7 -71q4 -16 14 -23t29 -7q20 0 30.5 7z" />
    <glyph glyph-name="odieresis" unicode="&#xf6;" horiz-adv-x="544" 
d="M96 537v140h144v-140h-144zM305 537v140h144v-140h-144zM422 462.5q61 -36.5 83 -105.5q16 -48 16 -113q0 -80 -23.5 -134t-75.5 -84q-61 -37 -151 -37q-88 0 -149 37t-83 105q-16 48 -16 113q0 255 248 255q90 0 151 -36.5zM242 338q-10 -7 -14 -23q-7 -21 -7 -71t7 -71
q4 -16 14 -23t29 -7q20 0 30.5 7t14.5 23q7 21 7 71t-7 71q-4 16 -14.5 23t-30.5 7q-19 0 -29 -7z" />
    <glyph glyph-name="divide" unicode="&#xf7;" 
d="M382 482q0 -24 -7 -39q-14 -25 -37 -38t-50 -13q-30 0 -55.5 14.5t-38.5 39.5q-8 26 -8 36q0 24 20 59q33 41 77 41q45 0 80 -41q19 -31 19 -59zM43 197v158h484v-158h-484zM380 66q0 -15 -8 -44q-15 -24 -37.5 -37.5t-47.5 -13.5q-27 0 -51 15t-39 42q-7 15 -7 40
q0 28 10 49q15 22 37 33.5t47 11.5q24 0 45.5 -11t36.5 -31q14 -31 14 -54z" />
    <glyph glyph-name="oslash" unicode="&#xf8;" horiz-adv-x="544" 
d="M75 57q-30 37 -43.5 81.5t-13.5 105.5q0 255 248 255q80 0 127 -26l36 45h98l-71 -88q35 -38 44 -73q16 -48 16 -113q0 -80 -23.5 -134t-75.5 -84q-61 -37 -151 -37q-61 0 -125 23l-33 -42h-98zM295 343q-12 4 -27 4q-18 0 -28 -7t-14 -24q-4 -16 -6 -45v-14
q-1 -10 0 -16zM301 149.5q12 6.5 16 22.5q5 24 6 46v34l-79 -104q17 -5 22 -5q23 0 35 6.5z" />
    <glyph glyph-name="ugrave" unicode="&#xf9;" horiz-adv-x="559" 
d="M299 703l92 -160h-160l-120 160h188zM320 46q-39 -57 -123 -57q-157 0 -157 182v317h196v-288q0 -24 11.5 -39t30.5 -15q22 0 32 13.5t10 42.5v286h196v-488h-196v46z" />
    <glyph glyph-name="uacute" unicode="&#xfa;" horiz-adv-x="559" 
d="M475 703l-123 -160h-158l93 160h188zM320 46q-39 -57 -123 -57q-157 0 -157 182v317h196v-288q0 -24 11.5 -39t30.5 -15q22 0 32 13.5t10 42.5v286h196v-488h-196v46z" />
    <glyph glyph-name="ucircumflex" unicode="&#xfb;" horiz-adv-x="559" 
d="M344 703l132 -163h-140l-56 55l-50 -55h-143l129 163h128zM320 46q-39 -57 -123 -57q-157 0 -157 182v317h196v-288q0 -24 11.5 -39t30.5 -15q22 0 32 13.5t10 42.5v286h196v-488h-196v46z" />
    <glyph glyph-name="udieresis" unicode="&#xfc;" horiz-adv-x="559" 
d="M104 537v140h144v-140h-144zM313 537v140h144v-140h-144zM516 0h-196v46q-39 -57 -123 -57q-157 0 -157 182v317h196v-288q0 -24 11.5 -39t30.5 -15q22 0 32 13.5t10 42.5v286h196v-488z" />
    <glyph glyph-name="yacute" unicode="&#xfd;" horiz-adv-x="551" 
d="M475 703l-123 -160h-158l93 160h188zM92 -180v154h37q24 0 37 8.5t17 27.5l11 26l-192 452h207l77 -223l66 223h203l-224 -551q-26 -62 -70 -93q-43 -24 -119 -24h-50z" />
    <glyph glyph-name="thorn" unicode="&#xfe;" horiz-adv-x="563" 
d="M43 680h196v-235q15 25 48.5 39.5t77.5 14.5q120 0 158 -116q17 -63 17 -139t-17 -139q-38 -116 -158 -116q-99 0 -126 57v-226h-196v860zM318.5 150.5q11.5 7.5 16.5 24.5q7 21 7 69t-7 69q-5 17 -16.5 24.5t-30.5 7.5q-17 0 -27 -7.5t-15 -24.5q-7 -21 -7 -69
q0 -56 10.5 -78.5t38.5 -22.5q19 0 30.5 7.5z" />
    <glyph glyph-name="ydieresis" unicode="&#xff;" horiz-adv-x="551" 
d="M102 537v140h144v-140h-144zM311 537v140h144v-140h-144zM331 -63q-26 -62 -70 -93q-43 -24 -119 -24h-50v154h37q24 0 37 8.5t17 27.5l11 26l-192 452h207l77 -223l66 223h203z" />
    <glyph glyph-name="Amacron" unicode="&#x100;" horiz-adv-x="698" 
d="M524 875v-126h-343v126h343zM252 103l-25 -103h-222l241 680h216l239 -680h-217l-30 103h-202zM406 268l-53 193l-50 -193h103z" />
    <glyph glyph-name="amacron" unicode="&#x101;" horiz-adv-x="538" 
d="M95 551v126h343v-126h-343zM394 480q53 -19 78 -60q24 -42 24 -110v-310h-185v37q-42 -48 -128 -48q-72 0 -115.5 40.5t-43.5 109.5q0 75 59 118.5t158 43.5h68v14q0 23 -16 30q-21 8 -67 8q-32 0 -61.5 -8.5t-48.5 -22.5l-71 122q34 26 89 40.5t119 14.5q88 0 141 -19z
M259 190q-25 0 -36.5 -8t-11.5 -27q0 -18 9.5 -25.5t32.5 -7.5q56 0 56 37v31h-50z" />
    <glyph glyph-name="Abreve" unicode="&#x102;" horiz-adv-x="698" 
d="M268.5 742.5q-38.5 18.5 -60.5 51.5q-23 35 -23 73q0 17 1 19h98q14 -47 69 -47q24 0 43 12.5t26 34.5h101q2 -47 -20 -84t-62 -58q-45 -20 -88 -20q-46 0 -84.5 18.5zM252 103l-25 -103h-222l241 680h216l239 -680h-217l-30 103h-202zM406 268l-53 193l-50 -193h103z
" />
    <glyph glyph-name="abreve" unicode="&#x103;" horiz-adv-x="538" 
d="M440 694q2 -47 -20 -84t-62 -58q-45 -20 -88 -20q-46 0 -84.5 18.5t-60.5 51.5q-23 32 -23 73q0 17 1 19h98q17 -47 69 -47q25 0 44.5 13t26.5 34h99zM394 480q53 -19 78 -60q24 -42 24 -110v-310h-185v37q-42 -48 -128 -48q-72 0 -115.5 40.5t-43.5 109.5q0 75 59 118.5
t158 43.5h68v14q0 23 -16 30q-21 8 -67 8q-32 0 -61.5 -8.5t-48.5 -22.5l-71 122q34 26 89 40.5t119 14.5q88 0 141 -19zM259 190q-25 0 -36.5 -8t-11.5 -27q0 -18 9.5 -25.5t32.5 -7.5q56 0 56 37v31h-50z" />
    <glyph glyph-name="Aogonek" unicode="&#x104;" horiz-adv-x="698" 
d="M599 -64q11 -5 38 -3l-3 -117q-95 -2 -129 8q-44 9 -61.5 29t-17.5 57q0 27 12.5 46.5t45.5 43.5l-30 103h-202l-25 -103h-222l241 680h216l239 -680l-53 -15q-32 -8 -47 -15q-14 -8 -14 -18q0 -13 12 -16zM406 268l-53 193l-50 -193h103z" />
    <glyph glyph-name="aogonek" unicode="&#x105;" horiz-adv-x="538" 
d="M496 0q-52 -14 -65 -24q-15 -9 -15 -24q0 -13 12 -16q11 -5 38 -3l-3 -117q-95 -2 -129 8q-43 9 -60.5 29t-17.5 58q0 26 12 45t43 44v37q-42 -48 -128 -48q-72 0 -115.5 40.5t-43.5 109.5q0 75 59 118.5t158 43.5h68v14q0 23 -16 30q-21 8 -67 8q-32 0 -61.5 -8.5
t-48.5 -22.5l-71 122q34 26 89 40.5t119 14.5q88 0 141 -19t78 -60q24 -42 24 -110v-310zM309 190h-50q-25 0 -36.5 -8t-11.5 -27q0 -18 9.5 -25.5t32.5 -7.5q56 0 56 37v31z" />
    <glyph glyph-name="Cacute" unicode="&#x106;" horiz-adv-x="602" 
d="M485 891l-125 -160h-156l93 160h188zM145.5 32q-65.5 43 -93.5 124q-21 56 -21 184q0 129 21 184q28 81 93.5 124t160.5 43q70 0 127 -26.5t95 -77.5q38 -56 47 -133h-207q-4 31 -18 45t-44 14t-45 -16t-19 -52q-4 -28 -4 -105q0 -93 9 -128q6 -23 20 -34t39 -11
q52 0 62 57l207 1q-20 -118 -88 -177t-181 -59q-95 0 -160.5 43z" />
    <glyph glyph-name="cacute" unicode="&#x107;" horiz-adv-x="493" 
d="M444 703l-123 -160h-158l93 160h188zM38 354q21 71 79.5 108t149.5 37q74 0 135 -36.5t86 -94.5l-158 -73q-17 50 -57 50q-19 0 -29.5 -7t-15.5 -23q-7 -15 -7 -71q0 -54 7 -69q5 -17 15.5 -24.5t29.5 -7.5q38 0 57 52l158 -71q-27 -61 -87 -98t-134 -37q-91 0 -149.5 37
t-79.5 108q-15 41 -15 110q0 70 15 110z" />
    <glyph glyph-name="Ccircumflex" unicode="&#x108;" horiz-adv-x="602" 
d="M302 790l-50 -55h-143l129 163h128l132 -163h-140zM145.5 32q-65.5 43 -93.5 124q-21 56 -21 184q0 129 21 184q28 81 93.5 124t160.5 43q70 0 127 -26.5t95 -77.5q38 -56 47 -133h-207q-4 31 -18 45t-44 14q-24 0 -39.5 -11.5t-19.5 -33.5q-9 -34 -9 -128q0 -93 9 -128
q9 -45 59 -45q52 0 62 57l207 1q-20 -118 -88 -177t-181 -59q-95 0 -160.5 43z" />
    <glyph glyph-name="ccircumflex" unicode="&#x109;" horiz-adv-x="493" 
d="M322 703l132 -163h-140l-56 55l-50 -55h-143l129 163h128zM38 354q21 71 79.5 108t149.5 37q74 0 135 -36.5t86 -94.5l-158 -73q-17 50 -57 50q-37 0 -45 -30q-7 -15 -7 -71q0 -54 7 -69q8 -32 45 -32q38 0 57 52l158 -71q-27 -61 -87 -98t-134 -37q-91 0 -149.5 37
t-79.5 108q-15 41 -15 110q0 70 15 110z" />
    <glyph glyph-name="Cdotaccent" unicode="&#x10a;" horiz-adv-x="602" 
d="M408 882v-140h-219v140h219zM145.5 32q-65.5 43 -93.5 124q-21 56 -21 184q0 129 21 184q28 81 93.5 124t160.5 43q70 0 127 -26.5t95 -77.5q38 -56 47 -133h-207q-4 31 -18 45t-44 14q-24 0 -39.5 -11.5t-19.5 -33.5q-9 -34 -9 -128q0 -93 9 -128q9 -45 59 -45
q52 0 62 57l207 1q-20 -118 -88 -177t-181 -59q-95 0 -160.5 43z" />
    <glyph glyph-name="cdotaccent" unicode="&#x10b;" horiz-adv-x="493" 
d="M373 675v-140h-219v140h219zM38 354q21 71 79.5 108t149.5 37q74 0 135 -36.5t86 -94.5l-158 -73q-17 50 -57 50q-37 0 -45 -30q-7 -15 -7 -71q0 -54 7 -69q8 -32 45 -32q38 0 57 52l158 -71q-27 -61 -87 -98t-134 -37q-91 0 -149.5 37t-79.5 108q-15 41 -15 110
q0 70 15 110z" />
    <glyph glyph-name="Ccaron" unicode="&#x10c;" horiz-adv-x="602" 
d="M495 890l-132 -160h-128l-130 160h140l54 -55l56 55h140zM145.5 32q-65.5 43 -93.5 124q-21 56 -21 184q0 129 21 184q28 81 93.5 124t160.5 43q70 0 127 -26.5t95 -77.5q38 -56 47 -133h-207q-4 31 -18 45t-44 14q-24 0 -39.5 -11.5t-19.5 -33.5q-9 -34 -9 -128
q0 -93 9 -128q9 -45 59 -45q52 0 62 57l207 1q-20 -118 -88 -177t-181 -59q-95 0 -160.5 43z" />
    <glyph glyph-name="ccaron" unicode="&#x10d;" horiz-adv-x="493" 
d="M266 640l56 55h140l-132 -160h-128l-131 160h140zM38 354q21 71 79.5 108t149.5 37q74 0 135 -36.5t86 -94.5l-158 -73q-17 50 -57 50q-37 0 -45 -30q-7 -15 -7 -71q0 -54 7 -69q8 -32 45 -32q38 0 57 52l158 -71q-27 -61 -87 -98t-134 -37q-91 0 -149.5 37t-79.5 108
q-15 41 -15 110q0 70 15 110z" />
    <glyph glyph-name="Dcaron" unicode="&#x10e;" horiz-adv-x="634" 
d="M489 890l-132 -160h-128l-129 160h140l53 -55l56 55h140zM45 680h283q114 0 177.5 -43t79.5 -121q14 -75 14 -176q0 -86 -6 -135t-24 -86q-19 -39 -57 -71q-58 -48 -184 -48h-283v680zM285 181q85 0 96 53q9 35 9 106q0 72 -9 106q-11 53 -96 53h-35v-318h35z" />
    <glyph glyph-name="dcaron" unicode="&#x10f;" horiz-adv-x="599" 
d="M324 47q-36 -58 -126 -58q-120 0 -158 116q-17 63 -17 139t17 139q38 116 158 116q89 0 126 -58v239h196v-680h-196v47zM685 680v-131l-142 -101v232h142zM313.5 165.5q10.5 22.5 10.5 78.5q0 48 -7 69q-5 17 -15 24.5t-27 7.5q-19 0 -30.5 -7.5t-16.5 -24.5
q-7 -21 -7 -69t7 -69q5 -17 16.5 -24.5t30.5 -7.5q28 0 38.5 22.5z" />
    <glyph glyph-name="Dcroat" unicode="&#x110;" horiz-adv-x="634" 
d="M45 271h-39v144h39v265h283q114 0 177.5 -43t79.5 -121q14 -75 14 -176q0 -86 -6 -135t-24 -86q-19 -39 -57 -71q-58 -48 -184 -48h-283v271zM285 181q85 0 96 53q9 35 9 106q0 72 -9 106q-11 53 -96 53h-35v-84h71v-144h-71v-90h35z" />
    <glyph glyph-name="dslash" unicode="&#x111;" horiz-adv-x="563" 
d="M324 42q-38 -53 -126 -53q-120 0 -158 116q-17 63 -17 139t17 139q38 116 158 116q88 0 126 -53v86h-105v119h105v29h196v-29h23v-119h-23v-532h-196v42zM313.5 165.5q10.5 22.5 10.5 78.5q0 48 -7 69q-5 17 -15 24.5t-27 7.5q-19 0 -30.5 -7.5t-16.5 -24.5
q-7 -21 -7 -69t7 -69q5 -17 16.5 -24.5t30.5 -7.5q28 0 38.5 22.5z" />
    <glyph glyph-name="Emacron" unicode="&#x112;" horiz-adv-x="555" 
d="M452 875v-126h-343v126h343zM521 169v-169h-476v680h476v-169h-271v-85h222v-166h-222v-91h271z" />
    <glyph glyph-name="emacron" unicode="&#x113;" horiz-adv-x="539" 
d="M97 551v126h343v-126h-343zM131 26.5q-61 37.5 -85 108.5q-17 54 -17 109q0 71 16 110q22 70 82 107.5t148 37.5q87 0 147.5 -37.5t83.5 -104.5q20 -72 17 -134l-1 -33h-305q4 -14 7 -19q10 -20 30 -30t54 -10q57 0 112 42l97 -98q-51 -44 -107 -65t-124 -21
q-94 0 -155 37.5zM334 301q0 24 -4.5 37.5t-15.5 21.5q-14 8 -38 8q-42 0 -53 -35q-3 -13 -3 -32h114z" />
    <glyph glyph-name="Ebreve" unicode="&#x114;" horiz-adv-x="555" 
d="M193.5 742.5q-38.5 18.5 -60.5 51.5q-23 35 -23 73q0 17 1 19h98q14 -47 69 -47q24 0 43 12.5t26 34.5h101q2 -47 -20 -84t-62 -58q-45 -20 -88 -20q-46 0 -84.5 18.5zM521 169v-169h-476v680h476v-169h-271v-85h222v-166h-222v-91h271z" />
    <glyph glyph-name="ebreve" unicode="&#x115;" horiz-adv-x="539" 
d="M185.5 550.5q-38.5 18.5 -60.5 51.5q-23 32 -23 73q0 17 1 19h98q17 -47 69 -47q25 0 44.5 13t26.5 34h99q2 -47 -20 -84t-62 -58q-45 -20 -88 -20q-46 0 -84.5 18.5zM131 26.5q-61 37.5 -85 108.5q-17 54 -17 109q0 71 16 110q22 70 82 107.5t148 37.5q87 0 147.5 -37.5
t83.5 -104.5q20 -72 17 -134l-1 -33h-305q4 -14 7 -19q10 -20 30 -30t54 -10q57 0 112 42l97 -98q-51 -44 -107 -65t-124 -21q-94 0 -155 37.5zM334 301q0 24 -4.5 37.5t-15.5 21.5q-14 8 -38 8q-42 0 -53 -35q-3 -13 -3 -32h114z" />
    <glyph glyph-name="Edotaccent" unicode="&#x116;" horiz-adv-x="555" 
d="M385 882v-140h-219v140h219zM521 169v-169h-476v680h476v-169h-271v-85h222v-166h-222v-91h271z" />
    <glyph glyph-name="edotaccent" unicode="&#x117;" horiz-adv-x="539" 
d="M159 535v140h219v-140h-219zM131 26.5q-61 37.5 -85 108.5q-17 54 -17 109q0 71 16 110q22 70 82 107.5t148 37.5q87 0 147.5 -37.5t83.5 -104.5q20 -72 17 -134l-1 -33h-305q4 -14 7 -19q10 -20 30 -30t54 -10q57 0 112 42l97 -98q-51 -44 -107 -65t-124 -21
q-94 0 -155 37.5zM334 301q0 24 -4.5 37.5t-15.5 21.5q-14 8 -38 8q-42 0 -53 -35q-3 -13 -3 -32h114z" />
    <glyph glyph-name="Eogonek" unicode="&#x118;" horiz-adv-x="555" 
d="M250 511v-85h222v-166h-222v-91h271v-169h-16l-46 -13q-40 -10 -54 -16q-15 -8 -15 -19q0 -13 12 -16q11 -5 38 -3l-2 -117q-95 -2 -129 8q-44 9 -61.5 29t-17.5 57q0 27 12.5 46.5t45.5 43.5h-243v680h476v-169h-271z" />
    <glyph glyph-name="eogonek" unicode="&#x119;" horiz-adv-x="539" 
d="M414 173l97 -98q-42 -36 -88 -58q-27 -20 -40 -36q-12 -15 -12 -28q0 -14 12 -17q11 -5 38 -3l-3 -117q-95 -2 -129 8q-43 9 -61 29t-18 57q0 24 10 41.5t35 38.5q-84 5 -139 42t-76 103q-17 54 -17 109q0 71 16 110q22 70 82 107.5t148 37.5q87 0 147.5 -37.5
t83.5 -104.5q17 -63 17 -134l-1 -33h-305q4 -14 7 -19q10 -20 30 -30t54 -10q57 0 112 42zM334 301q0 24 -4.5 37.5t-15.5 21.5q-14 8 -38 8q-42 0 -53 -35q-3 -13 -3 -32h114z" />
    <glyph glyph-name="Ecaron" unicode="&#x11a;" horiz-adv-x="555" 
d="M475 890l-132 -160h-128l-129 160h140l53 -55l56 55h140zM521 169v-169h-476v680h476v-169h-271v-85h222v-166h-222v-91h271z" />
    <glyph glyph-name="ecaron" unicode="&#x11b;" horiz-adv-x="539" 
d="M325 695h140l-132 -160h-128l-131 160h140l55 -55zM131 26.5q-61 37.5 -85 108.5q-17 54 -17 109q0 71 16 110q22 70 82 107.5t148 37.5q87 0 147.5 -37.5t83.5 -104.5q20 -72 17 -134l-1 -33h-305q4 -14 7 -19q10 -20 30 -30t54 -10q57 0 112 42l97 -98
q-51 -44 -107 -65t-124 -21q-94 0 -155 37.5zM334 301q0 24 -4.5 37.5t-15.5 21.5q-14 8 -38 8q-42 0 -53 -35q-3 -13 -3 -32h114z" />
    <glyph glyph-name="Gcircumflex" unicode="&#x11c;" horiz-adv-x="630" 
d="M313 790l-50 -55h-143l129 163h128l132 -163h-140zM147 32.5q-69 43.5 -95 123.5q-21 68 -21 184q0 128 26 198.5t91 109.5q67 43 168 43q122 0 194 -60t84 -177h-207q-11 59 -71 59q-30 0 -48.5 -15.5t-23.5 -44.5q-6 -31 -6 -113q0 -78 9 -126q5 -24 21.5 -35.5
t47.5 -11.5q26 0 44 10.5t24 29.5q4 13 4 31h-61v148h272v-60q0 -114 -26 -183t-88 -108q-70 -46 -169 -46q-100 0 -169 43.5z" />
    <glyph glyph-name="gcircumflex" unicode="&#x11d;" horiz-adv-x="557" 
d="M81 540l129 163h128l132 -163h-140l-56 55l-50 -55h-143zM272 484.5q32 -14.5 46 -41.5v45h196v-392q0 -152 -64.5 -219.5t-208.5 -67.5q-64 0 -117 21t-88 61l109 115q49 -43 98 -43q75 0 75 91v37q-31 -60 -123 -60q-65 0 -102 27.5t-56 89.5q-16 52 -16 117
q0 115 40 174.5t134 59.5q45 0 77 -14.5zM223 311q-3 -21 -3 -31q-2 -38 3 -61q5 -16 15.5 -24t30.5 -8q18 0 28.5 7.5t15.5 24.5q5 25 5 46q0 42 -11 61t-38 19q-36 0 -46 -34z" />
    <glyph glyph-name="Gbreve" unicode="&#x11e;" horiz-adv-x="630" 
d="M231.5 742.5q-38.5 18.5 -60.5 51.5q-23 35 -23 73q0 17 1 19h98q14 -47 69 -47q24 0 43 12.5t26 34.5h101q2 -47 -20 -84t-62 -58q-45 -20 -88 -20q-46 0 -84.5 18.5zM147 32.5q-69 43.5 -95 123.5q-21 68 -21 184q0 128 26 198.5t91 109.5q67 43 168 43q122 0 194 -60
t84 -177h-207q-11 59 -71 59q-30 0 -48.5 -15.5t-23.5 -44.5q-6 -31 -6 -113q0 -78 9 -126q5 -24 21.5 -35.5t47.5 -11.5q26 0 44 10.5t24 29.5q4 13 4 31h-61v148h272v-60q0 -114 -26 -183t-88 -108q-70 -46 -169 -46q-100 0 -169 43.5z" />
    <glyph glyph-name="gbreve" unicode="&#x11f;" horiz-adv-x="557" 
d="M445 694q2 -47 -20 -84t-62 -58q-45 -20 -88 -20q-46 0 -84.5 18.5t-60.5 51.5q-23 35 -23 73q0 17 1 19h98q14 -47 69 -47q24 0 43 12.5t26 34.5h101zM272 484.5q32 -14.5 46 -41.5v45h196v-392q0 -152 -64.5 -219.5t-208.5 -67.5q-64 0 -117 21t-88 61l109 115
q49 -43 98 -43q75 0 75 91v37q-31 -60 -123 -60q-65 0 -102 27.5t-56 89.5q-16 52 -16 117q0 115 40 174.5t134 59.5q45 0 77 -14.5zM223 311q-3 -21 -3 -31q-2 -38 3 -61q5 -16 15.5 -24t30.5 -8q18 0 28.5 7.5t15.5 24.5q5 25 5 46q0 42 -11 61t-38 19q-36 0 -46 -34z" />
    <glyph glyph-name="Gdotaccent" unicode="&#x120;" horiz-adv-x="630" 
d="M425 882v-140h-219v140h219zM147 32.5q-69 43.5 -95 123.5q-21 68 -21 184q0 128 26 198.5t91 109.5q67 43 168 43q122 0 194 -60t84 -177h-207q-11 59 -71 59q-30 0 -48.5 -15.5t-23.5 -44.5q-6 -31 -6 -113q0 -78 9 -126q5 -24 21.5 -35.5t47.5 -11.5q26 0 44 10.5
t24 29.5q4 13 4 31h-61v148h272v-60q0 -114 -26 -183t-88 -108q-70 -46 -169 -46q-100 0 -169 43.5z" />
    <glyph glyph-name="gdotaccent" unicode="&#x121;" horiz-adv-x="557" 
d="M384 677v-140h-219v140h219zM124 -170q-53 21 -88 61l109 115q49 -43 98 -43q75 0 75 91v37q-31 -60 -123 -60q-65 0 -102 27.5t-56 89.5q-16 52 -16 117q0 115 40 174.5t134 59.5q45 0 77 -14.5t46 -41.5v45h196v-392q0 -152 -64.5 -219.5t-208.5 -67.5q-64 0 -117 21z
M297.5 194.5q10.5 7.5 15.5 24.5q5 25 5 46q0 42 -11 61t-38 19q-36 0 -46 -34q-3 -21 -3 -31q-2 -38 3 -61q5 -16 15.5 -24t30.5 -8q18 0 28.5 7.5z" />
    <glyph glyph-name="Gcommaaccent" unicode="&#x122;" horiz-adv-x="630" 
d="M510 631q72 -60 84 -177h-207q-11 59 -71 59q-30 0 -48.5 -15.5t-23.5 -44.5q-6 -31 -6 -113q0 -78 9 -126q5 -24 21.5 -35.5t47.5 -11.5q26 0 44 10.5t24 29.5q4 13 4 31h-61v148h272v-60q0 -114 -26 -183t-88 -108q-70 -46 -169 -46q-100 0 -169 43.5t-95 123.5
q-21 68 -21 184q0 128 26 198.5t91 109.5q67 43 168 43q122 0 194 -60zM234 -284v242h160v-124z" />
    <glyph glyph-name="gcommaaccent" unicode="&#x123;" horiz-adv-x="557" 
d="M356 787v-248h-160v125zM124 -170q-53 21 -88 61l109 115q49 -43 98 -43q75 0 75 91v37q-31 -60 -123 -60q-65 0 -102 27.5t-56 89.5q-16 52 -16 117q0 115 40 174.5t134 59.5q45 0 77 -14.5t46 -41.5v45h196v-392q0 -152 -64.5 -219.5t-208.5 -67.5q-64 0 -117 21z
M297.5 194.5q10.5 7.5 15.5 24.5q5 25 5 46q0 42 -11 61t-38 19q-36 0 -46 -34q-3 -21 -3 -31q-2 -38 3 -61q5 -16 15.5 -24t30.5 -8q18 0 28.5 7.5z" />
    <glyph glyph-name="Hcircumflex" unicode="&#x124;" horiz-adv-x="660" 
d="M330 790l-50 -55h-143l129 163h128l132 -163h-140zM250 254v-254h-205v680h205v-245h160v245h205v-680h-205v254h-160z" />
    <glyph glyph-name="hcircumflex" unicode="&#x125;" horiz-adv-x="563" 
d="M351 898l132 -163h-140l-56 55l-50 -55h-143l129 163h128zM326 288q0 54 -43 54q-21 0 -32.5 -14.5t-11.5 -39.5v-288h-196v680h196v-235q24 28 53.5 41t68.5 13q161 0 161 -182v-317h-196v288z" />
    <glyph glyph-name="Hbar" unicode="&#x126;" horiz-adv-x="660" 
d="M250 254v-254h-205v500h-42v114h42v66h205v-66h160v66h205v-66h42v-114h-42v-500h-205v254h-160zM410 500h-160v-65h160v65z" />
    <glyph glyph-name="hbar" unicode="&#x127;" horiz-adv-x="563" 
d="M326 288q0 54 -43 54q-21 0 -32.5 -14.5t-11.5 -39.5v-288h-196v532h-23v119h23v29h196v-29h105v-119h-105v-85q42 52 122 52q161 0 161 -182v-317h-196v288z" />
    <glyph glyph-name="Itilde" unicode="&#x128;" horiz-adv-x="295" 
d="M-23 851q20 22 45.5 34.5t49.5 12.5q37 0 91 -23q33 -18 60 -18q56 0 93 39v-117q-16 -21 -43.5 -35t-54.5 -14q-37 0 -91 23q-28 18 -62 18q-17 0 -41 -11t-47 -27v118zM250 680v-680h-205v680h205z" />
    <glyph glyph-name="itilde" unicode="&#x129;" horiz-adv-x="282" 
d="M122 560q-28 18 -62 18q-32 0 -88 -38v118q20 22 45.5 34.5t49.5 12.5q37 0 91 -23q33 -18 60 -18q56 0 93 39v-117q-16 -21 -43.5 -35t-54.5 -14q-37 0 -91 23zM239 488v-488h-196v488h196z" />
    <glyph glyph-name="Imacron" unicode="&#x12a;" horiz-adv-x="295" 
d="M318 875v-126h-343v126h343zM250 680v-680h-205v680h205z" />
    <glyph glyph-name="imacron" unicode="&#x12b;" horiz-adv-x="282" 
d="M313 677v-126h-343v126h343zM239 488v-488h-196v488h196z" />
    <glyph glyph-name="Ibreve" unicode="&#x12c;" horiz-adv-x="295" 
d="M59.5 742.5q-38.5 18.5 -60.5 51.5q-23 35 -23 73q0 17 1 19h98q14 -47 69 -47q24 0 43 12.5t26 34.5h101q2 -47 -20 -84t-62 -58q-45 -20 -88 -20q-46 0 -84.5 18.5zM250 680v-680h-205v680h205z" />
    <glyph glyph-name="ibreve" unicode="&#x12d;" horiz-adv-x="282" 
d="M72 692q14 -47 69 -47q24 0 43 12.5t26 34.5h101q2 -47 -20 -84t-62 -58q-45 -20 -88 -20q-46 0 -84.5 18.5t-60.5 51.5q-23 35 -23 73q0 17 1 19h98zM239 488v-488h-196v488h196z" />
    <glyph glyph-name="Iogonek" unicode="&#x12e;" horiz-adv-x="295" 
d="M148 -64q11 -5 38 -3l-2 -117q-94 -2 -128 8q-43 9 -61.5 28.5t-18.5 54.5q0 26 13.5 44t55.5 49v680h205v-680q-23 -7 -44 -12q-38 -10 -54 -17t-16 -19q0 -13 12 -16z" />
    <glyph glyph-name="iogonek" unicode="&#x12f;" horiz-adv-x="282" 
d="M239 537h-196v143h196v-143zM43 488h196v-488q-46 -16 -59 -29q-15 -14 -15 -29q0 6 -5 3l-1 -2q0 -3 8 -6q12 -5 48 -3l-2 -118q-79 0 -117.5 6t-62.5 23q-28 18 -28 55q0 18 -1 21l-2 20q0 16 9 29t32 30v488z" />
    <glyph glyph-name="Idot" unicode="&#x130;" horiz-adv-x="295" 
d="M254 882v-140h-219v140h219zM250 680v-680h-205v680h205z" />
    <glyph glyph-name="dotlessi" unicode="&#x131;" horiz-adv-x="282" 
d="M239 488v-488h-196v488h196z" />
    <glyph glyph-name="IJ" unicode="&#x132;" horiz-adv-x="844" 
d="M250 680v-680h-205v680h205zM388.5 18q-60.5 29 -84.5 79l143 112q32 -42 74 -42q34 0 54 23.5t20 62.5v427h205v-406q0 -285 -274 -285q-77 0 -137.5 29z" />
    <glyph glyph-name="ij" unicode="&#x133;" horiz-adv-x="564" 
d="M239 680v-143h-196v143h196zM521 680v-143h-196v143h196zM239 488v-488h-196v488h196zM249 -26h26q29 0 39.5 11t10.5 43v460h196v-461q0 -104 -54.5 -155.5t-164.5 -51.5h-53v154z" />
    <glyph glyph-name="Jcircumflex" unicode="&#x134;" horiz-adv-x="549" 
d="M401 790l-50 -55h-143l129 163h128l132 -163h-140zM98.5 18q-60.5 29 -84.5 79l143 112q32 -42 74 -42q34 0 54 23.5t20 62.5v427h205v-406q0 -285 -274 -285q-77 0 -137.5 29z" />
    <glyph glyph-name="jcircumflex" unicode="&#x135;" horiz-adv-x="303" 
d="M221 703l132 -163h-140l-56 55l-50 -55h-143l129 163h128zM-33 -26h26q29 0 39.5 11t10.5 43v460h196v-461q0 -104 -54.5 -155.5t-164.5 -51.5h-53v154z" />
    <glyph glyph-name="Kcommaaccent" unicode="&#x136;" horiz-adv-x="669" 
d="M250 157v-157h-205v680h205v-252l173 252h229l-204 -279l212 -401h-240l-111 241zM415 -42v-124l-160 -118v242h160z" />
    <glyph glyph-name="kcommaaccent" unicode="&#x137;" horiz-adv-x="549" 
d="M43 0v680h196v-327l93 135h206l-147 -171l161 -317h-210l-83 191l-20 -36v-155h-196zM195 -284v242h160v-124z" />
    <glyph glyph-name="kgreenlandic" unicode="&#x138;" horiz-adv-x="549" 
d="M391 317l161 -317h-207l-86 191l-20 -36v-155h-196v488h196v-135l95 135h201z" />
    <glyph glyph-name="Lacute" unicode="&#x139;" horiz-adv-x="560" 
d="M354 891l-125 -160h-156l93 160h188zM542 181v-181h-497v680h205v-499h292z" />
    <glyph glyph-name="lacute" unicode="&#x13a;" horiz-adv-x="330" 
d="M344 891l-125 -160h-156l93 160h188zM227 -6q-101 0 -143.5 42.5t-42.5 143.5v500h196v-479q0 -22 11.5 -36t30.5 -14h29v-157h-81z" />
    <glyph glyph-name="Lcommaaccent" unicode="&#x13b;" horiz-adv-x="560" 
d="M542 181v-181h-497v680h205v-499h292zM357 -42v-124l-160 -118v242h160z" />
    <glyph glyph-name="lcommaaccent" unicode="&#x13c;" horiz-adv-x="330" 
d="M227 -6q-101 0 -143.5 42.5t-42.5 143.5v500h196v-479q0 -22 11.5 -36t30.5 -14h29v-157h-81zM263 -42v-124l-160 -118v242h160z" />
    <glyph glyph-name="Lcaron" unicode="&#x13d;" horiz-adv-x="560" 
d="M542 181v-181h-497v680h205v-499h292zM469 680v-124l-160 -118v242h160z" />
    <glyph glyph-name="lcaron" unicode="&#x13e;" horiz-adv-x="333" 
d="M227 -6q-101 0 -143.5 42.5t-42.5 143.5v500h196v-479q0 -22 11.5 -36t30.5 -14h29v-157h-81zM423 680v-124l-160 -118v242h160z" />
    <glyph glyph-name="Ldot" unicode="&#x13f;" horiz-adv-x="560" 
d="M542 181v-181h-497v680h205v-499h292zM571 435v-203h-231v203h231z" />
    <glyph glyph-name="ldot" unicode="&#x140;" horiz-adv-x="449" 
d="M227 -6q-101 0 -143.5 42.5t-42.5 143.5v500h196v-479q0 -22 11.5 -36t30.5 -14h29v-157h-81zM509 459v-203h-231v203h231z" />
    <glyph glyph-name="Lslash" unicode="&#x141;" horiz-adv-x="560" 
d="M542 181v-181h-497v238l-46 -24v140l46 24v302h205v-214l137 68v-140l-137 -68v-145h292z" />
    <glyph glyph-name="lslash" unicode="&#x142;" horiz-adv-x="333" 
d="M237 322v-121q0 -22 11.5 -36t30.5 -14h29v-157h-81q-101 0 -143.5 42.5t-42.5 143.5v52l-40 -19v140l40 19v308h196v-218l71 35v-140z" />
    <glyph glyph-name="Nacute" unicode="&#x143;" horiz-adv-x="651" 
d="M208 731l93 160h188l-125 -160h-156zM421 311v369h185v-680h-196l-180 368v-368h-185v680h197z" />
    <glyph glyph-name="nacute" unicode="&#x144;" horiz-adv-x="563" 
d="M446 703l-123 -160h-158l93 160h188zM326 288q0 54 -43 54q-21 0 -32.5 -14.5t-11.5 -39.5v-288h-196v488h196v-43q21 29 50 41.5t72 12.5q161 0 161 -182v-317h-196v288z" />
    <glyph glyph-name="Ncommaaccent" unicode="&#x145;" horiz-adv-x="651" 
d="M421 311v369h185v-680h-196l-180 368v-368h-185v680h197zM244 -284v242h160v-124z" />
    <glyph glyph-name="ncommaaccent" unicode="&#x146;" horiz-adv-x="563" 
d="M326 288q0 54 -43 54q-21 0 -32.5 -14.5t-11.5 -39.5v-288h-196v488h196v-43q21 29 50 41.5t72 12.5q161 0 161 -182v-317h-196v288zM362 -42v-124l-160 -118v242h160z" />
    <glyph glyph-name="Ncaron" unicode="&#x147;" horiz-adv-x="651" 
d="M319 835l56 55h140l-132 -160h-128l-129 160h140zM421 311v369h185v-680h-196l-180 368v-368h-185v680h197z" />
    <glyph glyph-name="ncaron" unicode="&#x148;" horiz-adv-x="563" 
d="M285 643l56 55h140l-132 -160h-128l-129 160h140zM326 288q0 54 -43 54q-21 0 -32.5 -14.5t-11.5 -39.5v-288h-196v488h196v-43q21 29 50 41.5t72 12.5q161 0 161 -182v-317h-196v288z" />
    <glyph glyph-name="napostrophe" unicode="&#x149;" horiz-adv-x="563" 
d="M100 680v-124l-160 -118v242h160zM326 288q0 54 -43 54q-21 0 -32.5 -14.5t-11.5 -39.5v-288h-196v488h196v-43q21 29 50 41.5t72 12.5q161 0 161 -182v-317h-196v288z" />
    <glyph glyph-name="Eng" unicode="&#x14a;" horiz-adv-x="651" 
d="M314 -23h21q23 0 45.5 10.5t24.5 20.5l-175 360v-368h-185v680h197l179 -369v369h185v-629q0 -121 -60.5 -182t-180.5 -61h-51v169z" />
    <glyph glyph-name="eng" unicode="&#x14b;" horiz-adv-x="563" 
d="M256 -180v154h23q27 0 37 10.5t10 40.5v263q0 54 -43 54q-21 0 -32.5 -14.5t-11.5 -39.5v-288h-196v488h196v-43q45 54 122 54q161 0 161 -182v-290q0 -109 -51 -158t-162 -49h-53z" />
    <glyph glyph-name="Omacron" unicode="&#x14c;" horiz-adv-x="630" 
d="M487 875v-126h-343v126h343zM147.5 32.5q-69.5 43.5 -95.5 123.5q-21 68 -21 184q0 129 26 199t92 109q70 43 167 43q96 0 166 -44.5t96 -122.5q21 -67 21 -184q0 -128 -26 -197t-91 -110q-71 -44 -166 -44q-99 0 -168.5 43.5zM360 178.5q16 11.5 23 35.5q9 36 9 126
t-9 126q-7 24 -23 35.5t-44 11.5q-29 0 -45.5 -11.5t-23.5 -35.5q-9 -39 -9 -141q0 -61 5 -93t21.5 -48.5t51.5 -16.5q28 0 44 11.5z" />
    <glyph glyph-name="omacron" unicode="&#x14d;" horiz-adv-x="544" 
d="M445 676v-126h-343v126h343zM122 26q-61 37 -83 105q-16 48 -16 113q0 255 248 255q90 0 151 -36.5t83 -105.5q16 -48 16 -113q0 -80 -23.5 -134t-75.5 -84q-61 -37 -151 -37q-88 0 -149 37zM301.5 150q10.5 7 14.5 23q7 27 7 71t-7 71q-4 16 -14.5 23t-30.5 7
q-19 0 -29 -7t-14 -23q-7 -21 -7 -71t7 -71q4 -16 14 -23t29 -7q20 0 30.5 7z" />
    <glyph glyph-name="Obreve" unicode="&#x14e;" horiz-adv-x="630" 
d="M235.5 742.5q-38.5 18.5 -60.5 51.5q-23 35 -23 73q0 17 1 19h98q14 -47 69 -47q24 0 43 12.5t26 34.5h101q2 -47 -20 -84t-62 -58q-45 -20 -88 -20q-46 0 -84.5 18.5zM147.5 32.5q-69.5 43.5 -95.5 123.5q-21 68 -21 184q0 129 26 199t92 109q70 43 167 43
q96 0 166 -44.5t96 -122.5q21 -67 21 -184q0 -128 -26 -197t-91 -110q-71 -44 -166 -44q-99 0 -168.5 43.5zM357 178.5q16 11.5 24 35.5q9 38 9 126q0 90 -9 126q-7 24 -23 35.5t-44 11.5q-30 0 -46.5 -11t-22.5 -36q-9 -28 -9 -126q0 -82 4 -107q4 -34 21 -50t53 -16
q27 0 43 11.5z" />
    <glyph glyph-name="obreve" unicode="&#x14f;" horiz-adv-x="544" 
d="M204 692q14 -47 69 -47q24 0 43 12.5t26 34.5h101q2 -47 -20 -84t-62 -58q-45 -20 -88 -20q-46 0 -84.5 18.5t-60.5 51.5q-23 35 -23 73q0 17 1 19h98zM122 26q-61 37 -83 105q-16 48 -16 113q0 255 248 255q90 0 151 -36.5t83 -105.5q16 -48 16 -113q0 -80 -23.5 -134
t-75.5 -84q-61 -37 -151 -37q-88 0 -149 37zM301 150q10 7 15 23q7 21 7 71t-7 71q-5 16 -15 23t-30 7q-19 0 -29 -7t-14 -23q-7 -21 -7 -71t7 -71q4 -16 14 -23t29 -7q20 0 30 7z" />
    <glyph glyph-name="Ohungarumlaut" unicode="&#x150;" horiz-adv-x="630" 
d="M380 884l-98 -163h-140l81 163h157zM577 884l-98 -163h-140l81 163h157zM147.5 32.5q-69.5 43.5 -95.5 123.5q-21 68 -21 184q0 129 26 199t92 109q70 43 167 43q96 0 166 -44.5t96 -122.5q21 -67 21 -184q0 -128 -26 -197t-91 -110q-71 -44 -166 -44q-99 0 -168.5 43.5z
M367 184q17 17 21 52q4 28 4 104t-4 104q-4 35 -21 52t-51 17q-35 0 -52.5 -16.5t-21.5 -51.5q-4 -28 -4 -105q0 -79 4 -104q4 -36 21 -52.5t53 -16.5q34 0 51 17z" />
    <glyph glyph-name="ohungarumlaut" unicode="&#x151;" horiz-adv-x="544" 
d="M337 700l-98 -163h-140l81 163h157zM534 700l-98 -163h-140l81 163h157zM122 26q-61 37 -83 105q-16 48 -16 113q0 255 248 255q90 0 151 -36.5t83 -105.5q16 -48 16 -113q0 -80 -23.5 -134t-75.5 -84q-61 -37 -151 -37q-88 0 -149 37zM301.5 150q10.5 7 14.5 23
q7 21 7 71t-7 71q-5 16 -15 23t-30 7q-19 0 -29 -7t-14 -23q-7 -21 -7 -71t7 -71q5 -16 15 -23t28 -7q20 0 30.5 7z" />
    <glyph glyph-name="OE" unicode="&#x152;" horiz-adv-x="902" 
d="M135.5 30.5q-57.5 41.5 -83.5 122.5q-21 71 -21 187q0 124 24.5 197.5t80.5 112.5q59 41 144 41q34 0 64 -9.5t48 -27.5v26h476v-169h-271v-85h222v-166h-222v-91h271v-169h-476v26q-40 -37 -112 -37q-87 0 -144.5 41.5zM360 178.5q16 11.5 23 35.5q9 29 9 126
q0 76 -4 104q-4 35 -21 52t-51 17q-29 0 -45.5 -11.5t-23.5 -35.5q-9 -30 -9 -141q0 -61 5 -93t21.5 -48.5t51.5 -16.5q28 0 44 11.5z" />
    <glyph glyph-name="oe" unicode="&#x153;" horiz-adv-x="838" 
d="M423 35q-34 -21 -74 -33.5t-78 -12.5q-88 0 -149.5 38t-82.5 107q-16 44 -16 110q0 255 248 255q44 0 85.5 -12t65.5 -31q55 43 144 43t149.5 -37.5t83.5 -104.5q13 -45 13 -167h-299l1 -14q7 -26 25.5 -35.5t61.5 -9.5q57 0 109 42l96 -99q-44 -41 -103.5 -63
t-125.5 -22q-93 0 -154 46zM624 301q0 24 -4.5 37.5t-16.5 21.5q-14 8 -34 8q-19 0 -34 -9.5t-19 -25.5q-3 -13 -3 -32h111zM300.5 151q10.5 8 15.5 25q7 17 7 68q0 50 -7 71q-4 16 -14.5 23t-30.5 7q-19 0 -29 -7t-14 -23q-7 -27 -7 -71t7 -68q6 -17 16 -25t27 -8
q19 0 29.5 8z" />
    <glyph glyph-name="Racute" unicode="&#x154;" horiz-adv-x="634" 
d="M460 891l-125 -160h-156l93 160h188zM45 680h297q121 0 190 -60t69 -167q0 -64 -26.5 -113t-78.5 -80l120 -260h-225l-96 227h-45v-227h-205v680zM326 390q32 0 50 16t18 47q0 26 -18.5 42t-49.5 16h-76v-121h76z" />
    <glyph glyph-name="racute" unicode="&#x155;" horiz-adv-x="432" 
d="M408 703l-123 -160h-158l93 160h188zM43 488h196v-53q19 33 50 48.5t79 15.5q28 0 61 -11l-65 -192q-44 29 -69 29q-12 0 -13 -1q-43 -9 -43 -71v-253h-196v488z" />
    <glyph glyph-name="Rcommaaccent" unicode="&#x156;" horiz-adv-x="634" 
d="M45 680h297q121 0 190 -60t69 -167q0 -64 -26.5 -113t-78.5 -80l120 -260h-225l-96 227h-45v-227h-205v680zM326 390q32 0 50 16t18 47q0 26 -18.5 42t-49.5 16h-76v-121h76zM392 -42v-124l-160 -118v242h160z" />
    <glyph glyph-name="rcommaaccent" unicode="&#x157;" horiz-adv-x="432" 
d="M43 488h196v-53q19 33 50 48.5t79 15.5q15 0 61 -11l-65 -192q-44 29 -69 29q-12 0 -13 -1q-43 -9 -43 -71v-253h-196v488zM223 -42v-124l-160 -118v242h160z" />
    <glyph glyph-name="Rcaron" unicode="&#x158;" horiz-adv-x="634" 
d="M485 890l-132 -160h-128l-129 160h140l53 -55l56 55h140zM45 680h297q121 0 190 -60t69 -167q0 -64 -26.5 -113t-78.5 -80l120 -260h-225l-96 227h-45v-227h-205v680zM326 390q32 0 50 16t18 47q0 26 -18.5 42t-49.5 16h-76v-121h76z" />
    <glyph glyph-name="rcaron" unicode="&#x159;" horiz-adv-x="432" 
d="M238 643l56 55h140l-132 -160h-128l-129 160h140zM43 488h196v-53q19 33 50 48.5t79 15.5q15 0 61 -11l-65 -192q-44 29 -69 29q-12 0 -13 -1q-43 -9 -43 -71v-253h-196v488z" />
    <glyph glyph-name="Sacute" unicode="&#x15a;" horiz-adv-x="611" 
d="M501 891l-125 -160h-156l93 160h188zM148 17q-93 34 -132 79l125 140q38 -36 83.5 -55.5t88.5 -19.5q35 0 56 12.5t21 34.5q0 18 -14 26q-10 6 -53 14l-36 5q-116 17 -175.5 73.5t-59.5 150.5q0 101 71 157.5t192 56.5q79 0 141.5 -19.5t121.5 -63.5l-103 -144
q-35 26 -75.5 40.5t-78.5 14.5q-29 0 -44 -11t-15 -29q0 -19 13 -26q14 -9 55 -15l36 -5q236 -29 236 -224q0 -103 -76.5 -161.5t-212.5 -58.5q-81 0 -165 28z" />
    <glyph glyph-name="sacute" unicode="&#x15b;" horiz-adv-x="519" 
d="M450 703l-123 -160h-158l93 160h188zM129.5 7q-58.5 18 -118.5 61l91 111q48 -29 87 -41t86 -12q31 0 38 4q9 3 9 15q0 10 -9 16q-11 5 -38 9l-58 8q-84 10 -131 51.5t-47 108.5q0 74 60 117.5t163 43.5q73 0 134 -17.5t100 -50.5l-85 -107q-36 20 -71 30t-78 12h-10
q-5 0 -19 -2q-8 -5 -8 -14q0 -11 8 -14q6 -3 35 -8l55 -8q97 -12 141 -49.5t44 -109.5q-2 -79 -67.5 -125.5t-176.5 -46.5q-76 0 -134.5 18z" />
    <glyph glyph-name="Scircumflex" unicode="&#x15c;" horiz-adv-x="611" 
d="M317 790l-50 -55h-143l129 163h128l132 -163h-140zM148 17q-93 34 -132 79l125 140q38 -36 83.5 -55.5t88.5 -19.5q35 0 56 12.5t21 34.5q0 18 -14 26q-10 6 -53 14l-36 5q-116 17 -175.5 73.5t-59.5 150.5q0 101 71 157.5t192 56.5q79 0 141.5 -19.5t121.5 -63.5
l-103 -144q-35 26 -75.5 40.5t-78.5 14.5q-29 0 -44 -11t-15 -29q0 -13 5 -19.5t19 -11.5q15 -5 44 -10l36 -5q236 -29 236 -224q0 -103 -76.5 -161.5t-212.5 -58.5q-81 0 -165 28z" />
    <glyph glyph-name="scircumflex" unicode="&#x15d;" horiz-adv-x="519" 
d="M336 703l132 -163h-140l-56 55l-50 -55h-143l129 163h128zM129.5 7q-58.5 18 -118.5 61l91 111q48 -29 87 -41t86 -12q31 0 38 4q9 5 9 20q0 8 -8 13q-12 4 -39 7l-58 8q-84 10 -131 51.5t-47 108.5q0 74 60 117.5t163 43.5q73 0 134 -17.5t100 -50.5l-85 -107
q-77 42 -149 42h-15q-13 0 -17.5 -4t-4.5 -16q0 -8 5 -10q3 -3 19 -5l19 -3l55 -8q97 -12 141 -49.5t44 -109.5q-2 -79 -67.5 -125.5t-176.5 -46.5q-76 0 -134.5 18z" />
    <glyph glyph-name="Scedilla" unicode="&#x15e;" horiz-adv-x="611" 
d="M148 17q-93 34 -132 79l125 140q38 -36 83.5 -55.5t88.5 -19.5q35 0 56 12.5t21 34.5q0 18 -14 26q-10 6 -53 14l-36 5q-116 17 -175.5 73.5t-59.5 150.5q0 101 71 157.5t192 56.5q79 0 141.5 -19.5t121.5 -63.5l-103 -144q-35 26 -75.5 40.5t-78.5 14.5q-29 0 -44 -11
t-15 -29q0 -13 5 -19.5t19 -11.5q15 -5 44 -10l36 -5q236 -29 236 -224q0 -66 -35.5 -116t-101.5 -77t-152 -27q-81 0 -165 28zM375 -21q0 -49 -20 -89.5t-56 -63.5q-36 -22 -81 -21v113q21 0 31.5 16.5t10.5 44.5h115z" />
    <glyph glyph-name="scedilla" unicode="&#x15f;" horiz-adv-x="519" 
d="M393 481q62 -18 104 -50l-85 -107q-78 42 -150 42h-15q-13 0 -17.5 -4t-4.5 -16q0 -8 5 -10q3 -3 19 -5l19 -3l55 -8q97 -12 141 -49.5t44 -109.5q-2 -79 -67.5 -125.5t-176.5 -46.5q-79 0 -136.5 18t-116.5 62l92 111q44 -30 83.5 -42t88.5 -12q31 0 38 4q9 5 9 20
q0 8 -8 13q-12 4 -39 7l-58 8q-84 10 -131 51.5t-47 108.5q0 74 60 117.5t163 43.5q69 0 131 -18zM336 -21q0 -49 -20 -89.5t-56 -63.5q-36 -22 -81 -21v113q21 0 31.5 16.5t10.5 44.5h115z" />
    <glyph glyph-name="Scaron" unicode="&#x160;" horiz-adv-x="611" 
d="M510 890l-132 -160h-128l-129 160h140l53 -55l56 55h140zM148 17q-93 34 -132 79l125 140q38 -36 83.5 -55.5t88.5 -19.5q35 0 56 12.5t21 34.5q0 18 -14 26q-10 6 -53 14l-36 5q-116 17 -175.5 73.5t-59.5 150.5q0 101 71 157.5t192 56.5q79 0 141.5 -19.5t121.5 -63.5
l-103 -144q-35 26 -75.5 40.5t-78.5 14.5q-29 0 -44 -11t-15 -29q0 -13 5 -19.5t19 -11.5q15 -5 44 -10l36 -5q236 -29 236 -224q0 -103 -76.5 -161.5t-212.5 -58.5q-81 0 -165 28z" />
    <glyph glyph-name="scaron" unicode="&#x161;" horiz-adv-x="519" 
d="M263 643l56 55h140l-132 -160h-128l-129 160h140zM129.5 7q-58.5 18 -118.5 61l91 111q48 -29 87 -41t86 -12q31 0 38 4q9 5 9 20q0 8 -8 13q-12 4 -39 7l-58 8q-84 10 -131 51.5t-47 108.5q0 74 60 117.5t163 43.5q73 0 134 -17.5t100 -50.5l-85 -107q-77 42 -149 42
h-15q-13 0 -17.5 -4t-4.5 -16q0 -8 5 -10q3 -3 19 -5l19 -3l55 -8q97 -12 141 -49.5t44 -109.5q-2 -79 -67.5 -125.5t-176.5 -46.5q-76 0 -134.5 18z" />
    <glyph glyph-name="uni0162" unicode="&#x162;" horiz-adv-x="574" 
d="M388 499v-499h-205v499h-176v181h557v-181h-176zM365 -42v-124l-160 -118v242h160z" />
    <glyph glyph-name="uni0163" unicode="&#x163;" horiz-adv-x="351" 
d="M253 -6q-72 0 -114 20t-61 64q-19 39 -19 117v158h-42v135h42v172h193v-172h74v-135h-74v-148q0 -31 9 -42.5t33 -11.5h32v-157h-73zM280 -42v-124l-160 -118v242h160z" />
    <glyph glyph-name="Tcaron" unicode="&#x164;" horiz-adv-x="574" 
d="M482 890l-132 -160h-128l-129 160h140l53 -55l56 55h140zM388 499v-499h-205v499h-176v181h557v-181h-176z" />
    <glyph glyph-name="tcaron" unicode="&#x165;" horiz-adv-x="384" 
d="M453 613l-160 -118v185h160v-67zM252 660v-172h74v-135h-74v-148q0 -31 9 -42.5t33 -11.5h32v-157h-73q-72 0 -114 20t-61 64q-19 39 -19 117v158h-42v135h42v172h193z" />
    <glyph glyph-name="Tbar" unicode="&#x166;" horiz-adv-x="574" 
d="M391 276v-276h-205v276h-83v128h83v95h-176v181h557v-181h-176v-95h83v-128h-83z" />
    <glyph glyph-name="tbar" unicode="&#x167;" horiz-adv-x="351" 
d="M253 -6q-72 0 -114 20t-61 64q-19 39 -19 117v21h-32v99h32v38h-42v135h42v142h193v-142h74v-135h-74v-38h60v-99h-60v-11q0 -31 9 -42.5t33 -11.5h32v-157h-73z" />
    <glyph glyph-name="Utilde" unicode="&#x168;" horiz-adv-x="649" 
d="M305 753q-28 18 -62 18q-17 0 -41 -11t-47 -27v118q20 22 45.5 34.5t49.5 12.5q37 0 91 -23q33 -18 60 -18q56 0 93 39v-117q-16 -21 -43.5 -35t-54.5 -14q-37 0 -91 23zM249 256q0 -42 20.5 -65.5t57.5 -23.5q35 0 54 23.5t19 65.5v424h205v-408q0 -137 -72.5 -210
t-205.5 -73q-283 0 -283 283v408h205v-424z" />
    <glyph glyph-name="utilde" unicode="&#x169;" horiz-adv-x="559" 
d="M260 560q-28 18 -62 18q-17 0 -41 -11t-47 -27v118q20 22 45.5 34.5t49.5 12.5q37 0 91 -23q33 -18 60 -18q56 0 93 39v-117q-16 -21 -43.5 -35t-54.5 -14q-37 0 -91 23zM320 46q-39 -57 -123 -57q-157 0 -157 182v317h196v-288q0 -24 11.5 -39t30.5 -15q22 0 32 13.5
t10 42.5v286h196v-488h-196v46z" />
    <glyph glyph-name="Umacron" unicode="&#x16a;" horiz-adv-x="649" 
d="M496 875v-126h-343v126h343zM249 256q0 -42 20.5 -65.5t57.5 -23.5q35 0 54 23.5t19 65.5v424h205v-408q0 -137 -72.5 -210t-205.5 -73q-283 0 -283 283v408h205v-424z" />
    <glyph glyph-name="umacron" unicode="&#x16b;" horiz-adv-x="559" 
d="M451 677v-126h-343v126h343zM320 46q-39 -57 -123 -57q-157 0 -157 182v317h196v-288q0 -24 11.5 -39t30.5 -15q22 0 32 13.5t10 42.5v286h196v-488h-196v46z" />
    <glyph glyph-name="Ubreve" unicode="&#x16c;" horiz-adv-x="649" 
d="M239.5 742.5q-38.5 18.5 -60.5 51.5q-23 35 -23 73q0 17 1 19h98q14 -47 69 -47q24 0 43 12.5t26 34.5h101q2 -47 -20 -84t-62 -58q-45 -20 -88 -20q-46 0 -84.5 18.5zM44 272v408h205v-424q0 -42 20.5 -65.5t57.5 -23.5q35 0 54 23.5t19 65.5v424h205v-408
q0 -137 -72.5 -210t-205.5 -73q-283 0 -283 283z" />
    <glyph glyph-name="ubreve" unicode="&#x16d;" horiz-adv-x="559" 
d="M209 692q14 -47 69 -47q24 0 43 12.5t26 34.5h101q2 -47 -20 -84t-62 -58q-45 -20 -88 -20q-46 0 -84.5 18.5t-60.5 51.5q-23 35 -23 73q0 17 1 19h98zM320 46q-39 -57 -123 -57q-157 0 -157 182v317h196v-288q0 -24 11.5 -39t30.5 -15q22 0 32 13.5t10 42.5v286h196
v-488h-196v46z" />
    <glyph glyph-name="Uring" unicode="&#x16e;" horiz-adv-x="649" 
d="M447 820q0 -26 -10.5 -51t-26.5 -41q-35 -35 -84 -35q-25 0 -48.5 9t-42.5 26q-34 37 -34 90q0 51 34 85q18 16 42 24.5t48 8.5q52 0 85 -33q37 -34 37 -83zM364 816q0 12 1 13q-6 14 -17.5 21.5t-24.5 7.5q-14 0 -25.5 -7.5t-17.5 -21.5q3 -7 3 -12l-3 -13
q12 -30 43 -30q13 0 24.5 8t17.5 22q-1 1 -1 12zM249 256q0 -42 20.5 -65.5t57.5 -23.5q35 0 54 23.5t19 65.5v424h205v-408q0 -137 -72.5 -210t-205.5 -73q-283 0 -283 283v408h205v-424z" />
    <glyph glyph-name="uring" unicode="&#x16f;" horiz-adv-x="559" 
d="M398 638q0 -26 -10 -50t-28 -42q-34 -34 -84 -34q-24 0 -48 9t-43 25q-34 37 -34 90q0 51 34 85q18 16 41.5 24.5t48.5 8.5q52 0 85 -33q38 -35 38 -83zM318 635q0 19 -12 31t-30 12q-20 0 -32.5 -13t-12.5 -32q0 -18 12.5 -31t30.5 -13q20 0 32 15q12 12 12 31zM516 0
h-196v46q-39 -57 -123 -57q-157 0 -157 182v317h196v-288q0 -24 11.5 -39t30.5 -15q22 0 32 13.5t10 42.5v286h196v-488z" />
    <glyph glyph-name="Uhungarumlaut" unicode="&#x170;" horiz-adv-x="649" 
d="M384 884l-98 -163h-140l81 163h157zM581 884l-98 -163h-140l81 163h157zM249 256q0 -42 20.5 -65.5t57.5 -23.5q35 0 54 23.5t19 65.5v424h205v-408q0 -137 -72.5 -210t-205.5 -73q-283 0 -283 283v408h205v-424z" />
    <glyph glyph-name="uhungarumlaut" unicode="&#x171;" horiz-adv-x="559" 
d="M349 700l-98 -163h-140l81 163h157zM546 700l-98 -163h-140l81 163h157zM320 46q-39 -57 -123 -57q-157 0 -157 182v317h196v-288q0 -24 11.5 -39t30.5 -15q22 0 32 13.5t10 42.5v286h196v-488h-196v46z" />
    <glyph glyph-name="Uogonek" unicode="&#x172;" horiz-adv-x="649" 
d="M605 680v-408q0 -115 -51.5 -185.5t-149.5 -90.5q-43 -19 -43 -44q0 -13 12 -16q11 -5 38 -3l-3 -117q-95 -2 -129 8q-43 9 -61 29t-18 57q0 26 11.5 44.5t40.5 40.5q-208 34 -208 277v408h205v-424q0 -42 20.5 -65.5t57.5 -23.5q35 0 54 23.5t19 65.5v424h205z" />
    <glyph glyph-name="uogonek" unicode="&#x173;" horiz-adv-x="562" 
d="M516 488v-488l-55 -17q-15 -6 -21 -12.5t-6 -18.5q0 -13 12 -16q11 -5 38 -3l-3 -117h-31q-67 0 -104.5 9t-54.5 29q-18 21 -18 60q0 30 10 48.5t37 37.5v45q-38 -56 -123 -56q-157 0 -157 182v317h196v-288q0 -24 11.5 -39t30.5 -15q22 0 32 13.5t10 42.5v286h196z" />
    <glyph glyph-name="Wcircumflex" unicode="&#x174;" horiz-adv-x="941" 
d="M536 898l132 -163h-140l-56 55l-50 -55h-143l129 163h128zM944 680l-201 -680h-172l-98 350l-99 -350h-169l-204 680h222l81 -377l98 377h142l104 -377l75 377h221z" />
    <glyph glyph-name="wcircumflex" unicode="&#x175;" horiz-adv-x="783" 
d="M458 703l132 -163h-140l-56 55l-50 -55h-143l129 163h128zM783 488l-167 -488h-154l-67 240l-71 -240h-151l-167 488h200l58 -242l69 242h131l63 -242l56 242h200z" />
    <glyph glyph-name="Ycircumflex" unicode="&#x176;" horiz-adv-x="632" 
d="M123 735l129 163h128l132 -163h-140l-56 55l-50 -55h-143zM322 451l107 229h206l-214 -423v-257h-205v257l-214 423h210z" />
    <glyph glyph-name="ycircumflex" unicode="&#x177;" horiz-adv-x="551" 
d="M83 540l129 163h128l132 -163h-140l-56 55l-50 -55h-143zM331 -63q-26 -62 -70 -93q-43 -24 -119 -24h-50v154h37q24 0 37 8.5t17 27.5l11 26l-192 452h207l77 -223l66 223h203z" />
    <glyph glyph-name="Ydieresis" unicode="&#x178;" horiz-adv-x="632" 
d="M143 742v140h144v-140h-144zM352 742v140h144v-140h-144zM322 451l107 229h206l-214 -423v-257h-205v257l-214 423h210z" />
    <glyph glyph-name="Zacute" unicode="&#x179;" horiz-adv-x="574" 
d="M466 891l-125 -160h-156l93 160h188zM542 181v-181h-512v174l269 325h-258v181h501v-176l-272 -323h272z" />
    <glyph glyph-name="zacute" unicode="&#x17a;" horiz-adv-x="500" 
d="M430 703l-123 -160h-158l93 160h188zM263 149h203v-149h-432v143l203 196h-190v149h419v-146z" />
    <glyph glyph-name="Zdotaccent" unicode="&#x17b;" horiz-adv-x="574" 
d="M396 882v-140h-219v140h219zM542 181v-181h-512v174l269 325h-258v181h501v-176l-272 -323h272z" />
    <glyph glyph-name="zdotaccent" unicode="&#x17c;" horiz-adv-x="500" 
d="M364 677v-140h-219v140h219zM263 149h203v-149h-432v143l203 196h-190v149h419v-146z" />
    <glyph glyph-name="Zcaron" unicode="&#x17d;" horiz-adv-x="574" 
d="M287 835l56 55h140l-132 -160h-128l-129 160h140zM542 181v-181h-512v174l269 325h-258v181h501v-176l-272 -323h272z" />
    <glyph glyph-name="zcaron" unicode="&#x17e;" horiz-adv-x="500" 
d="M254 640l56 53h140l-132 -160h-128l-129 160h140zM263 149h203v-149h-432v143l203 196h-190v149h419v-146z" />
    <glyph glyph-name="florin" unicode="&#x192;" 
d="M387 291l-43 -282q-11 -71 -37 -112t-70 -59q-45 -18 -115 -18h-50v157h33q24 0 35 10.5t15 34.5l40 269h-63v142h85l9 59q17 102 67.5 145t152.5 43h52v-157h-33q-22 0 -33.5 -10t-16.5 -33l-6 -47h70v-142h-92z" />
    <glyph glyph-name="Scommaaccent" unicode="&#x218;" horiz-adv-x="611" 
d="M148 17q-93 34 -132 79l125 140q38 -36 83.5 -55.5t88.5 -19.5q35 0 56 12.5t21 34.5q0 18 -14 26q-10 6 -53 14l-36 5q-116 17 -175.5 73.5t-59.5 150.5q0 101 71 157.5t192 56.5q79 0 141.5 -19.5t121.5 -63.5l-103 -144q-35 26 -75.5 40.5t-78.5 14.5q-29 0 -44 -11
t-15 -29q0 -13 5 -19.5t19 -11.5q15 -5 44 -10l36 -5q236 -29 236 -224q0 -65 -36 -115t-101 -77q-62 -28 -152 -28q-81 0 -165 28zM392 -42v-124l-160 -118v242h160z" />
    <glyph glyph-name="scommaaccent" unicode="&#x219;" horiz-adv-x="519" 
d="M129.5 7q-58.5 18 -118.5 61l91 111q48 -29 87 -41t86 -12q31 0 38 4q9 5 9 20q0 8 -8 13q-12 4 -39 7l-58 8q-84 10 -131 51.5t-47 108.5q0 74 60 117.5t163 43.5q73 0 134 -17.5t100 -50.5l-85 -107q-77 42 -149 42h-15q-13 0 -17.5 -4t-4.5 -16q0 -8 5 -10q3 -3 19 -5
l19 -3l55 -8q97 -12 141 -49.5t44 -109.5q-2 -79 -67.5 -125.5t-176.5 -46.5q-76 0 -134.5 18zM355 -42v-124l-160 -118v242h160z" />
    <glyph glyph-name="uni021A" unicode="&#x21a;" horiz-adv-x="574" 
d="M388 499v-499h-205v499h-176v181h557v-181h-176zM368 -42v-124l-160 -118v242h160z" />
    <glyph glyph-name="uni021B" unicode="&#x21b;" horiz-adv-x="351" 
d="M253 -6q-72 0 -114 20t-61 64q-19 39 -19 117v158h-42v135h42v172h193v-172h74v-135h-74v-148q0 -31 9 -42.5t33 -11.5h32v-157h-73zM280 -42v-124l-160 -118v242h160z" />
    <glyph glyph-name="uni0237" unicode="&#x237;" horiz-adv-x="282" 
d="M-33 -180v154h26q29 0 39.5 11t10.5 43v460h196v-461q0 -104 -54.5 -155.5t-164.5 -51.5h-53z" />
    <glyph glyph-name="circumflex" unicode="&#x2c6;" horiz-adv-x="518" 
d="M324 703l132 -163h-140l-56 55l-50 -55h-143l129 163h128z" />
    <glyph glyph-name="caron" unicode="&#x2c7;" horiz-adv-x="518" 
d="M257 640l56 55h140l-132 -160h-128l-129 160h140z" />
    <glyph glyph-name="breve" unicode="&#x2d8;" horiz-adv-x="518" 
d="M190 694q14 -47 69 -47q24 0 43 12.5t26 34.5h101q2 -47 -20 -84t-62 -58q-45 -20 -88 -20q-46 0 -84.5 18.5t-60.5 51.5q-23 35 -23 73q0 17 1 19h98z" />
    <glyph glyph-name="dotaccent" unicode="&#x2d9;" horiz-adv-x="518" 
d="M368 677v-140h-219v140h219z" />
    <glyph glyph-name="ring" unicode="&#x2da;" horiz-adv-x="518" 
d="M382 638q0 -26 -10 -50t-28 -42q-34 -34 -84 -34q-24 0 -48 9t-43 25q-34 37 -34 90q0 51 34 85q18 16 41.5 24.5t48.5 8.5q52 0 85 -33q38 -35 38 -83zM302 635q0 19 -12 31t-30 12q-20 0 -32.5 -13t-12.5 -32q0 -18 12.5 -31t30.5 -13q20 0 32 15q12 12 12 31z" />
    <glyph glyph-name="ogonek" unicode="&#x2db;" horiz-adv-x="518" 
d="M317 10q-40 -20 -69 -38q-20 -14 -20 -31q0 -13 12 -16q11 -5 38 -3l-3 -118q-85 -1 -130 9q-43 10 -60.5 30t-17.5 58q0 31 16 55.5t55 53.5h179z" />
    <glyph glyph-name="tilde" unicode="&#x2dc;" horiz-adv-x="518" 
d="M240 560q-28 18 -62 18q-17 0 -41 -11t-47 -27v118q20 22 45.5 34.5t49.5 12.5q37 0 91 -23q33 -18 60 -18q56 0 93 39v-117q-16 -21 -43.5 -35t-54.5 -14q-37 0 -91 23z" />
    <glyph glyph-name="hungarumlaut" unicode="&#x2dd;" horiz-adv-x="518" 
d="M287 700l-98 -163h-140l81 163h157zM484 700l-98 -163h-140l81 163h157z" />
    <glyph glyph-name="uni0394" unicode="&#x394;" horiz-adv-x="700" 
d="M463 680l236 -680h-695l246 680h213zM354 461l-79 -288h158z" />
    <glyph glyph-name="uni03A9" unicode="&#x3a9;" horiz-adv-x="640" 
d="M38 0v160h51q-7 1 -18 20q-16 22 -25.5 64t-9.5 96q0 89 10.5 145.5t34.5 95.5q25 38 71 67q67 43 168 43q99 0 168 -43t97 -124q19 -53 19 -184q0 -157 -59 -180h57v-160h-255v151q24 7 34.5 24t13.5 53q2 86 2 130q0 72 -4 96q-4 31 -20.5 45t-52.5 14q-34 0 -50 -13.5
t-21 -48.5q-6 -34 -6 -111v-38q0 -56 3 -82q2 -25 12.5 -40t34.5 -29v-151h-255z" />
    <glyph glyph-name="uni03BC" unicode="&#x3bc;" horiz-adv-x="648" 
d="M350 24.5q-17 -15.5 -40 -18.5q-22 -4 -63 -3q-8 -5 -11 -20v-163h-196v668h196v-283q0 -56 47 -56q30 0 42.5 18.5t12.5 64.5v256h196v-298q0 -21 9.5 -30t29.5 -9v-157h-14q-54 0 -78.5 5t-44.5 20q-21 16 -54 53q-15 -32 -32 -47.5z" />
    <glyph glyph-name="pi" unicode="&#x3c0;" horiz-adv-x="629" 
d="M542 -6q-97 0 -140.5 43t-43.5 142v146h-89v-325h-193v325h-46v163h559v-163h-38v-131q0 -17 5 -32q5 -11 15 -11h6v-157h-35z" />
    <glyph glyph-name="Wgrave" unicode="&#x1e80;" horiz-adv-x="941" 
d="M462 891l92 -160h-160l-120 160h188zM944 680l-201 -680h-172l-98 350l-99 -350h-169l-204 680h222l81 -377l98 377h142l104 -377l75 377h221z" />
    <glyph glyph-name="wgrave" unicode="&#x1e81;" horiz-adv-x="783" 
d="M381 703l92 -160h-160l-120 160h188zM783 488l-167 -488h-154l-67 240l-71 -240h-151l-167 488h200l58 -242l69 242h131l63 -242l56 242h200z" />
    <glyph glyph-name="Wacute" unicode="&#x1e82;" horiz-adv-x="941" 
d="M679 891l-125 -160h-156l93 160h188zM944 680l-201 -680h-172l-98 350l-99 -350h-169l-204 680h222l81 -377l98 377h142l104 -377l75 377h221z" />
    <glyph glyph-name="wacute" unicode="&#x1e83;" horiz-adv-x="783" 
d="M594 703l-123 -160h-158l93 160h188zM783 488l-167 -488h-154l-67 240l-71 -240h-151l-167 488h200l58 -242l69 242h131l63 -242l56 242h200z" />
    <glyph glyph-name="Wdieresis" unicode="&#x1e84;" horiz-adv-x="941" 
d="M298 742v140h144v-140h-144zM507 742v140h144v-140h-144zM648 303l75 377h221l-201 -680h-172l-98 350l-99 -350h-169l-204 680h222l81 -377l98 377h142z" />
    <glyph glyph-name="wdieresis" unicode="&#x1e85;" horiz-adv-x="783" 
d="M217 537v140h144v-140h-144zM426 537v140h144v-140h-144zM527 246l56 242h200l-167 -488h-154l-67 240l-71 -240h-151l-167 488h200l58 -242l69 242h131z" />
    <glyph glyph-name="Ygrave" unicode="&#x1ef2;" horiz-adv-x="632" 
d="M325 891l92 -160h-160l-120 160h188zM322 451l107 229h206l-214 -423v-257h-205v257l-214 423h210z" />
    <glyph glyph-name="ygrave" unicode="&#x1ef3;" horiz-adv-x="551" 
d="M208 543l-120 160h188l92 -160h-160zM331 -63q-26 -62 -70 -93q-43 -24 -119 -24h-50v154h37q24 0 37 8.5t17 27.5l11 26l-192 452h208l76 -223l65 223h205z" />
    <glyph glyph-name="uni2010" unicode="&#x2010;" horiz-adv-x="406" 
d="M370 348v-168h-334v168h334z" />
    <glyph glyph-name="endash" unicode="&#x2013;" horiz-adv-x="567" 
d="M20 348h527v-165h-527v165z" />
    <glyph glyph-name="emdash" unicode="&#x2014;" horiz-adv-x="948" 
d="M20 348h908v-165h-908v165z" />
    <glyph glyph-name="quoteleft" unicode="&#x2018;" horiz-adv-x="247" 
d="M46 503v121l155 105v-226h-155z" />
    <glyph glyph-name="quoteright" unicode="&#x2019;" horiz-adv-x="247" 
d="M201 680v-151l-155 -101v252h155z" />
    <glyph glyph-name="quotesinglbase" unicode="&#x201a;" horiz-adv-x="247" 
d="M201 152v-153l-155 -100v253h155z" />
    <glyph glyph-name="quotedblleft" unicode="&#x201c;" horiz-adv-x="459" 
d="M46 472v151l155 105v-256h-155zM258 472v151l155 105v-256h-155z" />
    <glyph glyph-name="quotedblright" unicode="&#x201d;" horiz-adv-x="459" 
d="M46 428v252h155v-151zM258 428v252h155v-151z" />
    <glyph glyph-name="quotedblbase" unicode="&#x201e;" horiz-adv-x="459" 
d="M46 -102v252h155v-151zM258 -102v252h155v-151z" />
    <glyph glyph-name="dagger" unicode="&#x2020;" horiz-adv-x="574" 
d="M384 305v-485h-194v485h-160v176h160v199h194v-199h160v-176h-160z" />
    <glyph glyph-name="daggerdbl" unicode="&#x2021;" horiz-adv-x="574" 
d="M384 -20v-160h-194v160h-160v176h160v188h-160v176h160v160h194v-160h160v-176h-160v-188h160v-176h-160z" />
    <glyph glyph-name="bullet" unicode="&#x2022;" horiz-adv-x="509" 
d="M127.5 182q-46.5 46 -46.5 126q0 81 46 128t126 47q48 0 88 -21.5t64 -60.5q23 -41 23 -93q0 -79 -47 -125.5t-128 -46.5q-79 0 -125.5 46z" />
    <glyph glyph-name="ellipsis" unicode="&#x2026;" horiz-adv-x="813" 
d="M225 176v-176h-177v176h177zM496 176v-176h-177v176h177zM767 176v-176h-177v176h177z" />
    <glyph glyph-name="perthousand" unicode="&#x2030;" horiz-adv-x="1230" 
d="M306 -11h-140l407 702h140zM67 416q-11 30 -11 93t11 93q29 86 143 86t143 -86q11 -30 11 -93t-11 -93q-29 -86 -143 -86t-143 86zM221.5 426q5.5 3 7.5 8q4 7 4 75q0 66 -4 73q-4 13 -19 13q-11 0 -17 -13q-4 -7 -4 -73q0 -68 4 -75q5 -11 17 -11q6 0 11.5 3zM516 170
q0 63 11 93q35 86 141 86q114 0 143 -86q11 -42 11 -93q0 -46 -11 -90q-29 -89 -143 -89q-54 0 -88 22t-53 67q-11 30 -11 90zM864 170q0 65 13.5 102t46.5 55q37 22 92 22q111 0 140 -86q14 -48 14 -93q0 -54 -14 -90q-33 -89 -140 -89q-57 0 -93.5 22.5t-48.5 66.5
q-10 27 -10 90zM668 84q14 0 18 4t4 16v15q1 5 1 51q0 66 -4 73q-2 5 -7.5 9t-11.5 4q-7 0 -12.5 -4.5t-6.5 -10.5l-1 -22q-1 -6 -1 -49q0 -42 2 -72q2 -14 19 -14zM996 98q2 -14 20 -14q14 0 18 4t4 16v15q1 5 1 51q0 43 -1 49q0 21 -2 27q-1 3 -7.5 6.5t-12.5 3.5
q-7 0 -13 -4.5t-7 -10.5v-20q-1 -5 -1 -51q0 -48 1 -53v-19z" />
    <glyph glyph-name="guilsinglleft" unicode="&#x2039;" horiz-adv-x="327" 
d="M283 181v-181l-269 264l269 264v-181l-86 -83z" />
    <glyph glyph-name="guilsinglright" unicode="&#x203a;" horiz-adv-x="327" 
d="M51 525l272 -261l-272 -264v178l86 86l-86 83v178z" />
    <glyph glyph-name="uni203D" unicode="&#x203d;" horiz-adv-x="491" 
d="M350 665.5q51 -25.5 78 -71.5q26 -47 26 -98q0 -80 -70 -168l-56 -61v-50h-177l-30 225h149v-45l15 30q-1 -1 -3 -1q-1 0 -1 2l3 11l6 20q0 44 -13.5 60.5t-47.5 16.5q-18 0 -27.5 -7t-20.5 -28l-151 44q3 146 203 146q66 0 117 -25.5zM148 0v158h180v-158h-180z" />
    <glyph glyph-name="fraction" unicode="&#x2044;" horiz-adv-x="180" 
d="M369 691l-407 -702h-143l407 702h143z" />
    <glyph glyph-name="Euro" unicode="&#x20ac;" 
d="M181.5 28.5q-62.5 39.5 -81.5 104.5q-16 42 -16 102h-50v90h50v32h-50v90h50q0 58 16 100q19 65 81.5 104.5t146.5 39.5q81 0 135.5 -31.5t89.5 -100.5l-163 -73q-24 51 -56 51q-17 0 -31 -10.5t-16 -26.5q-3 -39 -3 -53h149l-11 -90h-138v-32h132l-14 -90h-118
q0 -41 3 -55q7 -17 19 -27t28 -10t32 14t27 37l160 -73q-64 -132 -225 -132q-84 0 -146.5 39.5z" />
    <glyph glyph-name="uni2105" unicode="&#x2105;" horiz-adv-x="878" 
d="M321 -11h-141l407 702h141zM376 435q-25 -105 -145 -105q-118 0 -157 91q-10 21 -10 99q0 53 10 72q39 94 157 94q60 0 96.5 -25.5t46.5 -75.5l-112 -34q2 14 -6 27t-17 13t-16.5 -6t-9.5 -15q-4 -4 -4 -53q0 -70 4 -77q2 -21 26 -21q13 0 19 10.5t5 36.5zM836 173
q0 -66 -14.5 -103t-50.5 -58q-41 -23 -91 -23q-52 0 -90 25.5t-51 68.5q-13 39 -13 90q0 110 63 153q39 27 91 27q54 0 98 -28.5t52 -68.5q6 -46 6 -83zM698 150v38q0 19 -3 31q2 17 -3 25.5t-15 8.5q-11 0 -16 -7.5t-5 -26.5q1 -1 1 -14v-12q-1 -2 -1 -22q0 -43 6 -63
q0 -9 7 -15.5t11 -3.5q5 0 9 6q4 4 6 19q3 11 3 36z" />
    <glyph glyph-name="uni2113" unicode="&#x2113;" horiz-adv-x="491" 
d="M29 211l99 73v165q0 118 46 180t136 62q72 0 114.5 -43.5t42.5 -118.5q0 -64 -47.5 -143.5t-128.5 -151.5v-68q0 -38 35 -38q16 0 29 6t28 21l70 -101q-30 -30 -75 -47.5t-88 -17.5q-89 0 -125.5 30.5t-36.5 106.5v11l-30 -22zM291 414q48 60 48 120q0 39 -20 39
q-14 0 -21 -19q-7 -15 -7 -67v-73z" />
    <glyph glyph-name="uni2117" unicode="&#x2117;" horiz-adv-x="781" 
d="M389 -11q-152 0 -250 98q-101 98 -101 253q0 151 101 252q102 99 250 99q151 0 253 -99q101 -101 101 -252q0 -155 -101 -253q-98 -98 -253 -98zM389 77q74 0 134 33t94 93q34 58 34 137q0 118 -72 190q-79 73 -190 73q-72 0 -131.5 -33t-93.5 -92q-34 -58 -34 -138
q0 -120 74 -188q75 -75 185 -75zM234 532h198q160 0 160 -148q0 -159 -160 -159h-50v-91h-148v398zM405 341q28 0 41 7.5t13 25.5q0 23 -13 33t-41 10h-23v-76h23z" />
    <glyph glyph-name="trademark" unicode="&#x2122;" horiz-adv-x="842" 
d="M256 574v-288h-125v288h-104v106h330v-106h-101zM794 680v-394h-111v192l-54 -138h-73l-55 138v-192h-111v394h117l87 -197l85 197h115z" />
    <glyph glyph-name="uni2126" unicode="&#x2126;" horiz-adv-x="640" 
d="M488 648q69 -43 97 -124q19 -53 19 -184q0 -157 -59 -180h57v-160h-255v151q23 7 34 23.5t14 47.5q2 66 2 97q0 85 -1 95q0 35 -3.5 53.5t-16.5 29.5q-19 16 -56 16q-34 0 -50 -13.5t-21 -48.5q-6 -34 -6 -111v-38q0 -56 3 -82q2 -25 12.5 -40t34.5 -29v-151h-255v160h51
q-7 1 -18 20q-16 22 -25.5 64t-9.5 96q0 89 10.5 145.5t34.5 95.5q25 38 71 67q67 43 168 43q99 0 168 -43z" />
    <glyph glyph-name="estimated" unicode="&#x212e;" horiz-adv-x="560" 
d="M107 64q-32 37 -49.5 83.5t-17.5 97.5q0 106 67 182q69 72 173 72q69 0 124 -32.5t86 -89.5q30 -58 30 -132h-372v-169q49 -52 132 -52q108 0 178 112l33 -21q-51 -72 -95.5 -99t-115.5 -27q-105 0 -173 75zM414 413q-58 58 -134 58q-77 0 -132 -58v-135h266v135z" />
    <glyph glyph-name="partialdiff" unicode="&#x2202;" horiz-adv-x="555" 
d="M85 47q-59 59 -59 153q0 64 26.5 113t75.5 77q48 27 112 27q61 0 102 -29q-3 75 -28.5 110.5t-78.5 35.5q-19 0 -48 -13t-49 -30l-85 121q48 42 95 60.5t105 18.5q130 0 203 -88.5t73 -247.5q0 -108 -32.5 -189.5t-94.5 -128.5q-63 -48 -154 -48q-99 0 -163 58zM306 168
q18 24 26 77q-29 23 -68 23q-26 0 -42.5 -18t-16.5 -49q0 -24 15.5 -40.5t37.5 -16.5q30 0 48 24z" />
    <glyph glyph-name="uni2206" unicode="&#x2206;" horiz-adv-x="700" 
d="M463 680l236 -680h-695l246 680h213zM354 461l-79 -288h158z" />
    <glyph glyph-name="product" unicode="&#x220f;" horiz-adv-x="670" 
d="M623 740v-920h-205v739h-166v-739h-205v920h576z" />
    <glyph glyph-name="summation" unicode="&#x2211;" horiz-adv-x="556" 
d="M536 1v-181h-516v174l165 321l-161 246v179h502v-181h-272l151 -232l-166 -326h297z" />
    <glyph glyph-name="minus" unicode="&#x2212;" 
d="M43 355h484v-158h-484v158z" />
    <glyph glyph-name="uni2215" unicode="&#x2215;" horiz-adv-x="180" 
d="M369 691l-407 -702h-143l407 702h143z" />
    <glyph glyph-name="uni2219" unicode="&#x2219;" horiz-adv-x="273" 
d="M225 353v-176h-177v176h177z" />
    <glyph glyph-name="radical" unicode="&#x221a;" horiz-adv-x="665" 
d="M674 740l-255 -920h-158l-115 238l-72 -36l-59 113l214 105l87 -187l179 687h179z" />
    <glyph glyph-name="infinity" unicode="&#x221e;" horiz-adv-x="733" 
d="M364 151q-82 -79 -169 -79q-77 0 -124.5 47.5t-47.5 126.5q0 48 23 88.5t63 63.5q41 23 88 23q78 0 169 -85q52 46 90 65.5t80 19.5q82 0 128 -45.5t46 -129.5q0 -49 -22 -88t-63 -63q-41 -23 -88 -23q-82 0 -173 79zM234 204q19 15 46 40q-26 26 -46 43q-18 12 -33 12
q-21 0 -33.5 -14.5t-12.5 -36.5q0 -25 12.5 -39.5t33.5 -14.5q20 0 33 10zM578 248q0 22 -13.5 36.5t-34.5 14.5q-10 0 -30 -11q-16 -10 -50 -40q23 -29 42 -41.5t38 -12.5q48 0 48 54z" />
    <glyph glyph-name="integral" unicode="&#x222b;" horiz-adv-x="402" 
d="M27 -173v154q28 -5 42 -5q34 0 34 52v500q0 111 49 161.5t155 50.5q47 0 68 -7v-158q-13 9 -37 9q-21 0 -29 -11.5t-8 -40.5v-500q0 -112 -48.5 -162t-157.5 -50q-37 0 -68 7z" />
    <glyph glyph-name="approxequal" unicode="&#x2248;" 
d="M301 456q34 -25 63 -25q36 0 58 58l118 -76q-21 -54 -65.5 -90.5t-90.5 -36.5q-54 0 -107 33q-34 25 -61 25q-18 0 -34.5 -15.5t-24.5 -42.5l-116 76q25 58 67.5 93.5t87.5 35.5q58 0 105 -35zM301 227q34 -25 63 -25q36 0 58 58l118 -76q-21 -54 -65.5 -90.5
t-90.5 -36.5q-54 0 -107 33q-34 25 -61 25q-18 0 -34.5 -15.5t-24.5 -42.5l-116 76q25 58 67.5 93.5t87.5 35.5q58 0 105 -35z" />
    <glyph glyph-name="notequal" unicode="&#x2260;" 
d="M325 240h202v-158h-277l-53 -104h-118l53 104h-89v158h164l37 72h-201v158h279l51 104h120l-53 -104h87v-158h-165z" />
    <glyph glyph-name="lessequal" unicode="&#x2264;" 
d="M527 341v-168l-484 174v140l484 174v-168l-236 -76zM43 156h484v-156h-484v156z" />
    <glyph glyph-name="greaterequal" unicode="&#x2265;" 
d="M527 487v-140l-484 -174v171l236 73l-236 76v168zM43 156h484v-156h-484v156z" />
    <glyph glyph-name="lozenge" unicode="&#x25ca;" horiz-adv-x="567" 
d="M546 329l-182 -381h-155l-182 381l182 381h155zM286 530l-84 -201l84 -201l82 201z" />
    <glyph glyph-name="f_i" unicode="&#xf001;" horiz-adv-x="643" 
d="M67 353h-42v135h42v13q0 68 19.5 107t60.5 56q36 16 110 16h87v-142h-41q-23 0 -32 -9q-11 -8 -11 -29v-12h81v-135h-81v-353h-193v353zM600 680v-143h-196v143h196zM600 488v-488h-196v488h196z" />
    <glyph glyph-name="f_l" unicode="&#xf002;" horiz-adv-x="691" 
d="M67 353h-42v135h42v13q0 68 19.5 107t60.5 56q36 16 110 16h87v-142h-41q-22 0 -35 -7q-8 -11 -8 -31v-12h81v-135h-81v-353h-193v353zM588 -6q-101 0 -143.5 42.5t-42.5 143.5v500h196v-479q0 -22 11.5 -36t30.5 -14h29v-157h-81z" />
    <glyph glyph-name="uniF8FF" unicode="&#xf8ff;" horiz-adv-x="552" 
d="M552 0h-552v680h552v-680zM463 595h-374v-510h374v510zM213 289q0 29 23 52l36 40q14 16 20.5 27.5t6.5 22.5q0 12 -7.5 20t-19.5 8q-13 0 -23.5 -9t-13.5 -26l-109 13q8 60 47.5 93t104.5 33q64 0 103.5 -34.5t39.5 -88.5q0 -51 -44 -98l-35 -38q-13 -16 -13 -32v-17
h-116v34zM331 114h-117v103h117v-103z" />
    <glyph glyph-name="f_f" unicode="&#xfb00;" horiz-adv-x="722" 
d="M67 353h-42v135h42v13q0 68 19.5 107t60.5 56q36 16 110 16h87v-142h-53q-8 -2 -13 0q-18 -7 -18 -38v-12h81v-135h-81v-353h-193v353zM428 353h-42v135h42v13q0 68 19.5 107t60.5 56q36 16 110 16h87v-142h-41q-23 0 -32 -9q-11 -8 -11 -29v-12h81v-135h-81v-353h-193
v353z" />
    <glyph glyph-name="fi" unicode="&#xfb01;" horiz-adv-x="643" 
d="M67 353h-42v135h42v13q0 68 19.5 107t60.5 56q36 16 110 16h87v-142h-41l-31 -1q-12 -10 -12 -37v-12h81v-135h-81v-353h-193v353zM600 680v-143h-196v143h196zM600 488v-488h-196v488h196z" />
    <glyph glyph-name="fl" unicode="&#xfb02;" horiz-adv-x="691" 
d="M67 353h-42v135h42v13q0 68 19.5 107t60.5 56q36 16 110 16h87v-142h-41q-24 0 -33.5 -8.5t-9.5 -29.5v-12h81v-135h-81v-353h-193v353zM588 -6q-101 0 -143.5 42.5t-42.5 143.5v500h196v-479q0 -22 11.5 -36t30.5 -14h29v-157h-81z" />
    <glyph glyph-name="f_f_i" unicode="&#xfb03;" horiz-adv-x="1004" 
d="M67 353h-42v135h42v13q0 68 19.5 107t60.5 56q36 16 110 16h87v-142h-41q-14 0 -17 -1l-14 -2q-12 -10 -12 -35v-12h81v-135h-81v-353h-193v353zM428 353h-42v135h42v13q0 68 19.5 107t60.5 56q36 16 110 16h87v-142h-41l-18 -2l-8 -2q-17 -1 -17 -34v-12h81v-135h-81
v-353h-193v353zM961 680v-143h-196v143h196zM961 488v-488h-196v488h196z" />
    <glyph glyph-name="f_f_l" unicode="&#xfb04;" horiz-adv-x="1052" 
d="M67 353h-42v135h42v13q0 68 19.5 107t60.5 56q36 16 110 16h87v-142h-41q-10 0 -30 -5q-13 -7 -13 -33v-12h81v-135h-81v-353h-193v353zM428 353h-42v135h42v13q0 68 19.5 107t60.5 56q36 16 110 16h87v-142h-41q-13 0 -19 3q-13 -4 -18.5 -13.5t-5.5 -27.5v-12h81v-135
h-81v-353h-193v353zM949 -6q-101 0 -143.5 42.5t-42.5 143.5v500h196v-479q0 -22 11.5 -36t30.5 -14h29v-157h-81z" />
    </font>
</defs>
</svg>
