<?xml version="1.0" standalone="no"?>
<!DOCTYPE svg PUBLIC "-//W3C//DTD SVG 1.1//EN" "http://www.w3.org/Graphics/SVG/1.1/DTD/svg11.dtd" >
<svg xmlns="http://www.w3.org/2000/svg" xmlns:xlink="http://www.w3.org/1999/xlink" version="1.1">
<metadata>
Created by FontForge 20170731 at Tue Oct 31 12:58:35 2017
 By Aleksey,,,
</metadata>
<defs>
<font id="AlJazeera-Latin-120ExtraHeavy" horiz-adv-x="574" >
  <font-face 
    font-family="Al Jazeera-Latin 120 Ex Heavy"
    font-weight="400"
    font-stretch="normal"
    units-per-em="1000"
    panose-1="0 0 10 0 0 0 0 0 0 0"
    ascent="781"
    descent="-219"
    x-height="489"
    cap-height="680"
    bbox="-185 -291 1194 948"
    underline-thickness="50"
    underline-position="-150"
    unicode-range="U+000D-FB04"
  />
<missing-glyph horiz-adv-x="564" 
d="M0 0v680h564v-680h-564zM94 590v-500h376v500h-376zM217 292q0 30 24 52l33 35q15 16 21.5 27t6.5 22t-6.5 18t-16.5 7q-12 0 -22 -8.5t-12 -23.5l-115 13q7 60 48 94.5t107 34.5t106.5 -34.5t40.5 -89.5t-47 -102l-32 -33q-13 -16 -13 -30v-16h-123v34zM218 114v107h124
v-107h-124z" />
    <glyph glyph-name=".notdef" horiz-adv-x="564" 
d="M0 0v680h564v-680h-564zM94 590v-500h376v500h-376zM217 292q0 30 24 52l33 35q15 16 21.5 27t6.5 22t-6.5 18t-16.5 7q-12 0 -22 -8.5t-12 -23.5l-115 13q7 60 48 94.5t107 34.5t106.5 -34.5t40.5 -89.5t-47 -102l-32 -33q-13 -16 -13 -30v-16h-123v34zM218 114v107h124
v-107h-124z" />
    <glyph glyph-name=".null" horiz-adv-x="0" 
 />
    <glyph glyph-name="nonmarkingreturn" horiz-adv-x="333" 
 />
    <glyph glyph-name="NULL" horiz-adv-x="500" 
 />
    <glyph glyph-name="NULL" horiz-adv-x="500" 
 />
    <glyph glyph-name="CR.001" unicode="&#xd;" horiz-adv-x="1166" 
 />
    <glyph glyph-name="space" unicode=" " horiz-adv-x="236" 
 />
    <glyph glyph-name="exclam" unicode="!" horiz-adv-x="325" 
d="M239 222h-155l-31 458h217zM69 0v164h190v-164h-190z" />
    <glyph glyph-name="quotedbl" unicode="&#x22;" horiz-adv-x="447" 
d="M195 432h-144v248h144v-248zM396 432h-141v248h141v-248z" />
    <glyph glyph-name="numbersign" unicode="#" horiz-adv-x="633" 
d="M401 680h174l-23 -152h68v-152h-92l-9 -67h75v-151h-93l-21 -158h-174l21 158h-74l-21 -158h-174l21 158h-66v151h84l9 67h-67v152h91l23 152h174l-23 -152h74zM345 309l9 67h-74l-9 -67h74z" />
    <glyph glyph-name="dollar" unicode="$" 
d="M516.5 110q-27.5 -47 -75.5 -77q-49 -30 -97 -40v-89h-84v86q-126 8 -223 85l119 143q79 -49 146 -49q37 0 55 9t18 30q0 20 -15 24q-16 5 -58 10q-126 14 -184.5 70t-58.5 164q0 54 28 99t77 75q48 27 96 37v89h84v-87q104 -8 182 -65l-103 -143q-29 15 -61 23t-60 8
q-34 0 -50.5 -8t-16.5 -27q0 -18 19 -22q16 -6 50 -8q126 -10 183 -66t57 -170q0 -54 -27.5 -101z" />
    <glyph glyph-name="percent" unicode="%" horiz-adv-x="894" 
d="M170 -11l407 702h149l-407 -702h-149zM118.5 352q-37.5 22 -51.5 65q-12 27 -12 92q0 67 12 92q29 87 146 87q119 0 147 -87q11 -28 11 -92q0 -61 -11 -92q-30 -87 -147 -87q-57 0 -94.5 22zM225 428.5q3 1.5 5 6.5q2 14 2 32v47q0 57 -4 66q-4 12 -15 12q-10 0 -13 -8
q-4 -8 -4 -28l1 -47l-1 -35q0 -27 5 -39q5 -8 14 -8q7 0 10 1.5zM586.5 12q-37.5 22 -51.5 65q-12 27 -12 92q0 67 12 92q29 87 146 87q119 0 147 -87q11 -28 11 -92q0 -61 -11 -92q-30 -87 -147 -87q-57 0 -94.5 22zM693 88.5q3 1.5 5 6.5q2 14 2 32v47q0 57 -4 66
q-4 12 -15 12q-10 0 -13 -8q-4 -8 -4 -28l1 -47l-1 -35q0 -27 5 -39q5 -8 14 -8q7 0 10 1.5z" />
    <glyph glyph-name="ampersand" unicode="&#x26;" horiz-adv-x="653" 
d="M540 171q18 -18 34 -18h25v-153h-75q-44 0 -71 11t-49 39l8 -11q-77 -50 -167 -50q-63 0 -111.5 23.5t-74.5 66.5q-27 42 -27 96l-2 16l-2 17q0 72 122 168q-28 37 -42 65l-15 31l-4 22q-4 12 -4 24q0 51 29 91t80 62q49 20 98 20q57 0 104 -21t74 -60q27 -40 27 -93
q0 -55 -38 -99q-18 -25 -66 -64l46 -56l67 68l117 -92l-86 -101zM300 484q21 21 21 34q0 39 -28 39q-14 0 -18.5 -7.5t-4.5 -28.5q0 -7 23 -42q1 0 3 2zM307 457l3 -4q2 0 -12 17zM300 167q11 5 15 0l-64 84q-31 -31 -31 -53q0 -42 40 -42q9 0 28 6z" />
    <glyph glyph-name="quotesingle" unicode="'" horiz-adv-x="245" 
d="M51 680h144v-248h-144v248z" />
    <glyph glyph-name="parenleft" unicode="(" horiz-adv-x="356" 
d="M193 -84q-80 104 -111 195.5t-31 216.5q0 112 34 212.5t105 199.5h143q-43 -112 -63.5 -210.5t-20.5 -201.5q0 -111 20.5 -207.5t67.5 -204.5h-144z" />
    <glyph glyph-name="parenright" unicode=")" horiz-adv-x="356" 
d="M25 -84q46 108 66.5 206t20.5 206q0 111 -20.5 209t-66.5 203h147q74 -105 106 -201t32 -211q0 -122 -32 -219t-106 -193h-147z" />
    <glyph glyph-name="asterisk" unicode="*" horiz-adv-x="447" 
d="M281 329h-105l1 88l-75 -44l-52 91l75 41l-75 44l52 91l75 -47l-1 87h105l-4 -87l75 43l52 -87l-75 -44l79 -41l-56 -91l-75 44z" />
    <glyph glyph-name="plus" unicode="+" 
d="M374 29h-174v163h-159v168h159v163h174v-163h159v-168h-159v-163z" />
    <glyph glyph-name="comma" unicode="," horiz-adv-x="271" 
d="M45 185h181v-168l-181 -148v316z" />
    <glyph glyph-name="hyphen" unicode="-" horiz-adv-x="410" 
d="M375 174h-340v180h340v-180z" />
    <glyph glyph-name="period" unicode="." horiz-adv-x="277" 
d="M232 0h-187v185h187v-185z" />
    <glyph glyph-name="slash" unicode="/" horiz-adv-x="464" 
d="M233 -11h-210l210 702h214z" />
    <glyph glyph-name="zero" unicode="0" 
d="M36 340q0 149 17 197q22 67 87 110.5t148 43.5q84 0 148 -42.5t85 -111.5q17 -48 17 -197q0 -148 -17 -197q-21 -68 -85 -111t-148 -43q-83 0 -148 43.5t-87 110.5q-17 49 -17 197zM288 152q27 0 32 26q5 35 5 162q0 129 -5 162q-2 14 -9.5 20t-22.5 6q-29 0 -34 -26
q-5 -33 -5 -162q0 -127 5 -162q5 -26 34 -26z" />
    <glyph glyph-name="one" unicode="1" 
d="M440 0h-210v463l-131 -85v202l141 100h200v-680z" />
    <glyph glyph-name="two" unicode="2" 
d="M461 634q64 -60 64 -147q0 -44 -20 -88t-61 -92l-135 -140h216v-167h-479v159l242 252q16 14 23 30.5t7 38.5q0 23 -9.5 35.5t-24.5 12.5q-27 0 -39 -18t-12 -59l-183 18q-4 62 27.5 112.5t91.5 80.5q60 29 125 29q100 0 167 -57z" />
    <glyph glyph-name="three" unicode="3" 
d="M465 640q63 -51 63 -137q0 -91 -78 -138q89 -44 89 -166q0 -60 -30.5 -107.5t-86.5 -74.5q-55 -28 -128 -28q-120 0 -181 46t-70 149l187 25q6 -33 18.5 -45t38.5 -12q19 0 31.5 16t12.5 40q0 30 -13.5 44t-41.5 14h-39v162h37q22 0 34.5 13t12.5 37q0 50 -42 50
q-19 0 -30 -14t-12 -40l-191 27q13 93 76 141.5t171 48.5q109 0 172 -51z" />
    <glyph glyph-name="four" unicode="4" horiz-adv-x="446" 
d="M305 87h-276v187l167 406h232l-183 -420h60v106h196v-106h48v-173h-48v-87h-196v87z" />
    <glyph glyph-name="five" unicode="5" 
d="M230 196q6 -20 19 -32t26 -12q28 0 36 15t8 57q0 38 -8.5 54.5t-34.5 16.5q-12 0 -20.5 -6t-19.5 -23h-182v414h445v-166h-272v-98q21 23 46 32.5t64 9.5q75 0 114.5 -25.5t60.5 -89.5q11 -41 11 -116q0 -46 -17 -103q-46 -135 -224 -135q-225 0 -232 184z" />
    <glyph glyph-name="six" unicode="6" 
d="M93 411l139 269h222l-134 -254q2 1 12 1q3 -1 12 -1q82 0 138 -62q59 -54 59 -153q0 -65 -32 -115.5t-90 -78.5q-57 -28 -133 -28q-58 0 -103 15t-81 48q-72 66 -72 161q0 74 63 198zM325.5 256q-15.5 18 -39.5 18q-26 0 -42 -18t-16 -45t16 -43t42 -16q24 0 39.5 16
t15.5 43t-15.5 45z" />
    <glyph glyph-name="seven" unicode="7" 
d="M337 0h-223l206 503h-85v-69h-193v246h492v-178z" />
    <glyph glyph-name="eight" unicode="8" 
d="M35.5 262q4.5 21 18.5 44q17 24 46 48q-25 24 -39.5 57.5t-14.5 71.5q0 58 30 105.5t84 75.5q54 27 128 27q71 0 126 -27t85 -75q29 -49 29 -106q0 -82 -60 -129q43 -28 59 -62t16 -88q0 -98 -72 -155q-70 -60 -183 -60q-73 0 -131.5 26.5t-91.5 75.5q-34 47 -34 113
q0 37 4.5 58zM319 446q15 14 15 32q0 21 -13 35.5t-33 14.5q-23 0 -35.5 -14t-12.5 -36q0 -19 14.5 -32.5t33.5 -13.5q16 0 31 14zM248 171q19 -19 40 -19t39 19t18 41q0 24 -16.5 40.5t-40.5 16.5t-41.5 -16.5t-17.5 -40.5q0 -22 19 -41z" />
    <glyph glyph-name="nine" unicode="9" 
d="M254 255q-5 -1 -24 -1q-79 0 -141 59q-28 30 -42 70t-14 86q0 50 17.5 88.5t53.5 69.5q73 64 184 64q58 0 103 -15t81 -48q72 -66 72 -161q0 -73 -63 -198l-141 -269h-220zM246.5 424.5q15.5 -17.5 41.5 -17.5q25 0 41.5 17.5t16.5 44.5t-16.5 43t-41.5 16
q-26 0 -41.5 -16t-15.5 -43t15.5 -44.5z" />
    <glyph glyph-name="colon" unicode=":" horiz-adv-x="295" 
d="M243 308h-190v181h190v-181zM53 0v185h190v-185h-190z" />
    <glyph glyph-name="semicolon" unicode=";" horiz-adv-x="295" 
d="M243 308h-190v181h190v-181zM59 -122v307h181v-171z" />
    <glyph glyph-name="less" unicode="&#x3c;" 
d="M533 29l-492 173v149l492 173v-178l-226 -70l226 -69v-178z" />
    <glyph glyph-name="equal" unicode="=" 
d="M533 310h-492v168h492v-168zM533 75h-492v168h492v-168z" />
    <glyph glyph-name="greater" unicode="&#x3e;" 
d="M533 202l-492 -173v181l226 66l-226 70v178l492 -173v-149z" />
    <glyph glyph-name="question" unicode="?" horiz-adv-x="496" 
d="M362 664q54 -27 85 -73t31 -95q0 -45 -28 -93t-92 -107q-20 -23 -20 -53v-21h-193v54q0 46 36 82l48 48q48 48 48 75q0 20 -9.5 32t-26.5 12q-21 0 -32.5 -13t-19.5 -48l-179 24q10 98 71.5 150.5t163.5 52.5q63 0 117 -27zM148 164h190v-164h-190v164z" />
    <glyph glyph-name="at" unicode="@" horiz-adv-x="935" 
d="M777 575q122 -116 122 -307q0 -57 -22 -105t-66 -78q-46 -34 -123 -34q-53 0 -90 17t-62 51q-43 -67 -137 -67q-66 0 -102 29.5t-46 78.5q-9 44 -9 108q0 72 17 125q25 91 122 91q42 0 65.5 -10.5t41.5 -37.5v37h167v-242q0 -21 11 -33.5t29 -12.5q21 0 33 20.5t12 59.5
q0 140 -76 213q-70 79 -207 79q-128 0 -208 -81q-36 -39 -55.5 -94.5t-19.5 -123.5q0 -62 19.5 -115.5t55.5 -92.5q81 -78 208 -78q52 0 105 15t91 42l84 -105q-73 -50 -136.5 -70t-143.5 -20q-198 0 -317 117q-124 114 -124 307q0 131 54 229t154 152q100 53 233 53
q203 0 320 -117zM415 324q-4 -17 -4 -56q0 -40 4 -57q9 -24 33 -24q29 0 36 24q2 2 3 18q1 7 1 39q0 49 -4 56q-7 24 -36 24q-24 0 -33 -24z" />
    <glyph glyph-name="A" unicode="A" horiz-adv-x="712" 
d="M243 0h-240l241 680h234l239 -680h-233l-27 97h-193zM360 452l-43 -180h90z" />
    <glyph glyph-name="B" unicode="B" horiz-adv-x="618" 
d="M40 680h305q111 0 170.5 -47t59.5 -134q0 -104 -82 -149q23 -6 44.5 -29t35.5 -57q14 -37 14 -71q0 -94 -62.5 -143.5t-178.5 -49.5h-306v680zM290 415q38 0 53.5 12.5t15.5 44.5q0 52 -69 52h-30v-109h30zM303 157q35 0 49.5 14t14.5 46t-15.5 47t-48.5 15h-43v-122h43z
" />
    <glyph glyph-name="C" unicode="C" horiz-adv-x="610" 
d="M143.5 32q-66.5 43 -94.5 124q-22 53 -22 184q0 133 22 184q28 81 94.5 124t162.5 43q72 0 130 -27.5t96 -80.5q39 -54 47 -138h-221q-2 30 -14 43t-39 13q-19 0 -32 -9.5t-16 -27.5q-8 -40 -8 -124q0 -83 8 -123q6 -38 48 -38q48 0 55 55l219 1q-17 -124 -87 -185
t-186 -61q-96 0 -162.5 43z" />
    <glyph glyph-name="D" unicode="D" horiz-adv-x="643" 
d="M40 680h288q119 0 182.5 -44.5t79.5 -119.5q14 -72 14 -176q0 -80 -6 -130t-25 -90t-58 -71q-59 -49 -187 -49h-288v680zM283 194q80 0 88 47q9 35 9 99q0 68 -9 99q-7 48 -88 48h-23v-293h23z" />
    <glyph glyph-name="E" unicode="E" horiz-adv-x="553" 
d="M521 0h-481v680h481v-179h-261v-70h212v-176h-212v-75h261v-180z" />
    <glyph glyph-name="F" unicode="F" horiz-adv-x="547" 
d="M260 0h-220v680h481v-179h-261v-80h212v-176h-212v-245z" />
    <glyph glyph-name="G" unicode="G" horiz-adv-x="631" 
d="M144.5 32.5q-69.5 43.5 -95.5 124.5q-22 66 -22 183q0 125 26.5 196t92.5 112q70 43 170 43q122 0 197 -62t86 -184h-221q-6 56 -62 56q-27 0 -44 -15t-19 -41q-4 -47 -4 -105q0 -52 8 -121q3 -21 16.5 -30.5t42.5 -9.5q22 0 37 8.5t19 24.5q5 15 5 20h-50v156h277v-58
q0 -109 -26.5 -181t-89.5 -113q-74 -47 -172 -47q-102 0 -171.5 43.5z" />
    <glyph glyph-name="H" unicode="H" horiz-adv-x="661" 
d="M260 0h-220v680h220v-238h141v238h220v-680h-220v248h-141v-248z" />
    <glyph glyph-name="I" unicode="I" horiz-adv-x="300" 
d="M260 0h-220v680h220v-680z" />
    <glyph glyph-name="J" unicode="J" horiz-adv-x="556" 
d="M100 19.5q-63 30.5 -87 80.5l152 120q29 -41 70 -41q30 0 48.5 21.5t18.5 56.5v423h220v-398q0 -148 -70 -220.5t-211 -72.5q-78 0 -141 30.5z" />
    <glyph glyph-name="K" unicode="K" horiz-adv-x="675" 
d="M260 0h-220v680h220v-239l157 239h245l-201 -281l206 -399h-258l-98 228l-51 -77v-151z" />
    <glyph glyph-name="L" unicode="L" horiz-adv-x="563" 
d="M546 0h-506v680h220v-486h286v-194z" />
    <glyph glyph-name="M" unicode="M" horiz-adv-x="781" 
d="M238 0h-198v680h214l140 -328l138 328h209v-680h-198v320l-91 -227h-123l-91 227v-320z" />
    <glyph glyph-name="N" unicode="N" horiz-adv-x="650" 
d="M238 0h-198v680h211l161 -349v349h198v-680h-210l-162 349v-349z" />
    <glyph glyph-name="O" unicode="O" horiz-adv-x="631" 
d="M146.5 33q-71.5 44 -97.5 124q-22 66 -22 183q0 126 27 197t94 111q70 43 169 43q97 0 168 -44.5t97 -122.5q22 -66 22 -184q0 -126 -26 -196.5t-93 -110.5q-74 -44 -168 -44q-99 0 -170.5 44zM374 219q8 46 8 121t-8 121q-9 40 -57 40q-31 0 -45.5 -15t-18.5 -42.5
t-4 -80.5q0 -112 8 -144q5 -20 19.5 -30t40.5 -10q47 0 57 40z" />
    <glyph glyph-name="P" unicode="P" horiz-adv-x="623" 
d="M40 680h297q132 0 200.5 -61t68.5 -178q0 -113 -70 -173t-199 -60h-77v-208h-220v680zM323 385q31 0 47.5 14.5t16.5 41.5q0 29 -16.5 44.5t-47.5 15.5h-63v-116h63z" />
    <glyph glyph-name="Q" unicode="Q" horiz-adv-x="631" 
d="M501 -70l-68 78q-48 -19 -116 -19q-99 0 -170.5 44t-97.5 124q-22 66 -22 183q0 126 27 197t94 111q70 43 169 43q97 0 168 -44.5t97 -122.5q22 -66 22 -184q0 -117 -22 -183q-7 -21 -10 -27l71 -76zM317 179q51 0 57 40q8 34 8 121q0 89 -8 121q-6 40 -57 40
q-54 0 -60 -40q-8 -32 -8 -121q0 -87 8 -121q6 -40 60 -40z" />
    <glyph glyph-name="R" unicode="R" horiz-adv-x="637" 
d="M40 680h301q124 0 195 -60t71 -171q0 -131 -101 -194l115 -255h-240l-89 219h-32v-219h-220v680zM323 392q62 0 62 57q0 24 -16.5 38t-45.5 14h-63v-109h63z" />
    <glyph glyph-name="S" unicode="S" horiz-adv-x="615" 
d="M147 18q-98 35 -134 80l133 149q38 -36 82 -55.5t87 -19.5q31 0 49.5 10.5t18.5 28.5q0 15 -10 19q-11 5 -47 12l-36 5q-240 35 -240 229q0 103 72.5 159t195.5 56q82 0 145.5 -19.5t123.5 -64.5l-110 -153q-36 26 -75.5 40t-75.5 14q-24 0 -37.5 -8.5t-13.5 -22.5
q0 -12 2.5 -16t14.5 -8t41 -9l36 -5q120 -14 181 -71.5t61 -156.5q0 -66 -37.5 -116.5t-104.5 -77.5q-65 -28 -153 -28q-70 0 -169 29z" />
    <glyph glyph-name="T" unicode="T" horiz-adv-x="575" 
d="M397 0h-219v487h-173v193h565v-193h-173v-487z" />
    <glyph glyph-name="U" unicode="U" horiz-adv-x="650" 
d="M112 60.5q-72 71.5 -72 217.5v402h219v-421q0 -38 18 -59t51 -21q31 0 47 21t16 59v421h220v-402q0 -141 -73 -215t-210 -74q-144 0 -216 71.5z" />
    <glyph glyph-name="V" unicode="V" horiz-adv-x="670" 
d="M451 0h-223l-236 680h241l106 -371l111 371h230z" />
    <glyph glyph-name="W" unicode="W" horiz-adv-x="960" 
d="M760 0h-185l-92 329l-93 -329h-182l-210 680h241l76 -361l92 361h151l99 -361l70 361h239z" />
    <glyph glyph-name="X" unicode="X" horiz-adv-x="653" 
d="M644 0h-238l-92 163l-89 -163h-237l208 349l-197 331h235l84 -144l77 144h237l-199 -331z" />
    <glyph glyph-name="Y" unicode="Y" horiz-adv-x="648" 
d="M436 0h-219v254l-216 426h224l105 -221l102 221h220l-216 -426v-254z" />
    <glyph glyph-name="Z" unicode="Z" horiz-adv-x="581" 
d="M551 0h-523v186l262 301h-251v193h512v-188l-265 -298h265v-194z" />
    <glyph glyph-name="bracketleft" unicode="[" horiz-adv-x="357" 
d="M337 -84h-268v824h268v-149h-91v-526h91v-149z" />
    <glyph glyph-name="backslash" unicode="\" horiz-adv-x="464" 
d="M447 -11h-214l-210 702h210z" />
    <glyph glyph-name="bracketright" unicode="]" horiz-adv-x="357" 
d="M21 740h267v-824h-267v149h91v526h-91v149z" />
    <glyph glyph-name="asciicircum" unicode="^" 
d="M541 228h-198l-57 209l-60 -209h-197l174 452h166z" />
    <glyph glyph-name="underscore" unicode="_" horiz-adv-x="590" 
d="M590 -49v-143h-590v143h590z" />
    <glyph glyph-name="grave" unicode="`" horiz-adv-x="534" 
d="M413 541h-175l-118 163l200 3z" />
    <glyph glyph-name="a" unicode="a" horiz-adv-x="541" 
d="M305 36q-21 -23 -54 -35t-73 -12q-72 0 -115 40.5t-43 110.5q0 75 60.5 119t160.5 44h62v12q0 18 -15 25q-16 6 -64 6q-30 0 -60.5 -8.5t-48.5 -21.5l-75 129q33 26 89.5 40.5t123.5 14.5q92 0 146.5 -20t79.5 -62q24 -42 24 -110v-308h-198v36zM303 159v29h-44
q-21 0 -30 -7t-9 -23q0 -15 8 -22t27 -7q48 0 48 30z" />
    <glyph glyph-name="b" unicode="b" horiz-adv-x="587" 
d="M261 446q15 26 47 40t78 14q119 0 157 -116q17 -62 17 -139t-17 -140q-38 -116 -157 -116q-95 0 -125 58v-47h-210v680h210v-234zM279 331q-8 -6 -12 -21q-6 -28 -6 -65t6 -66q8 -27 34 -27q18 0 27 6t13 21q7 22 7 66t-7 65q-4 15 -13 21t-27 6q-14 0 -22 -6z" />
    <glyph glyph-name="c" unicode="c" horiz-adv-x="548" 
d="M53 353q21 72 81 109.5t153 37.5q78 0 142 -39t87 -100l-171 -74q-6 24 -19.5 37t-31.5 13q-32 0 -37 -24q-7 -14 -7 -68q0 -51 7 -66q5 -27 37 -27q34 0 51 53l171 -72q-27 -64 -90.5 -104t-138.5 -40q-93 0 -153 37.5t-81 109.5q-15 41 -15 109q0 69 15 108z" />
    <glyph glyph-name="d" unicode="d" horiz-adv-x="575" 
d="M318 47q-34 -58 -125 -58q-119 0 -157 116q-17 63 -17 140t17 139q38 116 157 116q89 0 125 -58v238h210v-680h-210v47zM310 176q8 24 8 69q0 37 -6 65q-4 15 -12 21t-22 6q-18 0 -27 -6t-13 -21q-7 -21 -7 -65t7 -66q4 -15 13 -21t27 -6q24 0 32 24z" />
    <glyph glyph-name="e" unicode="e" horiz-adv-x="559" 
d="M131 26.5q-63 37.5 -87 110.5q-17 53 -17 108q0 69 16 108q23 71 84 109t152 38q90 0 151.5 -37.5t84.5 -105.5q17 -62 17 -132q0 -31 -1 -37h-303q4 -13 7 -16q9 -18 27.5 -26t52.5 -8q52 0 110 40l101 -103q-54 -45 -110.5 -65.5t-124.5 -20.5q-97 0 -160 37.5z
M331 303q0 22 -4 34t-13 19q-10 7 -34 7q-39 0 -46 -31q-3 -12 -3 -29h100z" />
    <glyph glyph-name="f" unicode="f" horiz-adv-x="374" 
d="M57 346h-41v143h41v9q0 71 20 110.5t62 55.5q38 16 113 16h93v-149h-41q-23 0 -31.5 -8t-8.5 -26v-8h77v-143h-77v-346h-207v346z" />
    <glyph glyph-name="g" unicode="g" horiz-adv-x="579" 
d="M132 -170q-55 21 -89 61l115 123q48 -42 95 -42q70 0 70 87v36q-30 -61 -123 -61q-66 0 -102 27t-55 90q-16 55 -16 116q0 96 34 164.5t139 68.5q46 0 78 -14t45 -41v44h210v-382q0 -108 -29.5 -173.5t-90.5 -94.5q-61 -30 -161 -30q-65 0 -120 21zM306 206q9 6 13 21
q4 13 4 40q0 36 -9 53t-32 17q-32 0 -40 -30l-2 -22q-2 -43 2 -59q6 -26 40 -26q15 0 24 6z" />
    <glyph glyph-name="h" unicode="h" horiz-adv-x="588" 
d="M332 288q0 24 -8.5 35t-26.5 11q-36 0 -36 -46v-288h-210v680h210v-233q25 28 53.5 40.5t67.5 12.5q82 0 121 -45t39 -137v-318h-210v288z" />
    <glyph glyph-name="i" unicode="i" horiz-adv-x="289" 
d="M261 531h-210v149h210v-149zM261 0h-210v489h210v-489z" />
    <glyph glyph-name="j" unicode="j" horiz-adv-x="347" 
d="M300 531h-210v149h210v-149zM16 -17h25q29 0 39 10.5t10 43.5v452h210v-454q0 -109 -56.5 -162t-171.5 -53h-56v163z" />
    <glyph glyph-name="k" unicode="k" horiz-adv-x="568" 
d="M573 0h-224l-76 188l-12 -30v-158h-210v680h210v-314l79 123h220l-145 -168z" />
    <glyph glyph-name="l" unicode="l" horiz-adv-x="351" 
d="M246 -6q-72 0 -113.5 19.5t-61.5 61.5q-20 45 -20 113v492h210v-468q0 -22 11.5 -36.5t30.5 -14.5h28v-167h-85z" />
    <glyph glyph-name="m" unicode="m" horiz-adv-x="869" 
d="M613 288q0 46 -39 46q-32 0 -32 -46v-288h-210v288q0 24 -8.5 35t-26.5 11q-36 0 -36 -46v-288h-210v489h210v-42q25 28 53.5 40.5t67.5 12.5q46 0 73.5 -12t48.5 -42q57 54 151 54q87 0 127.5 -44.5t40.5 -137.5v-318h-210v288z" />
    <glyph glyph-name="n" unicode="n" horiz-adv-x="588" 
d="M51 489h210v-42q43 53 121 53q82 0 121 -45t39 -137v-318h-210v288q0 24 -8.5 35t-26.5 11q-36 0 -36 -46v-288h-210v489z" />
    <glyph glyph-name="o" unicode="o" horiz-adv-x="564" 
d="M128.5 26.5q-62.5 37.5 -85.5 106.5q-16 49 -16 112q0 159 102 218q61 37 152 37q93 0 155 -37t85 -106q16 -51 16 -112q0 -256 -256 -256q-90 0 -152.5 37.5zM306.5 158q8.5 6 11.5 19q7 29 7 68q0 47 -7 68q-4 13 -12 18.5t-25 5.5q-18 0 -25.5 -5t-9.5 -19
q-7 -29 -7 -68q0 -46 7 -68q3 -14 11 -19.5t24 -5.5q17 0 25.5 6z" />
    <glyph glyph-name="p" unicode="p" horiz-adv-x="587" 
d="M51 489h210v-43q29 54 125 54q119 0 157 -116q17 -62 17 -139t-17 -140q-38 -116 -157 -116q-97 0 -125 55v-224h-210v669zM328 158q9 6 13 21q7 22 7 66t-7 65q-4 15 -13 21t-27 6q-14 0 -22 -6t-12 -21q-6 -28 -6 -65t6 -66q8 -27 34 -27q18 0 27 6z" />
    <glyph glyph-name="q" unicode="q" horiz-adv-x="583" 
d="M326 42q-35 -53 -125 -53q-119 0 -157 116q-17 63 -17 140t17 139q38 116 157 116q91 0 125 -54v43h210v-669h-210v222zM318 176q8 24 8 69q0 37 -6 65q-4 15 -12 21t-22 6q-18 0 -27 -6t-13 -21q-7 -21 -7 -65t7 -66q4 -15 13 -21t27 -6q24 0 32 24z" />
    <glyph glyph-name="r" unicode="r" horiz-adv-x="446" 
d="M51 489h210v-53q18 34 49 49t80 15q13 0 27 -3l26 -2l-65 -210q-29 17 -43 23t-25 6l-14 -1q-35 -11 -35 -63v-250h-210v489z" />
    <glyph glyph-name="s" unicode="s" horiz-adv-x="576" 
d="M414 481.5q65 -18.5 106 -50.5l-90 -112q-44 21 -80.5 31.5t-71.5 10.5l-22 1q-5 0 -7 -3t-2 -13q0 -6 2.5 -7.5t12.5 -2.5l78 -11q101 -12 146 -50t45 -112q-3 -80 -70 -127t-181 -47q-78 0 -137.5 18t-122.5 61l96 118q49 -32 89 -42.5t103 -10.5q15 0 19.5 3.5
t4.5 15.5q0 7 -4 8q-15 5 -28 5q-7 0 -10 1l-59 9q-87 10 -135 52.5t-48 110.5q0 74 62 118t167 44q72 0 137 -18.5z" />
    <glyph glyph-name="t" unicode="t" horiz-adv-x="389" 
d="M261 -6q-76 0 -120.5 21t-63.5 67q-20 49 -20 123v141h-41v143h41v176h207v-176h73v-143h-73v-130q0 -32 8.5 -43.5t32.5 -11.5h32v-167h-76z" />
    <glyph glyph-name="u" unicode="u" horiz-adv-x="585" 
d="M329 45q-20 -29 -50 -42.5t-73 -13.5q-79 0 -117 45.5t-38 137.5v317h210v-288q0 -19 9.5 -32t24.5 -13q18 0 26 11t8 37v285h210v-489h-210v45z" />
    <glyph glyph-name="v" unicode="v" 
d="M384 0h-198l-183 489h219l69 -235l59 235h217z" />
    <glyph glyph-name="w" unicode="w" horiz-adv-x="818" 
d="M643 0h-163l-62 227l-67 -227h-159l-169 489h214l52 -227l64 227h138l56 -227l50 227h214z" />
    <glyph glyph-name="x" unicode="x" horiz-adv-x="601" 
d="M617 0h-229l-55 102l-58 -102h-226l170 254l-158 235h230l42 -81l43 81h229l-158 -235z" />
    <glyph glyph-name="y" unicode="y" horiz-adv-x="580" 
d="M97 -180v163h39q23 0 35 7.5t16 25.5l10 23l-194 450h223l70 -205l58 205h219l-231 -558q-23 -58 -70 -89q-43 -22 -123 -22h-52z" />
    <glyph glyph-name="z" unicode="z" horiz-adv-x="538" 
d="M491 158v-158h-440v152l195 180h-182v157h427v-154l-195 -177h195z" />
    <glyph glyph-name="braceleft" unicode="{" horiz-adv-x="385" 
d="M262 -84q-70 0 -106.5 33t-36.5 98v115q0 47 -18 67t-64 24v152q82 0 82 91v114q0 65 36.5 97.5t106.5 32.5h100v-149h-31q-39 0 -39 -45v-85q0 -55 -19 -85t-64 -48q83 -29 83 -135v-82q0 -46 39 -46h31v-149h-100z" />
    <glyph glyph-name="bar" unicode="|" horiz-adv-x="348" 
d="M267 -84h-186v824h186v-824z" />
    <glyph glyph-name="braceright" unicode="}" horiz-adv-x="385" 
d="M123 740q70 0 106.5 -32.5t36.5 -97.5v-114q0 -47 17.5 -69t64.5 -22v-152q-83 0 -83 -70l1 -21v-115q0 -65 -36.5 -98t-106.5 -33h-102v149h30q42 0 42 46v82q0 53 19 85t62 51q-33 15 -49 29.5t-24 38.5q-8 26 -8 64v85q0 45 -42 45h-30v149h102z" />
    <glyph glyph-name="asciitilde" unicode="~" 
d="M40 250q27 62 68.5 97.5t88.5 35.5q61 0 105 -35q34 -25 62 -25q33 0 55 58l126 -82q-22 -55 -67 -92.5t-90 -37.5q-55 0 -108 33q-34 25 -60 25q-18 0 -34 -16t-23 -42z" />
    <glyph glyph-name="uni00A0" unicode="&#xa0;" horiz-adv-x="236" 
 />
    <glyph glyph-name="exclamdown" unicode="&#xa1;" horiz-adv-x="325" 
d="M256 489v-164h-190v164h190zM83 268h156l27 -459h-210z" />
    <glyph glyph-name="cent" unicode="&#xa2;" 
d="M357 205l171 -72q-23 -55 -73 -93t-113 -48v-88h-93v88q-148 18 -184 144q-15 41 -15 109q0 69 15 108q36 126 184 144v88h93v-88q65 -11 115.5 -47.5t70.5 -88.5l-171 -74q-6 24 -19.5 37t-31.5 13q-32 0 -37 -24q-7 -14 -7 -68q0 -51 7 -66q5 -27 37 -27q34 0 51 53z
" />
    <glyph glyph-name="sterling" unicode="&#xa3;" 
d="M50 0v162q25 24 33 40t8 38v14h-42v137h42v88q0 102 58.5 157t166.5 55q92 0 150 -47.5t66 -128.5l-182 -33q-4 46 -28 46q-15 0 -18.5 -6t-3.5 -32v-99h142v-137h-142v-9q0 -25 -8.5 -42.5t-28.5 -35.5h266v-167h-479z" />
    <glyph glyph-name="currency" unicode="&#xa4;" 
d="M372 63q-34 -14 -68 -14q-18 0 -21 1q-41 4 -68 13l-68 -69l-120 120l69 67q-13 32 -13 79q0 26 14 77l-70 67l120 121l66 -70q34 15 90 15q29 -2 44 -5.5t27 -9.5l70 69l119 -120l-69 -69q5 -12 9.5 -31.5t5.5 -29.5l1 -17q0 -36 -15 -74l69 -69l-123 -121zM270.5 195.5
q10.5 -4.5 24.5 -4.5q15 0 26 4.5t23 14.5q18 14 18 50t-18 51q-12 10 -23 14.5t-26 4.5q-14 0 -25 -4.5t-23 -14.5q-17 -20 -17 -51q0 -33 17 -50q13 -10 23.5 -14.5z" />
    <glyph glyph-name="yen" unicode="&#xa5;" 
d="M397 0h-210v116h-117v92h117v29h-117v92h86l-147 351h228l60 -222l59 222h219l-146 -351h88v-92h-120v-29h120v-92h-120v-116z" />
    <glyph glyph-name="brokenbar" unicode="&#xa6;" horiz-adv-x="348" 
d="M267 388h-186v352h186v-352zM267 -84h-186v356h186v-356z" />
    <glyph glyph-name="section" unicode="&#xa7;" horiz-adv-x="506" 
d="M97 -146q-57 45 -62 124l175 21q-2 -44 33 -44q18 0 28 7.5t10 21.5q0 21 -16 34q-17 12 -68 27q-88 26 -131 76t-43 128q0 43 20.5 81t56.5 59q-55 49 -55 131q0 75 56 122q61 49 156 49q68 0 116 -23.5t73 -65.5q22 -40 22 -84l-171 -21q-1 28 -8 38t-23 10
q-37 0 -37 -28q0 -17 18 -31t60 -27q87 -26 131.5 -77.5t44.5 -125.5q0 -90 -77 -143q24 -18 40 -55.5t16 -78.5q0 -79 -57 -125q-60 -45 -156 -45q-95 0 -152 45zM285 214q13 16 13 38t-13 38t-33 16t-32 -16t-12 -38q0 -28 10 -41t34 -13q20 0 33 16z" />
    <glyph glyph-name="dieresis" unicode="&#xa8;" horiz-adv-x="534" 
d="M236 531h-150v149h150v-149zM449 531h-153v149h153v-149z" />
    <glyph glyph-name="copyright" unicode="&#xa9;" horiz-adv-x="774" 
d="M385 -11q-152 0 -250 98q-101 96 -101 253q0 152 101 253q104 98 250 98q150 0 254 -98q101 -101 101 -253q0 -157 -101 -253q-98 -98 -254 -98zM385 79q74 0 133.5 32.5t93.5 92.5q34 58 34 136q0 118 -71 189q-79 72 -190 72q-72 0 -130.5 -32.5t-92.5 -91.5
q-34 -58 -34 -137q0 -118 74 -186q74 -75 183 -75zM278 178q-51 31 -71 84q-12 27 -12 78q0 57 19 96.5t66 68.5q53 32 113 32q71 0 113.5 -26.5t65.5 -85.5l-131 -50q-19 36 -44 36q-20 0 -26 -19q-6 -12 -6 -52q0 -39 6 -51q3 -9 9 -12.5t17 -3.5q32 0 44 36l127 -50
q-12 -51 -60.5 -81.5t-114.5 -30.5q-64 0 -115 31z" />
    <glyph glyph-name="ordfeminine" unicode="&#xaa;" horiz-adv-x="379" 
d="M214 414q-10 -13 -30.5 -20t-47.5 -7q-45 0 -73.5 24.5t-28.5 65.5q0 43 37.5 68t99.5 25h45v10q0 20 -51 20q-43 0 -75 -23l-50 78q66 33 140 33q85 0 124.5 -26.5t39.5 -83.5v-186h-130v22zM216 486v16h-38q-11 0 -15.5 -4t-4.5 -13q0 -19 20 -19q38 0 38 20z" />
    <glyph glyph-name="guillemotleft" unicode="&#xab;" horiz-adv-x="616" 
d="M288 -7l-277 271l277 271v-191l-84 -80l84 -80v-191zM574 -7l-277 271l277 271v-191l-83 -80l83 -80v-191z" />
    <glyph glyph-name="logicalnot" unicode="&#xac;" 
d="M533 64h-175v128h-317v168h492v-296z" />
    <glyph glyph-name="uni00AD" unicode="&#xad;" horiz-adv-x="410" 
d="M375 174h-340v180h340v-180z" />
    <glyph glyph-name="registered" unicode="&#xae;" horiz-adv-x="774" 
d="M740 340q0 -157 -101 -253q-98 -98 -254 -98q-152 0 -250 98q-101 96 -101 253q0 152 101 253q104 98 250 98q150 0 254 -98q101 -101 101 -253zM646 340q0 118 -71 189q-79 72 -190 72q-72 0 -130.5 -32.5t-92.5 -91.5q-34 -58 -34 -137q0 -118 74 -186l13 -13v380h180
q75 0 116.5 -35.5t41.5 -102.5q0 -79 -61 -116l61 -132l6 5l16 14q71 68 71 186zM385 348q18 0 28 9t10 26q0 15 -10.5 23.5t-27.5 8.5h-41v-67h41zM252 113q58 -34 133 -34q78 0 136 34h-100l-55 133h-22v-133h-92z" />
    <glyph glyph-name="overscore" unicode="&#xaf;" horiz-adv-x="534" 
d="M443 545h-353v130h353v-130z" />
    <glyph glyph-name="degree" unicode="&#xb0;" horiz-adv-x="371" 
d="M184 367q-34 0 -65 12.5t-55 36.5q-45 42 -45 117q0 70 45 115q53 47 120 47q69 0 122 -47q46 -49 46 -115q0 -34 -12 -64.5t-34 -52.5q-49 -49 -122 -49zM155.5 568q-10.5 -9 -12.5 -32q0 -51 41 -51q26 0 35 10.5t9 37.5q0 24 -8 34t-29 10q-25 0 -35.5 -9z" />
    <glyph glyph-name="plusminus" unicode="&#xb1;" 
d="M374 203h-174v159h-159v168h159v160h174v-160h159v-168h-159v-159zM533 0h-492v166h492v-166z" />
    <glyph glyph-name="uni00B2" unicode="&#xb2;" horiz-adv-x="381" 
d="M307.5 808q41.5 -36 41.5 -92q0 -33 -15.5 -62.5t-44.5 -50.5l-65 -54h126v-119h-321v113l157 130q20 20 20 37q0 12 -5 17t-17 5q-10 0 -17 -11.5t-6 -29.5l-129 14q-1 2 -1 13q0 34 19 62t55 46q37 18 91 18q70 0 111.5 -36z" />
    <glyph glyph-name="uni00B3" unicode="&#xb3;" horiz-adv-x="381" 
d="M111 437.5q-38 15.5 -59 43.5t-20 63l130 14q5 -24 25 -24q24 0 24 22q0 17 -6 21.5t-27 4.5h-19v108h21q11 0 17.5 5.5t6.5 15.5t-5.5 15.5t-15.5 5.5q-9 0 -16 -7.5t-8 -18.5l-128 18q9 58 50.5 89t110.5 31t112.5 -32.5t43.5 -83.5q0 -53 -45 -80q28 -10 40 -33
t12 -64q0 -36 -20 -65.5t-56 -46.5q-40 -17 -83 -17q-47 0 -85 15.5z" />
    <glyph glyph-name="acute" unicode="&#xb4;" horiz-adv-x="534" 
d="M293 541h-166l94 163h200z" />
    <glyph glyph-name="uni00B5" unicode="&#xb5;" horiz-adv-x="660" 
d="M351 26q-17 -16 -41 -19q-29 -3 -66 -2l1 -29v-156h-210v669h210v-282q0 -48 40 -48q28 0 38 16.5t10 63.5v250h210v-287q0 -41 39 -41v-167h-10q-57 0 -83 5t-47 20q-16 10 -59 56q-15 -33 -32 -49z" />
    <glyph glyph-name="paragraph" unicode="&#xb6;" horiz-adv-x="715" 
d="M496 551h-76v-731h-164v368q-51 5 -89.5 23t-68.5 52q-64 64 -64 171q0 72 33 128t93 87q58 31 134 31h365v-860h-163v731z" />
    <glyph glyph-name="middot" unicode="&#xb7;" horiz-adv-x="277" 
d="M232 173h-187v181h187v-181z" />
    <glyph glyph-name="cedilla" unicode="&#xb8;" horiz-adv-x="534" 
d="M316 -21q0 -50 -21 -92t-57 -65q-37 -22 -83 -21v119q38 0 40 59h121z" />
    <glyph glyph-name="uni00B9" unicode="&#xb9;" horiz-adv-x="381" 
d="M292 430h-153v263l-79 -42v131l87 54h145v-406z" />
    <glyph glyph-name="ordmasculine" unicode="&#xba;" horiz-adv-x="412" 
d="M43 539q0 45 14.5 76t48.5 51q37 22 100 22q61 0 101 -22.5t54 -67.5q8 -30 8 -65q0 -44 -14 -75.5t-48 -50.5q-41 -23 -101 -23q-61 0 -100.5 23t-53.5 68q-9 24 -9 64zM236 536q0 26 -2 37t-8 15t-20 4q-17 0 -23 -12t-6 -43q0 -32 6 -44t23 -12q23 0 27 15q3 11 3 40z
" />
    <glyph glyph-name="guillemotright" unicode="&#xbb;" horiz-adv-x="616" 
d="M329 264l-280 -271v188l83 83l-83 80v188zM612 264l-277 -271v188l84 83l-84 80v188z" />
    <glyph glyph-name="onequarter" unicode="&#xbc;" horiz-adv-x="953" 
d="M333 -11h-150l407 702h150zM309 274h-153v263l-79 -42v131l87 54h145v-406zM634 406h158l-111 -239h33v52h136v-52h26v-121h-26v-46h-136v46h-185v118z" />
    <glyph glyph-name="onehalf" unicode="&#xbd;" horiz-adv-x="972" 
d="M590 691h150l-407 -702h-150zM77 626l87 54h145v-406h-153v263l-79 -42v131zM848.5 378q41.5 -36 41.5 -92q0 -33 -15.5 -63t-44.5 -50l-67 -54h129v-119h-321v113l157 130q20 23 20 37q0 12 -4.5 17t-17.5 5q-10 0 -18.5 -12t-7.5 -29l-129 14q-1 2 -1 13q0 34 19.5 62
t56.5 46q38 18 91 18q70 0 111.5 -36z" />
    <glyph glyph-name="threequarters" unicode="&#xbe;" horiz-adv-x="1009" 
d="M382 -11h-150l407 702h150zM129 300.5q-47 34.5 -46 87.5l130 14q5 -24 25 -24q24 0 24 22q0 17 -5.5 21.5t-26.5 4.5h-20v108h22q11 0 17.5 5.5t6.5 15.5t-6 15.5t-16 5.5q-9 0 -15.5 -7t-8.5 -19l-128 18q9 57 50.5 88.5t110.5 31.5t113 -32.5t44 -83.5q0 -55 -46 -80
q28 -10 40 -33t12 -64q0 -36 -20 -65.5t-56 -46.5q-40 -17 -83 -17q-71 0 -118 34.5zM904 0h-136v46h-185v118l105 242h158l-109 -239h31v52h136v-52h26v-121h-26v-46z" />
    <glyph glyph-name="questiondown" unicode="&#xbf;" horiz-adv-x="496" 
d="M357 489v-164h-190v164h190zM360 213q0 -42 -36 -81q-50 -50 -73 -82t-23 -42q0 -20 9.5 -32t26.5 -12q24 0 35 13t17 49l179 -24q-9 -96 -71 -150t-164 -54q-52 0 -92.5 14.5t-74.5 44.5q-32 28 -49 63t-17 73q0 82 83 163l37 38q20 20 20 52v22h193v-55z" />
    <glyph glyph-name="Agrave" unicode="&#xc0;" horiz-adv-x="712" 
d="M448 729h-171l-122 163h200zM243 0h-240l241 680h234l239 -680h-233l-27 97h-193zM360 452l-43 -180h90z" />
    <glyph glyph-name="Aacute" unicode="&#xc1;" horiz-adv-x="712" 
d="M439 729h-166l94 163h200zM243 0h-240l241 680h234l239 -680h-233l-27 97h-193zM360 452l-43 -180h90z" />
    <glyph glyph-name="Acircumflex" unicode="&#xc2;" horiz-adv-x="712" 
d="M310 732h-153l132 166h135l136 -166h-149l-54 53zM243 0h-240l241 680h234l239 -680h-233l-27 97h-193zM360 452l-43 -180h90z" />
    <glyph glyph-name="Atilde" unicode="&#xc3;" horiz-adv-x="712" 
d="M185 854q20 22 47 34.5t51 12.5q40 0 95 -23q33 -18 60 -18q59 0 96 40v-125q-15 -21 -44.5 -35t-56.5 -14q-40 0 -95 23q-27 18 -63 18q-17 0 -42 -10.5t-48 -26.5v124zM243 0h-240l241 680h234l239 -680h-233l-27 97h-193zM360 452l-43 -180h90z" />
    <glyph glyph-name="Adieresis" unicode="&#xc4;" horiz-adv-x="712" 
d="M331 738h-153v145h153v-145zM541 738h-152v145h152v-145zM243 0h-240l241 680h234l239 -680h-233l-27 97h-193zM360 452l-43 -180h90z" />
    <glyph glyph-name="Aring" unicode="&#xc5;" horiz-adv-x="712" 
d="M487 830q0 -27 -10.5 -52.5t-27.5 -42.5q-36 -36 -87 -36q-26 0 -50.5 9.5t-43.5 26.5q-35 41 -35 92q0 25 9 48t26 40q18 16 43 24.5t51 8.5q54 0 87 -33q38 -35 38 -85zM363 868q-19 0 -32.5 -13.5t-13.5 -30.5q0 -18 12.5 -30.5t30.5 -12.5q19 0 31.5 13t12.5 32
q0 20 -14 32q-10 10 -27 10zM244 680h234l239 -680h-233l-27 97h-193l-21 -97h-240zM407 272l-47 180l-43 -180h90z" />
    <glyph glyph-name="AE" unicode="&#xc6;" horiz-adv-x="937" 
d="M239 0h-234l285 680h620v-179h-261v-70h212v-176h-212v-75h261v-180h-481v97h-155zM429 512l-86 -240h86v240z" />
    <glyph glyph-name="Ccedilla" unicode="&#xc7;" horiz-adv-x="610" 
d="M436 663.5q58 -27.5 96 -80.5q39 -54 47 -138h-221q-2 30 -14 43t-39 13q-19 0 -32 -9.5t-16 -27.5q-8 -40 -8 -124q0 -83 8 -123q6 -38 48 -38q48 0 55 55l219 1q-17 -124 -87 -185t-186 -61q-96 0 -162.5 43t-94.5 124q-22 53 -22 184q0 133 22 184q28 81 94.5 124
t162.5 43q72 0 130 -27.5zM368 -21q0 -50 -21 -92t-57 -65q-37 -22 -83 -21v119q38 0 40 59h121z" />
    <glyph glyph-name="Egrave" unicode="&#xc8;" horiz-adv-x="553" 
d="M388 729h-171l-122 163h200zM521 0h-481v680h481v-179h-261v-70h212v-176h-212v-75h261v-180z" />
    <glyph glyph-name="Eacute" unicode="&#xc9;" horiz-adv-x="553" 
d="M326 729h-166l94 163h200zM521 0h-481v680h481v-179h-261v-70h212v-176h-212v-75h261v-180z" />
    <glyph glyph-name="Ecircumflex" unicode="&#xca;" horiz-adv-x="553" 
d="M231 732h-152l131 166h136l135 -166h-149l-54 53zM521 0h-481v680h481v-179h-261v-70h212v-176h-212v-75h261v-180z" />
    <glyph glyph-name="Edieresis" unicode="&#xcb;" horiz-adv-x="553" 
d="M254 738h-153v145h153v-145zM464 738h-152v145h152v-145zM521 0h-481v680h481v-179h-261v-70h212v-176h-212v-75h261v-180z" />
    <glyph glyph-name="Igrave" unicode="&#xcc;" horiz-adv-x="300" 
d="M238 729h-171l-122 163h200zM260 0h-220v680h220v-680z" />
    <glyph glyph-name="Iacute" unicode="&#xcd;" horiz-adv-x="300" 
d="M224 729h-166l94 163h200zM260 0h-220v680h220v-680z" />
    <glyph glyph-name="Icircumflex" unicode="&#xce;" horiz-adv-x="300" 
d="M100 732h-152l132 166h136l135 -166h-149l-54 52zM260 0h-220v680h220v-680z" />
    <glyph glyph-name="Idieresis" unicode="&#xcf;" horiz-adv-x="300" 
d="M120 738h-154v145h154v-145zM329 738h-152v145h152v-145zM260 0h-220v680h220v-680z" />
    <glyph glyph-name="Eth" unicode="&#xd0;" horiz-adv-x="636" 
d="M40 267h-38v153h38v260h288q119 0 182.5 -44.5t79.5 -119.5q14 -72 14 -176q0 -80 -6 -130t-25 -90t-58 -71q-59 -49 -187 -49h-288v267zM283 194q80 0 88 47q9 35 9 99q0 68 -9 99q-7 48 -88 48h-23v-67h64v-153h-64v-73h23z" />
    <glyph glyph-name="Ntilde" unicode="&#xd1;" horiz-adv-x="650" 
d="M502 776q-16 -22 -45 -36t-56 -14q-40 0 -95 23q-27 18 -63 18q-18 0 -43 -11t-47 -27v125q20 22 47 34.5t51 12.5q40 0 95 -23q33 -18 60 -18q60 0 96 39v-123zM412 680h198v-680h-210l-162 349v-349h-198v680h211l161 -349v349z" />
    <glyph glyph-name="Ograve" unicode="&#xd2;" horiz-adv-x="631" 
d="M417 729h-171l-122 163h200zM146.5 33q-71.5 44 -97.5 124q-22 66 -22 183q0 126 27 197t94 111q70 43 169 43q97 0 168 -44.5t97 -122.5q22 -66 22 -184q0 -126 -26 -196.5t-93 -110.5q-74 -44 -168 -44q-99 0 -170.5 44zM374 219q8 46 8 121q0 50 -3 83l-5 38
q-6 40 -57 40q-26 0 -40.5 -9.5t-19.5 -30.5q-8 -34 -8 -121q0 -52 8 -121q3 -19 18.5 -29.5t41.5 -10.5q47 0 57 40z" />
    <glyph glyph-name="Oacute" unicode="&#xd3;" horiz-adv-x="631" 
d="M383 729h-166l94 163h200zM146.5 33q-71.5 44 -97.5 124q-22 66 -22 183q0 126 27 197t94 111q70 43 169 43q97 0 168 -44.5t97 -122.5q22 -66 22 -184q0 -126 -26 -196.5t-93 -110.5q-74 -44 -168 -44q-99 0 -170.5 44zM374 219q8 46 8 121t-8 121q-6 21 -19.5 30.5
t-37.5 9.5q-26 0 -40.5 -9.5t-19.5 -30.5q-8 -34 -8 -121t8 -121q5 -20 19.5 -30t40.5 -10q47 0 57 40z" />
    <glyph glyph-name="Ocircumflex" unicode="&#xd4;" horiz-adv-x="631" 
d="M266 732h-152l131 166h136l135 -166h-149l-54 53zM146.5 33q-71.5 44 -97.5 124q-22 66 -22 183q0 126 27 197t94 111q70 43 169 43q97 0 168 -44.5t97 -122.5q22 -66 22 -184q0 -126 -26 -196.5t-93 -110.5q-74 -44 -168 -44q-99 0 -170.5 44zM354.5 188.5
q13.5 9.5 19.5 30.5q8 46 8 121q0 52 -8 121q-3 19 -18 29.5t-39 10.5q-26 0 -40.5 -9.5t-19.5 -30.5q-8 -34 -8 -121t8 -121q5 -20 19.5 -30t40.5 -10q24 0 37.5 9.5z" />
    <glyph glyph-name="Otilde" unicode="&#xd5;" horiz-adv-x="631" 
d="M142 854q20 22 46.5 34.5t50.5 12.5q43 0 95 -23q33 -18 61 -18q60 0 96 39v-123q-16 -22 -45 -36t-56 -14q-43 0 -95 23q-29 18 -63 18q-18 0 -43 -11t-47 -27v125zM146.5 33q-71.5 44 -97.5 124q-22 66 -22 183q0 126 27 197t94 111q70 43 169 43q97 0 168 -44.5
t97 -122.5q22 -66 22 -184q0 -126 -26 -196.5t-93 -110.5q-74 -44 -168 -44q-99 0 -170.5 44zM374 219l5 39q3 32 3 82t-3 83l-5 38q-6 40 -57 40q-26 0 -40.5 -9.5t-19.5 -30.5q-8 -43 -8 -145q0 -49 4.5 -75.5t18.5 -43.5q14 -18 45 -18q51 0 57 40z" />
    <glyph glyph-name="Odieresis" unicode="&#xd6;" horiz-adv-x="631" 
d="M287 738h-152v145h152v-145zM498 738h-153v145h153v-145zM146.5 33q-71.5 44 -97.5 124q-22 66 -22 183q0 126 27 197t94 111q70 43 169 43q97 0 168 -44.5t97 -122.5q22 -66 22 -184q0 -126 -26 -196.5t-93 -110.5q-74 -44 -168 -44q-99 0 -170.5 44zM374 219
q8 46 8 121q0 50 -3 83l-5 38q-6 40 -57 40q-26 0 -40.5 -9.5t-19.5 -30.5q-8 -34 -8 -121t8 -121q5 -20 19.5 -30t40.5 -10q47 0 57 40z" />
    <glyph glyph-name="multiply" unicode="&#xd7;" 
d="M537 148l-116 -113l-126 127l-131 -127l-116 113l130 128l-130 128l119 117l132 -134l122 134l116 -113l-126 -132z" />
    <glyph glyph-name="Oslash" unicode="&#xd8;" horiz-adv-x="631" 
d="M97 80q-27 35 -40 77q-21 71 -21 183q0 126 26.5 197t93.5 111q70 43 169 43q95 0 157 -38l41 57h104l-74 -113q11 -7 18 -24l20 -49q21 -70 21 -184q0 -125 -26.5 -196t-92.5 -111q-74 -44 -168 -44q-51 0 -88.5 8.5t-67.5 26.5l-44 -54h-105zM367 491q-23 14 -42 14
q-25 0 -42 -11.5t-22 -32.5q-8 -48 -8 -121v-27zM366 187q16 11 21 32q8 50 8 121v25l-114 -176q19 -13 44 -13t41 11z" />
    <glyph glyph-name="Ugrave" unicode="&#xd9;" horiz-adv-x="650" 
d="M429 729h-171l-122 163h200zM259 259q0 -38 18 -59t51 -21q31 0 47 21t16 59v421h220v-402q0 -140 -73.5 -214.5t-209.5 -74.5q-145 0 -216.5 71t-71.5 218v402h219v-421z" />
    <glyph glyph-name="Uacute" unicode="&#xda;" horiz-adv-x="650" 
d="M403 729h-166l94 163h200zM111.5 60q-71.5 71 -71.5 218v402h219v-421q0 -38 18 -59t51 -21q31 0 47 21t16 59v421h220v-402q0 -140 -73.5 -214.5t-209.5 -74.5q-145 0 -216.5 71z" />
    <glyph glyph-name="Ucircumflex" unicode="&#xdb;" horiz-adv-x="650" 
d="M524 732h-149l-54 53l-47 -53h-152l131 166h136zM259 259q0 -38 18 -59t51 -21q31 0 47 21t16 59v421h220v-402q0 -140 -73.5 -214.5t-209.5 -74.5q-145 0 -216.5 71t-71.5 218v402h219v-421z" />
    <glyph glyph-name="Udieresis" unicode="&#xdc;" horiz-adv-x="650" 
d="M144 883h152v-145h-152v145zM354 883h153v-145h-153v145zM611 278q0 -140 -73.5 -214.5t-209.5 -74.5q-145 0 -216.5 71t-71.5 218v402h219v-421q0 -38 18 -59t51 -21q31 0 47 21t16 59v421h220v-402z" />
    <glyph glyph-name="Yacute" unicode="&#xdd;" horiz-adv-x="648" 
d="M408 729h-166l94 163h200zM436 0h-219v254l-216 426h224l105 -221l102 221h220l-216 -426v-254z" />
    <glyph glyph-name="Thorn" unicode="&#xde;" horiz-adv-x="623" 
d="M40 680h220v-93h77q126 0 197.5 -64t71.5 -175q0 -113 -70 -173t-199 -60h-77v-115h-220v680zM323 292q31 0 47.5 14.5t16.5 41.5t-17 43.5t-47 16.5h-63v-116h63z" />
    <glyph glyph-name="agrave" unicode="&#xe0;" horiz-adv-x="541" 
d="M391 541h-172l-121 163h199zM305 36q-21 -23 -54 -35t-73 -12q-72 0 -115 40.5t-43 110.5q0 75 60.5 119t160.5 44h62v12q0 18 -15 25q-16 6 -64 6q-30 0 -60.5 -8.5t-48.5 -21.5l-75 129q33 26 89.5 40.5t123.5 14.5q92 0 146.5 -20t79.5 -62q24 -42 24 -110v-308h-198
v36zM303 159v29h-44q-21 0 -30 -7t-9 -23q0 -15 8 -22t27 -7q48 0 48 30z" />
    <glyph glyph-name="aacute" unicode="&#xe1;" horiz-adv-x="541" 
d="M349 541h-169l94 163h200zM305 36q-21 -23 -54 -35t-73 -12q-72 0 -115 40.5t-43 110.5q0 75 60.5 119t160.5 44h62v12q0 18 -15 25q-16 6 -64 6q-30 0 -60.5 -8.5t-48.5 -21.5l-75 129q33 26 89.5 40.5t123.5 14.5q92 0 146.5 -20t79.5 -62q24 -42 24 -110v-308h-198v36
zM303 159v29h-44q-21 0 -30 -7t-9 -23q0 -15 8 -22t27 -7q48 0 48 30z" />
    <glyph glyph-name="acircumflex" unicode="&#xe2;" horiz-adv-x="541" 
d="M471 538h-149l-54 52l-47 -52h-152l131 166h136zM305 36q-21 -23 -54 -35t-73 -12q-72 0 -115 40.5t-43 110.5q0 75 60.5 119t160.5 44h62v12q0 18 -15 25q-16 6 -64 6q-30 0 -60.5 -8.5t-48.5 -21.5l-75 129q33 26 89.5 40.5t123.5 14.5q92 0 146.5 -20t79.5 -62
q24 -42 24 -110v-308h-198v36zM303 159v29h-44q-21 0 -30 -7t-9 -23q0 -15 8 -22t27 -7q48 0 48 30z" />
    <glyph glyph-name="atilde" unicode="&#xe3;" horiz-adv-x="541" 
d="M250 554q-29 18 -63 18q-18 0 -43.5 -10t-46.5 -25v124q20 21 46 33t51 12q43 0 95 -23q33 -18 61 -18q58 0 96 41v-125q-16 -21 -45.5 -35.5t-55.5 -14.5q-43 0 -95 23zM305 36q-21 -23 -54 -35t-73 -12q-72 0 -115 40.5t-43 110.5q0 75 60.5 119t160.5 44h62v12
q0 18 -15 25q-16 6 -64 6q-30 0 -60.5 -8.5t-48.5 -21.5l-75 129q33 26 89.5 40.5t123.5 14.5q92 0 146.5 -20t79.5 -62q24 -42 24 -110v-308h-198v36zM303 159v29h-44q-21 0 -30 -7t-9 -23q0 -15 8 -22t27 -7q48 0 48 30z" />
    <glyph glyph-name="adieresis" unicode="&#xe4;" horiz-adv-x="541" 
d="M90 677h152v-146h-152v146zM300 677h153v-146h-153v146zM399.5 480q54.5 -20 79.5 -62q24 -42 24 -110v-308h-198v36q-21 -23 -54 -35t-73 -12q-72 0 -115 40.5t-43 110.5q0 75 60.5 119t160.5 44h62v12q0 18 -15 25q-16 6 -64 6q-30 0 -60.5 -8.5t-48.5 -21.5l-75 129
q33 26 89.5 40.5t123.5 14.5q92 0 146.5 -20zM259 188q-21 0 -30 -7t-9 -23q0 -15 8 -22t27 -7q48 0 48 30v29h-44z" />
    <glyph glyph-name="aring" unicode="&#xe5;" horiz-adv-x="541" 
d="M394 641q0 -27 -10.5 -52.5t-27.5 -42.5q-36 -36 -87 -36q-26 0 -50.5 9.5t-43.5 26.5q-35 41 -35 92q0 25 9 48t26 40q18 16 43 24.5t51 8.5q54 0 87 -33q38 -35 38 -85zM270 679q-19 0 -32.5 -13.5t-13.5 -30.5q0 -18 12.5 -30.5t30.5 -12.5q19 0 31.5 13t12.5 32
q0 20 -14 32q-10 10 -27 10zM399.5 480q54.5 -20 79.5 -62q24 -42 24 -110v-308h-198v36q-21 -23 -54 -35t-73 -12q-72 0 -115 40.5t-43 110.5q0 75 60.5 119t160.5 44h62v12q0 18 -15 25q-16 6 -64 6q-30 0 -60.5 -8.5t-48.5 -21.5l-75 129q33 26 89.5 40.5t123.5 14.5
q92 0 146.5 -20zM259 188q-21 0 -30 -7t-9 -23q0 -15 8 -22t27 -7q48 0 48 30v29h-44z" />
    <glyph glyph-name="ae" unicode="&#xe6;" horiz-adv-x="819" 
d="M396 49q-52 -60 -186 -60q-190 0 -190 151q0 75 60.5 119t160.5 44h62v15q0 13 -6 18.5t-22 7.5q-30 2 -51 2q-74 0 -109 -30l-75 125q45 33 92.5 46t120.5 13q53 0 89.5 -7.5t76.5 -25.5q59 33 126 33q92 0 153.5 -37t85.5 -106q9 -24 13 -53q3 -31 3 -116h-300
q0 -10 1 -12q8 -21 28.5 -29.5t57.5 -8.5q49 0 107 40l101 -103q-54 -45 -110 -65.5t-125 -20.5q-95 0 -164 60zM599 303q0 41 -18 53q-10 7 -33 7q-38 0 -45 -31q-3 -9 -3 -29h99zM303 159v29h-44q-21 0 -31 -7t-10 -23q0 -15 8.5 -22t28.5 -7q48 0 48 30z" />
    <glyph glyph-name="ccedilla" unicode="&#xe7;" horiz-adv-x="496" 
d="M410 461q64 -39 87 -100l-171 -74q-6 24 -19.5 37t-31.5 13q-32 0 -37 -24q-7 -14 -7 -68q0 -51 7 -66q5 -27 37 -27q34 0 51 53l171 -72q-27 -64 -90.5 -104t-138.5 -40q-93 0 -153 37.5t-81 109.5q-15 41 -15 109q0 69 15 108q21 72 81 109.5t153 37.5q78 0 142 -39z
M344 -21q0 -50 -21 -92t-58 -65q-37 -22 -82 -21l-1 119q20 0 30 15.5t10 43.5h122z" />
    <glyph glyph-name="egrave" unicode="&#xe8;" horiz-adv-x="542" 
d="M283 704l94 -163h-172l-121 163h199zM122.5 27q-63.5 38 -86.5 110q-17 53 -17 108q0 69 16 108q23 71 84 109t152 38q90 0 151.5 -37.5t84.5 -105.5q17 -62 17 -132q0 -31 -1 -37h-303q4 -13 7 -16q9 -18 27.5 -26t52.5 -8q52 0 110 40l101 -103q-54 -45 -110.5 -65.5
t-124.5 -20.5q-97 0 -160.5 38zM323 303q0 22 -4 34t-13 19q-10 7 -34 7q-39 0 -46 -31q-3 -12 -3 -29h100z" />
    <glyph glyph-name="eacute" unicode="&#xe9;" horiz-adv-x="542" 
d="M346 541h-169l94 163h200zM122.5 27q-63.5 38 -86.5 110q-17 53 -17 108q0 69 16 108q23 71 84 109t152 38q90 0 151.5 -37.5t84.5 -105.5q17 -62 17 -132q0 -31 -1 -37h-303q4 -13 7 -16q9 -18 27.5 -26t52.5 -8q52 0 110 40l101 -103q-54 -45 -110.5 -65.5
t-124.5 -20.5q-97 0 -160.5 38zM323 303q0 22 -4 34t-13 19q-10 7 -34 7q-39 0 -46 -31q-3 -12 -3 -29h100z" />
    <glyph glyph-name="ecircumflex" unicode="&#xea;" horiz-adv-x="542" 
d="M321 538l-54 52l-47 -52h-152l131 166h136l135 -166h-149zM122.5 27q-63.5 38 -86.5 110q-17 53 -17 108q0 69 16 108q23 71 84 109t152 38q90 0 151.5 -37.5t84.5 -105.5q17 -62 17 -132q0 -31 -1 -37h-303q4 -13 7 -16q9 -18 27.5 -26t52.5 -8q52 0 110 40l101 -103
q-54 -45 -110.5 -65.5t-124.5 -20.5q-97 0 -160.5 38zM323 303q0 22 -4 34t-13 19q-10 7 -34 7q-39 0 -46 -31q-3 -12 -3 -29h100z" />
    <glyph glyph-name="edieresis" unicode="&#xeb;" horiz-adv-x="542" 
d="M89 677h152v-146h-152v146zM299 677h153v-146h-153v146zM122.5 27q-63.5 38 -86.5 110q-17 53 -17 108q0 69 16 108q23 71 84 109t152 38q90 0 151.5 -37.5t84.5 -105.5q17 -62 17 -132q0 -31 -1 -37h-303q4 -13 7 -16q9 -18 27.5 -26t52.5 -8q52 0 110 40l101 -103
q-54 -45 -110.5 -65.5t-124.5 -20.5q-97 0 -160.5 38zM323 303q0 22 -4 34t-13 19q-10 7 -34 7q-39 0 -46 -31q-3 -12 -3 -29h100z" />
    <glyph glyph-name="igrave" unicode="&#xec;" horiz-adv-x="286" 
d="M237 541h-171l-122 163h200zM248 0h-210v489h210v-489z" />
    <glyph glyph-name="iacute" unicode="&#xed;" horiz-adv-x="286" 
d="M219 541h-170l95 163h200zM248 0h-210v489h210v-489z" />
    <glyph glyph-name="icircumflex" unicode="&#xee;" horiz-adv-x="286" 
d="M351 538h-149l-54 52l-47 -52h-153l132 166h136zM248 0h-210v489h210v-489z" />
    <glyph glyph-name="idieresis" unicode="&#xef;" horiz-adv-x="286" 
d="M-38 677h153v-146h-153v146zM173 677h152v-146h-152v146zM38 489h210v-489h-210v489z" />
    <glyph glyph-name="eth" unicode="&#xf0;" horiz-adv-x="548" 
d="M526 225q0 -125 -72 -180.5t-178 -55.5q-93 0 -156.5 37t-84.5 103q-12 47 -12 90q0 41 11 85q21 63 66.5 92.5t126.5 30.5q8 0 23 -4.5t25 -10.5l-51 68l-109 -31l-33 105l72 22l-74 104h210l38 -55l95 27l34 -101l-59 -19l10 -18q87 -130 106 -178q12 -34 12 -111z
M227 427q0 1 7 1zM330 226l-10 37q-2 20 -14 30.5t-30 10.5q-20 0 -32.5 -10.5t-14.5 -30.5l-10 -37q0 -26 10 -39q5 -38 47 -38q39 0 44 38q10 13 10 39z" />
    <glyph glyph-name="ntilde" unicode="&#xf1;" horiz-adv-x="566" 
d="M262 554q-29 18 -63 18q-18 0 -43.5 -10t-46.5 -25v124q20 21 46 33t51 12q43 0 95 -23q33 -18 61 -18q58 0 96 41v-125q-16 -21 -45.5 -35.5t-55.5 -14.5q-43 0 -95 23zM319 288q0 24 -8.5 35t-26.5 11q-36 0 -36 -46v-288h-210v489h210v-42q23 28 52 40.5t69 12.5
q82 0 121 -45t39 -137v-318h-210v288z" />
    <glyph glyph-name="ograve" unicode="&#xf2;" horiz-adv-x="548" 
d="M375 541h-171l-122 163h200zM120.5 26.5q-62.5 37.5 -85.5 106.5q-16 49 -16 112q0 158 102 218q61 37 152 37q93 0 155 -37t85 -106q16 -51 16 -112q0 -256 -256 -256q-90 0 -152.5 37.5zM299 157.5q8 5.5 11 19.5q7 29 7 68q0 47 -7 68q-4 13 -12 18.5t-25 5.5
q-28 0 -35 -23t-7 -69q0 -39 7 -68q2 -13 10 -19t25 -6q18 0 26 5.5z" />
    <glyph glyph-name="oacute" unicode="&#xf3;" horiz-adv-x="548" 
d="M349 541h-170l95 163h200zM120.5 26.5q-62.5 37.5 -85.5 106.5q-16 49 -16 112q0 158 102 218q61 37 152 37q93 0 155 -37t85 -106q16 -51 16 -112q0 -256 -256 -256q-90 0 -152.5 37.5zM298.5 157.5q7.5 5.5 11.5 19.5q7 20 7 68q0 47 -7 68q-3 13 -11 18.5t-26 5.5
q-16 0 -24 -5.5t-11 -18.5q-7 -22 -7 -68q0 -48 7 -68q3 -14 11 -19.5t24 -5.5q18 0 25.5 5.5z" />
    <glyph glyph-name="ocircumflex" unicode="&#xf4;" horiz-adv-x="548" 
d="M471 538h-149l-54 52l-47 -52h-152l131 166h136zM120.5 26.5q-62.5 37.5 -85.5 106.5q-16 49 -16 112q0 158 102 218q61 37 152 37q93 0 155 -37t85 -106q16 -51 16 -112q0 -256 -256 -256q-90 0 -152.5 37.5zM299 157.5q8 5.5 11 19.5q7 29 7 68t-7 68q-3 13 -11 18.5
t-26 5.5q-28 0 -35 -23t-7 -69t7 -68q3 -14 11 -19.5t24 -5.5q18 0 26 5.5z" />
    <glyph glyph-name="otilde" unicode="&#xf5;" horiz-adv-x="548" 
d="M253 554q-27 18 -63 18q-17 0 -43.5 -10.5t-46.5 -24.5v124q20 21 46.5 33t51.5 12q40 0 95 -23q33 -18 60 -18q58 0 96 41v-125q-16 -21 -45.5 -35.5t-55.5 -14.5q-40 0 -95 23zM120.5 26.5q-62.5 37.5 -85.5 106.5q-16 49 -16 112q0 158 102 218q61 37 152 37
q93 0 155 -37t85 -106q16 -51 16 -112q0 -256 -256 -256q-90 0 -152.5 37.5zM299 157.5q8 5.5 11 19.5q7 29 7 68t-7 68q-3 13 -11 18.5t-26 5.5q-28 0 -35 -23t-7 -69t7 -68q2 -13 10 -19t25 -6q18 0 26 5.5z" />
    <glyph glyph-name="odieresis" unicode="&#xf6;" horiz-adv-x="548" 
d="M93 677h153v-146h-153v146zM304 677h152v-146h-152v146zM428 463q62 -37 85 -106q16 -51 16 -112q0 -256 -256 -256q-90 0 -152.5 37.5t-85.5 106.5q-16 49 -16 112q0 158 102 218q61 37 152 37q93 0 155 -37zM249 331.5q-8 -5.5 -11 -18.5q-7 -22 -7 -68t7 -68
q3 -14 11 -19.5t24 -5.5q18 0 26 5.5t11 19.5q7 29 7 68t-7 68q-3 13 -11 18.5t-26 5.5q-16 0 -24 -5.5z" />
    <glyph glyph-name="divide" unicode="&#xf7;" 
d="M389 485q0 -7 -5 -35q-15 -28 -39.5 -42.5t-54.5 -14.5q-33 0 -60.5 16.5t-40.5 43.5q-7 18 -7 34q0 24 21 61q35 44 82 44t85 -44q19 -34 19 -63zM41 360h492v-168h-492v168zM387 59q0 -19 -6 -42q-17 -27 -41.5 -41.5t-50.5 -14.5q-30 0 -56 16.5t-41 46.5q-5 28 -5 38
q0 26 9 50q15 24 39 37t51 13q25 0 49 -12.5t39 -33.5q13 -27 13 -57z" />
    <glyph glyph-name="oslash" unicode="&#xf8;" horiz-adv-x="548" 
d="M70 58q-30 39 -43.5 83t-13.5 104q0 255 253 255q85 0 128 -25l36 44h104l-73 -88q38 -41 45 -74q16 -51 16 -112q0 -77 -23 -132t-77 -87q-61 -37 -156 -37q-69 0 -125 22l-33 -41h-104zM289 338l-16 1q-19 0 -27 -5t-10 -20l-6 -35l-1 -21zM298 156.5q9 4.5 12 19.5
q4 13 5 35q1 3 1 19v9l-65 -84q8 -3 15 -3q23 0 32 4.5z" />
    <glyph glyph-name="ugrave" unicode="&#xf9;" horiz-adv-x="562" 
d="M403 541h-171l-122 163h200zM314 46q-39 -57 -123 -57q-79 0 -117 45.5t-38 137.5v317h210v-288q0 -19 9.5 -32t24.5 -13q18 0 26 11t8 37v285h210v-489h-210v46z" />
    <glyph glyph-name="uacute" unicode="&#xfa;" horiz-adv-x="562" 
d="M360 541h-169l94 163h200zM314 46q-39 -57 -123 -57q-79 0 -117 45.5t-38 137.5v317h210v-288q0 -19 9.5 -32t24.5 -13q18 0 26 11t8 37v285h210v-489h-210v46z" />
    <glyph glyph-name="ucircumflex" unicode="&#xfb;" horiz-adv-x="562" 
d="M485 538h-149l-54 52l-47 -52h-153l132 166h136zM314 46q-39 -57 -123 -57q-79 0 -117 45.5t-38 137.5v317h210v-288q0 -19 9.5 -32t24.5 -13q18 0 26 11t8 37v285h210v-489h-210v46z" />
    <glyph glyph-name="udieresis" unicode="&#xfc;" horiz-adv-x="562" 
d="M101 677h152v-146h-152v146zM311 677h153v-146h-153v146zM524 0h-210v46q-39 -57 -123 -57q-79 0 -117 45.5t-38 137.5v317h210v-288q0 -19 9.5 -32t24.5 -13q18 0 26 11t8 37v285h210v-489z" />
    <glyph glyph-name="yacute" unicode="&#xfd;" horiz-adv-x="562" 
d="M363 541h-169l94 163h200zM94 -180v163h38q24 0 36 7.5t15 25.5l11 23l-195 450h222l71 -205l59 205h218l-230 -558q-26 -60 -71 -89q-43 -22 -123 -22h-51z" />
    <glyph glyph-name="thorn" unicode="&#xfe;" horiz-adv-x="566" 
d="M38 680h210v-233q14 24 48 38.5t78 14.5q118 0 156 -116q17 -62 17 -139t-17 -140q-38 -116 -156 -116q-100 0 -126 57v-226h-210v860zM327 175.5q8 23.5 8 69.5t-8 69t-38 23q-14 0 -22 -6t-12 -21q-7 -21 -7 -65q0 -47 9 -70q8 -23 32 -23q30 0 38 23.5z" />
    <glyph glyph-name="ydieresis" unicode="&#xff;" horiz-adv-x="562" 
d="M102 677h153v-146h-153v146zM313 677h152v-146h-152v146zM339 -69q-26 -60 -71 -89q-43 -22 -123 -22h-51v163h38q24 0 36 7.5t15 25.5l11 23l-195 450h222l71 -205l59 205h218z" />
    <glyph glyph-name="Amacron" unicode="&#x100;" horiz-adv-x="712" 
d="M536 744h-353v133h353v-133zM243 0h-240l241 680h234l239 -680h-233l-27 97h-193zM360 452l-43 -180h90z" />
    <glyph glyph-name="amacron" unicode="&#x101;" horiz-adv-x="541" 
d="M91 679h353v-134h-353v134zM399.5 480q54.5 -20 79.5 -62q24 -42 24 -110v-308h-198v36q-21 -23 -54 -35t-73 -12q-72 0 -115 40.5t-43 110.5q0 75 60.5 119t160.5 44h62v12q0 18 -15 25q-16 6 -64 6q-30 0 -60.5 -8.5t-48.5 -21.5l-75 129q33 26 89.5 40.5t123.5 14.5
q92 0 146.5 -20zM259 188q-21 0 -30 -7t-9 -23q0 -15 8 -22t27 -7q48 0 48 30v29h-44z" />
    <glyph glyph-name="Abreve" unicode="&#x102;" horiz-adv-x="712" 
d="M274.5 738q-39.5 19 -62.5 53q-24 33 -24 73q0 8 2 22h103q14 -45 67 -45q24 0 42.5 12t25.5 33h106q3 -48 -19.5 -86.5t-64.5 -59.5q-40 -21 -90 -21q-46 0 -85.5 19zM243 0h-240l241 680h234l239 -680h-233l-27 97h-193zM360 452l-43 -180h90z" />
    <glyph glyph-name="abreve" unicode="&#x103;" horiz-adv-x="541" 
d="M446 696q2 -50 -20 -87.5t-64 -58.5q-40 -21 -90 -21q-47 0 -86.5 18.5t-62.5 51.5q-24 33 -24 74l2 23h103q16 -46 68 -46q22 0 42.5 13t27.5 33h104zM399.5 480q54.5 -20 79.5 -62q24 -42 24 -110v-308h-198v36q-21 -23 -54 -35t-73 -12q-72 0 -115 40.5t-43 110.5
q0 75 60.5 119t160.5 44h62v12q0 18 -15 25q-16 6 -64 6q-30 0 -60.5 -8.5t-48.5 -21.5l-75 129q33 26 89.5 40.5t123.5 14.5q92 0 146.5 -20zM259 188q-21 0 -30 -7t-9 -23q0 -15 8 -22t27 -7q48 0 48 30v29h-44z" />
    <glyph glyph-name="Aogonek" unicode="&#x104;" horiz-adv-x="712" 
d="M608 -59q14 -3 37 -2l-3 -125h-32q-82 0 -123 12q-37 11 -51 29t-14 52q0 29 12.5 47t49.5 46l-27 97h-193l-21 -97h-240l241 680h234l239 -680q-31 -9 -62 -16q-26 -4 -45 -11q-14 -6 -14 -17q0 -12 12 -15zM360 452l-43 -180h90z" />
    <glyph glyph-name="aogonek" unicode="&#x105;" horiz-adv-x="541" 
d="M503 0q-29 -8 -50 -16t-26.5 -13t-5.5 -15q0 -12 12 -15q14 -3 37 -2l-4 -125h-32q-83 0 -124 12q-38 11 -51 29t-13 54q0 26 12.5 44.5t46.5 46.5v36q-21 -23 -54 -35t-73 -12q-72 0 -115 40.5t-43 110.5q0 75 60.5 119t160.5 44h62v12q0 18 -15 25q-16 6 -64 6
q-30 0 -60.5 -8.5t-48.5 -21.5l-75 129q33 26 89.5 40.5t123.5 14.5q92 0 146.5 -20t79.5 -62q24 -42 24 -110v-308zM303 188h-44q-21 0 -30 -7t-9 -23q0 -15 8 -22t27 -7q48 0 48 30v29z" />
    <glyph glyph-name="Cacute" unicode="&#x106;" horiz-adv-x="610" 
d="M365 729h-166l94 163h200zM143.5 32q-66.5 43 -94.5 124q-22 53 -22 184q0 133 22 184q28 81 94.5 124t162.5 43q72 0 130 -27.5t96 -80.5q39 -54 47 -138h-221q-2 30 -14 43t-39 13q-38 0 -48 -37q-8 -32 -8 -124q0 -83 8 -123q5 -21 16 -29.5t32 -8.5q48 0 55 55l219 1
q-17 -124 -87 -185t-186 -61q-96 0 -162.5 43z" />
    <glyph glyph-name="cacute" unicode="&#x107;" horiz-adv-x="496" 
d="M328 541h-170l95 163h200zM34 353q21 72 81 109.5t153 37.5q78 0 142 -39t87 -100l-171 -74q-6 24 -19.5 37t-31.5 13q-16 0 -24.5 -5.5t-12.5 -18.5q-7 -14 -7 -68q0 -46 7 -66q4 -15 12.5 -21t24.5 -6q34 0 51 53l171 -72q-27 -64 -90.5 -104t-138.5 -40
q-93 0 -153 37.5t-81 109.5q-15 41 -15 109q0 69 15 108z" />
    <glyph glyph-name="Ccircumflex" unicode="&#x108;" horiz-adv-x="610" 
d="M254 732h-152l131 166h136l135 -166h-149l-54 53zM143.5 32q-66.5 43 -94.5 124q-22 53 -22 184q0 133 22 184q28 81 94.5 124t162.5 43q72 0 130 -27.5t96 -80.5q39 -54 47 -138h-221q-2 30 -14 43t-39 13q-19 0 -32 -9.5t-16 -27.5q-8 -40 -8 -124q0 -83 8 -123
q6 -38 48 -38q48 0 55 55l219 1q-17 -124 -87 -185t-186 -61q-96 0 -162.5 43z" />
    <glyph glyph-name="ccircumflex" unicode="&#x109;" horiz-adv-x="496" 
d="M461 538h-149l-54 52l-47 -52h-152l131 166h136zM34 353q21 72 81 109.5t153 37.5q78 0 142 -39t87 -100l-171 -74q-6 24 -19.5 37t-31.5 13q-32 0 -37 -24q-7 -14 -7 -68q0 -51 7 -66q5 -27 37 -27q34 0 51 53l171 -72q-27 -64 -90.5 -104t-138.5 -40q-93 0 -153 37.5
t-81 109.5q-15 41 -15 109q0 69 15 108z" />
    <glyph glyph-name="Cdotaccent" unicode="&#x10a;" horiz-adv-x="610" 
d="M417 738h-240v145h240v-145zM143.5 32q-66.5 43 -94.5 124q-22 53 -22 184q0 133 22 184q28 81 94.5 124t162.5 43q72 0 130 -27.5t96 -80.5q39 -54 47 -138h-221q-2 30 -14 43t-39 13q-19 0 -32 -9.5t-16 -27.5q-8 -40 -8 -124q0 -83 8 -123q6 -38 48 -38q48 0 55 55
l219 1q-17 -124 -87 -185t-186 -61q-96 0 -162.5 43z" />
    <glyph glyph-name="cdotaccent" unicode="&#x10b;" horiz-adv-x="496" 
d="M385 529h-240v145h240v-145zM34 353q21 72 81 109.5t153 37.5q78 0 142 -39t87 -100l-171 -74q-6 24 -19.5 37t-31.5 13q-32 0 -37 -24q-7 -14 -7 -68q0 -51 7 -66q5 -27 37 -27q34 0 51 53l171 -72q-27 -64 -90.5 -104t-138.5 -40q-93 0 -153 37.5t-81 109.5
q-15 41 -15 109q0 69 15 108z" />
    <glyph glyph-name="Ccaron" unicode="&#x10c;" horiz-adv-x="610" 
d="M365 727h-135l-133 162h149l52 -52l53 52h150zM143.5 32q-66.5 43 -94.5 124q-22 53 -22 184q0 133 22 184q28 81 94.5 124t162.5 43q72 0 130 -27.5t96 -80.5q39 -54 47 -138h-221q-2 30 -14 43t-39 13q-19 0 -32 -9.5t-16 -27.5q-8 -40 -8 -124q0 -83 8 -123
q6 -38 48 -38q48 0 55 55l219 1q-17 -124 -87 -185t-186 -61q-96 0 -162.5 43z" />
    <glyph glyph-name="ccaron" unicode="&#x10d;" horiz-adv-x="496" 
d="M322 695h149l-135 -163h-136l-134 163h149l53 -53zM34 353q21 72 81 109.5t153 37.5q78 0 142 -39t87 -100l-171 -74q-6 24 -19.5 37t-31.5 13q-32 0 -37 -24q-7 -14 -7 -68q0 -51 7 -66q5 -27 37 -27q34 0 51 53l171 -72q-27 -64 -90.5 -104t-138.5 -40q-93 0 -153 37.5
t-81 109.5q-15 41 -15 109q0 69 15 108z" />
    <glyph glyph-name="Dcaron" unicode="&#x10e;" horiz-adv-x="636" 
d="M361 727h-136l-132 162h149l51 -52l54 52h149zM40 680h288q119 0 182.5 -44.5t79.5 -119.5q14 -72 14 -176q0 -80 -6 -130t-25 -90t-58 -71q-59 -49 -187 -49h-288v680zM283 194q80 0 88 47q9 35 9 99q0 68 -9 99q-7 48 -88 48h-23v-293h23z" />
    <glyph glyph-name="dcaron" unicode="&#x10f;" horiz-adv-x="608" 
d="M318 47q-34 -58 -125 -58q-119 0 -157 116q-17 63 -17 140t17 139q38 116 157 116q89 0 125 -58v238h210v-680h-210v47zM697 543l-148 -101v238h148v-137zM310 176q8 24 8 69q0 37 -6 65q-4 15 -12 21t-22 6q-18 0 -27 -6t-13 -21q-7 -21 -7 -65t7 -66q4 -15 13 -21
t27 -6q24 0 32 24z" />
    <glyph glyph-name="Dcroat" unicode="&#x110;" horiz-adv-x="636" 
d="M40 267h-38v153h38v260h288q119 0 182.5 -44.5t79.5 -119.5q14 -72 14 -176q0 -80 -6 -130t-25 -90t-58 -71q-59 -49 -187 -49h-288v267zM283 194q80 0 88 47q9 35 9 99q0 68 -9 99q-7 48 -88 48h-23v-67h64v-153h-64v-73h23z" />
    <glyph glyph-name="dslash" unicode="&#x111;" horiz-adv-x="566" 
d="M318 41q-17 -25 -49 -38.5t-76 -13.5q-119 0 -157 116q-17 63 -17 140t17 139q38 116 157 116q44 0 76 -13.5t49 -38.5v82h-101v124h101v26h210v-26h20v-124h-20v-530h-210v41zM310 176q8 24 8 69q0 37 -6 65q-4 15 -12 21t-22 6q-18 0 -27 -6t-13 -21q-7 -21 -7 -65
t7 -66q4 -15 13 -21t27 -6q24 0 32 24z" />
    <glyph glyph-name="Emacron" unicode="&#x112;" horiz-adv-x="553" 
d="M455 744h-353v133h353v-133zM521 0h-481v680h481v-179h-261v-70h212v-176h-212v-75h261v-180z" />
    <glyph glyph-name="emacron" unicode="&#x113;" horiz-adv-x="542" 
d="M94 679h353v-134h-353v134zM122.5 27q-63.5 38 -86.5 110q-17 53 -17 108q0 69 16 108q23 71 84 109t152 38q90 0 151.5 -37.5t84.5 -105.5q17 -62 17 -132q0 -31 -1 -37h-303q4 -13 7 -16q9 -18 27.5 -26t52.5 -8q52 0 110 40l101 -103q-54 -45 -110.5 -65.5
t-124.5 -20.5q-97 0 -160.5 38zM323 303q0 22 -4 34t-13 19q-10 7 -34 7q-39 0 -46 -31q-3 -12 -3 -29h100z" />
    <glyph glyph-name="Ebreve" unicode="&#x114;" horiz-adv-x="553" 
d="M189.5 738q-39.5 19 -62.5 53q-24 33 -24 73q0 8 2 22h103q14 -45 67 -45q24 0 42.5 12t25.5 33h106q3 -48 -19.5 -86.5t-64.5 -59.5q-40 -21 -90 -21q-46 0 -85.5 19zM521 0h-481v680h481v-179h-261v-70h212v-176h-212v-75h261v-180z" />
    <glyph glyph-name="ebreve" unicode="&#x115;" horiz-adv-x="542" 
d="M185.5 547.5q-39.5 18.5 -62.5 51.5q-24 33 -24 74l2 23h103q16 -46 68 -46q22 0 42.5 13t27.5 33h104q2 -50 -20 -87.5t-64 -58.5q-40 -21 -90 -21q-47 0 -86.5 18.5zM122.5 27q-63.5 38 -86.5 110q-17 53 -17 108q0 69 16 108q23 71 84 109t152 38q90 0 151.5 -37.5
t84.5 -105.5q17 -62 17 -132q0 -31 -1 -37h-303q4 -13 7 -16q9 -18 27.5 -26t52.5 -8q52 0 110 40l101 -103q-54 -45 -110.5 -65.5t-124.5 -20.5q-97 0 -160.5 38zM323 303q0 22 -4 34t-13 19q-10 7 -34 7q-39 0 -46 -31q-3 -12 -3 -29h100z" />
    <glyph glyph-name="Edotaccent" unicode="&#x116;" horiz-adv-x="553" 
d="M392 738h-240v145h240v-145zM521 0h-481v680h481v-179h-261v-70h212v-176h-212v-75h261v-180z" />
    <glyph glyph-name="edotaccent" unicode="&#x117;" horiz-adv-x="542" 
d="M150 674h240v-145h-240v145zM122.5 27q-63.5 38 -86.5 110q-17 53 -17 108q0 69 16 108q23 71 84 109t152 38q90 0 151.5 -37.5t84.5 -105.5q17 -62 17 -132q0 -31 -1 -37h-303q4 -13 7 -16q9 -18 27.5 -26t52.5 -8q52 0 110 40l101 -103q-54 -45 -110.5 -65.5
t-124.5 -20.5q-97 0 -160.5 38zM323 303q0 22 -4 34t-13 19q-10 7 -34 7q-39 0 -46 -31q-3 -12 -3 -29h100z" />
    <glyph glyph-name="Eogonek" unicode="&#x118;" horiz-adv-x="553" 
d="M260 501v-70h212v-176h-212v-75h261v-180h-17q-31 -9 -62 -16q-26 -4 -45 -11q-13 -6 -13 -17q0 -12 12 -15q14 -3 37 -2l-4 -125h-32q-81 0 -122 12q-37 11 -51 29t-14 52q0 27 12.5 46.5t48.5 46.5h-231v680h481v-179h-261z" />
    <glyph glyph-name="eogonek" unicode="&#x119;" horiz-adv-x="542" 
d="M220 188q4 -13 7 -16q9 -18 27.5 -26t52.5 -8q52 0 110 40l101 -103q-38 -34 -91 -58q-48 -38 -48 -61q0 -12 12 -15q14 -3 37 -2l-4 -125h-32q-81 0 -122 12q-37 11 -51 29t-14 52q0 26 10.5 44t37.5 39q-85 5 -140.5 42.5t-76.5 104.5q-17 53 -17 108q0 69 16 108
q23 71 84 109t152 38q90 0 151.5 -37.5t84.5 -105.5q17 -62 17 -132q0 -31 -1 -37h-303zM323 303q0 22 -4 34t-13 19q-10 7 -34 7q-39 0 -46 -31q-3 -12 -3 -29h100z" />
    <glyph glyph-name="Ecaron" unicode="&#x11a;" horiz-adv-x="553" 
d="M344 727h-136l-131 162h149l50 -52l54 52h149zM521 0h-481v680h481v-179h-261v-70h212v-176h-212v-75h261v-180z" />
    <glyph glyph-name="ecaron" unicode="&#x11b;" horiz-adv-x="542" 
d="M474 695l-135 -163h-136l-134 163h149l53 -53l54 53h149zM122.5 27q-63.5 38 -86.5 110q-17 53 -17 108q0 69 16 108q23 71 84 109t152 38q90 0 151.5 -37.5t84.5 -105.5q17 -62 17 -132q0 -31 -1 -37h-303q4 -13 7 -16q9 -18 27.5 -26t52.5 -8q52 0 110 40l101 -103
q-54 -45 -110.5 -65.5t-124.5 -20.5q-97 0 -160.5 38zM323 303q0 22 -4 34t-13 19q-10 7 -34 7q-39 0 -46 -31q-3 -12 -3 -29h100z" />
    <glyph glyph-name="Gcircumflex" unicode="&#x11c;" horiz-adv-x="631" 
d="M266 732h-152l131 166h136l135 -166h-149l-54 53zM144.5 32.5q-69.5 43.5 -95.5 124.5q-22 66 -22 183q0 125 26.5 196t92.5 112q70 43 170 43q122 0 197 -62t86 -184h-221q-6 56 -62 56q-27 0 -44 -15t-19 -41q-4 -47 -4 -105q0 -52 8 -121q3 -21 16.5 -30.5t42.5 -9.5
q22 0 37 8.5t19 24.5q5 15 5 20h-50v156h277v-58q0 -109 -26.5 -181t-89.5 -113q-74 -47 -172 -47q-102 0 -171.5 43.5z" />
    <glyph glyph-name="gcircumflex" unicode="&#x11d;" horiz-adv-x="561" 
d="M209 704h136l135 -166h-149l-54 52l-47 -52h-152zM268 486q32 -14 45 -41v44h210v-382q0 -108 -29.5 -173.5t-90.5 -94.5q-61 -30 -161 -30q-65 0 -120 21t-89 61l115 123q48 -42 95 -42q70 0 70 87v36q-30 -61 -123 -61q-66 0 -102 27t-55 90q-16 55 -16 116
q0 96 34 164.5t139 68.5q46 0 78 -14zM232 307l-2 -22q-2 -43 2 -59q6 -26 40 -26q15 0 24 6t13 21q4 13 4 40q0 36 -9 53t-32 17q-32 0 -40 -30z" />
    <glyph glyph-name="Gbreve" unicode="&#x11e;" horiz-adv-x="631" 
d="M231 738q-40 19 -63 53q-24 33 -24 73l2 22h103q14 -45 68 -45q22 0 41 12.5t26 32.5h107q2 -48 -20 -86.5t-64 -59.5q-40 -21 -90 -21q-46 0 -86 19zM144.5 32.5q-69.5 43.5 -95.5 124.5q-22 66 -22 183q0 125 26.5 196t92.5 112q70 43 170 43q122 0 197 -62t86 -184
h-221q-6 56 -62 56q-27 0 -44 -15t-19 -41q-4 -47 -4 -105q0 -52 8 -121q3 -21 16.5 -30.5t42.5 -9.5q22 0 37 8.5t19 24.5q5 15 5 20h-50v156h277v-58q0 -109 -26.5 -181t-89.5 -113q-74 -47 -172 -47q-102 0 -171.5 43.5z" />
    <glyph glyph-name="gbreve" unicode="&#x11f;" horiz-adv-x="561" 
d="M452 696q3 -48 -19.5 -87t-64.5 -59q-41 -21 -90 -21q-46 0 -85.5 19t-62.5 53q-24 33 -24 73q0 8 2 22h103q13 -46 67 -46q24 0 42.5 12.5t25.5 33.5h106zM268 486q32 -14 45 -41v44h210v-382q0 -108 -29.5 -173.5t-90.5 -94.5q-61 -30 -161 -30q-65 0 -120 21t-89 61
l115 123q48 -42 95 -42q70 0 70 87v36q-30 -61 -123 -61q-66 0 -102 27t-55 90q-16 55 -16 116q0 96 34 164.5t139 68.5q46 0 78 -14zM232 307l-2 -22q-2 -43 2 -59q6 -26 40 -26q15 0 24 6t13 21q4 13 4 40q0 36 -9 53t-32 17q-32 0 -40 -30z" />
    <glyph glyph-name="Gdotaccent" unicode="&#x120;" horiz-adv-x="631" 
d="M436 738h-240v145h240v-145zM144.5 32.5q-69.5 43.5 -95.5 124.5q-22 66 -22 183q0 125 26.5 196t92.5 112q70 43 170 43q122 0 197 -62t86 -184h-221q-6 56 -62 56q-27 0 -44 -15t-19 -41q-4 -47 -4 -105q0 -52 8 -121q3 -21 16.5 -30.5t42.5 -9.5q22 0 37 8.5t19 24.5
q5 15 5 20h-50v156h277v-58q0 -109 -26.5 -181t-89.5 -113q-74 -47 -172 -47q-102 0 -171.5 43.5z" />
    <glyph glyph-name="gdotaccent" unicode="&#x121;" horiz-adv-x="561" 
d="M398 531h-240v146h240v-146zM122 -170q-55 21 -89 61l115 123q48 -42 95 -42q70 0 70 87v36q-30 -61 -123 -61q-66 0 -102 27t-55 90q-16 55 -16 116q0 96 34 164.5t139 68.5q46 0 78 -14t45 -41v44h210v-382q0 -108 -29.5 -173.5t-90.5 -94.5q-61 -30 -161 -30
q-65 0 -120 21zM296 206q9 6 13 21q4 13 4 40q0 36 -9 53t-32 17q-32 0 -40 -30l-2 -22q-2 -43 2 -59q6 -26 40 -26q15 0 24 6z" />
    <glyph glyph-name="Gcommaaccent" unicode="&#x122;" horiz-adv-x="631" 
d="M513 629q75 -62 86 -184h-221q-6 56 -62 56q-27 0 -44 -15t-19 -41q-4 -47 -4 -105q0 -52 8 -121q3 -21 16.5 -30.5t42.5 -9.5q22 0 37 8.5t19 24.5q5 15 5 20h-50v156h277v-58q0 -109 -26.5 -181t-89.5 -113q-74 -47 -172 -47q-102 0 -171.5 43.5t-95.5 124.5
q-22 66 -22 183q0 125 26.5 196t92.5 112q70 43 170 43q122 0 197 -62zM230 -40h169v-130l-169 -121v251z" />
    <glyph glyph-name="gcommaaccent" unicode="&#x123;" horiz-adv-x="561" 
d="M364 534h-169v130l169 127v-257zM122 -170q-55 21 -89 61l115 123q48 -42 95 -42q70 0 70 87v36q-30 -61 -123 -61q-66 0 -102 27t-55 90q-16 55 -16 116q0 96 34 164.5t139 68.5q46 0 78 -14t45 -41v44h210v-382q0 -108 -29.5 -173.5t-90.5 -94.5q-61 -30 -161 -30
q-65 0 -120 21zM296 206q9 6 13 21q4 13 4 40q0 36 -9 53t-32 17q-32 0 -40 -30l-2 -22q-2 -43 2 -59q6 -26 40 -26q15 0 24 6z" />
    <glyph glyph-name="Hcircumflex" unicode="&#x124;" horiz-adv-x="661" 
d="M284 732h-153l132 166h135l136 -166h-149l-54 53zM260 0h-220v680h220v-238h141v238h220v-680h-220v248h-141v-248z" />
    <glyph glyph-name="hcircumflex" unicode="&#x125;" horiz-adv-x="566" 
d="M492 732h-149l-54 53l-47 -53h-153l132 166h135zM319 288q0 24 -8.5 35t-26.5 11q-36 0 -36 -46v-288h-210v680h210v-233q25 28 53.5 40.5t67.5 12.5q82 0 121 -45t39 -137v-318h-210v288z" />
    <glyph glyph-name="Hbar" unicode="&#x126;" horiz-adv-x="661" 
d="M260 0h-220v501h-41v119h41v60h220v-60h141v60h220v-60h40v-119h-40v-501h-220v248h-141v-248zM260 501v-59h141v59h-141z" />
    <glyph glyph-name="hbar" unicode="&#x127;" horiz-adv-x="566" 
d="M319 288q0 24 -8.5 35t-26.5 11q-36 0 -36 -46v-288h-210v530h-20v124h20v26h210v-26h102v-124h-102v-81q40 51 121 51q82 0 121 -45t39 -137v-318h-210v288z" />
    <glyph glyph-name="Itilde" unicode="&#x128;" horiz-adv-x="300" 
d="M-26 854q20 22 47 34.5t51 12.5q40 0 95 -23q33 -18 60 -18q60 0 96 39v-123q-16 -21 -45 -35.5t-56 -14.5q-40 0 -95 23q-27 18 -63 18q-18 0 -43 -11t-47 -27v125zM260 0h-220v680h220v-680z" />
    <glyph glyph-name="itilde" unicode="&#x129;" horiz-adv-x="286" 
d="M122 557q-27 18 -63 18q-15 0 -41.5 -11t-48.5 -27v124q20 23 46.5 35.5t51.5 12.5q44 0 95 -24q33 -18 60 -18q60 0 96 39v-123q-16 -21 -45 -35.5t-56 -14.5q-44 0 -95 24zM248 0h-210v489h210v-489z" />
    <glyph glyph-name="Imacron" unicode="&#x12a;" horiz-adv-x="300" 
d="M325 744h-353v133h353v-133zM260 0h-220v680h220v-680z" />
    <glyph glyph-name="imacron" unicode="&#x12b;" horiz-adv-x="286" 
d="M320 545h-353v134h353v-134zM248 0h-210v489h210v-489z" />
    <glyph glyph-name="Ibreve" unicode="&#x12c;" horiz-adv-x="300" 
d="M60 738q-40 19 -63 53q-24 33 -24 73l2 22h103q14 -45 68 -45q22 0 41 12.5t26 32.5h107q2 -48 -20 -86.5t-64 -59.5q-41 -21 -90 -21q-46 0 -86 19zM260 0h-220v680h220v-680z" />
    <glyph glyph-name="ibreve" unicode="&#x12d;" horiz-adv-x="286" 
d="M76 693q14 -45 67 -45q24 0 42.5 12t25.5 33h106q3 -48 -19.5 -86.5t-64.5 -59.5q-41 -21 -90 -21q-46 0 -85.5 19t-62.5 53q-24 33 -24 73q0 19 1 22h104zM248 0h-210v489h210v-489z" />
    <glyph glyph-name="Iogonek" unicode="&#x12e;" horiz-adv-x="300" 
d="M151 -59q14 -3 37 -2l-4 -125h-32q-79 0 -116 10q-40 10 -55.5 27.5t-15.5 51.5t29 61l46 36v680h220v-680q-40 -11 -63 -16q-26 -4 -45 -11q-13 -6 -13 -17q0 -12 12 -15z" />
    <glyph glyph-name="iogonek" unicode="&#x12f;" horiz-adv-x="286" 
d="M38 531v149h210v-149h-210zM38 489h210v-489q-46 -16 -59 -29q-14 -14 -14 -28q0 7 -7 7q-4 0 -4 -2q0 -5 15 -6q17 -3 44 -2l-3 -125q-78 0 -123 5q-46 6 -71 23t-25 53q0 10 -3 25q-3 10 -3 20q0 15 9.5 28t33.5 31v489z" />
    <glyph glyph-name="Idot" unicode="&#x130;" horiz-adv-x="300" 
d="M266 738h-240v145h240v-145zM260 0h-220v680h220v-680z" />
    <glyph glyph-name="dotlessi" unicode="&#x131;" horiz-adv-x="286" 
d="M248 0h-210v489h210v-489z" />
    <glyph glyph-name="IJ" unicode="&#x132;" horiz-adv-x="856" 
d="M260 0h-220v680h220v-680zM394.5 19.5q-63.5 30.5 -87.5 80.5l152 120q17 -22 33.5 -31.5t36.5 -9.5q31 0 49.5 21.5t18.5 56.5v423h219v-398q0 -148 -69.5 -220.5t-210.5 -72.5q-78 0 -141.5 30.5z" />
    <glyph glyph-name="ij" unicode="&#x133;" horiz-adv-x="572" 
d="M248 531h-210v149h210v-149zM534 531h-210v149h210v-149zM248 0h-210v489h210v-489zM250 -17h25q29 0 39 10.5t10 43.5v452h210v-454q0 -109 -56.5 -162t-171.5 -53h-56v163z" />
    <glyph glyph-name="Jcircumflex" unicode="&#x134;" horiz-adv-x="556" 
d="M358 732h-153l132 166h135l136 -166h-149l-54 53zM100 19.5q-63 30.5 -87 80.5l152 120q29 -41 70 -41q30 0 48.5 21.5t18.5 56.5v423h220v-398q0 -148 -70 -220.5t-211 -72.5q-78 0 -141 30.5z" />
    <glyph glyph-name="jcircumflex" unicode="&#x135;" horiz-adv-x="311" 
d="M365 538h-149l-54 52l-47 -52h-153l132 166h136zM-36 -17h25q29 0 39 10.5t10 43.5v452h210v-454q0 -109 -56.5 -162t-171.5 -53h-56v163z" />
    <glyph glyph-name="Kcommaaccent" unicode="&#x136;" horiz-adv-x="675" 
d="M260 0h-220v680h220v-239l158 239h244l-201 -281l207 -399h-258l-99 228l-51 -77v-151zM423 -170l-170 -121v251h170v-130z" />
    <glyph glyph-name="kcommaaccent" unicode="&#x137;" horiz-adv-x="554" 
d="M38 680h210v-314l80 123h219l-144 -168l157 -321h-224l-75 188l-13 -30v-158h-210v680zM192 -40h169v-130l-169 -121v251z" />
    <glyph glyph-name="kgreenlandic" unicode="&#x138;" horiz-adv-x="554" 
d="M560 0h-220l-79 188l-13 -30v-158h-210v489h210v-123l82 123h214l-141 -168z" />
    <glyph glyph-name="Lacute" unicode="&#x139;" horiz-adv-x="563" 
d="M236 729h-166l94 163h200zM546 0h-506v680h220v-486h286v-194z" />
    <glyph glyph-name="lacute" unicode="&#x13a;" horiz-adv-x="337" 
d="M227 729h-166l94 163h200zM231 -6q-72 0 -113.5 19.5t-61.5 61.5q-20 45 -20 113v492h210v-468q0 -22 11.5 -36.5t30.5 -14.5h29v-167h-86z" />
    <glyph glyph-name="Lcommaaccent" unicode="&#x13b;" horiz-adv-x="563" 
d="M546 0h-506v680h220v-486h286v-194zM359 -170l-169 -121v251h169v-130z" />
    <glyph glyph-name="lcommaaccent" unicode="&#x13c;" horiz-adv-x="337" 
d="M231 -6q-72 0 -113.5 19.5t-61.5 61.5q-20 45 -20 113v492h210v-468q0 -22 11.5 -36.5t30.5 -14.5h29v-167h-86zM271 -170l-170 -121v251h170v-130z" />
    <glyph glyph-name="Lcaron" unicode="&#x13d;" horiz-adv-x="563" 
d="M546 0h-506v680h220v-486h286v-194zM489 551l-170 -121v250h170v-129z" />
    <glyph glyph-name="lcaron" unicode="&#x13e;" horiz-adv-x="340" 
d="M231 -6q-72 0 -113.5 19.5t-61.5 61.5q-20 45 -20 113v492h210v-468q0 -22 11.5 -36.5t30.5 -14.5h29v-167h-86zM440 551l-170 -121v250h170v-129z" />
    <glyph glyph-name="Ldot" unicode="&#x13f;" horiz-adv-x="563" 
d="M546 0h-506v680h220v-486h286v-194zM593 224h-254v219h254v-219z" />
    <glyph glyph-name="ldot" unicode="&#x140;" horiz-adv-x="465" 
d="M231 -6q-72 0 -113.5 19.5t-61.5 61.5q-20 45 -20 113v492h210v-468q0 -22 11.5 -36.5t30.5 -14.5h29v-167h-86zM538 252h-254v219h254v-219z" />
    <glyph glyph-name="Lslash" unicode="&#x141;" horiz-adv-x="563" 
d="M546 0h-506v235l-44 -23v146l44 23v299h220v-206l137 68v-147l-137 -67v-134h286v-194z" />
    <glyph glyph-name="lslash" unicode="&#x142;" horiz-adv-x="340" 
d="M246 320v-108q0 -22 11.5 -36.5t30.5 -14.5h29v-167h-86q-72 0 -113.5 19.5t-61.5 61.5q-20 45 -20 113v36l-40 -19v148l40 18v309h210v-212l71 34v-147z" />
    <glyph glyph-name="Nacute" unicode="&#x143;" horiz-adv-x="650" 
d="M295 892h200l-128 -163h-166zM412 680h198v-680h-210l-162 349v-349h-198v680h211l161 -349v349z" />
    <glyph glyph-name="nacute" unicode="&#x144;" horiz-adv-x="566" 
d="M328 541h-169l94 163h200zM319 288q0 24 -8.5 35t-26.5 11q-36 0 -36 -46v-288h-210v489h210v-42q23 28 52 40.5t69 12.5q82 0 121 -45t39 -137v-318h-210v288z" />
    <glyph glyph-name="Ncommaaccent" unicode="&#x145;" horiz-adv-x="650" 
d="M412 680h198v-680h-210l-162 349v-349h-198v680h211l161 -349v349zM239 -40h169v-130l-169 -121v251z" />
    <glyph glyph-name="ncommaaccent" unicode="&#x146;" horiz-adv-x="566" 
d="M319 288q0 24 -8.5 35t-26.5 11q-36 0 -36 -46v-288h-210v489h210v-42q23 28 52 40.5t69 12.5q82 0 121 -45t39 -137v-318h-210v288zM368 -170l-169 -121v251h169v-130z" />
    <glyph glyph-name="Ncaron" unicode="&#x147;" horiz-adv-x="650" 
d="M372 889h149l-135 -162h-136l-131 162h149l50 -52zM412 680h198v-680h-210l-162 349v-349h-198v680h211l161 -349v349z" />
    <glyph glyph-name="ncaron" unicode="&#x148;" horiz-adv-x="566" 
d="M341 698h149l-135 -162h-136l-131 162h149l50 -52zM319 288q0 24 -8.5 35t-26.5 11q-36 0 -36 -46v-288h-210v489h210v-42q23 28 52 40.5t69 12.5q82 0 121 -45t39 -137v-318h-210v288z" />
    <glyph glyph-name="napostrophe" unicode="&#x149;" horiz-adv-x="566" 
d="M102 551l-170 -121v250h170v-129zM319 288q0 24 -8.5 35t-26.5 11q-36 0 -36 -46v-288h-210v489h210v-42q23 28 52 40.5t69 12.5q82 0 121 -45t39 -137v-318h-210v288z" />
    <glyph glyph-name="Eng" unicode="&#x14a;" horiz-adv-x="650" 
d="M306 -15h19q19 0 42.5 9t26.5 16l-156 339v-349h-198v680h211l161 -349v349h198v-621q0 -253 -251 -253h-53v179z" />
    <glyph glyph-name="eng" unicode="&#x14b;" horiz-adv-x="566" 
d="M252 -180v163h22q27 0 36 9.5t9 40.5v255q0 24 -8.5 35t-26.5 11q-36 0 -36 -46v-288h-210v489h210v-42q47 53 121 53q82 0 121 -45t39 -137v-283q0 -114 -52.5 -164.5t-168.5 -50.5h-56z" />
    <glyph glyph-name="Omacron" unicode="&#x14c;" horiz-adv-x="631" 
d="M493 744h-353v133h353v-133zM146.5 33q-71.5 44 -97.5 124q-22 66 -22 183q0 126 27 197t94 111q70 43 169 43q97 0 168 -44.5t97 -122.5q22 -66 22 -184q0 -126 -26 -196.5t-93 -110.5q-74 -44 -168 -44q-99 0 -170.5 44zM374 219q8 46 8 121t-8 121q-6 21 -19.5 30.5
t-37.5 9.5q-26 0 -40.5 -9.5t-19.5 -30.5q-8 -34 -8 -145q0 -49 4.5 -75.5t18.5 -43.5q14 -18 45 -18q47 0 57 40z" />
    <glyph glyph-name="omacron" unicode="&#x14d;" horiz-adv-x="548" 
d="M453 543h-353v134h353v-134zM120.5 26.5q-62.5 37.5 -85.5 106.5q-16 49 -16 112q0 158 102 218q61 37 152 37q93 0 155 -37t85 -106q16 -51 16 -112q0 -256 -256 -256q-90 0 -152.5 37.5zM299 157.5q8 5.5 11 19.5q7 29 7 68t-7 68q-2 13 -10.5 18.5t-26.5 5.5
q-16 0 -24 -5.5t-11 -18.5q-7 -22 -7 -68t7 -68q2 -13 10 -19t25 -6q18 0 26 5.5z" />
    <glyph glyph-name="Obreve" unicode="&#x14e;" horiz-adv-x="631" 
d="M236 738q-40 19 -63 53q-24 33 -24 73l2 22h103q14 -45 68 -45q22 0 41 12.5t26 32.5h107q2 -48 -20 -86.5t-64 -59.5q-41 -21 -90 -21q-46 0 -86 19zM146.5 33q-71.5 44 -97.5 124q-22 66 -22 183q0 126 27 197t94 111q70 43 169 43q97 0 168 -44.5t97 -122.5
q22 -66 22 -184q0 -126 -26 -196.5t-93 -110.5q-74 -44 -168 -44q-99 0 -170.5 44zM351.5 189.5q13.5 9.5 18.5 30.5q3 12 6 44t3 77q0 87 -9 121q-5 21 -19 30.5t-38 9.5q-26 0 -40 -9.5t-19 -30.5q-9 -34 -9 -121q0 -43 3 -78t8 -50q10 -33 57 -33q25 0 38.5 9.5z" />
    <glyph glyph-name="obreve" unicode="&#x14f;" horiz-adv-x="548" 
d="M208 693q13 -46 67 -46q24 0 42.5 12.5t25.5 33.5h106q3 -48 -19.5 -87t-64.5 -59q-40 -21 -90 -21q-46 0 -85.5 19t-62.5 53q-24 33 -24 73l2 22h103zM120.5 26.5q-62.5 37.5 -85.5 106.5q-16 49 -16 112q0 158 102 218q61 37 152 37q93 0 155 -37t85 -106
q16 -51 16 -112q0 -256 -256 -256q-90 0 -152.5 37.5zM298.5 157.5q7.5 5.5 11.5 19.5q7 20 7 68q0 47 -7 68q-4 13 -12 18.5t-25 5.5q-16 0 -24 -5.5t-11 -18.5q-7 -22 -7 -68t7 -68q2 -13 10 -19t25 -6q18 0 25.5 5.5z" />
    <glyph glyph-name="Ohungarumlaut" unicode="&#x150;" horiz-adv-x="631" 
d="M286 717h-149l82 166h166zM489 717h-149l82 166h167zM146.5 33q-71.5 44 -97.5 124q-22 66 -22 183q0 126 27 197t94 111q70 43 169 43q97 0 168 -44.5t97 -122.5q22 -66 22 -184q0 -126 -26 -196.5t-93 -110.5q-74 -44 -168 -44q-99 0 -170.5 44zM374 219q8 46 8 121
t-8 121q-5 21 -19 30.5t-38 9.5q-26 0 -40.5 -9.5t-19.5 -30.5q-8 -46 -8 -121q0 -66 3 -96q3 -32 18 -48.5t47 -16.5q47 0 57 40z" />
    <glyph glyph-name="ohungarumlaut" unicode="&#x151;" horiz-adv-x="548" 
d="M242 534h-149l82 166h167zM446 534h-149l82 166h166zM120.5 26.5q-62.5 37.5 -85.5 106.5q-16 49 -16 112q0 158 102 218q61 37 152 37q93 0 155 -37t85 -106q16 -51 16 -112q0 -256 -256 -256q-90 0 -152.5 37.5zM299 157.5q8 5.5 11 19.5q7 29 7 68q0 47 -7 68
q-3 13 -11 18.5t-26 5.5q-28 0 -35 -23t-7 -69q0 -48 7 -68q3 -14 11 -19.5t24 -5.5q18 0 26 5.5z" />
    <glyph glyph-name="OE" unicode="&#x152;" horiz-adv-x="895" 
d="M132.5 30.5q-57.5 41.5 -83.5 122.5q-22 70 -22 187q0 120 25.5 195.5t80.5 114.5q59 41 142 41q33 0 61.5 -9t45.5 -26v24h481v-179h-261v-70h212v-176h-212v-75h261v-180h-481v24q-41 -35 -107 -35q-85 0 -142.5 41.5zM354.5 188.5q13.5 9.5 19.5 30.5q8 34 8 121
q0 75 -8 121q-5 21 -19 30.5t-38 9.5q-26 0 -40.5 -9.5t-19.5 -30.5q-8 -34 -8 -145q0 -49 4.5 -75.5t18.5 -43.5q14 -18 45 -18q24 0 37.5 9.5z" />
    <glyph glyph-name="oe" unicode="&#x153;" horiz-adv-x="839" 
d="M424 31q-82 -42 -151 -42q-91 0 -153 38t-85 109q-16 45 -16 109q0 158 102 218q61 37 152 37q41 0 83 -11.5t66 -27.5q59 39 143 39q92 0 153.5 -37t85.5 -106q12 -51 12 -169h-296v-5q-1 -3 0 -4q6 -24 23.5 -32.5t59.5 -8.5q55 0 107 40l100 -104q-45 -41 -105.5 -63
t-127.5 -22q-92 0 -153 42zM616 303q0 24 -3 30q-7 30 -45 30q-16 0 -29 -8t-17 -22q-2 -16 -2 -30h96zM298 158.5q8 6.5 12 21.5q7 22 7 65q0 39 -7 68q-3 13 -11 18.5t-26 5.5q-28 0 -35 -23t-7 -69q0 -48 9 -70.5t33 -22.5q17 0 25 6.5z" />
    <glyph glyph-name="Racute" unicode="&#x154;" horiz-adv-x="637" 
d="M339 729h-166l94 163h200zM40 680h301q124 0 195 -60t71 -171q0 -131 -101 -194l115 -255h-240l-89 219h-32v-219h-220v680zM323 392q62 0 62 57q0 24 -16.5 38t-45.5 14h-63v-109h63z" />
    <glyph glyph-name="racute" unicode="&#x155;" horiz-adv-x="434" 
d="M292 541h-170l95 163h200zM38 489h210v-53q18 33 49.5 48.5t80.5 15.5l53 -5l-65 -210q-25 17 -40.5 23t-28.5 6l-14 -1q-35 -11 -35 -63v-250h-210v489z" />
    <glyph glyph-name="Rcommaaccent" unicode="&#x156;" horiz-adv-x="637" 
d="M40 680h301q124 0 195 -60t71 -171q0 -131 -101 -194l115 -255h-240l-89 219h-32v-219h-220v680zM323 392q62 0 62 57q0 24 -16.5 38t-45.5 14h-63v-109h63zM397 -170l-169 -121v251h169v-130z" />
    <glyph glyph-name="rcommaaccent" unicode="&#x157;" horiz-adv-x="434" 
d="M38 489h210v-53q18 33 49.5 48.5t80.5 15.5q12 0 27 -3l26 -2l-65 -210q-25 17 -40.5 23t-28.5 6l-14 -1q-35 -11 -35 -63v-250h-210v489zM230 -170l-169 -121v251h169v-130z" />
    <glyph glyph-name="Rcaron" unicode="&#x158;" horiz-adv-x="637" 
d="M357 727h-136l-131 162h149l50 -52l54 52h149zM40 680h301q124 0 195 -60t71 -171q0 -131 -101 -194l115 -255h-240l-89 219h-32v-219h-220v680zM323 392q62 0 62 57q0 24 -16.5 38t-45.5 14h-63v-109h63z" />
    <glyph glyph-name="rcaron" unicode="&#x159;" horiz-adv-x="434" 
d="M293 698h149l-135 -162h-136l-131 162h149l50 -52zM38 489h210v-53q18 33 49.5 48.5t80.5 15.5q12 0 27 -3l26 -2l-65 -210q-25 17 -40.5 23t-28.5 6l-14 -1q-35 -11 -35 -63v-250h-210v489z" />
    <glyph glyph-name="Sacute" unicode="&#x15a;" horiz-adv-x="615" 
d="M383 729h-166l94 163h200zM147 18q-98 35 -134 80l133 149q38 -36 82 -55.5t87 -19.5q31 0 49.5 10.5t18.5 28.5q0 15 -10 19q-11 5 -47 12l-36 5q-240 35 -240 229q0 103 72.5 159t195.5 56q82 0 145.5 -19.5t123.5 -64.5l-110 -153q-36 26 -75.5 40t-75.5 14
q-24 0 -37.5 -8.5t-13.5 -22.5q0 -10 4 -15.5t15 -9.5q9 -4 39 -8l36 -5q120 -14 181 -71.5t61 -156.5q0 -103 -78.5 -162.5t-216.5 -59.5q-70 0 -169 29z" />
    <glyph glyph-name="sacute" unicode="&#x15b;" horiz-adv-x="523" 
d="M334 541h-169l94 163h200zM128 7q-59 18 -122 61l94 117q49 -30 89 -41t92 -11q20 0 30 2q6 2 6 11q0 7 -8 12q-5 4 -33 8l-59 9q-87 10 -135 52.5t-48 110.5q0 74 62 118t167 44q73 0 137.5 -18t103.5 -50l-89 -113q-32 18 -65 27t-86 15h-13q-11 0 -14.5 -2.5
t-3.5 -8.5q0 -8 6 -10q6 -3 31 -7l55 -8q101 -12 146 -50t45 -112q-2 -80 -69.5 -127t-181.5 -47q-78 0 -137 18z" />
    <glyph glyph-name="Scircumflex" unicode="&#x15c;" horiz-adv-x="615" 
d="M273 732h-153l132 166h135l136 -166h-149l-54 53zM147 18q-98 35 -134 80l133 149q38 -36 82 -55.5t87 -19.5q31 0 49.5 10.5t18.5 28.5q0 15 -10 19q-11 5 -47 12l-36 5q-240 35 -240 229q0 103 72.5 159t195.5 56q82 0 145.5 -19.5t123.5 -64.5l-110 -153
q-36 26 -75.5 40t-75.5 14q-24 0 -37.5 -8.5t-13.5 -22.5q0 -12 2.5 -16t14.5 -8t41 -9l36 -5q120 -14 181 -71.5t61 -156.5q0 -103 -78.5 -162.5t-216.5 -59.5q-70 0 -169 29z" />
    <glyph glyph-name="scircumflex" unicode="&#x15d;" horiz-adv-x="523" 
d="M478 538h-149l-54 52l-47 -52h-153l132 166h136zM128 7q-59 18 -122 61l94 117q54 -30 94 -41t99 -11q15 0 19.5 3.5t4.5 15.5q0 7 -4 8t-17 4l-20 2l-59 9q-87 10 -135 52.5t-48 110.5q0 74 62 118t167 44q73 0 137.5 -18t103.5 -50l-89 -113q-76 42 -151 42l-22 1
q-6 0 -7.5 -3t-1.5 -13q0 -6 2.5 -7.5t12.5 -2.5l77 -11q101 -12 146 -50t45 -112q-2 -80 -69.5 -127t-181.5 -47q-78 0 -137 18z" />
    <glyph glyph-name="Scedilla" unicode="&#x15e;" horiz-adv-x="615" 
d="M147 18q-98 35 -134 80l133 149q38 -36 82 -55.5t87 -19.5q31 0 49.5 10.5t18.5 28.5q0 15 -10 19q-11 5 -47 12l-36 5q-240 35 -240 229q0 103 72.5 159t195.5 56q82 0 145.5 -19.5t123.5 -64.5l-110 -153q-36 26 -75.5 40t-75.5 14q-24 0 -37.5 -8.5t-13.5 -22.5
q0 -12 2.5 -16t14.5 -8t41 -9l36 -5q120 -14 181 -71.5t61 -156.5q0 -66 -37.5 -116.5t-104.5 -77.5q-65 -28 -153 -28q-70 0 -169 29zM380 -21q0 -50 -21 -92t-57 -65q-37 -22 -83 -21v119q38 0 40 59h121z" />
    <glyph glyph-name="scedilla" unicode="&#x15f;" horiz-adv-x="523" 
d="M399 481.5q65 -18.5 106 -50.5l-89 -112q-46 22 -82 32t-70 10l-22 1q-6 0 -7.5 -3t-1.5 -13q0 -6 2.5 -7.5t12.5 -2.5l77 -11q101 -12 146 -50t45 -112q-2 -80 -69.5 -127t-181.5 -47q-78 0 -137.5 18t-122.5 61l97 118q50 -31 90 -42t101 -11q15 0 19.5 3.5t4.5 15.5
q0 7 -4 8t-17 4l-20 2l-59 9q-87 10 -135 52.5t-48 110.5q0 74 62 118t167 44q71 0 136 -18.5zM342 -21q0 -50 -21 -92t-57 -65q-37 -22 -83 -21v119q38 0 40 59h121z" />
    <glyph glyph-name="Scaron" unicode="&#x160;" horiz-adv-x="615" 
d="M384 727h-136l-131 162h149l50 -52l54 52h149zM147 18q-98 35 -134 80l133 149q38 -36 82 -55.5t87 -19.5q31 0 49.5 10.5t18.5 28.5q0 15 -10 19q-11 5 -47 12l-36 5q-240 35 -240 229q0 103 72.5 159t195.5 56q82 0 145.5 -19.5t123.5 -64.5l-110 -153q-36 26 -75.5 40
t-75.5 14q-24 0 -37.5 -8.5t-13.5 -22.5q0 -12 2.5 -16t14.5 -8t41 -9l36 -5q120 -14 181 -71.5t61 -156.5q0 -103 -78.5 -162.5t-216.5 -59.5q-70 0 -169 29z" />
    <glyph glyph-name="scaron" unicode="&#x161;" horiz-adv-x="523" 
d="M318 698h149l-135 -162h-136l-131 162h149l50 -52zM128 7q-59 18 -122 61l94 117q54 -30 94 -41t99 -11q15 0 19.5 3.5t4.5 15.5q0 7 -4 8t-17 4l-20 2l-59 9q-87 10 -135 52.5t-48 110.5q0 74 62 118t167 44q73 0 137.5 -18t103.5 -50l-89 -113q-76 42 -151 42l-22 1
q-6 0 -7.5 -3t-1.5 -13q0 -6 2.5 -7.5t12.5 -2.5l77 -11q101 -12 146 -50t45 -112q-2 -80 -69.5 -127t-181.5 -47q-78 0 -137 18z" />
    <glyph glyph-name="uni0162" unicode="&#x162;" horiz-adv-x="578" 
d="M397 0h-219v487h-173v193h565v-193h-173v-487zM372 -170l-170 -121v251h170v-130z" />
    <glyph glyph-name="uni0163" unicode="&#x163;" horiz-adv-x="356" 
d="M260 -6q-76 0 -120.5 21t-63.5 67q-20 49 -20 123v141h-41v143h41v176h206v-176h73v-143h-73v-130q0 -32 9 -43.5t33 -11.5h31v-167h-75zM288 -170l-169 -121v251h169v-130z" />
    <glyph glyph-name="Tcaron" unicode="&#x164;" horiz-adv-x="578" 
d="M356 727h-136l-131 162h149l50 -52l54 52h149zM397 0h-219v487h-173v193h565v-193h-173v-487z" />
    <glyph glyph-name="tcaron" unicode="&#x165;" horiz-adv-x="395" 
d="M301 496v184h169v-63zM262 665v-176h73v-143h-73v-130q0 -32 9 -43.5t33 -11.5h31v-167h-75q-76 0 -120.5 21t-63.5 67q-20 49 -20 123v141h-41v143h41v176h206z" />
    <glyph glyph-name="Tbar" unicode="&#x166;" horiz-adv-x="578" 
d="M401 0h-220v266h-77v133h77v88h-173v193h566v-193h-173v-88h77v-133h-77v-266z" />
    <glyph glyph-name="tbar" unicode="&#x167;" horiz-adv-x="356" 
d="M262 346v-33h59v-102h-59q1 -30 9.5 -40t32.5 -10h31v-167h-75q-76 0 -120.5 21t-63.5 67q-20 49 -20 123v6h-31v102h31v33h-41v143h41v141h206v-141h73v-143h-73z" />
    <glyph glyph-name="Utilde" unicode="&#x168;" horiz-adv-x="650" 
d="M304 749q-28 18 -63 18q-18 0 -43 -11t-47 -27v125q20 22 46.5 34.5t50.5 12.5q43 0 95 -23q33 -18 61 -18q60 0 96 39v-123q-16 -22 -45 -36t-56 -14q-43 0 -95 23zM259 259q0 -38 18 -59t51 -21q31 0 47 21t16 59v421h220v-402q0 -140 -73.5 -214.5t-209.5 -74.5
q-145 0 -216.5 71t-71.5 218v402h219v-421z" />
    <glyph glyph-name="utilde" unicode="&#x169;" horiz-adv-x="562" 
d="M260 557q-28 18 -63 18q-17 0 -42 -11t-48 -27v124q20 23 46 35.5t51 12.5q46 0 95 -24q33 -18 61 -18q60 0 96 39v-123q-16 -21 -45 -35.5t-56 -14.5q-46 0 -95 24zM314 46q-39 -57 -123 -57q-79 0 -117 45.5t-38 137.5v317h210v-288q0 -19 9.5 -32t24.5 -13q18 0 26 11
t8 37v285h210v-489h-210v46z" />
    <glyph glyph-name="Umacron" unicode="&#x16a;" horiz-adv-x="650" 
d="M502 744h-353v133h353v-133zM259 259q0 -38 18 -59t51 -21q31 0 47 21t16 59v421h220v-402q0 -140 -73.5 -214.5t-209.5 -74.5q-145 0 -216.5 71t-71.5 218v402h219v-421z" />
    <glyph glyph-name="umacron" unicode="&#x16b;" horiz-adv-x="562" 
d="M458 545h-353v134h353v-134zM314 46q-39 -57 -123 -57q-79 0 -117 45.5t-38 137.5v317h210v-288q0 -19 9.5 -32t24.5 -13q18 0 26 11t8 37v285h210v-489h-210v46z" />
    <glyph glyph-name="Ubreve" unicode="&#x16c;" horiz-adv-x="650" 
d="M239 738q-40 19 -63 53q-24 33 -24 73l2 22h103q14 -45 68 -45q22 0 41 12.5t26 32.5h107q2 -48 -20 -86.5t-64 -59.5q-40 -21 -90 -21q-46 0 -86 19zM111.5 60q-71.5 71 -71.5 218v402h219v-421q0 -38 18 -59t51 -21q31 0 47 21t16 59v421h220v-402q0 -140 -73.5 -214.5
t-209.5 -74.5q-145 0 -216.5 71z" />
    <glyph glyph-name="ubreve" unicode="&#x16d;" horiz-adv-x="562" 
d="M212 693q14 -45 67 -45q24 0 42.5 12t25.5 33h106q3 -48 -19.5 -86.5t-64.5 -59.5q-40 -21 -90 -21q-46 0 -85.5 19t-62.5 53q-24 33 -24 73q0 8 2 22h103zM314 46q-39 -57 -123 -57q-79 0 -117 45.5t-38 137.5v317h210v-288q0 -19 9.5 -32t24.5 -13q18 0 26 11t8 37v285
h210v-489h-210v46z" />
    <glyph glyph-name="Uring" unicode="&#x16e;" horiz-adv-x="650" 
d="M451 820q0 -28 -10.5 -53.5t-27.5 -41.5q-36 -37 -86 -37q-24 0 -49 10t-45 27q-36 41 -36 92q0 25 9 48t27 40q18 16 42.5 24.5t50.5 8.5q54 0 87 -33q38 -35 38 -85zM362 815l5 10q-6 14 -18 22t-26 8t-26 -8t-18 -22q6 -9 6 -11l-2 -2l-4 -4q6 -16 18 -24.5t26 -8.5
t26 8.5t18 24.5q-5 5 -5 7zM259 259q0 -38 18 -59t51 -21q31 0 47 21t16 59v421h220v-402q0 -140 -73.5 -214.5t-209.5 -74.5q-145 0 -216.5 71t-71.5 218v402h219v-421z" />
    <glyph glyph-name="uring" unicode="&#x16f;" horiz-adv-x="562" 
d="M407 640q0 -27 -10.5 -52.5t-27.5 -42.5q-36 -36 -87 -36q-26 0 -50.5 9.5t-43.5 26.5q-35 41 -35 92q0 25 9 48t26 40q18 16 43 24.5t51 8.5q54 0 87 -33q38 -35 38 -85zM283 678q-19 0 -32.5 -13.5t-13.5 -30.5q0 -18 12.5 -30.5t30.5 -12.5q19 0 31.5 13t12.5 32
q0 20 -14 32q-10 10 -27 10zM524 0h-210v46q-39 -57 -123 -57q-79 0 -117 45.5t-38 137.5v317h210v-288q0 -19 9.5 -32t24.5 -13q18 0 26 11t8 37v285h210v-489z" />
    <glyph glyph-name="Uhungarumlaut" unicode="&#x170;" horiz-adv-x="650" 
d="M289 717h-149l82 166h166zM492 717h-149l82 166h167zM259 259q0 -38 18 -59t51 -21q31 0 47 21t16 59v421h220v-402q0 -140 -73.5 -214.5t-209.5 -74.5q-145 0 -216.5 71t-71.5 218v402h219v-421z" />
    <glyph glyph-name="uhungarumlaut" unicode="&#x171;" horiz-adv-x="562" 
d="M255 534h-149l82 166h166zM458 534h-149l82 166h167zM314 46q-39 -57 -123 -57q-79 0 -117 45.5t-38 137.5v317h210v-288q0 -19 9.5 -32t24.5 -13q18 0 26 11t8 37v285h210v-489h-210v46z" />
    <glyph glyph-name="Uogonek" unicode="&#x172;" horiz-adv-x="650" 
d="M611 680v-402q0 -119 -52 -190.5t-152 -91.5q-39 -17 -39 -40q0 -12 12 -15q14 -3 37 -2l-4 -125h-32q-81 0 -122 12q-37 11 -51 29t-14 52q0 27 12 45.5t43 42.5q-209 36 -209 283v402h219v-421q0 -38 18 -59t51 -21q31 0 47 21t16 59v421h220z" />
    <glyph glyph-name="uogonek" unicode="&#x173;" horiz-adv-x="565" 
d="M524 0q-15 -5 -16 -5l-15 -4q-37 -11 -44 -15q-10 -6 -10 -20q0 -12 12 -15q14 -3 37 -2l-4 -125h-32q-84 0 -125 12q-37 11 -50 29.5t-13 56.5q0 28 11 47.5t39 40.5v45q-20 -29 -50 -42.5t-73 -13.5q-79 0 -117 45.5t-38 137.5v317h210v-288q0 -19 9.5 -32t24.5 -13
q18 0 26 11t8 37v285h210v-489z" />
    <glyph glyph-name="Wcircumflex" unicode="&#x174;" horiz-adv-x="960" 
d="M685 732h-149l-54 53l-47 -53h-153l132 166h135zM760 0h-185l-92 329l-93 -329h-182l-210 680h241l76 -361l92 361h151l99 -361l70 361h239z" />
    <glyph glyph-name="wcircumflex" unicode="&#x175;" horiz-adv-x="788" 
d="M600 538h-149l-54 52l-47 -52h-153l132 166h136zM623 0h-163l-62 227l-67 -227h-159l-169 489h214l52 -227l64 227h138l56 -227l50 227h214z" />
    <glyph glyph-name="Ycircumflex" unicode="&#x176;" horiz-adv-x="648" 
d="M256 898h135l136 -166h-149l-54 53l-47 -53h-153zM432 680h220l-216 -426v-254h-219v254l-216 426h224l105 -221z" />
    <glyph glyph-name="ycircumflex" unicode="&#x177;" horiz-adv-x="562" 
d="M213 704h136l135 -166h-149l-54 52l-47 -52h-153zM339 -69q-26 -60 -71 -89q-43 -22 -123 -22h-51v163h38q24 0 36 7.5t15 25.5l11 23l-195 450h222l71 -205l59 205h218z" />
    <glyph glyph-name="Ydieresis" unicode="&#x178;" horiz-adv-x="648" 
d="M146 883h153v-145h-153v145zM357 883h152v-145h-152v145zM432 680h220l-216 -426v-254h-219v254l-216 426h224l105 -221z" />
    <glyph glyph-name="Zacute" unicode="&#x179;" horiz-adv-x="581" 
d="M349 729h-166l94 163h200zM551 0h-523v186l262 301h-251v193h512v-188l-265 -298h265v-194z" />
    <glyph glyph-name="zacute" unicode="&#x17a;" horiz-adv-x="503" 
d="M312 541h-169l94 163h200zM472 158v-158h-441v152l195 180h-182v157h428v-154l-196 -177h196z" />
    <glyph glyph-name="Zdotaccent" unicode="&#x17b;" horiz-adv-x="581" 
d="M410 738h-240v145h240v-145zM551 0h-523v186l262 301h-251v193h512v-188l-265 -298h265v-194z" />
    <glyph glyph-name="zdotaccent" unicode="&#x17c;" horiz-adv-x="503" 
d="M376 531h-240v146h240v-146zM472 158v-158h-441v152l195 180h-182v157h428v-154l-196 -177h196z" />
    <glyph glyph-name="Zcaron" unicode="&#x17d;" horiz-adv-x="581" 
d="M345 889h149l-135 -162h-136l-132 162h149l51 -52zM551 0h-523v186l262 301h-251v193h512v-188l-265 -298h265v-194z" />
    <glyph glyph-name="zcaron" unicode="&#x17e;" horiz-adv-x="503" 
d="M310 692h149l-135 -162h-136l-132 162h149l51 -50zM472 158v-158h-441v152l195 180h-182v157h428v-154l-196 -177h196z" />
    <glyph glyph-name="florin" unicode="&#x192;" 
d="M395 286l-41 -272q-12 -73 -38.5 -115t-72.5 -60q-44 -19 -120 -19h-52v167h34q40 0 46 42l38 257h-61v151h85l7 50q12 72 39.5 114.5t73.5 60.5t116 18h54v-167h-34q-20 0 -30 -9t-16 -31l-4 -36h65v-151h-89z" />
    <glyph glyph-name="Scommaaccent" unicode="&#x218;" horiz-adv-x="615" 
d="M147 18q-98 35 -134 80l133 149q38 -36 82 -55.5t87 -19.5q31 0 49.5 10.5t18.5 28.5q0 15 -10 19q-11 5 -47 12l-36 5q-240 35 -240 229q0 103 72.5 159t195.5 56q82 0 145.5 -19.5t123.5 -64.5l-110 -153q-36 26 -75.5 40t-75.5 14q-24 0 -37.5 -8.5t-13.5 -22.5
q0 -12 2.5 -16t14.5 -8t41 -9l36 -5q120 -14 181 -71.5t61 -156.5q0 -65 -37.5 -115.5t-104.5 -78.5q-65 -28 -153 -28q-70 0 -169 29zM399 -170l-169 -121v251h169v-130z" />
    <glyph glyph-name="scommaaccent" unicode="&#x219;" horiz-adv-x="523" 
d="M128 7q-59 18 -122 61l94 117q54 -30 94 -41t99 -11q15 0 19.5 3.5t4.5 15.5q0 7 -4 8t-17 4l-20 2l-59 9q-87 10 -135 52.5t-48 110.5q0 74 62 118t167 44q73 0 137.5 -18t103.5 -50l-89 -113q-76 42 -151 42l-22 1q-6 0 -7.5 -3t-1.5 -13q0 -6 2.5 -7.5t12.5 -2.5
l77 -11q101 -12 146 -50t45 -112q-2 -80 -69.5 -127t-181.5 -47q-78 0 -137 18zM363 -170l-169 -121v251h169v-130z" />
    <glyph glyph-name="uni021A" unicode="&#x21a;" horiz-adv-x="578" 
d="M397 0h-219v487h-173v193h565v-193h-173v-487zM375 -170l-169 -121v251h169v-130z" />
    <glyph glyph-name="uni021B" unicode="&#x21b;" horiz-adv-x="356" 
d="M260 -6q-76 0 -120.5 21t-63.5 67q-20 49 -20 123v141h-41v143h41v176h206v-176h73v-143h-73v-130q0 -32 9 -43.5t33 -11.5h31v-167h-75zM288 -170l-169 -121v251h169v-130z" />
    <glyph glyph-name="uni0237" unicode="&#x237;" horiz-adv-x="286" 
d="M-36 -180v163h25q29 0 39 10.5t10 43.5v452h210v-454q0 -109 -56.5 -162t-171.5 -53h-56z" />
    <glyph glyph-name="circumflex" unicode="&#x2c6;" horiz-adv-x="534" 
d="M471 538h-149l-54 52l-47 -52h-152l131 166h136z" />
    <glyph glyph-name="caron" unicode="&#x2c7;" horiz-adv-x="534" 
d="M319 695h149l-135 -163h-136l-132 163h149l51 -53z" />
    <glyph glyph-name="breve" unicode="&#x2d8;" horiz-adv-x="534" 
d="M200 696q13 -46 67 -46q23 0 42 12.5t26 33.5h106q3 -48 -19.5 -87t-64.5 -59q-41 -21 -90 -21q-46 0 -85.5 19t-62.5 53q-24 33 -24 73q0 8 2 22h103z" />
    <glyph glyph-name="dotaccent" unicode="&#x2d9;" horiz-adv-x="534" 
d="M387 531h-240v146h240v-146z" />
    <glyph glyph-name="ring" unicode="&#x2da;" horiz-adv-x="534" 
d="M393 640q0 -27 -10.5 -52.5t-27.5 -42.5q-36 -36 -87 -36q-26 0 -50.5 9.5t-43.5 26.5q-35 41 -35 92q0 25 9 48t26 40q18 16 43 24.5t51 8.5q54 0 87 -33q38 -35 38 -85zM310 636q0 19 -11.5 30.5t-29.5 11.5q-19 0 -32.5 -13.5t-13.5 -30.5q0 -18 12.5 -30.5
t30.5 -12.5q19 0 31 13q13 13 13 32z" />
    <glyph glyph-name="ogonek" unicode="&#x2db;" horiz-adv-x="534" 
d="M322 10q-57 -25 -74 -38q-19 -13 -19 -30q0 -12 12 -15q14 -3 37 -2l-3 -125h-32q-84 0 -125 12q-37 11 -50 29.5t-13 56.5q0 31 16 55.5t58 56.5h193z" />
    <glyph glyph-name="tilde" unicode="&#x2dc;" horiz-adv-x="534" 
d="M247 557q-28 18 -63 18q-17 0 -42 -11t-48 -27v124q20 23 46 35.5t51 12.5q45 0 95 -24q33 -18 61 -18q60 0 96 39v-123q-16 -21 -45 -35.5t-56 -14.5q-45 0 -95 24z" />
    <glyph glyph-name="hungarumlaut" unicode="&#x2dd;" horiz-adv-x="534" 
d="M197 534h-149l82 166h167zM401 534h-149l82 166h166z" />
    <glyph glyph-name="uni0394" unicode="&#x394;" horiz-adv-x="713" 
d="M714 0h-713l247 680h230zM293 186h136l-68 266z" />
    <glyph glyph-name="uni03A9" unicode="&#x3a9;" horiz-adv-x="641" 
d="M590 206q-19 -36 -38 -37h54v-169h-261v159q19 5 28 18t12 37q2 40 2 72v54q0 66 -2 104q-3 30 -17 43.5t-47 13.5q-22 0 -36 -9.5t-23 -30.5q-4 -7 -5 -36q-2 -50 -2 -85l-1 -81q0 -46 7.5 -64t34.5 -36v-159h-260v169h44q-7 5 -18 24q-13 22 -21 60t-8 87
q0 89 11 145.5t36 95.5q26 39 71 67q70 43 170 43t170 -43t98 -124q19 -54 19 -184q0 -98 -18 -134z" />
    <glyph glyph-name="uni03BC" unicode="&#x3bc;" horiz-adv-x="660" 
d="M351 26q-17 -16 -41 -19q-29 -3 -66 -2l1 -29v-156h-210v669h210v-282q0 -48 40 -48q28 0 38 16.5t10 63.5v250h210v-287q0 -41 39 -41v-167h-10q-57 0 -83 5t-47 20q-16 10 -59 56q-15 -33 -32 -49z" />
    <glyph glyph-name="pi" unicode="&#x3c0;" horiz-adv-x="635" 
d="M550 -6q-103 0 -148.5 44.5t-45.5 148.5v129h-77v-316h-206v316h-43v173h565v-173h-32v-112q0 -22 3 -33q1 -10 12 -10h5v-167h-33z" />
    <glyph glyph-name="Wgrave" unicode="&#x1e80;" horiz-adv-x="960" 
d="M569 729h-171l-122 163h200zM760 0h-185l-92 329l-93 -329h-182l-210 680h241l76 -361l92 361h151l99 -361l70 361h239z" />
    <glyph glyph-name="wgrave" unicode="&#x1e81;" horiz-adv-x="788" 
d="M481 541h-171l-122 163h200zM623 0h-163l-62 227l-67 -227h-159l-169 489h214l52 -227l64 227h138l56 -227l50 227h214z" />
    <glyph glyph-name="Wacute" unicode="&#x1e82;" horiz-adv-x="960" 
d="M568 729h-166l94 163h200zM760 0h-185l-92 329l-93 -329h-182l-210 680h241l76 -361l92 361h151l99 -361l70 361h239z" />
    <glyph glyph-name="wacute" unicode="&#x1e83;" horiz-adv-x="788" 
d="M478 541h-169l94 163h200zM623 0h-163l-62 227l-67 -227h-159l-169 489h214l52 -227l64 227h138l56 -227l50 227h214z" />
    <glyph glyph-name="Wdieresis" unicode="&#x1e84;" horiz-adv-x="960" 
d="M303 883h153v-145h-153v145zM514 883h152v-145h-152v145zM727 680h239l-206 -680h-185l-92 329l-93 -329h-182l-210 680h241l76 -361l92 361h151l99 -361z" />
    <glyph glyph-name="wdieresis" unicode="&#x1e85;" horiz-adv-x="788" 
d="M215 677h152v-146h-152v146zM425 677h153v-146h-153v146zM577 489h214l-168 -489h-163l-62 227l-67 -227h-159l-169 489h214l52 -227l64 227h138l56 -227z" />
    <glyph glyph-name="Ygrave" unicode="&#x1ef2;" horiz-adv-x="648" 
d="M431 729h-171l-122 163h200zM432 680h220l-216 -426v-254h-219v254l-216 426h224l105 -221z" />
    <glyph glyph-name="ygrave" unicode="&#x1ef3;" horiz-adv-x="562" 
d="M85 704h200l93 -163h-171zM339 -69q-26 -60 -71 -89q-43 -22 -123 -22h-51v163h38q24 0 36 7.5t15 25.5l11 23l-195 450h223l70 -205l58 205h219z" />
    <glyph glyph-name="uni2010" unicode="&#x2010;" horiz-adv-x="410" 
d="M375 174h-340v180h340v-180z" />
    <glyph glyph-name="endash" unicode="&#x2013;" horiz-adv-x="575" 
d="M555 354v-177h-535v177h535z" />
    <glyph glyph-name="emdash" unicode="&#x2014;" horiz-adv-x="962" 
d="M942 354v-177h-922v177h922z" />
    <glyph glyph-name="quoteleft" unicode="&#x2018;" horiz-adv-x="251" 
d="M44 630l164 108v-229h-164v121z" />
    <glyph glyph-name="quoteright" unicode="&#x2019;" horiz-adv-x="251" 
d="M208 524l-164 -103v259h164v-156z" />
    <glyph glyph-name="quotesinglbase" unicode="&#x201a;" horiz-adv-x="251" 
d="M208 1l-164 -101v260h164v-159z" />
    <glyph glyph-name="quotedblleft" unicode="&#x201c;" horiz-adv-x="470" 
d="M44 629l164 107v-264h-164v157zM262 629l164 107v-264h-164v157z" />
    <glyph glyph-name="quotedblright" unicode="&#x201d;" horiz-adv-x="470" 
d="M44 680h164v-156l-164 -103v259zM262 680h164v-156l-164 -103v259z" />
    <glyph glyph-name="quotedblbase" unicode="&#x201e;" horiz-adv-x="470" 
d="M44 158h164v-157l-164 -103v260zM262 158h164v-157l-164 -103v260z" />
    <glyph glyph-name="dagger" unicode="&#x2020;" horiz-adv-x="581" 
d="M395 -180h-209v477h-160v189h160v194h209v-194h160v-189h-160v-477z" />
    <glyph glyph-name="daggerdbl" unicode="&#x2021;" horiz-adv-x="581" 
d="M395 -180h-209v153h-160v190h160v174h-160v190h160v153h209v-153h160v-190h-160v-174h160v-190h-160v-153z" />
    <glyph glyph-name="bullet" unicode="&#x2022;" horiz-adv-x="518" 
d="M128 178q-48 47 -48 130t47.5 132t129.5 49q50 0 91.5 -22t65.5 -63q24 -40 24 -96q0 -81 -48.5 -129t-132.5 -48q-81 0 -129 47z" />
    <glyph glyph-name="ellipsis" unicode="&#x2026;" horiz-adv-x="822" 
d="M232 0h-187v185h187v-185zM506 0h-187v185h187v-185zM780 0h-187v185h187v-185z" />
    <glyph glyph-name="perthousand" unicode="&#x2030;" horiz-adv-x="1254" 
d="M170 -11l407 702h149l-407 -702h-149zM118.5 352q-37.5 22 -51.5 65q-12 27 -12 92q0 67 12 92q29 87 146 87q119 0 147 -87q11 -28 11 -92q0 -61 -11 -92q-30 -87 -147 -87q-57 0 -94.5 22zM228 435q4 7 4 74q0 65 -4 72q-3 11 -15 11q-5 0 -8 -3.5t-4 -7.5
q-4 -7 -4 -72q0 -66 4 -74q2 -4 4.5 -6t7.5 -2q13 0 15 8zM526 170q0 66 14.5 101t50.5 57q35 21 90 21q119 0 147 -87q11 -44 11 -92q0 -44 -11 -88q-28 -91 -147 -91q-55 0 -89.5 22t-54.5 69q-11 27 -11 88zM880 170q0 58 12 92q12 42 49.5 64.5t94.5 22.5t92 -21.5
t51 -65.5q15 -49 15 -92q0 -111 -67 -156q-35 -23 -91 -23q-58 0 -95.5 23t-49.5 67q-11 41 -11 89zM666 99q0 -4 3.5 -7.5t11.5 -3.5q17 0 17 11l1 21q1 7 1 50q0 68 -4 72q-9 11 -15 11t-10.5 -4.5t-4.5 -8.5v-19q-1 -7 -1 -51q0 -48 1 -54v-17zM1020 99q0 -6 3.5 -8.5
t12.5 -2.5q17 0 17 11l1 21q1 7 1 50q0 41 -1 49l-1 20q0 6 -5.5 10t-11.5 4t-11 -3.5t-5 -9.5v-20q-1 -7 -1 -50v-49z" />
    <glyph glyph-name="guilsinglleft" unicode="&#x2039;" horiz-adv-x="329" 
d="M288 -7l-277 271l277 271v-191l-84 -80l84 -80v-191z" />
    <glyph glyph-name="guilsinglright" unicode="&#x203a;" horiz-adv-x="329" 
d="M329 264l-280 -271v188l83 83l-83 80v188z" />
    <glyph glyph-name="uni203D" unicode="&#x203d;" horiz-adv-x="496" 
d="M352 664.5q52 -26.5 80 -73.5q26 -47 26 -99q0 -80 -74 -175l-48 -47v-48h-188l-31 212h154l1 -33l13 28q-4 -4 -6 -4q-1 0 -1 3q0 4 2 10.5t5 10.5q0 46 -12.5 61.5t-47.5 15.5q-12 0 -18.5 -5t-18.5 -25l-158 49q-3 146 202 146q68 0 120 -26.5zM145 164h190v-164h-190
v164z" />
    <glyph glyph-name="fraction" unicode="&#x2044;" horiz-adv-x="184" 
d="M-32 -11h-153l408 702h152z" />
    <glyph glyph-name="Euro" unicode="&#x20ac;" 
d="M182 29q-65 40 -83 104q-16 44 -16 102h-50v92h50v28h-50v92h50q0 59 16 100q18 64 83 104t149 40q82 0 138 -32t92 -100l-175 -78q-21 47 -48 47q-14 0 -26.5 -9.5t-12.5 -21.5q0 -16 -1 -21t-1 -29h141l-11 -92h-130v-28h124l-14 -92h-110q0 -29 2 -51q6 -14 16.5 -23
t22.5 -9q14 0 28.5 13.5t22.5 34.5l172 -78q-66 -133 -230 -133q-84 0 -149 40z" />
    <glyph glyph-name="uni2105" unicode="&#x2105;" horiz-adv-x="894" 
d="M187 -11l407 702h150l-407 -702h-150zM386 443q-23 -113 -149 -113q-120 0 -160 91q-10 21 -10 101q0 51 10 70q20 48 59.5 71t100.5 23q64 0 102 -27.5t45 -80.5l-121 -31l2 10q0 12 -6.5 21.5t-12.5 9.5t-13 -5.5t-8 -11.5l-2 -17q-1 -6 -1 -35q0 -71 3 -80v-2
q0 -16 21 -16q20 0 20 29l-2 21zM853 175q0 -68 -14.5 -105.5t-50.5 -58.5q-37 -22 -92 -22q-51 0 -90 26t-52 68q-14 47 -14 90q0 109 64 153q40 28 92 28q36 0 70 -13.5t56 -35.5t26 -48q5 -47 5 -82zM707 146q-1 7 -1 26v22q0 6 -2 24q1 2 1 13q0 19 -13 19q-7 0 -12 -6
t-3 -26l2 -17v-11q-1 -3 -1 -18q0 -44 6 -64v-2q0 -12 8 -14l1 1h2l-2 -1q3 -2 5 0q1 1 -2 1h-1q7 4 9 22q3 14 3 31z" />
    <glyph glyph-name="uni2113" unicode="&#x2113;" horiz-adv-x="499" 
d="M29 211l100 73v159q0 121 47 184.5t140 63.5q75 0 118 -43.5t43 -120.5q0 -63 -47.5 -142.5t-128.5 -151.5v-64q0 -19 8.5 -27t26.5 -8q15 0 27 6t27 21l73 -106q-31 -29 -77.5 -47.5t-89.5 -18.5q-63 0 -97 11t-52 38q-18 29 -18 80v13l-28 -20zM301 423q42 56 42 110
q0 35 -17 35q-12 0 -18 -18q-7 -17 -7 -65v-62z" />
    <glyph glyph-name="uni2117" unicode="&#x2117;" horiz-adv-x="774" 
d="M385 -11q-152 0 -250 98q-101 96 -101 253q0 152 101 253q104 98 250 98q150 0 254 -98q101 -101 101 -253q0 -157 -101 -253q-98 -98 -254 -98zM385 79q74 0 133.5 32.5t93.5 92.5q34 58 34 136q0 118 -71 189q-79 72 -190 72q-72 0 -130.5 -32.5t-92.5 -91.5
q-34 -58 -34 -137q0 -118 74 -186q74 -75 183 -75zM227 533h207q160 0 160 -152q0 -163 -160 -163h-50v-85h-157v400zM405 341q48 0 48 28q0 23 -11.5 32.5t-36.5 9.5h-21v-70h21z" />
    <glyph glyph-name="trademark" unicode="&#x2122;" horiz-adv-x="841" 
d="M259 286h-132v283h-102v111h332v-111h-98v-283zM794 286h-116v188l-51 -134h-75l-51 134v-188h-117v394h125l82 -189l81 189h122v-394z" />
    <glyph glyph-name="uni2126" unicode="&#x2126;" horiz-adv-x="641" 
d="M590 206q-19 -36 -38 -37h54v-169h-261v159q19 6 28 17t12 32q2 34 2 61v71q0 66 -2 104q-3 30 -17 43.5t-47 13.5q-22 0 -36 -9.5t-23 -30.5q-4 -7 -5 -36q-2 -50 -2 -85l-1 -81q0 -46 7.5 -64t34.5 -36v-159h-260v169h44q-7 5 -18 24q-13 22 -21 60t-8 87
q0 89 11 145.5t36 95.5q26 39 71 67q70 43 170 43t170 -43t98 -124q19 -54 19 -184q0 -98 -18 -134z" />
    <glyph glyph-name="estimated" unicode="&#x212e;" horiz-adv-x="554" 
d="M104 65q-33 37 -50.5 83.5t-17.5 97.5q0 102 68 182q69 72 173 72q107 0 171 -70q68 -71 70 -184h-373v-170q49 -52 132 -52q54 0 98 28t81 85l33 -21q-52 -73 -96.5 -100t-115.5 -27q-106 0 -173 76zM411 414q-57 59 -134 59q-76 0 -132 -59v-135h266v135z" />
    <glyph glyph-name="partialdiff" unicode="&#x2202;" horiz-adv-x="557" 
d="M82 47q-59 59 -59 154q0 64 26.5 113t75.5 76q48 27 113 27q58 0 95 -25q-3 69 -26.5 100.5t-74.5 31.5q-20 0 -49 -13.5t-45 -28.5l-90 128q48 44 96 62.5t109 18.5q132 0 206.5 -89t74.5 -248q0 -108 -33 -189.5t-97 -128.5q-65 -47 -156 -47q-102 0 -166 58z
M299 172.5q15 19.5 23 66.5q-22 19 -59 19q-22 0 -35.5 -15.5t-13.5 -41.5q0 -21 13 -34.5t31 -13.5q26 0 41 19.5z" />
    <glyph glyph-name="uni2206" unicode="&#x2206;" horiz-adv-x="713" 
d="M714 0h-713l247 680h230zM293 186h136l-68 266z" />
    <glyph glyph-name="product" unicode="&#x220f;" horiz-adv-x="671" 
d="M629 -180h-219v727h-149v-727h-219v920h587v-920z" />
    <glyph glyph-name="summation" unicode="&#x2211;" horiz-adv-x="559" 
d="M543 -180h-526v187l162 308l-158 233v192h512v-193h-266l148 -220l-164 -313h292v-194z" />
    <glyph glyph-name="minus" unicode="&#x2212;" 
d="M533 360v-168h-492v168h492z" />
    <glyph glyph-name="uni2215" unicode="&#x2215;" horiz-adv-x="184" 
d="M-32 -11h-153l408 702h152z" />
    <glyph glyph-name="uni2219" unicode="&#x2219;" horiz-adv-x="277" 
d="M232 173h-187v185h187v-185z" />
    <glyph glyph-name="radical" unicode="&#x221a;" horiz-adv-x="669" 
d="M426 -180h-168l-112 231l-72 -36l-61 119l222 109l81 -174l173 671h193z" />
    <glyph glyph-name="infinity" unicode="&#x221e;" horiz-adv-x="728" 
d="M361 146q-39 -37 -81.5 -56.5t-84.5 -19.5q-78 0 -126 48t-48 128q0 48 23.5 89t63.5 65q41 23 89 23q76 0 167 -82q51 45 88.5 63.5t79.5 18.5q85 0 130.5 -45t45.5 -132q0 -49 -23 -89t-63 -64q-41 -23 -89 -23q-78 0 -172 76zM231 208q11 6 41 36q-27 27 -42 39
q-17 11 -29 11q-20 0 -30 -12t-10 -34q0 -23 11 -35.5t29 -12.5q16 0 30 8zM567 248q0 21 -11 33.5t-31 12.5q-19 0 -72 -45q21 -27 37.5 -38t34.5 -11q42 0 42 48z" />
    <glyph glyph-name="integral" unicode="&#x222b;" horiz-adv-x="395" 
d="M22 -173v163q25 -5 42 -5q13 0 21 12t8 35v496q0 111 50.5 161.5t160.5 50.5q47 0 69 -7v-168q-10 10 -35 10q-18 0 -25.5 -10.5t-7.5 -35.5v-496q0 -113 -50.5 -163t-163.5 -50q-38 0 -69 7z" />
    <glyph glyph-name="approxequal" unicode="&#x2248;" 
d="M302 463q34 -25 62 -25q33 0 55 58l126 -82q-22 -55 -67 -92.5t-90 -37.5q-55 0 -108 33q-34 25 -60 25q-18 0 -34 -16t-23 -42l-123 81q27 62 68.5 97.5t88.5 35.5q61 0 105 -35zM302 229q34 -25 62 -25q33 0 55 57l126 -81q-21 -54 -66.5 -92t-90.5 -38q-52 0 -108 32
q-34 25 -60 25q-18 0 -34 -16t-23 -42l-123 82q27 61 69.5 97t87.5 36q61 0 105 -35z" />
    <glyph glyph-name="notequal" unicode="&#x2260;" 
d="M533 243v-168h-282l-53 -104h-123l53 104h-87v168h167l35 67h-202v168h285l50 103h125l-53 -103h85v-168h-168l-35 -67h203z" />
    <glyph glyph-name="lessequal" unicode="&#x2264;" 
d="M533 177l-492 173v149l492 173v-178l-226 -70l226 -69v-178zM533 166v-166h-492v166h492z" />
    <glyph glyph-name="greaterequal" unicode="&#x2265;" 
d="M533 350l-492 -173v181l226 66l-226 70v178l492 -173v-149zM533 166v-166h-492v166h492z" />
    <glyph glyph-name="lozenge" unicode="&#x25ca;" horiz-adv-x="568" 
d="M369 -52h-164l-182 381l182 381h164l182 -381zM210 329l76 -188l75 188l-74 188z" />
    <glyph glyph-name="f_i" unicode="&#xf001;" horiz-adv-x="653" 
d="M64 346h-41v143h41v9q0 71 19.5 110.5t61.5 55.5q39 16 114 16h92v-149h-41q-40 0 -40 -34v-8h78v-143h-78v-346h-206v346zM615 531h-210v149h210v-149zM615 0h-210v489h210v-489z" />
    <glyph glyph-name="f_l" unicode="&#xf002;" horiz-adv-x="703" 
d="M64 346h-41v143h41v9q0 71 19.5 110.5t61.5 55.5q39 16 114 16h92v-149h-41q-14 0 -32 -6q-8 -8 -8 -28v-8h78v-143h-78v-346h-206v346zM598 -6q-72 0 -113.5 19.5t-61.5 61.5q-20 45 -20 113v492h210v-468q0 -22 11.5 -36.5t30.5 -14.5h28v-167h-85z" />
    <glyph glyph-name="uniF8FF" unicode="&#xf8ff;" horiz-adv-x="564" 
d="M0 0v680h564v-680h-564zM94 590v-500h376v500h-376zM217 292q0 30 24 52l33 35q15 16 21.5 27t6.5 22t-6.5 18t-16.5 7q-12 0 -22 -8.5t-12 -23.5l-115 13q7 60 48 94.5t107 34.5t106.5 -34.5t40.5 -89.5t-47 -102l-32 -33q-13 -16 -13 -30v-16h-123v34zM218 114v107h124
v-107h-124z" />
    <glyph glyph-name="f_f" unicode="&#xfb00;" horiz-adv-x="733" 
d="M64 346h-41v143h41v9q0 71 19.5 110.5t61.5 55.5q39 16 114 16h92v-149h-45q-10 0 -16 3q-11 -5 -15.5 -13t-4.5 -24v-8h78v-143h-78v-346h-206v346zM430 346h-41v143h41v9q0 71 20 110.5t62 55.5q38 16 113 16h93v-149h-41q-21 0 -30.5 -8t-9.5 -26v-8h77v-143h-77v-346
h-207v346z" />
    <glyph glyph-name="fi" unicode="&#xfb01;" horiz-adv-x="653" 
d="M64 346h-41v143h41v9q0 71 19.5 110.5t61.5 55.5q39 16 114 16h92v-149h-51q-9 0 -17 2q-13 -10 -13 -36v-8h78v-143h-78v-346h-206v346zM615 531h-210v149h210v-149zM615 0h-210v489h210v-489z" />
    <glyph glyph-name="fl" unicode="&#xfb02;" horiz-adv-x="703" 
d="M64 346h-41v143h41v9q0 71 19.5 110.5t61.5 55.5q39 16 114 16h92v-149h-41q-20 0 -30 -7.5t-10 -26.5v-8h78v-143h-78v-346h-206v346zM598 -6q-72 0 -113.5 19.5t-61.5 61.5q-20 45 -20 113v492h210v-468q0 -22 11.5 -36.5t30.5 -14.5h28v-167h-85z" />
    <glyph glyph-name="f_f_i" unicode="&#xfb03;" horiz-adv-x="1019" 
d="M64 346h-41v143h41v9q0 71 19.5 110.5t61.5 55.5q39 16 114 16h92v-149h-41q-11 0 -15 -1q-9 -1 -12 0q-13 -9 -13 -33v-8h78v-143h-78v-346h-206v346zM430 346h-41v143h41v9q0 71 20 110.5t62 55.5q38 16 113 16h93v-149h-41q-11 0 -14 -1q-11 -2 -12 -1
q-8 -4 -11 -11.5t-3 -20.5v-8h77v-143h-77v-346h-207v346zM981 531h-210v149h210v-149zM981 0h-210v489h210v-489z" />
    <glyph glyph-name="f_f_l" unicode="&#xfb04;" horiz-adv-x="1070" 
d="M64 346h-41v143h41v9q0 71 19.5 110.5t61.5 55.5q39 16 114 16h92v-149h-41q-12 0 -15 -1l-11 -2q-14 -8 -14 -31v-8h78v-143h-78v-346h-206v346zM430 346h-41v143h41v9q0 71 20 110.5t62 55.5q38 16 113 16h93v-149h-41q-8 0 -14 6q-15 -4 -20.5 -13t-5.5 -27v-8h77
v-143h-77v-346h-207v346zM964 -6q-72 0 -113.5 19.5t-61.5 61.5q-20 45 -20 113v492h210v-468q0 -22 11.5 -36.5t30.5 -14.5h29v-167h-86z" />
    </font>
</defs>
</svg>
