<?xml version="1.0" standalone="no"?>
<!DOCTYPE svg PUBLIC "-//W3C//DTD SVG 1.1//EN" "http://www.w3.org/Graphics/SVG/1.1/DTD/svg11.dtd" >
<svg xmlns="http://www.w3.org/2000/svg" xmlns:xlink="http://www.w3.org/1999/xlink" version="1.1">
<metadata>
Created by FontForge 20170731 at Tue Oct 31 13:00:42 2017
 By Aleksey,,,
</metadata>
<defs>
<font id="AlJazeera-Latin-50Medium" horiz-adv-x="549" >
  <font-face 
    font-family="Al Jazeera-Latin 50 Medium"
    font-weight="400"
    font-stretch="normal"
    units-per-em="1000"
    panose-1="0 0 6 0 0 0 0 0 0 0"
    ascent="781"
    descent="-219"
    x-height="482"
    cap-height="680"
    bbox="-160 -245 1029 920"
    underline-thickness="50"
    underline-position="-150"
    unicode-range="U+000D-FB04"
  />
<missing-glyph horiz-adv-x="483" 
d="M0 0v680h483v-680h-483zM59 625v-570h365v570h-365zM192 271q0 29 17 55l51 70q21 30 21 53q0 21 -13.5 35t-34.5 14q-24 0 -37.5 -13t-20.5 -43l-70 13q10 53 43.5 80.5t87.5 27.5q52 0 85.5 -32.5t33.5 -81.5q0 -42 -26 -74l-50 -71q-13 -16 -13 -41v-26h-74v34z
M190 114v79h78v-79h-78z" />
    <glyph glyph-name=".notdef" horiz-adv-x="483" 
d="M0 0v680h483v-680h-483zM59 625v-570h365v570h-365zM192 271q0 29 17 55l51 70q21 30 21 53q0 21 -13.5 35t-34.5 14q-24 0 -37.5 -13t-20.5 -43l-70 13q10 53 43.5 80.5t87.5 27.5q52 0 85.5 -32.5t33.5 -81.5q0 -42 -26 -74l-50 -71q-13 -16 -13 -41v-26h-74v34z
M190 114v79h78v-79h-78z" />
    <glyph glyph-name=".null" horiz-adv-x="0" 
 />
    <glyph glyph-name="nonmarkingreturn" horiz-adv-x="333" 
 />
    <glyph glyph-name="NULL" horiz-adv-x="500" 
 />
    <glyph glyph-name="NULL" horiz-adv-x="500" 
 />
    <glyph glyph-name="CR.001" unicode="&#xd;" horiz-adv-x="0" 
 />
    <glyph glyph-name="space" unicode=" " horiz-adv-x="236" 
 />
    <glyph glyph-name="exclam" unicode="!" horiz-adv-x="307" 
d="M193 190h-78l-24 490h126zM93 0v122h120v-122h-120z" />
    <glyph glyph-name="quotedbl" unicode="&#x22;" horiz-adv-x="345" 
d="M142 488h-81v192h81v-192zM284 488h-82v192h82v-192z" />
    <glyph glyph-name="numbersign" unicode="#" horiz-adv-x="514" 
d="M359 680h83l-27 -198h79v-78h-89l-16 -116h79v-78h-90l-28 -210h-83l28 210h-116l-28 -210h-83l28 210h-76v78h87l16 116h-77v78h87l27 198h83l-27 -198h116zM306 288l16 116h-116l-16 -116h116z" />
    <glyph glyph-name="dollar" unicode="$" 
d="M454 59.5q-49 -55.5 -135 -67.5v-63h-59v61q-59 3 -108.5 22t-93.5 56l66 83q60 -53 136 -60v204q-86 14 -134.5 65t-48.5 127q0 81 49.5 136t133.5 65v63h59v-62q86 -7 161 -58l-57 -84q-52 32 -104 41v-194q184 -34 184 -194q0 -85 -49 -140.5zM260 405v182
q-36 -8 -55 -32t-19 -60q0 -69 74 -90zM319 93q75 18 75 103q0 65 -75 89v-192z" />
    <glyph glyph-name="percent" unicode="%" horiz-adv-x="782" 
d="M145 -11l407 702h86l-407 -702h-86zM115 352q-33 22 -45 58q-8 29 -8 99q0 53 4 80t16 45q14 21 41.5 37.5t68.5 16.5q44 0 77 -22t45 -58q8 -29 8 -99q0 -52 -4 -79.5t-15 -44.5q-15 -22 -42.5 -38.5t-68.5 -16.5q-44 0 -77 22zM224.5 409.5q9.5 7.5 12.5 28.5
q2 26 2 71t-2 71q-3 20 -12.5 28t-32.5 8t-32.5 -8t-12.5 -28q-3 -21 -3 -71t3 -71t12.5 -28.5t32.5 -7.5t32.5 7.5zM459 170q0 65 8 99q12 36 45 58t78 22q44 0 77 -22t45 -58q8 -29 8 -99q0 -52 -4 -79.5t-15 -44.5q-15 -22 -42.5 -38.5t-68.5 -16.5q-45 0 -78 22t-45 58
q-8 34 -8 99zM590 63q23 0 32.5 7.5t12.5 28.5q2 26 2 71t-2 71q-3 20 -12.5 28t-32.5 8t-32.5 -8t-12.5 -28q-3 -21 -3 -71q0 -71 4 -78q11 -29 44 -29z" />
    <glyph glyph-name="ampersand" unicode="&#x26;" horiz-adv-x="646" 
d="M369 671q38 -20 60 -55q22 -34 22 -78q0 -26 -8 -49t-26 -47q-28 -34 -84 -78l106 -136l74 89l71 -61l-86 -104l24 -30q16 -22 41 -22h25v-100h-43q-33 0 -53.5 11t-45.5 42l-17 21q-82 -85 -177 -85q-89 0 -139 49t-50 133q0 58 31 106.5t98 101.5q-27 34 -41 55t-23 41
q-12 29 -12 60q0 45 22 81t61 56q37 19 86 19q46 0 84 -20zM239.5 581.5q-18.5 -17.5 -18.5 -43.5q0 -18 9 -36q10 -21 44 -62q43 34 59 54.5t16 44.5q0 25 -18 42.5t-45 17.5q-28 0 -46.5 -17.5zM251 303q-84 -64 -84 -126q0 -41 25 -66t68 -25q28 0 53 14t58 49z" />
    <glyph glyph-name="quotesingle" unicode="'" horiz-adv-x="203" 
d="M61 680h81v-192h-81v192z" />
    <glyph glyph-name="parenleft" unicode="(" horiz-adv-x="293" 
d="M186 -84q-135 184 -135 412q0 232 135 412h70q-98 -191 -98 -412q0 -224 98 -412h-70z" />
    <glyph glyph-name="parenright" unicode=")" horiz-adv-x="293" 
d="M42 -84q98 188 98 412q0 221 -98 412h70q135 -180 135 -412q0 -113 -34 -217.5t-101 -194.5h-70z" />
    <glyph glyph-name="asterisk" unicode="*" horiz-adv-x="335" 
d="M204 392h-63l1 91l-79 -47l-31 56l79 44l-79 44l31 56l79 -47l-1 91h63l-1 -91l79 47l31 -56l-79 -44l79 -44l-31 -56l-79 47z" />
    <glyph glyph-name="plus" unicode="+" 
d="M325 57h-101v170h-169v98h169v170h101v-170h169v-98h-169v-170z" />
    <glyph glyph-name="comma" unicode="," horiz-adv-x="246" 
d="M66 122h114v-133l-114 -118v251z" />
    <glyph glyph-name="hyphen" unicode="-" horiz-adv-x="385" 
d="M340 216h-295v99h295v-99z" />
    <glyph glyph-name="period" unicode="." horiz-adv-x="252" 
d="M186 0h-120v122h120v-122z" />
    <glyph glyph-name="slash" unicode="/" horiz-adv-x="425" 
d="M149 -11h-95l228 702h95z" />
    <glyph glyph-name="zero" unicode="0" 
d="M67 340q0 101 4.5 157.5t18.5 93.5t43 62q44 38 141 38q93 0 138.5 -36.5t58.5 -108.5q11 -72 11 -206q0 -100 -4.5 -156.5t-19 -94t-43.5 -62.5q-44 -38 -141 -38q-151 0 -193 133q-14 48 -14 218zM274 89q65 0 84 54q9 27 9 197t-9 197q-20 54 -84 54q-63 0 -83 -54
q-9 -27 -9 -197t9 -197q20 -54 83 -54z" />
    <glyph glyph-name="one" unicode="1" 
d="M359 0h-112v547l-117 -82v125l124 90h105v-680z" />
    <glyph glyph-name="two" unicode="2" 
d="M382 666.5q46 -24.5 70 -67.5t24 -98q0 -83 -64 -159l-200 -242h264v-100h-402v92l245 305q44 56 44 104q0 40 -24.5 65t-65.5 25q-40 0 -64.5 -24t-28.5 -71l-107 22q7 81 61.5 127t141.5 46q60 0 106 -24.5z" />
    <glyph glyph-name="three" unicode="3" 
d="M418 639.5q54 -51.5 54 -136.5q0 -92 -78 -142q40 -18 66 -63.5t26 -102.5q0 -60 -27 -106.5t-76 -73.5q-49 -26 -110 -26q-80 0 -138.5 43t-74.5 113l107 25q13 -37 40.5 -59t65.5 -22q45 0 72.5 28t27.5 73q0 51 -30 81t-81 30h-39v99h37q45 0 72 27t27 72
q0 42 -24.5 67t-66.5 25q-37 0 -61 -20t-33 -59l-104 24q11 70 66.5 112.5t135.5 42.5q92 0 146 -51.5z" />
    <glyph glyph-name="four" unicode="4" horiz-adv-x="600" 
d="M329 104h-283v93l227 483h116l-221 -476h161v186h112v-186h66v-100h-66v-104h-112v104z" />
    <glyph glyph-name="five" unicode="5" 
d="M184 164q23 -75 98 -75q55 0 74 31.5t19 99.5q0 46 -6 71.5t-25 42.5q-22 17 -63 17q-66 0 -87 -57h-102v386h382v-100h-279v-161q38 32 103 32q66 0 111.5 -30t63.5 -85q15 -48 15 -116q0 -73 -19.5 -120t-65.5 -77q-52 -34 -121 -34q-81 0 -136 40.5t-65 108.5z" />
    <glyph glyph-name="six" unicode="6" 
d="M103 355l181 325h117l-158 -286q20 11 55 11q55 0 99.5 -25.5t69.5 -70.5q25 -46 25 -105q0 -65 -27.5 -113.5t-77.5 -75.5q-50 -26 -112 -26q-63 0 -112 25t-77 73q-28 46 -28 112q0 77 45 156zM351 275q-28 30 -76 30q-47 0 -75 -30t-28 -78t28 -78t75 -30q48 0 76 30
t28 78t-28 78z" />
    <glyph glyph-name="seven" unicode="7" 
d="M249 0h-114l227 580h-176v-94h-106v194h401v-98z" />
    <glyph glyph-name="eight" unicode="8" 
d="M77.5 288q22.5 42 64.5 69q-33 20 -52.5 58t-19.5 82q0 55 25.5 99.5t71.5 69.5t107 25q60 0 107 -25t73 -70q25 -44 25 -99q0 -42 -20 -80.5t-51 -59.5q42 -28 64 -69.5t22 -94.5q0 -60 -27.5 -106t-78.5 -72q-52 -26 -114 -26q-63 0 -113 26t-78 73q-28 46 -28 105
q0 53 22.5 95zM339 433.5q26 26.5 26 65.5q0 40 -25 66t-66 26q-39 0 -64.5 -26.5t-25.5 -65.5t25.5 -65.5t64.5 -26.5t65 26.5zM197 118.5q28 -29.5 77 -29.5t77.5 29.5t28.5 79.5q0 48 -29 78.5t-77 30.5t-76.5 -30.5t-28.5 -78.5q0 -50 28 -79.5z" />
    <glyph glyph-name="nine" unicode="9" 
d="M306 286q-20 -11 -55 -11q-54 0 -98 25.5t-70 71.5t-26 104q0 65 27.5 113.5t77.5 75.5q50 26 112 26q63 0 112 -25t77 -72t28 -113q0 -76 -45 -156l-180 -325h-118zM199 405q28 -30 75 -30t75 29.5t28 78.5t-28 78.5t-75 29.5t-75 -30t-28 -78t28 -78z" />
    <glyph glyph-name="colon" unicode=":" horiz-adv-x="260" 
d="M190 360h-120v122h120v-122zM70 0v122h120v-122h-120z" />
    <glyph glyph-name="semicolon" unicode=";" horiz-adv-x="260" 
d="M190 360h-120v122h120v-122zM73 -129v251h114v-133z" />
    <glyph glyph-name="less" unicode="&#x3c;" 
d="M494 53l-439 180v86l439 180v-108l-299 -115l299 -115v-108z" />
    <glyph glyph-name="equal" unicode="=" 
d="M494 327h-439v98h439v-98zM494 127h-439v98h439v-98z" />
    <glyph glyph-name="greater" unicode="&#x3e;" 
d="M494 233l-439 -180v108l299 115l-299 115v108l439 -180v-86z" />
    <glyph glyph-name="question" unicode="?" horiz-adv-x="464" 
d="M330.5 669.5q42.5 -21.5 67.5 -60.5q24 -40 24 -92q0 -34 -6 -53.5t-27 -49.5l-87 -122q-20 -26 -20 -63v-39h-113v51q0 47 26 85l79 108q34 43 34 82q0 33 -21.5 54t-56.5 21q-76 0 -87 -89l-109 17q10 81 63 126.5t137 45.5q54 0 96.5 -21.5zM165 122h120v-122h-120
v122z" />
    <glyph glyph-name="at" unicode="@" horiz-adv-x="900" 
d="M654.5 610.5q90.5 -49.5 141.5 -139.5q50 -91 50 -203q0 -100 -44.5 -157t-120.5 -57q-44 0 -72.5 15.5t-48.5 49.5q-31 -64 -133 -64q-65 0 -101 28.5t-46 75.5q-10 41 -10 105q0 69 10.5 110t42.5 69q33 30 100 30q38 0 67 -14.5t43 -40.5v44h90v-256q0 -33 15.5 -51.5
t42.5 -18.5q73 0 73 132q0 91 -37.5 161.5t-106.5 109.5t-160 39q-92 0 -161 -38.5t-106 -108.5t-37 -163t37 -163t106 -108q69 -39 161 -39q63 0 115.5 11.5t108.5 38.5l31 -73q-107 -59 -255 -59q-114 0 -204.5 50t-140.5 140q-51 89 -51 202t50.5 202t140.5 140
q91 50 205 50t204.5 -49.5zM379.5 360.5q-17.5 -29.5 -17.5 -96.5q0 -44 6 -68.5t24 -40.5q19 -17 56 -17q68 0 80 59q5 28 5 67q0 45 -5.5 69.5t-22.5 40.5q-19 16 -57 16q-51 0 -68.5 -29.5z" />
    <glyph glyph-name="A" unicode="A" horiz-adv-x="617" 
d="M134 0h-117l241 680h111l236 -680h-118l-48 142h-256zM311 515l-92 -268h184z" />
    <glyph glyph-name="B" unicode="B" horiz-adv-x="607" 
d="M75 680h263q101 0 156.5 -48t55.5 -133q0 -103 -81 -145q42 -16 67.5 -58t25.5 -96q0 -99 -60 -149.5t-174 -50.5h-253v680zM335 397q45 0 71 24.5t26 64.5q0 41 -26 65.5t-71 24.5h-142v-179h142zM341 104q48 0 75.5 26t27.5 69t-27.5 68.5t-75.5 25.5h-148v-189h148z
" />
    <glyph glyph-name="C" unicode="C" horiz-adv-x="575" 
d="M160 32q-61 43 -87 124q-18 54 -18 184q0 90 10 146.5t32 94.5q27 46 79.5 78t132.5 32q98 0 162 -51.5t85 -154.5h-119q-18 52 -49 76t-79 24q-56 0 -86 -26.5t-39 -79.5q-9 -51 -9 -139q0 -117 12 -155q32 -90 122 -90q92 0 122 93h121q-20 -97 -84 -148t-159 -51
q-88 0 -149 43z" />
    <glyph glyph-name="D" unicode="D" horiz-adv-x="625" 
d="M75 680h253q200 0 231 -157q13 -66 13 -183q0 -84 -5.5 -136.5t-22.5 -91t-52 -67.5q-53 -45 -164 -45h-253v680zM300 106q69 0 102.5 24.5t42.5 72.5q8 50 8 137q0 98 -8.5 141.5t-39.5 67.5q-32 25 -105 25h-107v-468h107z" />
    <glyph glyph-name="E" unicode="E" horiz-adv-x="570" 
d="M521 0h-446v680h446v-106h-328v-178h279v-106h-279v-184h328v-106z" />
    <glyph glyph-name="F" unicode="F" horiz-adv-x="561" 
d="M193 0h-118v680h446v-106h-328v-185h279v-106h-279v-283z" />
    <glyph glyph-name="G" unicode="G" horiz-adv-x="627" 
d="M162 31q-63 42 -89 122q-18 54 -18 187q0 92 9.5 148.5t32.5 94.5q28 45 82 76.5t137 31.5q99 0 165.5 -53.5t84.5 -152.5h-121q-14 50 -47 75t-83 25q-60 0 -91 -26t-40 -78q-9 -51 -9 -141q0 -118 12 -156q32 -89 128 -89q46 0 81 23t48 62q12 38 12 94h-129v100h245
v-69q0 -109 -22.5 -170t-81.5 -102q-65 -44 -152 -44q-91 0 -154 42z" />
    <glyph glyph-name="H" unicode="H" horiz-adv-x="657" 
d="M193 0h-118v680h118v-284h271v284h118v-680h-118v290h-271v-290z" />
    <glyph glyph-name="I" unicode="I" horiz-adv-x="268" 
d="M193 0h-118v680h118v-680z" />
    <glyph glyph-name="J" unicode="J" horiz-adv-x="507" 
d="M98 13.5q-50 24.5 -75 65.5l89 67q38 -51 98 -51q55 0 84 34t29 100v451h118v-451q0 -113 -63 -176.5t-172 -63.5q-58 0 -108 24.5z" />
    <glyph glyph-name="K" unicode="K" horiz-adv-x="633" 
d="M193 0h-118v680h118v-330l263 330h139l-222 -267l242 -413h-135l-183 322l-104 -126v-196z" />
    <glyph glyph-name="L" unicode="L" horiz-adv-x="545" 
d="M521 0h-446v680h118v-574h328v-106z" />
    <glyph glyph-name="M" unicode="M" horiz-adv-x="756" 
d="M182 0h-107v680h112l193 -433l190 433h111v-680h-107v435l-154 -342h-84l-154 342v-435z" />
    <glyph glyph-name="N" unicode="N" horiz-adv-x="657" 
d="M182 0h-107v680h113l287 -486v486h107v-680h-112l-288 485v-485z" />
    <glyph glyph-name="O" unicode="O" horiz-adv-x="627" 
d="M161 31q-62 42 -88 122q-18 54 -18 187q0 91 10 148t32 95q27 45 80.5 76.5t135.5 31.5q90 0 152.5 -42t88.5 -122q18 -54 18 -187q0 -92 -9.5 -148.5t-31.5 -94.5q-26 -45 -81 -76.5t-137 -31.5q-90 0 -152 42zM440 184q12 38 12 156q0 96 -9.5 144t-38.5 74
q-30 27 -91 27q-58 0 -89 -26t-40 -78q-9 -51 -9 -141q0 -118 12 -156q32 -89 126 -89q95 0 127 89z" />
    <glyph glyph-name="P" unicode="P" horiz-adv-x="598" 
d="M75 680h265q65 0 115.5 -27t80.5 -75q28 -46 28 -109t-28.5 -111.5t-79.5 -74.5q-54 -26 -116 -26h-147v-257h-118v680zM333 364q52 0 82.5 28.5t30.5 76.5q0 47 -30.5 76t-82.5 29h-140v-210h140z" />
    <glyph glyph-name="Q" unicode="Q" horiz-adv-x="627" 
d="M539 -52l-81 78q-61 -37 -145 -37q-90 0 -152 42t-88 122q-18 54 -18 187q0 91 10 148t32 95q27 45 80.5 76.5t135.5 31.5q90 0 152.5 -42t88.5 -122q18 -54 18 -187t-18 -187q-8 -26 -20 -46l81 -78zM374 107l-75 71l77 81l67 -64q9 41 9 145q0 96 -9.5 144t-38.5 74
q-30 27 -91 27q-58 0 -89 -26t-40 -78q-9 -51 -9 -141q0 -118 12 -156q32 -89 126 -89q34 0 61 12z" />
    <glyph glyph-name="R" unicode="R" horiz-adv-x="619" 
d="M75 680h273q62 0 111.5 -26.5t77.5 -72.5t28 -104q0 -66 -34.5 -115.5t-94.5 -71.5l150 -290h-135l-135 275h-123v-275h-118v680zM344 381q47 0 75.5 26.5t28.5 69.5q0 44 -28.5 70.5t-75.5 26.5h-151v-193h151z" />
    <glyph glyph-name="S" unicode="S" horiz-adv-x="587" 
d="M154 14q-33 12 -64.5 31.5t-52.5 41.5l74 86q94 -78 193 -78q59 0 93.5 26.5t34.5 71.5q0 40 -29.5 62.5t-94.5 31.5l-36 5q-205 28 -205 194q0 60 28.5 107t80.5 73q50 25 121 25q69 0 124 -18t103 -56l-58 -90q-39 28 -84.5 43t-87.5 15q-50 0 -78.5 -24.5t-28.5 -66.5
q0 -74 125 -92l36 -5q203 -29 203 -197q0 -99 -67 -155t-189 -56q-78 0 -141 25z" />
    <glyph glyph-name="T" unicode="T" horiz-adv-x="550" 
d="M334 0h-118v574h-194v106h506v-106h-194v-574z" />
    <glyph glyph-name="U" unicode="U" horiz-adv-x="643" 
d="M189.5 19.5q-56.5 30.5 -87.5 87.5q-31 55 -31 132v441h118v-439q0 -68 36 -107t96 -39q61 0 97 39t36 107v439h118v-441q0 -75 -30.5 -132t-87.5 -87q-55 -31 -133 -31q-75 0 -131.5 30.5z" />
    <glyph glyph-name="V" unicode="V" horiz-adv-x="565" 
d="M335 0h-100l-218 680h118l154 -497l147 497h118z" />
    <glyph glyph-name="W" unicode="W" horiz-adv-x="827" 
d="M644 0h-94l-134 479l-135 -479h-94l-171 680h114l111 -473l131 473h88l134 -473l108 473h113z" />
    <glyph glyph-name="X" unicode="X" horiz-adv-x="572" 
d="M570 0h-133l-144 243l-145 -243h-132l211 352l-196 328h133l129 -218l130 218h132l-196 -328z" />
    <glyph glyph-name="Y" unicode="Y" horiz-adv-x="536" 
d="M331 0h-118v278l-202 402h123l140 -277l140 277h119l-202 -402v-278z" />
    <glyph glyph-name="Z" unicode="Z" horiz-adv-x="532" 
d="M488 0h-443v102l311 472h-300v106h432v-101l-311 -473h311v-106z" />
    <glyph glyph-name="bracketleft" unicode="[" horiz-adv-x="280" 
d="M249 -84h-187v824h187v-86h-84v-652h84v-86z" />
    <glyph glyph-name="backslash" unicode="\" horiz-adv-x="425" 
d="M377 -11h-95l-228 702h95z" />
    <glyph glyph-name="bracketright" unicode="]" horiz-adv-x="280" 
d="M31 740h187v-824h-187v86h84v652h-84v86z" />
    <glyph glyph-name="asciicircum" unicode="^" 
d="M502 263h-103l-120 282l-120 -282h-102l181 417h82z" />
    <glyph glyph-name="underscore" unicode="_" horiz-adv-x="492" 
d="M492 -70v-66h-492v66h492z" />
    <glyph glyph-name="grave" unicode="`" horiz-adv-x="422" 
d="M311 555h-91l-111 145h116z" />
    <glyph glyph-name="a" unicode="a" horiz-adv-x="523" 
d="M350 46q-39 -57 -137 -57q-74 0 -118 39.5t-44 107.5q0 75 49.5 114t143.5 39h104v29q0 43 -24.5 61.5t-82.5 18.5q-37 0 -65 -9.5t-54 -30.5l-47 83q64 52 178 52q108 0 154.5 -39t46.5 -129v-325h-104v46zM348 162v43h-86q-105 0 -105 -65q0 -60 84 -60q107 0 107 82z
" />
    <glyph glyph-name="b" unicode="b" horiz-adv-x="545" 
d="M185 435q40 58 129 58q76 0 118 -35t55 -93q11 -57 11 -124q0 -79 -12.5 -129t-50.5 -85q-41 -38 -121 -38q-89 0 -129 58v-47h-112v680h112v-245zM192 322q-7 -29 -7 -81t7 -82.5t28 -49.5q22 -20 65 -20q41 0 64 19.5t29 52.5q6 32 6 80q0 53 -7 83t-27 49
q-23 20 -65 20q-79 0 -93 -71z" />
    <glyph glyph-name="c" unicode="c" horiz-adv-x="475" 
d="M67 373.5q20 51.5 69 84.5q53 35 125 35q110 0 173 -83l-77 -67q-41 50 -96 50q-80 0 -93 -72q-7 -29 -7 -80q0 -52 7 -82.5t28 -49.5q23 -20 65 -20q56 0 96 49l77 -68q-60 -81 -173 -81q-73 0 -125.5 35t-73.5 98q-15 45 -15 119q0 81 20 132.5z" />
    <glyph glyph-name="d" unicode="d" horiz-adv-x="545" 
d="M360 47q-40 -58 -129 -58q-76 0 -118 35t-54 94q-12 53 -12 123q0 78 13 129t51 86q40 37 120 37q87 0 129 -58v245h112v-680h-112v47zM354 161q6 32 6 80q0 52 -7 82.5t-27 49.5q-23 20 -66 20q-41 0 -64 -19t-29 -52q-6 -31 -6 -81q0 -53 7 -83t27 -49q23 -20 65 -20
q79 0 94 72z" />
    <glyph glyph-name="e" unicode="e" horiz-adv-x="521" 
d="M137 24.5q-53 35.5 -73 98.5q-17 57 -17 118q0 81 20 133t69 84q53 35 124 35q74 0 126 -35t72 -98q16 -45 16 -155h-314q0 -28 7 -43q25 -73 108 -73q78 0 121 54l73 -65q-72 -89 -204 -89q-75 0 -128 35.5zM361 289q0 34 -9.5 56.5t-31.5 36.5q-25 16 -59 16
q-74 0 -95 -62q-6 -18 -6 -47h201z" />
    <glyph glyph-name="f" unicode="f" horiz-adv-x="328" 
d="M88 395h-48v87h48v37q0 161 160 161h54v-100h-41q-37 0 -49 -11.5t-12 -47.5v-39h102v-87h-102v-395h-112v395z" />
    <glyph glyph-name="g" unicode="g" horiz-adv-x="536" 
d="M134 -169.5q-50 21.5 -77 57.5l73 73q51 -52 113 -52q108 0 108 115v46q-36 -57 -126 -57q-61 0 -103 30t-61 87q-16 45 -16 123q0 73 13 121.5t50 82.5q39 36 117 36q88 0 126 -59v48h112v-452q0 -106 -58.5 -163.5t-166.5 -57.5q-54 0 -104 21.5zM330 147.5
q21 35.5 21 105.5q0 68 -21 104t-76 36t-75.5 -36t-20.5 -104q0 -69 21 -105t75 -36q55 0 76 35.5z" />
    <glyph glyph-name="h" unicode="h" horiz-adv-x="548" 
d="M368 288q0 49 -23.5 77t-67.5 28q-42 0 -67 -28.5t-25 -76.5v-288h-112v680h112v-244q39 57 128 57q75 0 121 -50t46 -129v-314h-112v288z" />
    <glyph glyph-name="i" unicode="i" horiz-adv-x="258" 
d="M185 573h-112v107h112v-107zM185 0h-112v482h112v-482z" />
    <glyph glyph-name="j" unicode="j" horiz-adv-x="258" 
d="M185 573h-112v107h112v-107zM-15 -80h32q31 0 43.5 12.5t12.5 44.5v505h112v-503q0 -159 -162 -159h-38v100z" />
    <glyph glyph-name="k" unicode="k" horiz-adv-x="522" 
d="M504 0h-126l-128 212l-65 -75v-137h-112v680h112v-402l174 204h125l-162 -186z" />
    <glyph glyph-name="l" unicode="l" horiz-adv-x="291" 
d="M203 -6q-69 0 -100.5 33t-31.5 105v548h112v-542q0 -24 10 -34t32 -10h32v-100h-54z" />
    <glyph glyph-name="m" unicode="m" horiz-adv-x="843" 
d="M663 288q0 49 -23.5 77t-67.5 28q-42 0 -67 -28.5t-25 -76.5v-288h-112v288q0 49 -23.5 77t-67.5 28q-42 0 -67 -28.5t-25 -76.5v-288h-112v482h112v-46q39 57 128 57q88 0 133 -65q59 65 154 65q80 0 127.5 -49t47.5 -130v-314h-112v288z" />
    <glyph glyph-name="n" unicode="n" horiz-adv-x="548" 
d="M73 482h112v-46q39 57 128 57q75 0 121 -50t46 -129v-314h-112v288q0 49 -23.5 77t-67.5 28q-42 0 -67 -28.5t-25 -76.5v-288h-112v482z" />
    <glyph glyph-name="o" unicode="o" horiz-adv-x="523" 
d="M135.5 24q-52.5 35 -72.5 98q-16 45 -16 119q0 81 20 133t69 84q53 35 126 35t125.5 -35t72.5 -98q16 -45 16 -119q0 -80 -20.5 -132.5t-67.5 -84.5q-53 -35 -126 -35q-74 0 -126.5 35zM341.5 125.5q20.5 36.5 20.5 115.5t-20.5 115.5t-79.5 36.5t-80 -37t-21 -115
t21 -115t80 -37t79.5 36.5z" />
    <glyph glyph-name="p" unicode="p" horiz-adv-x="545" 
d="M73 482h112v-47q40 58 129 58q76 0 118 -35t55 -93q11 -57 11 -124q0 -79 -12.5 -129t-50.5 -85q-41 -38 -121 -38q-89 0 -129 58v-227h-112v662zM349 108.5q23 19.5 29 52.5q6 32 6 80q0 53 -7 83t-27 49q-23 20 -65 20q-79 0 -93 -71q-7 -29 -7 -81t7 -82.5t28 -49.5
q22 -20 65 -20q41 0 64 19.5z" />
    <glyph glyph-name="q" unicode="q" horiz-adv-x="545" 
d="M360 47q-40 -58 -129 -58q-76 0 -118 35t-54 94q-12 53 -12 123q0 78 13 129t51 86q40 37 120 37q89 0 129 -58v47h112v-662h-112v227zM354 161q6 32 6 80q0 52 -7 82.5t-27 49.5q-23 20 -66 20q-41 0 -64 -19t-29 -52q-6 -31 -6 -81q0 -53 7 -83t27 -49q23 -20 65 -20
q79 0 94 72z" />
    <glyph glyph-name="r" unicode="r" horiz-adv-x="423" 
d="M73 482h112v-53q19 31 51 47.5t75 16.5q33 0 59 -11t50 -36l-65 -81q-40 28 -79 28q-91 0 -91 -122v-271h-112v482z" />
    <glyph glyph-name="s" unicode="s" horiz-adv-x="498" 
d="M360.5 478q45.5 -15 87.5 -50l-61 -74q-62 45 -134 45q-33 0 -53 -14t-20 -36q0 -23 18.5 -35t60.5 -16l52 -5q72 -7 110.5 -43.5t38.5 -97.5q0 -76 -53.5 -119.5t-148.5 -43.5q-129 0 -214 82l70 75q33 -30 72.5 -46t76.5 -16q42 0 65.5 15t23.5 42q0 24 -18 36.5
t-62 16.5l-52 5q-148 15 -148 142q0 72 49 112t138 40q56 0 101.5 -15z" />
    <glyph glyph-name="t" unicode="t" horiz-adv-x="321" 
d="M214 -6q-71 0 -102.5 34t-31.5 107v260h-48v87h48v148h112v-148h80v-87h-80v-256q0 -25 10.5 -35t34.5 -10h35v-100h-58z" />
    <glyph glyph-name="u" unicode="u" horiz-adv-x="544" 
d="M359 46q-43 -57 -126 -57q-75 0 -120.5 50t-45.5 129v314h112v-288q0 -49 23 -77t67 -28q42 0 66 28t24 76v289h112v-482h-112v46z" />
    <glyph glyph-name="v" unicode="v" horiz-adv-x="486" 
d="M295 0h-98l-178 482h119l110 -326l108 326h117z" />
    <glyph glyph-name="w" unicode="w" horiz-adv-x="753" 
d="M577 0h-100l-97 321l-98 -321h-100l-158 482h116l97 -332l96 332h92l102 -332l92 332h116z" />
    <glyph glyph-name="x" unicode="x" horiz-adv-x="495" 
d="M485 0h-124l-108 158l-107 -158h-124l170 250l-158 232h125l94 -141l96 141h124l-158 -232z" />
    <glyph glyph-name="y" unicode="y" horiz-adv-x="485" 
d="M83 -180v100h28q28 0 44.5 13t27.5 44l14 41l-180 464h120l113 -328l108 328h116l-188 -512q-31 -84 -66 -117t-96 -33h-41z" />
    <glyph glyph-name="z" unicode="z" horiz-adv-x="485" 
d="M433 98v-98h-381v89l251 295h-238v98h368v-95l-248 -289h248z" />
    <glyph glyph-name="braceleft" unicode="{" horiz-adv-x="346" 
d="M248 -84q-57 0 -88 31t-31 89v168q0 40 -18.5 59t-59.5 18v99q42 0 60 17.5t18 59.5v163q0 58 31 89t88 31h68v-86h-41q-43 0 -43 -42v-158q0 -56 -16 -83t-56 -40q41 -14 56.5 -40.5t15.5 -83.5v-163q0 -42 43 -42h41v-86h-68z" />
    <glyph glyph-name="bar" unicode="|" horiz-adv-x="330" 
d="M211 -84h-92v824h92v-824z" />
    <glyph glyph-name="braceright" unicode="}" horiz-adv-x="346" 
d="M98 740q57 0 88 -31t31 -89v-163q0 -43 18 -60t60 -17v-99q-40 0 -59 -17.5t-19 -59.5v-168q0 -58 -31 -89t-88 -31h-67v86h41q42 0 42 42v163q0 57 16 83.5t56 39.5q-40 13 -56 40.5t-16 83.5v158q0 42 -42 42h-41v86h67z" />
    <glyph glyph-name="asciitilde" unicode="~" 
d="M48 245q21 50 60 78t85 28t105 -35q40 -25 66 -25q21 0 40.5 14.5t34.5 43.5l70 -42q-38 -71 -98 -95q-24 -10 -51 -10q-49 0 -101 34q-40 25 -67 25q-21 0 -40.5 -15t-33.5 -43z" />
    <glyph glyph-name="uni00A0" unicode="&#xa0;" horiz-adv-x="236" 
 />
    <glyph glyph-name="exclamdown" unicode="&#xa1;" horiz-adv-x="307" 
d="M214 482v-122h-120v122h120zM114 292h79l24 -490h-126z" />
    <glyph glyph-name="cent" unicode="&#xa2;" 
d="M324 92q40 8 71 46l77 -68q-53 -69 -148 -80v-89h-54v89q-63 7 -107 41t-63 91q-15 45 -15 119q0 79 18 128t60 82q43 34 107 41v89h54v-89q90 -7 148 -82l-77 -67q-32 39 -71 47v-298zM270 92v298q-40 -11 -55.5 -45.5t-15.5 -103.5q0 -64 10 -90q17 -47 61 -59z" />
    <glyph glyph-name="sterling" unicode="&#xa3;" 
d="M95 0v95q22 19 30 38.5t8 57.5v84h-63v84h63v144q0 89 47 138.5t129 49.5q66 0 110.5 -35t58.5 -99l-108 -26q-10 60 -62 60q-29 0 -45 -18.5t-16 -51.5v-162h135v-84h-135v-65q0 -75 -24 -110h253v-100h-381z" />
    <glyph glyph-name="currency" unicode="&#xa4;" 
d="M389 150q-48 -30 -108 -30t-108 30l-65 -65l-67 68l65 66q-27 48 -27 104q0 59 28 105l-66 67l67 68l66 -66q50 29 109 29q55 0 105 -29l66 66l67 -68l-66 -66q29 -50 29 -106q0 -59 -28 -105l66 -66l-67 -68zM281 208q48 0 80 33.5t32 81.5t-32 81.5t-80 33.5
t-79.5 -32.5t-31.5 -82.5q0 -51 31 -82q31 -33 80 -33z" />
    <glyph glyph-name="yen" unicode="&#xa5;" 
d="M334 0h-112v137h-138v78h138v53h-138v78h110l-157 334h119l123 -292l122 292h118l-157 -334h109v-78h-137v-53h137v-78h-137v-137z" />
    <glyph glyph-name="brokenbar" unicode="&#xa6;" horiz-adv-x="330" 
d="M211 388h-92v352h92v-352zM211 -84h-92v356h92v-356z" />
    <glyph glyph-name="section" unicode="&#xa7;" horiz-adv-x="579" 
d="M159.5 -153q-46.5 38 -51.5 107l98 21q7 -76 79 -76q36 0 56 18.5t20 49.5q0 39 -27 61.5t-92 37.5q-149 36 -149 186q0 54 24.5 95t69.5 63q-69 41 -69 124q0 43 22.5 79t62.5 57t89 21q76 0 124.5 -39.5t51.5 -105.5l-98 -21q-4 37 -23.5 56.5t-52.5 19.5t-52.5 -18
t-19.5 -49q0 -38 26 -59t90 -37q148 -37 148 -186q0 -52 -26.5 -95.5t-67.5 -61.5q41 -22 57 -51.5t16 -81.5q0 -42 -22.5 -77t-63.5 -55q-41 -21 -92 -21q-81 0 -127.5 38zM357 181.5q25 25.5 25 70.5t-25 70.5t-67 25.5q-43 0 -68 -25.5t-25 -70.5t25 -70.5t68 -25.5
q42 0 67 25.5z" />
    <glyph glyph-name="dieresis" unicode="&#xa8;" horiz-adv-x="422" 
d="M162 573h-97v107h97v-107zM358 573h-97v107h97v-107z" />
    <glyph glyph-name="copyright" unicode="&#xa9;" horiz-adv-x="826" 
d="M413 -11q-98 0 -178.5 46.5t-126.5 127.5q-46 79 -46 177q0 97 46 177.5t127 127.5q79 46 178 46q98 0 178.5 -46t126.5 -127q46 -80 46 -178q0 -146 -101 -250q-101 -101 -250 -101zM413 65q77 0 138.5 36t97.5 99q35 64 35 140q0 118 -78 196q-76 79 -193 79
q-75 0 -137.5 -36t-97.5 -99q-36 -63 -36 -140q0 -117 77 -197q78 -78 194 -78zM263 251q-11 39 -11 89t11 89q35 108 161 108q42 0 75 -15t62 -48l-61 -54q-33 40 -75 40q-67 0 -79 -56q-6 -25 -6 -64q0 -42 6 -66t24 -38q17 -16 55 -16q41 0 75 40l61 -54
q-51 -63 -137 -63q-126 0 -161 108z" />
    <glyph glyph-name="ordfeminine" unicode="&#xaa;" horiz-adv-x="347" 
d="M221 417q-25 -30 -85 -30q-48 0 -75 22.5t-27 63.5q0 97 126 97h59v13q0 31 -61 31q-40 0 -75 -20l-36 64q45 30 122 30q74 0 105 -24t31 -79v-193h-84v25zM219 496v13h-52q-48 0 -48 -28q0 -26 41 -26q59 0 59 41z" />
    <glyph glyph-name="guillemotleft" unicode="&#xab;" horiz-adv-x="542" 
d="M256 42l-221 222l221 222v-121l-101 -101l101 -101v-121zM483 42l-221 222l221 222v-121l-101 -101l101 -101v-121z" />
    <glyph glyph-name="logicalnot" unicode="&#xac;" 
d="M494 92h-101v135h-338v98h439v-233z" />
    <glyph glyph-name="uni00AD" unicode="&#xad;" horiz-adv-x="385" 
d="M340 216h-295v99h295v-99z" />
    <glyph glyph-name="registered" unicode="&#xae;" horiz-adv-x="826" 
d="M591.5 645q80.5 -46 126.5 -127q46 -80 46 -178q0 -96 -45.5 -176.5t-126.5 -127.5q-82 -47 -179 -47q-98 0 -178.5 46.5t-126.5 127.5q-46 79 -46 177q0 97 46 177.5t127 127.5q79 46 178 46q98 0 178.5 -46zM275.5 579q-62.5 -36 -97.5 -99q-36 -63 -36 -140
q0 -117 77 -197q78 -78 194 -78q77 0 138.5 36t97.5 99q35 64 35 140q0 118 -78 196q-76 79 -193 79q-75 0 -137.5 -36zM440 533q53 0 88 -32.5t35 -82.5q0 -37 -19.5 -65.5t-53.5 -40.5l85 -164h-76l-77 156h-69v-156h-67v385h154zM353 473v-109h85q27 0 43 15t16 39
q0 25 -16 40t-43 15h-85z" />
    <glyph glyph-name="overscore" unicode="&#xaf;" horiz-adv-x="422" 
d="M352 587h-283v81h283v-81z" />
    <glyph glyph-name="degree" unicode="&#xb0;" horiz-adv-x="465" 
d="M233 395q-41 0 -74.5 19.5t-53.5 53.5q-20 35 -20 75q0 41 19.5 75t53.5 54q32 19 75 19q41 0 74.5 -19.5t53.5 -53.5q19 -34 19 -75q0 -63 -43 -106q-42 -42 -104 -42zM175.5 602.5q-22.5 -23.5 -22.5 -59.5t22.5 -59.5t57.5 -23.5q34 0 56.5 24t22.5 59
q0 36 -22.5 59.5t-56.5 23.5q-35 0 -57.5 -23.5z" />
    <glyph glyph-name="plusminus" unicode="&#xb1;" 
d="M325 157h-101v170h-169v98h169v170h101v-170h169v-98h-169v-170zM494 0h-439v99h439v-99z" />
    <glyph glyph-name="uni00B2" unicode="&#xb2;" horiz-adv-x="349" 
d="M272 811q36 -33 36 -84q0 -56 -44 -103l-110 -117h154v-77h-265v74l150 165q27 29 27 55q0 20 -11.5 31.5t-31.5 11.5q-44 0 -51 -52l-84 18q4 48 43 79.5t93 31.5q58 0 94 -33z" />
    <glyph glyph-name="uni00B3" unicode="&#xb3;" horiz-adv-x="349" 
d="M82.5 447.5q-36.5 25.5 -47.5 75.5l81 21q19 -45 60 -45q23 0 37.5 14t14.5 36q0 23 -15 36.5t-42 13.5h-30v77h25q52 0 52 45q0 46 -46 46q-19 0 -31 -8.5t-21 -28.5l-79 18q9 46 44 71t89 25q62 0 97 -31t35 -85q0 -51 -42 -84q22 -9 37 -35.5t15 -57.5
q0 -59 -37.5 -94t-100.5 -35q-59 0 -95.5 25.5z" />
    <glyph glyph-name="acute" unicode="&#xb4;" horiz-adv-x="422" 
d="M209 555h-93l87 145h116z" />
    <glyph glyph-name="uni00B5" unicode="&#xb5;" horiz-adv-x="579" 
d="M260 -11q-52 0 -75 33v-202h-112v662h112v-289q0 -48 24 -76t66 -28t67.5 29t25.5 75v289h112v-343q0 -22 3 -31t10 -11.5t26 -2.5v-100h-35q-50 0 -73 14t-32 49q-35 -68 -119 -68z" />
    <glyph glyph-name="paragraph" unicode="&#xb6;" horiz-adv-x="634" 
d="M450 586h-83v-766h-97v438q-57 2 -102.5 30t-70.5 76q-25 46 -25 105q0 61 27.5 109t78.5 75q50 27 119 27h250v-860h-97v766z" />
    <glyph glyph-name="middot" unicode="&#xb7;" horiz-adv-x="252" 
d="M186 204h-120v122h120v-122z" />
    <glyph glyph-name="cedilla" unicode="&#xb8;" horiz-adv-x="422" 
d="M290 -21q-1 -64 -38.5 -106.5t-96.5 -43.5v74q29 0 43.5 19.5t15.5 56.5h76z" />
    <glyph glyph-name="uni00B9" unicode="&#xb9;" horiz-adv-x="349" 
d="M243 430h-87v305l-75 -49v96l80 54h82v-406z" />
    <glyph glyph-name="ordmasculine" unicode="&#xba;" horiz-adv-x="356" 
d="M32 535q0 39 9 66q28 87 137 87t137 -87q9 -27 9 -64q0 -39 -9 -66q-28 -87 -137 -87t-137 87q-9 27 -9 64zM231 537q0 72 -53 72q-31 0 -42.5 -18.5t-11.5 -52.5q0 -14 5 -42q12 -33 49 -33q36 0 48 33q5 22 5 41z" />
    <glyph glyph-name="guillemotright" unicode="&#xbb;" horiz-adv-x="542" 
d="M287 264l-221 -222v121l101 101l-101 101v121zM514 264l-221 -222v121l101 101l-101 101v121z" />
    <glyph glyph-name="onequarter" unicode="&#xbc;" horiz-adv-x="841" 
d="M249 -11h-87l407 702h87zM253 274h-87v305l-75 -49v96l80 54h82v-406zM588 406h92l-127 -271h80v98h84v-98h33v-75h-33v-60h-84v60h-178v72z" />
    <glyph glyph-name="onehalf" unicode="&#xbd;" horiz-adv-x="881" 
d="M569 691h87l-407 -702h-87zM91 626l80 54h82v-406h-87v305l-75 -49v96zM754 381q36 -33 36 -84q0 -56 -44 -103l-109 -117h153v-77h-265v74l150 165q27 29 27 55q0 20 -11.5 31.5t-31.5 11.5q-22 0 -34 -12.5t-16 -39.5l-84 18q4 50 42 80.5t93 30.5q58 0 94 -33z" />
    <glyph glyph-name="threequarters" unicode="&#xbe;" horiz-adv-x="914" 
d="M326 -11h-87l407 702h87zM137.5 291.5q-36.5 25.5 -47.5 75.5l81 21q19 -45 60 -45q23 0 37.5 14t14.5 36q0 23 -15 36.5t-42 13.5h-30v77h25q52 0 52 45q0 46 -46 46q-19 0 -31 -8.5t-21 -28.5l-79 18q9 46 44 71t89 25q62 0 97 -31t35 -85q0 -51 -42 -84
q22 -9 37 -35.5t15 -57.5q0 -59 -37.5 -94t-100.5 -35q-59 0 -95.5 25.5zM792 0h-84v60h-178v72l133 274h92l-127 -271h80v98h84v-98h33v-75h-33v-60z" />
    <glyph glyph-name="questiondown" unicode="&#xbf;" horiz-adv-x="464" 
d="M301 482v-122h-120v122h120zM297 241q0 -47 -26 -85l-80 -110q-21 -30 -27 -45t-6 -35q0 -33 21.5 -54t56.5 -21q73 0 87 89l109 -17q-12 -83 -64 -127.5t-136 -44.5q-54 0 -97.5 22.5t-66.5 62.5q-24 39 -24 89q0 61 41 117l79 108q20 26 20 63v39h113v-51z" />
    <glyph glyph-name="Agrave" unicode="&#xc0;" horiz-adv-x="617" 
d="M359 743h-91l-111 145h116zM134 0h-117l241 680h111l236 -680h-118l-48 142h-256zM311 515l-92 -268h184z" />
    <glyph glyph-name="Aacute" unicode="&#xc1;" horiz-adv-x="617" 
d="M360 743h-93l87 145h116zM134 0h-117l241 680h111l236 -680h-118l-48 142h-256zM311 515l-92 -268h184z" />
    <glyph glyph-name="Acircumflex" unicode="&#xc2;" horiz-adv-x="617" 
d="M243 753h-86l114 145h80l114 -145h-86l-68 70zM134 0h-117l241 680h111l236 -680h-118l-48 142h-256zM311 515l-92 -268h184z" />
    <glyph glyph-name="Atilde" unicode="&#xc3;" horiz-adv-x="617" 
d="M171 836q15 21 36.5 32.5t43.5 11.5q29 0 67 -20q33 -18 57 -18q14 0 34 10.5t41 28.5v-81q-15 -21 -36.5 -32t-43.5 -11q-29 0 -67 20q-33 18 -56 18q-16 0 -36 -10t-40 -28v79zM134 0h-117l241 680h111l236 -680h-118l-48 142h-256zM311 515l-92 -268h184z" />
    <glyph glyph-name="Adieresis" unicode="&#xc4;" horiz-adv-x="617" 
d="M257 769h-93v107h93v-107zM457 769h-93v107h93v-107zM134 0h-117l241 680h111l236 -680h-118l-48 142h-256zM311 515l-92 -268h184z" />
    <glyph glyph-name="Aring" unicode="&#xc5;" horiz-adv-x="617" 
d="M402.5 859q7.5 -19 7.5 -39q0 -43 -28 -71t-71 -28t-71 28t-28 71t28.5 71.5t70.5 28.5t71 -29q13 -13 20.5 -32zM311 871q-20 0 -34.5 -14.5t-14.5 -36.5q0 -20 14 -37q17 -14 35 -14q21 0 35 14t14 37q0 22 -14 36q-14 15 -35 15zM258 680h111l236 -680h-118l-48 142
h-256l-49 -142h-117zM403 247l-92 268l-92 -268h184z" />
    <glyph glyph-name="AE" unicode="&#xc6;" horiz-adv-x="926" 
d="M151 0h-132l344 680h519v-106h-328v-178h279v-106h-279v-184h328v-106h-446v142h-215zM436 578l-163 -331h163v331z" />
    <glyph glyph-name="Ccedilla" unicode="&#xc7;" horiz-adv-x="575" 
d="M471 639.5q64 -51.5 85 -154.5h-119q-18 52 -49 76t-79 24q-56 0 -86 -26.5t-39 -79.5q-9 -51 -9 -139q0 -117 12 -155q32 -90 122 -90q92 0 122 93h121q-20 -97 -84 -148t-159 -51q-88 0 -149 43t-87 124q-18 54 -18 184q0 90 10 146.5t32 94.5q27 46 79.5 78t132.5 32
q98 0 162 -51.5zM349 -21q-1 -64 -38.5 -106.5t-96.5 -43.5v74q29 0 43.5 19.5t15.5 56.5h76z" />
    <glyph glyph-name="Egrave" unicode="&#xc8;" horiz-adv-x="570" 
d="M369 743h-91l-111 145h116zM521 0h-446v680h446v-106h-328v-178h279v-106h-279v-184h328v-106z" />
    <glyph glyph-name="Eacute" unicode="&#xc9;" horiz-adv-x="570" 
d="M314 743h-93l87 145h116zM521 0h-446v680h446v-106h-328v-178h279v-106h-279v-184h328v-106z" />
    <glyph glyph-name="Ecircumflex" unicode="&#xca;" horiz-adv-x="570" 
d="M231 753h-86l114 145h80l114 -145h-86l-68 70zM521 0h-446v680h446v-106h-328v-178h279v-106h-279v-184h328v-106z" />
    <glyph glyph-name="Edieresis" unicode="&#xcb;" horiz-adv-x="570" 
d="M243 769h-93v107h93v-107zM443 769h-93v107h93v-107zM521 0h-446v680h446v-106h-328v-178h279v-106h-279v-184h328v-106z" />
    <glyph glyph-name="Igrave" unicode="&#xcc;" horiz-adv-x="268" 
d="M184 743h-91l-111 145h116zM193 0h-118v680h118v-680z" />
    <glyph glyph-name="Iacute" unicode="&#xcd;" horiz-adv-x="268" 
d="M183 743h-93l87 145h116zM193 0h-118v680h118v-680z" />
    <glyph glyph-name="Icircumflex" unicode="&#xce;" horiz-adv-x="268" 
d="M68 753h-86l113 145h80l115 -145h-87l-68 70zM193 0h-118v680h118v-680z" />
    <glyph glyph-name="Idieresis" unicode="&#xcf;" horiz-adv-x="268" 
d="M81 769h-93v107h93v-107zM281 769h-93v107h93v-107zM193 0h-118v680h118v-680z" />
    <glyph glyph-name="Eth" unicode="&#xd0;" horiz-adv-x="625" 
d="M75 298h-42v90h42v292h253q200 0 231 -157q13 -66 13 -183q0 -84 -5.5 -136.5t-22.5 -91t-52 -67.5q-53 -45 -164 -45h-253v298zM300 106q69 0 102.5 24.5t42.5 72.5q8 50 8 137q0 98 -8.5 141.5t-39.5 67.5q-32 25 -105 25h-107v-186h113v-90h-113v-192h107z" />
    <glyph glyph-name="Ntilde" unicode="&#xd1;" horiz-adv-x="657" 
d="M467 800q-15 -21 -36.5 -32t-43.5 -11q-29 0 -67 20q-33 18 -56 18q-16 0 -36 -10t-40 -28v79q15 21 36.5 32.5t43.5 11.5q29 0 67 -20q33 -18 57 -18q14 0 34 10.5t41 28.5v-81zM475 680h107v-680h-112l-288 485v-485h-107v680h113l287 -486v486z" />
    <glyph glyph-name="Ograve" unicode="&#xd2;" horiz-adv-x="627" 
d="M379 743h-91l-111 145h116zM161 31q-62 42 -88 122q-18 54 -18 187q0 91 10 148t32 95q27 45 80.5 76.5t135.5 31.5q90 0 152.5 -42t88.5 -122q18 -54 18 -187q0 -92 -9.5 -148.5t-31.5 -94.5q-26 -45 -81 -76.5t-137 -31.5q-90 0 -152 42zM440 184q12 38 12 156
q0 96 -9.5 144t-38.5 74q-30 27 -91 27q-58 0 -89 -26t-40 -78q-9 -51 -9 -141q0 -118 12 -156q32 -89 126 -89q95 0 127 89z" />
    <glyph glyph-name="Oacute" unicode="&#xd3;" horiz-adv-x="627" 
d="M342 743h-93l87 145h116zM161 31q-62 42 -88 122q-18 54 -18 187q0 91 10 148t32 95q27 45 80.5 76.5t135.5 31.5q90 0 152.5 -42t88.5 -122q18 -54 18 -187q0 -92 -9.5 -148.5t-31.5 -94.5q-26 -45 -81 -76.5t-137 -31.5q-90 0 -152 42zM440 184q12 38 12 156
q0 96 -9.5 144t-38.5 74q-30 27 -91 27q-58 0 -89 -26t-40 -78q-9 -51 -9 -141q0 -118 12 -156q32 -89 126 -89q95 0 127 89z" />
    <glyph glyph-name="Ocircumflex" unicode="&#xd4;" horiz-adv-x="627" 
d="M245 753h-86l114 145h80l114 -145h-86l-68 70zM161 31q-62 42 -88 122q-18 54 -18 187q0 91 10 148t32 95q27 45 80.5 76.5t135.5 31.5q90 0 152.5 -42t88.5 -122q18 -54 18 -187q0 -92 -9.5 -148.5t-31.5 -94.5q-26 -45 -81 -76.5t-137 -31.5q-90 0 -152 42zM440 184
q12 38 12 156q0 96 -9.5 144t-38.5 74q-30 27 -91 27q-58 0 -89 -26t-40 -78q-9 -51 -9 -141q0 -118 12 -156q32 -89 126 -89q95 0 127 89z" />
    <glyph glyph-name="Otilde" unicode="&#xd5;" horiz-adv-x="627" 
d="M173 836q15 21 36.5 32.5t43.5 11.5q29 0 67 -20q33 -18 57 -18q14 0 34 10.5t41 28.5v-81q-15 -21 -36.5 -32t-43.5 -11q-29 0 -67 20q-33 18 -56 18q-16 0 -36 -10t-40 -28v79zM161 31q-62 42 -88 122q-18 54 -18 187q0 91 10 148t32 95q27 45 80.5 76.5t135.5 31.5
q90 0 152.5 -42t88.5 -122q18 -54 18 -187q0 -92 -9.5 -148.5t-31.5 -94.5q-26 -45 -81 -76.5t-137 -31.5q-90 0 -152 42zM440 184q12 38 12 156q0 96 -9.5 144t-38.5 74q-30 27 -91 27q-58 0 -89 -26t-40 -78q-9 -51 -9 -141q0 -118 12 -156q32 -89 126 -89q95 0 127 89z
" />
    <glyph glyph-name="Odieresis" unicode="&#xd6;" horiz-adv-x="627" 
d="M259 769h-93v107h93v-107zM459 769h-93v107h93v-107zM161 31q-62 42 -88 122q-18 54 -18 187q0 91 10 148t32 95q27 45 80.5 76.5t135.5 31.5q90 0 152.5 -42t88.5 -122q18 -54 18 -187q0 -92 -9.5 -148.5t-31.5 -94.5q-26 -45 -81 -76.5t-137 -31.5q-90 0 -152 42z
M440 184q12 38 12 156q0 96 -9.5 144t-38.5 74q-30 27 -91 27q-58 0 -89 -26t-40 -78q-9 -51 -9 -141q0 -118 12 -156q32 -89 126 -89q95 0 127 89z" />
    <glyph glyph-name="multiply" unicode="&#xd7;" 
d="M477 148l-67 -68l-129 127l-128 -127l-67 68l127 128l-127 128l67 68l128 -127l129 127l67 -68l-129 -128z" />
    <glyph glyph-name="Oslash" unicode="&#xd8;" horiz-adv-x="627" 
d="M118 76q-27 35 -40 77q-18 54 -18 187q0 91 10 148t32 95q27 45 80.5 76.5t135.5 31.5q84 0 146 -38l34 57h84l-64 -106q30 -43 41 -77q18 -54 18 -187q0 -92 -9.5 -148.5t-31.5 -94.5q-26 -45 -81 -76.5t-137 -31.5q-84 0 -146 38l-33 -57h-84zM405 557q-34 28 -87 28
q-59 0 -90 -26t-40 -78q-9 -51 -9 -141q0 -120 10 -151zM446 184q12 38 12 156q0 112 -10 149l-216 -367q33 -27 86 -27q96 0 128 89z" />
    <glyph glyph-name="Ugrave" unicode="&#xd9;" horiz-adv-x="643" 
d="M384 743h-91l-111 145h116zM189 241q0 -68 36 -107t96 -39q61 0 97 39t36 107v439h118v-441q0 -75 -30.5 -132t-87.5 -87q-55 -31 -133 -31q-75 0 -131.5 30.5t-87.5 87.5q-31 55 -31 132v441h118v-439z" />
    <glyph glyph-name="Uacute" unicode="&#xda;" horiz-adv-x="643" 
d="M351 743h-93l87 145h116zM189.5 19.5q-56.5 30.5 -87.5 87.5q-31 55 -31 132v441h118v-439q0 -68 36 -107t96 -39q61 0 97 39t36 107v439h118v-441q0 -75 -30.5 -132t-87.5 -87q-55 -31 -133 -31q-75 0 -131.5 30.5z" />
    <glyph glyph-name="Ucircumflex" unicode="&#xdb;" horiz-adv-x="643" 
d="M475 753h-86l-68 70l-68 -70h-86l114 145h80zM189 241q0 -68 36 -107t96 -39q61 0 97 39t36 107v439h118v-441q0 -75 -30.5 -132t-87.5 -87q-55 -31 -133 -31q-75 0 -131.5 30.5t-87.5 87.5q-31 55 -31 132v441h118v-439z" />
    <glyph glyph-name="Udieresis" unicode="&#xdc;" horiz-adv-x="643" 
d="M175 876h93v-107h-93v107zM375 876h93v-107h-93v107zM572 239q0 -75 -30.5 -132t-87.5 -87q-55 -31 -133 -31q-75 0 -131.5 30.5t-87.5 87.5q-31 55 -31 132v441h118v-439q0 -68 36 -107t96 -39q61 0 97 39t36 107v439h118v-441z" />
    <glyph glyph-name="Yacute" unicode="&#xdd;" horiz-adv-x="536" 
d="M311 743h-93l87 145h116zM331 0h-118v278l-202 402h123l140 -277l140 277h119l-202 -402v-278z" />
    <glyph glyph-name="Thorn" unicode="&#xde;" horiz-adv-x="598" 
d="M75 680h118v-114h147q66 0 116.5 -25.5t79.5 -73.5q28 -46 28 -112q0 -63 -28.5 -111.5t-79.5 -74.5q-54 -26 -116 -26h-147v-143h-118v680zM333 250q52 0 82.5 28.5t30.5 76.5t-30.5 76.5t-82.5 28.5h-140v-210h140z" />
    <glyph glyph-name="agrave" unicode="&#xe0;" horiz-adv-x="523" 
d="M338 555h-91l-111 145h116zM350 46q-39 -57 -137 -57q-74 0 -118 39.5t-44 107.5q0 75 49.5 114t143.5 39h104v29q0 43 -24.5 61.5t-82.5 18.5q-37 0 -65 -9.5t-54 -30.5l-47 83q64 52 178 52q108 0 154.5 -39t46.5 -129v-325h-104v46zM348 162v43h-86q-105 0 -105 -65
q0 -60 84 -60q107 0 107 82z" />
    <glyph glyph-name="aacute" unicode="&#xe1;" horiz-adv-x="523" 
d="M293 555h-92l87 145h116zM350 46q-39 -57 -137 -57q-74 0 -118 39.5t-44 107.5q0 75 49.5 114t143.5 39h104v29q0 43 -24.5 61.5t-82.5 18.5q-37 0 -65 -9.5t-54 -30.5l-47 83q64 52 178 52q108 0 154.5 -39t46.5 -129v-325h-104v46zM348 162v43h-86q-105 0 -105 -65
q0 -60 84 -60q107 0 107 82z" />
    <glyph glyph-name="acircumflex" unicode="&#xe2;" horiz-adv-x="523" 
d="M415 555h-86l-68 70l-68 -70h-86l114 145h80zM350 46q-39 -57 -137 -57q-74 0 -118 39.5t-44 107.5q0 75 49.5 114t143.5 39h104v29q0 43 -24.5 61.5t-82.5 18.5q-37 0 -65 -9.5t-54 -30.5l-47 83q64 52 178 52q108 0 154.5 -39t46.5 -129v-325h-104v46zM348 162v43h-86
q-105 0 -105 -65q0 -60 84 -60q107 0 107 82z" />
    <glyph glyph-name="atilde" unicode="&#xe3;" horiz-adv-x="523" 
d="M253 582q-33 18 -56 18q-16 0 -36 -10t-40 -29v79q15 21 36.5 33t43.5 12q29 0 67 -20q33 -18 57 -18q14 0 35 11t40 27v-80q-15 -21 -36.5 -32t-43.5 -11q-29 0 -67 20zM350 46q-39 -57 -137 -57q-74 0 -118 39.5t-44 107.5q0 75 49.5 114t143.5 39h104v29
q0 43 -24.5 61.5t-82.5 18.5q-37 0 -65 -9.5t-54 -30.5l-47 83q64 52 178 52q108 0 154.5 -39t46.5 -129v-325h-104v46zM348 162v43h-86q-105 0 -105 -65q0 -60 84 -60q107 0 107 82z" />
    <glyph glyph-name="adieresis" unicode="&#xe4;" horiz-adv-x="523" 
d="M114 680h93v-107h-93v107zM314 680h93v-107h-93v107zM407.5 454q46.5 -39 46.5 -129v-325h-104v46q-39 -57 -137 -57q-74 0 -118 39.5t-44 107.5q0 75 49.5 114t143.5 39h104v29q0 43 -24.5 61.5t-82.5 18.5q-37 0 -65 -9.5t-54 -30.5l-47 83q64 52 178 52
q108 0 154.5 -39zM262 205q-105 0 -105 -65q0 -60 84 -60q107 0 107 82v43h-86z" />
    <glyph glyph-name="aring" unicode="&#xe5;" horiz-adv-x="523" 
d="M365 629q0 -20 -7.5 -39.5t-20.5 -32.5q-28 -28 -71 -28q-20 0 -39 7.5t-32 20.5q-28 28 -28 71q0 20 7.5 39.5t20.5 32.5q29 29 71 29t71 -29q28 -28 28 -71zM266 680q-20 0 -34.5 -14.5t-14.5 -36.5q0 -20 14 -37q17 -14 35 -14q21 0 35 14t14 37q0 22 -14 36
q-13 15 -35 15zM407.5 454q46.5 -39 46.5 -129v-325h-104v46q-39 -57 -137 -57q-74 0 -118 39.5t-44 107.5q0 75 49.5 114t143.5 39h104v29q0 43 -24.5 61.5t-82.5 18.5q-37 0 -65 -9.5t-54 -30.5l-47 83q64 52 178 52q108 0 154.5 -39zM262 205q-105 0 -105 -65
q0 -60 84 -60q107 0 107 82v43h-86z" />
    <glyph glyph-name="ae" unicode="&#xe6;" horiz-adv-x="815" 
d="M461.5 7.5q-40.5 18.5 -69.5 58.5q-44 -77 -179 -77q-74 0 -118 39.5t-44 107.5q0 75 49.5 114t143.5 39h104v29q0 43 -24.5 61.5t-82.5 18.5q-73 0 -119 -40l-47 83q67 52 178 52q118 0 162 -51q51 51 140 51q73 0 125 -35.5t72 -97.5q16 -45 16 -155h-314q0 -28 7 -43
q25 -73 108 -73q75 0 121 54l73 -65q-71 -89 -203 -89q-58 0 -98.5 18.5zM655 289q0 34 -9.5 56.5t-31.5 36.5q-25 16 -59 16q-74 0 -95 -62q-6 -18 -6 -47h201zM348 162v43h-86q-104 0 -104 -65q0 -60 83 -60q107 0 107 82z" />
    <glyph glyph-name="ccedilla" unicode="&#xe7;" horiz-adv-x="475" 
d="M434 410l-77 -67q-41 50 -96 50q-80 0 -93 -72q-7 -29 -7 -80q0 -52 7 -82.5t28 -49.5q23 -20 65 -20q56 0 96 49l77 -68q-60 -81 -173 -81q-73 0 -125.5 35t-73.5 98q-15 45 -15 119q0 81 20 132.5t69 84.5q53 35 125 35q110 0 173 -83zM300 -21q-1 -64 -38.5 -106.5
t-96.5 -43.5v74q29 0 43.5 19.5t15.5 56.5h76z" />
    <glyph glyph-name="egrave" unicode="&#xe8;" horiz-adv-x="521" 
d="M324 555h-91l-111 145h116zM137 24.5q-53 35.5 -73 98.5q-17 57 -17 118q0 81 20 133t69 84q53 35 124 35q74 0 126 -35t72 -98q16 -45 16 -155h-314q0 -28 7 -43q25 -73 108 -73q78 0 121 54l73 -65q-72 -89 -204 -89q-75 0 -128 35.5zM361 289q0 34 -9.5 56.5
t-31.5 36.5q-25 16 -59 16q-74 0 -95 -62q-6 -18 -6 -47h201z" />
    <glyph glyph-name="eacute" unicode="&#xe9;" horiz-adv-x="521" 
d="M290 555h-92l87 145h116zM137 24.5q-53 35.5 -73 98.5q-17 57 -17 118q0 81 20 133t69 84q53 35 124 35q74 0 126 -35t72 -98q16 -45 16 -155h-314q0 -28 7 -43q25 -73 108 -73q78 0 121 54l73 -65q-72 -89 -204 -89q-75 0 -128 35.5zM361 289q0 34 -9.5 56.5t-31.5 36.5
q-25 16 -59 16q-74 0 -95 -62q-6 -18 -6 -47h201z" />
    <glyph glyph-name="ecircumflex" unicode="&#xea;" horiz-adv-x="521" 
d="M414 555h-86l-68 70l-68 -70h-86l114 145h80zM137 24.5q-53 35.5 -73 98.5q-17 57 -17 118q0 81 20 133t69 84q53 35 124 35q74 0 126 -35t72 -98q16 -45 16 -155h-314q0 -28 7 -43q25 -73 108 -73q78 0 121 54l73 -65q-72 -89 -204 -89q-75 0 -128 35.5zM361 289
q0 34 -9.5 56.5t-31.5 36.5q-25 16 -59 16q-74 0 -95 -62q-6 -18 -6 -47h201z" />
    <glyph glyph-name="edieresis" unicode="&#xeb;" horiz-adv-x="521" 
d="M113 680h93v-107h-93v107zM313 680h93v-107h-93v107zM386 458q52 -35 72 -98q16 -45 16 -155h-314q0 -28 7 -43q25 -73 108 -73q78 0 121 54l73 -65q-72 -89 -204 -89q-75 0 -128 35.5t-73 98.5q-17 57 -17 118q0 81 20 133t69 84q53 35 124 35q74 0 126 -35zM166 336
q-6 -18 -6 -47h201q0 34 -9.5 56.5t-31.5 36.5q-25 16 -59 16q-74 0 -95 -62z" />
    <glyph glyph-name="igrave" unicode="&#xec;" horiz-adv-x="258" 
d="M181 555h-91l-111 145h116zM185 0h-112v482h112v-482z" />
    <glyph glyph-name="iacute" unicode="&#xed;" horiz-adv-x="258" 
d="M173 555h-92l87 145h116zM185 0h-112v482h112v-482z" />
    <glyph glyph-name="icircumflex" unicode="&#xee;" horiz-adv-x="258" 
d="M284 555h-86l-68 70l-68 -70h-86l114 145h80zM185 0h-112v482h112v-482z" />
    <glyph glyph-name="idieresis" unicode="&#xef;" horiz-adv-x="258" 
d="M-17 680h93v-107h-93v107zM183 680h93v-107h-93v107zM73 482h112v-482h-112v482z" />
    <glyph glyph-name="eth" unicode="&#xf0;" horiz-adv-x="523" 
d="M286 628l102 31l23 -77l-73 -22l24 -32q115 -154 115 -289q0 -79 -20 -130.5t-69 -83.5q-52 -36 -126 -36t-126 34.5t-73 98.5q-16 45 -16 106q0 137 78 197q43 34 95 34q30 0 46 -4t33 -15l-65 89l-101 -31l-23 77l75 22l-60 83h123zM180.5 331.5
q-21.5 -35.5 -21.5 -105.5t21.5 -105t81.5 -35t81.5 35t21.5 105t-21.5 105.5t-81.5 35.5t-81.5 -35.5z" />
    <glyph glyph-name="ntilde" unicode="&#xf1;" horiz-adv-x="548" 
d="M265 582q-33 18 -56 18q-16 0 -36 -10t-40 -29v79q15 21 36.5 33t43.5 12q29 0 67 -20q33 -18 57 -18q14 0 35 11t40 27v-80q-15 -21 -36.5 -32t-43.5 -11q-29 0 -67 20zM368 288q0 49 -23.5 77t-67.5 28q-42 0 -67 -28.5t-25 -76.5v-288h-112v482h112v-46q39 57 128 57
q75 0 121 -50t46 -129v-314h-112v288z" />
    <glyph glyph-name="ograve" unicode="&#xf2;" horiz-adv-x="523" 
d="M319 555h-91l-111 145h116zM135.5 24q-52.5 35 -72.5 98q-16 45 -16 119q0 81 20 133t69 84q53 35 126 35t125.5 -35t72.5 -98q16 -45 16 -119q0 -80 -20.5 -132.5t-67.5 -84.5q-53 -35 -126 -35q-74 0 -126.5 35zM341.5 125.5q20.5 36.5 20.5 115.5t-20.5 115.5
t-79.5 36.5t-80 -37t-21 -115t21 -115t80 -37t79.5 36.5z" />
    <glyph glyph-name="oacute" unicode="&#xf3;" horiz-adv-x="523" 
d="M296 555h-92l87 145h116zM135.5 24q-52.5 35 -72.5 98q-16 45 -16 119q0 81 20 133t69 84q53 35 126 35t125.5 -35t72.5 -98q16 -45 16 -119q0 -80 -20.5 -132.5t-67.5 -84.5q-53 -35 -126 -35q-74 0 -126.5 35zM341.5 125.5q20.5 36.5 20.5 115.5t-20.5 115.5
t-79.5 36.5t-80 -37t-21 -115t21 -115t80 -37t79.5 36.5z" />
    <glyph glyph-name="ocircumflex" unicode="&#xf4;" horiz-adv-x="523" 
d="M415 555h-86l-68 70l-68 -70h-86l114 145h80zM135.5 24q-52.5 35 -72.5 98q-16 45 -16 119q0 81 20 133t69 84q53 35 126 35t125.5 -35t72.5 -98q16 -45 16 -119q0 -80 -20.5 -132.5t-67.5 -84.5q-53 -35 -126 -35q-74 0 -126.5 35zM341.5 125.5q20.5 36.5 20.5 115.5
t-20.5 115.5t-79.5 36.5t-80 -37t-21 -115t21 -115t80 -37t79.5 36.5z" />
    <glyph glyph-name="otilde" unicode="&#xf5;" horiz-adv-x="523" 
d="M253 582q-33 18 -56 18q-16 0 -36 -10t-40 -29v79q15 21 36.5 33t43.5 12q29 0 67 -20q33 -18 57 -18q14 0 35 11t40 27v-80q-15 -21 -36.5 -32t-43.5 -11q-29 0 -67 20zM135.5 24q-52.5 35 -72.5 98q-16 45 -16 119q0 81 20 133t69 84q53 35 126 35t125.5 -35t72.5 -98
q16 -45 16 -119q0 -80 -20.5 -132.5t-67.5 -84.5q-53 -35 -126 -35q-74 0 -126.5 35zM341.5 125.5q20.5 36.5 20.5 115.5t-20.5 115.5t-79.5 36.5t-80 -37t-21 -115t21 -115t80 -37t79.5 36.5z" />
    <glyph glyph-name="odieresis" unicode="&#xf6;" horiz-adv-x="523" 
d="M114 680h93v-107h-93v107zM314 680h93v-107h-93v107zM387.5 458q52.5 -35 72.5 -98q16 -45 16 -119q0 -80 -20.5 -132.5t-67.5 -84.5q-53 -35 -126 -35q-74 0 -126.5 35t-72.5 98q-16 45 -16 119q0 81 20 133t69 84q53 35 126 35t125.5 -35zM182 356q-21 -37 -21 -115
t21 -115t80 -37t79.5 36.5t20.5 115.5t-20.5 115.5t-79.5 36.5t-80 -37z" />
    <glyph glyph-name="divide" unicode="&#xf7;" 
d="M341 452q0 -28 -20 -48q-9 -9 -21.5 -14t-25.5 -5q-28 0 -47 19q-19 22 -19 48q0 28 19 47.5t47 19.5q30 0 47 -20q20 -17 20 -47zM55 325h439v-98h-439v98zM341 100q0 -28 -20 -48q-9 -9 -21.5 -14t-25.5 -5q-28 0 -47 19q-19 22 -19 48q0 28 19 47.5t47 19.5
q30 0 47 -20q20 -17 20 -47z" />
    <glyph glyph-name="oslash" unicode="&#xf8;" horiz-adv-x="523" 
d="M105 54q-28 31 -41 75t-13 112q0 81 20 133t69 84q53 35 126 35q68 0 121 -32l36 51h62l-59 -85q54 -61 54 -186q0 -80 -20.5 -132.5t-67.5 -84.5q-53 -35 -126 -35q-72 0 -122 32l-36 -51h-62zM326 376q-24 18 -60 18q-60 0 -81.5 -37t-21.5 -116q0 -63 10 -90zM361 161
q7 29 7 80q0 61 -10 90l-153 -225q24 -18 61 -18q80 0 95 73z" />
    <glyph glyph-name="ugrave" unicode="&#xf9;" horiz-adv-x="544" 
d="M319 555h-91l-111 145h116zM359 46q-43 -57 -126 -57q-75 0 -120.5 50t-45.5 129v314h112v-288q0 -49 23 -77t67 -28q42 0 66 28t24 76v289h112v-482h-112v46z" />
    <glyph glyph-name="uacute" unicode="&#xfa;" horiz-adv-x="544" 
d="M304 555h-92l87 145h116zM359 46q-43 -57 -126 -57q-75 0 -120.5 50t-45.5 129v314h112v-288q0 -49 23 -77t67 -28q42 0 66 28t24 76v289h112v-482h-112v46z" />
    <glyph glyph-name="ucircumflex" unicode="&#xfb;" horiz-adv-x="544" 
d="M425 555h-86l-68 70l-68 -70h-86l114 145h80zM359 46q-43 -57 -126 -57q-75 0 -120.5 50t-45.5 129v314h112v-288q0 -49 23 -77t67 -28q42 0 66 28t24 76v289h112v-482h-112v46z" />
    <glyph glyph-name="udieresis" unicode="&#xfc;" horiz-adv-x="544" 
d="M125 680h93v-107h-93v107zM325 680h93v-107h-93v107zM471 0h-112v46q-43 -57 -126 -57q-75 0 -120.5 50t-45.5 129v314h112v-288q0 -49 23 -77t67 -28q42 0 66 28t24 76v289h112v-482z" />
    <glyph glyph-name="yacute" unicode="&#xfd;" horiz-adv-x="485" 
d="M286 555h-92l87 145h116zM83 -180v100h28q28 0 44.5 13t27.5 44l14 41l-180 464h120l113 -328l108 328h116l-188 -512q-31 -84 -66 -117t-96 -33h-41z" />
    <glyph glyph-name="thorn" unicode="&#xfe;" horiz-adv-x="545" 
d="M73 680h112v-245q22 30 53.5 44t75.5 14q76 0 118 -35t55 -93q11 -57 11 -124q0 -79 -12.5 -129t-50.5 -85q-41 -38 -121 -38q-87 0 -129 58v-227h-112v860zM349 108.5q23 19.5 29 52.5q6 32 6 80q0 53 -7 83t-27 49q-23 20 -65 20q-79 0 -93 -71q-7 -29 -7 -81t7 -82.5
t28 -49.5q22 -20 65 -20q41 0 64 19.5z" />
    <glyph glyph-name="ydieresis" unicode="&#xff;" horiz-adv-x="485" 
d="M102 680h93v-107h-93v107zM302 680h93v-107h-93v107zM286 -30q-31 -84 -66 -117t-96 -33h-41v100h28q28 0 44.5 13t27.5 44l14 41l-180 464h120l113 -328l108 328h116z" />
    <glyph glyph-name="Amacron" unicode="&#x100;" horiz-adv-x="617" 
d="M452 782h-283v81h283v-81zM134 0h-117l241 680h111l236 -680h-118l-48 142h-256zM311 515l-92 -268h184z" />
    <glyph glyph-name="amacron" unicode="&#x101;" horiz-adv-x="523" 
d="M119 668h283v-81h-283v81zM407.5 454q46.5 -39 46.5 -129v-325h-104v46q-39 -57 -137 -57q-74 0 -118 39.5t-44 107.5q0 75 49.5 114t143.5 39h104v29q0 43 -24.5 61.5t-82.5 18.5q-37 0 -65 -9.5t-54 -30.5l-47 83q64 52 178 52q108 0 154.5 -39zM262 205
q-105 0 -105 -65q0 -60 84 -60q107 0 107 82v43h-86z" />
    <glyph glyph-name="Abreve" unicode="&#x102;" horiz-adv-x="617" 
d="M206.5 790q-40.5 36 -41.5 96h68q7 -29 26 -42.5t52 -13.5t52 13.5t26 42.5h68q-4 -62 -43 -97t-103 -35t-104.5 36zM134 0h-117l241 680h111l236 -680h-118l-48 142h-256zM311 515l-92 -268h184z" />
    <glyph glyph-name="abreve" unicode="&#x103;" horiz-adv-x="523" 
d="M407 685q-4 -62 -43 -97t-103 -35t-104.5 36t-41.5 96h68q11 -56 78 -56q33 0 51.5 13t25.5 43h69zM407.5 454q46.5 -39 46.5 -129v-325h-104v46q-39 -57 -137 -57q-74 0 -118 39.5t-44 107.5q0 75 49.5 114t143.5 39h104v29q0 43 -24.5 61.5t-82.5 18.5q-37 0 -65 -9.5
t-54 -30.5l-47 83q64 52 178 52q108 0 154.5 -39zM262 205q-105 0 -105 -65q0 -60 84 -60q107 0 107 82v43h-86z" />
    <glyph glyph-name="Aogonek" unicode="&#x104;" horiz-adv-x="617" 
d="M544 -94q14 -8 43 -8v-74q-60 0 -98 26.5t-38 77.5q0 23 10 43t26 29l-48 142h-256l-49 -142h-117l241 680h111l236 -680q-41 -8 -58 -23t-17 -40q0 -23 14 -31zM311 515l-92 -268h184z" />
    <glyph glyph-name="aogonek" unicode="&#x105;" horiz-adv-x="523" 
d="M454 0q-41 -11 -56 -25t-15 -38q0 -23 14 -31t43 -8v-74q-60 0 -98 26.5t-38 77.5q0 21 13 40.5t33 31.5v46q-39 -57 -137 -57q-74 0 -118 39.5t-44 107.5q0 75 49.5 114t143.5 39h104v29q0 43 -24.5 61.5t-82.5 18.5q-37 0 -65 -9.5t-54 -30.5l-47 83q64 52 178 52
q108 0 154.5 -39t46.5 -129v-325zM348 205h-86q-105 0 -105 -65q0 -60 84 -60q107 0 107 82v43z" />
    <glyph glyph-name="Cacute" unicode="&#x106;" horiz-adv-x="575" 
d="M330 743h-93l87 145h116zM160 32q-61 43 -87 124q-18 54 -18 184q0 90 10 146.5t32 94.5q27 46 79.5 78t132.5 32q98 0 162 -51.5t85 -154.5h-119q-18 52 -49 76t-79 24q-56 0 -86 -26.5t-39 -79.5q-9 -51 -9 -139q0 -117 12 -155q32 -90 122 -90q92 0 122 93h121
q-20 -97 -84 -148t-159 -51q-88 0 -149 43z" />
    <glyph glyph-name="cacute" unicode="&#x107;" horiz-adv-x="475" 
d="M282 555h-92l87 145h116zM67 373.5q20 51.5 69 84.5q53 35 125 35q110 0 173 -83l-77 -67q-41 50 -96 50q-80 0 -93 -72q-7 -29 -7 -80q0 -52 7 -82.5t28 -49.5q23 -20 65 -20q56 0 96 49l77 -68q-60 -81 -173 -81q-73 0 -125.5 35t-73.5 98q-15 45 -15 119
q0 81 20 132.5z" />
    <glyph glyph-name="Ccircumflex" unicode="&#x108;" horiz-adv-x="575" 
d="M240 753h-86l114 145h80l114 -145h-86l-68 70zM160 32q-61 43 -87 124q-18 54 -18 184q0 90 10 146.5t32 94.5q27 46 79.5 78t132.5 32q98 0 162 -51.5t85 -154.5h-119q-18 52 -49 76t-79 24q-56 0 -86 -26.5t-39 -79.5q-9 -51 -9 -139q0 -117 12 -155q32 -90 122 -90
q92 0 122 93h121q-20 -97 -84 -148t-159 -51q-88 0 -149 43z" />
    <glyph glyph-name="ccircumflex" unicode="&#x109;" horiz-adv-x="475" 
d="M412 555h-86l-68 70l-68 -70h-86l114 145h80zM67 373.5q20 51.5 69 84.5q53 35 125 35q110 0 173 -83l-77 -67q-41 50 -96 50q-80 0 -93 -72q-7 -29 -7 -80q0 -52 7 -82.5t28 -49.5q23 -20 65 -20q56 0 96 49l77 -68q-60 -81 -173 -81q-73 0 -125.5 35t-73.5 98
q-15 45 -15 119q0 81 20 132.5z" />
    <glyph glyph-name="Cdotaccent" unicode="&#x10a;" horiz-adv-x="575" 
d="M354 769h-93v107h93v-107zM160 32q-61 43 -87 124q-18 54 -18 184q0 90 10 146.5t32 94.5q27 46 79.5 78t132.5 32q98 0 162 -51.5t85 -154.5h-119q-18 52 -49 76t-79 24q-56 0 -86 -26.5t-39 -79.5q-9 -51 -9 -139q0 -117 12 -155q32 -90 122 -90q92 0 122 93h121
q-20 -97 -84 -148t-159 -51q-88 0 -149 43z" />
    <glyph glyph-name="cdotaccent" unicode="&#x10b;" horiz-adv-x="475" 
d="M304 574h-93v107h93v-107zM67 373.5q20 51.5 69 84.5q53 35 125 35q110 0 173 -83l-77 -67q-41 50 -96 50q-80 0 -93 -72q-7 -29 -7 -80q0 -52 7 -82.5t28 -49.5q23 -20 65 -20q56 0 96 49l77 -68q-60 -81 -173 -81q-73 0 -125.5 35t-73.5 98q-15 45 -15 119
q0 81 20 132.5z" />
    <glyph glyph-name="Ccaron" unicode="&#x10c;" horiz-adv-x="575" 
d="M348 751h-80l-114 145h86l68 -70l68 70h86zM160 32q-61 43 -87 124q-18 54 -18 184q0 90 10 146.5t32 94.5q27 46 79.5 78t132.5 32q98 0 162 -51.5t85 -154.5h-119q-18 52 -49 76t-79 24q-56 0 -86 -26.5t-39 -79.5q-9 -51 -9 -139q0 -117 12 -155q32 -90 122 -90
q92 0 122 93h121q-20 -97 -84 -148t-159 -51q-88 0 -149 43z" />
    <glyph glyph-name="ccaron" unicode="&#x10d;" horiz-adv-x="475" 
d="M325 698h86l-114 -145h-80l-113 145h86l67 -70zM67 373.5q20 51.5 69 84.5q53 35 125 35q110 0 173 -83l-77 -67q-41 50 -96 50q-80 0 -93 -72q-7 -29 -7 -80q0 -52 7 -82.5t28 -49.5q23 -20 65 -20q56 0 96 49l77 -68q-60 -81 -173 -81q-73 0 -125.5 35t-73.5 98
q-15 45 -15 119q0 81 20 132.5z" />
    <glyph glyph-name="Dcaron" unicode="&#x10e;" horiz-adv-x="625" 
d="M336 751h-80l-114 145h86l68 -70l68 70h86zM75 680h253q200 0 231 -157q13 -66 13 -183q0 -84 -5.5 -136.5t-22.5 -91t-52 -67.5q-53 -45 -164 -45h-253v680zM300 106q69 0 102.5 24.5t42.5 72.5q8 50 8 137q0 98 -8.5 141.5t-39.5 67.5q-32 25 -105 25h-107v-468h107z
" />
    <glyph glyph-name="dcaron" unicode="&#x10f;" horiz-adv-x="545" 
d="M360 47q-40 -58 -129 -58q-76 0 -118 35t-54 94q-12 53 -12 123q0 78 13 129t51 86q40 37 120 37q87 0 129 -58v245h112v-680h-112v47zM613 585l-103 -101v196h103v-95zM354 161q6 32 6 80q0 52 -7 82.5t-27 49.5q-23 20 -66 20q-41 0 -64 -19t-29 -52q-6 -31 -6 -81
q0 -53 7 -83t27 -49q23 -20 65 -20q79 0 94 72z" />
    <glyph glyph-name="Dcroat" unicode="&#x110;" horiz-adv-x="625" 
d="M75 298h-42v90h42v292h253q200 0 231 -157q13 -66 13 -183q0 -84 -5.5 -136.5t-22.5 -91t-52 -67.5q-53 -45 -164 -45h-253v298zM300 106q69 0 102.5 24.5t42.5 72.5q8 50 8 137q0 98 -8.5 141.5t-39.5 67.5q-32 25 -105 25h-107v-186h113v-90h-113v-192h107z" />
    <glyph glyph-name="dslash" unicode="&#x111;" horiz-adv-x="545" 
d="M360 48q-41 -59 -129 -59q-76 0 -118 35t-54 94q-12 53 -12 123q0 78 13 129t51 86q40 37 120 37q88 0 129 -59v113h-126v86h126v47h112v-47h41v-86h-41v-547h-112v48zM354 161q6 32 6 80q0 52 -7 82.5t-27 49.5q-23 20 -66 20q-41 0 -64 -19t-29 -52q-6 -31 -6 -81
q0 -53 7 -83t27 -49q23 -20 65 -20q79 0 94 72z" />
    <glyph glyph-name="Emacron" unicode="&#x112;" horiz-adv-x="570" 
d="M437 782h-283v81h283v-81zM521 0h-446v680h446v-106h-328v-178h279v-106h-279v-184h328v-106z" />
    <glyph glyph-name="emacron" unicode="&#x113;" horiz-adv-x="521" 
d="M401 587h-283v81h283v-81zM137 24.5q-53 35.5 -73 98.5q-17 57 -17 118q0 81 20 133t69 84q53 35 124 35q74 0 126 -35t72 -98q16 -45 16 -155h-314q0 -28 7 -43q25 -73 108 -73q78 0 121 54l73 -65q-72 -89 -204 -89q-75 0 -128 35.5zM361 289q0 34 -9.5 56.5
t-31.5 36.5q-25 16 -59 16q-74 0 -95 -62q-6 -18 -6 -47h201z" />
    <glyph glyph-name="Ebreve" unicode="&#x114;" horiz-adv-x="570" 
d="M191.5 790q-40.5 36 -41.5 96h68q7 -29 26 -42.5t52 -13.5t52 13.5t26 42.5h68q-4 -62 -43 -97t-103 -35t-104.5 36zM521 0h-446v680h446v-106h-328v-178h279v-106h-279v-184h328v-106z" />
    <glyph glyph-name="ebreve" unicode="&#x115;" horiz-adv-x="521" 
d="M183 685q11 -56 78 -56q33 0 51.5 13t25.5 43h69q-4 -62 -43 -97t-103 -35t-104.5 36t-41.5 96h68zM137 24.5q-53 35.5 -73 98.5q-17 57 -17 118q0 81 20 133t69 84q53 35 124 35q74 0 126 -35t72 -98q16 -45 16 -155h-314q0 -28 7 -43q25 -73 108 -73q78 0 121 54
l73 -65q-72 -89 -204 -89q-75 0 -128 35.5zM361 289q0 34 -9.5 56.5t-31.5 36.5q-25 16 -59 16q-74 0 -95 -62q-6 -18 -6 -47h201z" />
    <glyph glyph-name="Edotaccent" unicode="&#x116;" horiz-adv-x="570" 
d="M343 769h-93v107h93v-107zM521 0h-446v680h446v-106h-328v-178h279v-106h-279v-184h328v-106z" />
    <glyph glyph-name="edotaccent" unicode="&#x117;" horiz-adv-x="521" 
d="M306 574h-93v107h93v-107zM137 24.5q-53 35.5 -73 98.5q-17 57 -17 118q0 81 20 133t69 84q53 35 124 35q74 0 126 -35t72 -98q16 -45 16 -155h-314q0 -28 7 -43q25 -73 108 -73q78 0 121 54l73 -65q-72 -89 -204 -89q-75 0 -128 35.5zM361 289q0 34 -9.5 56.5
t-31.5 36.5q-25 16 -59 16q-74 0 -95 -62q-6 -18 -6 -47h201z" />
    <glyph glyph-name="Eogonek" unicode="&#x118;" horiz-adv-x="570" 
d="M193 574v-178h279v-106h-279v-184h328v-106h-16q-41 -11 -58 -26t-17 -37q0 -23 14 -31t43 -8v-74q-60 0 -98 26.5t-38 77.5q0 23 10 43t26 29h-312v680h446v-106h-328z" />
    <glyph glyph-name="eogonek" unicode="&#x119;" horiz-adv-x="521" 
d="M396 143l73 -65q-32 -41 -78 -63q-39 -28 -46 -35q-13 -13 -17 -21.5t-4 -21.5q0 -23 14 -31t43 -8v-74q-60 0 -98 26.5t-38 77.5q0 34 31 61h-11q-75 0 -128 35.5t-73 98.5q-17 57 -17 118q0 81 20 133t69 84q53 35 124 35q74 0 126 -35t72 -98q16 -45 16 -155h-314
q0 -28 7 -43q25 -73 108 -73q78 0 121 54zM160 289h201q0 34 -9.5 56.5t-31.5 36.5q-25 16 -59 16q-74 0 -95 -62q-6 -18 -6 -47z" />
    <glyph glyph-name="Ecaron" unicode="&#x11a;" horiz-adv-x="570" 
d="M337 751h-80l-114 145h86l68 -70l68 70h86zM521 0h-446v680h446v-106h-328v-178h279v-106h-279v-184h328v-106z" />
    <glyph glyph-name="ecaron" unicode="&#x11b;" horiz-adv-x="521" 
d="M328 698h86l-114 -145h-80l-113 145h86l67 -70zM137 24.5q-53 35.5 -73 98.5q-17 57 -17 118q0 81 20 133t69 84q53 35 124 35q74 0 126 -35t72 -98q16 -45 16 -155h-314q0 -28 7 -43q25 -73 108 -73q78 0 121 54l73 -65q-72 -89 -204 -89q-75 0 -128 35.5zM361 289
q0 34 -9.5 56.5t-31.5 36.5q-25 16 -59 16q-74 0 -95 -62q-6 -18 -6 -47h201z" />
    <glyph glyph-name="Gcircumflex" unicode="&#x11c;" horiz-adv-x="627" 
d="M245 753h-86l114 145h80l114 -145h-86l-68 70zM162 31q-63 42 -89 122q-18 54 -18 187q0 92 9.5 148.5t32.5 94.5q28 45 82 76.5t137 31.5q99 0 165.5 -53.5t84.5 -152.5h-121q-14 50 -47 75t-83 25q-60 0 -91 -26t-40 -78q-9 -51 -9 -141q0 -118 12 -156q32 -89 128 -89
q46 0 81 23t48 62q12 38 12 94h-129v100h245v-69q0 -109 -22.5 -170t-81.5 -102q-65 -44 -152 -44q-91 0 -154 42z" />
    <glyph glyph-name="gcircumflex" unicode="&#x11d;" horiz-adv-x="536" 
d="M216 700h80l114 -145h-86l-68 70l-68 -70h-86zM351 434v48h112v-452q0 -106 -58.5 -163.5t-166.5 -57.5q-54 0 -104 21.5t-77 57.5l73 73q51 -52 113 -52q108 0 108 115v46q-36 -57 -126 -57q-61 0 -103 30t-61 87q-16 45 -16 123q0 73 13 121.5t50 82.5q39 36 117 36
q88 0 126 -59zM178.5 357q-20.5 -36 -20.5 -104q0 -69 21 -105t75 -36q55 0 76 35.5t21 105.5q0 68 -21 104t-76 36t-75.5 -36z" />
    <glyph glyph-name="Gbreve" unicode="&#x11e;" horiz-adv-x="627" 
d="M208.5 790q-40.5 36 -41.5 96h68q7 -29 26 -42.5t52 -13.5t52 13.5t26 42.5h68q-4 -62 -43 -97t-103 -35t-104.5 36zM162 31q-63 42 -89 122q-18 54 -18 187q0 92 9.5 148.5t32.5 94.5q28 45 82 76.5t137 31.5q99 0 165.5 -53.5t84.5 -152.5h-121q-14 50 -47 75t-83 25
q-60 0 -91 -26t-40 -78q-9 -51 -9 -141q0 -118 12 -156q32 -89 128 -89q46 0 81 23t48 62q12 38 12 94h-129v100h245v-69q0 -109 -22.5 -170t-81.5 -102q-65 -44 -152 -44q-91 0 -154 42z" />
    <glyph glyph-name="gbreve" unicode="&#x11f;" horiz-adv-x="536" 
d="M403 685q-4 -62 -43 -97t-103 -35t-104.5 36t-41.5 96h68q7 -29 26 -42.5t52 -13.5t52 13.5t26 42.5h68zM351 434v48h112v-452q0 -106 -58.5 -163.5t-166.5 -57.5q-54 0 -104 21.5t-77 57.5l73 73q51 -52 113 -52q108 0 108 115v46q-36 -57 -126 -57q-61 0 -103 30
t-61 87q-16 45 -16 123q0 73 13 121.5t50 82.5q39 36 117 36q88 0 126 -59zM178.5 357q-20.5 -36 -20.5 -104q0 -69 21 -105t75 -36q55 0 76 35.5t21 105.5q0 68 -21 104t-76 36t-75.5 -36z" />
    <glyph glyph-name="Gdotaccent" unicode="&#x120;" horiz-adv-x="627" 
d="M359 769h-93v107h93v-107zM162 31q-63 42 -89 122q-18 54 -18 187q0 92 9.5 148.5t32.5 94.5q28 45 82 76.5t137 31.5q99 0 165.5 -53.5t84.5 -152.5h-121q-14 50 -47 75t-83 25q-60 0 -91 -26t-40 -78q-9 -51 -9 -141q0 -118 12 -156q32 -89 128 -89q46 0 81 23t48 62
q12 38 12 94h-129v100h245v-69q0 -109 -22.5 -170t-81.5 -102q-65 -44 -152 -44q-91 0 -154 42z" />
    <glyph glyph-name="gdotaccent" unicode="&#x121;" horiz-adv-x="536" 
d="M303 573h-93v107h93v-107zM134 -169.5q-50 21.5 -77 57.5l73 73q51 -52 113 -52q108 0 108 115v46q-36 -57 -126 -57q-61 0 -103 30t-61 87q-16 45 -16 123q0 73 13 121.5t50 82.5q39 36 117 36q88 0 126 -59v48h112v-452q0 -106 -58.5 -163.5t-166.5 -57.5
q-54 0 -104 21.5zM330 147.5q21 35.5 21 105.5q0 68 -21 104t-76 36t-75.5 -36t-20.5 -104q0 -69 21 -105t75 -36q55 0 76 35.5z" />
    <glyph glyph-name="Gcommaaccent" unicode="&#x122;" horiz-adv-x="627" 
d="M481.5 637.5q66.5 -53.5 84.5 -152.5h-121q-14 50 -47 75t-83 25q-60 0 -91 -26t-40 -78q-9 -51 -9 -141q0 -118 12 -156q32 -89 128 -89q46 0 81 23t48 62q12 38 12 94h-129v100h245v-69q0 -109 -22.5 -170t-81.5 -102q-65 -44 -152 -44q-91 0 -154 42t-89 122
q-18 54 -18 187q0 92 9.5 148.5t32.5 94.5q28 45 82 76.5t137 31.5q99 0 165.5 -53.5zM261 -54h103v-91l-103 -100v191z" />
    <glyph glyph-name="gcommaaccent" unicode="&#x123;" horiz-adv-x="536" 
d="M308 572h-103v92l103 99v-191zM134 -169.5q-50 21.5 -77 57.5l73 73q51 -52 113 -52q108 0 108 115v46q-36 -57 -126 -57q-61 0 -103 30t-61 87q-16 45 -16 123q0 73 13 121.5t50 82.5q39 36 117 36q88 0 126 -59v48h112v-452q0 -106 -58.5 -163.5t-166.5 -57.5
q-54 0 -104 21.5zM330 147.5q21 35.5 21 105.5q0 68 -21 104t-76 36t-75.5 -36t-20.5 -104q0 -69 21 -105t75 -36q55 0 76 35.5z" />
    <glyph glyph-name="Hcircumflex" unicode="&#x124;" horiz-adv-x="657" 
d="M259 753h-86l114 145h80l114 -145h-86l-68 70zM193 0h-118v680h118v-284h271v284h118v-680h-118v290h-271v-290z" />
    <glyph glyph-name="hcircumflex" unicode="&#x125;" horiz-adv-x="548" 
d="M432 753h-86l-68 70l-68 -70h-86l114 145h80zM368 288q0 49 -23.5 77t-67.5 28q-42 0 -67 -28.5t-25 -76.5v-288h-112v680h112v-244q39 57 128 57q75 0 121 -50t46 -129v-314h-112v288z" />
    <glyph glyph-name="Hbar" unicode="&#x126;" horiz-adv-x="657" 
d="M193 0h-118v494h-51v84h51v102h118v-102h271v102h118v-102h51v-84h-51v-494h-118v290h-271v-290zM193 494v-98h271v98h-271z" />
    <glyph glyph-name="hbar" unicode="&#x127;" horiz-adv-x="548" 
d="M368 288q0 49 -23.5 77t-67.5 28q-42 0 -67 -28.5t-25 -76.5v-288h-112v547h-41v86h41v47h112v-47h126v-86h-126v-112q39 58 128 58q75 0 121 -50t46 -129v-314h-112v288z" />
    <glyph glyph-name="Itilde" unicode="&#x128;" horiz-adv-x="268" 
d="M-5 836q15 21 36.5 32.5t43.5 11.5q29 0 67 -20q33 -18 57 -18q14 0 34 10.5t41 28.5v-81q-15 -21 -36.5 -32t-43.5 -11q-29 0 -67 20q-33 18 -56 18q-16 0 -36 -10t-40 -28v79zM193 0h-118v680h118v-680z" />
    <glyph glyph-name="itilde" unicode="&#x129;" horiz-adv-x="258" 
d="M122 581q-33 18 -56 18q-16 0 -37.5 -10.5t-38.5 -27.5v79q15 21 36.5 32.5t43.5 11.5q29 0 67 -20q33 -18 57 -18q14 0 34 10.5t41 28.5v-81q-15 -21 -36.5 -32t-43.5 -11q-29 0 -67 20zM185 0h-112v482h112v-482z" />
    <glyph glyph-name="Imacron" unicode="&#x12a;" horiz-adv-x="268" 
d="M276 782h-283v81h283v-81zM193 0h-118v680h118v-680z" />
    <glyph glyph-name="imacron" unicode="&#x12b;" horiz-adv-x="258" 
d="M271 587h-283v81h283v-81zM185 0h-112v482h112v-482z" />
    <glyph glyph-name="Ibreve" unicode="&#x12c;" horiz-adv-x="268" 
d="M30.5 790q-40.5 36 -41.5 96h68q7 -29 26 -42.5t52 -13.5t52 13.5t26 42.5h68q-4 -62 -43 -97t-103 -35t-104.5 36zM193 0h-118v680h118v-680z" />
    <glyph glyph-name="ibreve" unicode="&#x12d;" horiz-adv-x="258" 
d="M51 686q7 -29 26 -42.5t52 -13.5t52 13.5t26 42.5h68q-4 -62 -43 -97t-103 -35t-104.5 36t-41.5 96h68zM185 0h-112v482h112v-482z" />
    <glyph glyph-name="Iogonek" unicode="&#x12e;" horiz-adv-x="268" 
d="M193 680v-680h-1q-40 -12 -57 -26.5t-17 -36.5q0 -23 13.5 -31t43.5 -8v-74q-60 0 -98 26.5t-38 77.5q0 23 10 43t26 29v680h118z" />
    <glyph glyph-name="iogonek" unicode="&#x12f;" horiz-adv-x="258" 
d="M73 573v107h112v-107h-112zM73 482h112v-482q-41 -11 -58 -26t-17 -37q0 -23 14 -31t43 -8v-74q-60 0 -98 26.5t-38 77.5q0 22 12 42t30 30v482z" />
    <glyph glyph-name="Idot" unicode="&#x130;" horiz-adv-x="268" 
d="M182 769h-93v107h93v-107zM193 0h-118v680h118v-680z" />
    <glyph glyph-name="dotlessi" unicode="&#x131;" horiz-adv-x="258" 
d="M185 0h-112v482h112v-482z" />
    <glyph glyph-name="IJ" unicode="&#x132;" horiz-adv-x="775" 
d="M193 0h-118v680h118v-680zM361 13.5q-50 24.5 -75 65.5l89 67q37 -51 98 -51q55 0 84 34t29 100v451h118v-451q0 -113 -63 -176.5t-172 -63.5q-58 0 -108 24.5z" />
    <glyph glyph-name="ij" unicode="&#x133;" horiz-adv-x="516" 
d="M185 573h-112v107h112v-107zM443 573h-112v107h112v-107zM185 0h-112v482h112v-482zM243 -80h32q31 0 43.5 12.5t12.5 44.5v505h112v-503q0 -159 -162 -159h-38v100z" />
    <glyph glyph-name="Jcircumflex" unicode="&#x134;" horiz-adv-x="507" 
d="M312 753h-86l114 145h80l114 -145h-86l-68 70zM98 13.5q-50 24.5 -75 65.5l89 67q38 -51 98 -51q55 0 84 34t29 100v451h118v-451q0 -113 -63 -176.5t-172 -63.5q-58 0 -108 24.5z" />
    <glyph glyph-name="jcircumflex" unicode="&#x135;" horiz-adv-x="258" 
d="M284 555h-86l-68 70l-68 -70h-86l114 145h80zM-15 -80h32q31 0 43.5 12.5t12.5 44.5v505h112v-503q0 -159 -162 -159h-38v100z" />
    <glyph glyph-name="Kcommaaccent" unicode="&#x136;" horiz-adv-x="633" 
d="M193 0h-118v680h118v-330l263 330h139l-222 -267l242 -413h-135l-183 322l-104 -126v-196zM370 -145l-103 -100v191h103v-91z" />
    <glyph glyph-name="kcommaaccent" unicode="&#x137;" horiz-adv-x="522" 
d="M73 680h112v-402l174 204h125l-162 -186l182 -296h-126l-128 212l-65 -75v-137h-112v680zM216 -54h103v-91l-103 -100v191z" />
    <glyph glyph-name="kgreenlandic" unicode="&#x138;" horiz-adv-x="522" 
d="M504 0h-126l-128 212l-65 -75v-137h-112v482h112v-204l173 204h126l-162 -186z" />
    <glyph glyph-name="Lacute" unicode="&#x139;" horiz-adv-x="545" 
d="M186 743h-93l87 145h116zM521 0h-446v680h118v-574h328v-106z" />
    <glyph glyph-name="lacute" unicode="&#x13a;" horiz-adv-x="291" 
d="M172 743h-93l87 145h116zM203 -6q-69 0 -100.5 33t-31.5 105v548h112v-542q0 -24 10 -34t32 -10h32v-100h-54z" />
    <glyph glyph-name="Lcommaaccent" unicode="&#x13b;" horiz-adv-x="545" 
d="M521 0h-446v680h118v-574h328v-106zM345 -145l-103 -100v191h103v-91z" />
    <glyph glyph-name="lcommaaccent" unicode="&#x13c;" horiz-adv-x="291" 
d="M203 -6q-69 0 -100.5 33t-31.5 105v548h112v-542q0 -24 10 -34t32 -10h32v-100h-54zM218 -145l-103 -100v191h103v-91z" />
    <glyph glyph-name="Lcaron" unicode="&#x13d;" horiz-adv-x="545" 
d="M521 0h-446v680h118v-574h328v-106zM352 589l-103 -100v191h103v-91z" />
    <glyph glyph-name="lcaron" unicode="&#x13e;" horiz-adv-x="291" 
d="M203 -6q-69 0 -100.5 33t-31.5 105v548h112v-542q0 -24 10 -34t32 -10h32v-100h-54zM324 589l-103 -100v191h103v-91z" />
    <glyph glyph-name="Ldot" unicode="&#x13f;" horiz-adv-x="545" 
d="M521 0h-446v680h118v-574h328v-106zM439 280h-93v107h93v-107z" />
    <glyph glyph-name="ldot" unicode="&#x140;" horiz-adv-x="356" 
d="M203 -6q-69 0 -100.5 33t-31.5 105v548h112v-542q0 -24 10 -34t32 -10h32v-100h-54zM338 280h-93v107h93v-107z" />
    <glyph glyph-name="Lslash" unicode="&#x141;" horiz-adv-x="545" 
d="M521 0h-446v259l-61 -30v101l61 30v320h118v-262l137 71v-101l-137 -71v-211h328v-106z" />
    <glyph glyph-name="lslash" unicode="&#x142;" horiz-adv-x="291" 
d="M183 334v-196q0 -24 10 -34t32 -10h32v-100h-54q-69 0 -100.5 33t-31.5 105v151l-43 -22v95l43 22v302h112v-251l74 38v-95z" />
    <glyph glyph-name="Nacute" unicode="&#x143;" horiz-adv-x="657" 
d="M342 888h116l-110 -145h-93zM475 680h107v-680h-112l-288 485v-485h-107v680h113l287 -486v486z" />
    <glyph glyph-name="nacute" unicode="&#x144;" horiz-adv-x="548" 
d="M293 555h-92l87 145h116zM368 288q0 49 -23.5 77t-67.5 28q-42 0 -67 -28.5t-25 -76.5v-288h-112v482h112v-46q39 57 128 57q75 0 121 -50t46 -129v-314h-112v288z" />
    <glyph glyph-name="Ncommaaccent" unicode="&#x145;" horiz-adv-x="657" 
d="M475 680h107v-680h-112l-288 485v-485h-107v680h113l287 -486v486zM277 -54h103v-91l-103 -100v191z" />
    <glyph glyph-name="ncommaaccent" unicode="&#x146;" horiz-adv-x="548" 
d="M368 288q0 49 -23.5 77t-67.5 28q-42 0 -67 -28.5t-25 -76.5v-288h-112v482h112v-46q39 57 128 57q75 0 121 -50t46 -129v-314h-112v288zM326 -145l-103 -100v191h103v-91z" />
    <glyph glyph-name="Ncaron" unicode="&#x147;" horiz-adv-x="657" 
d="M393 896h86l-114 -145h-80l-114 145h86l68 -70zM475 680h107v-680h-112l-288 485v-485h-107v680h113l287 -486v486z" />
    <glyph glyph-name="ncaron" unicode="&#x148;" horiz-adv-x="548" 
d="M341 698h86l-114 -145h-80l-114 145h86l68 -70zM368 288q0 49 -23.5 77t-67.5 28q-42 0 -67 -28.5t-25 -76.5v-288h-112v482h112v-46q39 57 128 57q75 0 121 -50t46 -129v-314h-112v288z" />
    <glyph glyph-name="napostrophe" unicode="&#x149;" horiz-adv-x="548" 
d="M88 589l-103 -100v191h103v-91zM368 288q0 49 -23.5 77t-67.5 28q-42 0 -67 -28.5t-25 -76.5v-288h-112v482h112v-46q39 57 128 57q75 0 121 -50t46 -129v-314h-112v288z" />
    <glyph glyph-name="Eng" unicode="&#x14a;" horiz-adv-x="657" 
d="M362 -74h33q40 0 58 17t18 56l-289 486v-485h-107v680h113l287 -486v486h107v-677q0 -183 -181 -183h-39v106z" />
    <glyph glyph-name="eng" unicode="&#x14b;" horiz-adv-x="548" 
d="M280 -180v100h32q31 0 43.5 12.5t12.5 44.5v311q0 49 -23.5 77t-67.5 28q-42 0 -67 -28.5t-25 -76.5v-288h-112v482h112v-46q39 57 128 57q75 0 121 -50t46 -129v-335q0 -159 -162 -159h-38z" />
    <glyph glyph-name="Omacron" unicode="&#x14c;" horiz-adv-x="627" 
d="M454 782h-283v81h283v-81zM161 31q-62 42 -88 122q-18 54 -18 187q0 91 10 148t32 95q27 45 80.5 76.5t135.5 31.5q90 0 152.5 -42t88.5 -122q18 -54 18 -187q0 -92 -9.5 -148.5t-31.5 -94.5q-26 -45 -81 -76.5t-137 -31.5q-90 0 -152 42zM440 184q12 38 12 156
q0 96 -9.5 144t-38.5 74q-30 27 -91 27q-58 0 -89 -26t-40 -78q-9 -51 -9 -141q0 -118 12 -156q32 -89 126 -89q95 0 127 89z" />
    <glyph glyph-name="omacron" unicode="&#x14d;" horiz-adv-x="523" 
d="M401 588h-283v81h283v-81zM135.5 24q-52.5 35 -72.5 98q-16 45 -16 119q0 81 20 133t69 84q53 35 126 35t125.5 -35t72.5 -98q16 -45 16 -119q0 -80 -20.5 -132.5t-67.5 -84.5q-53 -35 -126 -35q-74 0 -126.5 35zM341.5 125.5q20.5 36.5 20.5 115.5t-20.5 115.5
t-79.5 36.5t-80 -37t-21 -115t21 -115t80 -37t79.5 36.5z" />
    <glyph glyph-name="Obreve" unicode="&#x14e;" horiz-adv-x="627" 
d="M206.5 790q-40.5 36 -41.5 96h68q7 -29 26 -42.5t52 -13.5t52 13.5t26 42.5h68q-4 -62 -43 -97t-103 -35t-104.5 36zM161 31q-62 42 -88 122q-18 54 -18 187q0 91 10 148t32 95q27 45 80.5 76.5t135.5 31.5q90 0 152.5 -42t88.5 -122q18 -54 18 -187q0 -92 -9.5 -148.5
t-31.5 -94.5q-26 -45 -81 -76.5t-137 -31.5q-90 0 -152 42zM440 184q12 38 12 156q0 96 -9.5 144t-38.5 74q-30 27 -91 27q-58 0 -89 -26t-40 -78q-9 -51 -9 -141q0 -118 12 -156q32 -89 126 -89q95 0 127 89z" />
    <glyph glyph-name="obreve" unicode="&#x14f;" horiz-adv-x="523" 
d="M183 686q7 -29 26 -42.5t52 -13.5t52 13.5t26 42.5h68q-4 -62 -43 -97t-103 -35t-104.5 36t-41.5 96h68zM135.5 24q-52.5 35 -72.5 98q-16 45 -16 119q0 81 20 133t69 84q53 35 126 35t125.5 -35t72.5 -98q16 -45 16 -119q0 -80 -20.5 -132.5t-67.5 -84.5
q-53 -35 -126 -35q-74 0 -126.5 35zM341.5 125.5q20.5 36.5 20.5 115.5t-20.5 115.5t-79.5 36.5t-80 -37t-21 -115t21 -115t80 -37t79.5 36.5z" />
    <glyph glyph-name="Ohungarumlaut" unicode="&#x150;" horiz-adv-x="627" 
d="M260 746h-86l75 145h100zM418 746h-86l75 145h100zM161 31q-62 42 -88 122q-18 54 -18 187q0 91 10 148t32 95q27 45 80.5 76.5t135.5 31.5q90 0 152.5 -42t88.5 -122q18 -54 18 -187q0 -92 -9.5 -148.5t-31.5 -94.5q-26 -45 -81 -76.5t-137 -31.5q-90 0 -152 42z
M440 184q12 38 12 156q0 96 -9.5 144t-38.5 74q-30 27 -91 27q-58 0 -89 -26t-40 -78q-9 -51 -9 -141q0 -118 12 -156q32 -89 126 -89q95 0 127 89z" />
    <glyph glyph-name="ohungarumlaut" unicode="&#x151;" horiz-adv-x="523" 
d="M221 555h-86l75 145h100zM379 555h-86l75 145h100zM135.5 24q-52.5 35 -72.5 98q-16 45 -16 119q0 81 20 133t69 84q53 35 126 35t125.5 -35t72.5 -98q16 -45 16 -119q0 -80 -20.5 -132.5t-67.5 -84.5q-53 -35 -126 -35q-74 0 -126.5 35zM341.5 125.5
q20.5 36.5 20.5 115.5t-20.5 115.5t-79.5 36.5t-80 -37t-21 -115t21 -115t80 -37t79.5 36.5z" />
    <glyph glyph-name="OE" unicode="&#x152;" horiz-adv-x="947" 
d="M161 31q-62 42 -88 122q-18 54 -18 187q0 91 10 148t32 95q27 45 80.5 76.5t135.5 31.5q90 0 139 -49v38h446v-106h-328v-178h279v-106h-279v-184h328v-106h-446v38q-49 -49 -139 -49t-152 42zM440 184q12 38 12 156q0 96 -9.5 144t-38.5 74q-30 27 -91 27q-58 0 -89 -26
t-40 -78q-9 -51 -9 -141q0 -118 12 -156q32 -89 126 -89q95 0 127 89z" />
    <glyph glyph-name="oe" unicode="&#x153;" horiz-adv-x="835" 
d="M420 56q-30 -35 -68 -51t-90 -16q-74 0 -126.5 35t-72.5 98q-16 45 -16 119q0 81 20 133t69 84q53 35 126 35q52 0 89.5 -15.5t67.5 -48.5q52 64 156 64q73 0 125 -35.5t72 -97.5q16 -45 16 -155h-314q0 -28 7 -43q25 -73 108 -73q78 0 121 54l73 -65q-38 -47 -87 -68
t-116 -21q-105 0 -160 67zM675 289q0 34 -9.5 56.5t-31.5 36.5q-25 16 -59 16q-74 0 -95 -62q-6 -18 -6 -47h201zM341.5 125.5q20.5 36.5 20.5 115.5t-20.5 115.5t-79.5 36.5t-80 -37t-21 -115t21 -115t80 -37t79.5 36.5z" />
    <glyph glyph-name="Racute" unicode="&#x154;" horiz-adv-x="619" 
d="M313 743h-93l87 145h116zM75 680h273q62 0 111.5 -26.5t77.5 -72.5t28 -104q0 -66 -34.5 -115.5t-94.5 -71.5l150 -290h-135l-135 275h-123v-275h-118v680zM344 381q47 0 75.5 26.5t28.5 69.5q0 44 -28.5 70.5t-75.5 26.5h-151v-193h151z" />
    <glyph glyph-name="racute" unicode="&#x155;" horiz-adv-x="423" 
d="M246 555h-92l87 145h116zM73 482h112v-53q19 31 51 47.5t75 16.5q33 0 59 -11t50 -36l-65 -81q-40 28 -79 28q-91 0 -91 -122v-271h-112v482z" />
    <glyph glyph-name="Rcommaaccent" unicode="&#x156;" horiz-adv-x="619" 
d="M75 680h273q62 0 111.5 -26.5t77.5 -72.5t28 -104q0 -66 -34.5 -115.5t-94.5 -71.5l150 -290h-135l-135 275h-123v-275h-118v680zM344 381q47 0 75.5 26.5t28.5 69.5q0 44 -28.5 70.5t-75.5 26.5h-151v-193h151zM362 -145l-103 -100v191h103v-91z" />
    <glyph glyph-name="rcommaaccent" unicode="&#x157;" horiz-adv-x="423" 
d="M73 482h112v-53q19 31 51 47.5t75 16.5q33 0 59 -11t50 -36l-65 -81q-40 28 -79 28q-91 0 -91 -122v-271h-112v482zM181 -145l-103 -100v191h103v-91z" />
    <glyph glyph-name="Rcaron" unicode="&#x158;" horiz-adv-x="619" 
d="M329 751h-80l-114 145h86l68 -70l68 70h86zM75 680h273q62 0 111.5 -26.5t77.5 -72.5t28 -104q0 -66 -34.5 -115.5t-94.5 -71.5l150 -290h-135l-135 275h-123v-275h-118v680zM344 381q47 0 75.5 26.5t28.5 69.5q0 44 -28.5 70.5t-75.5 26.5h-151v-193h151z" />
    <glyph glyph-name="rcaron" unicode="&#x159;" horiz-adv-x="423" 
d="M300 698h86l-114 -145h-80l-114 145h86l68 -70zM73 482h112v-53q19 31 51 47.5t75 16.5q33 0 59 -11t50 -36l-65 -81q-40 28 -79 28q-91 0 -91 -122v-271h-112v482z" />
    <glyph glyph-name="Sacute" unicode="&#x15a;" horiz-adv-x="587" 
d="M332 743h-93l87 145h116zM154 14q-33 12 -64.5 31.5t-52.5 41.5l74 86q94 -78 193 -78q59 0 93.5 26.5t34.5 71.5q0 40 -29.5 62.5t-94.5 31.5l-36 5q-205 28 -205 194q0 60 28.5 107t80.5 73q50 25 121 25q69 0 124 -18t103 -56l-58 -90q-39 28 -84.5 43t-87.5 15
q-50 0 -78.5 -24.5t-28.5 -66.5q0 -74 125 -92l36 -5q203 -29 203 -197q0 -63 -30 -110.5t-88 -73.5q-58 -27 -138 -27q-78 0 -141 25z" />
    <glyph glyph-name="sacute" unicode="&#x15b;" horiz-adv-x="498" 
d="M285 555h-92l87 145h116zM44 71l70 75q33 -30 72.5 -46t76.5 -16q42 0 65.5 15t23.5 42q0 24 -18 36.5t-62 16.5l-52 5q-148 15 -148 142q0 72 49 112t138 40q56 0 101.5 -15t87.5 -50l-61 -74q-62 45 -134 45q-33 0 -53 -14t-20 -36q0 -23 18.5 -35t60.5 -16l52 -5
q72 -7 110.5 -43.5t38.5 -97.5q0 -76 -53.5 -119.5t-148.5 -43.5q-129 0 -214 82z" />
    <glyph glyph-name="Scircumflex" unicode="&#x15c;" horiz-adv-x="587" 
d="M234 753h-86l114 145h80l114 -145h-86l-68 70zM154 14q-33 12 -64.5 31.5t-52.5 41.5l74 86q94 -78 193 -78q59 0 93.5 26.5t34.5 71.5q0 40 -29.5 62.5t-94.5 31.5l-36 5q-205 28 -205 194q0 60 28.5 107t80.5 73q50 25 121 25q69 0 124 -18t103 -56l-58 -90
q-39 28 -84.5 43t-87.5 15q-50 0 -78.5 -24.5t-28.5 -66.5q0 -74 125 -92l36 -5q203 -29 203 -197q0 -63 -30 -110.5t-88 -73.5q-58 -27 -138 -27q-78 0 -141 25z" />
    <glyph glyph-name="scircumflex" unicode="&#x15d;" horiz-adv-x="498" 
d="M411 555h-86l-68 70l-68 -70h-86l114 145h80zM44 71l70 75q33 -30 72.5 -46t76.5 -16q42 0 65.5 15t23.5 42q0 24 -18 36.5t-62 16.5l-52 5q-148 15 -148 142q0 72 49 112t138 40q56 0 101.5 -15t87.5 -50l-61 -74q-62 45 -134 45q-33 0 -53 -14t-20 -36q0 -23 18.5 -35
t60.5 -16l52 -5q72 -7 110.5 -43.5t38.5 -97.5q0 -76 -53.5 -119.5t-148.5 -43.5q-129 0 -214 82z" />
    <glyph glyph-name="Scedilla" unicode="&#x15e;" horiz-adv-x="587" 
d="M154 14q-33 12 -64.5 31.5t-52.5 41.5l74 86q94 -78 193 -78q59 0 93.5 26.5t34.5 71.5q0 40 -29.5 62.5t-94.5 31.5l-36 5q-205 28 -205 194q0 60 28.5 107t80.5 73q50 25 121 25q69 0 124 -18t103 -56l-58 -90q-39 28 -84.5 43t-87.5 15q-50 0 -78.5 -24.5t-28.5 -66.5
q0 -74 125 -92l36 -5q203 -29 203 -197q0 -99 -67 -155t-189 -56q-78 0 -141 25zM347 -21q-1 -64 -38.5 -106.5t-96.5 -43.5v74q29 0 43.5 19.5t15.5 56.5h76z" />
    <glyph glyph-name="scedilla" unicode="&#x15f;" horiz-adv-x="498" 
d="M360.5 478q45.5 -15 87.5 -50l-61 -74q-62 45 -134 45q-33 0 -53 -14t-20 -36q0 -23 18.5 -35t60.5 -16l52 -5q72 -7 110.5 -43.5t38.5 -97.5q0 -76 -53.5 -119.5t-148.5 -43.5q-129 0 -214 82l70 75q33 -30 72.5 -46t76.5 -16q42 0 65.5 15t23.5 42q0 24 -18 36.5
t-62 16.5l-52 5q-148 15 -148 142q0 72 49 112t138 40q56 0 101.5 -15zM302 -21q-1 -64 -38.5 -106.5t-96.5 -43.5v74q29 0 43.5 19.5t15.5 56.5h76z" />
    <glyph glyph-name="Scaron" unicode="&#x160;" horiz-adv-x="587" 
d="M342 751h-80l-114 145h86l68 -70l68 70h86zM154 14q-33 12 -64.5 31.5t-52.5 41.5l74 86q94 -78 193 -78q59 0 93.5 26.5t34.5 71.5q0 40 -29.5 62.5t-94.5 31.5l-36 5q-205 28 -205 194q0 60 28.5 107t80.5 73q50 25 121 25q69 0 124 -18t103 -56l-58 -90
q-39 28 -84.5 43t-87.5 15q-50 0 -78.5 -24.5t-28.5 -66.5q0 -74 125 -92l36 -5q203 -29 203 -197q0 -63 -30 -110.5t-88 -73.5q-58 -27 -138 -27q-78 0 -141 25z" />
    <glyph glyph-name="scaron" unicode="&#x161;" horiz-adv-x="498" 
d="M325 698h86l-114 -145h-80l-114 145h86l68 -70zM44 71l70 75q33 -30 72.5 -46t76.5 -16q42 0 65.5 15t23.5 42q0 24 -18 36.5t-62 16.5l-52 5q-148 15 -148 142q0 72 49 112t138 40q56 0 101.5 -15t87.5 -50l-61 -74q-62 45 -134 45q-33 0 -53 -14t-20 -36
q0 -23 18.5 -35t60.5 -16l52 -5q72 -7 110.5 -43.5t38.5 -97.5q0 -76 -53.5 -119.5t-148.5 -43.5q-129 0 -214 82z" />
    <glyph glyph-name="uni0162" unicode="&#x162;" horiz-adv-x="550" 
d="M334 0h-118v574h-194v106h506v-106h-194v-574zM326 -145l-103 -100v191h103v-91z" />
    <glyph glyph-name="uni0163" unicode="&#x163;" horiz-adv-x="321" 
d="M214 -6q-71 0 -102.5 34t-31.5 107v260h-48v87h48v148h112v-148h80v-87h-80v-256q0 -25 10.5 -35t34.5 -10h35v-100h-58zM232 -145l-103 -100v191h103v-91z" />
    <glyph glyph-name="Tcaron" unicode="&#x164;" horiz-adv-x="550" 
d="M314 751h-80l-114 145h86l68 -70l68 70h86zM334 0h-118v574h-194v106h506v-106h-194v-574z" />
    <glyph glyph-name="tcaron" unicode="&#x165;" horiz-adv-x="321" 
d="M248 489v191h103v-91zM192 630v-148h80v-87h-80v-256q0 -25 10.5 -35t34.5 -10h35v-100h-58q-71 0 -102.5 34t-31.5 107v260h-48v87h48v148h112z" />
    <glyph glyph-name="Tbar" unicode="&#x166;" horiz-adv-x="550" 
d="M334 0h-118v336h-116v98h116v140h-194v106h506v-106h-194v-140h116v-98h-116v-336z" />
    <glyph glyph-name="tbar" unicode="&#x167;" horiz-adv-x="321" 
d="M214 -6q-71 0 -102.5 34t-31.5 107v114h-38v81h38v65h-48v87h48v148h112v-148h80v-87h-80v-65h69v-81h-69v-110q0 -25 10.5 -35t34.5 -10h35v-100h-58z" />
    <glyph glyph-name="Utilde" unicode="&#x168;" horiz-adv-x="643" 
d="M314 777q-33 18 -56 18q-16 0 -36 -10t-40 -28v79q15 21 36.5 32.5t43.5 11.5q29 0 67 -20q33 -18 57 -18q14 0 34 10.5t41 28.5v-81q-15 -21 -36.5 -32t-43.5 -11q-29 0 -67 20zM189 241q0 -68 36 -107t96 -39q61 0 97 39t36 107v439h118v-441q0 -75 -30.5 -132
t-87.5 -87q-55 -31 -133 -31q-75 0 -131.5 30.5t-87.5 87.5q-31 55 -31 132v441h118v-439z" />
    <glyph glyph-name="utilde" unicode="&#x169;" horiz-adv-x="544" 
d="M263 581q-33 18 -56 18q-16 0 -36 -10t-40 -28v79q15 21 36.5 32.5t43.5 11.5q29 0 67 -20q33 -18 57 -18q14 0 34 10.5t41 28.5v-81q-15 -21 -36.5 -32t-43.5 -11q-29 0 -67 20zM359 46q-43 -57 -126 -57q-75 0 -120.5 50t-45.5 129v314h112v-288q0 -49 23 -77t67 -28
q42 0 66 28t24 76v289h112v-482h-112v46z" />
    <glyph glyph-name="Umacron" unicode="&#x16a;" horiz-adv-x="643" 
d="M463 782h-283v81h283v-81zM189 241q0 -68 36 -107t96 -39q61 0 97 39t36 107v439h118v-441q0 -75 -30.5 -132t-87.5 -87q-55 -31 -133 -31q-75 0 -131.5 30.5t-87.5 87.5q-31 55 -31 132v441h118v-439z" />
    <glyph glyph-name="umacron" unicode="&#x16b;" horiz-adv-x="544" 
d="M412 587h-283v81h283v-81zM359 46q-43 -57 -126 -57q-75 0 -120.5 50t-45.5 129v314h112v-288q0 -49 23 -77t67 -28q42 0 66 28t24 76v289h112v-482h-112v46z" />
    <glyph glyph-name="Ubreve" unicode="&#x16c;" horiz-adv-x="643" 
d="M216.5 790q-40.5 36 -41.5 96h68q7 -29 26 -42.5t52 -13.5t52 13.5t26 42.5h68q-4 -62 -43 -97t-103 -35t-104.5 36zM189.5 19.5q-56.5 30.5 -87.5 87.5q-31 55 -31 132v441h118v-439q0 -68 36 -107t96 -39q61 0 97 39t36 107v439h118v-441q0 -75 -30.5 -132t-87.5 -87
q-55 -31 -133 -31q-75 0 -131.5 30.5z" />
    <glyph glyph-name="ubreve" unicode="&#x16d;" horiz-adv-x="544" 
d="M194 686q7 -29 26 -42.5t52 -13.5t52 13.5t26 42.5h68q-4 -62 -43 -97t-103 -35t-104.5 36t-41.5 96h68zM359 46q-43 -57 -126 -57q-75 0 -120.5 50t-45.5 129v314h112v-288q0 -49 23 -77t67 -28q42 0 66 28t24 76v289h112v-482h-112v46z" />
    <glyph glyph-name="Uring" unicode="&#x16e;" horiz-adv-x="643" 
d="M421 820q0 -42 -29 -71q-13 -13 -32 -20.5t-39 -7.5q-43 0 -71.5 28.5t-28.5 70.5t29 71t71 29t71 -29t29 -71zM370 820q0 22 -13.5 36.5t-35.5 14.5q-20 0 -34.5 -14.5t-14.5 -36.5q0 -20 14 -37q17 -14 35 -14q21 0 35 14t14 37zM189 241q0 -68 36 -107t96 -39
q61 0 97 39t36 107v439h118v-441q0 -75 -30.5 -132t-87.5 -87q-55 -31 -133 -31q-75 0 -131.5 30.5t-87.5 87.5q-31 55 -31 132v441h118v-439z" />
    <glyph glyph-name="uring" unicode="&#x16f;" horiz-adv-x="544" 
d="M370 629q0 -20 -7.5 -39.5t-20.5 -32.5q-28 -28 -71 -28q-20 0 -39 7.5t-32 20.5q-28 28 -28 71q0 20 7.5 39.5t20.5 32.5q29 29 71 29t71 -29q28 -28 28 -71zM271 680q-20 0 -34.5 -14.5t-14.5 -36.5q0 -20 14 -37q17 -14 35 -14q21 0 35 14t14 37q0 22 -14 36
q-13 15 -35 15zM471 0h-112v46q-43 -57 -126 -57q-75 0 -120.5 50t-45.5 129v314h112v-288q0 -49 23 -77t67 -28q42 0 66 28t24 76v289h112v-482z" />
    <glyph glyph-name="Uhungarumlaut" unicode="&#x170;" horiz-adv-x="643" 
d="M276 746h-86l75 145h100zM434 746h-86l75 145h100zM189 241q0 -68 36 -107t96 -39q61 0 97 39t36 107v439h118v-441q0 -75 -30.5 -132t-87.5 -87q-55 -31 -133 -31q-75 0 -131.5 30.5t-87.5 87.5q-31 55 -31 132v441h118v-439z" />
    <glyph glyph-name="uhungarumlaut" unicode="&#x171;" horiz-adv-x="544" 
d="M230 555h-86l75 145h100zM388 555h-86l75 145h100zM359 46q-43 -57 -126 -57q-75 0 -120.5 50t-45.5 129v314h112v-288q0 -49 23 -77t67 -28q42 0 66 28t24 76v289h112v-482h-112v46z" />
    <glyph glyph-name="Uogonek" unicode="&#x172;" horiz-adv-x="643" 
d="M572 680v-441q0 -100 -52.5 -165t-144.5 -81q-29 -11 -41.5 -24.5t-12.5 -31.5q0 -23 14 -31t43 -8v-74q-60 0 -98 26.5t-38 77.5q0 39 27 65q-93 15 -145.5 80t-52.5 166v441h118v-439q0 -68 36 -107t96 -39q61 0 97 39t36 107v439h118z" />
    <glyph glyph-name="uogonek" unicode="&#x173;" horiz-adv-x="544" 
d="M471 0q-41 -11 -58.5 -26t-17.5 -37q0 -23 14 -31t43 -8v-74q-60 0 -98 26.5t-38 77.5q0 22 12.5 42t30.5 30v46q-43 -57 -126 -57q-75 0 -120.5 50t-45.5 129v314h112v-288q0 -49 23 -77t67 -28q42 0 66 28t24 76v289h112v-482z" />
    <glyph glyph-name="Wcircumflex" unicode="&#x174;" horiz-adv-x="827" 
d="M569 753h-86l-68 70l-68 -70h-86l114 145h80zM644 0h-94l-134 479l-135 -479h-94l-171 680h114l111 -473l131 473h88l134 -473l108 473h113z" />
    <glyph glyph-name="wcircumflex" unicode="&#x175;" horiz-adv-x="753" 
d="M533 555h-86l-68 70l-68 -70h-86l114 145h80zM577 0h-100l-97 321l-98 -321h-100l-158 482h116l97 -332l96 332h92l102 -332l92 332h116z" />
    <glyph glyph-name="Ycircumflex" unicode="&#x176;" horiz-adv-x="536" 
d="M231 898h80l114 -145h-86l-68 70l-68 -70h-86zM414 680h119l-202 -402v-278h-118v278l-202 402h123l140 -277z" />
    <glyph glyph-name="ycircumflex" unicode="&#x177;" horiz-adv-x="485" 
d="M209 700h80l114 -145h-86l-68 70l-68 -70h-86zM286 -30q-31 -84 -66 -117t-96 -33h-41v100h28q28 0 44.5 13t27.5 44l14 41l-180 464h120l113 -328l108 328h116z" />
    <glyph glyph-name="Ydieresis" unicode="&#x178;" horiz-adv-x="536" 
d="M125 876h93v-107h-93v107zM325 876h93v-107h-93v107zM414 680h119l-202 -402v-278h-118v278l-202 402h123l140 -277z" />
    <glyph glyph-name="Zacute" unicode="&#x179;" horiz-adv-x="532" 
d="M291 743h-93l87 145h116zM488 0h-443v102l311 472h-300v106h432v-101l-311 -473h311v-106z" />
    <glyph glyph-name="zacute" unicode="&#x17a;" horiz-adv-x="485" 
d="M277 555h-92l87 145h116zM433 98v-98h-381v89l251 295h-238v98h368v-95l-248 -289h248z" />
    <glyph glyph-name="Zdotaccent" unicode="&#x17b;" horiz-adv-x="532" 
d="M312 769h-93v107h93v-107zM488 0h-443v102l311 472h-300v106h432v-101l-311 -473h311v-106z" />
    <glyph glyph-name="zdotaccent" unicode="&#x17c;" horiz-adv-x="485" 
d="M292 573h-93v107h93v-107zM433 98v-98h-381v89l251 295h-238v98h368v-95l-248 -289h248z" />
    <glyph glyph-name="Zcaron" unicode="&#x17d;" horiz-adv-x="532" 
d="M334 896h86l-114 -145h-80l-114 145h86l68 -70zM488 0h-443v102l311 472h-300v106h432v-101l-311 -473h311v-106z" />
    <glyph glyph-name="zcaron" unicode="&#x17e;" horiz-adv-x="485" 
d="M313 699h86l-114 -145h-80l-114 145h86l68 -71zM433 98v-98h-381v89l251 295h-238v98h368v-95l-248 -289h248z" />
    <glyph glyph-name="florin" unicode="&#x192;" 
d="M339 324l-52 -342q-14 -88 -53 -125t-118 -37h-38v97h27q37 0 52.5 13t21.5 50l52 344h-75v85h88l18 113q13 84 52.5 121t116.5 37h40v-97h-30q-32 0 -49 -14t-22 -47l-18 -113h97v-85h-110z" />
    <glyph glyph-name="Scommaaccent" unicode="&#x218;" horiz-adv-x="587" 
d="M154 14q-33 12 -64.5 31.5t-52.5 41.5l74 86q94 -78 193 -78q59 0 93.5 26.5t34.5 71.5q0 40 -29.5 62.5t-94.5 31.5l-36 5q-205 28 -205 194q0 60 28.5 107t80.5 73q50 25 121 25q69 0 124 -18t103 -56l-58 -90q-39 28 -84.5 43t-87.5 15q-50 0 -78.5 -24.5t-28.5 -66.5
q0 -74 125 -92l36 -5q203 -29 203 -197q0 -99 -67 -155t-189 -56q-78 0 -141 25zM350 -145l-103 -100v191h103v-91z" />
    <glyph glyph-name="scommaaccent" unicode="&#x219;" horiz-adv-x="498" 
d="M44 71l70 75q33 -30 72.5 -46t76.5 -16q42 0 65.5 15t23.5 42q0 24 -18 36.5t-62 16.5l-52 5q-148 15 -148 142q0 72 49 112t138 40q56 0 101.5 -15t87.5 -50l-61 -74q-62 45 -134 45q-33 0 -53 -14t-20 -36q0 -23 18.5 -35t60.5 -16l52 -5q72 -7 110.5 -43.5t38.5 -97.5
q0 -76 -53.5 -119.5t-148.5 -43.5q-129 0 -214 82zM307 -145l-103 -100v191h103v-91z" />
    <glyph glyph-name="uni021A" unicode="&#x21a;" horiz-adv-x="550" 
d="M334 0h-118v574h-194v106h506v-106h-194v-574zM326 -145l-103 -100v191h103v-91z" />
    <glyph glyph-name="uni021B" unicode="&#x21b;" horiz-adv-x="321" 
d="M214 -6q-71 0 -102.5 34t-31.5 107v260h-48v87h48v148h112v-148h80v-87h-80v-256q0 -25 10.5 -35t34.5 -10h35v-100h-58zM232 -145l-103 -100v191h103v-91z" />
    <glyph glyph-name="uni0237" unicode="&#x237;" horiz-adv-x="258" 
d="M-15 -180v100h32q31 0 43.5 12.5t12.5 44.5v505h112v-503q0 -159 -162 -159h-38z" />
    <glyph glyph-name="circumflex" unicode="&#x2c6;" horiz-adv-x="422" 
d="M366 555h-86l-68 70l-68 -70h-86l114 145h80z" />
    <glyph glyph-name="caron" unicode="&#x2c7;" horiz-adv-x="422" 
d="M280 698h86l-114 -145h-80l-114 145h86l68 -70z" />
    <glyph glyph-name="breve" unicode="&#x2d8;" horiz-adv-x="422" 
d="M133 685q7 -29 26 -42.5t52 -13.5t52 13.5t26 42.5h68q-4 -62 -43 -97t-103 -35t-104.5 36t-41.5 96h68z" />
    <glyph glyph-name="dotaccent" unicode="&#x2d9;" horiz-adv-x="422" 
d="M257 573h-93v107h93v-107z" />
    <glyph glyph-name="ring" unicode="&#x2da;" horiz-adv-x="422" 
d="M311 630q0 -20 -8 -40t-21 -33q-28 -28 -71 -28q-20 0 -39 7.5t-32 20.5q-14 14 -21.5 32.5t-7.5 37.5q0 42 28.5 72t70.5 30q40 0 72 -29q29 -29 29 -70zM260 629q0 22 -13.5 36.5t-35.5 14.5q-20 0 -34.5 -14.5t-14.5 -36.5q0 -20 14 -37q17 -14 35 -14q21 0 35 14
t14 37z" />
    <glyph glyph-name="ogonek" unicode="&#x2db;" horiz-adv-x="422" 
d="M290 10q-34 -19 -56 -36q-16 -13 -16 -31q0 -23 13.5 -31t43.5 -8v-74q-60 0 -98 26.5t-38 77.5q0 26 12.5 43.5t38.5 32.5h100z" />
    <glyph glyph-name="tilde" unicode="&#x2dc;" horiz-adv-x="422" 
d="M201 581q-33 18 -56 18q-16 0 -36 -10t-40 -28v79q15 21 36.5 32.5t43.5 11.5q29 0 67 -20q33 -18 57 -18q14 0 34 10.5t41 28.5v-81q-15 -21 -36.5 -32t-43.5 -11q-29 0 -67 20z" />
    <glyph glyph-name="hungarumlaut" unicode="&#x2dd;" horiz-adv-x="422" 
d="M141 555h-86l75 145h100zM299 555h-86l75 145h100z" />
    <glyph glyph-name="uni0394" unicode="&#x394;" horiz-adv-x="625" 
d="M609 0h-587l240 680h111zM170 95h290l-145 420z" />
    <glyph glyph-name="uni03A9" unicode="&#x3a9;" horiz-adv-x="634" 
d="M53 0v106h78q-45 38 -61 87.5t-16 146.5q0 89 10 145.5t33 94.5q27 46 82.5 78.5t137.5 32.5q91 0 154.5 -43t89.5 -124q19 -54 19 -184q0 -95 -17 -148t-60 -86h78v-106h-222v106q48 14 74.5 74.5t26.5 159.5q0 93 -10 140.5t-39 75.5q-32 29 -94 29q-61 0 -93 -27.5
t-41 -80.5q-9 -49 -9 -137q0 -211 101 -234v-106h-222z" />
    <glyph glyph-name="uni03BC" unicode="&#x3bc;" horiz-adv-x="579" 
d="M260 -11q-52 0 -75 33v-202h-112v662h112v-289q0 -48 24 -76t66 -28t67.5 29t25.5 75v289h112v-343q0 -22 3 -31t10 -11.5t26 -2.5v-100h-35q-50 0 -73 14t-32 49q-35 -68 -119 -68z" />
    <glyph glyph-name="pi" unicode="&#x3c0;" horiz-adv-x="593" 
d="M497 -6q-67 0 -97 33t-30 104v251h-161v-382h-112v382h-67v100h523v-100h-71v-248q0 -22 7.5 -31t25.5 -9h26v-100h-44z" />
    <glyph glyph-name="Wgrave" unicode="&#x1e80;" horiz-adv-x="827" 
d="M462 743h-91l-111 145h116zM644 0h-94l-134 479l-135 -479h-94l-171 680h114l111 -473l131 473h88l134 -473l108 473h113z" />
    <glyph glyph-name="wgrave" unicode="&#x1e81;" horiz-adv-x="753" 
d="M425 555h-91l-111 145h116zM577 0h-100l-97 321l-98 -321h-100l-158 482h116l97 -332l96 332h92l102 -332l92 332h116z" />
    <glyph glyph-name="Wacute" unicode="&#x1e82;" horiz-adv-x="827" 
d="M466 743h-93l87 145h116zM644 0h-94l-134 479l-135 -479h-94l-171 680h114l111 -473l131 473h88l134 -473l108 473h113z" />
    <glyph glyph-name="wacute" unicode="&#x1e83;" horiz-adv-x="753" 
d="M429 555h-92l87 145h116zM577 0h-100l-97 321l-98 -321h-100l-158 482h116l97 -332l96 332h92l102 -332l92 332h116z" />
    <glyph glyph-name="Wdieresis" unicode="&#x1e84;" horiz-adv-x="827" 
d="M268 876h93v-107h-93v107zM468 876h93v-107h-93v107zM702 680h113l-171 -680h-94l-134 479l-135 -479h-94l-171 680h114l111 -473l131 473h88l134 -473z" />
    <glyph glyph-name="wdieresis" unicode="&#x1e85;" horiz-adv-x="753" 
d="M232 680h93v-107h-93v107zM432 680h93v-107h-93v107zM619 482h116l-158 -482h-100l-97 321l-98 -321h-100l-158 482h116l97 -332l96 332h92l102 -332z" />
    <glyph glyph-name="Ygrave" unicode="&#x1ef2;" horiz-adv-x="536" 
d="M328 743h-91l-111 145h116zM414 680h119l-202 -402v-278h-118v278l-202 402h123l140 -277z" />
    <glyph glyph-name="ygrave" unicode="&#x1ef3;" horiz-adv-x="485" 
d="M106 700h116l86 -145h-91zM286 -30q-31 -84 -66 -117t-96 -33h-41v100h28q28 0 44.5 13t27.5 44l14 41l-180 464h120l113 -328l108 328h116z" />
    <glyph glyph-name="uni2010" unicode="&#x2010;" horiz-adv-x="385" 
d="M340 216h-295v99h295v-99z" />
    <glyph glyph-name="endash" unicode="&#x2013;" horiz-adv-x="519" 
d="M499 312v-93h-479v93h479z" />
    <glyph glyph-name="emdash" unicode="&#x2014;" horiz-adv-x="867" 
d="M847 312v-93h-827v93h827z" />
    <glyph glyph-name="quoteleft" unicode="&#x2018;" horiz-adv-x="223" 
d="M61 589l101 90v-208h-101v118z" />
    <glyph glyph-name="quoteright" unicode="&#x2019;" horiz-adv-x="223" 
d="M162 562l-101 -92v210h101v-118z" />
    <glyph glyph-name="quotesinglbase" unicode="&#x201a;" horiz-adv-x="223" 
d="M162 -13l-101 -93v210h101v-117z" />
    <glyph glyph-name="quotedblleft" unicode="&#x201c;" horiz-adv-x="396" 
d="M61 590l101 90v-208h-101v118zM234 590l101 90v-208h-101v118z" />
    <glyph glyph-name="quotedblright" unicode="&#x201d;" horiz-adv-x="396" 
d="M61 680h101v-118l-101 -92v210zM234 680h101v-118l-101 -92v210z" />
    <glyph glyph-name="quotedblbase" unicode="&#x201e;" horiz-adv-x="396" 
d="M61 105h101v-118l-101 -92v210zM234 105h101v-118l-101 -92v210z" />
    <glyph glyph-name="dagger" unicode="&#x2020;" horiz-adv-x="535" 
d="M321 -180h-107v536h-160v95h160v229h107v-229h160v-95h-160v-536z" />
    <glyph glyph-name="daggerdbl" unicode="&#x2021;" horiz-adv-x="535" 
d="M321 -180h-107v199h-160v95h160v272h-160v95h160v199h107v-199h160v-95h-160v-272h160v-95h-160v-199z" />
    <glyph glyph-name="bullet" unicode="&#x2022;" horiz-adv-x="458" 
d="M128.5 208q-38.5 39 -38.5 100q0 62 39 100.5t100 38.5q62 0 100.5 -39t38.5 -100q0 -62 -39 -100.5t-100 -38.5q-62 0 -100.5 39z" />
    <glyph glyph-name="ellipsis" unicode="&#x2026;" horiz-adv-x="759" 
d="M186 0h-120v122h120v-122zM439 0h-120v122h120v-122zM692 0h-120v122h120v-122z" />
    <glyph glyph-name="perthousand" unicode="&#x2030;" horiz-adv-x="1089" 
d="M145 -11l407 702h86l-407 -702h-86zM115 352q-33 22 -45 58q-8 29 -8 99q0 53 4 80t16 45q14 21 41.5 37.5t68.5 16.5q44 0 77 -22t45 -58q8 -29 8 -99q0 -52 -4 -79.5t-15 -44.5q-15 -22 -42.5 -38.5t-68.5 -16.5q-44 0 -77 22zM224.5 409.5q9.5 7.5 12.5 28.5
q2 26 2 71t-2 71q-3 20 -12.5 28t-32.5 8t-32.5 -8t-12.5 -28q-3 -21 -3 -71t3 -71t12.5 -28.5t32.5 -7.5t32.5 7.5zM459 170q0 65 8 99q12 36 45 58t78 22q44 0 77 -22t45 -58q8 -29 8 -99q0 -52 -4 -79.5t-15 -44.5q-15 -22 -42.5 -38.5t-68.5 -16.5q-45 0 -78 22t-45 58
q-8 34 -8 99zM768 170q0 65 8 99q12 36 45 58t78 22q44 0 77 -22t45 -58q8 -29 8 -99q0 -52 -4 -79.5t-15 -44.5q-15 -22 -42.5 -38.5t-68.5 -16.5q-45 0 -78 22t-45 58q-8 34 -8 99zM590 63q23 0 32.5 7.5t12.5 28.5q2 26 2 71t-2 71q-3 20 -12.5 28t-32.5 8t-32.5 -8
t-12.5 -28q-3 -21 -3 -71q0 -71 4 -78q11 -29 44 -29zM899 63q23 0 32.5 7.5t12.5 28.5q2 26 2 71t-2 71q-3 20 -12.5 28t-32.5 8t-32.5 -8t-12.5 -28q-3 -21 -3 -71q0 -71 4 -78q11 -29 44 -29z" />
    <glyph glyph-name="guilsinglleft" unicode="&#x2039;" horiz-adv-x="315" 
d="M256 42l-221 222l221 222v-121l-101 -101l101 -101v-121z" />
    <glyph glyph-name="guilsinglright" unicode="&#x203a;" horiz-adv-x="315" 
d="M287 264l-221 -222v121l101 101l-101 101v121z" />
    <glyph glyph-name="uni203D" unicode="&#x203d;" horiz-adv-x="464" 
d="M378 645.5q52 -45.5 52 -122.5q0 -65 -46 -129l-101 -145v-59h-114l-24 303h119l-3 -117l27 42q20 28 26 48.5t6 52.5q0 36 -22 56.5t-63 20.5q-36 0 -60 -16t-33 -46l-109 14q38 143 206 143q87 0 139 -45.5zM166 122h120v-122h-120v122z" />
    <glyph glyph-name="fraction" unicode="&#x2044;" horiz-adv-x="159" 
d="M-74 -11h-86l407 702h86z" />
    <glyph glyph-name="Euro" unicode="&#x20ac;" 
d="M106 133q-13 39 -13 105h-53v78h53v53h-53v78h53q0 61 13 100q47 144 204 144q141 0 198 -129l-91 -43q-39 72 -107 72q-73 0 -95 -70q-9 -24 -9 -74h200l-14 -78h-186v-53h180l-14 -78h-166q0 -55 9 -79q22 -70 95 -70q34 0 60 17.5t47 54.5l91 -43q-57 -129 -198 -129
q-157 0 -204 144z" />
    <glyph glyph-name="uni2105" unicode="&#x2105;" horiz-adv-x="782" 
d="M545 691h87l-407 -702h-87zM314 628l-57 -50q-25 31 -60 31q-36 0 -49.5 -25t-13.5 -76q0 -50 14 -75.5t49 -25.5t60 31l58 -51q-48 -57 -120 -57q-51 0 -87 24.5t-49 69.5q-10 27 -10 84q0 60 13 95.5t46 58.5q36 24 87 24q71 0 119 -58zM672.5 322q35.5 -25 49.5 -69
q12 -36 12 -85q0 -111 -61 -154q-34 -25 -86 -25t-88.5 24.5t-49.5 69.5q-10 37 -10 85q0 115 60 155q36 24 88 24q50 0 85.5 -25zM536.5 247q-12.5 -24 -12.5 -79q0 -54 12.5 -78.5t50.5 -24.5q44 0 57 43q6 26 6 60q0 52 -13 77.5t-50 25.5q-38 0 -50.5 -24z" />
    <glyph glyph-name="uni2113" unicode="&#x2113;" horiz-adv-x="446" 
d="M29 214l93 70v204q0 97 39 150t113 53q62 0 99 -39.5t37 -107.5q0 -77 -43 -150t-133 -151v-95q0 -59 44 -59q29 0 66 33l49 -71q-33 -33 -66 -47.5t-73 -14.5q-132 0 -132 158v26l-42 -31zM234 363q81 84 81 180q0 60 -38 60q-22 0 -32 -22q-11 -25 -11 -79v-139z" />
    <glyph glyph-name="uni2117" unicode="&#x2117;" horiz-adv-x="826" 
d="M413 -11q-98 0 -178.5 46.5t-126.5 127.5q-46 79 -46 177q0 97 46 177.5t127 127.5q79 46 178 46q98 0 178.5 -46t126.5 -127q46 -80 46 -178q0 -146 -101 -250q-101 -101 -250 -101zM413 65q77 0 138.5 36t97.5 99q35 64 35 140q0 118 -78 196q-76 79 -193 79
q-75 0 -137.5 -36t-97.5 -99q-36 -63 -36 -140q0 -117 77 -197q78 -78 194 -78zM287 526h133q160 0 160 -121q0 -135 -160 -135h-50v-130h-83v386zM405 339q51 0 72 14t21 49q0 32 -21 45t-72 13h-35v-121h35z" />
    <glyph glyph-name="trademark" unicode="&#x2122;" horiz-adv-x="848" 
d="M241 286h-83v321h-116v73h315v-73h-116v-321zM794 286h-78v219l-75 -162h-61l-76 162v-219h-78v394h72l114 -245l109 245h73v-394z" />
    <glyph glyph-name="uni2126" unicode="&#x2126;" horiz-adv-x="634" 
d="M471.5 648q63.5 -43 89.5 -124q19 -54 19 -184q0 -95 -17 -148t-60 -86h78v-106h-222v106q48 14 74.5 74.5t26.5 159.5q0 93 -10 140.5t-39 75.5q-32 29 -94 29q-61 0 -93 -27.5t-41 -80.5q-9 -49 -9 -137q0 -211 101 -234v-106h-222v106h78q-45 38 -61 87.5t-16 146.5
q0 89 10 145.5t33 94.5q27 46 82.5 78.5t137.5 32.5q91 0 154.5 -43z" />
    <glyph glyph-name="estimated" unicode="&#x212e;" horiz-adv-x="599" 
d="M177 22q-53 33 -83 91q-30 57 -30 129t29.5 129t82.5 90q53 32 122 32q71 0 124.5 -31t83.5 -89q29 -58 29 -131h-369v-166q52 -52 132 -52q114 0 175 109l33 -21q-43 -66 -91 -94.5t-117 -28.5q-68 0 -121 33zM432 407q-58 55 -134 55q-80 0 -132 -55v-132h266v132z" />
    <glyph glyph-name="partialdiff" unicode="&#x2202;" horiz-adv-x="546" 
d="M143.5 15.5q-46.5 26.5 -71.5 74.5q-25 46 -25 107q0 63 26.5 114t74.5 80q47 29 107 29q85 0 141 -56q-1 106 -39 168t-104 62q-60 0 -115 -46l-52 79q73 64 170 64q115 0 179 -86t64 -244q0 -174 -64 -273t-184 -99q-61 0 -107.5 26.5zM392 284q-53 44 -119 44
q-55 0 -87 -33.5t-32 -93.5q0 -50 29 -80.5t78 -30.5q114 0 131 194z" />
    <glyph glyph-name="uni2206" unicode="&#x2206;" horiz-adv-x="625" 
d="M609 0h-587l240 680h111zM170 95h290l-145 420z" />
    <glyph glyph-name="product" unicode="&#x220f;" horiz-adv-x="667" 
d="M587 -180h-118v814h-271v-814h-118v920h507v-920z" />
    <glyph glyph-name="summation" unicode="&#x2211;" horiz-adv-x="538" 
d="M497 -180h-456v96l180 402l-176 321v101h442v-106h-308l166 -307l-178 -401h330v-106z" />
    <glyph glyph-name="minus" unicode="&#x2212;" 
d="M494 325v-98h-439v98h439z" />
    <glyph glyph-name="uni2215" unicode="&#x2215;" horiz-adv-x="159" 
d="M-74 -11h-86l407 702h86z" />
    <glyph glyph-name="uni2219" unicode="&#x2219;" horiz-adv-x="252" 
d="M186 204h-120v122h120v-122z" />
    <glyph glyph-name="radical" unicode="&#x221a;" horiz-adv-x="641" 
d="M374 -180h-92l-139 280l-72 -34l-38 78l160 77l126 -264l211 783h99z" />
    <glyph glyph-name="infinity" unicode="&#x221e;" horiz-adv-x="763" 
d="M382 184q-94 -100 -184 -100q-71 0 -115.5 45.5t-44.5 116.5q0 72 45.5 117.5t116.5 45.5q85 0 181 -103q53 56 94.5 79.5t87.5 23.5q45 0 82.5 -22t58.5 -59t21 -82q0 -71 -45 -116.5t-116 -45.5q-91 0 -182 100zM328 247q-41 47 -69 66t-55 19q-38 0 -61.5 -23.5
t-23.5 -60.5q0 -38 23.5 -62.5t61.5 -24.5q47 0 124 86zM620 186q24 25 24 62t-23 60.5t-61 23.5q-27 0 -55 -19.5t-70 -67.5q45 -48 71.5 -66t53.5 -18q36 0 60 25z" />
    <glyph glyph-name="integral" unicode="&#x222b;" horiz-adv-x="444" 
d="M60 -176v100q25 -5 42 -5q34 0 49 20t15 68v524q0 111 37.5 160t121.5 49q35 0 59 -4v-98l-43 3q-33 0 -48.5 -20.5t-15.5 -67.5v-524q0 -110 -38 -159.5t-120 -49.5q-44 0 -59 4z" />
    <glyph glyph-name="approxequal" unicode="&#x2248;" 
d="M298 414q40 -25 66 -25q45 0 75 58l70 -42q-22 -50 -61 -78.5t-85 -28.5q-48 0 -104 36q-40 25 -67 25q-44 0 -74 -58l-70 42q20 49 59.5 77.5t85.5 28.5t105 -35zM298 218q40 -25 66 -25q45 0 75 58l70 -42q-22 -50 -61 -78.5t-85 -28.5q-48 0 -104 36q-40 25 -67 25
q-44 0 -74 -58l-70 42q20 49 59.5 77.5t85.5 28.5t105 -35z" />
    <glyph glyph-name="notequal" unicode="&#x2260;" 
d="M494 225v-98h-247l-53 -110h-91l53 110h-101v98h149l49 102h-198v98h246l54 110h90l-53 -110h102v-98h-150l-49 -102h199z" />
    <glyph glyph-name="lessequal" unicode="&#x2264;" 
d="M494 152l-439 180v86l439 180v-108l-299 -115l299 -115v-108zM494 99v-99h-439v99h439z" />
    <glyph glyph-name="greaterequal" unicode="&#x2265;" 
d="M494 332l-439 -180v108l299 115l-299 115v108l439 -180v-86zM494 99v-99h-439v99h439z" />
    <glyph glyph-name="lozenge" unicode="&#x25ca;" horiz-adv-x="561" 
d="M334 -52h-101l-182 381l182 381h101l182 -381zM157 329l129 -279l124 279l-127 279z" />
    <glyph glyph-name="f_i" unicode="&#xf001;" horiz-adv-x="586" 
d="M88 395h-48v87h48v37q0 161 160 161h54v-100h-41q-38 0 -49.5 -11.5t-11.5 -47.5v-39h102v-87h-102v-395h-112v395zM513 573h-112v107h112v-107zM513 0h-112v482h112v-482z" />
    <glyph glyph-name="f_l" unicode="&#xf002;" horiz-adv-x="619" 
d="M88 395h-48v87h48v37q0 161 160 161h54v-100h-41q-36 0 -48.5 -12.5t-12.5 -46.5v-39h102v-87h-102v-395h-112v395zM531 -6q-69 0 -100.5 33t-31.5 105v548h112v-542q0 -24 10 -34t32 -10h32v-100h-54z" />
    <glyph glyph-name="uniF8FF" unicode="&#xf8ff;" horiz-adv-x="483" 
d="M0 0v680h483v-680h-483zM59 625v-570h365v570h-365zM192 271q0 29 17 55l51 70q21 30 21 53q0 21 -13.5 35t-34.5 14q-24 0 -37.5 -13t-20.5 -43l-70 13q10 53 43.5 80.5t87.5 27.5q52 0 85.5 -32.5t33.5 -81.5q0 -42 -26 -74l-50 -71q-13 -16 -13 -41v-26h-74v34z
M190 114v79h78v-79h-78z" />
    <glyph glyph-name="f_f" unicode="&#xfb00;" horiz-adv-x="656" 
d="M88 395h-48v87h48v37q0 161 160 161h54v-100h-41q-27 0 -40 -5.5t-17 -17.5q-4 -11 -4 -36v-39h102v-87h-102v-395h-112v395zM416 395h-48v87h48v37q0 161 160 161h54v-100h-41q-38 0 -49.5 -11.5t-11.5 -47.5v-39h102v-87h-102v-395h-112v395z" />
    <glyph glyph-name="fi" unicode="&#xfb01;" horiz-adv-x="586" 
d="M88 395h-48v87h48v37q0 161 160 161h54v-100h-41q-22 0 -34 -3.5t-18 -12.5q-9 -12 -9 -43v-39h102v-87h-102v-395h-112v395zM513 573h-112v107h112v-107zM513 0h-112v482h112v-482z" />
    <glyph glyph-name="fl" unicode="&#xfb02;" horiz-adv-x="619" 
d="M88 395h-48v87h48v37q0 161 160 161h54v-100h-41q-36 0 -48.5 -12.5t-12.5 -46.5v-39h102v-87h-102v-395h-112v395zM531 -6q-69 0 -100.5 33t-31.5 105v548h112v-542q0 -24 10 -34t32 -10h32v-100h-54z" />
    <glyph glyph-name="f_f_i" unicode="&#xfb03;" horiz-adv-x="914" 
d="M88 395h-48v87h48v37q0 161 160 161h54v-100h-41q-24 0 -34.5 -3t-17.5 -12q-9 -12 -9 -44v-39h102v-87h-102v-395h-112v395zM416 395h-48v87h48v37q0 161 160 161h54v-100h-41q-36 0 -48.5 -12.5t-12.5 -46.5v-39h102v-87h-102v-395h-112v395zM841 573h-112v107h112
v-107zM841 0h-112v482h112v-482z" />
    <glyph glyph-name="f_f_l" unicode="&#xfb04;" horiz-adv-x="947" 
d="M88 395h-48v87h48v37q0 161 160 161h54v-100h-41q-22 0 -33.5 -3t-17.5 -11q-10 -13 -10 -45v-39h102v-87h-102v-395h-112v395zM416 395h-48v87h48v37q0 161 160 161h54v-100h-41q-37 0 -49 -11.5t-12 -47.5v-39h102v-87h-102v-395h-112v395zM859 -6q-69 0 -100.5 33
t-31.5 105v548h112v-542q0 -24 10 -34t32 -10h32v-100h-54z" />
    </font>
</defs>
</svg>
